<?xml version="1.0" encoding="UTF-8" standalone="no"?>
<svg
   version="1.1"
   width="120.3158"
   height="234.56598"
   style="clip-rule:evenodd;fill-rule:evenodd;image-rendering:optimizeQuality;shape-rendering:geometricPrecision;text-rendering:geometricPrecision"
   id="svg1400"
   xmlns="http://www.w3.org/2000/svg"
   xmlns:svg="http://www.w3.org/2000/svg">
  <defs
     id="defs1400" />
  <g
     id="g346"
     transform="translate(-820.77899,-272.48044)">
    <path
       style="opacity:1"
       fill="#f5f4f3"
       d="m 893.5,312.5 c 2.586,4.287 5.586,8.454 9,12.5 -7.092,0.212 -12.758,3.046 -17,8.5 -3.268,0.987 -6.602,1.32 -10,1 0.203,-1.89 -0.463,-3.39 -2,-4.5 -3.118,-1.893 -6.451,-3.226 -10,-4 9.695,-1.564 18.695,-4.897 27,-10 1.21,-1.039 2.21,-2.206 3,-3.5 z"
       id="path346" />
  </g>
  <g
     id="g347"
     transform="translate(-820.77899,-272.48044)">
    <path
       style="opacity:1"
       fill="#c29764"
       d="m 866.5,298.5 c 1.058,2.897 3.058,5.064 6,6.5 4.222,1.812 8.556,3.312 13,4.5 -1.148,1.649 -2.481,3.149 -4,4.5 -4.576,1.476 -9.243,1.81 -14,1 -3.623,-1.156 -7.289,-2.156 -11,-3 -2.044,-0.498 -3.378,-1.665 -4,-3.5 3.826,-4.49 8.493,-7.823 14,-10 z"
       id="path347" />
  </g>
  <g
     id="g348"
     transform="translate(-820.77899,-272.48044)">
    <path
       style="opacity:1"
       fill="#985b36"
       d="m 868.5,290.5 c 1,0 2,0 3,0 0.219,1.175 -0.114,2.175 -1,3 -5.932,2.212 -11.099,5.545 -15.5,10 0.893,-2.936 2.726,-5.436 5.5,-7.5 2.57,-2.087 5.237,-3.92 8,-5.5 z"
       id="path348" />
  </g>
  <g
     id="g349"
     transform="translate(-820.77899,-272.48044)">
    <path
       style="opacity:1"
       fill="#da4e46"
       d="m 912.5,285.5 c 13.481,-2.995 16.647,1.339 9.5,13 -2.094,2.603 -4.594,4.603 -7.5,6 -4.332,-3.331 -8.665,-6.665 -13,-10 0.209,-0.586 0.543,-1.086 1,-1.5 3,-0.333 6,-0.667 9,-1 -2.726,-0.182 -5.393,-0.682 -8,-1.5 2.721,-2.234 5.721,-3.901 9,-5 z"
       id="path349" />
  </g>
  <g
     id="g350"
     transform="translate(-820.77899,-272.48044)">
    <path
       style="opacity:1"
       fill="#d65148"
       d="m 893.5,288.5 c 5.431,-1.406 7.765,0.594 7,6 -3.196,-0.399 -6.196,-1.399 -9,-3 0.693,-1.018 1.359,-2.018 2,-3 z"
       id="path350" />
  </g>
  <g
     id="g351"
     transform="translate(-820.77899,-272.48044)">
    <path
       style="opacity:1"
       fill="#dd4e49"
       d="m 875.5,272.5 c 2.155,-0.128 4.155,0.372 6,1.5 4.418,3.747 8.084,8.08 11,13 -0.525,0.692 -1.192,1.192 -2,1.5 -2.43,-2.056 -5.097,-3.223 -8,-3.5 2.501,1.673 4.834,3.507 7,5.5 -5.315,0.887 -10.648,1.554 -16,2 -0.942,-5.305 -1.109,-10.639 -0.5,-16 0.662,-1.484 1.496,-2.817 2.5,-4 z"
       id="path351" />
  </g>
  <g
     id="g352"
     transform="translate(-820.77899,-272.48044)">
    <path
       style="opacity:1"
       fill="#a9645d"
       d="m 851.5,326.5 c 8.567,-0.86 16.067,1.473 22.5,7 1.737,11.551 -3.097,18.218 -14.5,20 -4.742,-0.287 -8.575,-2.287 -11.5,-6 -1.697,-5.696 -3.53,-11.363 -5.5,-17 2.706,-2.068 5.706,-3.401 9,-4 z"
       id="path352" />
  </g>
  <g
     id="g353"
     transform="translate(-820.77899,-272.48044)">
    <path
       style="opacity:1"
       fill="#1a1917"
       d="m 849.5,328.5 c 7.377,-0.811 14.377,0.356 21,3.5 4.074,8.214 2.074,14.547 -6,19 -6.194,1.711 -11.36,0.211 -15.5,-4.5 -1.606,-5.239 -2.273,-10.572 -2,-16 0.995,-0.566 1.828,-1.233 2.5,-2 z"
       id="path353" />
  </g>
  <g
     id="g354"
     transform="translate(-820.77899,-272.48044)">
    <path
       style="opacity:1"
       fill="#b86054"
       d="m 910.5,329.5 c 0.342,-0.838 1.008,-1.172 2,-1 3.293,-0.185 5.96,0.982 8,3.5 -1.29,5.618 -3.123,11.118 -5.5,16.5 -1.432,1.939 -3.265,3.272 -5.5,4 -0.667,0 -1,-0.333 -1,-1 5.504,-3.333 8.17,-8.333 8,-15 0.865,-4.801 -1.135,-7.134 -6,-7 z"
       id="path354" />
  </g>
  <g
     id="g355"
     transform="translate(-820.77899,-272.48044)">
    <path
       style="opacity:1"
       fill="#1e1c19"
       d="m 910.5,329.5 c 4.865,-0.134 6.865,2.199 6,7 0.17,6.667 -2.496,11.667 -8,15 -13.953,2.879 -20.786,-2.788 -20.5,-17 1.167,-1.167 2.333,-2.333 3.5,-3.5 6.242,-1.37 12.575,-1.87 19,-1.5 z"
       id="path355" />
  </g>
  <g
     id="g356"
     transform="translate(-820.77899,-272.48044)">
    <path
       style="opacity:1"
       fill="#efedee"
       d="m 897.5,330.5 c 4.014,-0.166 8.014,10e-4 12,0.5 1.829,0.273 3.329,1.107 4.5,2.5 1.76,12.907 -3.74,18.407 -16.5,16.5 -6.628,-3.091 -9.128,-8.257 -7.5,-15.5 2.255,-1.999 4.755,-3.332 7.5,-4 z"
       id="path356" />
  </g>
  <g
     id="g357"
     transform="translate(-820.77899,-272.48044)">
    <path
       style="opacity:1"
       fill="#1a1b1a"
       d="m 899.5,334.5 c 4.45,-0.358 7.95,1.308 10.5,5 0.781,1.444 0.614,2.777 -0.5,4 -2.132,-2.313 -4.632,-3.98 -7.5,-5 -3.304,1.172 -6.471,2.505 -9.5,4 0.9,-3.901 3.233,-6.568 7,-8 z"
       id="path357" />
  </g>
  <g
     id="g358"
     transform="translate(-820.77899,-272.48044)">
    <path
       style="opacity:1"
       fill="#f1f0f0"
       d="m 851.5,329.5 c 4.397,-0.075 8.73,0.425 13,1.5 5.033,1.345 7.2,4.511 6.5,9.5 -5.742,-7.968 -11.575,-7.968 -17.5,0 0.333,1 1,1.667 2,2 2.686,-4.563 6.353,-5.73 11,-3.5 0.667,2 2,3.333 4,4 -3.646,6.124 -8.98,8.124 -16,6 -4.819,-4.419 -6.652,-9.919 -5.5,-16.5 1.045,-0.873 1.878,-1.873 2.5,-3 z"
       id="path358" />
  </g>
  <g
     id="g359"
     transform="translate(-820.77899,-272.48044)">
    <path
       style="opacity:1"
       fill="#a86261"
       d="m 912.5,328.5 c -0.992,-0.172 -1.658,0.162 -2,1 -6.425,-0.37 -12.758,0.13 -19,1.5 -1.167,1.167 -2.333,2.333 -3.5,3.5 -0.286,14.212 6.547,19.879 20.5,17 0,0.667 0.333,1 1,1 -6.63,2.65 -12.964,1.817 -19,-2.5 -2.386,-3.837 -4.386,-7.837 -6,-12 -3,-0.333 -6,-0.667 -9,-1 3.652,-0.499 7.318,-0.665 11,-0.5 0.643,-3.488 2.643,-5.988 6,-7.5 6.778,-1.679 13.444,-1.846 20,-0.5 z"
       id="path359" />
  </g>
  <g
     id="g360"
     transform="translate(-820.77899,-272.48044)">
    <path
       style="opacity:1"
       fill="#9a683a"
       d="m 915.5,308.5 c -2.357,-0.163 -4.69,0.003 -7,0.5 -2.457,1.562 -5.124,2.562 -8,3 1.504,1.491 2.337,3.324 2.5,5.5 3.251,2.409 6.918,3.409 11,3 2.61,-0.033 4.777,-0.7 6.5,-2 2.077,3.898 3.41,3.731 4,-0.5 -0.482,-4.763 -1.815,-9.263 -4,-13.5 0.203,-1.708 1.036,-3.041 2.5,-4 6.641,7.918 10.141,17.085 10.5,27.5 -0.95,7.487 -1.117,14.987 -0.5,22.5 1.196,4.723 3.196,9.057 6,13 0.667,3 0.667,6 0,9 -1.731,3.795 -3.731,7.462 -6,11 -0.167,1.333 -0.333,2.667 -0.5,4 -0.188,6.299 2.645,8.632 8.5,7 0.699,7.298 -2.467,11.632 -9.5,13 0.162,-2.027 -0.005,-4.027 -0.5,-6 -3.903,-1.366 -7.403,-3.366 -10.5,-6 -2.391,-2.115 -3.724,-4.781 -4,-8 0.438,-1.006 1.104,-1.006 2,0 0.809,3.519 2.809,4.852 6,4 -5.125,-4.014 -5.292,-8.348 -0.5,-13 0.667,-2 0.667,-4 0,-6 -1.961,-2.963 -4.294,-5.629 -7,-8 -1.047,-2.539 -1.547,-5.205 -1.5,-8 1.766,-6.558 3.266,-13.225 4.5,-20 2.303,-1.838 2.969,-4.172 2,-7 -6.37,-1.67 -12.537,-3.837 -18.5,-6.5 -4.093,-4.018 -6.76,-8.851 -8,-14.5 -3.935,4.43 -8.602,7.93 -14,10.5 -12.844,3.695 -25.844,6.528 -39,8.5 -1.179,-8.64 2.154,-14.973 10,-19 0.622,1.835 1.956,3.002 4,3.5 3.711,0.844 7.377,1.844 11,3 4.757,0.81 9.424,0.476 14,-1 1.519,-1.351 2.852,-2.851 4,-4.5 -4.444,-1.188 -8.778,-2.688 -13,-4.5 -2.942,-1.436 -4.942,-3.603 -6,-6.5 2.897,-2.278 6.23,-3.778 10,-4.5 15.663,-1.95 28.663,2.883 39,14.5 z"
       id="path360" />
  </g>
  <g
     id="g361"
     transform="translate(-820.77899,-272.48044)">
    <path
       style="opacity:1"
       fill="#c59760"
       d="m 915.5,308.5 c 2.192,3.05 3.858,6.383 5,10 -1.723,1.3 -3.89,1.967 -6.5,2 -4.082,0.409 -7.749,-0.591 -11,-3 -0.163,-2.176 -0.996,-4.009 -2.5,-5.5 2.876,-0.438 5.543,-1.438 8,-3 2.31,-0.497 4.643,-0.663 7,-0.5 z"
       id="path361" />
  </g>
  <g
     id="g362"
     transform="translate(-820.77899,-272.48044)">
    <path
       style="opacity:1"
       fill="#9c3a3b"
       d="m 916.5,305.5 c 0.996,-0.086 1.829,0.248 2.5,1 1.885,2.414 2.552,5.081 2,8 -2.06,-2.786 -3.56,-5.786 -4.5,-9 z"
       id="path362" />
  </g>
  <g
     id="g363"
     transform="translate(-820.77899,-272.48044)">
    <path
       style="opacity:1"
       fill="#f3f3f3"
       d="m 913.5,362.5 c -1.901,2.296 -4.234,4.129 -7,5.5 -10.051,5.222 -20.718,7.389 -32,6.5 -14.549,-0.085 -23.549,-7.085 -27,-21 0.333,-1 0.667,-2 1,-3 5.759,4.331 12.092,5.164 19,2.5 4.426,-2.998 7.259,-7.165 8.5,-12.5 2.795,-1.283 5.628,-1.283 8.5,0 0.9,5.476 3.567,9.81 8,13 -8.091,3.257 -16.424,3.924 -25,2 -0.178,9.658 4.655,14.658 14.5,15 9.633,-0.467 14.8,-5.467 15.5,-15 5.699,0.569 11.032,-0.431 16,-3 0.137,3.053 0.137,6.386 0,10 z"
       id="path363" />
  </g>
  <g
     id="g364"
     transform="translate(-820.77899,-272.48044)">
    <path
       style="opacity:1"
       fill="#1b1b1a"
       d="m 878.5,344.5 c 3.169,0.162 5.169,1.828 6,5 -1.957,2.559 -3.623,2.226 -5,-1 -1.024,1.353 -2.357,2.02 -4,2 0.115,-2.447 1.115,-4.447 3,-6 z"
       id="path364" />
  </g>
  <g
     id="g365"
     transform="translate(-820.77899,-272.48044)">
    <path
       style="opacity:1"
       fill="#de5f59"
       d="m 883.5,361.5 c 11.615,0.448 11.949,2.615 1,6.5 -2.966,0.895 -5.633,0.395 -8,-1.5 2.118,-2.142 4.452,-3.808 7,-5 z"
       id="path365" />
  </g>
  <g
     id="g366"
     transform="translate(-820.77899,-272.48044)">
    <path
       style="opacity:1"
       fill="#d3d3d2"
       d="m 913.5,362.5 c 1.225,1.437 2.225,3.104 3,5 -13.284,7.26 -27.284,9.593 -42,7 11.282,0.889 21.949,-1.278 32,-6.5 2.766,-1.371 5.099,-3.204 7,-5.5 z"
       id="path366" />
  </g>
  <g
     id="g372"
     transform="translate(-820.77899,-272.48044)">
    <path
       style="opacity:1"
       fill="#9c6a37"
       d="m 844.5,348.5 c 0.253,13.448 6.92,22.282 20,26.5 4.968,1.079 9.968,1.912 15,2.5 0.219,1.175 -0.114,2.175 -1,3 -4.07,-1.418 -8.07,-1.251 -12,0.5 -2.167,3.5 -5,6.333 -8.5,8.5 0.283,7.374 -2.551,13.207 -8.5,17.5 -6.995,-0.491 -10.995,-4.324 -12,-11.5 8.015,0.7 10.848,-2.966 8.5,-11 -3,-3.667 -6,-7.333 -9,-11 -1.826,-7.053 -0.159,-13.053 5,-18 1.411,-2.15 2.245,-4.484 2.5,-7 z"
       id="path372" />
  </g>
  <g
     id="g373"
     transform="translate(-820.77899,-272.48044)">
    <path
       style="opacity:1"
       fill="#8e5f36"
       d="m 918.5,387.5 c -0.896,-1.006 -1.562,-1.006 -2,0 -3.583,-3.067 -7.583,-5.567 -12,-7.5 -4.058,-0.767 -8.058,-0.6 -12,0.5 -0.333,-0.5 -0.667,-1 -1,-1.5 0.556,-1.011 1.222,-1.844 2,-2.5 9.095,-0.356 17.428,-3.022 25,-8 6.434,4.415 6.601,9.082 0.5,14 -0.494,1.634 -0.66,3.301 -0.5,5 z"
       id="path373" />
  </g>
  <g
     id="g375"
     transform="translate(-820.77899,-272.48044)">
    <path
       style="opacity:1"
       fill="#d7dce0"
       d="m 877.5,381.5 c 1.306,0.967 1.973,2.301 2,4 -1.333,0 -2.667,0 -4,0 -1,0 -2,0 -3,0 0,-1.333 0,-2.667 0,-4 1.667,0 3.333,0 5,0 z"
       id="path375" />
  </g>
  <g
     id="g376"
     transform="translate(-820.77899,-272.48044)">
    <path
       style="opacity:1"
       fill="#ddb468"
       d="m 870.5,386.5 c 0,0.333 0,0.667 0,1 -2.954,-1.592 -3.954,-0.925 -3,2 -0.825,0.886 -1.825,1.219 -3,1 -0.008,-4.013 1.659,-7.013 5,-9 0.952,1.545 1.285,3.212 1,5 z"
       id="path376" />
  </g>
  <g
     id="g378"
     transform="translate(-820.77899,-272.48044)">
    <path
       style="opacity:1"
       fill="#ede38a"
       d="m 870.5,387.5 c 0.118,5.086 2.451,8.42 7,10 0,1 0,2 0,3 -0.904,-0.709 -1.237,-1.709 -1,-3 -1.667,0 -3.333,0 -5,0 0.903,3.368 2.237,6.535 4,9.5 -2.035,0.599 -3.701,0.099 -5,-1.5 1.007,-2.07 0.674,-4.07 -1,-6 -2.728,-1.44 -4.895,-0.774 -6.5,2 -0.49,-1.293 -0.657,-2.627 -0.5,-4 -0.106,-2.579 0.561,-4.912 2,-7 1.175,0.219 2.175,-0.114 3,-1 -0.954,-2.925 0.046,-3.592 3,-2 z"
       id="path378" />
  </g>
  <g
     id="g379"
     transform="translate(-820.77899,-272.48044)">
    <path
       style="opacity:1"
       fill="#e3b560"
       d="m 905.5,390.5 c 0,2 0,4 0,6 -1,0 -2,0 -3,0 0.262,1.478 -0.071,2.811 -1,4 -1.122,-1.13 -2.456,-1.797 -4,-2 0.734,-1.208 1.067,-2.541 1,-4 1.333,0 2.667,0 4,0 -0.17,-1.322 0.163,-2.489 1,-3.5 -2.31,-0.497 -4.643,-0.663 -7,-0.5 0,-0.667 0.333,-1 1,-1 1.667,0 3.333,0 5,0 0.996,0.086 1.829,-0.248 2.5,-1 0.464,0.594 0.631,1.261 0.5,2 z"
       id="path379" />
  </g>
  <g
     id="g380"
     transform="translate(-820.77899,-272.48044)">
    <path
       style="opacity:1"
       fill="#262421"
       d="m 893.5,376.5 c -0.778,0.656 -1.444,1.489 -2,2.5 0.333,0.5 0.667,1 1,1.5 3.942,-1.1 7.942,-1.267 12,-0.5 4.417,1.933 8.417,4.433 12,7.5 0.276,3.219 1.609,5.885 4,8 -0.667,0 -1,0.333 -1,1 -2.824,-2.3 -4.657,-5.3 -5.5,-9 -1.011,-0.837 -2.178,-1.17 -3.5,-1 -0.629,2.486 -1.629,4.819 -3,7 0.843,2.948 2.843,4.781 6,5.5 2.5,3.167 5,6.333 7.5,9.5 0.383,-0.556 0.883,-0.889 1.5,-1 0.667,0 1.333,0 2,0 -4.496,4.664 -8.83,9.498 -13,14.5 0.833,0.833 1.667,1.667 2.5,2.5 4.413,-6.229 9.246,-11.895 14.5,-17 1.884,0.839 3.217,2.172 4,4 -1.64,3.941 -3.806,7.608 -6.5,11 -3.004,2.174 -5.837,4.508 -8.5,7 2.542,7.598 5.542,15.098 9,22.5 -0.145,0.772 -0.478,1.439 -1,2 -5.241,2.233 -10.241,4.733 -15,7.5 0.645,1.146 1.478,2.146 2.5,3 0.62,4.854 0.453,9.687 -0.5,14.5 -0.018,2.41 0.649,4.577 2,6.5 -0.219,1.175 0.114,2.175 1,3 2.577,1.443 4.91,3.11 7,5 1.884,0.212 3.217,1.212 4,3 -1.105,2.111 -2.771,3.445 -5,4 -2.945,0.968 -5.945,1.134 -9,0.5 -2.833,-2.167 -5.667,-4.333 -8.5,-6.5 -0.444,-3.457 0.056,-6.79 1.5,-10 -0.02,-1.226 -0.353,-2.226 -1,-3 -1.818,-4.269 -3.485,-8.603 -5,-13 -0.214,-1.644 0.12,-3.144 1,-4.5 -8.327,-0.5 -16.66,-0.666 -25,-0.5 0,1.667 0,3.333 0,5 -1.102,4.247 -1.268,8.58 -0.5,13 0.66,1.824 1.827,3.157 3.5,4 0.829,2.969 0.995,5.969 0.5,9 -5.122,2.145 -10.288,4.145 -15.5,6 -3.94,-0.303 -6.94,-2.136 -9,-5.5 0.145,-0.772 0.478,-1.439 1,-2 3.148,-1.424 6.148,-2.924 9,-4.5 2.791,-4.739 2.291,-9.406 -1.5,-14 -0.392,-2.688 -0.892,-5.355 -1.5,-8 1.151,-1.825 1.818,-3.825 2,-6 -5.489,-0.744 -10.155,-3.078 -14,-7 4.022,-12.734 9.022,-25.067 15,-37 -0.828,-0.915 -1.828,-1.581 -3,-2 -3.413,3.578 -7.413,6.244 -12,8 -4.745,-1.207 -9.078,-3.207 -13,-6 0,-0.667 0.333,-1 1,-1 2.973,1.487 5.973,2.987 9,4.5 2.228,0.82 4.228,0.487 6,-1 -6.241,-1.787 -11.908,-4.62 -17,-8.5 0.342,-0.838 1.008,-1.172 2,-1 4.791,0.606 8.791,2.773 12,6.5 0.948,0.483 1.948,0.649 3,0.5 0,-1.333 0,-2.667 0,-4 0.333,0 0.667,0 1,0 0.663,1.542 1.33,3.209 2,5 0.586,-0.209 1.086,-0.543 1.5,-1 1.689,-5.627 2.856,-11.294 3.5,-17 -0.302,2.559 0.032,4.893 1,7 2.291,5.151 6.291,7.817 12,8 7.871,1.284 15.871,1.284 24,0 3.247,0.085 6.081,-0.915 8.5,-3 1.904,-3.423 2.737,-7.09 2.5,-11 -1,0 -2,0 -3,0 0,-1.333 0,-2.667 0,-4 0,-2 0,-4 0,-6 0.716,-2.056 1.383,-4.223 2,-6.5 -1.772,-1.487 -3.772,-1.82 -6,-1 -0.752,0.671 -1.086,1.504 -1,2.5 -0.988,1.295 -1.988,2.628 -3,4 -0.667,0 -1,0.333 -1,1 -1.912,2.961 -4.579,4.961 -8,6 -3.515,2.122 -7.181,2.455 -11,1 -4.549,-1.58 -6.882,-4.914 -7,-10 0,-0.333 0,-0.667 0,-1 3.801,1.215 7.467,1.215 11,0 -2.235,0.295 -4.235,-0.039 -6,-1 1.333,0 2.667,0 4,0 -0.027,-1.699 -0.694,-3.033 -2,-4 1,0 2,0 3,0 -0.268,-1.599 0.066,-2.932 1,-4 0,1.333 0,2.667 0,4 3,0 6,0 9,0 0,-1.333 0,-2.667 0,-4 0.709,-0.904 1.709,-1.237 3,-1 z"
       id="path380" />
  </g>
  <g
     id="g381"
     transform="translate(-820.77899,-272.48044)">
    <path
       style="opacity:1"
       fill="#e7e8ec"
       d="m 872.5,388.5 c 4.014,-0.166 8.014,10e-4 12,0.5 0.5,0.5 1,1 1.5,1.5 2.228,-1.613 4.728,-2.28 7.5,-2 0.17,1.322 -0.163,2.489 -1,3.5 -1.973,0.495 -3.973,0.662 -6,0.5 0.345,2.988 -0.988,4.321 -4,4 -3.411,0.097 -4.745,-1.57 -4,-5 -2,0 -4,0 -6,0 0,-1 0,-2 0,-3 z"
       id="path381" />
  </g>
  <g
     id="g382"
     transform="translate(-820.77899,-272.48044)">
    <path
       style="opacity:1"
       fill="#e3694f"
       d="m 900.5,385.5 c 1.373,-0.157 2.707,0.01 4,0.5 -0.805,1.113 -1.472,2.279 -2,3.5 -1.667,0 -3.333,0 -5,0 1.012,-1.372 2.012,-2.705 3,-4 z"
       id="path382" />
  </g>
  <g
     id="g383"
     transform="translate(-820.77899,-272.48044)">
    <path
       style="opacity:1"
       fill="#d2d3d5"
       d="m 881.5,386.5 c 0,-1 0,-2 0,-3 6.013,-0.369 12.013,-0.536 18,-0.5 -1.216,1.74 -2.882,2.74 -5,3 -4.376,1.086 -8.709,1.252 -13,0.5 z"
       id="path383" />
  </g>
  <g
     id="g384"
     transform="translate(-820.77899,-272.48044)">
    <path
       style="opacity:1"
       fill="#eaaa77"
       d="m 905.5,390.5 c 0.131,-0.739 -0.036,-1.406 -0.5,-2 -0.671,0.752 -1.504,1.086 -2.5,1 0.528,-1.221 1.195,-2.387 2,-3.5 -1.293,-0.49 -2.627,-0.657 -4,-0.5 -0.086,-0.996 0.248,-1.829 1,-2.5 2.228,-0.82 4.228,-0.487 6,1 -0.617,2.277 -1.284,4.444 -2,6.5 z"
       id="path384" />
  </g>
  <g
     id="g385"
     transform="translate(-820.77899,-272.48044)">
    <path
       style="opacity:1"
       fill="#dfdad5"
       d="m 881.5,377.5 c 3,0 6,0 9,0 0,1.333 0,2.667 0,4 -3,0 -6,0 -9,0 0,-1.333 0,-2.667 0,-4 z"
       id="path385" />
  </g>
  <g
     id="g386"
     transform="translate(-820.77899,-272.48044)">
    <path
       style="opacity:1"
       fill="#eeedeb"
       d="m 919.5,396.5 c 1.216,1.951 2.882,3.451 5,4.5 3.401,-0.266 5.067,1.234 5,4.5 -2.728,-0.329 -5.062,0.337 -7,2 -0.617,0.111 -1.117,0.444 -1.5,1 -2.5,-3.167 -5,-6.333 -7.5,-9.5 -3.157,-0.719 -5.157,-2.552 -6,-5.5 1.371,-2.181 2.371,-4.514 3,-7 1.322,-0.17 2.489,0.163 3.5,1 0.843,3.7 2.676,6.7 5.5,9 z"
       id="path386" />
  </g>
  <g
     id="g407"
     transform="translate(-820.77899,-272.48044)">
    <path
       style="opacity:1"
       fill="#302f2f"
       d="m 835.5,401.5 c -1.291,-0.237 -2.291,0.096 -3,1 -1,0 -2,0 -3,0 -0.299,2.104 0.034,4.104 1,6 0.682,-0.743 1.349,-1.409 2,-2 0,0.667 0.333,1 1,1 1.333,0.667 2.667,1.333 4,2 -0.992,-0.172 -1.658,0.162 -2,1 -0.739,-0.131 -1.406,0.036 -2,0.5 1.541,1.371 2.875,2.871 4,4.5 -0.667,0 -1,0.333 -1,1 -2.13,-1.627 -4.13,-3.46 -6,-5.5 -9.208,-0.737 -11.874,-5.403 -8,-14 2.593,-0.537 5.093,-1.37 7.5,-2.5 2.767,1.503 4.601,3.836 5.5,7 z"
       id="path407" />
  </g>
  <g
     id="g408"
     transform="translate(-820.77899,-272.48044)">
    <path
       style="opacity:1"
       fill="#e9e8ec"
       d="m 823.5,398.5 c 1.788,-0.285 3.455,0.048 5,1 -0.833,0.333 -1.667,0.667 -2.5,1 -1.376,-0.184 -2.209,-0.851 -2.5,-2 z"
       id="path408" />
  </g>
  <g
     id="g409"
     transform="translate(-820.77899,-272.48044)">
    <path
       style="opacity:1"
       fill="#bcbabe"
       d="m 829.5,395.5 c 2.619,0.903 3.286,2.569 2,5 -1.45,-1.35 -2.117,-3.016 -2,-5 z"
       id="path409" />
  </g>
  <g
     id="g410"
     transform="translate(-820.77899,-272.48044)">
    <path
       style="opacity:1"
       fill="#f1e18c"
       d="m 896.5,390.5 c 2.357,-0.163 4.69,0.003 7,0.5 -0.837,1.011 -1.17,2.178 -1,3.5 -1.333,0 -2.667,0 -4,0 0.067,1.459 -0.266,2.792 -1,4 -4.022,1.377 -5.022,4.044 -3,8 -0.283,0.789 -0.783,1.456 -1.5,2 -1.49,-1.228 -2.99,-1.228 -4.5,0 0,-1 0,-2 0,-3 -1.88,0.271 -3.213,-0.396 -4,-2 1.746,-2.084 3.079,-4.417 4,-7 3.421,-1.039 6.088,-3.039 8,-6 z"
       id="path410" />
  </g>
  <g
     id="g412"
     transform="translate(-820.77899,-272.48044)">
    <path
       style="opacity:1"
       fill="#dca84f"
       d="m 888.5,396.5 c -0.921,2.583 -2.254,4.916 -4,7 -2.846,-0.052 -5.18,-1.052 -7,-3 0,-1 0,-2 0,-3 3.819,1.455 7.485,1.122 11,-1 z"
       id="path412" />
  </g>
  <g
     id="g413"
     transform="translate(-820.77899,-272.48044)">
    <path
       style="opacity:1"
       fill="#d16953"
       d="m 905.5,396.5 c 0,1.333 0,2.667 0,4 1,0 2,0 3,0 0.237,3.91 -0.596,7.577 -2.5,11 -2.419,2.085 -5.253,3.085 -8.5,3 -1.858,-3.131 -1.191,-5.631 2,-7.5 -1.634,-0.494 -3.301,-0.66 -5,-0.5 -2.022,-3.956 -1.022,-6.623 3,-8 1.544,0.203 2.878,0.87 4,2 0.929,-1.189 1.262,-2.522 1,-4 1,0 2,0 3,0 z"
       id="path413" />
  </g>
  <g
     id="g414"
     transform="translate(-820.77899,-272.48044)">
    <path
       style="opacity:1"
       fill="#ebe9ed"
       d="m 822.5,402.5 c 2.104,-0.299 4.104,0.034 6,1 -1,0.333 -2,0.667 -3,1 -1.53,-0.14 -2.53,-0.807 -3,-2 z"
       id="path414" />
  </g>
  <g
     id="g416"
     transform="translate(-820.77899,-272.48044)">
    <path
       style="opacity:1"
       fill="#d3d4d7"
       d="m 832.5,402.5 c 0.854,1.132 0.854,2.465 0,4 -0.651,0.591 -1.318,1.257 -2,2 -0.966,-1.896 -1.299,-3.896 -1,-6 1,0 2,0 3,0 z"
       id="path416" />
  </g>
  <g
     id="g417"
     transform="translate(-820.77899,-272.48044)">
    <path
       style="opacity:1"
       fill="#eeecee"
       d="m 860.5,399.5 c -0.644,5.706 -1.811,11.373 -3.5,17 -0.414,0.457 -0.914,0.791 -1.5,1 -0.67,-1.791 -1.337,-3.458 -2,-5 -0.79,-1.294 -1.79,-2.461 -3,-3.5 6.214,-4.929 9.38,-11.429 9.5,-19.5 1.342,-1.402 2.176,-1.069 2.5,1 -1.086,2.92 -1.752,5.92 -2,9 z"
       id="path417" />
  </g>
  <g
     id="g418"
     transform="translate(-820.77899,-272.48044)">
    <path
       style="opacity:1"
       fill="#f3ecab"
       d="m 877.5,400.5 c 1.82,1.948 4.154,2.948 7,3 0.787,1.604 2.12,2.271 4,2 0,1 0,2 0,3 -0.814,1.773 -2.148,2.273 -4,1.5 -1.456,-1.745 -2.789,-3.578 -4,-5.5 -0.333,0.5 -0.667,1 -1,1.5 1.773,2.59 2.773,5.423 3,8.5 -2.667,0 -5.333,0 -8,0 0,-2 0,-4 0,-6 -1.43,0.079 -2.764,-0.254 -4,-1 -1.273,-0.757 -1.273,-1.423 0,-2 1.299,1.599 2.965,2.099 5,1.5 -1.763,-2.965 -3.097,-6.132 -4,-9.5 1.667,0 3.333,0 5,0 -0.237,1.291 0.096,2.291 1,3 z"
       id="path418" />
  </g>
  <g
     id="g419"
     transform="translate(-820.77899,-272.48044)">
    <path
       style="opacity:1"
       fill="#eeecef"
       d="m 823.5,407.5 c 1.535,-1.288 3.201,-1.288 5,0 -1.667,1.166 -3.334,1.166 -5,0 z"
       id="path419" />
  </g>
  <g
     id="g420"
     transform="translate(-820.77899,-272.48044)">
    <path
       style="opacity:1"
       fill="#d9746b"
       d="m 862.5,397.5 c -0.157,1.373 0.01,2.707 0.5,4 1.605,-2.774 3.772,-3.44 6.5,-2 1.674,1.93 2.007,3.93 1,6 -1.273,0.577 -1.273,1.243 0,2 1.236,0.746 2.57,1.079 4,1 0,2 0,4 0,6 -0.333,0 -0.667,0 -1,0 -5.709,-0.183 -9.709,-2.849 -12,-8 -0.31,-3.213 0.023,-6.213 1,-9 z"
       id="path420" />
  </g>
  <g
     id="g421"
     transform="translate(-820.77899,-272.48044)">
    <path
       style="opacity:1"
       fill="#9e683e"
       d="m 910.5,399.5 c 3.785,2.45 6.452,5.784 8,10 -0.108,0.942 -0.441,1.775 -1,2.5 -2.599,0.769 -5.099,0.602 -7.5,-0.5 -0.17,-3.993 -0.004,-7.993 0.5,-12 z"
       id="path421" />
  </g>
  <g
     id="g477"
     transform="translate(-820.77899,-272.48044)">
    <path
       style="opacity:1"
       fill="#edc472"
       d="m 888.5,408.5 c 1.51,-1.228 3.01,-1.228 4.5,0 0.717,-0.544 1.217,-1.211 1.5,-2 1.699,-0.16 3.366,0.006 5,0.5 -3.191,1.869 -3.858,4.369 -2,7.5 -8.129,1.284 -16.129,1.284 -24,0 0.333,0 0.667,0 1,0 2.667,0 5.333,0 8,0 -0.227,-3.077 -1.227,-5.91 -3,-8.5 0.333,-0.5 0.667,-1 1,-1.5 1.211,1.922 2.544,3.755 4,5.5 1.852,0.773 3.186,0.273 4,-1.5 z"
       id="path477" />
  </g>
  <g
     id="g480"
     transform="translate(-820.77899,-272.48044)">
    <path
       style="opacity:1"
       fill="#e7e7e9"
       d="m 852.5,412.5 c 0,1.333 0,2.667 0,4 -1.052,0.149 -2.052,-0.017 -3,-0.5 -3.209,-3.727 -7.209,-5.894 -12,-6.5 -1.333,-0.667 -2.667,-1.333 -4,-2 0.801,-1.542 1.134,-3.208 1,-5 1.478,-0.262 2.811,0.071 4,1 0.813,1.314 1.813,2.481 3,3.5 3.972,1.319 7.639,3.153 11,5.5 z"
       id="path480" />
  </g>
  <g
     id="g481"
     transform="translate(-820.77899,-272.48044)">
    <path
       style="opacity:1"
       fill="#e8e9ea"
       d="m 907.5,412.5 c 2.451,1.394 5.118,2.228 8,2.5 -5.211,6.216 -7.878,5.383 -8,-2.5 z"
       id="path481" />
  </g>
  <g
     id="g482"
     transform="translate(-820.77899,-272.48044)">
    <path
       style="opacity:1"
       fill="#e0e0e3"
       d="m 929.5,409.5 c 1.159,2.753 0.659,5.419 -1.5,8 -3.441,4.482 -7.608,7.649 -12.5,9.5 -0.333,-0.333 -0.667,-0.667 -1,-1 2.563,-2.53 5.397,-4.697 8.5,-6.5 2.437,-3.22 4.603,-6.553 6.5,-10 z"
       id="path482" />
  </g>
  <g
     id="g484"
     transform="translate(-820.77899,-272.48044)">
    <path
       style="opacity:1"
       fill="#e1e1e3"
       d="m 835.5,410.5 c 5.092,3.88 10.759,6.713 17,8.5 -1.772,1.487 -3.772,1.82 -6,1 -3.027,-1.513 -6.027,-3.013 -9,-4.5 -1.125,-1.629 -2.459,-3.129 -4,-4.5 0.594,-0.464 1.261,-0.631 2,-0.5 z"
       id="path484" />
  </g>
  <g
     id="g493"
     transform="translate(-820.77899,-272.48044)">
    <path
       style="opacity:1"
       fill="#c16472"
       d="m 866.5,415.5 c 12.485,2.652 24.985,2.652 37.5,0 0.5,0.333 1,0.667 1.5,1 -1.412,1.306 -3.079,2.14 -5,2.5 -10.339,1.967 -20.673,1.967 -31,0 -1.926,-0.422 -2.926,-1.589 -3,-3.5 z"
       id="path493" />
  </g>
  <g
     id="g494"
     transform="translate(-820.77899,-272.48044)">
    <path
       style="opacity:1"
       fill="#e6e7e9"
       d="m 924.5,407.5 c 1.333,0 2.667,0 4,0 -5.254,5.105 -10.087,10.771 -14.5,17 -0.833,-0.833 -1.667,-1.667 -2.5,-2.5 4.17,-5.002 8.504,-9.836 13,-14.5 z"
       id="path494" />
  </g>
  <g
     id="g515"
     transform="translate(-820.77899,-272.48044)">
    <path
       style="opacity:1"
       fill="#e67f5f"
       d="m 904.5,428.5 c -0.768,0.763 -1.268,1.763 -1.5,3 -1.356,-0.88 -2.856,-1.214 -4.5,-1 0.709,-0.904 1.709,-1.237 3,-1 -0.065,-2.928 -0.732,-5.595 -2,-8 2.602,-1.951 5.436,-2.284 8.5,-1 0.667,1 0.667,2 0,3 -1.802,1.289 -2.969,2.956 -3.5,5 z"
       id="path515" />
  </g>
  <g
     id="g517"
     transform="translate(-820.77899,-272.48044)">
    <path
       style="opacity:1"
       fill="#f0c595"
       d="m 873.5,421.5 c 4.324,0.427 8.658,0.761 13,1 0,0.333 0,0.667 0,1 -2.955,0.955 -4.955,2.955 -6,6 -2.347,-2.081 -4.68,-4.081 -7,-6 0,-0.667 0,-1.333 0,-2 z"
       id="path517" />
  </g>
  <g
     id="g518"
     transform="translate(-820.77899,-272.48044)">
    <path
       style="opacity:1"
       fill="#e48066"
       d="m 886.5,422.5 c 3,0 6,0 9,0 0.039,2.589 -0.961,4.589 -3,6 -4.272,1.411 -6.272,-0.256 -6,-5 0,-0.333 0,-0.667 0,-1 z"
       id="path518" />
  </g>
  <g
     id="g520"
     transform="translate(-820.77899,-272.48044)">
    <path
       style="opacity:1"
       fill="#b3b8b6"
       d="m 910.5,435.5 c -1.386,-2.113 -1.052,-4.113 1,-6 -0.333,-1 -1,-1.667 -2,-2 -1.444,2.108 -2.11,4.441 -2,7 -2.968,-4.438 -1.968,-8.105 3,-11 2.007,1.508 3.674,3.342 5,5.5 -2.039,1.926 -3.706,4.093 -5,6.5 z"
       id="path520" />
  </g>
  <g
     id="g523"
     transform="translate(-820.77899,-272.48044)">
    <path
       style="opacity:1"
       fill="#f4e8a5"
       d="m 886.5,423.5 c -0.272,4.744 1.728,6.411 6,5 -0.203,1.544 -0.87,2.878 -2,4 1.333,0.333 2.667,0.667 4,1 -0.92,2.286 -0.92,4.619 0,7 1.867,0.455 3.7,1.122 5.5,2 1.607,-0.269 2.774,-1.103 3.5,-2.5 1,-0.667 2,-0.667 3,0 1.04,3.4 1.706,6.9 2,10.5 -1.373,0.157 -2.707,-0.01 -4,-0.5 -2.767,-4.599 -5.434,-4.433 -8,0.5 -1.266,-0.59 -2.599,-1.09 -4,-1.5 5.158,-2.434 5.158,-5.101 0,-8 -1.293,-0.49 -2.627,-0.657 -4,-0.5 0.149,1.052 -0.017,2.052 -0.5,3 -4.718,-4.355 -7.551,-3.188 -8.5,3.5 0.344,1.365 1.011,2.532 2,3.5 -0.848,1.909 -1.182,3.909 -1,6 1.984,-0.117 3.65,0.55 5,2 1.697,-0.864 2.863,-2.197 3.5,-4 1.11,1.537 2.61,2.203 4.5,2 -1.135,0.974 -2.135,2.141 -3,3.5 3.317,0.498 6.65,0.665 10,0.5 -4.655,0.666 -9.488,0.999 -14.5,1 -6.746,0.22 -13.246,-0.446 -19.5,-2 1,0 2,0 3,0 0,-2 0,-4 0,-6 0.667,0.333 1.333,0.667 2,1 -0.822,5.709 1.011,7.043 5.5,4 1.238,-3.426 0.071,-5.092 -3.5,-5 1.468,-1.279 2.135,-2.946 2,-5 -1,0 -2,0 -3,0 1.623,-1.279 3.29,-2.613 5,-4 1.288,-1.799 1.288,-3.465 0,-5 1.457,-3.152 2.457,-6.485 3,-10 1.045,-3.045 3.045,-5.045 6,-6 z"
       id="path523" />
  </g>
  <g
     id="g524"
     transform="translate(-820.77899,-272.48044)">
    <path
       style="opacity:1"
       fill="#c55e58"
       d="m 904.5,428.5 c -0.575,3.655 0.425,6.655 3,9 0,0.333 0,0.667 0,1 -3.787,0.686 -6.954,-0.314 -9.5,-3 -0.78,-1.887 -0.613,-3.554 0.5,-5 1.644,-0.214 3.144,0.12 4.5,1 0.232,-1.237 0.732,-2.237 1.5,-3 z"
       id="path524" />
  </g>
  <g
     id="g526"
     transform="translate(-820.77899,-272.48044)">
    <path
       style="opacity:1"
       fill="#5c5752"
       d="m 910.5,435.5 c 0.06,0.543 0.393,0.876 1,1 1.09,-1.227 2.424,-2.06 4,-2.5 -1.109,-1.813 -0.442,-2.646 2,-2.5 0.079,1.43 -0.254,2.764 -1,4 -1.953,1.261 -3.953,2.427 -6,3.5 0.948,0.483 1.948,0.649 3,0.5 -1.55,1.22 -3.216,1.22 -5,0 0,-0.667 -0.333,-1 -1,-1 0,-0.333 0,-0.667 0,-1 1.125,-1.152 1.125,-2.152 0,-3 -0.11,-2.559 0.556,-4.892 2,-7 1,0.333 1.667,1 2,2 -2.052,1.887 -2.386,3.887 -1,6 z"
       id="path526" />
  </g>
  <g
     id="g530"
     transform="translate(-820.77899,-272.48044)">
    <path
       style="opacity:1"
       fill="#db6f58"
       d="m 873.5,423.5 c 2.32,1.919 4.653,3.919 7,6 -0.543,3.515 -1.543,6.848 -3,10 -1.714,1.238 -3.714,1.905 -6,2 -0.408,-1.143 -1.075,-2.143 -2,-3 -6.147,1.495 -7.481,-0.505 -4,-6 -2.191,-1.708 -2.524,-3.708 -1,-6 3.178,-0.685 6.178,-1.685 9,-3 z"
       id="path530" />
  </g>
  <g
     id="g537"
     transform="translate(-820.77899,-272.48044)">
    <path
       style="opacity:1"
       fill="#e4a45f"
       d="m 908.5,439.5 c 1.784,1.22 3.45,1.22 5,0 0.667,0 1.333,0 2,0 0.132,4.263 -1.868,6.263 -6,6 -0.961,-1.765 -1.295,-3.765 -1,-6 z"
       id="path537" />
  </g>
  <g
     id="g592"
     transform="translate(-820.77899,-272.48044)">
    <path
       style="opacity:1"
       fill="#f2e16f"
       d="m 877.5,439.5 c 1.288,1.535 1.288,3.201 0,5 -1.71,1.387 -3.377,2.721 -5,4 -0.333,0 -0.667,0 -1,0 -3.487,-0.945 -4.82,-3.278 -4,-7 1.333,0 2.667,0 4,0 2.286,-0.095 4.286,-0.762 6,-2 z"
       id="path592" />
  </g>
  <g
     id="g593"
     transform="translate(-820.77899,-272.48044)">
    <path
       style="opacity:1"
       fill="#db7356"
       d="m 896.5,450.5 c 0.475,2.813 -0.525,4.813 -3,6 -1.89,0.203 -3.39,-0.463 -4.5,-2 -0.637,1.803 -1.803,3.136 -3.5,4 -1.35,-1.45 -3.016,-2.117 -5,-2 -0.182,-2.091 0.152,-4.091 1,-6 -0.989,-0.968 -1.656,-2.135 -2,-3.5 0.949,-6.688 3.782,-7.855 8.5,-3.5 0.483,-0.948 0.649,-1.948 0.5,-3 1.373,-0.157 2.707,0.01 4,0.5 5.158,2.899 5.158,5.566 0,8 1.401,0.41 2.734,0.91 4,1.5 z"
       id="path593" />
  </g>
  <g
     id="g597"
     transform="translate(-820.77899,-272.48044)">
    <path
       style="opacity:1"
       fill="#dcbf5c"
       d="m 923.5,449.5 c -0.982,0.641 -1.982,1.307 -3,2 -1.236,-0.746 -2.57,-1.079 -4,-1 0,-1.333 0,-2.667 0,-4 -2.559,0.302 -4.893,-0.032 -7,-1 4.132,0.263 6.132,-1.737 6,-6 0.64,-1.832 1.64,-2.165 3,-1 1.955,3.574 3.622,7.24 5,11 z"
       id="path597" />
  </g>
  <g
     id="g598"
     transform="translate(-820.77899,-272.48044)">
    <path
       style="opacity:1"
       fill="#e99165"
       d="m 862.5,444.5 c 2.472,1.142 3.472,3.142 3,6 -1,0 -2,0 -3,0 0.268,1.599 -0.066,2.932 -1,4 0,-1.667 0,-3.333 0,-5 -6.667,-0.667 -6.667,-1.333 0,-2 -0.237,-1.291 0.096,-2.291 1,-3 z"
       id="path598" />
  </g>
  <g
     id="g600"
     transform="translate(-820.77899,-272.48044)">
    <path
       style="opacity:1"
       fill="#e06a57"
       d="m 856.5,440.5 c 3.741,-0.901 5.741,0.432 6,4 -0.904,0.709 -1.237,1.709 -1,3 -6.667,0.667 -6.667,1.333 0,2 0,1.667 0,3.333 0,5 -0.473,1.406 -1.473,2.073 -3,2 -2.808,-0.469 -5.142,-1.803 -7,-4 1.292,-4.225 2.959,-8.225 5,-12 z"
       id="path600" />
  </g>
  <g
     id="g601"
     transform="translate(-820.77899,-272.48044)">
    <path
       style="opacity:1"
       fill="#f2f1da"
       d="m 871.5,448.5 c 0.333,0 0.667,0 1,0 1,0 2,0 3,0 0.135,2.054 -0.532,3.721 -2,5 -0.667,0.333 -1.333,0.667 -2,1 -0.667,-0.333 -1.333,-0.667 -2,-1 -1.317,-2.376 -0.65,-4.043 2,-5 z"
       id="path601" />
  </g>
  <g
     id="g605"
     transform="translate(-820.77899,-272.48044)">
    <path
       style="opacity:1"
       fill="#f0e48e"
       d="m 873.5,421.5 c 0,0.667 0,1.333 0,2 -2.822,1.315 -5.822,2.315 -9,3 -1.524,2.292 -1.191,4.292 1,6 -3.481,5.495 -2.147,7.495 4,6 0.925,0.857 1.592,1.857 2,3 -1.333,0 -2.667,0 -4,0 -0.82,3.722 0.513,6.055 4,7 -2.65,0.957 -3.317,2.624 -2,5 0,2 0,4 0,6 -1,0 -2,0 -3,0 -3.136,-0.103 -5.802,-1.103 -8,-3 1.527,0.073 2.527,-0.594 3,-2 0.934,-1.068 1.268,-2.401 1,-4 1,0 2,0 3,0 0.472,-2.858 -0.528,-4.858 -3,-6 -0.259,-3.568 -2.259,-4.901 -6,-4 1.473,-7.944 4.806,-14.944 10,-21 2.229,1.077 4.563,1.744 7,2 z"
       id="path605" />
  </g>
  <g
     id="g606"
     transform="translate(-820.77899,-272.48044)">
    <path
       style="opacity:1"
       fill="#f5e889"
       d="m 899.5,421.5 c 1.268,2.405 1.935,5.072 2,8 -1.291,-0.237 -2.291,0.096 -3,1 -1.113,1.446 -1.28,3.113 -0.5,5 2.546,2.686 5.713,3.686 9.5,3 0.667,0 1,0.333 1,1 -0.295,2.235 0.039,4.235 1,6 2.107,0.968 4.441,1.302 7,1 0,1.333 0,2.667 0,4 1.43,-0.079 2.764,0.254 4,1 1.018,-0.693 2.018,-1.359 3,-2 0.803,0.923 0.97,1.923 0.5,3 -1.993,1.414 -4.16,2.414 -6.5,3 -0.039,-1.083 -0.373,-2.083 -1,-3 -1.907,-0.87 -3.74,-1.87 -5.5,-3 -2.057,1.223 -4.223,2.223 -6.5,3 -0.893,2.584 -1.226,5.251 -1,8 -1,0 -2,0 -3,0 -3.35,0.165 -6.683,-0.002 -10,-0.5 0.865,-1.359 1.865,-2.526 3,-3.5 2.475,-1.187 3.475,-3.187 3,-6 2.566,-4.933 5.233,-5.099 8,-0.5 1.293,0.49 2.627,0.657 4,0.5 -0.294,-3.6 -0.96,-7.1 -2,-10.5 -1,-0.667 -2,-0.667 -3,0 -0.726,1.397 -1.893,2.231 -3.5,2.5 -1.8,-0.878 -3.633,-1.545 -5.5,-2 -0.92,-2.381 -0.92,-4.714 0,-7 -1.333,-0.333 -2.667,-0.667 -4,-1 1.13,-1.122 1.797,-2.456 2,-4 2.039,-1.411 3.039,-3.411 3,-6 1.068,-0.934 2.401,-1.268 4,-1 z"
       id="path606" />
  </g>
  <g
     id="g608"
     transform="translate(-820.77899,-272.48044)">
    <path
       style="opacity:1"
       fill="#da7863"
       d="m 917.5,455.5 c -4.371,2.267 -9.037,3.934 -14,5 -0.226,-2.749 0.107,-5.416 1,-8 2.277,-0.777 4.443,-1.777 6.5,-3 1.76,1.13 3.593,2.13 5.5,3 0.627,0.917 0.961,1.917 1,3 z"
       id="path608" />
  </g>
  <g
     id="g610"
     transform="translate(-820.77899,-272.48044)">
    <path
       style="opacity:1"
       fill="#f3af63"
       d="m 873.5,453.5 c 3.571,-0.092 4.738,1.574 3.5,5 -4.489,3.043 -6.322,1.709 -5.5,-4 0.667,-0.333 1.333,-0.667 2,-1 z"
       id="path610" />
  </g>
  <g
     id="g612"
     transform="translate(-820.77899,-272.48044)">
    <path
       style="opacity:1"
       fill="#e6e7e7"
       d="m 865.5,461.5 c 2.753,0.522 5.42,1.356 8,2.5 0.88,1.356 1.214,2.856 1,4.5 -3.389,0.132 -6.723,0.299 -10,0.5 -0.559,-0.725 -0.892,-1.558 -1,-2.5 0.687,-1.677 1.354,-3.344 2,-5 z"
       id="path612" />
  </g>
  <g
     id="g613"
     transform="translate(-820.77899,-272.48044)">
    <path
       style="opacity:1"
       fill="#b9b8b8"
       d="m 899.5,468.5 c -0.934,-1.068 -1.268,-2.401 -1,-4 -7.333,0 -14.667,0 -22,0 0.268,1.599 -0.066,2.932 -1,4 0,-1.667 0,-3.333 0,-5 8.34,-0.166 16.673,0 25,0.5 -0.88,1.356 -1.214,2.856 -1,4.5 z"
       id="path613" />
  </g>
  <g
     id="g615"
     transform="translate(-820.77899,-272.48044)">
    <path
       style="opacity:1"
       fill="#fafafa"
       d="m 899.5,468.5 c 1.515,4.397 3.182,8.731 5,13 0,1.667 0,3.333 0,5 -8.642,-0.799 -17.309,-1.132 -26,-1 -1.673,-0.843 -2.84,-2.176 -3.5,-4 -0.768,-4.42 -0.602,-8.753 0.5,-13 0.934,-1.068 1.268,-2.401 1,-4 7.333,0 14.667,0 22,0 -0.268,1.599 0.066,2.932 1,4 z"
       id="path615" />
  </g>
  <g
     id="g617"
     transform="translate(-820.77899,-272.48044)">
    <path
       style="opacity:1"
       fill="#eae9ea"
       d="m 905.5,461.5 c 4.619,0.627 6.619,3.294 6,8 -3.36,0.116 -6.693,0.449 -10,1 -0.163,-2.357 0.003,-4.69 0.5,-7 1.302,-0.585 2.469,-1.251 3.5,-2 z"
       id="path617" />
  </g>
  <g
     id="g621"
     transform="translate(-820.77899,-272.48044)">
    <path
       style="opacity:1"
       fill="#eaeaea"
       d="m 905.5,471.5 c 2.333,0 4.667,0 7,0 -1.661,5.354 -1.328,10.521 1,15.5 -1.941,1.903 -4.274,2.736 -7,2.5 0.698,-5.579 -0.302,-10.745 -3,-15.5 0.556,-1.011 1.222,-1.844 2,-2.5 z"
       id="path621" />
  </g>
  <g
     id="g686"
     transform="translate(-820.77899,-272.48044)">
    <path
       style="opacity:1"
       fill="#eaeaea"
       d="m 865.5,470.5 c 2.333,0 4.667,0 7,0 -0.165,3.682 10e-4,7.348 0.5,11 0.792,2.087 1.959,3.921 3.5,5.5 -2.174,1.797 -4.507,1.964 -7,0.5 -0.267,-5.35 -1.933,-10.183 -5,-14.5 0.243,-0.902 0.577,-1.735 1,-2.5 z"
       id="path686" />
  </g>
  <g
     id="g714"
     transform="translate(-820.77899,-272.48044)">
    <path
       style="opacity:1"
       fill="#d3d3d4"
       d="m 904.5,481.5 c 0.647,0.774 0.98,1.774 1,3 -1.444,3.21 -1.944,6.543 -1.5,10 2.833,2.167 5.667,4.333 8.5,6.5 3.055,0.634 6.055,0.468 9,-0.5 0,1 0,2 0,3 -18.301,-0.109 -36.634,-0.275 -55,-0.5 -1.442,-0.377 -2.442,-1.21 -3,-2.5 5.212,-1.855 10.378,-3.855 15.5,-6 0.495,-3.031 0.329,-6.031 -0.5,-9 8.691,-0.132 17.358,0.201 26,1 0,-1.667 0,-3.333 0,-5 z"
       id="path714" />
  </g>
  <g
     id="g723"
     transform="translate(-820.77899,-272.48044)">
    <path
       style="opacity:1"
       fill="#e1e1e1"
       d="m 914.5,485.5 c 0.809,0.969 1.809,1.802 3,2.5 5.328,1.441 10.661,3.108 16,5 1.076,1.726 1.243,3.559 0.5,5.5 -7.368,4.87 -15.535,7.37 -24.5,7.5 -22.375,2.632 -44.041,0.299 -65,-7 -0.522,-0.561 -0.855,-1.228 -1,-2 1.701,-1.86 2.701,-4.027 3,-6.5 5.99,-0.74 11.99,-1.406 18,-2 -2.852,1.576 -5.852,3.076 -9,4.5 -0.522,0.561 -0.855,1.228 -1,2 2.06,3.364 5.06,5.197 9,5.5 0.558,1.29 1.558,2.123 3,2.5 18.366,0.225 36.699,0.391 55,0.5 0,-1 0,-2 0,-3 2.229,-0.555 3.895,-1.889 5,-4 -0.783,-1.788 -2.116,-2.788 -4,-3 -2.09,-1.89 -4.423,-3.557 -7,-5 -0.886,-0.825 -1.219,-1.825 -1,-3 z"
       id="path723" />
  </g>
  <g
     id="g724"
     transform="translate(-820.77899,-272.48044)">
    <path
       style="opacity:1"
       fill="#707070"
       d="m 921.5,493.5 c 0.333,0 0.667,0 1,0 0.221,1.235 0.888,2.235 2,3 -0.789,1.988 -1.955,2.321 -3.5,1 -0.308,0.808 -0.808,1.475 -1.5,2 -3.422,-2.79 -4.089,-2.623 -2,0.5 -2.582,0.542 -4.582,-0.292 -6,-2.5 3.612,-0.812 6.946,-2.145 10,-4 z"
       id="path724" />
  </g>
  <g
     id="g725"
     transform="translate(-820.77899,-272.48044)">
    <path
       style="opacity:1"
       fill="#5f5f5f"
       d="m 861.5,491.5 c 0.8,2.073 2.133,3.74 4,5 -1.659,2.639 -3.492,2.639 -5.5,0 -2.658,1.194 -3.824,0.194 -3.5,-3 2.014,0.108 3.68,-0.558 5,-2 z"
       id="path725" />
  </g>
  <g
     id="g726"
     transform="translate(-820.77899,-272.48044)">
    <path
       style="opacity:1"
       fill="#ebecee"
       d="m 865.5,496.5 c -1.867,-1.26 -3.2,-2.927 -4,-5 2.316,-0.66 4.649,-1.327 7,-2 3.323,0.971 6.489,1.305 9.5,1 0.507,1.496 0.007,2.663 -1.5,3.5 -3.541,1.44 -7.208,2.274 -11,2.5 z"
       id="path726" />
  </g>
  <g
     id="g727"
     transform="translate(-820.77899,-272.48044)">
    <path
       style="opacity:1"
       fill="#e7e8e8"
       d="m 921.5,493.5 c -3.054,1.855 -6.388,3.188 -10,4 -2.216,-0.703 -4.049,-2.036 -5.5,-4 -0.432,-1.1 0.068,-1.767 1.5,-2 2,-0.667 4,-1.333 6,-2 2.684,1.342 5.35,2.675 8,4 z"
       id="path727" />
  </g>
</svg>
