<?xml version="1.0" encoding="UTF-8" standalone="no"?>
<svg
   version="1.1"
   width="101.01379"
   height="226.6131"
   style="clip-rule:evenodd;fill-rule:evenodd;image-rendering:optimizeQuality;shape-rendering:geometricPrecision;text-rendering:geometricPrecision"
   id="svg1400"
   xmlns="http://www.w3.org/2000/svg"
   xmlns:svg="http://www.w3.org/2000/svg">
  <defs
     id="defs1400" />
  <g
     id="g729"
     transform="translate(-457.5,-520.89288)">
    <path
       style="opacity:1"
       fill="#f3eaa1"
       d="m 508.5,523.5 c 1.517,0.011 2.684,0.677 3.5,2 1.5,2.333 3,4.667 4.5,7 4.23,-2.855 8.897,-4.521 14,-5 0.223,3.284 0.89,6.451 2,9.5 4.321,0.499 8.654,0.666 13,0.5 -0.829,2.969 -0.995,5.969 -0.5,9 2.421,1.461 4.921,2.794 7.5,4 1.273,0.757 1.273,1.423 0,2 -4.073,1.087 -5.739,3.754 -5,8 -2.164,0.221 -3.83,1.221 -5,3 -3.427,-5.077 -8.093,-8.743 -14,-11 -2.055,2.055 -4.388,3.721 -7,5 -1.471,-0.881 -2.304,-2.214 -2.5,-4 -2.357,2.591 -5.191,4.258 -8.5,5 0.262,-1.478 -0.071,-2.811 -1,-4 -2.713,1.882 -5.547,3.549 -8.5,5 -1.734,-1.79 -3.234,-3.79 -4.5,-6 -0.886,0.825 -1.219,1.825 -1,3 -3.67,0.173 -6.17,-1.493 -7.5,-5 -0.49,1.293 -0.657,2.627 -0.5,4 -2.785,-0.433 -5.119,-1.766 -7,-4 -2.441,1.209 -4.441,2.876 -6,5 -3.13,5.282 -4.797,4.615 -5,-2 1.846,0.278 3.18,-0.389 4,-2 -1.812,-3.103 -2.812,-6.436 -3,-10 2,0.333 4,0.667 6,1 0,-3.333 0,-6.667 0,-10 2.626,0.922 5.293,1.922 8,3 0.55,-3.814 1.883,-7.314 4,-10.5 3.276,1.237 6.109,3.403 8.5,6.5 3.136,-3.978 6.969,-6.978 11.5,-9 z"
       id="path729" />
  </g>
  <g
     id="g735"
     transform="translate(-457.5,-520.89288)">
    <path
       style="opacity:1"
       fill="#252421"
       d="m 540.5,610.5 c 0,-0.667 0,-1.333 0,-2 7.109,-8.66 10.442,-18.66 10,-30 -1.667,0 -3.333,0 -5,0 -2.322,-4.333 -3.822,-9 -4.5,-14 -5.123,-7.891 -11.79,-9.558 -20,-5 -1,-0.667 -2,-1.333 -3,-2 -2.227,0.863 -4.393,1.863 -6.5,3 -1.219,-0.763 -2.219,-1.763 -3,-3 -2.595,1.213 -5.095,2.547 -7.5,4 -1.434,-0.43 -2.601,-1.264 -3.5,-2.5 -5.85,-1.46 -11.683,-2.96 -17.5,-4.5 -1.643,0.815 -3.143,1.815 -4.5,3 0,-0.667 -0.333,-1 -1,-1 1.559,-2.124 3.559,-3.791 6,-5 1.881,2.234 4.215,3.567 7,4 -0.157,-1.373 0.01,-2.707 0.5,-4 1.33,3.507 3.83,5.173 7.5,5 -0.219,-1.175 0.114,-2.175 1,-3 1.266,2.21 2.766,4.21 4.5,6 2.953,-1.451 5.787,-3.118 8.5,-5 0.929,1.189 1.262,2.522 1,4 3.309,-0.742 6.143,-2.409 8.5,-5 0.196,1.786 1.029,3.119 2.5,4 2.612,-1.279 4.945,-2.945 7,-5 5.907,2.257 10.573,5.923 14,11 1.053,3.996 2.219,7.996 3.5,12 1.356,0.88 2.856,1.214 4.5,1 0.096,-4.082 1.096,-7.916 3,-11.5 -1.333,-2 -2.667,-4 -4,-6 0.891,-2.279 1.891,-4.446 3,-6.5 1.273,-0.577 1.273,-1.243 0,-2 -2.579,-1.206 -5.079,-2.539 -7.5,-4 -0.495,-3.031 -0.329,-6.031 0.5,-9 -4.346,0.166 -8.679,-10e-4 -13,-0.5 -1.11,-3.049 -1.777,-6.216 -2,-9.5 -5.103,0.479 -9.77,2.145 -14,5 -1.5,-2.333 -3,-4.667 -4.5,-7 -0.816,-1.323 -1.983,-1.989 -3.5,-2 -0.342,-0.838 -1.008,-1.172 -2,-1 1.027,-1.348 2.36,-1.848 4,-1.5 2.224,2.965 4.558,5.798 7,8.5 4.339,-2.633 9.006,-3.799 14,-3.5 1.576,2.951 2.243,6.117 2,9.5 4.346,-0.166 8.679,10e-4 13,0.5 0.469,3.08 0.635,6.246 0.5,9.5 2.304,1.568 4.804,2.735 7.5,3.5 0.559,0.725 0.892,1.558 1,2.5 -1.258,2.187 -2.258,4.52 -3,7 1.114,2.285 2.447,4.452 4,6.5 -0.77,1.775 -1.937,3.275 -3.5,4.5 0.779,12.332 -1.554,23.999 -7,35 -1.617,2.263 -3.45,4.263 -5.5,6 z"
       id="path735" />
  </g>
  <g
     id="g739"
     transform="translate(-457.5,-520.89288)">
    <path
       style="opacity:1"
       fill="#f7f7f8"
       d="m 545.5,578.5 c -1.129,19.964 -11.462,32.13 -31,36.5 -4.626,1.152 -9.293,1.985 -14,2.5 -28.148,-2.23 -38.648,-17.23 -31.5,-45 1.304,-5.423 3.47,-10.423 6.5,-15 1.357,-1.185 2.857,-2.185 4.5,-3 5.817,1.54 11.65,3.04 17.5,4.5 0.899,1.236 2.066,2.07 3.5,2.5 2.405,-1.453 4.905,-2.787 7.5,-4 0.781,1.237 1.781,2.237 3,3 2.107,-1.137 4.273,-2.137 6.5,-3 1,0.667 2,1.333 3,2 8.21,-4.558 14.877,-2.891 20,5 0.678,5 2.178,9.667 4.5,14 z"
       id="path739" />
  </g>
  <g
     id="g742"
     transform="translate(-457.5,-520.89288)">
    <path
       style="opacity:1"
       fill="#e0d386"
       d="m 552.5,552.5 c -1.109,2.054 -2.109,4.221 -3,6.5 1.333,2 2.667,4 4,6 -1.904,3.584 -2.904,7.418 -3,11.5 -1.644,0.214 -3.144,-0.12 -4.5,-1 -1.281,-4.004 -2.447,-8.004 -3.5,-12 1.17,-1.779 2.836,-2.779 5,-3 -0.739,-4.246 0.927,-6.913 5,-8 z"
       id="path742" />
  </g>
  <g
     id="g745"
     transform="translate(-457.5,-520.89288)">
    <path
       style="opacity:1"
       fill="#040606"
       d="m 526.5,567.5 c 2.949,1.114 5.115,3.114 6.5,6 0.81,4.757 0.476,9.424 -1,14 -3.492,4.775 -7.992,6.109 -13.5,4 -6.999,-8.153 -6.666,-15.987 1,-23.5 2.31,-0.497 4.643,-0.663 7,-0.5 z"
       id="path745" />
  </g>
  <g
     id="g747"
     transform="translate(-457.5,-520.89288)">
    <path
       style="opacity:1"
       fill="#0a0a0b"
       d="m 480.5,591.5 c -6.95,-8.077 -6.617,-15.744 1,-23 7.689,-1.334 12.023,2 13,10 0.227,10.12 -4.44,14.454 -14,13 z"
       id="path747" />
  </g>
  <g
     id="g752"
     transform="translate(-457.5,-520.89288)">
    <path
       style="opacity:1"
       fill="#cfcece"
       d="m 526.5,567.5 c -2.357,-0.163 -4.69,0.003 -7,0.5 -7.666,7.513 -7.999,15.347 -1,23.5 -0.617,0.111 -1.117,0.444 -1.5,1 -7.055,-6.196 -8.388,-13.529 -4,-22 3.937,-3.93 8.437,-4.93 13.5,-3 z"
       id="path752" />
  </g>
  <g
     id="g754"
     transform="translate(-457.5,-520.89288)">
    <path
       style="opacity:1"
       fill="#d0cfd0"
       d="m 481.5,568.5 c -7.617,7.256 -7.95,14.923 -1,23 -0.617,0.111 -1.117,0.444 -1.5,1 -7.829,-7.443 -8.329,-15.276 -1.5,-23.5 1.293,-0.49 2.627,-0.657 4,-0.5 z"
       id="path754" />
  </g>
  <g
     id="g755"
     transform="translate(-457.5,-520.89288)">
    <path
       style="opacity:1"
       fill="#d0cfce"
       d="m 545.5,578.5 c 1.667,0 3.333,0 5,0 0.442,11.34 -2.891,21.34 -10,30 -12.48,7.36 -25.813,10.36 -40,9 4.707,-0.515 9.374,-1.348 14,-2.5 19.538,-4.37 29.871,-16.536 31,-36.5 z"
       id="path755" />
  </g>
  <g
     id="g757"
     transform="translate(-457.5,-520.89288)">
    <path
       style="opacity:1"
       fill="#191a1a"
       d="m 499.5,584.5 c 3.858,1.201 5.858,3.867 6,8 -1.984,0.117 -3.65,-0.55 -5,-2 -2.835,2.682 -4.002,2.016 -3.5,-2 1.095,-1.193 1.928,-2.527 2.5,-4 z"
       id="path757" />
  </g>
  <g
     id="g762"
     transform="translate(-457.5,-520.89288)">
    <path
       style="opacity:1"
       fill="#0f0d0c"
       d="m 511.5,595.5 c 6.174,-1.327 8.341,1.006 6.5,7 -5.252,10.224 -13.085,12.724 -23.5,7.5 -4.048,-2.083 -6.381,-5.417 -7,-10 0.558,-2.058 1.891,-3.225 4,-3.5 6.931,2.793 13.598,2.46 20,-1 z"
       id="path762" />
  </g>
  <g
     id="g770"
     transform="translate(-457.5,-520.89288)">
    <path
       style="opacity:1"
       fill="#dc675f"
       d="m 503.5,603.5 c 3.018,-0.165 6.018,0.002 9,0.5 0.808,0.308 1.475,0.808 2,1.5 -4.09,4.371 -9.09,5.871 -15,4.5 -0.951,-0.718 -1.117,-1.551 -0.5,-2.5 1.397,-1.57 2.897,-2.904 4.5,-4 z"
       id="path770" />
  </g>
  <g
     id="g905"
     transform="translate(-457.5,-520.89288)">
    <path
       style="opacity:1"
       fill="#4f95d8"
       d="m 460.5,678.5 c 2.213,1.273 4.546,2.273 7,3 1.542,0.663 3.209,1.33 5,2 -3.824,1.397 -7.491,1.064 -11,-1 -0.929,-1.189 -1.262,-2.522 -1,-4 z"
       id="path905" />
  </g>
  <g
     id="g910"
     transform="translate(-457.5,-520.89288)">
    <path
       style="opacity:1"
       fill="#333538"
       d="m 459.5,678.5 c 0.333,0 0.667,0 1,0 -0.262,1.478 0.071,2.811 1,4 3.509,2.064 7.176,2.397 11,1 -1.791,-0.67 -3.458,-1.337 -5,-2 2,0 4,0 6,0 0,1 0,2 0,3 -0.221,1.235 -0.888,2.235 -2,3 1.833,1.468 2.166,3.135 1,5 -1,1.333 -2,1.333 -3,0 -1.282,1.679 -2.282,3.513 -3,5.5 -3.078,0.198 -5.912,-0.635 -8.5,-2.5 -0.167,-1.167 -0.333,-2.333 -0.5,-3.5 1.528,-4.618 2.195,-9.118 2,-13.5 z"
       id="path910" />
  </g>
  <g
     id="g914"
     transform="translate(-457.5,-520.89288)">
    <path
       style="opacity:1"
       fill="#e0e1e5"
       d="m 460.5,684.5 c 1.815,1.13 3.815,1.796 6,2 0,1.333 0,2.667 0,4 -5.547,0.961 -7.547,-1.039 -6,-6 z"
       id="path914" />
  </g>
  <g
     id="g928"
     transform="translate(-457.5,-520.89288)">
    <path
       style="opacity:1"
       fill="#707072"
       d="m 552.5,696.5 c 0.333,0 0.667,0 1,0 0.333,0.667 0.667,1.333 1,2 -2.111,1.242 -4.111,1.242 -6,0 1.983,0.343 3.317,-0.324 4,-2 z"
       id="path928" />
  </g>
  <g
     id="g932"
     transform="translate(-457.5,-520.89288)">
    <path
       style="opacity:1"
       fill="#191b1b"
       d="m 506.5,522.5 c 0.992,-0.172 1.658,0.162 2,1 -4.531,2.022 -8.364,5.022 -11.5,9 -2.391,-3.097 -5.224,-5.263 -8.5,-6.5 -2.117,3.186 -3.45,6.686 -4,10.5 -2.707,-1.078 -5.374,-2.078 -8,-3 0,3.333 0,6.667 0,10 -2,-0.333 -4,-0.667 -6,-1 0.188,3.564 1.188,6.897 3,10 -0.82,1.611 -2.154,2.278 -4,2 0.203,6.615 1.87,7.282 5,2 0.667,0 1,0.333 1,1 -3.03,4.577 -5.196,9.577 -6.5,15 -7.148,27.77 3.352,42.77 31.5,45 14.187,1.36 27.52,-1.64 40,-9 0,0.667 0,1.333 0,2 -1.638,1.157 -3.304,2.324 -5,3.5 8.046,4.118 10.046,10.285 6,18.5 7.706,10.936 13.206,22.936 16.5,36 0.179,7.892 0.346,15.725 0.5,23.5 0.166,3.202 -1.167,5.369 -4,6.5 -0.333,-0.667 -0.667,-1.333 -1,-2 0.668,-1.963 1.002,-3.963 1,-6 0.798,1.578 1.298,3.244 1.5,5 0.333,-0.333 0.667,-0.667 1,-1 0.175,-2.657 0.008,-5.324 -0.5,-8 -2.667,0 -5.333,0 -8,0 0,1 0,2 0,3 -0.904,-0.709 -1.237,-1.709 -1,-3 -1,0 -2,0 -3,0 -1.414,-3.721 -3.248,-7.387 -5.5,-11 -2.697,16.393 -2.197,32.726 1.5,49 0.396,2.982 -0.271,5.649 -2,8 2.869,2.034 5.202,4.534 7,7.5 -0.248,1.749 -1.248,2.582 -3,2.5 -0.913,-1.586 -0.913,-3.086 0,-4.5 -1.558,-0.21 -2.891,-0.71 -4,-1.5 1.273,-0.577 1.273,-1.243 0,-2 -3.437,-1.578 -6.604,-1.245 -9.5,1 -1.699,-0.906 -3.533,-1.239 -5.5,-1 0.104,4.103 2.104,6.769 6,8 1.28,1.431 2.947,2.098 5,2 -2.272,1.264 -4.605,1.098 -7,-0.5 -3.873,-2.52 -6.04,-6.02 -6.5,-10.5 -1.626,-1.455 -2.792,-3.122 -3.5,-5 -1.436,-7.817 -3.603,-15.483 -6.5,-23 -3.049,-1.11 -6.216,-1.777 -9.5,-2 -1.387,6.924 -2.054,13.924 -2,21 -0.86,4.714 -2.026,9.381 -3.5,14 -4.489,1.833 -8.989,3.5 -13.5,5 -4.594,0.843 -8.261,-0.491 -11,-4 -1.073,-0.751 -1.24,-1.751 -0.5,-3 2.633,-1.252 5.133,-2.586 7.5,-4 3.048,0.006 3.548,-0.994 1.5,-3 -1.023,-13.648 -1.69,-27.315 -2,-41 -1.216,-2.462 -1.882,-5.129 -2,-8 -0.934,1.358 -1.768,2.692 -2.5,4 0,-1 0,-2 0,-3 -2,0 -4,0 -6,0 -2.454,-0.727 -4.787,-1.727 -7,-3 -0.333,0 -0.667,0 -1,0 2.094,-17.437 8.594,-33.104 19.5,-47 -1.627,-5.85 -0.461,-11.016 3.5,-15.5 -7.589,-3.255 -12.756,-8.755 -15.5,-16.5 -0.667,-8.667 -0.667,-17.333 0,-26 0.378,-3.802 1.545,-7.302 3.5,-10.5 -1.54,-2.083 -2.54,-4.416 -3,-7 0.744,-1.855 1.744,-3.521 3,-5 -1.639,-3.302 -2.306,-6.802 -2,-10.5 2,0 4,0 6,0 -2.036,-8.312 0.631,-10.645 8,-7 1.535,-3.237 3.202,-6.403 5,-9.5 1,-0.667 2,-0.667 3,0 1.85,2.018 3.85,3.851 6,5.5 3.013,-2.836 6.346,-5.169 10,-7 z"
       id="path932" />
  </g>
  <g
     id="g933"
     transform="translate(-457.5,-520.89288)">
    <path
       style="opacity:1"
       fill="#f6f6f6"
       d="m 517.5,728.5 c -0.287,1.621 -1.287,2.621 -3,3 -4.6,-0.943 -9.267,-1.277 -14,-1 0.295,-2.235 -0.039,-4.235 -1,-6 -0.054,-7.076 0.613,-14.076 2,-21 3.284,0.223 6.451,0.89 9.5,2 2.897,7.517 5.064,15.183 6.5,23 z"
       id="path933" />
  </g>
  <g
     id="g934"
     transform="translate(-457.5,-520.89288)">
    <path
       style="opacity:1"
       fill="#40726e"
       d="m 532.5,688.5 c 1.664,1.449 2.498,3.449 2.5,6 1.091,9.985 1.924,19.985 2.5,30 -3.626,0.822 -7.293,1.489 -11,2 -2.134,-0.015 -4.134,-0.515 -6,-1.5 -3.211,-6.958 -6.045,-14.124 -8.5,-21.5 -4.832,-0.831 -9.499,-2.165 -14,-4 -0.5,0.167 -1,0.333 -1.5,0.5 1.561,0.941 2.895,2.108 4,3.5 -2.131,6.487 -3.297,13.154 -3.5,20 -4.36,2.484 -8.86,2.65 -13.5,0.5 -1.599,-1.786 -2.433,-3.953 -2.5,-6.5 -0.832,-8.021 -0.665,-16.021 0.5,-24 0.808,-0.308 1.475,-0.808 2,-1.5 6.57,0.647 13.07,1.814 19.5,3.5 5.917,-1.241 11.917,-2.241 18,-3 2.85,1.174 5.684,2.507 8.5,4 0.333,-0.333 0.667,-0.667 1,-1 -1.787,-0.816 -3.454,-1.816 -5,-3 2.143,-1.71 4.477,-3.043 7,-4 z"
       id="path934" />
  </g>
  <g
     id="g935"
     transform="translate(-457.5,-520.89288)">
    <path
       style="opacity:1"
       fill="#383738"
       d="m 544.5,686.5 c 1,0 2,0 3,0 -0.237,1.291 0.096,2.291 1,3 0.683,1.676 2.017,2.343 4,2 0,1.667 0,3.333 0,5 -0.683,1.676 -2.017,2.343 -4,2 -0.665,-1.869 -1.331,-3.869 -2,-6 -1.22,1.211 -2.387,1.211 -3.5,0 -0.748,-2.34 -0.248,-4.34 1.5,-6 z"
       id="path935" />
  </g>
  <g
     id="g936"
     transform="translate(-457.5,-520.89288)">
    <path
       style="opacity:1"
       fill="#969797"
       d="m 549.5,692.5 c 2.472,1.249 2.639,2.915 0.5,5 -0.494,-1.634 -0.66,-3.301 -0.5,-5 z"
       id="path936" />
  </g>
  <g
     id="g937"
     transform="translate(-457.5,-520.89288)">
    <path
       style="opacity:1"
       fill="#d5d6d6"
       d="m 553.5,696.5 c -0.333,0 -0.667,0 -1,0 0,-1.667 0,-3.333 0,-5 -1.983,0.343 -3.317,-0.324 -4,-2 0,-1 0,-2 0,-3 2.667,0 5.333,0 8,0 0.508,2.676 0.675,5.343 0.5,8 -0.333,0.333 -0.667,0.667 -1,1 -0.202,-1.756 -0.702,-3.422 -1.5,-5 0.002,2.037 -0.332,4.037 -1,6 z"
       id="path937" />
  </g>
  <g
     id="g938"
     transform="translate(-457.5,-520.89288)">
    <path
       style="opacity:1"
       fill="#4d8cc4"
       d="m 478.5,683.5 c 18.567,7.888 37.234,7.888 56,0 2.069,0.324 2.402,1.158 1,2.5 -17.318,7.333 -34.985,8.333 -53,3 -2.715,-0.875 -4.048,-2.708 -4,-5.5 z"
       id="path938" />
  </g>
  <g
     id="g939"
     transform="translate(-457.5,-520.89288)">
    <path
       style="opacity:1"
       fill="#4282c0"
       d="m 555.5,679.5 c 1.725,0.343 2.225,1.343 1.5,3 -3.386,2.677 -7.219,3.511 -11.5,2.5 -0.857,-0.689 -1.523,-1.522 -2,-2.5 4.287,-0.473 8.287,-1.473 12,-3 z"
       id="path939" />
  </g>
  <g
     id="g940"
     transform="translate(-457.5,-520.89288)">
    <path
       style="opacity:1"
       fill="#4a91c3"
       d="m 510.5,636.5 c -0.667,-0.333 -1.333,-0.667 -2,-1 -0.617,0.111 -1.117,0.444 -1.5,1 -0.667,7.333 -0.667,14.667 0,22 1.333,1.333 2.667,1.333 4,0 0.22,-6.678 0.22,-13.345 0,-20 8.449,-4.153 17.282,-6.653 26.5,-7.5 8.683,11.2 14.85,23.7 18.5,37.5 2.607,7.375 0.107,11.375 -7.5,12 -2.189,-0.094 -4.189,-0.761 -6,-2 -2.827,-12.316 -7.327,-23.983 -13.5,-35 2.097,6.62 4.431,13.287 7,20 0.83,5.696 0.663,11.363 -0.5,17 -2.882,1.608 -5.882,2.941 -9,4 -0.781,-1.229 -1.281,-2.562 -1.5,-4 -4.864,-1.691 -7.697,-5.024 -8.5,-10 -9.025,-0.332 -18.025,0.002 -27,1 -0.892,3.139 -2.725,5.472 -5.5,7 -0.667,1.333 -0.667,2.667 0,4 0.483,-0.948 0.649,-1.948 0.5,-3 3.877,-1.027 5.877,-3.694 6,-8 8.338,0.5 16.671,1.167 25,2 1.64,3.473 4.14,6.14 7.5,8 0.49,1.293 0.657,2.627 0.5,4 -13.5,3.098 -26.833,2.598 -40,-1.5 -2.087,-0.792 -3.921,-1.959 -5.5,-3.5 -0.667,-6 -0.667,-12 0,-18 1.514,-7.703 2.847,-15.369 4,-23 -1.964,3.731 -3.297,7.731 -4,12 -1.794,8.908 -2.794,17.908 -3,27 -4.824,2.837 -9.157,2.17 -13,-2 -0.342,-6.322 0.991,-12.322 4,-18 3.81,-8.288 8.144,-16.288 13,-24 1.019,-1.187 2.186,-2.187 3.5,-3 4.467,2.569 9.133,4.569 14,6 -0.501,5.847 -1.168,11.68 -2,17.5 0.243,3.003 1.91,4.17 5,3.5 -0.012,-6.371 0.488,-12.704 1.5,-19 8.592,-8.434 18.759,-14.267 30.5,-17.5 1.395,-2.075 1.062,-3.908 -1,-5.5 8.46,-0.695 11.96,3.305 10.5,12 -0.308,0.808 -0.808,1.475 -1.5,2 -2.725,-1.929 -5.725,-2.429 -9,-1.5 -6.66,2.827 -13.327,5.327 -20,7.5 z"
       id="path940" />
  </g>
  <g
     id="g941"
     transform="translate(-457.5,-520.89288)">
    <path
       style="opacity:1"
       fill="#9fa1a9"
       d="m 498.5,638.5 c 0.639,0.597 0.972,1.43 1,2.5 -0.962,4.476 -1.795,8.976 -2.5,13.5 -0.485,-5.425 0.015,-10.758 1.5,-16 z"
       id="path941" />
  </g>
  <g
     id="g942"
     transform="translate(-457.5,-520.89288)">
    <path
       style="opacity:1"
       fill="#828e98"
       d="m 508.5,635.5 c 0.667,0.333 1.333,0.667 2,1 -0.791,5.919 -1.291,11.919 -1.5,18 -1.258,-6.358 -1.425,-12.691 -0.5,-19 z"
       id="path942" />
  </g>
  <g
     id="g943"
     transform="translate(-457.5,-520.89288)">
    <path
       style="opacity:1"
       fill="#babfbf"
       d="m 498.5,631.5 c 0.235,-0.597 0.735,-0.93 1.5,-1 1.893,0.696 3.726,1.53 5.5,2.5 -2.952,3.213 -5.285,2.713 -7,-1.5 z"
       id="path943" />
  </g>
  <g
     id="g944"
     transform="translate(-457.5,-520.89288)">
    <path
       style="opacity:1"
       fill="#468cc0"
       d="m 483.5,617.5 c 2.104,-0.299 4.104,0.034 6,1 -1.617,2.132 -2.117,4.465 -1.5,7 4.623,2.459 8.457,5.792 11.5,10 -6.939,-0.333 -13.106,-2.999 -18.5,-8 -0.976,-3.827 -0.143,-7.16 2.5,-10 z"
       id="path944" />
  </g>
  <g
     id="g945"
     transform="translate(-457.5,-520.89288)">
    <path
       style="opacity:1"
       fill="#d0d0cf"
       d="m 512.5,624.5 c 2.357,-0.163 4.69,0.003 7,0.5 -5.281,3.191 -10.781,4.691 -16.5,4.5 -0.49,-1.293 -0.657,-2.627 -0.5,-4 3.542,0.313 6.875,-0.021 10,-1 z"
       id="path945" />
  </g>
  <g
     id="g946"
     transform="translate(-457.5,-520.89288)">
    <path
       style="opacity:1"
       fill="#e3e3e1"
       d="m 495.5,625.5 c 1.667,0 3.333,0 5,0 0,1 0,2 0,3 -1.667,0 -3.333,0 -5,0 0,-1 0,-2 0,-3 z"
       id="path946" />
  </g>
  <g
     id="g947"
     transform="translate(-457.5,-520.89288)">
    <path
       style="opacity:1"
       fill="#548dbd"
       d="m 490.5,619.5 c 2.687,-0.164 5.354,0.003 8,0.5 -0.837,1.011 -1.17,2.178 -1,3.5 -1.333,0 -2.667,0 -4,0 -0.156,3.635 -1.322,3.968 -3.5,1 -0.64,-1.765 -0.473,-3.432 0.5,-5 z"
       id="path947" />
  </g>
  <g
     id="g948"
     transform="translate(-457.5,-520.89288)">
    <path
       style="opacity:1"
       fill="#3b79aa"
       d="m 523.5,617.5 c 3.165,-0.536 5.831,0.297 8,2.5 -3.464,1.654 -7.131,2.821 -11,3.5 -2.225,0.195 -3.891,-0.639 -5,-2.5 0.405,-0.945 1.072,-1.612 2,-2 2.208,-0.191 4.208,-0.691 6,-1.5 z"
       id="path948" />
  </g>
  <g
     id="g949"
     transform="translate(-457.5,-520.89288)">
    <path
       style="opacity:1"
       fill="#e1e1de"
       d="m 501.5,620.5 c 3,0 6,0 9,0 0,1 0,2 0,3 -3,0 -6,0 -9,0 0,-1 0,-2 0,-3 z"
       id="path949" />
  </g>
  <g
     id="g995"
     transform="translate(-457.5,-520.89288)">
    <path
       style="opacity:1"
       fill="#3f7170"
       d="m 481.5,725.5 c 5.334,1.282 10.668,1.282 16,0 1.145,1.276 1.145,2.609 0,4 -4.295,1.161 -8.629,1.328 -13,0.5 -2.363,-0.589 -3.363,-2.089 -3,-4.5 z"
       id="path995" />
  </g>
  <g
     id="g999"
     transform="translate(-457.5,-520.89288)">
    <path
       style="opacity:1"
       fill="#446e6c"
       d="m 536.5,725.5 c 1,0 2,0 3,0 0.203,1.89 -0.463,3.39 -2,4.5 -5.218,1.563 -10.551,1.896 -16,1 -1.711,-1.133 -2.211,-2.633 -1.5,-4.5 4.748,1.135 9.581,1.302 14.5,0.5 0.916,-0.278 1.582,-0.778 2,-1.5 z"
       id="path999" />
  </g>
  <g
     id="g1000"
     transform="translate(-457.5,-520.89288)">
    <path
       style="opacity:1"
       fill="#d3d5d6"
       d="m 499.5,724.5 c 0.961,1.765 1.295,3.765 1,6 4.733,-0.277 9.4,0.057 14,1 1.713,-0.379 2.713,-1.379 3,-3 0.708,1.878 1.874,3.545 3.5,5 0.46,4.48 2.627,7.98 6.5,10.5 2.395,1.598 4.728,1.764 7,0.5 1,0 2,0 3,0 -2.311,1.568 -4.978,2.402 -8,2.5 -12.214,0.293 -24.381,0.46 -36.5,0.5 -4.198,0.107 -7.698,-1.227 -10.5,-4 4.511,-1.5 9.011,-3.167 13.5,-5 1.474,-4.619 2.64,-9.286 3.5,-14 z"
       id="path1000" />
  </g>
  <g
     id="g1026"
     transform="translate(-457.5,-520.89288)">
    <path
       style="opacity:1"
       fill="#161517"
       d="m 541.5,743.5 c -1.333,0.333 -2.667,0.667 -4,1 -1,0 -2,0 -3,0 -0.111,-2.148 0.556,-2.481 2,-1 1.417,-1.915 3.084,-1.915 5,0 z"
       id="path1026" />
  </g>
  <g
     id="g1027"
     transform="translate(-457.5,-520.89288)">
    <path
       style="opacity:1"
       fill="#cdcdcd"
       d="m 480.5,739.5 c 1.333,0 2,0.667 2,2 -1.739,0.934 -3.405,0.934 -5,0 0.857,-0.925 1.857,-1.592 3,-2 z"
       id="path1027" />
  </g>
  <g
     id="g1028"
     transform="translate(-457.5,-520.89288)">
    <path
       style="opacity:1"
       fill="#636364"
       d="m 478.5,734.5 c 1.646,2.312 3.646,4.312 6,6 -0.342,0.838 -1.008,1.172 -2,1 0,-1.333 -0.667,-2 -2,-2 -2.03,-0.772 -3.863,-0.106 -5.5,2 -0.816,-1.323 -1.983,-1.989 -3.5,-2 1.451,-2.768 3.784,-4.435 7,-5 z"
       id="path1028" />
  </g>
  <g
     id="g1029"
     transform="translate(-457.5,-520.89288)">
    <path
       style="opacity:1"
       fill="#828383"
       d="m 538.5,736.5 c 1.109,0.79 2.442,1.29 4,1.5 -0.913,1.414 -0.913,2.914 0,4.5 0,0.667 -0.333,1 -1,1 -1.916,-1.915 -3.583,-1.915 -5,0 -1.444,-1.481 -2.111,-1.148 -2,1 -2.053,0.098 -3.72,-0.569 -5,-2 2.518,-1.194 2.518,-2.36 0,-3.5 3.046,-0.739 6.046,-1.572 9,-2.5 z"
       id="path1029" />
  </g>
  <g
     id="g1030"
     transform="translate(-457.5,-520.89288)">
    <path
       style="opacity:1"
       fill="#d6d7d7"
       d="m 538.5,736.5 c -2.954,0.928 -5.954,1.761 -9,2.5 2.518,1.14 2.518,2.306 0,3.5 -3.896,-1.231 -5.896,-3.897 -6,-8 1.967,-0.239 3.801,0.094 5.5,1 2.896,-2.245 6.063,-2.578 9.5,-1 1.273,0.757 1.273,1.423 0,2 z"
       id="path1030" />
  </g>
  <g
     id="g1031"
     transform="translate(-457.5,-520.89288)">
    <path
       style="opacity:1"
       fill="#e6e6e8"
       d="m 484.5,740.5 c -2.354,-1.688 -4.354,-3.688 -6,-6 1.866,-0.514 3.7,-1.18 5.5,-2 3.332,0.25 6.832,0.25 10.5,0 0.946,5.394 -1.054,7.061 -6,5 -0.886,0.825 -1.219,1.825 -1,3 -1,0 -2,0 -3,0 z"
       id="path1031" />
  </g>
</svg>
