<?xml version="1.0" encoding="UTF-8" standalone="no"?>
<svg
   version="1.1"
   width="103.06182"
   height="213.21887"
   style="clip-rule:evenodd;fill-rule:evenodd;image-rendering:optimizeQuality;shape-rendering:geometricPrecision;text-rendering:geometricPrecision"
   id="svg1400"
   xmlns="http://www.w3.org/2000/svg"
   xmlns:svg="http://www.w3.org/2000/svg">
  <defs
     id="defs1400" />
  <g
     id="g1122"
     transform="translate(-79.467445,-784.49597)">
    <path
       style="opacity:1"
       fill="#e2e1e1"
       d="m 116.5,867.5 c 1.452,0.802 3.118,1.302 5,1.5 0.837,1.011 1.17,2.178 1,3.5 -1.333,0 -2.667,0 -4,0 -0.709,-0.904 -1.709,-1.237 -3,-1 -4.13,0.251 -8.13,0.251 -12,0 0.864,-1.697 2.197,-2.863 4,-3.5 2.982,-0.498 5.982,-0.665 9,-0.5 z"
       id="path1122" />
  </g>
  <g
     id="g1136"
     transform="translate(-79.467445,-784.49597)">
    <path
       style="opacity:1"
       fill="#111010"
       d="m 149.5,871.5 c -2.805,0.819 -5.805,1.319 -9,1.5 2.42,0.29 4.754,0.79 7,1.5 2.061,1.251 2.394,2.918 1,5 -2.521,1.285 -5.187,1.952 -8,2 -3.398,0.32 -6.732,-0.013 -10,-1 1.791,-0.67 3.458,-1.337 5,-2 1.274,-0.689 1.274,-1.523 0,-2.5 -2.525,-0.896 -4.692,-0.396 -6.5,1.5 -1.113,-0.805 -2.279,-1.472 -3.5,-2 0,-0.333 0,-0.667 0,-1 1.915,0.284 3.581,-0.049 5,-1 1.599,0.268 2.932,-0.066 4,-1 4.953,-0.829 9.953,-1.163 15,-1 z"
       id="path1136" />
  </g>
  <g
     id="g1138"
     transform="translate(-79.467445,-784.49597)">
    <path
       style="opacity:1"
       fill="#0c0b09"
       d="m 114.5,874.5 c 1.88,-0.271 3.213,0.396 4,2 0,1.667 0,3.333 0,5 -2.333,0 -4.667,0 -7,0 -3.146,-0.294 -4.313,-1.961 -3.5,-5 1.897,-1.516 4.064,-2.183 6.5,-2 z"
       id="path1138" />
  </g>
  <g
     id="g1139"
     transform="translate(-79.467445,-784.49597)">
    <path
       style="opacity:1"
       fill="#6f6e6e"
       d="m 115.5,871.5 c 1.291,-0.237 2.291,0.096 3,1 -2.597,0.221 -2.597,0.721 0,1.5 2.31,0.497 4.643,0.663 7,0.5 0,0.333 0,0.667 0,1 -2.235,-0.295 -4.235,0.039 -6,1 -0.333,0 -0.667,0 -1,0 -0.787,-1.604 -2.12,-2.271 -4,-2 0,-0.667 0,-1.333 0,-2 0.667,0 1,-0.333 1,-1 z"
       id="path1139" />
  </g>
  <g
     id="g1147"
     transform="translate(-79.467445,-784.49597)">
    <path
       style="opacity:1"
       fill="#31312f"
       d="m 118.5,876.5 c 0.333,0 0.667,0 1,0 1.221,2.734 2.221,5.567 3,8.5 0.376,2.655 -0.624,4.488 -3,5.5 0,-0.667 0,-1.333 0,-2 2.01,-1.523 2.344,-3.356 1,-5.5 -3.195,-0.181 -6.195,-0.681 -9,-1.5 2.333,0 4.667,0 7,0 0,-1.667 0,-3.333 0,-5 z"
       id="path1147" />
  </g>
  <g
     id="g1149"
     transform="translate(-79.467445,-784.49597)">
    <path
       style="opacity:1"
       fill="#353532"
       d="m 135.5,878.5 c -1.542,0.663 -3.209,1.33 -5,2 3.268,0.987 6.602,1.32 10,1 -3.812,0.824 -7.812,1.324 -12,1.5 -1.85,3.466 -0.85,5.299 3,5.5 0,0.333 0,0.667 0,1 0,0.333 0,0.667 0,1 -4.303,-0.463 -6.136,-2.796 -5.5,-7 1.353,-1.185 2.52,-2.519 3.5,-4 1.896,-0.966 3.896,-1.299 6,-1 z"
       id="path1149" />
  </g>
  <g
     id="g1151"
     transform="translate(-79.467445,-784.49597)">
    <path
       style="opacity:1"
       fill="#f7f6f4"
       d="m 147.5,874.5 c 0.709,-0.904 1.709,-1.237 3,-1 2.624,0.576 3.291,1.91 2,4 -0.71,2.393 -1.377,4.893 -2,7.5 -6.05,2.643 -12.383,3.81 -19,3.5 -3.85,-0.201 -4.85,-2.034 -3,-5.5 4.188,-0.176 8.188,-0.676 12,-1.5 2.813,-0.048 5.479,-0.715 8,-2 1.394,-2.082 1.061,-3.749 -1,-5 z"
       id="path1151" />
  </g>
  <g
     id="g1152"
     transform="translate(-79.467445,-784.49597)">
    <path
       style="opacity:1"
       fill="#f0efee"
       d="m 114.5,872.5 c 0,0.667 0,1.333 0,2 -2.436,-0.183 -4.603,0.484 -6.5,2 -0.813,3.039 0.354,4.706 3.5,5 2.805,0.819 5.805,1.319 9,1.5 1.344,2.144 1.01,3.977 -1,5.5 -5.242,0.477 -10.242,-0.356 -15,-2.5 -3.95,-9.575 -0.616,-14.075 10,-13.5 z"
       id="path1152" />
  </g>
  <g
     id="g1153"
     transform="translate(-79.467445,-784.49597)">
    <path
       style="opacity:1"
       fill="#999a99"
       d="m 152.5,877.5 c 0.317,3.072 -0.016,6.072 -1,9 -1.526,0.494 -2.859,1.161 -4,2 -5.287,0.842 -10.62,1.176 -16,1 0,-0.333 0,-0.667 0,-1 6.617,0.31 12.95,-0.857 19,-3.5 0.623,-2.607 1.29,-5.107 2,-7.5 z"
       id="path1153" />
  </g>
  <g
     id="g1200"
     transform="translate(-79.467445,-784.49597)">
    <path
       style="opacity:1"
       fill="#ebe8e8"
       d="m 125.5,875.5 c 1.221,0.528 2.387,1.195 3.5,2 1.808,-1.896 3.975,-2.396 6.5,-1.5 1.274,0.977 1.274,1.811 0,2.5 -2.104,-0.299 -4.104,0.034 -6,1 -0.98,1.481 -2.147,2.815 -3.5,4 -0.636,4.204 1.197,6.537 5.5,7 -0.43,0.921 -1.764,1.421 -4,1.5 -1.944,2.153 -2.444,4.653 -1.5,7.5 2.198,2.121 4.698,3.788 7.5,5 -1.2,0.792 -2.533,0.792 -4,0 -2.494,-1.577 -4.327,-0.91 -5.5,2 -1.167,-1.667 -2.333,-3.333 -3.5,-5 2.837,-3.974 2.503,-7.641 -1,-11 2.376,-1.012 3.376,-2.845 3,-5.5 -0.779,-2.933 -1.779,-5.766 -3,-8.5 1.765,-0.961 3.765,-1.295 6,-1 z"
       id="path1200" />
  </g>
  <g
     id="g1201"
     transform="translate(-79.467445,-784.49597)">
    <path
       style="opacity:1"
       fill="#efefef"
       d="m 137.5,902.5 c -3.026,-0.674 -6.026,-1.507 -9,-2.5 -2.102,-1.733 -2.435,-3.733 -1,-6 6.561,1.046 13.228,1.546 20,1.5 3.938,-0.343 4.938,-2.343 3,-6 4.354,-1.176 6.687,0.657 7,5.5 -1.058,4.052 -3.725,6.386 -8,7 -3.986,0.499 -7.986,0.666 -12,0.5 z"
       id="path1201" />
  </g>
  <g
     id="g1218"
     transform="translate(-79.467445,-784.49597)">
    <path
       style="opacity:1"
       fill="#1d1d1c"
       d="m 118.5,866.5 c -0.342,0.838 -1.008,1.172 -2,1 -3.018,-0.165 -6.018,0.002 -9,0.5 -1.803,0.637 -3.136,1.803 -4,3.5 3.87,0.251 7.87,0.251 12,0 0,0.667 -0.333,1 -1,1 -10.616,-0.575 -13.95,3.925 -10,13.5 4.758,2.144 9.758,2.977 15,2.5 0,0.667 0,1.333 0,2 3.503,3.359 3.837,7.026 1,11 1.167,1.667 2.333,3.333 3.5,5 1.173,-2.91 3.006,-3.577 5.5,-2 -3.571,-0.092 -4.738,1.574 -3.5,5 6.468,6.545 14.301,9.212 23.5,8 0.667,0.667 1.333,1.333 2,2 6.325,5.175 6.658,10.841 1,17 1.683,3.736 2.516,7.736 2.5,12 0.615,1.616 1.615,2.949 3,4 0.18,6.343 0.18,12.676 0,19 0.667,2 1.333,4 2,6 0.671,0.752 1.504,1.086 2.5,1 2.09,1.89 4.423,3.557 7,5 1.053,0.938 1.72,2.105 2,3.5 -1.534,1.935 -3.534,3.101 -6,3.5 1.088,-1.5 2.421,-2.833 4,-4 -2.688,-1.297 -5.188,-0.964 -7.5,1 -0.464,-0.594 -0.631,-1.261 -0.5,-2 1.679,-0.392 3.346,-0.892 5,-1.5 -2.529,-2.029 -5.196,-3.862 -8,-5.5 -1.929,0.88 -3.763,1.88 -5.5,3 -2.577,-1.626 -3.577,-0.96 -3,2 1.972,1.732 4.139,3.065 6.5,4 1.473,2.91 3.64,3.577 6.5,2 0.717,0.544 1.217,1.211 1.5,2 -2.374,1.186 -4.708,1.186 -7,0 -2.599,-1.979 -5.265,-3.979 -8,-6 -0.98,-2.586 -1.313,-5.253 -1,-8 1.134,-2.466 1.301,-5.133 0.5,-8 -1.667,-3.333 -3.333,-6.667 -5,-10 -0.333,-4 -0.667,-8 -1,-12 -2.939,-1.927 -5.772,-3.927 -8.5,-6 -3.284,-1.157 -6.618,-1.324 -10,-0.5 -1.905,1.87 -4.072,3.37 -6.5,4.5 -0.791,3.252 -0.291,6.252 1.5,9 -2.966,6.952 -2.633,13.619 1,20 0.808,2.426 1.808,4.759 3,7 -0.376,1.883 -1.376,3.383 -3,4.5 -5.509,2.087 -11.175,3.587 -17,4.5 -3.126,-0.888 -5.4594,-2.722 -7,-5.5 0.1448,-0.772 0.4781,-1.439 1,-2 3.092,-1.546 6.092,-3.046 9,-4.5 2.988,0.345 4.321,-0.988 4,-4 -2.734,-6.313 -5.068,-12.813 -7,-19.5 3.04,-4.109 3.706,-8.609 2,-13.5 0.222,-1.555 0.889,-2.889 2,-4 -5.535,-4.91 -6.368,-10.576 -2.5,-17 0.75,-0.626 1.584,-1.126 2.5,-1.5 -3.52,-0.504 -6.02,-2.337 -7.5,-5.5 -0.7128,-3.926 -0.3795,-7.592 1,-11 -1,1 -2,2 -3,3 -1.0851,7.342 -3.2517,14.342 -6.5,21 1.9935,2.316 2.9935,4.982 3,8 -1.3333,0 -2.6667,0 -4,0 0.9015,3.741 -0.4319,5.741 -4,6 1.6848,-2.377 2.6848,-5.711 3,-10 -0.0195,-1.226 -0.3529,-2.226 -1,-3 -2.0273,-0.162 -4.0273,0.005 -6,0.5 -0.8366,1.011 -1.17,2.178 -1,3.5 -0.2138,2.879 -0.2138,5.212 0,7 -1.5265,-0.992 -2.1932,-2.492 -2,-4.5 1.493,-6.398 2.3264,-12.898 2.5,-19.5 0.8762,-5.411 3.0428,-10.078 6.5,-14 -0.7178,-1.637 -0.8845,-3.303 -0.5,-5 6.5034,-4.674 9.5034,-11.007 9,-19 1.1769,-1.676 2.6769,-3.009 4.5,-4 0.415,-2.579 1.748,-4.413 4,-5.5 4.321,-0.499 8.654,-0.666 13,-0.5 z"
       id="path1218" />
  </g>
  <g
     id="g1219"
     transform="translate(-79.467445,-784.49597)">
    <path
       style="opacity:1"
       fill="#eceae9"
       d="m 104.5,888.5 c 1.603,-0.188 2.937,0.312 4,1.5 -2.107,1.264 -3.107,3.097 -3,5.5 5.067,-0.247 10.067,-0.913 15,-2 0.239,1.967 -0.094,3.801 -1,5.5 -4.289,2.877 -8.956,3.877 -14,3 -2.942,-0.94 -4.275,-2.94 -4,-6 0.048,-2.922 1.048,-5.422 3,-7.5 z"
       id="path1219" />
  </g>
  <g
     id="g1220"
     transform="translate(-79.467445,-784.49597)">
    <path
       style="opacity:1"
       fill="#e6e5e6"
       d="m 100.5,874.5 c 0.543,0.06 0.876,0.393 1,1 -2.6337,4.172 -2.3004,8.172 1,12 -3.0351,3.942 -3.7017,8.275 -2,13 -0.387,1.22 -1.2202,1.887 -2.5,2 -1.9597,-0.792 -3.4597,-2.125 -4.5,-4 -2.0443,1.48 -3.3776,0.98 -4,-1.5 3.1864,-2.531 5.6864,-5.698 7.5,-9.5 0.7626,-4.546 1.9293,-8.879 3.5,-13 z"
       id="path1220" />
  </g>
  <g
     id="g1224"
     transform="translate(-79.467445,-784.49597)">
    <path
       style="opacity:1"
       fill="#252424"
       d="m 179.5,928.5 c 5.694,8.676 3.361,13.176 -7,13.5 -0.613,-2.147 -1.279,-4.314 -2,-6.5 -3.531,1.783 -5.031,0.783 -4.5,-3 1.563,-1.225 2.73,-2.725 3.5,-4.5 -2.282,-7.692 -3.948,-15.526 -5,-23.5 -0.978,-0.477 -1.811,-1.143 -2.5,-2 -0.206,-3.123 -0.873,-6.123 -2,-9 -0.229,2.958 -1.396,5.458 -3.5,7.5 2.765,2.995 3.598,6.495 2.5,10.5 -2.028,3.192 -4.528,5.859 -7.5,8 -0.667,-0.667 -1.333,-1.333 -2,-2 1.773,-1.392 3.773,-2.559 6,-3.5 2.835,-4.071 2.668,-7.904 -0.5,-11.5 -1.459,0.308 -2.626,0.975 -3.5,2 -4.769,-0.617 -9.436,-1.284 -14,-2 4.014,0.166 8.014,-10e-4 12,-0.5 4.275,-0.614 6.942,-2.948 8,-7 -0.313,-4.843 -2.646,-6.676 -7,-5.5 1.938,3.657 0.938,5.657 -3,6 0.077,-1.25 0.744,-2.083 2,-2.5 -0.667,-0.333 -1.333,-0.667 -2,-1 2.427,-1.554 2.427,-2.721 0,-3.5 1.141,-0.839 2.474,-1.506 4,-2 0.984,-2.928 1.317,-5.928 1,-9 1.291,-2.09 0.624,-3.424 -2,-4 1.542,-0.663 3.209,-1.33 5,-2 -0.124,-0.607 -0.457,-0.94 -1,-1 -7.411,-3.988 -14.744,-3.988 -22,0 -2.217,-0.869 -4.55,-1.202 -7,-1 -1.22,1.55 -1.22,3.216 0,5 -2.357,0.163 -4.69,-0.003 -7,-0.5 -2.597,-0.779 -2.597,-1.279 0,-1.5 1.333,0 2.667,0 4,0 0.17,-1.322 -0.163,-2.489 -1,-3.5 -1.882,-0.198 -3.548,-0.698 -5,-1.5 0.992,0.172 1.658,-0.162 2,-1 1,0 2,0 3,0 0,-1 0,-2 0,-3 -29.5532,-2.696 -40.7198,-18.696 -33.5,-48 5.5828,-20.905 19.249,-31.239 41,-31 34.229,0.221 49.229,17.221 45,51 -2.958,12.959 -10.791,21.459 -23.5,25.5 -5.001,0.9 -10.001,1.734 -15,2.5 -0.219,1.175 0.114,2.175 1,3 7.543,-2.15 14.376,-0.817 20.5,4 0.483,0.948 0.649,1.948 0.5,3 3.773,-0.678 6.606,0.656 8.5,4 -0.902,7.868 2.098,13.535 9,17 0.921,5.432 2.255,10.765 4,16 0.499,5.991 0.666,11.991 0.5,18 z"
       id="path1224" />
  </g>
  <g
     id="g1225"
     transform="translate(-79.467445,-784.49597)">
    <path
       style="opacity:1"
       fill="#f0f0f0"
       d="m 159.5,875.5 c 1.89,-0.203 3.39,0.463 4.5,2 -0.6,7.904 2.4,13.904 9,18 0.49,1.293 0.657,2.627 0.5,4 -3.711,0.114 -7.045,1.114 -10,3 0.253,-7.829 -2.914,-13.829 -9.5,-18 -0.497,-2.31 -0.663,-4.643 -0.5,-7 3.142,1.462 5.142,0.795 6,-2 z"
       id="path1225" />
  </g>
  <g
     id="g1226"
     transform="translate(-79.467445,-784.49597)">
    <path
       style="opacity:1"
       fill="#646364"
       d="m 154.5,870.5 c 0.543,0.06 0.876,0.393 1,1 -1.791,0.67 -3.458,1.337 -5,2 -1.291,-0.237 -2.291,0.096 -3,1 -2.246,-0.71 -4.58,-1.21 -7,-1.5 3.195,-0.181 6.195,-0.681 9,-1.5 1.915,0.284 3.581,-0.049 5,-1 z"
       id="path1226" />
  </g>
  <g
     id="g1227"
     transform="translate(-79.467445,-784.49597)">
    <path
       style="opacity:1"
       fill="#f2f1f1"
       d="m 125.5,869.5 c -0.131,0.739 0.036,1.406 0.5,2 1.356,-0.88 2.856,-1.214 4.5,-1 0,1 0,2 0,3 -1.419,0.951 -3.085,1.284 -5,1 -1.22,-1.784 -1.22,-3.45 0,-5 z"
       id="path1227" />
  </g>
  <g
     id="g1228"
     transform="translate(-79.467445,-784.49597)">
    <path
       style="opacity:1"
       fill="#a4a3a4"
       d="m 125.5,869.5 c 2.45,-0.202 4.783,0.131 7,1 0,1.333 0.667,2 2,2 -1.068,0.934 -2.401,1.268 -4,1 0,-1 0,-2 0,-3 -1.644,-0.214 -3.144,0.12 -4.5,1 -0.464,-0.594 -0.631,-1.261 -0.5,-2 z"
       id="path1228" />
  </g>
  <g
     id="g1229"
     transform="translate(-79.467445,-784.49597)">
    <path
       style="opacity:1"
       fill="#e8e9e9"
       d="m 154.5,870.5 c -1.419,0.951 -3.085,1.284 -5,1 -5.047,-0.163 -10.047,0.171 -15,1 -1.333,0 -2,-0.667 -2,-2 7.256,-3.988 14.589,-3.988 22,0 z"
       id="path1229" />
  </g>
  <g
     id="g1230"
     transform="translate(-79.467445,-784.49597)">
    <path
       style="opacity:1"
       fill="#f2f1f0"
       d="m 123.5,864.5 c 3.333,0 6.667,0 10,0 0,1 0,2 0,3 -3.333,0 -6.667,0 -10,0 0,-1 0,-2 0,-3 z"
       id="path1230" />
  </g>
  <g
     id="g1231"
     transform="translate(-79.467445,-784.49597)">
    <path
       style="opacity:1"
       fill="#d1d1d1"
       d="m 163.5,798.5 c 10.655,12.856 12.822,27.189 6.5,43 -5.842,11.653 -15.342,17.987 -28.5,19 -1.452,-0.802 -3.118,-1.302 -5,-1.5 13.223,-2.023 22.39,-9.19 27.5,-21.5 4.773,-13.174 4.606,-26.174 -0.5,-39 z"
       id="path1231" />
  </g>
  <g
     id="g1232"
     transform="translate(-79.467445,-784.49597)">
    <path
       style="opacity:1"
       fill="#f9f9f9"
       d="m 163.5,798.5 c 5.106,12.826 5.273,25.826 0.5,39 -5.11,12.31 -14.277,19.477 -27.5,21.5 1.882,0.198 3.548,0.698 5,1.5 -8.977,1.014 -17.977,1.181 -27,0.5 -11.682,-1.734 -19.8482,-7.9 -24.5,-18.5 -0.6667,-8.667 -0.6667,-17.333 0,-26 3.9377,-16.271 14.104,-26.104 30.5,-29.5 12.955,-1.742 25.288,0.258 37,6 2.496,1.331 4.496,3.164 6,5.5 z"
       id="path1232" />
  </g>
  <g
     id="g1233"
     transform="translate(-79.467445,-784.49597)">
    <path
       style="opacity:1"
       fill="#181312"
       d="m 119.5,841.5 c -0.333,0.667 -0.667,1.333 -1,2 0,0.667 0,1.333 0,2 1.068,0.934 2.401,1.268 4,1 1,0 2,0 3,0 0.667,-0.333 1.333,-0.667 2,-1 1.419,0.951 3.085,1.284 5,1 0.268,-1.599 -0.066,-2.932 -1,-4 0,-0.333 0,-0.667 0,-1 2.955,-0.659 5.955,-0.992 9,-1 -1.131,12.914 -8.131,18.08 -21,15.5 -7.181,-2.718 -10.181,-7.718 -9,-15 2.975,-0.044 5.975,0.123 9,0.5 z"
       id="path1233" />
  </g>
  <g
     id="g1234"
     transform="translate(-79.467445,-784.49597)">
    <path
       style="opacity:1"
       fill="#dc5759"
       d="m 121.5,848.5 c 4.333,0 8.667,0 13,0 -1.141,4.837 -4.307,6.837 -9.5,6 -6.797,0.732 -7.963,-1.268 -3.5,-6 z"
       id="path1234" />
  </g>
  <g
     id="g1235"
     transform="translate(-79.467445,-784.49597)">
    <path
       style="opacity:1"
       fill="#d9d9dc"
       d="m 131.5,842.5 c 0.934,1.068 1.268,2.401 1,4 -1.915,0.284 -3.581,-0.049 -5,-1 0.711,-1.701 2.045,-2.701 4,-3 z"
       id="path1235" />
  </g>
  <g
     id="g1236"
     transform="translate(-79.467445,-784.49597)">
    <path
       style="opacity:1"
       fill="#464342"
       d="m 119.5,841.5 c 4,0 8,0 12,0 0,0.333 0,0.667 0,1 -1.955,0.299 -3.289,1.299 -4,3 -0.667,0.333 -1.333,0.667 -2,1 0,-1 0,-2 0,-3 -1,0 -2,0 -3,0 0,1 0,2 0,3 -1.599,0.268 -2.932,-0.066 -4,-1 4,-0.667 4,-1.333 0,-2 0.333,-0.667 0.667,-1.333 1,-2 z"
       id="path1236" />
  </g>
  <g
     id="g1237"
     transform="translate(-79.467445,-784.49597)">
    <path
       style="opacity:1"
       fill="#dfdde1"
       d="m 125.5,846.5 c -1,0 -2,0 -3,0 0,-1 0,-2 0,-3 1,0 2,0 3,0 0,1 0,2 0,3 z"
       id="path1237" />
  </g>
  <g
     id="g1238"
     transform="translate(-79.467445,-784.49597)">
    <path
       style="opacity:1"
       fill="#f5f5f7"
       d="m 118.5,843.5 c 4,0.667 4,1.333 0,2 0,-0.667 0,-1.333 0,-2 z"
       id="path1238" />
  </g>
  <g
     id="g1239"
     transform="translate(-79.467445,-784.49597)">
    <path
       style="opacity:1"
       fill="#e1e1e1"
       d="m 135.5,841.5 c 1.175,-0.219 2.175,0.114 3,1 -1.447,2.439 -3.113,2.939 -5,1.5 0.556,-1.011 1.222,-1.844 2,-2.5 z"
       id="path1239" />
  </g>
  <g
     id="g1240"
     transform="translate(-79.467445,-784.49597)">
    <path
       style="opacity:1"
       fill="#d8d8dc"
       d="m 112.5,842.5 c 1.333,0 2.667,0 4,0 0,1 0,2 0,3 -2.473,0.412 -3.806,-0.588 -4,-3 z"
       id="path1240" />
  </g>
  <g
     id="g1241"
     transform="translate(-79.467445,-784.49597)">
    <path
       style="opacity:1"
       fill="#171818"
       d="m 121.5,828.5 c 4.226,0.451 6.059,2.784 5.5,7 -2.614,-0.954 -5.447,-0.954 -8.5,0 0.188,-2.706 1.188,-5.039 3,-7 z"
       id="path1241" />
  </g>
  <g
     id="g1242"
     transform="translate(-79.467445,-784.49597)">
    <path
       style="opacity:1"
       fill="#111111"
       d="m 141.5,821.5 c 3.963,-0.411 7.63,0.422 11,2.5 2.589,1.922 3.089,4.089 1.5,6.5 -5.501,-6.239 -11.334,-6.572 -17.5,-1 -1.083,-0.865 -1.249,-1.865 -0.5,-3 1.73,-1.902 3.563,-3.569 5.5,-5 z"
       id="path1242" />
  </g>
  <g
     id="g1243"
     transform="translate(-79.467445,-784.49597)">
    <path
       style="opacity:1"
       fill="#09090b"
       d="m 108.5,811.5 c 2.949,1.114 5.115,3.114 6.5,6 0.81,4.757 0.476,9.424 -1,14 -3.618,5.156 -8.118,6.156 -13.5,3 -5.5889,-7.4 -5.2555,-14.566 1,-21.5 2.177,-1.202 4.511,-1.702 7,-1.5 z"
       id="path1243" />
  </g>
  <g
     id="g1244"
     transform="translate(-79.467445,-784.49597)">
    <path
       style="opacity:1"
       fill="#d0d0d2"
       d="m 108.5,811.5 c -2.489,-0.202 -4.823,0.298 -7,1.5 -6.2555,6.934 -6.5889,14.1 -1,21.5 -2.9521,-0.859 -4.7854,-2.859 -5.5,-6 -2.004,-7.137 -0.1706,-12.97 5.5,-17.5 2.867,-0.801 5.534,-0.634 8,0.5 z"
       id="path1244" />
  </g>
  <g
     id="g1247"
     transform="translate(-79.467445,-784.49597)">
    <path
       style="opacity:1"
       fill="#151413"
       d="m 147.5,888.5 c 2.427,0.779 2.427,1.946 0,3.5 0.667,0.333 1.333,0.667 2,1 -1.256,0.417 -1.923,1.25 -2,2.5 -6.772,0.046 -13.439,-0.454 -20,-1.5 -1.435,2.267 -1.102,4.267 1,6 2.974,0.993 5.974,1.826 9,2.5 4.564,0.716 9.231,1.383 14,2 1.652,3.125 0.652,5.292 -3,6.5 -7.525,1.103 -13.858,-1.063 -19,-6.5 1.467,0.792 2.8,0.792 4,0 -2.802,-1.212 -5.302,-2.879 -7.5,-5 -0.944,-2.847 -0.444,-5.347 1.5,-7.5 2.236,-0.079 3.57,-0.579 4,-1.5 0,-0.333 0,-0.667 0,-1 5.38,0.176 10.713,-0.158 16,-1 z"
       id="path1247" />
  </g>
  <g
     id="g1250"
     transform="translate(-79.467445,-784.49597)">
    <path
       style="opacity:1"
       fill="#eae9e9"
       d="m 149.5,917.5 c -9.199,1.212 -17.032,-1.455 -23.5,-8 -1.238,-3.426 -0.071,-5.092 3.5,-5 5.142,5.437 11.475,7.603 19,6.5 3.652,-1.208 4.652,-3.375 3,-6.5 0.874,-1.025 2.041,-1.692 3.5,-2 3.168,3.596 3.335,7.429 0.5,11.5 -2.227,0.941 -4.227,2.108 -6,3.5 z"
       id="path1250" />
  </g>
  <g
     id="g1252"
     transform="translate(-79.467445,-784.49597)">
    <path
       style="opacity:1"
       fill="#eae9ea"
       d="m 173.5,900.5 c 3.762,7.807 5.262,16.14 4.5,25 -1.011,0.837 -2.178,1.17 -3.5,1 0.749,-4.319 0.915,-8.652 0.5,-13 -1.314,-3.124 -2.48,-6.291 -3.5,-9.5 0.362,-1.434 1.028,-2.601 2,-3.5 z"
       id="path1252" />
  </g>
  <g
     id="g1254"
     transform="translate(-79.467445,-784.49597)">
    <path
       style="opacity:1"
       fill="#d2d0d4"
       d="m 135.5,907.5 c 3.02,-0.972 6.02,-0.472 9,1.5 -3.094,0.251 -6.094,-0.249 -9,-1.5 z"
       id="path1254" />
  </g>
  <g
     id="g1258"
     transform="translate(-79.467445,-784.49597)">
    <path
       style="opacity:1"
       fill="#f0eeef"
       d="m 103.5,903.5 c 1.478,-0.262 2.811,0.071 4,1 -3.252,4.926 -1.919,6.759 4,5.5 3.079,-1.248 5.746,-3.081 8,-5.5 1.884,1.193 2.384,2.859 1.5,5 -4.391,5.117 -9.891,7.283 -16.5,6.5 -3.662,-3.827 -3.996,-7.994 -1,-12.5 z"
       id="path1258" />
  </g>
  <g
     id="g1261"
     transform="translate(-79.467445,-784.49597)">
    <path
       style="opacity:1"
       fill="#e0dfe0"
       d="m 121.5,911.5 c 1.287,1.371 1.953,3.205 2,5.5 -0.167,1.833 -0.333,3.667 -0.5,5.5 -2.707,-2.436 -5.873,-3.936 -9.5,-4.5 3.287,-1.467 5.954,-3.634 8,-6.5 z"
       id="path1261" />
  </g>
  <g
     id="g1264"
     transform="translate(-79.467445,-784.49597)">
    <path
       style="opacity:1"
       fill="#e3e3e4"
       d="m 169.5,901.5 c 0.691,7.56 1.691,15.227 3,23 -0.333,1 -0.667,2 -1,3 -1.434,-1.72 -2.267,-3.72 -2.5,-6 -0.64,-3.983 -1.14,-7.983 -1.5,-12 -0.115,-2.909 0.551,-5.575 2,-8 z"
       id="path1264" />
  </g>
  <g
     id="g1265"
     transform="translate(-79.467445,-784.49597)">
    <path
       style="opacity:1"
       fill="#dfdee0"
       d="m 88.5,900.5 c 1.0862,0.12 1.7528,0.787 2,2 -0.8691,3.441 -2.0358,6.774 -3.5,10 -0.499,4.321 -0.6657,8.654 -0.5,13 -1,0 -2,0 -3,0 -0.3709,-8.782 1.2957,-17.116 5,-25 z"
       id="path1265" />
  </g>
  <g
     id="g1266"
     transform="translate(-79.467445,-784.49597)">
    <path
       style="opacity:1"
       fill="#ababaa"
       d="m 124.5,911.5 c 6.101,2.649 6.101,3.982 0,4 0,-1.333 0,-2.667 0,-4 z"
       id="path1266" />
  </g>
  <g
     id="g1268"
     transform="translate(-79.467445,-784.49597)">
    <path
       style="opacity:1"
       fill="#e2e1e2"
       d="m 91.5,901.5 c 2.6268,-0.207 4.2935,0.96 5,3.5 -1.1179,7.689 -3.6179,14.855 -7.5,21.5 -0.6924,-0.525 -1.1924,-1.192 -1.5,-2 3.3595,-7.308 4.6929,-14.975 4,-23 z"
       id="path1268" />
  </g>
  <g
     id="g1271"
     transform="translate(-79.467445,-784.49597)">
    <path
       style="opacity:1"
       fill="#e5e5e5"
       d="m 124.5,917.5 c 3.072,-0.317 6.072,0.016 9,1 -2.367,1.895 -5.034,2.395 -8,1.5 -0.752,-0.671 -1.086,-1.504 -1,-2.5 z"
       id="path1271" />
  </g>
  <g
     id="g1279"
     transform="translate(-79.467445,-784.49597)">
    <path
       style="opacity:1"
       fill="#c4c3c4"
       d="m 134.5,917.5 c 5.551,0.363 6.051,1.696 1.5,4 -1.188,-1.063 -1.688,-2.397 -1.5,-4 z"
       id="path1279" />
  </g>
  <g
     id="g1283"
     transform="translate(-79.467445,-784.49597)">
    <path
       style="opacity:1"
       fill="#eceaea"
       d="m 142.5,919.5 c 10.121,-0.729 13.621,3.604 10.5,13 -1.532,2.062 -3.532,3.396 -6,4 -0.79,5.624 -3.957,7.457 -9.5,5.5 -2.234,-2.952 -5.234,-4.119 -9,-3.5 -3.376,-0.184 -6.043,0.983 -8,3.5 -5.474,1.923 -8.807,0.089 -10,-5.5 -5.329,-2.327 -7.162,-6.327 -5.5,-12 0.465,-1.431 1.299,-2.597 2.5,-3.5 3.333,-0.667 6.667,-0.667 10,0 2.667,2 5.333,4 8,6 2.667,0.667 5.333,0.667 8,0 2.606,-3.118 5.606,-5.618 9,-7.5 z"
       id="path1283" />
  </g>
  <g
     id="g1284"
     transform="translate(-79.467445,-784.49597)">
    <path
       style="opacity:1"
       fill="#ebebeb"
       d="m 131.5,921.5 c 3.635,0.156 3.968,1.322 1,3.5 -2.31,0.497 -4.643,0.663 -7,0.5 0,-1 0,-2 0,-3 2.235,0.295 4.235,-0.039 6,-1 z"
       id="path1284" />
  </g>
  <g
     id="g1288"
     transform="translate(-79.467445,-784.49597)">
    <path
       style="opacity:1"
       fill="#141312"
       d="m 141.5,924.5 c 5.209,-0.795 7.209,1.205 6,6 -2.773,3.509 -6.44,4.842 -11,4 -0.425,-4.483 1.241,-7.817 5,-10 z"
       id="path1288" />
  </g>
  <g
     id="g1290"
     transform="translate(-79.467445,-784.49597)">
    <path
       style="opacity:1"
       fill="#ecebec"
       d="m 88.5,927.5 c 0,1.667 0,3.333 0,5 -1.3221,-0.17 -2.4887,0.163 -3.5,1 -0.8159,-1.323 -1.9826,-1.989 -3.5,-2 -0.17,-1.322 0.1634,-2.489 1,-3.5 1.9727,-0.495 3.9727,-0.662 6,-0.5 z"
       id="path1290" />
  </g>
  <g
     id="g1291"
     transform="translate(-79.467445,-784.49597)">
    <path
       style="opacity:1"
       fill="#141312"
       d="m 110.5,924.5 c 6.567,-0.252 10.067,2.748 10.5,9 -8.031,2.131 -11.531,-0.869 -10.5,-9 z"
       id="path1291" />
  </g>
  <g
     id="g1304"
     transform="translate(-79.467445,-784.49597)">
    <path
       style="opacity:1"
       fill="#d3d2d5"
       d="m 90.5,929.5 c 1.832,0.64 2.1653,1.64 1,3 -0.8857,-0.825 -1.219,-1.825 -1,-3 z"
       id="path1304" />
  </g>
  <g
     id="g1305"
     transform="translate(-79.467445,-784.49597)">
    <path
       style="opacity:1"
       fill="#e0e1e1"
       d="m 179.5,928.5 c -1.252,3.483 -2.086,7.149 -2.5,11 -0.494,-1.634 -0.66,-3.301 -0.5,-5 -1.333,0 -2.667,0 -4,0 0,-2 0,-4 0,-6 2.333,0 4.667,0 7,0 z"
       id="path1305" />
  </g>
  <g
     id="g1306"
     transform="translate(-79.467445,-784.49597)">
    <path
       style="opacity:1"
       fill="#cecdd1"
       d="m 169.5,930.5 c 1.301,1.956 0.801,3.623 -1.5,5 -0.613,-1.995 -0.113,-3.662 1.5,-5 z"
       id="path1306" />
  </g>
  <g
     id="g1311"
     transform="translate(-79.467445,-784.49597)">
    <path
       style="opacity:1"
       fill="#676666"
       d="m 88.5,927.5 c 0.6471,0.774 0.9805,1.774 1,3 -0.3152,4.289 -1.3152,7.623 -3,10 -2.0529,0.098 -3.7196,-0.569 -5,-2 -0.2138,-1.788 -0.2138,-4.121 0,-7 1.5174,0.011 2.6841,0.677 3.5,2 1.0113,-0.837 2.1779,-1.17 3.5,-1 0,-1.667 0,-3.333 0,-5 z"
       id="path1311" />
  </g>
  <g
     id="g1318"
     transform="translate(-79.467445,-784.49597)">
    <path
       style="opacity:1"
       fill="#a2a3a5"
       d="m 172.5,935.5 c 1.149,0.291 1.816,1.124 2,2.5 -0.333,0.833 -0.667,1.667 -1,2.5 -0.952,-1.545 -1.285,-3.212 -1,-5 z"
       id="path1318" />
  </g>
  <g
     id="g1321"
     transform="translate(-79.467445,-784.49597)">
    <path
       style="opacity:1"
       fill="#ededed"
       d="m 152.5,939.5 c -0.166,4.014 0.001,8.014 0.5,12 1.438,1.4 2.271,3.067 2.5,5 -2.973,1.026 -5.973,1.859 -9,2.5 -0.511,-4.599 -1.511,-9.099 -3,-13.5 2.917,-1.752 4.917,-4.252 6,-7.5 1.498,-0.585 2.498,-0.085 3,1.5 z"
       id="path1321" />
  </g>
  <g
     id="g1331"
     transform="translate(-79.467445,-784.49597)">
    <path
       style="opacity:1"
       fill="#f9f9f9"
       d="m 148.5,977.5 c -9.189,-1.656 -18.522,-2.656 -28,-3 -3.633,-6.381 -3.966,-13.048 -1,-20 -1.791,-2.748 -2.291,-5.748 -1.5,-9 2.428,-1.13 4.595,-2.63 6.5,-4.5 3.382,-0.824 6.716,-0.657 10,0.5 2.728,2.073 5.561,4.073 8.5,6 0.333,4 0.667,8 1,12 1.667,3.333 3.333,6.667 5,10 0.801,2.867 0.634,5.534 -0.5,8 z"
       id="path1331" />
  </g>
  <g
     id="g1347"
     transform="translate(-79.467445,-784.49597)">
    <path
       style="opacity:1"
       fill="#e9e9ea"
       d="m 108.5,938.5 c 1.19,1.855 2.523,3.688 4,5.5 0.948,0.483 1.948,0.649 3,0.5 -0.161,4.223 0.506,8.223 2,12 -3.957,0.323 -7.79,0.323 -11.5,0 0.891,-3.011 1.724,-6.177 2.5,-9.5 -0.957,-2.916 -0.957,-5.749 0,-8.5 z"
       id="path1347" />
  </g>
  <g
     id="g1348"
     transform="translate(-79.467445,-784.49597)">
    <path
       style="opacity:1"
       fill="#acadad"
       d="m 152.5,939.5 c 0.823,3.477 1.323,7.144 1.5,11 1.031,1.2 1.865,2.534 2.5,4 -0.043,0.916 -0.376,1.583 -1,2 -0.229,-1.933 -1.062,-3.6 -2.5,-5 -0.499,-3.986 -0.666,-7.986 -0.5,-12 z"
       id="path1348" />
  </g>
  <g
     id="g1351"
     transform="translate(-79.467445,-784.49597)">
    <path
       style="opacity:1"
       fill="#eeeeee"
       d="m 151.5,959.5 c 1.667,0 3.333,0 5,0 -1.511,5.598 -1.178,11.098 1,16.5 -1.286,1.649 -2.953,2.815 -5,3.5 -1,-0.333 -1.667,-1 -2,-2 1.846,-5.564 0.846,-10.564 -3,-15 1.401,-1.021 2.735,-2.021 4,-3 z"
       id="path1351" />
  </g>
  <g
     id="g1352"
     transform="translate(-79.467445,-784.49597)">
    <path
       style="opacity:1"
       fill="#e6e6e6"
       d="m 110.5,958.5 c 2.327,-0.253 4.327,0.414 6,2 -1.062,2.603 -1.228,5.27 -0.5,8 1.4,3.24 2.567,6.573 3.5,10 -2.667,-0.333 -5.333,-0.667 -8,-1 0.165,-3.018 -0.002,-6.018 -0.5,-9 -1.808,-2.938 -3.308,-5.938 -4.5,-9 1.599,0.268 2.932,-0.066 4,-1 z"
       id="path1352" />
  </g>
  <g
     id="g1362"
     transform="translate(-79.467445,-784.49597)">
    <path
       style="opacity:1"
       fill="#d3d4d4"
       d="m 120.5,974.5 c 9.478,0.344 18.811,1.344 28,3 -0.313,2.747 0.02,5.414 1,8 2.735,2.021 5.401,4.021 8,6 -1.256,-0.039 -2.256,0.461 -3,1.5 -14.642,1.416 -29.309,1.749 -44,1 -2.942,-0.144 -5.276,-1.311 -7,-3.5 5.825,-0.913 11.491,-2.413 17,-4.5 1.624,-1.117 2.624,-2.617 3,-4.5 -1.192,-2.241 -2.192,-4.574 -3,-7 z"
       id="path1362" />
  </g>
  <g
     id="g1390"
     transform="translate(-79.467445,-784.49597)">
    <path
       style="opacity:1"
       fill="#e5e5e5"
       d="m 106.5,978.5 c -2.908,1.454 -5.908,2.954 -9,4.5 -0.5219,0.561 -0.8552,1.228 -1,2 1.5406,2.778 3.874,4.612 7,5.5 1.724,2.189 4.058,3.356 7,3.5 14.691,0.749 29.358,0.416 44,-1 0.744,-1.039 1.744,-1.539 3,-1.5 2.292,1.186 4.626,1.186 7,0 0.667,0 1,-0.333 1,-1 2.466,-0.399 4.466,-1.565 6,-3.5 -0.28,-1.395 -0.947,-2.562 -2,-3.5 -2.577,-1.443 -4.91,-3.11 -7,-5 5.48,0.715 10.813,2.048 16,4 3.036,3.689 2.37,6.522 -2,8.5 -15.358,5.277 -31.192,7.444 -47.5,6.5 -10.616,0.293 -21.116,-0.54 -31.5,-2.5 -5.3583,-1.182 -10.3583,-3.182 -15,-6 -1.2468,-1.458 -1.2468,-2.958 0,-4.5 7.2929,-4.554 15.2929,-6.554 24,-6 z"
       id="path1390" />
  </g>
  <g
     id="g1391"
     transform="translate(-79.467445,-784.49597)">
    <path
       style="opacity:1"
       fill="#8c8b8b"
       d="m 161.5,985.5 c -0.131,0.739 0.036,1.406 0.5,2 2.312,-1.964 4.812,-2.297 7.5,-1 -1.579,1.167 -2.912,2.5 -4,4 0,0.667 -0.333,1 -1,1 -0.283,-0.789 -0.783,-1.456 -1.5,-2 -2.86,1.577 -5.027,0.91 -6.5,-2 1.667,-0.667 3.333,-1.333 5,-2 z"
       id="path1391" />
  </g>
  <g
     id="g1392"
     transform="translate(-79.467445,-784.49597)">
    <path
       style="opacity:1"
       fill="#8a8b88"
       d="m 106.5,984.5 c 1.21,0.432 2.21,1.099 3,2 -1.626,1.743 -3.626,2.243 -6,1.5 0.333,-0.333 0.667,-0.667 1,-1 -1.124,-0.249 -2.124,-0.749 -3,-1.5 1.787,-0.443 3.454,-0.776 5,-1 z"
       id="path1392" />
  </g>
  <g
     id="g1393"
     transform="translate(-79.467445,-784.49597)">
    <path
       style="opacity:1"
       fill="#ededed"
       d="m 161.5,985.5 c -1.667,0.667 -3.333,1.333 -5,2 -2.361,-0.935 -4.528,-2.268 -6.5,-4 -0.577,-2.96 0.423,-3.626 3,-2 1.737,-1.12 3.571,-2.12 5.5,-3 2.804,1.638 5.471,3.471 8,5.5 -1.654,0.608 -3.321,1.108 -5,1.5 z"
       id="path1393" />
  </g>
  <g
     id="g1394"
     transform="translate(-79.467445,-784.49597)">
    <path
       style="opacity:1"
       fill="#e9e9ea"
       d="m 109.5,986.5 c -0.79,-0.901 -1.79,-1.568 -3,-2 -0.978,-0.311 -1.645,-0.978 -2,-2 5.043,-4.128 10.71,-5.128 17,-3 0,1.333 0,2.667 0,4 -4,1 -8,2 -12,3 z"
       id="path1394" />
  </g>
</svg>
