<?xml version="1.0" encoding="UTF-8" standalone="no"?>
<svg
   version="1.1"
   width="116.05255"
   height="211.16312"
   style="clip-rule:evenodd;fill-rule:evenodd;image-rendering:optimizeQuality;shape-rendering:geometricPrecision;text-rendering:geometricPrecision"
   id="svg1400"
   xmlns="http://www.w3.org/2000/svg"
   xmlns:svg="http://www.w3.org/2000/svg">
  <defs
     id="defs1400" />
  <g
     id="g55"
     transform="translate(-255.5,-50.431465)">
    <path
       style="opacity:1"
       fill="#e8e6e7"
       d="m 331.5,128.5 c 0.832,0.829 0.499,1.662 -1,2.5 -1.293,0.49 -2.627,0.657 -4,0.5 0.548,-2.584 2.215,-3.584 5,-3 z"
       id="path55" />
  </g>
  <g
     id="g58"
     transform="translate(-255.5,-50.431465)">
    <path
       style="opacity:1"
       fill="#e69c7e"
       d="m 332.5,144.5 c -2.185,-2.262 -4.852,-3.762 -8,-4.5 2.206,-2.037 4.206,-4.203 6,-6.5 1.357,-1.185 2.857,-2.185 4.5,-3 1.732,0.234 2.566,1.234 2.5,3 -0.899,3.197 -1.899,6.364 -3,9.5 -0.336,1.03 -1.003,1.53 -2,1.5 z"
       id="path58" />
  </g>
  <g
     id="g93"
     transform="translate(-255.5,-50.431465)">
    <path
       style="opacity:1"
       fill="#96938d"
       d="m 359.5,149.5 c -3.194,2.036 -5.527,4.869 -7,8.5 2.386,1.193 4.72,2.36 7,3.5 -3.285,3.509 -6.952,4.175 -11,2 -0.809,-1.571 -1.143,-3.238 -1,-5 1,0 2,0 3,0 -0.16,-1.699 0.006,-3.366 0.5,-5 5.149,-3.351 4.649,-5.351 -1.5,-6 1.359,-1.806 1.025,-3.306 -1,-4.5 -2.667,-0.333 -5.333,-0.667 -8,-1 -1.323,-0.816 -1.989,-1.983 -2,-3.5 0.511,-1.695 1.178,-3.361 2,-5 8.8,2.472 15.134,7.805 19,16 z"
       id="path93" />
  </g>
  <g
     id="g115"
     transform="translate(-255.5,-50.431465)">
    <path
       style="opacity:1"
       fill="#f3f3f3"
       d="m 336.5,144.5 c 2.249,0.58 3.915,1.913 5,4 0,1.333 0,2.667 0,4 -6.976,0.732 -13.976,1.065 -21,1 -1.149,-0.291 -1.816,-1.124 -2,-2.5 0.333,-0.833 0.667,-1.667 1,-2.5 5.124,-1.507 10.124,-2.174 15,-2 0.667,-0.667 1.333,-1.333 2,-2 z"
       id="path115" />
  </g>
  <g
     id="g122"
     transform="translate(-255.5,-50.431465)">
    <path
       style="opacity:1"
       fill="#e9c08d"
       d="m 338.5,138.5 c 0.011,1.517 0.677,2.684 2,3.5 2.667,0.333 5.333,0.667 8,1 2.025,1.194 2.359,2.694 1,4.5 6.149,0.649 6.649,2.649 1.5,6 -0.494,1.634 -0.66,3.301 -0.5,5 -1,0 -2,0 -3,0 -1.817,-3.464 -3.817,-6.798 -6,-10 -1.085,-2.087 -2.751,-3.42 -5,-4 0.095,-2.286 0.762,-4.286 2,-6 z"
       id="path122" />
  </g>
  <g
     id="g139"
     transform="translate(-255.5,-50.431465)">
    <path
       style="opacity:1"
       fill="#f1f0f1"
       d="m 340.5,167.5 c -5.344,0.166 -10.677,-0.001 -16,-0.5 -5.291,-0.584 -7.291,-3.25 -6,-8 2.471,-0.706 4.805,-0.373 7,1 5,0.667 10,0.667 15,0 2.606,-1.65 2.606,-3.15 0,-4.5 0.206,-2.049 1.039,-2.383 2.5,-1 4.14,5.698 3.306,10.031 -2.5,13 z"
       id="path139" />
  </g>
  <g
     id="g169"
     transform="translate(-255.5,-50.431465)">
    <path
       style="opacity:1"
       fill="#1c1b1a"
       d="m 335.5,127.5 c -1.374,0.292 -2.707,0.625 -4,1 -2.785,-0.584 -4.452,0.416 -5,3 1.171,0.845 2.505,1.511 4,2 -1.794,2.297 -3.794,4.463 -6,6.5 3.148,0.738 5.815,2.238 8,4.5 0.667,0.667 1.333,1.333 2,2 -4.876,-0.174 -9.876,0.493 -15,2 -0.333,0.833 -0.667,1.667 -1,2.5 0.184,1.376 0.851,2.209 2,2.5 6.567,0.701 13.233,1.368 20,2 2.606,1.35 2.606,2.85 0,4.5 -5,0.667 -10,0.667 -15,0 -2.195,-1.373 -4.529,-1.706 -7,-1 -1.291,4.75 0.709,7.416 6,8 5.323,0.499 10.656,0.666 16,0.5 0.992,-0.172 1.658,0.162 2,1 0.787,1.489 0.787,3.323 0,5.5 -8.822,2.985 -16.822,1.485 -24,-4.5 -1.884,1.193 -2.384,2.859 -1.5,5 5.856,6.12 13.023,8.786 21.5,8 1.924,0.211 2.257,0.877 1,2 -2.357,-0.163 -4.69,0.003 -7,0.5 -3,2.333 -6,4.667 -9,7 -2.333,0.667 -4.667,0.667 -7,0 -4.212,-4.94 -9.546,-7.44 -16,-7.5 -1.511,-1.002 -3.178,-1.669 -5,-2 -1.871,-0.359 -3.371,-1.359 -4.5,-3 -0.333,-2.667 -0.667,-5.333 -1,-8 -1.896,2.03 -4.063,3.697 -6.5,5 -0.667,1.667 -1.333,3.333 -2,5 -6.293,2.297 -12.626,2.464 -19,0.5 -1.149,-2.997 -2.482,-5.831 -4,-8.5 -0.617,-0.111 -1.117,-0.444 -1.5,-1 -0.824,-3.285 -1.324,-6.618 -1.5,-10 0.056,-2.14 0.723,-3.806 2,-5 0.428,-3.775 -0.239,-7.275 -2,-10.5 0.259,-1.261 0.926,-2.261 2,-3 9.983,-1.627 19.983,-1.96 30,-1 5.479,-5.898 11.812,-10.565 19,-14 -25.743,-6.285 -34.909,-22.451 -27.5,-48.5 6.199,-21.0027 20.366,-31.0027 42.5,-30 31.345,-0.4898 46.179,14.8435 44.5,46 -2.939,17.439 -13.105,27.772 -30.5,31 z"
       id="path169" />
  </g>
  <g
     id="g170"
     transform="translate(-255.5,-50.431465)">
    <path
       style="opacity:1"
       fill="#c5c4c8"
       d="m 258.5,173.5 c 0,-1 0,-2 0,-3 2.424,-0.308 4.757,0.026 7,1 -0.209,0.586 -0.543,1.086 -1,1.5 -1.973,0.495 -3.973,0.662 -6,0.5 z"
       id="path170" />
  </g>
  <g
     id="g171"
     transform="translate(-255.5,-50.431465)">
    <path
       style="opacity:1"
       fill="#e4e4e7"
       d="m 257.5,166.5 c 10.495,0.458 10.495,1.458 0,3 0,-1 0,-2 0,-3 z"
       id="path171" />
  </g>
  <g
     id="g172"
     transform="translate(-255.5,-50.431465)">
    <path
       style="opacity:1"
       fill="#c7c5c5"
       d="m 286.5,162.5 c 3.646,0.962 4.813,3.295 3.5,7 -0.414,0.457 -0.914,0.791 -1.5,1 -0.349,-2.452 -1.016,-5.119 -2,-8 z"
       id="path172" />
  </g>
  <g
     id="g173"
     transform="translate(-255.5,-50.431465)">
    <path
       style="opacity:1"
       fill="#d6d7d4"
       d="m 284.5,162.5 c 1.414,1.544 1.747,3.211 1,5 -0.952,-1.545 -1.285,-3.212 -1,-5 z"
       id="path173" />
  </g>
  <g
     id="g174"
     transform="translate(-255.5,-50.431465)">
    <path
       style="opacity:1"
       fill="#e4e3e3"
       d="m 297.5,154.5 c 0.543,0.06 0.876,0.393 1,1 -0.813,1.314 -1.813,2.481 -3,3.5 0.333,0.333 0.667,0.667 1,1 5.068,0.319 10.068,-0.181 15,-1.5 0.239,1.967 -0.094,3.801 -1,5.5 -5.648,3.772 -11.482,4.272 -17.5,1.5 -2.823,-5.622 -1.323,-9.289 4.5,-11 z"
       id="path174" />
  </g>
  <g
     id="g175"
     transform="translate(-255.5,-50.431465)">
    <path
       style="opacity:1"
       fill="#d6403f"
       d="m 259.5,150.5 c 8.333,1.333 16.667,1.333 25,0 -1.166,9.653 -2.332,19.32 -3.5,29 -5.331,1.903 -10.831,2.403 -16.5,1.5 -1.729,-1.789 -2.396,-3.956 -2,-6.5 1.89,0.203 3.39,-0.463 4.5,-2 1.138,-5.845 0.305,-11.345 -2.5,-16.5 -1.634,-0.494 -3.301,-0.66 -5,-0.5 0,-1.667 0,-3.333 0,-5 z"
       id="path175" />
  </g>
  <g
     id="g176"
     transform="translate(-255.5,-50.431465)">
    <path
       style="opacity:1"
       fill="#d8d7da"
       d="m 257.5,157.5 c 2.424,-0.308 4.757,0.026 7,1 -1.412,1.306 -3.079,2.14 -5,2.5 1.973,0.495 3.973,0.662 6,0.5 0,1 0,2 0,3 -2.747,0.313 -5.414,-0.02 -8,-1 -0.43,-1.88 -0.43,-3.88 0,-6 z"
       id="path176" />
  </g>
  <g
     id="g177"
     transform="translate(-255.5,-50.431465)">
    <path
       style="opacity:1"
       fill="#eeedef"
       d="m 285.5,157.5 c 1.333,0 2.667,0 4,0 0.262,1.478 -0.071,2.811 -1,4 -2.05,-0.577 -3.05,-1.91 -3,-4 z"
       id="path177" />
  </g>
  <g
     id="g178"
     transform="translate(-255.5,-50.431465)">
    <path
       style="opacity:1"
       fill="#e9e9ea"
       d="m 313.5,140.5 c 2.657,0.43 4.657,1.763 6,4 -1,2 -2,4 -3,6 0.513,4.053 2.847,6.053 7,6 -1.923,0.808 -3.923,1.308 -6,1.5 -1.825,1.466 -2.325,3.299 -1.5,5.5 2.287,2.812 5.121,4.812 8.5,6 -0.333,0.333 -0.667,0.667 -1,1 -3.577,-2.975 -6.744,-2.642 -9.5,1 -0.85,-1.51 -1.683,-3.01 -2.5,-4.5 0.809,-1.784 1.476,-3.617 2,-5.5 0.047,-1.538 -0.62,-2.538 -2,-3 0,-0.333 0,-0.667 0,-1 -0.111,-0.617 -0.444,-1.117 -1,-1.5 3.565,-3.216 3.898,-6.716 1,-10.5 -0.098,-2.053 0.569,-3.72 2,-5 z"
       id="path178" />
  </g>
  <g
     id="g179"
     transform="translate(-255.5,-50.431465)">
    <path
       style="opacity:1"
       fill="#050605"
       d="m 297.5,154.5 c 0,-0.667 0.333,-1 1,-1 1.333,0 2.667,0 4,0 1.765,0.961 3.765,1.295 6,1 0,1 0,2 0,3 1,0 2,0 3,0 0,0.333 0,0.667 0,1 -4.932,1.319 -9.932,1.819 -15,1.5 -0.333,-0.333 -0.667,-0.667 -1,-1 1.187,-1.019 2.187,-2.186 3,-3.5 -0.124,-0.607 -0.457,-0.94 -1,-1 z"
       id="path179" />
  </g>
  <g
     id="g180"
     transform="translate(-255.5,-50.431465)">
    <path
       style="opacity:1"
       fill="#e48274"
       d="m 290.5,141.5 c 0.207,2.104 0.374,4.437 0.5,7 3.378,2.904 3.211,5.57 -0.5,8 -1.571,-0.809 -3.238,-1.143 -5,-1 1.27,-4.812 2.937,-9.478 5,-14 z"
       id="path180" />
  </g>
  <g
     id="g181"
     transform="translate(-255.5,-50.431465)">
    <path
       style="opacity:1"
       fill="#eff0ef"
       d="m 298.5,142.5 c -0.203,1.89 0.463,3.39 2,4.5 3.652,0.499 7.318,0.665 11,0.5 0,2 0,4 0,6 -3,0 -6,0 -9,0 -1.333,0 -2.667,0 -4,0 -1.937,-1.431 -3.77,-3.098 -5.5,-5 -0.384,-1.697 -0.218,-3.363 0.5,-5 1.542,-0.801 3.208,-1.134 5,-1 z"
       id="path181" />
  </g>
  <g
     id="g182"
     transform="translate(-255.5,-50.431465)">
    <path
       style="opacity:1"
       fill="#9e9da1"
       d="m 284.5,145.5 c 1.548,0.321 2.215,1.321 2,3 -9.826,2.986 -19.492,2.653 -29,-1 0.167,-0.333 0.333,-0.667 0.5,-1 4.498,1.504 9.165,2.171 14,2 3.167,-0.167 6.333,-0.333 9.5,-0.5 1.237,-0.232 2.237,-0.732 3,-1.5 0,-0.333 0,-0.667 0,-1 z"
       id="path182" />
  </g>
  <g
     id="g183"
     transform="translate(-255.5,-50.431465)">
    <path
       style="opacity:1"
       fill="#e1e0e3"
       d="m 284.5,145.5 c 0,0.333 0,0.667 0,1 -8.007,0.166 -16.007,0 -24,-0.5 7.931,-1.804 15.931,-1.971 24,-0.5 z"
       id="path183" />
  </g>
  <g
     id="g184"
     transform="translate(-255.5,-50.431465)">
    <path
       style="opacity:1"
       fill="#50524f"
       d="m 313.5,140.5 c -1.431,1.28 -2.098,2.947 -2,5 -0.722,-0.418 -1.222,-1.084 -1.5,-2 -0.333,0.333 -0.667,0.667 -1,1 -0.483,-0.948 -0.649,-1.948 -0.5,-3 0.838,-0.342 1.172,-1.008 1,-2 1.695,-6.584 3.029,-6.251 4,1 z"
       id="path184" />
  </g>
  <g
     id="g185"
     transform="translate(-255.5,-50.431465)">
    <path
       style="opacity:1"
       fill="#e4e4e3"
       d="m 325.5,133.5 c 0.876,-0.131 1.543,0.202 2,1 -1.816,1.315 -3.483,2.815 -5,4.5 -2.333,0.667 -4.667,0.667 -7,0 -0.837,-1.011 -1.17,-2.178 -1,-3.5 3.35,0.165 6.683,-0.002 10,-0.5 0.556,-0.383 0.889,-0.883 1,-1.5 z"
       id="path185" />
  </g>
  <g
     id="g186"
     transform="translate(-255.5,-50.431465)">
    <path
       style="opacity:1"
       fill="#d79c8b"
       d="m 298.5,142.5 c -1.792,-0.134 -3.458,0.199 -5,1 1.274,-4.777 4.274,-7.61 9,-8.5 -0.816,1.923 -1.483,3.923 -2,6 -0.336,1.03 -1.003,1.53 -2,1.5 z"
       id="path186" />
  </g>
  <g
     id="g187"
     transform="translate(-255.5,-50.431465)">
    <path
       style="opacity:1"
       fill="#dc9c82"
       d="m 309.5,139.5 c 0.172,0.992 -0.162,1.658 -1,2 -1.667,0 -3.333,0 -5,0 -0.608,-4.437 0.725,-8.103 4,-11 1.432,2.827 2.099,5.827 2,9 z"
       id="path187" />
  </g>
  <g
     id="g188"
     transform="translate(-255.5,-50.431465)">
    <path
       style="opacity:1"
       fill="#d4d3d1"
       d="m 310.5,129.5 c 1.086,0.12 1.753,0.787 2,2 -0.333,0.667 -0.667,1.333 -1,2 -0.929,-1.189 -1.262,-2.522 -1,-4 z"
       id="path188" />
  </g>
  <g
     id="g189"
     transform="translate(-255.5,-50.431465)">
    <path
       style="opacity:1"
       fill="#d0d0d0"
       d="m 314.5,129.5 c 3.333,0 6.667,0 10,0 0.17,1.322 -0.163,2.489 -1,3.5 -2.982,0.498 -5.982,0.665 -9,0.5 0,-1.333 0,-2.667 0,-4 z"
       id="path189" />
  </g>
  <g
     id="g190"
     transform="translate(-255.5,-50.431465)">
    <path
       style="opacity:1"
       fill="#d3d3d2"
       d="m 353.5,62.5 c 9.715,10.8603 12.882,23.5269 9.5,38 -3.656,13.652 -12.489,21.819 -26.5,24.5 -11.069,3.097 -22.069,3.264 -33,0.5 14.11,1.241 27.443,-1.259 40,-7.5 13.01,-12.033 17.844,-26.8668 14.5,-44.5 -1.027,-3.9259 -2.527,-7.5926 -4.5,-11 z"
       id="path190" />
  </g>
  <g
     id="g191"
     transform="translate(-255.5,-50.431465)">
    <path
       style="opacity:1"
       fill="#f8f9f9"
       d="m 353.5,62.5 c 1.973,3.4074 3.473,7.0741 4.5,11 3.344,17.6332 -1.49,32.467 -14.5,44.5 -12.557,6.241 -25.89,8.741 -40,7.5 -10.765,-1.454 -18.265,-7.121 -22.5,-17 -5.338,-43.3299 13.496,-61.4966 56.5,-54.5 6.08,1.5386 11.413,4.3719 16,8.5 z"
       id="path191" />
  </g>
  <g
     id="g192"
     transform="translate(-255.5,-50.431465)">
    <path
       style="opacity:1"
       fill="#302e2d"
       d="m 328.5,105.5 c 0.333,0.667 0.667,1.333 1,2 -1.333,0 -2.667,0 -4,0 -0.237,1.291 0.096,2.291 1,3 -0.709,0.904 -1.709,1.237 -3,1 -0.667,0.667 -1.333,1.333 -2,2 -3.439,-0.247 -6.772,0.086 -10,1 -0.057,-1.109 -0.39,-2.109 -1,-3 0.904,-0.709 1.237,-1.709 1,-3 -1.333,0 -2.667,0 -4,0 0,1 0,2 0,3 -0.667,-0.333 -1.333,-0.667 -2,-1 0,-1 0,-2 0,-3 0.667,0 1,-0.333 1,-1 7.455,1.575 14.788,1.242 22,-1 z"
       id="path192" />
  </g>
  <g
     id="g193"
     transform="translate(-255.5,-50.431465)">
    <path
       style="opacity:1"
       fill="#171413"
       d="m 328.5,105.5 c 2.222,0.059 3.222,1.225 3,3.5 -1.232,8.735 -6.232,12.902 -15,12.5 -9.892,-0.228 -15.226,-5.228 -16,-15 2,0 4,0 6,0 0,0.667 -0.333,1 -1,1 -2.667,1 -2.667,2 0,3 0.667,0.333 1.333,0.667 2,1 1,0 2,0 3,0 0.61,0.891 0.943,1.891 1,3 -1.3,1.101 -1.8,2.434 -1.5,4 6.649,3.407 12.149,2.074 16.5,-4 -1.545,-0.952 -3.212,-1.285 -5,-1 0.667,-0.667 1.333,-1.333 2,-2 1.291,0.237 2.291,-0.096 3,-1 1.333,-0.667 2.333,-1.667 3,-3 -0.333,-0.667 -0.667,-1.333 -1,-2 z"
       id="path193" />
  </g>
  <g
     id="g194"
     transform="translate(-255.5,-50.431465)">
    <path
       style="opacity:1"
       fill="#cd5e56"
       d="m 321.5,113.5 c 1.788,-0.285 3.455,0.048 5,1 -4.351,6.074 -9.851,7.407 -16.5,4 -0.3,-1.566 0.2,-2.899 1.5,-4 3.228,-0.914 6.561,-1.247 10,-1 z"
       id="path194" />
  </g>
  <g
     id="g195"
     transform="translate(-255.5,-50.431465)">
    <path
       style="opacity:1"
       fill="#eaecf1"
       d="m 329.5,107.5 c -0.667,1.333 -1.667,2.333 -3,3 -0.904,-0.709 -1.237,-1.709 -1,-3 1.333,0 2.667,0 4,0 z"
       id="path195" />
  </g>
  <g
     id="g196"
     transform="translate(-255.5,-50.431465)">
    <path
       style="opacity:1"
       fill="#ebecef"
       d="m 323.5,111.5 c -1.333,0 -2.667,0 -4,0 0,-1 0,-2 0,-3 1.333,0 2.667,0 4,0 0,1 0,2 0,3 z"
       id="path196" />
  </g>
  <g
     id="g197"
     transform="translate(-255.5,-50.431465)">
    <path
       style="opacity:1"
       fill="#fefeff"
       d="m 313.5,109.5 c 1.478,-0.262 2.811,0.071 4,1 -0.667,0.333 -1.333,0.667 -2,1 -1.213,-0.247 -1.88,-0.914 -2,-2 z"
       id="path197" />
  </g>
  <g
     id="g198"
     transform="translate(-255.5,-50.431465)">
    <path
       style="opacity:1"
       fill="#e0e0e9"
       d="m 310.5,111.5 c -1,0 -2,0 -3,0 0,-1 0,-2 0,-3 1.333,0 2.667,0 4,0 0.237,1.291 -0.096,2.291 -1,3 z"
       id="path198" />
  </g>
  <g
     id="g199"
     transform="translate(-255.5,-50.431465)">
    <path
       style="opacity:1"
       fill="#c5c7d2"
       d="m 305.5,107.5 c 0,1 0,2 0,3 -2.667,-1 -2.667,-2 0,-3 z"
       id="path199" />
  </g>
  <g
     id="g200"
     transform="translate(-255.5,-50.431465)">
    <path
       style="opacity:1"
       fill="#0c0e0e"
       d="m 311.5,94.5 c 4.343,-0.1526 6.51,1.8474 6.5,6 -1.68,1.103 -3.18,0.77 -4.5,-1 -1,0.667 -2,1.333 -3,2 -1.132,-2.4903 -0.799,-4.8237 1,-7 z"
       id="path200" />
  </g>
  <g
     id="g201"
     transform="translate(-255.5,-50.431465)">
    <path
       style="opacity:1"
       fill="#cfcfcf"
       d="m 299.5,77.5 c -9.069,0.7547 -12.903,5.7547 -11.5,15 0.738,3.1485 2.238,5.8152 4.5,8 -3.543,-0.372 -5.71,-2.372 -6.5,-6 -2.252,-7.865 -0.085,-14.0316 6.5,-18.5 2,-0.6667 4,-0.6667 6,0 0.556,0.3826 0.889,0.8826 1,1.5 z"
       id="path201" />
  </g>
  <g
     id="g202"
     transform="translate(-255.5,-50.431465)">
    <path
       style="opacity:1"
       fill="#d1d0d0"
       d="m 338.5,76.5 c -10.194,1.0662 -14.028,6.7329 -11.5,17 0.366,1.9517 1.199,3.6184 2.5,5 -1.38,1.2065 -2.547,0.8731 -3.5,-1 -4.379,-8.5454 -2.879,-15.712 4.5,-21.5 2.867,-0.8007 5.534,-0.6341 8,0.5 z"
       id="path202" />
  </g>
  <g
     id="g203"
     transform="translate(-255.5,-50.431465)">
    <path
       style="opacity:1"
       fill="#0a0a0a"
       d="m 299.5,77.5 c 3.917,0.7483 6.417,3.0817 7.5,7 2.037,12.1178 -2.796,17.451 -14.5,16 -2.262,-2.1848 -3.762,-4.8515 -4.5,-8 -1.403,-9.2453 2.431,-14.2453 11.5,-15 z"
       id="path203" />
  </g>
  <g
     id="g204"
     transform="translate(-255.5,-50.431465)">
    <path
       style="opacity:1"
       fill="#070808"
       d="m 338.5,76.5 c 8.232,3.4763 10.732,9.4763 7.5,18 -2.425,6.295 -6.925,8.462 -13.5,6.5 -1.442,-0.377 -2.442,-1.2101 -3,-2.5 -1.301,-1.3816 -2.134,-3.0483 -2.5,-5 -2.528,-10.2671 1.306,-15.9338 11.5,-17 z"
       id="path204" />
  </g>
  <g
     id="g206"
     transform="translate(-255.5,-50.431465)">
    <path
       style="opacity:1"
       fill="#e4e4e6"
       d="m 283.5,171.5 c 1.837,0.139 2.17,0.806 1,2 -0.798,-0.457 -1.131,-1.124 -1,-2 z"
       id="path206" />
  </g>
  <g
     id="g207"
     transform="translate(-255.5,-50.431465)">
    <path
       style="opacity:1"
       fill="#e6e4e6"
       d="m 293.5,168.5 c 1.699,-0.16 3.366,0.006 5,0.5 -1.729,1.789 -2.396,3.956 -2,6.5 5.601,0.2 10.267,-1.8 14,-6 2.331,3.266 1.664,6.1 -2,8.5 -4.982,3.643 -10.148,4.143 -15.5,1.5 -2.035,-3.781 -1.868,-7.448 0.5,-11 z"
       id="path207" />
  </g>
  <g
     id="g212"
     transform="translate(-255.5,-50.431465)">
    <path
       style="opacity:1"
       fill="#efeef0"
       d="m 312.5,176.5 c 1.141,3.14 1.308,6.473 0.5,10 -2.642,-1.738 -5.475,-3.071 -8.5,-4 3.442,-1.045 6.108,-3.045 8,-6 z"
       id="path212" />
  </g>
  <g
     id="g214"
     transform="translate(-255.5,-50.431465)">
    <path
       style="opacity:1"
       fill="#a5a4a7"
       d="m 315.5,176.5 c 6.101,2.649 6.101,3.982 0,4 0,-1.333 0,-2.667 0,-4 z"
       id="path214" />
  </g>
  <g
     id="g216"
     transform="translate(-255.5,-50.431465)">
    <path
       style="opacity:1"
       fill="#ebeaeb"
       d="m 338.5,182.5 c -8.477,0.786 -15.644,-1.88 -21.5,-8 -0.884,-2.141 -0.384,-3.807 1.5,-5 7.178,5.985 15.178,7.485 24,4.5 0.787,-2.177 0.787,-4.011 0,-5.5 1.586,-0.913 3.086,-0.913 4.5,0 2.42,7.763 -0.413,12.43 -8.5,14 z"
       id="path216" />
  </g>
  <g
     id="g217"
     transform="translate(-255.5,-50.431465)">
    <path
       style="opacity:1"
       fill="#bdb8bf"
       d="m 326.5,172.5 c 2.961,-0.696 5.961,-0.196 9,1.5 -3.094,0.251 -6.094,-0.249 -9,-1.5 z"
       id="path217" />
  </g>
  <g
     id="g219"
     transform="translate(-255.5,-50.431465)">
    <path
       style="opacity:1"
       fill="#d0cfd1"
       d="m 315.5,181.5 c 2.687,-0.164 5.354,0.003 8,0.5 1.333,1 1.333,2 0,3 -2.646,0.497 -5.313,0.664 -8,0.5 0,-1.333 0,-2.667 0,-4 z"
       id="path219" />
  </g>
  <g
     id="g271"
     transform="translate(-255.5,-50.431465)">
    <path
       style="opacity:1"
       fill="#242323"
       d="m 331.5,128.5 c 1.293,-0.375 2.626,-0.708 4,-1 1.594,1.483 3.26,2.983 5,4.5 4.798,1.316 9.131,3.483 13,6.5 5.075,5.813 9.408,12.146 13,19 -0.333,0.667 -0.667,1.333 -1,2 4.411,14.752 6.411,29.752 6,45 -3.035,1.801 -6.369,2.468 -10,2 0.163,-2.357 -0.003,-4.69 -0.5,-7 -2.214,2.808 -3.714,2.475 -4.5,-1 0.719,-2.228 2.052,-4.061 4,-5.5 -2.872,-7.187 -4.538,-14.687 -5,-22.5 -1.881,-2.234 -4.215,-3.567 -7,-4 0.912,3.631 1.079,7.297 0.5,11 -1.419,2.796 -3.585,4.796 -6.5,6 4.922,5.552 5.256,11.385 1,17.5 1.668,4.26 2.501,8.76 2.5,13.5 1.797,1.427 2.964,3.26 3.5,5.5 -1.101,5.794 -1.268,11.627 -0.5,17.5 0.697,2.084 1.864,3.751 3.5,5 3.668,2.178 7.001,4.844 10,8 -0.864,1.697 -2.197,2.863 -4,3.5 -2.853,1.43 -5.853,2.263 -9,2.5 -3.6,-2.42 -7.1,-5.086 -10.5,-8 -0.678,-2.098 -0.511,-4.098 0.5,-6 1.071,-7.188 -0.763,-13.521 -5.5,-19 -0.339,-2.334 -0.172,-4.668 0.5,-7 -0.077,-1.799 -0.577,-3.466 -1.5,-5 -3.046,-1.465 -5.879,-3.299 -8.5,-5.5 -6.697,-2.01 -11.864,-0.177 -15.5,5.5 -0.716,2.918 -0.216,5.585 1.5,8 -3.077,7.44 -2.41,14.44 2,21 0.879,1.728 1.546,3.561 2,5.5 -0.085,1.107 -0.419,2.107 -1,3 -6.709,3.094 -13.709,4.761 -21,5 -2.166,-1.002 -3.833,-2.502 -5,-4.5 0.108,-0.942 0.441,-1.775 1,-2.5 2.569,-0.898 4.902,-2.065 7,-3.5 6.184,-0.92 7.684,-4.253 4.5,-10 -0.837,-2.344 -2.171,-4.344 -4,-6 -0.339,-2.536 -0.839,-5.036 -1.5,-7.5 1.523,-2.505 2.523,-5.171 3,-8 -1.017,-3.036 -1.017,-6.036 0,-9 -2.311,-3.122 -3.644,-6.622 -4,-10.5 -0.149,-3.535 1.184,-6.368 4,-8.5 -0.916,-0.278 -1.582,-0.778 -2,-1.5 1.822,0.331 3.489,0.998 5,2 -4.691,2.631 -6.191,6.631 -4.5,12 3.416,2.91 6.25,6.243 8.5,10 3.789,1.637 7.122,0.804 10,-2.5 3.317,-0.498 6.65,-0.665 10,-0.5 2.402,3.578 5.735,4.745 10,3.5 1.504,-1.491 2.337,-3.324 2.5,-5.5 6.745,-1.817 9.078,-6.15 7,-13 -1.25,-1.693 -2.75,-3.027 -4.5,-4 1.257,-1.123 0.924,-1.789 -1,-2 8.087,-1.57 10.92,-6.237 8.5,-14 -1.414,-0.913 -2.914,-0.913 -4.5,0 -0.342,-0.838 -1.008,-1.172 -2,-1 5.806,-2.969 6.64,-7.302 2.5,-13 -1.461,-1.383 -2.294,-1.049 -2.5,1 -6.767,-0.632 -13.433,-1.299 -20,-2 7.024,0.065 14.024,-0.268 21,-1 0,-1.333 0,-2.667 0,-4 2.183,3.202 4.183,6.536 6,10 -0.143,1.762 0.191,3.429 1,5 4.048,2.175 7.715,1.509 11,-2 2.113,-1.048 3.78,-2.548 5,-4.5 -1.795,-2.426 -3.462,-4.926 -5,-7.5 -3.866,-8.195 -10.2,-13.528 -19,-16 -0.822,1.639 -1.489,3.305 -2,5 -1.238,1.714 -1.905,3.714 -2,6 -0.667,0.667 -1.333,1.333 -2,2 -0.667,-0.667 -1.333,-1.333 -2,-2 0.997,0.03 1.664,-0.47 2,-1.5 1.101,-3.136 2.101,-6.303 3,-9.5 0.066,-1.766 -0.768,-2.766 -2.5,-3 -1.643,0.815 -3.143,1.815 -4.5,3 -1.495,-0.489 -2.829,-1.155 -4,-2 1.373,0.157 2.707,-0.01 4,-0.5 1.499,-0.838 1.832,-1.671 1,-2.5 z"
       id="path271" />
  </g>
  <g
     id="g272"
     transform="translate(-255.5,-50.431465)">
    <path
       style="opacity:1"
       fill="#ebeaeb"
       d="m 339.5,202.5 c 1.322,-0.17 2.489,0.163 3.5,1 0.333,3.667 0.667,7.333 1,11 1.903,1.941 2.736,4.274 2.5,7 -2.932,-0.216 -5.598,0.451 -8,2 -0.942,-0.108 -1.775,-0.441 -2.5,-1 -0.292,-1.826 -0.125,-3.659 0.5,-5.5 -0.522,-2.21 -1.188,-4.377 -2,-6.5 2.482,-2.15 4.148,-4.817 5,-8 z"
       id="path272" />
  </g>
  <g
     id="g273"
     transform="translate(-255.5,-50.431465)">
    <path
       style="opacity:1"
       fill="#eaeaea"
       d="m 298.5,203.5 c 0.996,-0.086 1.829,0.248 2.5,1 0.713,3.546 2.88,5.546 6.5,6 -0.522,1.107 -0.855,2.274 -1,3.5 1.36,2.27 2.027,4.77 2,7.5 -3.984,0.219 -7.818,0.219 -11.5,0 0.601,-2.757 1.435,-5.591 2.5,-8.5 -0.756,-3.125 -1.089,-6.291 -1,-9.5 z"
       id="path273" />
  </g>
  <g
     id="g274"
     transform="translate(-255.5,-50.431465)">
    <path
       style="opacity:1"
       fill="#f8f8f8"
       d="m 339.5,242.5 c -8.995,-0.714 -17.995,-1.381 -27,-2 -4.41,-6.56 -5.077,-13.56 -2,-21 -1.716,-2.415 -2.216,-5.082 -1.5,-8 3.636,-5.677 8.803,-7.51 15.5,-5.5 2.621,2.201 5.454,4.035 8.5,5.5 0.923,1.534 1.423,3.201 1.5,5 -0.672,2.332 -0.839,4.666 -0.5,7 4.737,5.479 6.571,11.812 5.5,19 z"
       id="path274" />
  </g>
  <g
     id="g275"
     transform="translate(-255.5,-50.431465)">
    <path
       style="opacity:1"
       fill="#a9a8a9"
       d="m 324.5,203.5 c -3.35,-0.165 -6.683,0.002 -10,0.5 -2.878,3.304 -6.211,4.137 -10,2.5 3.428,-0.047 6.428,-1.213 9,-3.5 3.858,-0.81 7.524,-0.643 11,0.5 z"
       id="path275" />
  </g>
  <g
     id="g276"
     transform="translate(-255.5,-50.431465)">
    <path
       style="opacity:1"
       fill="#939294"
       d="m 369.5,198.5 c 1.086,0.12 1.753,0.787 2,2 -0.333,0.667 -0.667,1.333 -1,2 -0.929,-1.189 -1.262,-2.522 -1,-4 z"
       id="path276" />
  </g>
  <g
     id="g277"
     transform="translate(-255.5,-50.431465)">
    <path
       style="opacity:1"
       fill="#eeeded"
       d="m 300.5,184.5 c 6.454,0.06 11.788,2.56 16,7.5 2.333,0.667 4.667,0.667 7,0 3,-2.333 6,-4.667 9,-7 2.31,-0.497 4.643,-0.663 7,-0.5 1.75,0.973 3.25,2.307 4.5,4 2.078,6.85 -0.255,11.183 -7,13 -0.163,2.176 -0.996,4.009 -2.5,5.5 -4.265,1.245 -7.598,0.078 -10,-3.5 -3.476,-1.143 -7.142,-1.31 -11,-0.5 -2.572,2.287 -5.572,3.453 -9,3.5 -2.25,-3.757 -5.084,-7.09 -8.5,-10 -1.691,-5.369 -0.191,-9.369 4.5,-12 z"
       id="path277" />
  </g>
  <g
     id="g278"
     transform="translate(-255.5,-50.431465)">
    <path
       style="opacity:1"
       fill="#cac9cd"
       d="m 359.5,195.5 c 1.367,1.593 1.034,2.926 -1,4 -0.333,-0.333 -0.667,-0.667 -1,-1 0.693,-1.018 1.359,-2.018 2,-3 z"
       id="path278" />
  </g>
  <g
     id="g279"
     transform="translate(-255.5,-50.431465)">
    <path
       style="opacity:1"
       fill="#dadada"
       d="m 369.5,198.5 c -0.739,-0.131 -1.406,0.036 -2,0.5 1.26,1.814 1.26,3.647 0,5.5 -1.448,-6.578 -2.615,-6.578 -3.5,0 -0.719,-3.645 -1.219,-7.312 -1.5,-11 2.091,0.182 4.091,-0.152 6,-1 2.046,1.781 2.38,3.781 1,6 z"
       id="path279" />
  </g>
  <g
     id="g280"
     transform="translate(-255.5,-50.431465)">
    <path
       style="opacity:1"
       fill="#100f0e"
       d="m 331.5,189.5 c 7.594,-0.238 8.927,2.596 4,8.5 -3.862,2.497 -6.862,1.831 -9,-2 1.485,-2.317 3.152,-4.484 5,-6.5 z"
       id="path280" />
  </g>
  <g
     id="g281"
     transform="translate(-255.5,-50.431465)">
    <path
       style="opacity:1"
       fill="#121010"
       d="m 301.5,189.5 c 4.383,-0.152 7.883,1.515 10.5,5 0.833,3.318 -0.501,4.985 -4,5 -5.989,-0.996 -8.156,-4.33 -6.5,-10 z"
       id="path281" />
  </g>
  <g
     id="g282"
     transform="translate(-255.5,-50.431465)">
    <path
       style="opacity:1"
       fill="#e6e5e7"
       d="m 322.5,186.5 c 1.965,0.448 2.298,1.448 1,3 -2.472,1.266 -4.806,1.266 -7,0 1.656,-1.56 3.656,-2.56 6,-3 z"
       id="path282" />
  </g>
  <g
     id="g283"
     transform="translate(-255.5,-50.431465)">
    <path
       style="opacity:1"
       fill="#797879"
       d="m 322.5,186.5 c -2.344,0.44 -4.344,1.44 -6,3 -0.904,-0.709 -1.237,-1.709 -1,-3 2.333,0 4.667,0 7,0 z"
       id="path283" />
  </g>
  <g
     id="g284"
     transform="translate(-255.5,-50.431465)">
    <path
       style="opacity:1"
       fill="#f2f1f6"
       d="m 326.5,183.5 c 3.633,-0.057 3.8,0.943 0.5,3 -0.483,-0.948 -0.649,-1.948 -0.5,-3 z"
       id="path284" />
  </g>
  <g
     id="g285"
     transform="translate(-255.5,-50.431465)">
    <path
       style="opacity:1"
       fill="#e4e4e5"
       d="m 362.5,166.5 c 1.175,-0.219 2.175,0.114 3,1 2.723,7.445 3.556,15.112 2.5,23 -1.011,0.837 -2.178,1.17 -3.5,1 1.84,-7.6 1.173,-14.933 -2,-22 0,-1 0,-2 0,-3 z"
       id="path285" />
  </g>
  <g
     id="g286"
     transform="translate(-255.5,-50.431465)">
    <path
       style="opacity:1"
       fill="#ebebec"
       d="m 360.5,167.5 c -0.317,4.202 0.017,8.202 1,12 -0.036,3.321 0.631,6.488 2,9.5 -0.18,2.241 -1.013,2.741 -2.5,1.5 -2.412,-6.805 -3.412,-13.805 -3,-21 0.708,-0.881 1.542,-1.547 2.5,-2 z"
       id="path286" />
  </g>
  <g
     id="g287"
     transform="translate(-255.5,-50.431465)">
    <path
       style="opacity:1"
       fill="#5f615f"
       d="m 362.5,166.5 c 0,1 0,2 0,3 -0.979,3.125 -1.313,6.458 -1,10 -0.983,-3.798 -1.317,-7.798 -1,-12 0.667,-0.333 1.333,-0.667 2,-1 z"
       id="path287" />
  </g>
  <g
     id="g288"
     transform="translate(-255.5,-50.431465)">
    <path
       style="opacity:1"
       fill="#c4c2c5"
       d="m 362.5,161.5 c 1.548,0.321 2.215,1.321 2,3 -1.373,-0.157 -2.707,0.01 -4,0.5 -1.453,2.705 -3.453,3.539 -6,2.5 2.696,-2.009 5.363,-4.009 8,-6 z"
       id="path288" />
  </g>
  <g
     id="g289"
     transform="translate(-255.5,-50.431465)">
    <path
       style="opacity:1"
       fill="#dca47e"
       d="m 359.5,149.5 c 1.538,2.574 3.205,5.074 5,7.5 -1.22,1.952 -2.887,3.452 -5,4.5 -2.28,-1.14 -4.614,-2.307 -7,-3.5 1.473,-3.631 3.806,-6.464 7,-8.5 z"
       id="path289" />
  </g>
  <g
     id="g290"
     transform="translate(-255.5,-50.431465)">
    <path
       style="opacity:1"
       fill="#e9eaea"
       d="m 301.5,223.5 c 2,0 4,0 6,0 -0.327,1.988 -0.66,3.988 -1,6 0.953,4.521 2.287,8.855 4,13 -2.706,-0.075 -5.373,-0.408 -8,-1 0.64,-6.054 -1.027,-11.388 -5,-16 1.449,-0.672 2.782,-1.339 4,-2 z"
       id="path290" />
  </g>
  <g
     id="g293"
     transform="translate(-255.5,-50.431465)">
    <path
       style="opacity:1"
       fill="#ebecec"
       d="m 340.5,224.5 c 2.424,-0.308 4.757,0.026 7,1 -1.533,5.138 -1.199,10.138 1,15 -1.987,1.827 -4.321,2.827 -7,3 1.016,-6.345 -0.317,-12.012 -4,-17 1.102,-0.676 2.102,-1.342 3,-2 z"
       id="path293" />
  </g>
  <g
     id="g305"
     transform="translate(-255.5,-50.431465)">
    <path
       style="opacity:1"
       fill="#d5d6d7"
       d="m 312.5,240.5 c 9.005,0.619 18.005,1.286 27,2 -1.011,1.902 -1.178,3.902 -0.5,6 3.4,2.914 6.9,5.58 10.5,8 -8.024,2.359 -16.358,3.359 -25,3 -8.355,-0.142 -16.688,-0.642 -25,-1.5 -2.036,-0.454 -3.87,-1.287 -5.5,-2.5 -0.873,0.235 -1.707,0.569 -2.5,1 -3.584,-1.319 -7.25,-2.319 -11,-3 -2.658,-3.03 -2.325,-5.697 1,-8 4.49,-1.611 9.157,-2.278 14,-2 -2.098,1.435 -4.431,2.602 -7,3.5 -0.559,0.725 -0.892,1.558 -1,2.5 1.167,1.998 2.834,3.498 5,4.5 7.291,-0.239 14.291,-1.906 21,-5 0.581,-0.893 0.915,-1.893 1,-3 -0.454,-1.939 -1.121,-3.772 -2,-5.5 z"
       id="path305" />
  </g>
  <g
     id="g306"
     transform="translate(-255.5,-50.431465)">
    <path
       style="opacity:1"
       fill="#eeeff1"
       d="m 300.5,243.5 c 3.716,0.819 7.382,0.819 11,0 1.114,1.223 1.281,2.556 0.5,4 -6.011,4.039 -11.845,3.872 -17.5,-0.5 2.118,-1.082 4.118,-2.249 6,-3.5 z"
       id="path306" />
  </g>
  <g
     id="g307"
     transform="translate(-255.5,-50.431465)">
    <path
       style="opacity:1"
       fill="#e8e9e9"
       d="m 346.5,243.5 c 4.036,-0.147 7.369,1.353 10,4.5 -0.457,0.414 -0.791,0.914 -1,1.5 1,0.833 2,1.667 3,2.5 -2.406,0.779 -4.073,-0.054 -5,-2.5 0,1.333 0,2.667 0,4 -1.219,-0.763 -2.219,-1.763 -3,-3 -5.134,1.857 -8.467,0.19 -10,-5 2.398,0.241 4.398,-0.426 6,-2 z"
       id="path307" />
  </g>
  <g
     id="g332"
     transform="translate(-255.5,-50.431465)">
    <path
       style="opacity:1"
       fill="#e9e9e9"
       d="m 352.5,242.5 c 5.166,0.466 10.166,1.633 15,3.5 4.057,4.599 3.057,7.932 -3,10 -6.819,1.077 -13.486,2.744 -20,5 -19.81,1.371 -39.476,0.371 -59,-3 -5.416,-0.538 -9.75,-2.871 -13,-7 1.742,-3.872 4.742,-5.705 9,-5.5 -3.325,2.303 -3.658,4.97 -1,8 3.75,0.681 7.416,1.681 11,3 0.793,-0.431 1.627,-0.765 2.5,-1 1.63,1.213 3.464,2.046 5.5,2.5 8.312,0.858 16.645,1.358 25,1.5 8.642,0.359 16.976,-0.641 25,-3 3.147,-0.237 6.147,-1.07 9,-2.5 1.803,-0.637 3.136,-1.803 4,-3.5 -2.999,-3.156 -6.332,-5.822 -10,-8 z"
       id="path332" />
  </g>
  <g
     id="g333"
     transform="translate(-255.5,-50.431465)">
    <path
       style="opacity:1"
       fill="#e7e7ea"
       d="m 348.5,253.5 c 0.997,-1.213 1.997,-1.046 3,0.5 -1.077,0.47 -2.077,0.303 -3,-0.5 z"
       id="path333" />
  </g>
  <g
     id="g334"
     transform="translate(-255.5,-50.431465)">
    <path
       style="opacity:1"
       fill="#8d8f8c"
       d="m 293.5,248.5 c 7.603,2.525 7.603,4.192 0,5 0.14,-1.624 -0.527,-2.79 -2,-3.5 0.916,-0.278 1.582,-0.778 2,-1.5 z"
       id="path334" />
  </g>
</svg>
