<?xml version="1.0" encoding="UTF-8" standalone="no"?>
<svg
   version="1.1"
   width="117.05615"
   height="213.53802"
   style="clip-rule:evenodd;fill-rule:evenodd;image-rendering:optimizeQuality;shape-rendering:geometricPrecision;text-rendering:geometricPrecision"
   id="svg1400"
   xmlns="http://www.w3.org/2000/svg"
   xmlns:svg="http://www.w3.org/2000/svg">
  <defs
     id="defs1400" />
  <g
     id="g830"
     transform="translate(-257.44769,-539.9574)">
    <path
       style="opacity:1"
       fill="#201f1f"
       d="m 360.5,739.5 c 2.951,3.328 2.284,5.828 -2,7.5 -5.114,2.37 -9.78,1.703 -14,-2 -1.229,-1.529 -2.729,-2.696 -4.5,-3.5 0.402,-5.829 0.235,-11.496 -0.5,-17 -3.242,-5.021 -4.575,-10.354 -4,-16 -0.122,-2.291 -0.955,-4.291 -2.5,-6 -2.882,-0.858 -5.382,-2.358 -7.5,-4.5 -7.788,-2.541 -13.122,-0.207 -16,7 0.326,7.468 0.492,14.968 0.5,22.5 0.847,1.693 1.68,3.36 2.5,5 0.987,1.973 1.987,3.973 3,6 -0.419,1.172 -1.085,2.172 -2,3 -5.511,2.247 -11.178,4.247 -17,6 -1.671,-0.168 -3.004,-0.835 -4,-2 -3,-0.533 -4.5,-2.2 -4.5,-5 2.995,-2.153 6.162,-3.819 9.5,-5 1.527,0.073 2.527,-0.594 3,-2 1.215,-4.798 0.048,-9.131 -3.5,-13 -0.564,-2.655 -1.064,-5.321 -1.5,-8 0.814,-2.797 1.481,-5.63 2,-8.5 -1.095,-3.191 -1.095,-6.357 0,-9.5 -0.93,-2.106 -2.096,-4.106 -3.5,-6 -1.369,-4.937 -0.203,-9.104 3.5,-12.5 -7.245,-3.644 -8.911,-9.144 -5,-16.5 -0.5,-1 -1,-2 -1.5,-3 -1.364,2.863 -3.53,4.863 -6.5,6 -0.498,3.093 -1.498,5.926 -3,8.5 -5.963,2.156 -11.796,1.99 -17.5,-0.5 0.487,-4.742 -1.18,-8.408 -5,-11 -2.486,-6.586 -1.986,-12.752 1.5,-18.5 -0.639,-2.567 -1.139,-5.067 -1.5,-7.5 3.782,-2.264 7.948,-3.431 12.5,-3.5 0.782,-2.74 1.282,-5.574 1.5,-8.5 4.455,-2.875 9.288,-4.875 14.5,-6 0.157,1.373 -0.01,2.707 -0.5,4 -3.073,1.358 -6.24,2.525 -9.5,3.5 -0.837,1.011 -1.17,2.178 -1,3.5 -1.301,-1.384 -1.301,-2.884 0,-4.5 3.527,-0.951 6.86,-2.284 10,-4 -4.475,0.493 -8.641,1.993 -12.5,4.5 -0.667,3.667 -0.667,7.333 0,11 0.333,-1.667 0.667,-3.333 1,-5 0.278,0.916 0.778,1.582 1.5,2 4.016,-0.6 7.516,0.4 10.5,3 3.144,-2.309 5.644,-5.142 7.5,-8.5 1.333,-0.667 2.667,-1.333 4,-2 5.011,-0.388 10.011,-0.222 15,0.5 0,-1 0,-2 0,-3 -31.105,-2.663 -42.605,-19.329 -34.5,-50 8.726,-24.124 25.893,-33.957 51.5,-29.5 27.997,4.691 39.831,21.191 35.5,49.5 -4.916,19.234 -17.416,29.068 -37.5,29.5 -1.905,0.826 -2.239,1.993 -1,3.5 7.029,-1.883 13.695,-1.05 20,2.5 1.243,1.154 2.243,2.488 3,4 1.718,0.346 3.385,0.846 5,1.5 1.342,4.664 2.842,9.331 4.5,14 2.039,2.374 4.372,4.374 7,6 0.921,5.432 2.255,10.765 4,16 -0.157,8.723 1.01,17.223 3.5,25.5 0.061,1.711 -0.606,3.044 -2,4 -2.851,1.289 -5.851,1.789 -9,1.5 0.308,-2.424 -0.026,-4.757 -1,-7 -1.571,0.809 -3.238,1.143 -5,1 0.262,-3.191 1.595,-5.858 4,-8 -2.629,-7.432 -4.295,-15.098 -5,-23 -1.634,-0.468 -2.8,-1.468 -3.5,-3 0.193,-4.852 -1.14,-9.185 -4,-13 0.282,2.116 0.782,4.283 1.5,6.5 -0.203,2.406 -1.203,4.406 -3,6 5.192,7.679 3.525,13.512 -5,17.5 6.318,5.42 6.651,11.253 1,17.5 1.201,0.903 2.035,2.069 2.5,3.5 0.333,3.333 0.667,6.667 1,10 0.667,0.667 1.333,1.333 2,2 0.275,6.349 0.275,12.682 0,19 1.426,6.298 5.259,10.298 11.5,12 z"
       id="path830" />
  </g>
  <g
     id="g831"
     transform="translate(-257.44769,-539.9574)">
    <path
       style="opacity:1"
       fill="#bf6152"
       d="m 283.5,652.5 c -0.302,4.591 -0.969,9.091 -2,13.5 -4.901,1.325 -9.901,1.825 -15,1.5 -0.941,-1.55 -1.607,-3.216 -2,-5 2.588,1.068 5.088,2.401 7.5,4 0.833,-0.333 1.667,-0.667 2.5,-1 0.528,-1.836 1.194,-3.503 2,-5 0,1 0,2 0,3 2.448,0.415 3.781,-0.585 4,-3 -0.247,-1.213 -0.914,-1.88 -2,-2 1.332,-1.33 2.165,-2.997 2.5,-5 0.333,0.667 0.667,1.333 1,2 0.232,-1.237 0.732,-2.237 1.5,-3 z"
       id="path831" />
  </g>
  <g
     id="g832"
     transform="translate(-257.44769,-539.9574)">
    <path
       style="opacity:1"
       fill="#eeefee"
       d="m 365.5,657.5 c 2.031,2.922 3.198,6.255 3.5,10 0.667,5 0.667,10 0,15 -0.414,0.457 -0.914,0.791 -1.5,1 -0.42,-4.281 -0.587,-8.615 -0.5,-13 -1.07,-3.376 -2.236,-6.71 -3.5,-10 0.442,-1.239 1.109,-2.239 2,-3 z"
       id="path832" />
  </g>
  <g
     id="g833"
     transform="translate(-257.44769,-539.9574)">
    <path
       style="opacity:1"
       fill="#f2d8d2"
       d="m 278.5,658.5 c 1.086,0.12 1.753,0.787 2,2 -0.219,2.415 -1.552,3.415 -4,3 0,-1 0,-2 0,-3 0.333,-1 1,-1.667 2,-2 z"
       id="path833" />
  </g>
  <g
     id="g834"
     transform="translate(-257.44769,-539.9574)">
    <path
       style="opacity:1"
       fill="#93918f"
       d="m 285.5,650.5 c -0.259,2.489 0.741,4.156 3,5 -0.238,2.145 -1.238,3.812 -3,5 -1.306,-3.48 -1.306,-6.813 0,-10 z"
       id="path834" />
  </g>
  <g
     id="g835"
     transform="translate(-257.44769,-539.9574)">
    <path
       style="opacity:1"
       fill="#111210"
       d="m 308.5,631.5 c 0.333,0.667 0.667,1.333 1,2 1.089,2.93 2.423,5.764 4,8.5 -0.083,2.333 -1.083,4.166 -3,5.5 3.593,3.317 3.926,6.984 1,11 0.956,1.575 1.623,3.242 2,5 -0.333,0 -0.667,0 -1,0 -0.311,-0.978 -0.978,-1.645 -2,-2 -3.976,3.656 -8.643,5.656 -14,6 -0.284,-1.915 0.049,-3.581 1,-5 1.24,-1.159 2.574,-2.159 4,-3 3.173,-0.67 6.173,-1.836 9,-3.5 0.906,-1.699 1.239,-3.533 1,-5.5 -4.977,0.827 -9.977,1.494 -15,2 -0.322,-2.222 0.345,-4.056 2,-5.5 -0.775,-1.23 -1.775,-1.563 -3,-1 -3.12,2.408 -4.453,5.574 -4,9.5 -1.604,-0.787 -2.271,-2.12 -2,-4 0.672,-2.842 2.006,-5.342 4,-7.5 -0.805,-1.113 -1.472,-2.279 -2,-3.5 0.333,0 0.667,0 1,0 5.197,4.73 11.197,6.063 18,4 1.26,-1.853 1.26,-3.686 0,-5.5 -3.667,-0.333 -7.333,-0.667 -11,-1 -1.64,-2.776 -0.973,-4.776 2,-6 2.31,-0.497 4.643,-0.663 7,-0.5 z"
       id="path835" />
  </g>
  <g
     id="g836"
     transform="translate(-257.44769,-539.9574)">
    <path
       style="opacity:1"
       fill="#e5e4e5"
       d="m 260.5,657.5 c 2.357,-0.163 4.69,0.003 7,0.5 -2.684,2.145 -5.017,1.978 -7,-0.5 z"
       id="path836" />
  </g>
  <g
     id="g837"
     transform="translate(-257.44769,-539.9574)">
    <path
       style="opacity:1"
       fill="#ebeaed"
       d="m 259.5,653.5 c 2.747,-0.313 5.414,0.02 8,1 -1.333,0.333 -2.667,0.667 -4,1 -1.833,-0.085 -3.166,-0.752 -4,-2 z"
       id="path837" />
  </g>
  <g
     id="g838"
     transform="translate(-257.44769,-539.9574)">
    <path
       style="opacity:1"
       fill="#d75e54"
       d="m 266.5,644.5 c 4.269,0.55 8.436,1.55 12.5,3 1.592,-0.105 3.092,-0.439 4.5,-1 0,2 0,4 0,6 -0.768,0.763 -1.268,1.763 -1.5,3 -0.333,-0.667 -0.667,-1.333 -1,-2 -0.335,2.003 -1.168,3.67 -2.5,5 -1,0.333 -1.667,1 -2,2 -0.806,1.497 -1.472,3.164 -2,5 -0.833,0.333 -1.667,0.667 -2.5,1 -2.412,-1.599 -4.912,-2.932 -7.5,-4 0.683,-1.676 2.017,-2.343 4,-2 0.166,-4.014 -10e-4,-8.014 -0.5,-12 -0.383,-0.556 -0.883,-0.889 -1.5,-1 0,-1 0,-2 0,-3 z"
       id="path838" />
  </g>
  <g
     id="g839"
     transform="translate(-257.44769,-539.9574)">
    <path
       style="opacity:1"
       fill="#efb3ab"
       d="m 269.5,648.5 c 1.984,-0.016 2.984,0.984 3,3 0.047,1.5 -0.619,2.5 -2,3 -0.966,-1.896 -1.299,-3.896 -1,-6 z"
       id="path839" />
  </g>
  <g
     id="g840"
     transform="translate(-257.44769,-539.9574)">
    <path
       style="opacity:1"
       fill="#ecebec"
       d="m 301.5,659.5 c -4.275,0.75 -7.609,-0.583 -10,-4 -0.453,-3.926 0.88,-7.092 4,-9.5 1.225,-0.563 2.225,-0.23 3,1 -1.655,1.444 -2.322,3.278 -2,5.5 5.023,-0.506 10.023,-1.173 15,-2 0.239,1.967 -0.094,3.801 -1,5.5 -2.827,1.664 -5.827,2.83 -9,3.5 z"
       id="path840" />
  </g>
  <g
     id="g841"
     transform="translate(-257.44769,-539.9574)">
    <path
       style="opacity:1"
       fill="#f5f4f8"
       d="m 259.5,649.5 c 2.424,-0.308 4.757,0.026 7,1 -1.167,0.333 -2.333,0.667 -3.5,1 -1.681,-0.108 -2.848,-0.775 -3.5,-2 z"
       id="path841" />
  </g>
  <g
     id="g842"
     transform="translate(-257.44769,-539.9574)">
    <path
       style="opacity:1"
       fill="#ededed"
       d="m 342.5,644.5 c 5.605,1.664 7.272,5.331 5,11 -1,0.833 -2,1.667 -3,2.5 -6.249,1.536 -12.583,1.87 -19,1 -2.696,-0.765 -5.196,-1.932 -7.5,-3.5 -1.08,-2.737 -0.246,-4.404 2.5,-5 6.559,1.873 13.225,2.373 20,1.5 3.825,-1.768 3.825,-3.768 0,-6 0.916,-0.278 1.582,-0.778 2,-1.5 z"
       id="path842" />
  </g>
  <g
     id="g843"
     transform="translate(-257.44769,-539.9574)">
    <path
       style="opacity:1"
       fill="#f1f1f5"
       d="m 261.5,645.5 c 1.983,-0.343 3.317,0.324 4,2 -2.357,0.163 -4.69,-0.003 -7,-0.5 0.744,-1.039 1.744,-1.539 3,-1.5 z"
       id="path843" />
  </g>
  <g
     id="g844"
     transform="translate(-257.44769,-539.9574)">
    <path
       style="opacity:1"
       fill="#e8e7e7"
       d="m 327.5,632.5 c 0,1 0,2 0,3 -1.915,-0.284 -3.581,0.049 -5,1 -5.562,1.655 -6.895,4.821 -4,9.5 1.845,1.128 3.845,1.628 6,1.5 0.131,0.876 -0.202,1.543 -1,2 -4.505,-2.176 -7.172,-0.843 -8,4 0.376,1.883 1.376,3.383 3,4.5 2.347,0.712 4.347,1.879 6,3.5 -0.333,0.333 -0.667,0.667 -1,1 -3.942,-3.183 -6.776,-2.516 -8.5,2 -0.383,-0.556 -0.883,-0.889 -1.5,-1 -0.377,-1.758 -1.044,-3.425 -2,-5 2.926,-4.016 2.593,-7.683 -1,-11 1.917,-1.334 2.917,-3.167 3,-5.5 -1.577,-2.736 -2.911,-5.57 -4,-8.5 3.825,-2.712 7.491,-2.378 11,1 1.146,-0.645 2.146,-1.478 3,-2.5 1.566,-0.765 2.899,-0.598 4,0.5 z"
       id="path844" />
  </g>
  <g
     id="g845"
     transform="translate(-257.44769,-539.9574)">
    <path
       style="opacity:1"
       fill="#f9de92"
       d="m 266.5,644.5 c 2.646,-0.664 5.479,-0.998 8.5,-1 3.252,0.019 6.085,0.686 8.5,2 0,0.333 0,0.667 0,1 -1.408,0.561 -2.908,0.895 -4.5,1 -4.064,-1.45 -8.231,-2.45 -12.5,-3 z"
       id="path845" />
  </g>
  <g
     id="g846"
     transform="translate(-257.44769,-539.9574)">
    <path
       style="opacity:1"
       fill="#3b3b37"
       d="m 322.5,636.5 c -0.111,0.617 -0.444,1.117 -1,1.5 3.317,0.498 6.65,0.665 10,0.5 -3.812,0.824 -7.812,1.324 -12,1.5 -1.491,2.022 -1.158,3.688 1,5 3.986,0.499 7.986,0.666 12,0.5 -2.553,0.755 -5.22,1.422 -8,2 -2.155,0.128 -4.155,-0.372 -6,-1.5 -2.895,-4.679 -1.562,-7.845 4,-9.5 z"
       id="path846" />
  </g>
  <g
     id="g847"
     transform="translate(-257.44769,-539.9574)">
    <path
       style="opacity:1"
       fill="#eae9e9"
       d="m 291.5,640.5 c 0.528,1.221 1.195,2.387 2,3.5 -1.994,2.158 -3.328,4.658 -4,7.5 -0.934,1.068 -1.268,2.401 -1,4 -2.259,-0.844 -3.259,-2.511 -3,-5 -0.175,-2.121 0.159,-4.121 1,-6 1.37,-1.75 2.37,-3.75 3,-6 -0.162,-2.027 0.005,-4.027 0.5,-6 0.718,-0.951 1.551,-1.117 2.5,-0.5 -2.103,2.665 -2.436,5.499 -1,8.5 z"
       id="path847" />
  </g>
  <g
     id="g848"
     transform="translate(-257.44769,-539.9574)">
    <path
       style="opacity:1"
       fill="#867f6b"
       d="m 283.5,645.5 c -2.415,-1.314 -5.248,-1.981 -8.5,-2 -3.021,0.002 -5.854,0.336 -8.5,1 0,1 0,2 0,3 -0.333,0 -0.667,0 -1,0 -0.683,-1.676 -2.017,-2.343 -4,-2 1.218,-0.661 2.551,-1.328 4,-2 6.298,-0.996 12.632,-1.33 19,-1 0.237,1.291 -0.096,2.291 -1,3 z"
       id="path848" />
  </g>
  <g
     id="g849"
     transform="translate(-257.44769,-539.9574)">
    <path
       style="opacity:1"
       fill="#7d7a79"
       d="m 289.5,638.5 c -0.63,2.25 -1.63,4.25 -3,6 -0.313,-2.747 0.02,-5.414 1,-8 0.682,0.743 1.349,1.409 2,2 z"
       id="path849" />
  </g>
  <g
     id="g850"
     transform="translate(-257.44769,-539.9574)">
    <path
       style="opacity:1"
       fill="#c8cacd"
       d="m 262.5,638.5 c 7.338,0.74 14.672,1.074 22,1 -0.209,0.586 -0.543,1.086 -1,1.5 -6.992,0.5 -13.992,0.666 -21,0.5 0,-1 0,-2 0,-3 z"
       id="path850" />
  </g>
  <g
     id="g851"
     transform="translate(-257.44769,-539.9574)">
    <path
       style="opacity:1"
       fill="#edecec"
       d="m 335.5,630.5 c 2.717,-1.267 5.383,-0.934 8,1 0,2 0,4 0,6 0.239,1.967 -0.094,3.801 -1,5.5 -3.108,1.759 -6.441,2.592 -10,2.5 -4.014,0.166 -8.014,-10e-4 -12,-0.5 -2.158,-1.312 -2.491,-2.978 -1,-5 4.188,-0.176 8.188,-0.676 12,-1.5 3.577,0.295 6.743,-0.705 9.5,-3 -0.27,-3.096 -2.103,-4.763 -5.5,-5 z"
       id="path851" />
  </g>
  <g
     id="g852"
     transform="translate(-257.44769,-539.9574)">
    <path
       style="opacity:1"
       fill="#6c6c6a"
       d="m 343.5,631.5 c 0.667,1.667 1.333,3.333 2,5 0,1.333 0,2.667 0,4 -0.667,-1 -1.333,-2 -2,-3 0,-2 0,-4 0,-6 z"
       id="path852" />
  </g>
  <g
     id="g853"
     transform="translate(-257.44769,-539.9574)">
    <path
       style="opacity:1"
       fill="#e7e5e6"
       d="m 308.5,631.5 c -2.357,-0.163 -4.69,0.003 -7,0.5 -2.973,1.224 -3.64,3.224 -2,6 3.667,0.333 7.333,0.667 11,1 1.26,1.814 1.26,3.647 0,5.5 -6.803,2.063 -12.803,0.73 -18,-4 1.081,-10.767 6.414,-13.767 16,-9 z"
       id="path853" />
  </g>
  <g
     id="g854"
     transform="translate(-257.44769,-539.9574)">
    <path
       style="opacity:1"
       fill="#f1f1f1"
       d="m 345.5,640.5 c 0,-1.333 0,-2.667 0,-4 1.912,-1.724 4.245,-3.057 7,-4 0.667,0.167 1.333,0.333 2,0.5 0.08,7.997 3.413,14.164 10,18.5 0.929,1.189 1.262,2.522 1,4 -3.577,0.847 -6.91,2.013 -10,3.5 -0.135,-7.951 -3.469,-14.118 -10,-18.5 z"
       id="path854" />
  </g>
  <g
     id="g855"
     transform="translate(-257.44769,-539.9574)">
    <path
       style="opacity:1"
       fill="#e6e5e7"
       d="m 262.5,632.5 c 3,0 6,0 9,0 0,1 0,2 0,3 1.667,0 3.333,0 5,0 0,-1 0,-2 0,-3 3.307,-0.437 6.307,0.23 9,2 -7.448,3.341 -15.114,3.841 -23,1.5 -2.431,-1.092 -2.431,-2.259 0,-3.5 z"
       id="path855" />
  </g>
  <g
     id="g856"
     transform="translate(-257.44769,-539.9574)">
    <path
       style="opacity:1"
       fill="#ecebed"
       d="m 345.5,631.5 c 0.886,-1.276 1.886,-1.276 3,0 -0.925,1.062 -1.925,1.062 -3,0 z"
       id="path856" />
  </g>
  <g
     id="g857"
     transform="translate(-257.44769,-539.9574)">
    <path
       style="opacity:1"
       fill="#0e0d0d"
       d="m 335.5,630.5 c 3.397,0.237 5.23,1.904 5.5,5 -2.757,2.295 -5.923,3.295 -9.5,3 -3.35,0.165 -6.683,-0.002 -10,-0.5 0.556,-0.383 0.889,-0.883 1,-1.5 1.419,-0.951 3.085,-1.284 5,-1 0,-1 0,-2 0,-3 2.32,-1.726 4.987,-2.393 8,-2 z"
       id="path857" />
  </g>
  <g
     id="g858"
     transform="translate(-257.44769,-539.9574)">
    <path
       style="opacity:1"
       fill="#ebeaeb"
       d="m 297.5,624.5 c 5.37,-0.108 10.703,0.225 16,1 0,1.333 0,2.667 0,4 -3.805,-0.767 -7.639,-1.433 -11.5,-2 -2.042,0.115 -4.042,0.449 -6,1 -0.5,-0.333 -1,-0.667 -1.5,-1 0.84,-1.235 1.84,-2.235 3,-3 z"
       id="path858" />
  </g>
  <g
     id="g859"
     transform="translate(-257.44769,-539.9574)">
    <path
       style="opacity:1"
       fill="#ebebec"
       d="m 328.5,624.5 c 4.346,-0.166 8.679,10e-4 13,0.5 1.832,0.748 3.499,1.748 5,3 -0.608,0.87 -1.441,1.37 -2.5,1.5 -8.454,-2.82 -16.621,-2.153 -24.5,2 -2.992,-0.309 -4.325,-1.976 -4,-5 3.35,0.165 6.683,-0.002 10,-0.5 1.237,-0.232 2.237,-0.732 3,-1.5 z"
       id="path859" />
  </g>
  <g
     id="g860"
     transform="translate(-257.44769,-539.9574)">
    <path
       style="opacity:1"
       fill="#7e696a"
       d="m 276.5,626.5 c 0,1.333 0,2.667 0,4 -0.722,-0.418 -1.222,-1.084 -1.5,-2 -0.333,1.667 -0.667,3.333 -1,5 -0.667,-3.667 -0.667,-7.333 0,-11 3.859,-2.507 8.025,-4.007 12.5,-4.5 -3.14,1.716 -6.473,3.049 -10,4 -1.301,1.616 -1.301,3.116 0,4.5 z"
       id="path860" />
  </g>
  <g
     id="g861"
     transform="translate(-257.44769,-539.9574)">
    <path
       style="opacity:1"
       fill="#c5c3c4"
       d="m 315.5,620.5 c 3,0 6,0 9,0 0,1.333 0,2.667 0,4 -3,0 -6,0 -9,0 0,-1.333 0,-2.667 0,-4 z"
       id="path861" />
  </g>
  <g
     id="g862"
     transform="translate(-257.44769,-539.9574)">
    <path
       style="opacity:1"
       fill="#d8d8d8"
       d="m 355.5,554.5 c 3.832,4.319 6.665,9.319 8.5,15 4.846,29.188 -7.321,45.354 -36.5,48.5 -6.846,0.821 -13.513,0.654 -20,-0.5 4,-0.333 8,-0.667 12,-1 0,-1 0,-2 0,-3 -2.235,0.295 -4.235,-0.039 -6,-1 2.333,0 4.667,0 7,0 0,1.333 0,2.667 0,4 25.591,-2.43 38.591,-16.596 39,-42.5 -0.18,-6.777 -1.513,-13.277 -4,-19.5 z"
       id="path862" />
  </g>
  <g
     id="g863"
     transform="translate(-257.44769,-539.9574)">
    <path
       style="opacity:1"
       fill="#f9f9f9"
       d="m 355.5,554.5 c 2.487,6.223 3.82,12.723 4,19.5 -0.409,25.904 -13.409,40.07 -39,42.5 0,-1.333 0,-2.667 0,-4 7.846,-2.003 11.679,-7.003 11.5,-15 -1.126,-1.444 -2.626,-2.11 -4.5,-2 -4.597,1.316 -9.264,2.316 -14,3 -3.231,-0.355 -6.398,-1.021 -9.5,-2 -1.107,0.085 -2.107,0.419 -3,1 -1.565,5.701 0.268,9.867 5.5,12.5 2.15,1.411 4.484,2.245 7,2.5 1.765,0.961 3.765,1.295 6,1 0,1 0,2 0,3 -4,0.333 -8,0.667 -12,1 -8.412,-1.29 -15.912,-4.623 -22.5,-10 -2.194,-3.054 -3.861,-6.388 -5,-10 -0.059,-8.996 0.274,-17.996 1,-27 6.105,-19.405 19.439,-28.738 40,-28 8.447,-0.044 16.614,1.456 24.5,4.5 3.8,1.979 7.134,4.479 10,7.5 z"
       id="path863" />
  </g>
  <g
     id="g864"
     transform="translate(-257.44769,-539.9574)">
    <path
       style="opacity:1"
       fill="#0d0d0d"
       d="m 320.5,612.5 c -2.333,0 -4.667,0 -7,0 -2.516,-0.255 -4.85,-1.089 -7,-2.5 -5.232,-2.633 -7.065,-6.799 -5.5,-12.5 0.893,-0.581 1.893,-0.915 3,-1 3.102,0.979 6.269,1.645 9.5,2 4.736,-0.684 9.403,-1.684 14,-3 1.874,-0.11 3.374,0.556 4.5,2 0.179,7.997 -3.654,12.997 -11.5,15 z"
       id="path864" />
  </g>
  <g
     id="g865"
     transform="translate(-257.44769,-539.9574)">
    <path
       style="opacity:1"
       fill="#de6a66"
       d="m 317.5,603.5 c 3.773,-0.237 7.44,0.263 11,1.5 -5.025,5.208 -11.025,6.708 -18,4.5 1.807,-2.719 4.14,-4.719 7,-6 z"
       id="path865" />
  </g>
  <g
     id="g866"
     transform="translate(-257.44769,-539.9574)">
    <path
       style="opacity:1"
       fill="#1a1d1d"
       d="m 312.5,584.5 c 4.38,0.724 6.38,3.39 6,8 -1.984,0.117 -3.65,-0.55 -5,-2 -1.236,0.746 -2.57,1.079 -4,1 0.188,-2.706 1.188,-5.039 3,-7 z"
       id="path866" />
  </g>
  <g
     id="g867"
     transform="translate(-257.44769,-539.9574)">
    <path
       style="opacity:1"
       fill="#d6d6d7"
       d="m 300.5,567.5 c -10.08,0.433 -14.247,5.766 -12.5,16 0.653,2.639 1.82,4.973 3.5,7 -3.757,-1.267 -5.924,-3.934 -6.5,-8 -0.88,-7.071 1.62,-12.571 7.5,-16.5 3.038,-0.885 5.705,-0.385 8,1.5 z"
       id="path867" />
  </g>
  <g
     id="g868"
     transform="translate(-257.44769,-539.9574)">
    <path
       style="opacity:1"
       fill="#d3d3d3"
       d="m 338.5,566.5 c -9.577,2.125 -13.41,8.125 -11.5,18 1.305,3.461 3.471,6.128 6.5,8 -4.423,-0.244 -7.256,-2.578 -8.5,-7 -2.311,-8.174 -0.144,-14.674 6.5,-19.5 2.539,-0.796 4.872,-0.629 7,0.5 z"
       id="path868" />
  </g>
  <g
     id="g869"
     transform="translate(-257.44769,-539.9574)">
    <path
       style="opacity:1"
       fill="#060708"
       d="m 338.5,566.5 c 8.409,3.157 11.243,9.157 8.5,18 -2.269,6.386 -6.769,9.052 -13.5,8 -3.029,-1.872 -5.195,-4.539 -6.5,-8 -1.91,-9.875 1.923,-15.875 11.5,-18 z"
       id="path869" />
  </g>
  <g
     id="g870"
     transform="translate(-257.44769,-539.9574)">
    <path
       style="opacity:1"
       fill="#090a0b"
       d="m 300.5,567.5 c 6.97,4.243 8.803,10.243 5.5,18 -3.19,6.686 -8.023,8.353 -14.5,5 -1.68,-2.027 -2.847,-4.361 -3.5,-7 -1.747,-10.234 2.42,-15.567 12.5,-16 z"
       id="path870" />
  </g>
  <g
     id="g871"
     transform="translate(-257.44769,-539.9574)">
    <path
       style="opacity:1"
       fill="#ededec"
       d="m 297.5,662.5 c -0.951,1.419 -1.284,3.085 -1,5 5.357,-0.344 10.024,-2.344 14,-6 1.022,0.355 1.689,1.022 2,2 -0.244,2.763 -1.577,4.929 -4,6.5 -3.092,1.864 -6.426,3.031 -10,3.5 -6.643,-1.951 -8.31,-5.951 -5,-12 0.667,-0.333 1.333,-0.667 2,-1 1.213,0.247 1.88,0.914 2,2 z"
       id="path871" />
  </g>
  <g
     id="g872"
     transform="translate(-257.44769,-539.9574)">
    <path
       style="opacity:1"
       fill="#e7e7e7"
       d="m 343.5,659.5 c 4.99,0.28 6.824,2.947 5.5,8 -4.637,6.224 -10.804,8.391 -18.5,6.5 -6.027,-1.052 -10.694,-4.052 -14,-9 0.225,-1.621 1.058,-2.788 2.5,-3.5 3.261,2.253 6.761,4.087 10.5,5.5 4,0.667 8,0.667 12,0 0.5,-0.5 1,-1 1.5,-1.5 0.061,-2.186 0.228,-4.186 0.5,-6 z"
       id="path872" />
  </g>
  <g
     id="g873"
     transform="translate(-257.44769,-539.9574)">
    <path
       style="opacity:1"
       fill="#b8b5b8"
       d="m 326.5,664.5 c 3.134,-1.279 6.134,-0.779 9,1.5 -3.036,-0.005 -6.036,-0.505 -9,-1.5 z"
       id="path873" />
  </g>
  <g
     id="g875"
     transform="translate(-257.44769,-539.9574)">
    <path
       style="opacity:1"
       fill="#e6e6e8"
       d="m 266.5,667.5 c 5.088,0.929 10.088,1.262 15,1 -0.209,0.586 -0.543,1.086 -1,1.5 -4.667,0.667 -9.333,0.667 -14,0 -1.274,-0.977 -1.274,-1.811 0,-2.5 z"
       id="path875" />
  </g>
  <g
     id="g877"
     transform="translate(-257.44769,-539.9574)">
    <path
       style="opacity:1"
       fill="#dcdbdd"
       d="m 315.5,668.5 c 3.797,1.411 3.797,2.411 0,3 0,-1 0,-2 0,-3 z"
       id="path877" />
  </g>
  <g
     id="g880"
     transform="translate(-257.44769,-539.9574)">
    <path
       style="opacity:1"
       fill="#dedede"
       d="m 360.5,658.5 c 1.615,7.176 2.948,14.676 4,22.5 -0.18,2.241 -1.013,2.741 -2.5,1.5 -2.468,-7.911 -2.968,-15.911 -1.5,-24 z"
       id="path880" />
  </g>
  <g
     id="g893"
     transform="translate(-257.44769,-539.9574)">
    <path
       style="opacity:1"
       fill="#ddddde"
       d="m 313.5,667.5 c 1.308,3.519 1.308,7.185 0,11 -2.887,-1.611 -5.887,-2.944 -9,-4 3.602,-1.626 6.602,-3.959 9,-7 z"
       id="path893" />
  </g>
  <g
     id="g894"
     transform="translate(-257.44769,-539.9574)">
    <path
       style="opacity:1"
       fill="#dddddd"
       d="m 315.5,673.5 c 2.687,-0.164 5.354,0.003 8,0.5 1.315,1.395 0.981,2.395 -1,3 -2,0.667 -4,0.667 -6,0 -0.837,-1.011 -1.17,-2.178 -1,-3.5 z"
       id="path894" />
  </g>
  <g
     id="g897"
     transform="translate(-257.44769,-539.9574)">
    <path
       style="opacity:1"
       fill="#c1c0c2"
       d="m 326.5,674.5 c 4.748,0.504 5.081,1.838 1,4 -0.929,-1.189 -1.262,-2.522 -1,-4 z"
       id="path897" />
  </g>
  <g
     id="g900"
     transform="translate(-257.44769,-539.9574)">
    <path
       style="opacity:1"
       fill="#eeedee"
       d="m 335.5,698.5 c -2.361,-0.174 -4.694,-0.507 -7,-1 -0.203,-1.89 0.463,-3.39 2,-4.5 -0.556,-0.383 -0.889,-0.883 -1,-1.5 7.129,0.379 10.129,-2.787 9,-9.5 -7.031,-1.465 -10.698,1.368 -11,8.5 0.671,1.347 0.671,2.514 0,3.5 -5.106,-0.114 -9.773,0.72 -14,2.5 -2.358,2.736 -5.358,3.57 -9,2.5 -1.217,-1.648 -2.05,-3.481 -2.5,-5.5 -5.706,-2.078 -7.706,-6.078 -6,-12 3.238,-5.288 7.738,-6.454 13.5,-3.5 3.07,3.249 6.737,5.416 11,6.5 1.799,-0.077 3.466,-0.577 5,-1.5 5.839,-7.408 12.339,-8.241 19.5,-2.5 1.983,6.679 -0.351,11.012 -7,13 -0.099,2.153 -0.933,3.819 -2.5,5 z"
       id="path900" />
  </g>
  <g
     id="g902"
     transform="translate(-257.44769,-539.9574)">
    <path
       style="opacity:1"
       fill="#f2f1f3"
       d="m 321.5,678.5 c 1.333,0 2.667,0 4,0 -0.23,2.965 -1.897,4.298 -5,4 -1.819,0.158 -3.152,-0.509 -4,-2 1.791,-0.67 3.458,-1.337 5,-2 z"
       id="path902" />
  </g>
  <g
     id="g904"
     transform="translate(-257.44769,-539.9574)">
    <path
       style="opacity:1"
       fill="#121110"
       d="m 329.5,691.5 c -0.667,-0.333 -1.333,-0.667 -2,-1 0.302,-7.132 3.969,-9.965 11,-8.5 1.129,6.713 -1.871,9.879 -9,9.5 z"
       id="path904" />
  </g>
  <g
     id="g909"
     transform="translate(-257.44769,-539.9574)">
    <path
       style="opacity:1"
       fill="#0f0e0d"
       d="m 301.5,681.5 c 6.098,-0.374 9.598,2.293 10.5,8 -3.228,2.63 -6.395,2.464 -9.5,-0.5 -2.047,-2.33 -2.38,-4.83 -1,-7.5 z"
       id="path909" />
  </g>
  <g
     id="g915"
     transform="translate(-257.44769,-539.9574)">
    <path
       style="opacity:1"
       fill="#e0e0e1"
       d="m 369.5,690.5 c -1.667,0 -3.333,0 -5,0 -1.994,-5.503 0.006,-7.336 6,-5.5 2.963,2.649 2.63,4.482 -1,5.5 z"
       id="path915" />
  </g>
  <g
     id="g917"
     transform="translate(-257.44769,-539.9574)">
    <path
       style="opacity:1"
       fill="#d6d7d8"
       d="m 360.5,687.5 c 0.876,-0.131 1.543,0.202 2,1 -2.76,4.064 -3.426,3.731 -2,-1 z"
       id="path917" />
  </g>
  <g
     id="g920"
     transform="translate(-257.44769,-539.9574)">
    <path
       style="opacity:1"
       fill="#bfbcbc"
       d="m 327.5,690.5 c 0.667,0.333 1.333,0.667 2,1 0.111,0.617 0.444,1.117 1,1.5 -1.537,1.11 -2.203,2.61 -2,4.5 2.306,0.493 4.639,0.826 7,1 -2.128,1.129 -4.461,1.296 -7,0.5 -4.402,-3.623 -9.402,-4.456 -15,-2.5 4.227,-1.78 8.894,-2.614 14,-2.5 0.671,-0.986 0.671,-2.153 0,-3.5 z"
       id="path920" />
  </g>
  <g
     id="g922"
     transform="translate(-257.44769,-539.9574)">
    <path
       style="opacity:1"
       fill="#858686"
       d="m 370.5,690.5 c 1.086,0.12 1.753,0.787 2,2 -0.333,0.667 -0.667,1.333 -1,2 -0.929,-1.189 -1.262,-2.522 -1,-4 z"
       id="path922" />
  </g>
  <g
     id="g924"
     transform="translate(-257.44769,-539.9574)">
    <path
       style="opacity:1"
       fill="#efeeef"
       d="m 340.5,694.5 c 1.517,0.011 2.684,0.677 3.5,2 0.333,3.333 0.667,6.667 1,10 1.879,2.027 3.046,4.36 3.5,7 -3.265,-0.292 -6.265,0.375 -9,2 -0.942,-0.108 -1.775,-0.441 -2.5,-1 1.252,-4.671 0.419,-9.004 -2.5,-13 3.448,-1.114 5.448,-3.447 6,-7 z"
       id="path924" />
  </g>
  <g
     id="g925"
     transform="translate(-257.44769,-539.9574)">
    <path
       style="opacity:1"
       fill="#8c8c8c"
       d="m 364.5,690.5 c 1.667,0 3.333,0 5,0 0.299,2.104 -0.034,4.104 -1,6 -0.689,-1.838 -1.022,-3.505 -1,-5 -1.87,7.799 -2.87,7.465 -3,-1 z"
       id="path925" />
  </g>
  <g
     id="g926"
     transform="translate(-257.44769,-539.9574)">
    <path
       style="opacity:1"
       fill="#f9faf9"
       d="m 339.5,724.5 c 0,2.667 0,5.333 0,8 -9,0 -18,0 -27,0 -0.82,-1.64 -1.653,-3.307 -2.5,-5 -0.008,-7.532 -0.174,-15.032 -0.5,-22.5 2.878,-7.207 8.212,-9.541 16,-7 2.118,2.142 4.618,3.642 7.5,4.5 1.545,1.709 2.378,3.709 2.5,6 -0.575,5.646 0.758,10.979 4,16 z"
       id="path926" />
  </g>
  <g
     id="g931"
     transform="translate(-257.44769,-539.9574)">
    <path
       style="opacity:1"
       fill="#edeced"
       d="m 299.5,695.5 c 1.418,1.687 2.751,3.52 4,5.5 1.293,0.49 2.627,0.657 4,0.5 0.005,4.034 0.338,8.034 1,12 -3.715,-0.077 -7.381,0.256 -11,1 1.904,-6.227 2.571,-12.56 2,-19 z"
       id="path931" />
  </g>
  <g
     id="g986"
     transform="translate(-257.44769,-539.9574)">
    <path
       style="opacity:1"
       fill="#eaebeb"
       d="m 342.5,716.5 c 2.104,-0.299 4.104,0.034 6,1 -1.533,5.138 -1.199,10.138 1,15 -1.746,2.354 -4.079,3.354 -7,3 0.924,-6.269 -0.409,-11.936 -4,-17 1.449,-0.672 2.782,-1.339 4,-2 z"
       id="path986" />
  </g>
  <g
     id="g994"
     transform="translate(-257.44769,-539.9574)">
    <path
       style="opacity:1"
       fill="#eaeaea"
       d="m 305.5,734.5 c -1.395,-2.193 -2.395,-4.526 -3,-7 -1.272,-3.91 -2.939,-7.577 -5,-11 3.307,-0.551 6.64,-0.884 10,-1 -0.165,3.682 10e-4,7.348 0.5,11 0.131,2.871 1.297,5.205 3.5,7 -0.387,1.22 -1.22,1.887 -2.5,2 -1.138,-0.489 -2.305,-0.822 -3.5,-1 z"
       id="path994" />
  </g>
  <g
     id="g998"
     transform="translate(-257.44769,-539.9574)">
    <path
       style="opacity:1"
       fill="#767879"
       d="m 302.5,727.5 c 0.605,2.474 1.605,4.807 3,7 -1,0 -2,0 -3,0 0,-2.333 0,-4.667 0,-7 z"
       id="path998" />
  </g>
  <g
     id="g1006"
     transform="translate(-257.44769,-539.9574)">
    <path
       style="opacity:1"
       fill="#efeff0"
       d="m 357.5,739.5 c -3.126,2.49 -6.792,3.823 -11,4 -3.146,-0.81 -4.813,-2.81 -5,-6 2.932,0.216 5.598,-0.451 8,-2 2.657,1.328 5.324,2.662 8,4 z"
       id="path1006" />
  </g>
  <g
     id="g1009"
     transform="translate(-257.44769,-539.9574)">
    <path
       style="opacity:1"
       fill="#d5d6d7"
       d="m 339.5,724.5 c 0.735,5.504 0.902,11.171 0.5,17 1.771,0.804 3.271,1.971 4.5,3.5 4.22,3.703 8.886,4.37 14,2 4.284,-1.672 4.951,-4.172 2,-7.5 0.397,-1.025 1.063,-1.192 2,-0.5 2.138,1.422 3.305,3.255 3.5,5.5 -2,1.667 -4,3.333 -6,5 -0.414,-0.457 -0.914,-0.791 -1.5,-1 -1.673,1.586 -3.673,2.253 -6,2 -12.637,1.305 -25.304,1.805 -38,1.5 -12.201,-0.521 -23.867,-3.021 -35,-7.5 -0.203,-1.89 0.463,-3.39 2,-4.5 5.144,-2.12 10.478,-3.62 16,-4.5 -3.338,1.181 -6.505,2.847 -9.5,5 0,2.8 1.5,4.467 4.5,5 0.996,1.165 2.329,1.832 4,2 5.822,-1.753 11.489,-3.753 17,-6 0.915,-0.828 1.581,-1.828 2,-3 -1.013,-2.027 -2.013,-4.027 -3,-6 9,0 18,0 27,0 0,-2.667 0,-5.333 0,-8 z"
       id="path1009" />
  </g>
  <g
     id="g1010"
     transform="translate(-257.44769,-539.9574)">
    <path
       style="opacity:1"
       fill="#eaebec"
       d="m 303.5,743.5 c -3.415,-0.695 -6.082,-2.362 -8,-5 2.644,-0.993 5.31,-1.993 8,-3 2.949,0.802 5.949,1.136 9,1 0,1.333 0,2.667 0,4 -3.503,-0.371 -6.503,0.629 -9,3 z"
       id="path1010" />
  </g>
  <g
     id="g1011"
     transform="translate(-257.44769,-539.9574)">
    <path
       style="opacity:1"
       fill="#e6e7e7"
       d="m 300.5,733.5 c -0.473,1.406 -1.473,2.073 -3,2 -5.522,0.88 -10.856,2.38 -16,4.5 -1.537,1.11 -2.203,2.61 -2,4.5 11.133,4.479 22.799,6.979 35,7.5 12.696,0.305 25.363,-0.195 38,-1.5 -0.111,0.617 -0.444,1.117 -1,1.5 -18.632,1.571 -37.299,1.904 -56,1 -6.952,-2.595 -13.952,-5.095 -21,-7.5 -0.795,-4.428 1.205,-7.261 6,-8.5 6.546,-1.864 13.213,-3.03 20,-3.5 z"
       id="path1011" />
  </g>
  <g
     id="g1015"
     transform="translate(-257.44769,-539.9574)">
    <path
       style="opacity:1"
       fill="#585958"
       d="m 295.5,738.5 c 1.918,2.638 4.585,4.305 8,5 -0.709,0.904 -1.709,1.237 -3,1 -2.28,-2.963 -3.947,-2.63 -5,1 -1,0 -2,0 -3,0 1.533,-2.29 1.2,-2.956 -1,-2 -1,-0.333 -1.667,-1 -2,-2 0.891,-1.09 1.891,-1.09 3,0 1.235,-0.84 2.235,-1.84 3,-3 z"
       id="path1015" />
  </g>
  <g
     id="g1020"
     transform="translate(-257.44769,-539.9574)">
    <path
       style="opacity:1"
       fill="#d4d7d7"
       d="m 300.5,744.5 c -1.716,0.129 -3.383,0.462 -5,1 1.053,-3.63 2.72,-3.963 5,-1 z"
       id="path1020" />
  </g>
  <g
     id="g1022"
     transform="translate(-257.44769,-539.9574)">
    <path
       style="opacity:1"
       fill="#7a7b7b"
       d="m 357.5,739.5 c 4.271,1.803 4.605,3.803 1,6 -1.342,-1.402 -2.176,-1.069 -2.5,1 -1.543,-0.785 -3.21,-0.785 -5,0 -1.942,-0.459 -3.442,-1.459 -4.5,-3 4.208,-0.177 7.874,-1.51 11,-4 z"
       id="path1022" />
  </g>
</svg>
