<?xml version="1.0" encoding="UTF-8" standalone="no"?>
<svg
   version="1.1"
   width="101.73877"
   height="224.07489"
   style="clip-rule:evenodd;fill-rule:evenodd;image-rendering:optimizeQuality;shape-rendering:geometricPrecision;text-rendering:geometricPrecision"
   id="svg1400"
   xmlns="http://www.w3.org/2000/svg"
   xmlns:svg="http://www.w3.org/2000/svg">
  <defs
     id="defs1400" />
  <g
     id="g1039"
     transform="translate(-458.4903,-769.40759)">
    <path
       style="opacity:1"
       fill="#1b201a"
       d="m 553.5,801.5 c -0.333,0 -0.667,0 -1,0 -2.451,-8.215 -6.951,-15.215 -13.5,-21 -0.464,0.594 -0.631,1.261 -0.5,2 2.337,2.465 3.837,5.465 4.5,9 0.333,3.333 0.667,6.667 1,10 2.956,2.222 5.79,4.555 8.5,7 0,0.667 0,1.333 0,2 -0.617,-0.111 -1.117,-0.444 -1.5,-1 -1.071,4.708 -2.237,9.374 -3.5,14 -1.152,-1.125 -2.152,-1.125 -3,0 -6.312,-4.989 -13.312,-8.656 -21,-11 -8.511,-3.567 -17.511,-5.234 -27,-5 -6.309,-0.448 -12.309,0.552 -18,3 -2.59,0.628 -4.923,1.795 -7,3.5 -1.537,1.11 -2.203,2.61 -2,4.5 0.065,0.438 -0.101,0.772 -0.5,1 -0.333,-0.667 -0.667,-1.333 -1,-2 -0.21,1.558 -0.71,2.891 -1.5,4 -0.512,-3.858 -1.178,-7.691 -2,-11.5 0.137,-2.898 0.637,-5.731 1.5,-8.5 4.387,-5.083 8.053,-10.749 11,-17 17.354,-16.711 36.854,-19.545 58.5,-8.5 9.712,5.879 15.712,14.379 18,25.5 z"
       id="path1039" />
  </g>
  <g
     id="g1040"
     transform="translate(-458.4903,-769.40759)">
    <path
       style="opacity:1"
       fill="#73a75c"
       d="m 538.5,782.5 c 2.715,5.432 3.381,11.098 2,17 -21.361,-11.144 -43.361,-12.811 -66,-5 -0.333,-0.333 -0.667,-0.667 -1,-1 11.4,-18.361 27.733,-25.194 49,-20.5 6.826,0.903 12.159,4.07 16,9.5 z"
       id="path1040" />
  </g>
  <g
     id="g1041"
     transform="translate(-458.4903,-769.40759)">
    <path
       style="opacity:1"
       fill="#76a95e"
       d="m 482.5,792.5 c 0.876,-0.131 1.543,0.202 2,1 -1.717,4.497 -2.384,9.163 -2,14 -2.926,0.961 -5.926,1.627 -9,2 -0.437,-4.912 0.396,-9.578 2.5,-14 2.294,-0.922 4.461,-1.922 6.5,-3 z"
       id="path1041" />
  </g>
  <g
     id="g1042"
     transform="translate(-458.4903,-769.40759)">
    <path
       style="opacity:1"
       fill="#7aae62"
       d="m 496.5,796.5 c -0.904,0.709 -1.237,1.709 -1,3 0,2 0,4 0,6 -3.409,-0.251 -6.742,0.083 -10,1 -1.663,-5.226 -0.997,-10.06 2,-14.5 3.382,-0.824 6.716,-0.657 10,0.5 -0.746,1.236 -1.079,2.57 -1,4 z"
       id="path1042" />
  </g>
  <g
     id="g1043"
     transform="translate(-458.4903,-769.40759)">
    <path
       style="opacity:1"
       fill="#75a85b"
       d="m 515.5,792.5 c 3.666,0.458 7.166,1.458 10.5,3 -0.034,4.686 -0.534,9.352 -1.5,14 -4.38,-0.793 -8.714,-1.793 -13,-3 -0.108,-3.747 0.392,-7.414 1.5,-11 0.236,-1.619 1.069,-2.619 2.5,-3 z"
       id="path1043" />
  </g>
  <g
     id="g1044"
     transform="translate(-458.4903,-769.40759)">
    <path
       style="opacity:1"
       fill="#73ab5e"
       d="m 512.5,791.5 c -1.315,4.595 -2.315,9.261 -3,14 -1,0 -2,0 -3,0 -3,0 -6,0 -9,0 0,-2.333 0,-4.667 0,-7 0.493,-2.306 0.826,-4.639 1,-7 4.667,0 9.333,0 14,0 z"
       id="path1044" />
  </g>
  <g
     id="g1045"
     transform="translate(-458.4903,-769.40759)">
    <path
       style="opacity:1"
       fill="#5c8d48"
       d="m 552.5,801.5 c 0,2.333 0,4.667 0,7 -2.71,-2.445 -5.544,-4.778 -8.5,-7 -0.333,-3.333 -0.667,-6.667 -1,-10 -0.663,-3.535 -2.163,-6.535 -4.5,-9 -0.131,-0.739 0.036,-1.406 0.5,-2 6.549,5.785 11.049,12.785 13.5,21 z"
       id="path1045" />
  </g>
  <g
     id="g1046"
     transform="translate(-458.4903,-769.40759)">
    <path
       style="opacity:1"
       fill="#2f422b"
       d="m 512.5,791.5 c 1.291,-0.237 2.291,0.096 3,1 -1.431,0.381 -2.264,1.381 -2.5,3 -1.108,3.586 -1.608,7.253 -1.5,11 -1.915,0.284 -3.581,-0.049 -5,-1 1,0 2,0 3,0 0.685,-4.739 1.685,-9.405 3,-14 z"
       id="path1046" />
  </g>
  <g
     id="g1047"
     transform="translate(-458.4903,-769.40759)">
    <path
       style="opacity:1"
       fill="#3c5937"
       d="m 496.5,796.5 c -0.172,0.992 0.162,1.658 1,2 0,2.333 0,4.667 0,7 -0.667,-2 -1.333,-4 -2,-6 -0.237,-1.291 0.096,-2.291 1,-3 z"
       id="path1047" />
  </g>
  <g
     id="g1048"
     transform="translate(-458.4903,-769.40759)">
    <path
       style="opacity:1"
       fill="#6da256"
       d="m 527.5,796.5 c 3.854,0.341 7.354,1.674 10.5,4 0.518,4.051 0.184,8.051 -1,12 -0.388,0.928 -1.055,1.595 -2,2 -3.015,-1.342 -6.015,-2.675 -9,-4 0.549,-4.605 1.049,-9.271 1.5,-14 z"
       id="path1048" />
  </g>
  <g
     id="g1049"
     transform="translate(-458.4903,-769.40759)">
    <path
       style="opacity:1"
       fill="#f4f5f5"
       d="m 523.5,812.5 c -9.034,-0.961 -15.367,2.706 -19,11 -3.199,-1.299 -6.365,-1.299 -9.5,0 -1.651,-5.484 -5.151,-9.15 -10.5,-11 -2,-0.667 -4,-1.333 -6,-2 5.691,-2.448 11.691,-3.448 18,-3 9.489,-0.234 18.489,1.433 27,5 z"
       id="path1049" />
  </g>
  <g
     id="g1070"
     transform="translate(-458.4903,-769.40759)">
    <path
       style="opacity:1"
       fill="#6ea05a"
       d="m 472.5,796.5 c 0.597,0.235 0.93,0.735 1,1.5 -0.747,4.461 -1.247,8.961 -1.5,13.5 -1.586,0.876 -3.086,1.876 -4.5,3 -0.935,-4.326 -0.768,-8.66 0.5,-13 1.025,-2.187 2.525,-3.854 4.5,-5 z"
       id="path1070" />
  </g>
  <g
     id="g1071"
     transform="translate(-458.4903,-769.40759)">
    <path
       style="opacity:1"
       fill="#959998"
       d="m 478.5,810.5 c 2,0.667 4,1.333 6,2 -6.538,-1.419 -11.538,0.581 -15,6 -0.203,-1.89 0.463,-3.39 2,-4.5 2.077,-1.705 4.41,-2.872 7,-3.5 z"
       id="path1071" />
  </g>
  <g
     id="g1072"
     transform="translate(-458.4903,-769.40759)">
    <path
       style="opacity:1"
       fill="#63964e"
       d="m 540.5,801.5 c 8.769,4.697 10.436,11.364 5,20 -3.063,-1.525 -5.73,-3.525 -8,-6 1.429,-4.577 2.429,-9.244 3,-14 z"
       id="path1072" />
  </g>
  <g
     id="g1075"
     transform="translate(-458.4903,-769.40759)">
    <path
       style="opacity:1"
       fill="#517e45"
       d="m 552.5,810.5 c 2.765,6.084 2.598,12.084 -0.5,18 -1.025,-2.187 -2.525,-3.854 -4.5,-5 1.263,-4.626 2.429,-9.292 3.5,-14 0.383,0.556 0.883,0.889 1.5,1 z"
       id="path1075" />
  </g>
  <g
     id="g1089"
     transform="translate(-458.4903,-769.40759)">
    <path
       style="opacity:1"
       fill="#1a1a19"
       d="m 552.5,801.5 c 0.333,0 0.667,0 1,0 0.769,5.43 1.769,10.93 3,16.5 -0.337,3.523 -0.837,7.023 -1.5,10.5 -0.81,1.806 -1.976,3.306 -3.5,4.5 -1.029,5.34 -3.029,10.173 -6,14.5 -0.667,0 -1,-0.333 -1,-1 3.014,-5.217 4.347,-10.717 4,-16.5 -1.634,-0.494 -3.301,-0.66 -5,-0.5 -1,0 -2,0 -3,0 2.805,-0.819 5.805,-1.319 9,-1.5 -2.639,-1.118 -5.473,-1.618 -8.5,-1.5 -2.5,0.167 -5,0.333 -7.5,0.5 2,0.333 4,0.667 6,1 -2.536,0.186 -4.869,0.686 -7,1.5 -1.724,7.389 -6.391,11.055 -14,11 -0.317,10.317 -5.651,15.651 -16,16 -7.905,-0.444 -12.905,-4.444 -15,-12 0.029,-1.529 0.696,-2.696 2,-3.5 3.886,0.779 7.886,1.279 12,1.5 4.195,0.067 8.195,-0.766 12,-2.5 -2.109,-1.141 -3.942,-2.641 -5.5,-4.5 -1.318,-2.977 -2.818,-5.81 -4.5,-8.5 -2.929,-0.777 -5.763,-0.61 -8.5,0.5 -3.347,11.424 -10.514,14.924 -21.5,10.5 -1.878,-1.543 -3.378,-3.376 -4.5,-5.5 -1.784,3.863 -1.951,7.863 -0.5,12 0.172,0.992 -0.162,1.658 -1,2 -1.384,-2.808 -2.051,-5.808 -2,-9 0.695,-5.313 1.029,-10.646 1,-16 0.79,-1.109 1.29,-2.442 1.5,-4 0.333,0.667 0.667,1.333 1,2 0.399,-0.228 0.565,-0.562 0.5,-1 3.462,-5.419 8.462,-7.419 15,-6 5.349,1.85 8.849,5.516 10.5,11 3.135,-1.299 6.301,-1.299 9.5,0 3.633,-8.294 9.966,-11.961 19,-11 5.341,2.513 8.675,6.68 10,12.5 4.041,0.827 8.041,0.66 12,-0.5 -0.124,-0.607 -0.457,-0.94 -1,-1 0.848,-1.125 1.848,-1.125 3,0 1.975,1.146 3.475,2.813 4.5,5 3.098,-5.916 3.265,-11.916 0.5,-18 0,-0.667 0,-1.333 0,-2 0,-2.333 0,-4.667 0,-7 z"
       id="path1089" />
  </g>
  <g
     id="g1090"
     transform="translate(-458.4903,-769.40759)">
    <path
       style="opacity:1"
       fill="#def3f8"
       d="m 515.5,814.5 c 13.402,0.901 17.569,7.568 12.5,20 -3.743,3.759 -8.243,4.926 -13.5,3.5 -6.408,-3.323 -8.575,-8.489 -6.5,-15.5 1.69,-3.521 4.19,-6.188 7.5,-8 z"
       id="path1090" />
  </g>
  <g
     id="g1091"
     transform="translate(-458.4903,-769.40759)">
    <path
       style="opacity:1"
       fill="#dcf1f7"
       d="m 476.5,814.5 c 12.629,-0.876 17.463,4.791 14.5,17 -3.277,5.609 -8.11,7.442 -14.5,5.5 -2.5,-1.167 -4.333,-3 -5.5,-5.5 -2.041,-7.149 -0.208,-12.815 5.5,-17 z"
       id="path1091" />
  </g>
  <g
     id="g1092"
     transform="translate(-458.4903,-769.40759)">
    <path
       style="opacity:1"
       fill="#e8e8e8"
       d="m 523.5,812.5 c 7.688,2.344 14.688,6.011 21,11 0.543,0.06 0.876,0.393 1,1 -3.959,1.16 -7.959,1.327 -12,0.5 -1.325,-5.82 -4.659,-9.987 -10,-12.5 z"
       id="path1092" />
  </g>
  <g
     id="g1094"
     transform="translate(-458.4903,-769.40759)">
    <path
       style="opacity:1"
       fill="#626053"
       d="m 540.5,829.5 c -2.667,0 -5.333,0 -8,0 2.131,-0.814 4.464,-1.314 7,-1.5 -2,-0.333 -4,-0.667 -6,-1 2.5,-0.167 5,-0.333 7.5,-0.5 3.027,-0.118 5.861,0.382 8.5,1.5 -3.195,0.181 -6.195,0.681 -9,1.5 z"
       id="path1094" />
  </g>
  <g
     id="g1100"
     transform="translate(-458.4903,-769.40759)">
    <path
       style="opacity:1"
       fill="#f3f3f5"
       d="m 532.5,829.5 c 2.667,0 5.333,0 8,0 1,0 2,0 3,0 -3.038,14.705 -11.705,24.372 -26,29 0.363,0.683 0.696,1.35 1,2 -16.617,3.752 -31.784,0.752 -45.5,-9 -1.524,-2.398 -3.024,-4.731 -4.5,-7 -1.451,-4.137 -1.284,-8.137 0.5,-12 1.122,2.124 2.622,3.957 4.5,5.5 10.986,4.424 18.153,0.924 21.5,-10.5 2.737,-1.11 5.571,-1.277 8.5,-0.5 1.682,2.69 3.182,5.523 4.5,8.5 1.558,1.859 3.391,3.359 5.5,4.5 -3.805,1.734 -7.805,2.567 -12,2.5 -4.114,-0.221 -8.114,-0.721 -12,-1.5 -1.304,0.804 -1.971,1.971 -2,3.5 2.095,7.556 7.095,11.556 15,12 10.349,-0.349 15.683,-5.683 16,-16 7.609,0.055 12.276,-3.611 14,-11 z"
       id="path1100" />
  </g>
  <g
     id="g1101"
     transform="translate(-458.4903,-769.40759)">
    <path
       style="opacity:1"
       fill="#141515"
       d="m 499.5,829.5 c 3.446,1.112 5.446,3.445 6,7 -1.992,0.172 -3.658,-0.495 -5,-2 -1,0.667 -2,1.333 -3,2 -0.867,-2.643 -0.2,-4.977 2,-7 z"
       id="path1101" />
  </g>
  <g
     id="g1102"
     transform="translate(-458.4903,-769.40759)">
    <path
       style="opacity:1"
       fill="#d0cece"
       d="m 543.5,829.5 c 1.699,-0.16 3.366,0.006 5,0.5 0.347,5.783 -0.986,11.283 -4,16.5 -6.606,8.306 -15.272,12.972 -26,14 -0.304,-0.65 -0.637,-1.317 -1,-2 14.295,-4.628 22.962,-14.295 26,-29 z"
       id="path1102" />
  </g>
  <g
     id="g1126"
     transform="translate(-458.4903,-769.40759)">
    <path
       style="opacity:1"
       fill="#1e1f1f"
       d="m 468.5,844.5 c 1.476,2.269 2.976,4.602 4.5,7 13.716,9.752 28.883,12.752 45.5,9 10.728,-1.028 19.394,-5.694 26,-14 0,0.667 0.333,1 1,1 -2.741,4.388 -6.408,7.888 -11,10.5 -4.333,1.667 -8.667,3.333 -13,5 3.656,2.59 7.656,4.59 12,6 2.541,3.304 5.707,5.804 9.5,7.5 -0.085,7.912 3.249,13.912 10,18 1.485,5.607 2.818,11.274 4,17 0.499,5.323 0.666,10.656 0.5,16 -2.667,0 -5.333,0 -8,0 -0.284,1.915 0.049,3.581 1,5 0.709,0.904 1.709,1.237 3,1 0,2.333 0,4.667 0,7 -1.208,1.282 -2.542,1.282 -4,0 -0.689,-1.944 -1.189,-3.944 -1.5,-6 -2.167,1.5 -3.667,1 -4.5,-1.5 1.125,-1.963 2.459,-3.796 4,-5.5 -2.359,-7.488 -3.859,-15.154 -4.5,-23 -2.845,-2.695 -4.345,-6.029 -4.5,-10 -0.487,-0.973 -0.987,-1.973 -1.5,-3 -0.816,5.184 -0.65,10.184 0.5,15 0.435,6.188 1.102,12.354 2,18.5 -1.533,3.943 -2.2,8.109 -2,12.5 0.473,10.062 1.473,20.062 3,30 0.202,2.45 -0.131,4.783 -1,7 -2.286,0.095 -4.286,0.762 -6,2 -2.955,0.659 -5.955,0.992 -9,1 -0.481,3.849 1.186,5.849 5,6 2.881,-2.18 6.214,-3.18 10,-3 -1.777,1.1 -3.777,1.934 -6,2.5 0.886,1.615 1.886,3.115 3,4.5 -1.955,0.823 -3.955,0.99 -6,0.5 -1.477,-2.148 -3.477,-3.482 -6,-4 -1.456,-2.266 -2.29,-4.766 -2.5,-7.5 -2.621,-1.247 -4.121,-3.247 -4.5,-6 -1.587,-7.764 -3.587,-15.431 -6,-23 0.31,-1.238 0.81,-1.238 1.5,0 2,6 4,12 6,18 0.833,0.833 1.667,1.667 2.5,2.5 6.105,1.16 11.772,0.16 17,-3 -1.996,-11.087 -3.663,-22.253 -5,-33.5 -2.027,1.013 -4.027,2.013 -6,3 0,-0.333 0,-0.667 0,-1 0,-0.333 0,-0.667 0,-1 0.992,0.172 1.658,-0.162 2,-1 2.174,-0.25 3.841,-1.25 5,-3 2.222,-0.059 3.222,-1.225 3,-3.5 -1.403,-11.453 -2.236,-22.953 -2.5,-34.5 -0.708,-0.881 -1.542,-1.547 -2.5,-2 -2.643,-2.734 -3.643,-6.067 -3,-10 0.383,-4.079 2.383,-5.745 6,-5 -2.09,-2.252 -4.59,-3.919 -7.5,-5 -1.454,2.571 -2.62,5.238 -3.5,8 -1.648,1.31 -3.314,2.643 -5,4 -1.122,-1.13 -2.456,-1.797 -4,-2 -0.709,-0.904 -1.709,-1.237 -3,-1 -0.973,2.448 -1.306,5.115 -1,8 -0.667,2 -1.333,4 -2,6 0,-2.333 0,-4.667 0,-7 -2.135,-0.353 -3.468,0.48 -4,2.5 0.815,1.643 1.815,3.143 3,4.5 0.111,0.617 0.444,1.117 1,1.5 -0.916,0.278 -1.582,0.778 -2,1.5 -1.752,-0.082 -2.752,0.751 -3,2.5 0.815,1.643 1.815,3.143 3,4.5 -0.667,0 -1,0.333 -1,1 3.92,1.378 3.92,2.712 0,4 -1.798,-0.963 -3.132,-0.296 -4,2 0.967,2.29 2.3,4.29 4,6 0.321,1.548 1.321,2.215 3,2 0.268,1.599 -0.066,2.932 -1,4 0,-1 0,-2 0,-3 -6.944,1.096 -7.277,2.096 -1,3 0.667,0.667 1.333,1.333 2,2 -2,0 -4,0 -6,0 0,1 0,2 0,3 -0.667,-1 -1.333,-2 -2,-3 0.58,-4.149 -0.086,-7.816 -2,-11 1.531,-1.425 1.198,-2.091 -1,-2 0.079,-1.43 -0.254,-2.764 -1,-4 -0.757,-1.273 -1.423,-1.273 -2,0 -0.991,-6.813 -1.325,-13.813 -1,-21 1.923,-3.138 1.257,-5.471 -2,-7 -1.355,0.688 -2.355,1.688 -3,3 -1.4,-0.6 -2.4,-1.6 -3,-3 0.163,-2.357 -0.003,-4.69 -0.5,-7 -3.299,7.992 -5.132,16.325 -5.5,25 -0.768,0.763 -1.268,1.763 -1.5,3 -0.498,3.317 -0.665,6.65 -0.5,10 -0.917,6.832 -0.917,13.499 0,20 0.667,0.667 1.333,1.333 2,2 -1,0 -2,0 -3,0 -0.617,-0.111 -1.117,-0.444 -1.5,-1 -0.378,-6.689 -0.378,-13.356 0,-20 -1.572,6.382 -3.738,12.549 -6.5,18.5 1.693,2.22 2.693,4.72 3,7.5 -1.667,0 -3.333,0 -5,0 0.16,1.699 -0.006,3.366 -0.5,5 -2.836,0.765 -5.67,0.432 -8.5,-1 -0.146,-10.824 1.354,-21.491 4.5,-32 2.688,-3.994 4.355,-8.327 5,-13 6.118,-4.32 8.785,-10.32 8,-18 2.682,-2.403 5.182,-4.903 7.5,-7.5 3.36,-2.546 7.026,-4.379 11,-5.5 -11.658,-1.442 -20.658,-7.109 -27,-17 0.838,-0.342 1.172,-1.008 1,-2 z"
       id="path1126" />
  </g>
  <g
     id="g1127"
     transform="translate(-458.4903,-769.40759)">
    <path
       style="opacity:1"
       fill="#d4d5d8"
       d="m 513.5,867.5 c 2.427,0.779 2.427,1.946 0,3.5 -2.783,0.963 -5.45,2.13 -8,3.5 -2.207,-0.381 -3.54,-1.714 -4,-4 4.287,-0.473 8.287,-1.473 12,-3 z"
       id="path1127" />
  </g>
  <g
     id="g1128"
     transform="translate(-458.4903,-769.40759)">
    <path
       style="opacity:1"
       fill="#c0c9cf"
       d="m 495.5,868.5 c 3.574,-0.592 5.574,0.908 6,4.5 -3.227,0.287 -5.227,-1.213 -6,-4.5 z"
       id="path1128" />
  </g>
  <g
     id="g1129"
     transform="translate(-458.4903,-769.40759)">
    <path
       style="opacity:1"
       fill="#83b4d1"
       d="m 494.5,870.5 c -3.942,0.586 -5.275,2.586 -4,6 -0.06,0.543 -0.393,0.876 -1,1 -1.248,-3.006 -1.248,-6.006 0,-9 2.862,-2.84 4.529,-2.173 5,2 z"
       id="path1129" />
  </g>
  <g
     id="g1130"
     transform="translate(-458.4903,-769.40759)">
    <path
       style="opacity:1"
       fill="#989b9d"
       d="m 511.5,864.5 c -2.667,0 -5.333,0 -8,0 0,1 0,2 0,3 -2.705,0.12 -3.372,-0.88 -2,-3 3.48,-1.306 6.813,-1.306 10,0 z"
       id="path1130" />
  </g>
  <g
     id="g1131"
     transform="translate(-458.4903,-769.40759)">
    <path
       style="opacity:1"
       fill="#e2e2e3"
       d="m 511.5,864.5 c 0,1 0,2 0,3 -2.667,0 -5.333,0 -8,0 0,-1 0,-2 0,-3 2.667,0 5.333,0 8,0 z"
       id="path1131" />
  </g>
  <g
     id="g1132"
     transform="translate(-458.4903,-769.40759)">
    <path
       style="opacity:1"
       fill="#d5d6d8"
       d="m 494.5,863.5 c 1.667,0 3.333,0 5,0 0,1 0,2 0,3 -2.489,0.259 -4.156,-0.741 -5,-3 z"
       id="path1132" />
  </g>
  <g
     id="g1133"
     transform="translate(-458.4903,-769.40759)">
    <path
       style="opacity:1"
       fill="#e1e0e3"
       d="m 513.5,863.5 c 2.027,-0.162 4.027,0.005 6,0.5 -2.379,2.142 -4.379,1.976 -6,-0.5 z"
       id="path1133" />
  </g>
  <g
     id="g1134"
     transform="translate(-458.4903,-769.40759)">
    <path
       style="opacity:1"
       fill="#ea6463"
       d="m 504.5,847.5 c 3.548,-0.405 6.881,0.095 10,1.5 -4.053,4.462 -9.053,6.129 -15,5 -0.951,-0.718 -1.117,-1.551 -0.5,-2.5 1.5,-1.969 3.333,-3.302 5.5,-4 z"
       id="path1134" />
  </g>
  <g
     id="g1137"
     transform="translate(-458.4903,-769.40759)">
    <path
       style="opacity:1"
       fill="#bddae7"
       d="m 494.5,870.5 c 1.239,2.207 1.739,4.541 1.5,7 -1.556,-2.135 -3.389,-2.468 -5.5,-1 -1.275,-3.414 0.058,-5.414 4,-6 z"
       id="path1137" />
  </g>
  <g
     id="g1140"
     transform="translate(-458.4903,-769.40759)">
    <path
       style="opacity:1"
       fill="#d4eaf1"
       d="m 519.5,865.5 c 3.071,-0.575 5.071,0.591 6,3.5 -1.119,3.741 -3.119,6.908 -6,9.5 -1.837,-1.338 -3.503,-2.838 -5,-4.5 2.05,-2.598 3.716,-5.431 5,-8.5 z"
       id="path1140" />
  </g>
  <g
     id="g1144"
     transform="translate(-458.4903,-769.40759)">
    <path
       style="opacity:1"
       fill="#efeff0"
       d="m 536.5,875.5 c 1.644,-0.214 3.144,0.12 4.5,1 -0.018,6.954 2.482,12.788 7.5,17.5 0.948,0.483 1.948,0.649 3,0.5 0,1.333 0,2.667 0,4 -1.373,-0.157 -2.707,0.01 -4,0.5 -0.906,3.184 -2.739,4.017 -5.5,2.5 -0.737,-7.748 -4.404,-13.748 -11,-18 -0.687,-2.068 -0.52,-4.068 0.5,-6 1.276,-1.145 2.609,-1.145 4,0 0.798,-0.457 1.131,-1.124 1,-2 z"
       id="path1144" />
  </g>
  <g
     id="g1154"
     transform="translate(-458.4903,-769.40759)">
    <path
       style="opacity:1"
       fill="#d9e9ef"
       d="m 486.5,877.5 c -2.262,17.736 -3.928,35.402 -5,53 -0.333,0 -0.667,0 -1,0 -0.667,-0.667 -1.333,-1.333 -2,-2 0.712,-6.643 1.046,-13.309 1,-20 0.239,-4.342 0.573,-8.676 1,-13 0.368,-8.675 2.201,-17.008 5.5,-25 0.497,2.31 0.663,4.643 0.5,7 z"
       id="path1154" />
  </g>
  <g
     id="g1155"
     transform="translate(-458.4903,-769.40759)">
    <path
       style="opacity:1"
       fill="#cfcfd2"
       d="m 496.5,883.5 c 2.476,1.621 2.642,3.621 0.5,6 -1.8,-1.865 -1.966,-3.865 -0.5,-6 z"
       id="path1155" />
  </g>
  <g
     id="g1156"
     transform="translate(-458.4903,-769.40759)">
    <path
       style="opacity:1"
       fill="#e6e7e8"
       d="m 481.5,873.5 c 0.543,0.06 0.876,0.393 1,1 -2.596,9.583 -4.763,19.249 -6.5,29 -1.066,-3.063 -3.233,-4.563 -6.5,-4.5 -0.522,-0.561 -0.855,-1.228 -1,-2 6.616,-5.158 9.782,-11.992 9.5,-20.5 1.145,-1.136 2.312,-2.136 3.5,-3 z"
       id="path1156" />
  </g>
  <g
     id="g1157"
     transform="translate(-458.4903,-769.40759)">
    <path
       style="opacity:1"
       fill="#e5e7e8"
       d="m 509.5,891.5 c -0.333,0 -0.667,0 -1,0 -1.185,-1.357 -2.185,-2.857 -3,-4.5 0.532,-2.02 1.865,-2.853 4,-2.5 0,2.333 0,4.667 0,7 z"
       id="path1157" />
  </g>
  <g
     id="g1204"
     transform="translate(-458.4903,-769.40759)">
    <path
       style="opacity:1"
       fill="#f3f7f7"
       d="m 527.5,902.5 c 0.998,9.636 1.664,19.303 2,29 -0.342,0.838 -1.008,1.172 -2,1 -1.914,-5.581 -3.08,-11.581 -3.5,-18 -0.5,-9.327 -0.666,-18.661 -0.5,-28 0.825,-2.872 1.659,-5.872 2.5,-9 0.171,8.51 0.671,16.843 1.5,25 z"
       id="path1204" />
  </g>
  <g
     id="g1208"
     transform="translate(-458.4903,-769.40759)">
    <path
       style="opacity:1"
       fill="#c3dee6"
       d="m 529.5,878.5 c -0.617,0.111 -1.117,0.444 -1.5,1 -0.5,7.659 -0.666,15.326 -0.5,23 -0.829,-8.157 -1.329,-16.49 -1.5,-25 -0.841,3.128 -1.675,6.128 -2.5,9 -0.158,-3.402 0.176,-6.736 1,-10 0.88,-2.762 2.046,-5.429 3.5,-8 2.91,1.081 5.41,2.748 7.5,5 -3.617,-0.745 -5.617,0.921 -6,5 z"
       id="path1208" />
  </g>
  <g
     id="g1210"
     transform="translate(-458.4903,-769.40759)">
    <path
       style="opacity:1"
       fill="#dcdddf"
       d="m 507.5,894.5 c 1.225,0.652 1.892,1.819 2,3.5 -0.108,1.681 -0.775,2.848 -2,3.5 -1.185,-1.357 -2.185,-2.857 -3,-4.5 0.248,-1.749 1.248,-2.582 3,-2.5 z"
       id="path1210" />
  </g>
  <g
     id="g1213"
     transform="translate(-458.4903,-769.40759)">
    <path
       style="opacity:1"
       fill="#e9eaeb"
       d="m 506.5,902.5 c -1.956,1.614 -3.956,3.281 -6,5 -2.465,-2.158 -2.965,-4.491 -1.5,-7 0.607,-2.702 0.44,-5.368 -0.5,-8 0.812,-2.123 1.478,-4.29 2,-6.5 -1.473,-3.336 -2.14,-6.836 -2,-10.5 3.716,0.819 7.382,0.819 11,0 0.42,1.826 0.42,3.826 0,6 -4.651,0.674 -6.151,3.341 -4.5,8 0.374,0.916 0.874,1.75 1.5,2.5 -5.263,3.535 -5.263,7.035 0,10.5 z"
       id="path1213" />
  </g>
  <g
     id="g1214"
     transform="translate(-458.4903,-769.40759)">
    <path
       style="opacity:1"
       fill="#659fb6"
       d="m 529.5,878.5 c -0.643,3.933 0.357,7.266 3,10 -0.119,13.383 0.548,26.716 2,40 -1.159,1.75 -2.826,2.75 -5,3 -0.336,-9.697 -1.002,-19.364 -2,-29 -0.166,-7.674 0,-15.341 0.5,-23 0.383,-0.556 0.883,-0.889 1.5,-1 z"
       id="path1214" />
  </g>
  <g
     id="g1215"
     transform="translate(-458.4903,-769.40759)">
    <path
       style="opacity:1"
       fill="#979899"
       d="m 538.5,894.5 c -0.983,3.798 -1.317,7.798 -1,12 -1.15,-4.816 -1.316,-9.816 -0.5,-15 0.513,1.027 1.013,2.027 1.5,3 z"
       id="path1215" />
  </g>
  <g
     id="g1216"
     transform="translate(-458.4903,-769.40759)">
    <path
       style="opacity:1"
       fill="#c2c5c9"
       d="m 495.5,895.5 c 1.086,0.12 1.753,0.787 2,2 -0.333,0.667 -0.667,1.333 -1,2 -0.929,-1.189 -1.262,-2.522 -1,-4 z"
       id="path1216" />
  </g>
  <g
     id="g1217"
     transform="translate(-458.4903,-769.40759)">
    <path
       style="opacity:1"
       fill="#76adc3"
       d="m 524.5,876.5 c -0.824,3.264 -1.158,6.598 -1,10 -0.166,9.339 0,18.673 0.5,28 0.42,6.419 1.586,12.419 3.5,18 0,0.333 0,0.667 0,1 -5.305,0.694 -10.638,1.028 -16,1 0,-16.333 0,-32.667 0,-49 -0.306,-2.885 0.027,-5.552 1,-8 1.154,18.618 1.821,37.285 2,56 1.667,0 3.333,0 5,0 -0.401,-18.513 -1.734,-36.846 -4,-55 1.544,0.203 2.878,0.87 4,2 1.686,-1.357 3.352,-2.69 5,-4 z"
       id="path1217" />
  </g>
  <g
     id="g1223"
     transform="translate(-458.4903,-769.40759)">
    <path
       style="opacity:1"
       fill="#566168"
       d="m 480.5,895.5 c -0.427,4.324 -0.761,8.658 -1,13 -0.333,0 -0.667,0 -1,0 -0.165,-3.35 0.002,-6.683 0.5,-10 0.232,-1.237 0.732,-2.237 1.5,-3 z"
       id="path1223" />
  </g>
  <g
     id="g1248"
     transform="translate(-458.4903,-769.40759)">
    <path
       style="opacity:1"
       fill="#edf5f6"
       d="m 512.5,877.5 c 1.291,-0.237 2.291,0.096 3,1 2.266,18.154 3.599,36.487 4,55 -1.667,0 -3.333,0 -5,0 -0.179,-18.715 -0.846,-37.382 -2,-56 z"
       id="path1248" />
  </g>
  <g
     id="g1249"
     transform="translate(-458.4903,-769.40759)">
    <path
       style="opacity:1"
       fill="#e1e1e4"
       d="m 547.5,900.5 c 0.827,5.151 1.327,10.484 1.5,16 0.449,2.632 1.283,5.132 2.5,7.5 -0.113,1.28 -0.78,2.113 -2,2.5 -4.219,-8.407 -4.886,-17.074 -2,-26 z"
       id="path1249" />
  </g>
  <g
     id="g1253"
     transform="translate(-458.4903,-769.40759)">
    <path
       style="opacity:1"
       fill="#e2e2e5"
       d="m 467.5,901.5 c 0.876,-0.131 1.543,0.202 2,1 -3.535,7.27 -5.202,14.936 -5,23 -1,0 -2,0 -3,0 -0.15,-8.599 1.85,-16.599 6,-24 z"
       id="path1253" />
  </g>
  <g
     id="g1256"
     transform="translate(-458.4903,-769.40759)">
    <path
       style="opacity:1"
       fill="#eaebee"
       d="m 498.5,909.5 c -0.526,1.73 -1.526,3.064 -3,4 0,-2.667 0,-5.333 0,-8 0.577,-1.273 1.243,-1.273 2,0 0.746,1.236 1.079,2.57 1,4 z"
       id="path1256" />
  </g>
  <g
     id="g1257"
     transform="translate(-458.4903,-769.40759)">
    <path
       style="opacity:1"
       fill="#e8eaeb"
       d="m 506.5,906.5 c 2.599,1.886 3.599,4.552 3,8 -1,0 -2,0 -3,0 -1.7,-1.71 -3.033,-3.71 -4,-6 0.868,-2.296 2.202,-2.963 4,-2 z"
       id="path1257" />
  </g>
  <g
     id="g1259"
     transform="translate(-458.4903,-769.40759)">
    <path
       style="opacity:1"
       fill="#2b363d"
       d="m 494.5,884.5 c -0.325,7.187 0.009,14.187 1,21 0,2.667 0,5.333 0,8 -0.667,6.667 -1.333,13.333 -2,20 -0.33,-16.509 0.004,-32.842 1,-49 z"
       id="path1259" />
  </g>
  <g
     id="g1260"
     transform="translate(-458.4903,-769.40759)">
    <path
       style="opacity:1"
       fill="#dadcd9"
       d="m 532.5,888.5 c 0.958,0.453 1.792,1.119 2.5,2 0.264,11.547 1.097,23.047 2.5,34.5 0.222,2.275 -0.778,3.441 -3,3.5 -1.452,-13.284 -2.119,-26.617 -2,-40 z"
       id="path1260" />
  </g>
  <g
     id="g1269"
     transform="translate(-458.4903,-769.40759)">
    <path
       style="opacity:1"
       fill="#6ca0b9"
       d="m 486.5,877.5 c 0.6,1.4 1.6,2.4 3,3 -0.903,2.891 -1.236,5.891 -1,9 -0.866,9.973 -1.199,19.973 -1,30 -0.985,4.134 -1.318,8.468 -1,13 -2.053,0.098 -3.72,-0.569 -5,-2 1.072,-17.598 2.738,-35.264 5,-53 z"
       id="path1269" />
  </g>
  <g
     id="g1272"
     transform="translate(-458.4903,-769.40759)">
    <path
       style="opacity:1"
       fill="#e7f2f5"
       d="m 487.5,919.5 c -0.199,-10.027 0.134,-20.027 1,-30 0.814,-2.131 1.314,-4.464 1.5,-7 0.667,-0.667 1.333,-1.333 2,-2 0.305,17.335 0.138,34.668 -0.5,52 -1.333,0 -2.667,0 -4,0 0,-4.333 0,-8.667 0,-13 z"
       id="path1272" />
  </g>
  <g
     id="g1276"
     transform="translate(-458.4903,-769.40759)">
    <path
       style="opacity:1"
       fill="#e3e4e7"
       d="m 470.5,901.5 c 3.025,0.533 4.358,2.367 4,5.5 -0.853,7.061 -3.186,13.561 -7,19.5 -0.333,-0.833 -0.667,-1.667 -1,-2.5 3.386,-7.12 4.72,-14.62 4,-22.5 z"
       id="path1276" />
  </g>
  <g
     id="g1277"
     transform="translate(-458.4903,-769.40759)">
    <path
       style="opacity:1"
       fill="#e6e6e7"
       d="m 550.5,900.5 c 0.996,-0.086 1.829,0.248 2.5,1 2.914,7.807 3.747,15.807 2.5,24 -1,0 -2,0 -3,0 0.059,-3.19 0.393,-6.357 1,-9.5 -0.752,-4.506 -2.086,-8.84 -4,-13 0.243,-0.902 0.577,-1.735 1,-2.5 z"
       id="path1277" />
  </g>
  <g
     id="g1285"
     transform="translate(-458.4903,-769.40759)">
    <path
       style="opacity:1"
       fill="#94afc2"
       d="m 478.5,908.5 c 0.333,0 0.667,0 1,0 0.046,6.691 -0.288,13.357 -1,20 -0.917,-6.501 -0.917,-13.168 0,-20 z"
       id="path1285" />
  </g>
  <g
     id="g1286"
     transform="translate(-458.4903,-769.40759)">
    <path
       style="opacity:1"
       fill="#9fc7db"
       d="m 494.5,884.5 c -0.996,16.158 -1.33,32.491 -1,49 -2.559,0.302 -4.893,-0.032 -7,-1 -0.318,-4.532 0.015,-8.866 1,-13 0,4.333 0,8.667 0,13 1.333,0 2.667,0 4,0 0.638,-17.332 0.805,-34.665 0.5,-52 -0.667,0.667 -1.333,1.333 -2,2 -0.186,2.536 -0.686,4.869 -1.5,7 -0.236,-3.109 0.097,-6.109 1,-9 0.645,-1.312 1.645,-2.312 3,-3 3.257,1.529 3.923,3.862 2,7 z"
       id="path1286" />
  </g>
  <g
     id="g1293"
     transform="translate(-458.4903,-769.40759)">
    <path
       style="opacity:1"
       fill="#cbcccc"
       d="m 466.5,931.5 c 0,1 0,2 0,3 0.269,1.929 -0.231,3.595 -1.5,5 -0.651,-1.735 -0.485,-3.402 0.5,-5 -1.18,-2.581 -2.18,-2.414 -3,0.5 1.054,1.388 1.22,2.888 0.5,4.5 -2.482,-1.124 -2.982,-2.79 -1.5,-5 -2.903,-3.391 -2.236,-5.725 2,-7 3.468,-0.22 4.468,1.113 3,4 z"
       id="path1293" />
  </g>
  <g
     id="g1294"
     transform="translate(-458.4903,-769.40759)">
    <path
       style="opacity:1"
       fill="#eeeff0"
       d="m 557.5,927.5 c 0.38,2.198 -0.287,3.865 -2,5 -1.667,0 -3.333,0 -5,0 -0.951,-1.419 -1.284,-3.085 -1,-5 2.667,0 5.333,0 8,0 z"
       id="path1294" />
  </g>
  <g
     id="g1295"
     transform="translate(-458.4903,-769.40759)">
    <path
       style="opacity:1"
       fill="#131516"
       d="m 511.5,885.5 c 0,16.333 0,32.667 0,49 5.362,0.028 10.695,-0.306 16,-1 0,0.333 0,0.667 0,1 -1.238,0.31 -1.238,0.81 0,1.5 1.333,0.333 2.667,0.667 4,1 -0.525,0.692 -1.192,1.192 -2,1.5 -2,-1 -4,-2 -6,-3 -3.942,1.1 -7.942,1.267 -12,0.5 -1.41,-0.368 -2.41,-1.201 -3,-2.5 -1.896,-0.966 -3.896,-1.299 -6,-1 -0.248,7.567 -0.915,7.234 -2,-1 -1.322,0.17 -2.489,-0.163 -3.5,-1 -0.494,1.634 -0.66,3.301 -0.5,5 -5.195,0.556 -10.028,-0.444 -14.5,-3 -0.492,1.049 -0.326,2.049 0.5,3 -1.272,4.317 -1.938,8.817 -2,13.5 -0.058,5.565 0.442,11.065 1.5,16.5 4.609,2.01 9.442,2.51 14.5,1.5 1.586,-7.089 2.92,-14.255 4,-21.5 -1.105,-1.392 -2.439,-2.559 -4,-3.5 4.241,0.959 8.574,1.959 13,3 -1.973,0.495 -3.973,0.662 -6,0.5 -1.149,0.291 -1.816,1.124 -2,2.5 -0.756,3.125 -1.089,6.291 -1,9.5 -0.827,5.151 -1.327,10.484 -1.5,16 -1.255,0.711 -2.421,1.544 -3.5,2.5 1.333,2 1.333,4 0,6 -5.523,1.808 -11.189,3.308 -17,4.5 -2.512,-0.494 -4.845,-1.494 -7,-3 -1.282,-1.458 -1.282,-2.792 0,-4 1.09,-1.357 2.424,-2.357 4,-3 2.093,-0.545 4.093,-1.378 6,-2.5 -0.626,-0.75 -1.126,-1.584 -1.5,-2.5 -0.905,-13.722 -1.739,-27.389 -2.5,-41 1,0 2,0 3,0 0.333,0 0.667,0 1,0 1.28,1.431 2.947,2.098 5,2 2.107,0.968 4.441,1.302 7,1 0.667,-6.667 1.333,-13.333 2,-20 1.474,-0.936 2.474,-2.27 3,-4 2.198,-0.091 2.531,0.575 1,2 0,0.333 0,0.667 0,1 -3.591,2.282 -4.924,5.616 -4,10 1,0 2,0 3,0 1,1.333 2,1.333 3,0 0.667,1 1.333,2 2,3 2,0 4,0 6,0 0,-1 0,-2 0,-3 -0.667,-0.667 -1.333,-1.333 -2,-2 0.333,0 0.667,0 1,0 0.934,-1.068 1.268,-2.401 1,-4 -1.679,0.215 -2.679,-0.452 -3,-2 1,0 2,0 3,0 0.599,-3.448 -0.401,-6.114 -3,-8 3.92,-1.288 3.92,-2.622 0,-4 0,-0.667 0.333,-1 1,-1 1.225,-0.652 1.892,-1.819 2,-3.5 -0.108,-1.681 -0.775,-2.848 -2,-3.5 0.418,-0.722 1.084,-1.222 2,-1.5 -0.556,-0.383 -0.889,-0.883 -1,-1.5 0.333,0 0.667,0 1,0 0.667,-2 1.333,-4 2,-6 z"
       id="path1295" />
  </g>
  <g
     id="g1296"
     transform="translate(-458.4903,-769.40759)">
    <path
       style="opacity:1"
       fill="#e3e6ea"
       d="m 502.5,927.5 c 2.333,0 4.667,0 7,0 0,1 0,2 0,3 -2.333,0 -4.667,0 -7,0 0,-1 0,-2 0,-3 z"
       id="path1296" />
  </g>
  <g
     id="g1297"
     transform="translate(-458.4903,-769.40759)">
    <path
       style="opacity:1"
       fill="#9ab1ba"
       d="m 495.5,926.5 c 1.667,0 3.333,0 5,0 0,1 0,2 0,3 -1.667,0 -3.333,0 -5,0 0,-1 0,-2 0,-3 z"
       id="path1297" />
  </g>
  <g
     id="g1298"
     transform="translate(-458.4903,-769.40759)">
    <path
       style="opacity:1"
       fill="#eff1f3"
       d="m 509.5,922.5 c 0,1 0,2 0,3 -2,0 -4,0 -6,0 0,-1 0,-2 0,-3 2,0 4,0 6,0 z"
       id="path1298" />
  </g>
  <g
     id="g1299"
     transform="translate(-458.4903,-769.40759)">
    <path
       style="opacity:1"
       fill="#ebeef0"
       d="m 508.5,920.5 c -0.333,0 -0.667,0 -1,0 -6.277,-0.904 -5.944,-1.904 1,-3 0,1 0,2 0,3 z"
       id="path1299" />
  </g>
  <g
     id="g1300"
     transform="translate(-458.4903,-769.40759)">
    <path
       style="opacity:1"
       fill="#9d9fa2"
       d="m 499.5,912.5 c 0,-0.333 0,-0.667 0,-1 1.914,3.184 2.58,6.851 2,11 -1,1.333 -2,1.333 -3,0 1.277,-1.194 1.944,-2.86 2,-5 -0.007,-1.869 -0.34,-3.536 -1,-5 z"
       id="path1300" />
  </g>
  <g
     id="g1301"
     transform="translate(-458.4903,-769.40759)">
    <path
       style="opacity:1"
       fill="#d0d1d0"
       d="m 502.5,913.5 c 3.81,1.254 3.81,2.254 0,3 0,-1 0,-2 0,-3 z"
       id="path1301" />
  </g>
  <g
     id="g1302"
     transform="translate(-458.4903,-769.40759)">
    <path
       style="opacity:1"
       fill="#eeeff0"
       d="m 499.5,912.5 c 0.66,1.464 0.993,3.131 1,5 -0.056,2.14 -0.723,3.806 -2,5 -1,0 -2,0 -3,0 -0.924,-4.384 0.409,-7.718 4,-10 z"
       id="path1302" />
  </g>
  <g
     id="g1303"
     transform="translate(-458.4903,-769.40759)">
    <path
       style="opacity:1"
       fill="#c9cacc"
       d="m 546.5,930.5 c 2.512,0.716 2.512,1.716 0,3 -1.062,-0.925 -1.062,-1.925 0,-3 z"
       id="path1303" />
  </g>
  <g
     id="g1312"
     transform="translate(-458.4903,-769.40759)">
    <path
       style="opacity:1"
       fill="#808382"
       d="m 466.5,934.5 c 0,-1 0,-2 0,-3 3.039,-1.469 4.206,-0.469 3.5,3 -1.393,-2.625 -2.559,-2.625 -3.5,0 z"
       id="path1312" />
  </g>
  <g
     id="g1316"
     transform="translate(-458.4903,-769.40759)">
    <path
       style="opacity:1"
       fill="#8e8f8e"
       d="m 550.5,932.5 c 1.667,0 3.333,0 5,0 0.221,2.779 -0.112,5.446 -1,8 -0.333,0 -0.667,0 -1,0 0,-2.333 0,-4.667 0,-7 -1.291,0.237 -2.291,-0.096 -3,-1 z"
       id="path1316" />
  </g>
  <g
     id="g1317"
     transform="translate(-458.4903,-769.40759)">
    <path
       style="opacity:1"
       fill="#34394b"
       d="m 527.5,934.5 c 1.973,-0.987 3.973,-1.987 6,-3 1.337,11.247 3.004,22.413 5,33.5 -5.228,3.16 -10.895,4.16 -17,3 -0.833,-0.833 -1.667,-1.667 -2.5,-2.5 -2,-6 -4,-12 -6,-18 -0.69,-1.238 -1.19,-1.238 -1.5,0 -2.78,-0.578 -5.447,-1.245 -8,-2 2.027,0.162 4.027,-0.005 6,-0.5 -4.426,-1.041 -8.759,-2.041 -13,-3 1.561,0.941 2.895,2.108 4,3.5 -1.08,7.245 -2.414,14.411 -4,21.5 -5.058,1.01 -9.891,0.51 -14.5,-1.5 -1.058,-5.435 -1.558,-10.935 -1.5,-16.5 0.062,-4.683 0.728,-9.183 2,-13.5 -0.826,-0.951 -0.992,-1.951 -0.5,-3 4.472,2.556 9.305,3.556 14.5,3 -0.16,-1.699 0.006,-3.366 0.5,-5 1.011,0.837 2.178,1.17 3.5,1 1.085,8.234 1.752,8.567 2,1 2.104,-0.299 4.104,0.034 6,1 0.59,1.299 1.59,2.132 3,2.5 4.058,0.767 8.058,0.6 12,-0.5 2,1 4,2 6,3 0.808,-0.308 1.475,-0.808 2,-1.5 -1.333,-0.333 -2.667,-0.667 -4,-1 -1.238,-0.69 -1.238,-1.19 0,-1.5 z"
       id="path1317" />
  </g>
  <g
     id="g1319"
     transform="translate(-458.4903,-769.40759)">
    <path
       style="opacity:1"
       fill="#c6c7ca"
       d="m 550.5,934.5 c 1.149,0.291 1.816,1.124 2,2.5 -0.333,0.833 -0.667,1.667 -1,2.5 -0.952,-1.545 -1.285,-3.212 -1,-5 z"
       id="path1319" />
  </g>
  <g
     id="g1324"
     transform="translate(-458.4903,-769.40759)">
    <path
       style="opacity:1"
       fill="#3a3a3a"
       d="m 557.5,927.5 c 2.346,2.886 3.18,6.22 2.5,10 -1.264,2.107 -3.097,3.107 -5.5,3 0.888,-2.554 1.221,-5.221 1,-8 1.713,-1.135 2.38,-2.802 2,-5 z"
       id="path1324" />
  </g>
  <g
     id="g1335"
     transform="translate(-458.4903,-769.40759)">
    <path
       style="opacity:1"
       fill="#f7f7f7"
       d="m 503.5,945.5 c 2.553,0.755 5.22,1.422 8,2 2.413,7.569 4.413,15.236 6,23 0.285,1.788 -0.048,3.455 -1,5 -5,-0.667 -10,-1.333 -15,-2 -0.995,-5.292 -1.328,-10.625 -1,-16 -0.089,-3.209 0.244,-6.375 1,-9.5 0.184,-1.376 0.851,-2.209 2,-2.5 z"
       id="path1335" />
  </g>
  <g
     id="g1355"
     transform="translate(-458.4903,-769.40759)">
    <path
       style="opacity:1"
       fill="#343749"
       d="m 481.5,967.5 c 5.55,2.172 11.217,2.505 17,1 0,1.333 0,2.667 0,4 -5.457,1.579 -10.791,1.245 -16,-1 -0.929,-1.189 -1.262,-2.522 -1,-4 z"
       id="path1355" />
  </g>
  <g
     id="g1356"
     transform="translate(-458.4903,-769.40759)">
    <path
       style="opacity:1"
       fill="#dbdbdc"
       d="m 500.5,957.5 c -0.328,5.375 0.005,10.708 1,16 5,0.667 10,1.333 15,2 0.952,-1.545 1.285,-3.212 1,-5 0.379,2.753 1.879,4.753 4.5,6 0.21,2.734 1.044,5.234 2.5,7.5 2.523,0.518 4.523,1.852 6,4 2.045,0.49 4.045,0.323 6,-0.5 0.667,0 1,-0.333 1,-1 3.745,0.297 6.411,-1.203 8,-4.5 -1.874,-2.696 -3.874,-5.196 -6,-7.5 0.869,-2.217 1.202,-4.55 1,-7 0.973,2.448 1.306,5.115 1,8 4.357,0.101 8.357,1.268 12,3.5 1.298,2.499 0.964,4.833 -1,7 -3.892,1.64 -7.892,2.973 -12,4 -21.913,4.282 -43.913,4.615 -66,1 -4.185,-0.758 -8.185,-2.091 -12,-4 -1.687,-1.913 -2.187,-4.08 -1.5,-6.5 3.83,-4.837 8.663,-6.17 14.5,-4 -1.576,0.643 -2.91,1.643 -4,3 -1.282,1.208 -1.282,2.542 0,4 2.155,1.506 4.488,2.506 7,3 5.811,-1.192 11.477,-2.692 17,-4.5 1.333,-2 1.333,-4 0,-6 1.079,-0.956 2.245,-1.789 3.5,-2.5 0.173,-5.516 0.673,-10.849 1.5,-16 z"
       id="path1356" />
  </g>
  <g
     id="g1357"
     transform="translate(-458.4903,-769.40759)">
    <path
       style="opacity:1"
       fill="#2f3244"
       d="m 536.5,967.5 c 2.703,2.798 2.036,4.965 -2,6.5 -4,0.667 -8,0.667 -12,0 -2.344,-1.185 -3.177,-3.018 -2.5,-5.5 5.744,2.785 11.244,2.452 16.5,-1 z"
       id="path1357" />
  </g>
  <g
     id="g1358"
     transform="translate(-458.4903,-769.40759)">
    <path
       style="opacity:1"
       fill="#e7e8e8"
       d="m 485.5,982.5 c -2,-1 -4,-2 -6,-3 -0.418,-0.722 -1.084,-1.222 -2,-1.5 1.333,-0.667 2.667,-1.333 4,-2 3.179,0.657 6.346,0.49 9.5,-0.5 3.337,0.004 4.837,1.67 4.5,5 -3.509,-0.042 -6.842,0.624 -10,2 z"
       id="path1358" />
  </g>
  <g
     id="g1359"
     transform="translate(-458.4903,-769.40759)">
    <path
       style="opacity:1"
       fill="#787978"
       d="m 479.5,979.5 c 2,1 4,2 6,3 -2.718,1.723 -5.551,2.39 -8.5,2 -0.772,-1.349 -1.939,-2.182 -3.5,-2.5 0.84,-1.666 0.34,-1.833 -1.5,-0.5 -0.464,-0.594 -0.631,-1.261 -0.5,-2 2.578,-0.754 5.244,-0.754 8,0 z"
       id="path1359" />
  </g>
  <g
     id="g1360"
     transform="translate(-458.4903,-769.40759)">
    <path
       style="opacity:1"
       fill="#ddddde"
       d="m 533.5,976.5 c 2.726,-0.236 5.059,0.597 7,2.5 -0.556,0.383 -0.889,0.883 -1,1.5 -3.786,-0.18 -7.119,0.82 -10,3 -3.814,-0.151 -5.481,-2.151 -5,-6 3.045,-0.008 6.045,-0.341 9,-1 z"
       id="path1360" />
  </g>
  <g
     id="g1361"
     transform="translate(-458.4903,-769.40759)">
    <path
       style="opacity:1"
       fill="#3b3a3b"
       d="m 539.5,974.5 c 2.126,2.304 4.126,4.804 6,7.5 -1.589,3.297 -4.255,4.797 -8,4.5 0.881,-2.847 2.547,-4.014 5,-3.5 -0.578,-1.417 -1.578,-2.25 -3,-2.5 0.111,-0.617 0.444,-1.117 1,-1.5 -1.941,-1.903 -4.274,-2.736 -7,-2.5 1.714,-1.238 3.714,-1.905 6,-2 z"
       id="path1361" />
  </g>
  <g
     id="g1367"
     transform="translate(-458.4903,-769.40759)">
    <path
       style="opacity:1"
       fill="#828182"
       d="m 539.5,980.5 c 1.422,0.25 2.422,1.083 3,2.5 -2.453,-0.514 -4.119,0.653 -5,3.5 0,0.667 -0.333,1 -1,1 -1.114,-1.385 -2.114,-2.885 -3,-4.5 2.223,-0.566 4.223,-1.4 6,-2.5 z"
       id="path1367" />
  </g>
  <g
     id="g1373"
     transform="translate(-458.4903,-769.40759)">
    <path
       style="opacity:1"
       fill="#c9c8c9"
       d="m 529.5,983.5 c 1.846,-0.278 3.18,0.389 4,2 -2.333,1.441 -3.666,0.775 -4,-2 z"
       id="path1373" />
  </g>
</svg>
