<?xml version="1.0" encoding="UTF-8" standalone="no"?>
<svg
   version="1.1"
   width="128.82227"
   height="205.84189"
   style="clip-rule:evenodd;fill-rule:evenodd;image-rendering:optimizeQuality;shape-rendering:geometricPrecision;text-rendering:geometricPrecision"
   id="svg1400"
   xmlns="http://www.w3.org/2000/svg"
   xmlns:svg="http://www.w3.org/2000/svg">
  <defs
     id="defs1400" />
  <g
     id="g367"
     transform="translate(-264.68762,-292.74658)">
    <path
       style="opacity:1"
       fill="#2a2a28"
       d="m 390.5,375.5 c -0.667,0 -1,0.333 -1,1 -0.891,-0.61 -1.891,-0.943 -3,-1 -0.333,0 -0.667,0 -1,0 -0.321,-1.548 -1.321,-2.215 -3,-2 0,1 0,2 0,3 -0.667,-0.333 -1.333,-0.667 -2,-1 -0.553,-2.052 -1.553,-2.385 -3,-1 -0.904,0.709 -1.237,1.709 -1,3 0,0.667 -0.333,1 -1,1 0,-0.667 -0.333,-1 -1,-1 0.818,-5.142 0.485,-10.309 -1,-15.5 -0.326,-2.271 0.508,-3.771 2.5,-4.5 1.653,0.32 2.653,1.32 3,3 0.875,3.383 1.875,6.716 3,10 0.912,-4.139 2.246,-8.139 4,-12 1.333,-1.333 2.667,-1.333 4,0 0.292,4.555 -0.208,9.055 -1.5,13.5 0.362,1.434 1.028,2.601 2,3.5 z"
       id="path367" />
  </g>
  <g
     id="g368"
     transform="translate(-264.68762,-292.74658)">
    <path
       style="opacity:1"
       fill="#d8d8d9"
       d="m 387.5,359.5 c 1.546,3.538 0.88,6.705 -2,9.5 0.837,1.011 1.17,2.178 1,3.5 -1,0 -2,0 -3,0 0.874,-4.5 2.207,-8.833 4,-13 z"
       id="path368" />
  </g>
  <g
     id="g369"
     transform="translate(-264.68762,-292.74658)">
    <path
       style="opacity:1"
       fill="#cfd0d1"
       d="m 374.5,359.5 c 0.996,-0.086 1.829,0.248 2.5,1 1.772,3.813 2.605,7.813 2.5,12 -1,0 -2,0 -3,0 -0.507,-4.36 -1.173,-8.693 -2,-13 z"
       id="path369" />
  </g>
  <g
     id="g370"
     transform="translate(-264.68762,-292.74658)">
    <path
       style="opacity:1"
       fill="#cbced1"
       d="m 380.5,375.5 c -1.279,1.215 -2.279,0.882 -3,-1 1.447,-1.385 2.447,-1.052 3,1 z"
       id="path370" />
  </g>
  <g
     id="g371"
     transform="translate(-264.68762,-292.74658)">
    <path
       style="opacity:1"
       fill="#d6d9d9"
       d="m 385.5,375.5 c -0.709,0.904 -1.709,1.237 -3,1 0,-1 0,-2 0,-3 1.679,-0.215 2.679,0.452 3,2 z"
       id="path371" />
  </g>
  <g
     id="g377"
     transform="translate(-264.68762,-292.74658)">
    <path
       style="opacity:1"
       fill="#3f3e3e"
       d="m 304.5,370.5 c 1.279,1.468 2.946,2.135 5,2 -1.678,11.259 -2.345,22.593 -2,34 1,0 2,0 3,0 0,1.333 0,2.667 0,4 -0.722,-0.418 -1.222,-1.084 -1.5,-2 -0.249,1.124 -0.749,2.124 -1.5,3 -3.441,-4.094 -6.441,-8.427 -9,-13 2.667,-1 2.667,-2 0,-3 1.624,-3.29 3.957,-5.957 7,-8 -3.202,-0.735 -6.202,-1.902 -9,-3.5 0.544,-0.717 1.211,-1.217 2,-1.5 0.709,0.904 1.709,1.237 3,1 0.215,-1.679 -0.452,-2.679 -2,-3 0.629,-3.14 2.296,-5.64 5,-7.5 -0.228,-0.399 -0.562,-0.565 -1,-0.5 0.333,-0.667 0.667,-1.333 1,-2 z"
       id="path377" />
  </g>
  <g
     id="g478"
     transform="translate(-264.68762,-292.74658)">
    <path
       style="opacity:1"
       fill="#3a3939"
       d="m 294.5,374.5 c 0.418,0.722 1.084,1.222 2,1.5 -9.12,3.943 -8.787,4.943 1,3 -2.247,1.995 -3.247,4.495 -3,7.5 2.46,0.199 4.793,0.865 7,2 -2.849,2.42 -5.182,5.254 -7,8.5 3.37,5.236 6.87,10.403 10.5,15.5 1.376,8.598 1.876,17.265 1.5,26 -5.744,0.419 -11.078,-0.748 -16,-3.5 -1.711,-1.133 -2.211,-2.633 -1.5,-4.5 4.794,3.216 9.961,4.216 15.5,3 -5.827,-0.232 -11.16,-1.899 -16,-5 0.956,-1.575 1.623,-3.242 2,-5 1,-2.667 2,-5.333 3,-8 -0.146,-2.442 0.687,-3.109 2.5,-2 0.483,-0.948 0.649,-1.948 0.5,-3 -1.052,-0.149 -2.052,0.017 -3,0.5 -1.042,1.918 -2.208,3.751 -3.5,5.5 -0.575,-8.72 -0.575,-17.386 0,-26 -1.161,3.889 -2.161,7.889 -3,12 -0.5,0.5 -1,1 -1.5,1.5 -2.667,0.333 -5.333,0.667 -8,1 2.388,0.303 4.555,1.137 6.5,2.5 0.383,-0.556 0.883,-0.889 1.5,-1 0.333,0.667 0.667,1.333 1,2 -0.739,-0.131 -1.406,0.036 -2,0.5 0.857,0.689 1.523,1.522 2,2.5 -4.901,2.233 -8.901,5.566 -12,10 -7.717,-5.966 -9.551,-13.3 -5.5,-22 6.198,-6.532 12.698,-12.699 19.5,-18.5 -0.594,-0.464 -1.261,-0.631 -2,-0.5 1.504,-3.431 4.171,-5.431 8,-6 z"
       id="path478" />
  </g>
  <g
     id="g525"
     transform="translate(-264.68762,-292.74658)">
    <path
       style="opacity:1"
       fill="#343233"
       d="m 282.5,432.5 c 0.039,1.083 0.373,2.083 1,3 -1.131,1.104 -1.965,0.771 -2.5,-1 -0.483,0.948 -0.649,1.948 -0.5,3 -1.773,-0.814 -2.273,-2.148 -1.5,-4 1.011,-0.837 2.178,-1.17 3.5,-1 z"
       id="path525" />
  </g>
  <g
     id="g527"
     transform="translate(-264.68762,-292.74658)">
    <path
       style="opacity:1"
       fill="#8e9090"
       d="m 282.5,432.5 c 2.039,1.411 3.039,3.411 3,6 -1.716,-0.129 -3.383,-0.462 -5,-1 -0.149,-1.052 0.017,-2.052 0.5,-3 0.535,1.771 1.369,2.104 2.5,1 -0.627,-0.917 -0.961,-1.917 -1,-3 z"
       id="path527" />
  </g>
  <g
     id="g538"
     transform="translate(-264.68762,-292.74658)">
    <path
       style="opacity:1"
       fill="#19191a"
       d="m 367.5,392.5 c -2.311,3.84 -4.477,7.84 -6.5,12 -0.667,-1.333 -0.667,-2.667 0,-4 1.602,-1.869 2.602,-3.869 3,-6 -4.644,-4.314 -8.978,-8.98 -13,-14 -1.085,0.793 -2.252,1.46 -3.5,2 -2.579,-1.206 -5.079,-2.539 -7.5,-4 -0.048,2.044 0.452,4.044 1.5,6 -3.4,1.409 -6.733,2.909 -10,4.5 2.784,2.112 4.784,4.779 6,8 -1.78,2.784 -3.947,5.284 -6.5,7.5 0.451,-2.02 1.284,-4.02 2.5,-6 0.61,-0.891 0.943,-1.891 1,-3 -2.311,-2.647 -4.644,-5.314 -7,-8 4.154,-0.664 8.154,-1.831 12,-3.5 -1.518,-6.683 -5.518,-10.849 -12,-12.5 -0.257,6.632 -1.757,12.965 -4.5,19 -1.305,7.769 -1.805,15.435 -1.5,23 -0.969,8.248 -1.302,16.582 -1,25 0.06,0.543 0.393,0.876 1,1 1.314,-9.241 1.98,-9.241 2,0 5.344,-0.316 10.678,-0.816 16,-1.5 3.124,-0.479 5.957,-1.646 8.5,-3.5 0.177,-10.003 -0.157,-20.003 -1,-30 -4.738,-11.455 -4.071,-11.788 2,-1 4.626,6.296 10.626,10.296 18,12 3.603,0.073 6.603,-1.26 9,-4 3.238,-3.809 5.404,-8.142 6.5,-13 -8.712,-0.155 -13.045,-4.488 -13,-13 2.668,-1.995 4.335,-4.662 5,-8 0.667,0 1,0.333 1,1 -0.96,5.407 1.373,8.74 7,10 8.003,-2.296 8.003,-3.296 0,-3 -0.333,-0.5 -0.667,-1 -1,-1.5 1.203,-1.368 2.203,-2.868 3,-4.5 -0.209,-0.586 -0.543,-1.086 -1,-1.5 -2.31,-0.497 -4.643,-0.663 -7,-0.5 -0.237,-1.291 0.096,-2.291 1,-3 0.721,1.882 1.721,2.215 3,1 0.667,0.333 1.333,0.667 2,1 1.291,0.237 2.291,-0.096 3,-1 0.333,0 0.667,0 1,0 -0.078,2.752 -0.245,5.418 -0.5,8 2.238,-1.809 3.405,-4.142 3.5,-7 0,-0.667 0.333,-1 1,-1 2.832,1.907 3.666,4.573 2.5,8 -1.833,1.833 -3.667,3.667 -5.5,5.5 1.772,3.881 0.939,7.047 -2.5,9.5 -6.944,21.853 -18.611,24.853 -35,9 -0.384,7.213 0.116,14.379 1.5,21.5 -0.703,3.819 -1.703,7.486 -3,11 1.118,15.096 2.451,29.929 4,44.5 2.863,1.677 4.696,4.01 5.5,7 -4.295,3.119 -9.129,4.785 -14.5,5 -2.679,-2.101 -5.512,-4.101 -8.5,-6 -0.495,-1.973 -0.662,-3.973 -0.5,-6 -2.459,0.19 -4.126,-0.81 -5,-3 -1.1,-8.971 -3.433,-17.638 -7,-26 -2.657,-0.759 -5.323,-1.426 -8,-2 -2.463,8.148 -3.463,16.481 -3,25 0.416,2.86 -0.584,5.026 -3,6.5 0.83,1.465 0.996,2.965 0.5,4.5 -4.067,1.548 -8.234,2.882 -12.5,4 -0.438,0.065 -0.772,-0.101 -1,-0.5 1.237,-0.232 2.237,-0.732 3,-1.5 2.453,-1.317 5.12,-2.15 8,-2.5 1.333,-1.333 1.333,-2.667 0,-4 -5.88,-1.01 -11.546,-0.51 -17,1.5 -3.295,0.29 -5.295,1.957 -6,5 -1.585,-0.502 -2.085,-1.502 -1.5,-3 2.173,-1.433 4.34,-2.766 6.5,-4 3.723,0.142 4.556,-1.191 2.5,-4 -0.962,-13.985 -1.629,-27.985 -2,-42 -1.231,0.608 -2.564,0.941 -4,1 -2.008,0.193 -3.508,-0.474 -4.5,-2 1.617,0.538 3.284,0.871 5,1 0.039,-2.589 -0.961,-4.589 -3,-6 0,-0.667 0,-1.333 0,-2 -5.13,-1.292 -8.963,-4.292 -11.5,-9 -8.069,-8.826 -8.402,-17.826 -1,-27 5.373,-4.877 10.873,-9.544 16.5,-14 0.739,-0.131 1.406,0.036 2,0.5 -6.802,5.801 -13.302,11.968 -19.5,18.5 -4.051,8.7 -2.217,16.034 5.5,22 3.099,-4.434 7.099,-7.767 12,-10 -0.477,-0.978 -1.143,-1.811 -2,-2.5 0.594,-0.464 1.261,-0.631 2,-0.5 1.112,0.014 1.279,-0.986 0.5,-3 -0.383,0.556 -0.883,0.889 -1.5,1 -0.617,0.111 -1.117,0.444 -1.5,1 -1.945,-1.363 -4.112,-2.197 -6.5,-2.5 2.667,-0.333 5.333,-0.667 8,-1 0.5,-0.5 1,-1 1.5,-1.5 0.839,-4.111 1.839,-8.111 3,-12 -0.575,8.614 -0.575,17.28 0,26 1.292,-1.749 2.458,-3.582 3.5,-5.5 0.948,-0.483 1.948,-0.649 3,-0.5 0.149,1.052 -0.017,2.052 -0.5,3 -1.813,-1.109 -2.646,-0.442 -2.5,2 -1.997,2.013 -3.664,4.346 -5,7 0.457,0.798 1.124,1.131 2,1 -0.377,1.758 -1.044,3.425 -2,5 4.84,3.101 10.173,4.768 16,5 -5.539,1.216 -10.706,0.216 -15.5,-3 -0.711,1.867 -0.211,3.367 1.5,4.5 4.922,2.752 10.256,3.919 16,3.5 0.376,-8.735 -0.124,-17.402 -1.5,-26 -3.63,-5.097 -7.13,-10.264 -10.5,-15.5 1.818,-3.246 4.151,-6.08 7,-8.5 -2.207,-1.135 -4.54,-1.801 -7,-2 -0.247,-3.005 0.753,-5.505 3,-7.5 -9.787,1.943 -10.12,0.943 -1,-3 -0.916,-0.278 -1.582,-0.778 -2,-1.5 2.954,-0.771 5.954,-1.438 9,-2 0.438,-0.065 0.772,0.101 1,0.5 -2.704,1.86 -4.371,4.36 -5,7.5 -0.838,0.342 -1.172,1.008 -1,2 -0.789,0.283 -1.456,0.783 -2,1.5 2.798,1.598 5.798,2.765 9,3.5 -3.043,2.043 -5.376,4.71 -7,8 -1.333,1 -1.333,2 0,3 2.559,4.573 5.559,8.906 9,13 0.751,-0.876 1.251,-1.876 1.5,-3 0.278,0.916 0.778,1.582 1.5,2 0.82,1.64 1.653,3.307 2.5,5 1.039,-0.744 1.539,-1.744 1.5,-3 0.667,0 1,0.333 1,1 -0.247,2.358 0.419,4.358 2,6 -1.083,-0.039 -2.083,-0.373 -3,-1 -0.714,2.527 -1.38,5.027 -2,7.5 0.881,0.708 1.547,1.542 2,2.5 0,1.333 0,2.667 0,4 1.333,0 2.667,0 4,0 0.268,-1.599 -0.066,-2.932 -1,-4 1.932,-1.476 2.265,-3.143 1,-5 -0.709,-0.904 -1.709,-1.237 -3,-1 0.761,-0.891 1.761,-1.558 3,-2 0.993,-4.62 1.327,-9.286 1,-14 0,-1.333 0,-2.667 0,-4 -1,0 -2,0 -3,0 -0.271,1.88 0.396,3.213 2,4 0.237,1.291 -0.096,2.291 -1,3 -2.494,-3.244 -2.494,-6.41 0,-9.5 -1.102,-2.401 -1.269,-4.901 -0.5,-7.5 1.787,-2.569 3.62,-5.069 5.5,-7.5 -0.333,-0.5 -0.667,-1 -1,-1.5 -3.982,1.171 -7.982,1.171 -12,0 0.879,3.245 1.879,6.411 3,9.5 -1.523,4.35 -2.19,8.85 -2,13.5 -1,0 -2,0 -3,0 -0.345,-11.407 0.322,-22.741 2,-34 -2.054,0.135 -3.721,-0.532 -5,-2 -15.51,-1.355 -24.844,-9.522 -28,-24.5 -3.047,-37.952 14.286,-55.618 52,-53 27.211,4.231 39.044,20.065 35.5,47.5 -3.541,17.206 -14.041,27.373 -31.5,30.5 6.604,2.324 13.27,4.657 20,7 3.62,5.289 7.62,10.289 12,15 1.077,0.47 2.077,0.303 3,-0.5 z"
       id="path538" />
  </g>
  <g
     id="g539"
     transform="translate(-264.68762,-292.74658)">
    <path
       style="opacity:1"
       fill="#d9dde0"
       d="m 314.5,434.5 c 1.667,0 3.333,0 5,0 0,1.333 0,2.667 0,4 -3.45,0.744 -5.116,-0.59 -5,-4 z"
       id="path539" />
  </g>
  <g
     id="g540"
     transform="translate(-264.68762,-292.74658)">
    <path
       style="opacity:1"
       fill="#8898ae"
       d="m 308.5,434.5 c 1.478,-0.262 2.811,0.071 4,1 -0.667,0.333 -1.333,0.667 -2,1 -1.213,-0.247 -1.88,-0.914 -2,-2 z"
       id="path540" />
  </g>
  <g
     id="g541"
     transform="translate(-264.68762,-292.74658)">
    <path
       style="opacity:1"
       fill="#cccdce"
       d="m 282.5,430.5 c -0.611,-3.461 0.556,-6.128 3.5,-8 1.205,2.034 1.372,4.034 0.5,6 -0.951,-0.826 -1.951,-0.992 -3,-0.5 3.23,2.556 4.563,5.723 4,9.5 -0.95,-2.92 -2.616,-5.253 -5,-7 z"
       id="path541" />
  </g>
  <g
     id="g542"
     transform="translate(-264.68762,-292.74658)">
    <path
       style="opacity:1"
       fill="#8d8d8f"
       d="m 321.5,413.5 c 0.333,0 0.667,0 1,0 -0.61,8.464 -1.276,16.797 -2,25 -0.302,-8.418 0.031,-16.752 1,-25 z"
       id="path542" />
  </g>
  <g
     id="g543"
     transform="translate(-264.68762,-292.74658)">
    <path
       style="opacity:1"
       fill="#e8e9eb"
       d="m 314.5,428.5 c 1,0 2,0 3,0 0.934,1.068 1.268,2.401 1,4 -1.333,0 -2.667,0 -4,0 0,-1.333 0,-2.667 0,-4 z"
       id="path543" />
  </g>
  <g
     id="g544"
     transform="translate(-264.68762,-292.74658)">
    <path
       style="opacity:1"
       fill="#f1f1f2"
       d="m 315.5,422.5 c 1.291,-0.237 2.291,0.096 3,1 0,1 0,2 0,3 -1.333,0 -2.667,0 -4,0 -0.268,-1.599 0.066,-2.932 1,-4 z"
       id="path544" />
  </g>
  <g
     id="g545"
     transform="translate(-264.68762,-292.74658)">
    <path
       style="opacity:1"
       fill="#393738"
       d="m 283.5,414.5 c 1.333,0 2.667,0 4,0 0.16,1.699 -0.006,3.366 -0.5,5 -3.187,3.059 -6.687,5.393 -10.5,7 -0.16,-5.496 2.173,-9.496 7,-12 z"
       id="path545" />
  </g>
  <g
     id="g546"
     transform="translate(-264.68762,-292.74658)">
    <path
       style="opacity:1"
       fill="#a7a3aa"
       d="m 293.5,415.5 c -1,2.667 -2,5.333 -3,8 -0.876,0.131 -1.543,-0.202 -2,-1 1.336,-2.654 3.003,-4.987 5,-7 z"
       id="path546" />
  </g>
  <g
     id="g547"
     transform="translate(-264.68762,-292.74658)">
    <path
       style="opacity:1"
       fill="#c1bebe"
       d="m 309.5,417.5 c 2.472,1.249 2.639,2.915 0.5,5 -0.494,-1.634 -0.66,-3.301 -0.5,-5 z"
       id="path547" />
  </g>
  <g
     id="g548"
     transform="translate(-264.68762,-292.74658)">
    <path
       style="opacity:1"
       fill="#e0e0e0"
       d="m 317.5,419.5 c -1.581,-1.642 -2.247,-3.642 -2,-6 0.65,-0.304 1.317,-0.637 2,-1 1.297,2.473 1.297,4.807 0,7 z"
       id="path548" />
  </g>
  <g
     id="g549"
     transform="translate(-264.68762,-292.74658)">
    <path
       style="opacity:1"
       fill="#4a4949"
       d="m 318.5,406.5 c 0.333,0 0.667,0 1,0 0.327,4.714 -0.007,9.38 -1,14 -1.239,0.442 -2.239,1.109 -3,2 -0.934,1.068 -1.268,2.401 -1,4 1.333,0 2.667,0 4,0 0,-1 0,-2 0,-3 1.265,1.857 0.932,3.524 -1,5 -1,0 -2,0 -3,0 -0.453,-0.958 -1.119,-1.792 -2,-2.5 0.62,-2.473 1.286,-4.973 2,-7.5 0.917,0.627 1.917,0.961 3,1 1.297,-2.193 1.297,-4.527 0,-7 -0.683,0.363 -1.35,0.696 -2,1 0,-0.667 -0.333,-1 -1,-1 0.667,-1.333 1.667,-2.333 3,-3 0.904,-0.709 1.237,-1.709 1,-3 z"
       id="path549" />
  </g>
  <g
     id="g550"
     transform="translate(-264.68762,-292.74658)">
    <path
       style="opacity:1"
       fill="#eeeded"
       d="m 317.5,409.5 c -1.333,0.667 -2.333,1.667 -3,3 0.039,1.256 -0.461,2.256 -1.5,3 -0.847,-1.693 -1.68,-3.36 -2.5,-5 0,-1.333 0,-2.667 0,-4 -0.19,-4.65 0.477,-9.15 2,-13.5 -1.121,-3.089 -2.121,-6.255 -3,-9.5 4.018,1.171 8.018,1.171 12,0 0.333,0.5 0.667,1 1,1.5 -1.88,2.431 -3.713,4.931 -5.5,7.5 -0.769,2.599 -0.602,5.099 0.5,7.5 -2.494,3.09 -2.494,6.256 0,9.5 z"
       id="path550" />
  </g>
  <g
     id="g551"
     transform="translate(-264.68762,-292.74658)">
    <path
       style="opacity:1"
       fill="#dad5da"
       d="m 286.5,408.5 c -0.333,-0.667 -0.667,-1.333 -1,-2 0.617,-0.111 1.117,-0.444 1.5,-1 0.779,2.014 0.612,3.014 -0.5,3 z"
       id="path551" />
  </g>
  <g
     id="g552"
     transform="translate(-264.68762,-292.74658)">
    <path
       style="opacity:1"
       fill="#989997"
       d="m 319.5,406.5 c -0.333,0 -0.667,0 -1,0 -1.604,-0.787 -2.271,-2.12 -2,-4 1,0 2,0 3,0 0,1.333 0,2.667 0,4 z"
       id="path552" />
  </g>
  <g
     id="g553"
     transform="translate(-264.68762,-292.74658)">
    <path
       style="opacity:1"
       fill="#d8d7d7"
       d="m 298.5,395.5 c 2.667,1 2.667,2 0,3 -1.333,-1 -1.333,-2 0,-3 z"
       id="path553" />
  </g>
  <g
     id="g554"
     transform="translate(-264.68762,-292.74658)">
    <path
       style="opacity:1"
       fill="#393839"
       d="m 334.5,395.5 c -3.182,0.64 -3.515,1.64 -1,3 -1.216,1.98 -2.049,3.98 -2.5,6 2.553,-2.216 4.72,-4.716 6.5,-7.5 -1.216,-3.221 -3.216,-5.888 -6,-8 3.267,-1.591 6.6,-3.091 10,-4.5 -1.048,-1.956 -1.548,-3.956 -1.5,-6 2.421,1.461 4.921,2.794 7.5,4 1.248,-0.54 2.415,-1.207 3.5,-2 4.022,5.02 8.356,9.686 13,14 -0.398,2.131 -1.398,4.131 -3,6 -0.667,1.333 -0.667,2.667 0,4 2.023,-4.16 4.189,-8.16 6.5,-12 0.427,-2.51 1.093,-4.843 2,-7 -0.045,8.512 4.288,12.845 13,13 -1.096,4.858 -3.262,9.191 -6.5,13 -2.397,2.74 -5.397,4.073 -9,4 -7.374,-1.704 -13.374,-5.704 -18,-12 -6.071,-10.788 -6.738,-10.455 -2,1 0.843,9.997 1.177,19.997 1,30 -2.543,1.854 -5.376,3.021 -8.5,3.5 -5.322,0.684 -10.656,1.184 -16,1.5 -0.02,-9.241 -0.686,-9.241 -2,0 -0.607,-0.124 -0.94,-0.457 -1,-1 0.724,-8.203 1.39,-16.536 2,-25 -0.333,0 -0.667,0 -1,0 -0.305,-7.565 0.195,-15.231 1.5,-23 2.743,-6.035 4.243,-12.368 4.5,-19 6.482,1.651 10.482,5.817 12,12.5 -3.846,1.669 -7.846,2.836 -12,3.5 2.356,2.686 4.689,5.353 7,8 z"
       id="path554" />
  </g>
  <g
     id="g555"
     transform="translate(-264.68762,-292.74658)">
    <path
       style="opacity:1"
       fill="#131312"
       d="m 340.5,422.5 c 1.294,0.79 2.461,1.79 3.5,3 -0.077,-2.272 -1.243,-3.938 -3.5,-5 -0.866,-1.644 -1.366,-3.311 -1.5,-5 3.108,2.73 5.608,5.897 7.5,9.5 -0.43,1.434 -1.264,2.601 -2.5,3.5 -1.421,-1.905 -2.588,-3.905 -3.5,-6 z"
       id="path555" />
  </g>
  <g
     id="g556"
     transform="translate(-264.68762,-292.74658)">
    <path
       style="opacity:1"
       fill="#a9a9ae"
       d="m 340.5,420.5 c 2.257,1.062 3.423,2.728 3.5,5 -1.039,-1.21 -2.206,-2.21 -3.5,-3 0,-0.667 0,-1.333 0,-2 z"
       id="path556" />
  </g>
  <g
     id="g557"
     transform="translate(-264.68762,-292.74658)">
    <path
       style="opacity:1"
       fill="#9f9ea1"
       d="m 324.5,410.5 c 0.073,1.527 -0.594,2.527 -2,3 -0.073,-1.527 0.594,-2.527 2,-3 z"
       id="path557" />
  </g>
  <g
     id="g558"
     transform="translate(-264.68762,-292.74658)">
    <path
       style="opacity:1"
       fill="#a09c9f"
       d="m 324.5,410.5 c 0.531,-2.044 1.698,-3.711 3.5,-5 -0.077,2.272 -1.243,3.938 -3.5,5 z"
       id="path558" />
  </g>
  <g
     id="g559"
     transform="translate(-264.68762,-292.74658)">
    <path
       style="opacity:1"
       fill="#c5c5c5"
       d="m 334.5,395.5 c -0.057,1.109 -0.39,2.109 -1,3 -2.515,-1.36 -2.182,-2.36 1,-3 z"
       id="path559" />
  </g>
  <g
     id="g560"
     transform="translate(-264.68762,-292.74658)">
    <path
       style="opacity:1"
       fill="#cdc9cd"
       d="m 318.5,391.5 c 1.149,0.291 1.816,1.124 2,2.5 0.112,1.662 -0.554,2.829 -2,3.5 -1.019,-1.96 -1.019,-3.96 0,-6 z"
       id="path560" />
  </g>
  <g
     id="g561"
     transform="translate(-264.68762,-292.74658)">
    <path
       style="opacity:1"
       fill="#393839"
       d="m 371.5,385.5 c 3.426,1.576 6.76,3.409 10,5.5 1.634,0.494 3.301,0.66 5,0.5 0.079,1.43 -0.254,2.764 -1,4 -6.125,2.191 -10.959,0.525 -14.5,-5 -0.384,-1.697 -0.218,-3.363 0.5,-5 z"
       id="path561" />
  </g>
  <g
     id="g562"
     transform="translate(-264.68762,-292.74658)">
    <path
       style="opacity:1"
       fill="#c9cbc9"
       d="m 376.5,377.5 c 2.357,-0.163 4.69,0.003 7,0.5 0.457,0.414 0.791,0.914 1,1.5 -0.797,1.632 -1.797,3.132 -3,4.5 0.333,0.5 0.667,1 1,1.5 8.003,-0.296 8.003,0.704 0,3 -5.627,-1.26 -7.96,-4.593 -7,-10 0.667,0 1,-0.333 1,-1 z"
       id="path562" />
  </g>
  <g
     id="g563"
     transform="translate(-264.68762,-292.74658)">
    <path
       style="opacity:1"
       fill="#d7d8db"
       d="m 390.5,377.5 c 2.652,1.962 2.652,3.962 0,6 -0.731,-1.901 -0.731,-3.901 0,-6 z"
       id="path563" />
  </g>
  <g
     id="g564"
     transform="translate(-264.68762,-292.74658)">
    <path
       style="opacity:1"
       fill="#e7e8e7"
       d="m 333.5,381.5 c 1.175,-0.219 2.175,0.114 3,1 -1.552,1.298 -2.552,0.965 -3,-1 z"
       id="path564" />
  </g>
  <g
     id="g565"
     transform="translate(-264.68762,-292.74658)">
    <path
       style="opacity:1"
       fill="#d7d6d3"
       d="m 299.5,380.5 c 1.548,0.321 2.215,1.321 2,3 -1.291,0.237 -2.291,-0.096 -3,-1 -0.172,-0.992 0.162,-1.658 1,-2 z"
       id="path565" />
  </g>
  <g
     id="g566"
     transform="translate(-264.68762,-292.74658)">
    <path
       style="opacity:1"
       fill="#414142"
       d="m 378.5,379.5 c 4.921,-0.365 5.255,0.635 1,3 -0.886,-0.825 -1.219,-1.825 -1,-3 z"
       id="path566" />
  </g>
  <g
     id="g567"
     transform="translate(-264.68762,-292.74658)">
    <path
       style="opacity:1"
       fill="#dddddc"
       d="m 321.5,377.5 c 1.478,-0.262 2.811,0.071 4,1 -0.209,0.586 -0.543,1.086 -1,1.5 -2.118,0.26 -3.784,1.26 -5,3 -3.57,1.105 -5.57,-0.229 -6,-4 2.865,-0.183 5.531,-0.683 8,-1.5 z"
       id="path567" />
  </g>
  <g
     id="g568"
     transform="translate(-264.68762,-292.74658)">
    <path
       style="opacity:1"
       fill="#d2d4d5"
       d="m 386.5,375.5 c 1.109,0.057 2.109,0.39 3,1 -0.095,2.858 -1.262,5.191 -3.5,7 0.255,-2.582 0.422,-5.248 0.5,-8 z"
       id="path568" />
  </g>
  <g
     id="g569"
     transform="translate(-264.68762,-292.74658)">
    <path
       style="opacity:1"
       fill="#b4b5b5"
       d="m 310.5,377.5 c 1.976,0.927 2.309,2.26 1,4 -0.929,-1.189 -1.262,-2.522 -1,-4 z"
       id="path569" />
  </g>
  <g
     id="g570"
     transform="translate(-264.68762,-292.74658)">
    <path
       style="opacity:1"
       fill="#c7c7c8"
       d="m 312.5,372.5 c 3.667,0 7.333,0 11,0 0.125,3.393 -1.542,4.726 -5,4 -3.386,0.599 -5.386,-0.734 -6,-4 z"
       id="path570" />
  </g>
  <g
     id="g571"
     transform="translate(-264.68762,-292.74658)">
    <path
       style="opacity:1"
       fill="#d5d5d4"
       d="m 352.5,305.5 c 9.051,9.52 12.218,20.853 9.5,34 -3.439,17.765 -14.272,27.598 -32.5,29.5 -3.317,0.498 -6.65,0.665 -10,0.5 0,-1 0,-2 0,-3 24.967,-1.672 37.633,-15.172 38,-40.5 0.29,-7.341 -1.377,-14.174 -5,-20.5 z"
       id="path571" />
  </g>
  <g
     id="g572"
     transform="translate(-264.68762,-292.74658)">
    <path
       style="opacity:1"
       fill="#f9f9f9"
       d="m 352.5,305.5 c 3.623,6.326 5.29,13.159 5,20.5 -0.367,25.328 -13.033,38.828 -38,40.5 0,1 0,2 0,3 -33.68,1.491 -46.847,-14.176 -39.5,-47 4.016,-15.347 13.849,-24.514 29.5,-27.5 11.662,-1.39 22.995,-0.056 34,4 3.461,1.643 6.461,3.81 9,6.5 z"
       id="path572" />
  </g>
  <g
     id="g573"
     transform="translate(-264.68762,-292.74658)">
    <path
       style="opacity:1"
       fill="#151412"
       d="m 308.5,349.5 c -0.333,0.667 -0.667,1.333 -1,2 2.022,2.193 4.689,3.193 8,3 0,-1 0,-2 0,-3 -1.667,0 -3.333,0 -5,0 2.333,-1.333 4.667,-1.333 7,0 -1.274,0.689 -1.274,1.523 0,2.5 1.566,0.765 2.899,0.598 4,-0.5 0.667,-0.667 1.333,-1.333 2,-2 0.343,1.725 1.343,2.225 3,1.5 0.837,-1.011 1.17,-2.178 1,-3.5 -1.333,0 -2.667,0 -4,0 0.342,-0.838 1.008,-1.172 2,-1 1.333,0 2.667,0 4,0 0,1.667 0,3.333 0,5 -3.277,8.646 -9.61,12.146 -19,10.5 -7.926,-2.213 -11.26,-7.213 -10,-15 2.692,-0.43 5.359,-0.263 8,0.5 z"
       id="path573" />
  </g>
  <g
     id="g574"
     transform="translate(-264.68762,-292.74658)">
    <path
       style="opacity:1"
       fill="#d25551"
       d="m 311.5,356.5 c 4.346,-0.166 8.679,10e-4 13,0.5 -3.533,5.369 -8.366,6.869 -14.5,4.5 -0.613,-1.995 -0.113,-3.662 1.5,-5 z"
       id="path574" />
  </g>
  <g
     id="g575"
     transform="translate(-264.68762,-292.74658)">
    <path
       style="opacity:1"
       fill="#d1d2d3"
       d="m 307.5,351.5 c 1,0 2,0 3,0 1.667,0 3.333,0 5,0 0,1 0,2 0,3 -3.311,0.193 -5.978,-0.807 -8,-3 z"
       id="path575" />
  </g>
  <g
     id="g576"
     transform="translate(-264.68762,-292.74658)">
    <path
       style="opacity:1"
       fill="#e5e5e8"
       d="m 317.5,351.5 c 1.983,-0.343 3.317,0.324 4,2 -1.101,1.098 -2.434,1.265 -4,0.5 -1.274,-0.977 -1.274,-1.811 0,-2.5 z"
       id="path576" />
  </g>
  <g
     id="g577"
     transform="translate(-264.68762,-292.74658)">
    <path
       style="opacity:1"
       fill="#cfd0d5"
       d="m 323.5,349.5 c 1.333,0 2.667,0 4,0 0.17,1.322 -0.163,2.489 -1,3.5 -1.657,0.725 -2.657,0.225 -3,-1.5 0,-0.667 0,-1.333 0,-2 z"
       id="path577" />
  </g>
  <g
     id="g578"
     transform="translate(-264.68762,-292.74658)">
    <path
       style="opacity:1"
       fill="#dddee3"
       d="m 302.5,350.5 c 1.175,-0.219 2.175,0.114 3,1 -1.552,1.298 -2.552,0.965 -3,-1 z"
       id="path578" />
  </g>
  <g
     id="g579"
     transform="translate(-264.68762,-292.74658)">
    <path
       style="opacity:1"
       fill="#5e6060"
       d="m 308.5,349.5 c 5,0 10,0 15,0 0,0.667 0,1.333 0,2 -0.667,0.667 -1.333,1.333 -2,2 -0.683,-1.676 -2.017,-2.343 -4,-2 -2.333,-1.333 -4.667,-1.333 -7,0 -1,0 -2,0 -3,0 0.333,-0.667 0.667,-1.333 1,-2 z"
       id="path579" />
  </g>
  <g
     id="g580"
     transform="translate(-264.68762,-292.74658)">
    <path
       style="opacity:1"
       fill="#121212"
       d="m 311.5,336.5 c 3.62,0.952 5.287,3.285 5,7 -1.89,0.203 -3.39,-0.463 -4.5,-2 -1.11,1.537 -2.61,2.203 -4.5,2 0.498,-2.826 1.831,-5.16 4,-7 z"
       id="path580" />
  </g>
  <g
     id="g581"
     transform="translate(-264.68762,-292.74658)">
    <path
       style="opacity:1"
       fill="#d9d8d8"
       d="m 337.5,318.5 c -7.901,0.567 -12.234,4.9 -13,13 -0.069,8.26 3.931,12.593 12,13 -4.231,1.56 -6.565,4.56 -7,9 0,-1.667 0,-3.333 0,-5 -1.333,0 -2.667,0 -4,0 1.519,-0.91 3.185,-1.743 5,-2.5 -7.099,-5.05 -9.599,-11.883 -7.5,-20.5 2.906,-6.81 7.739,-9.143 14.5,-7 z"
       id="path581" />
  </g>
  <g
     id="g582"
     transform="translate(-264.68762,-292.74658)">
    <path
       style="opacity:1"
       fill="#cececf"
       d="m 298.5,319.5 c -5.822,-0.364 -9.655,2.303 -11.5,8 -1.18,5.597 -0.013,10.597 3.5,15 -1.322,0.17 -2.489,-0.163 -3.5,-1 -5.368,-8.623 -4.201,-16.123 3.5,-22.5 2.867,-0.801 5.534,-0.634 8,0.5 z"
       id="path582" />
  </g>
  <g
     id="g583"
     transform="translate(-264.68762,-292.74658)">
    <path
       style="opacity:1"
       fill="#08090a"
       d="m 337.5,318.5 c 5.466,2.133 8.133,6.133 8,12 0.48,7.067 -2.52,11.733 -9,14 -8.069,-0.407 -12.069,-4.74 -12,-13 0.766,-8.1 5.099,-12.433 13,-13 z"
       id="path583" />
  </g>
  <g
     id="g584"
     transform="translate(-264.68762,-292.74658)">
    <path
       style="opacity:1"
       fill="#070709"
       d="m 298.5,319.5 c 2.928,1.091 5.094,3.091 6.5,6 0.81,4.757 0.476,9.424 -1,14 -3.662,5.165 -8.162,6.165 -13.5,3 -3.513,-4.403 -4.68,-9.403 -3.5,-15 1.845,-5.697 5.678,-8.364 11.5,-8 z"
       id="path584" />
  </g>
  <g
     id="g599"
     transform="translate(-264.68762,-292.74658)">
    <path
       style="opacity:1"
       fill="#425c87"
       d="m 291.5,438.5 c 3.18,-0.324 4.347,1.01 3.5,4 -0.75,0.626 -1.584,1.126 -2.5,1.5 3.43,0.638 4.763,-0.862 4,-4.5 5.325,1.261 10.658,1.261 16,0 0.667,12 1.333,12 2,0 1.373,-0.157 2.707,0.01 4,0.5 -2.15,2.555 -2.483,5.388 -1,8.5 0.974,-2.243 1.308,-4.576 1,-7 5.397,0.285 10.73,-0.049 16,-1 1.597,4.276 4.597,6.609 9,7 0.202,-2.489 -0.298,-4.823 -1.5,-7 0.167,6.485 -1.666,6.652 -5.5,0.5 3.22,-1.352 6.553,-2.186 10,-2.5 1.287,11.985 2.12,23.985 2.5,36 -5.731,3.426 -11.565,3.759 -17.5,1 -2.651,-6.933 -5.151,-13.933 -7.5,-21 -3.325,-1.503 -6.825,-2.503 -10.5,-3 -2.613,7.789 -4.28,15.789 -5,24 -5.065,1.438 -10.065,1.272 -15,-0.5 -0.782,-2.74 -1.282,-5.574 -1.5,-8.5 -0.5,-9.327 -0.666,-18.661 -0.5,-28 z"
       id="path599" />
  </g>
  <g
     id="g619"
     transform="translate(-264.68762,-292.74658)">
    <path
       style="opacity:1"
       fill="#f5f5f5"
       d="m 329.5,481.5 c -5.487,0.633 -11.154,0.633 -17,0 0.237,-1.291 -0.096,-2.291 -1,-3 -0.463,-8.519 0.537,-16.852 3,-25 2.677,0.574 5.343,1.241 8,2 3.567,8.362 5.9,17.029 7,26 z"
       id="path619" />
  </g>
  <g
     id="g689"
     transform="translate(-264.68762,-292.74658)">
    <path
       style="opacity:1"
       fill="#4d69a1"
       d="m 292.5,477.5 c 5.667,1.333 11.333,1.333 17,0 -0.391,4.421 -2.891,6.087 -7.5,5 -3.042,0.135 -5.875,-0.531 -8.5,-2 -0.886,-0.825 -1.219,-1.825 -1,-3 z"
       id="path689" />
  </g>
  <g
     id="g690"
     transform="translate(-264.68762,-292.74658)">
    <path
       style="opacity:1"
       fill="#4a6594"
       d="m 348.5,476.5 c 1.844,0.704 2.344,2.037 1.5,4 -5.192,2.704 -10.692,3.537 -16.5,2.5 -1.921,-1.241 -2.254,-2.741 -1,-4.5 5.702,1.59 11.036,0.923 16,-2 z"
       id="path690" />
  </g>
  <g
     id="g707"
     transform="translate(-264.68762,-292.74658)">
    <path
       style="opacity:1"
       fill="#d2d3d4"
       d="m 311.5,478.5 c 0.904,0.709 1.237,1.709 1,3 5.846,0.633 11.513,0.633 17,0 0.874,2.19 2.541,3.19 5,3 -0.162,2.027 0.005,4.027 0.5,6 2.988,1.899 5.821,3.899 8.5,6 -1.256,-0.039 -2.256,0.461 -3,1.5 -11.359,-0.032 -22.526,0.135 -33.5,0.5 -4.238,0.46 -7.738,-0.874 -10.5,-4 0,-0.333 0,-0.667 0,-1 4.266,-1.118 8.433,-2.452 12.5,-4 0.496,-1.535 0.33,-3.035 -0.5,-4.5 2.416,-1.474 3.416,-3.64 3,-6.5 z"
       id="path707" />
  </g>
  <g
     id="g716"
     transform="translate(-264.68762,-292.74658)">
    <path
       style="opacity:1"
       fill="#555556"
       d="m 289.5,486.5 c 2.256,2.905 5.256,4.572 9,5 -0.763,0.768 -1.763,1.268 -3,1.5 0.228,0.399 0.562,0.565 1,0.5 0,0.333 0,0.667 0,1 -5.094,1.917 -9.427,0.917 -13,-3 0.705,-3.043 2.705,-4.71 6,-5 z"
       id="path716" />
  </g>
  <g
     id="g717"
     transform="translate(-264.68762,-292.74658)">
    <path
       style="opacity:1"
       fill="#8a8b8a"
       d="m 352.5,490.5 c 1.455,-0.43 2.788,-0.43 4,0 -1.365,2.625 -2.698,2.625 -4,0 z"
       id="path717" />
  </g>
  <g
     id="g718"
     transform="translate(-264.68762,-292.74658)">
    <path
       style="opacity:1"
       fill="#929293"
       d="m 344.5,490.5 c 0.528,1.221 1.195,2.387 2,3.5 -2.742,0.295 -5.075,-0.538 -7,-2.5 1.716,-0.129 3.383,-0.462 5,-1 z"
       id="path718" />
  </g>
  <g
     id="g719"
     transform="translate(-264.68762,-292.74658)">
    <path
       style="opacity:1"
       fill="#858585"
       d="m 350.5,488.5 c 0.203,1.544 0.87,2.878 2,4 -3.056,2.812 -5.056,2.145 -6,-2 1.171,-0.845 2.505,-1.511 4,-2 z"
       id="path719" />
  </g>
  <g
     id="g720"
     transform="translate(-264.68762,-292.74658)">
    <path
       style="opacity:1"
       fill="#e2e2e2"
       d="m 350.5,488.5 c -1.495,0.489 -2.829,1.155 -4,2 -0.667,0 -1.333,0 -2,0 -1.617,0.538 -3.284,0.871 -5,1 -2.413,-1.18 -3.413,-3.18 -3,-6 4.348,-0.409 8.681,-0.576 13,-0.5 1.832,0.748 3.499,1.748 5,3 -1.293,0.49 -2.627,0.657 -4,0.5 z"
       id="path720" />
  </g>
  <g
     id="g721"
     transform="translate(-264.68762,-292.74658)">
    <path
       style="opacity:1"
       fill="#eaeaec"
       d="m 298.5,491.5 c -3.744,-0.428 -6.744,-2.095 -9,-5 5.454,-2.01 11.12,-2.51 17,-1.5 1.333,1.333 1.333,2.667 0,4 -2.88,0.35 -5.547,1.183 -8,2.5 z"
       id="path721" />
  </g>
</svg>
