<?xml version="1.0" encoding="UTF-8" standalone="no"?>
<svg
   version="1.1"
   width="119.21071"
   height="212.38794"
   style="clip-rule:evenodd;fill-rule:evenodd;image-rendering:optimizeQuality;shape-rendering:geometricPrecision;text-rendering:geometricPrecision"
   id="svg1400"
   xmlns="http://www.w3.org/2000/svg"
   xmlns:svg="http://www.w3.org/2000/svg">
  <defs
     id="defs1400" />
  <g
     id="g1159"
     transform="translate(-253.28929,-784.12598)">
    <path
       style="opacity:1"
       fill="#1e1d1b"
       d="m 370.5,939.5 c 1.019,-2.04 1.019,-4.04 0,-6 -0.966,1.896 -1.299,3.896 -1,6 0.131,0.876 -0.202,1.543 -1,2 -1.467,-1.195 -2.967,-1.195 -4.5,0 -0.772,-0.145 -1.439,-0.478 -2,-1 -0.202,-1.756 -0.702,-3.422 -1.5,-5 -3.101,1.403 -4.267,0.403 -3.5,-3 0.637,-1.803 1.803,-3.136 3.5,-4 -3.08,-7.694 -4.747,-15.694 -5,-24 -3.35,-1.994 -4.85,-4.994 -4.5,-9 -0.972,1.805 -2.139,3.472 -3.5,5 0.693,1.018 1.359,2.018 2,3 0.172,0.992 -0.162,1.658 -1,2 -0.738,-3.763 -2.738,-4.763 -6,-3 1.886,3.297 1.219,5.797 -2,7.5 -7.442,1.408 -14.109,-0.259 -20,-5 -3.167,-0.833 -4.333,0.333 -3.5,3.5 1.73,1.902 3.563,3.569 5.5,5 -1,1.333 -2,1.333 -3,0 -1.294,-0.79 -2.461,-1.79 -3.5,-3 -0.765,1.566 -0.598,2.899 0.5,4 2,0.667 4,1.333 6,2 -2.333,0 -4.667,0 -7,0 -0.215,1.679 0.452,2.679 2,3 1.667,0.667 3.333,1.333 5,2 -2,0 -4,0 -6,0 -0.17,1.322 0.163,2.489 1,3.5 1.973,0.495 3.973,0.662 6,0.5 -1.765,0.961 -3.765,1.295 -6,1 -2.745,-1.237 -5.078,-3.07 -7,-5.5 -3.56,-1.237 -7.227,-1.737 -11,-1.5 -0.667,0 -1,-0.333 -1,-1 -8.106,-2.985 -10.106,-8.485 -6,-16.5 -0.333,-0.5 -0.667,-1 -1,-1.5 -1.341,3.828 -4.008,5.995 -8,6.5 -8.87,-0.107 -15.87,-3.94 -21,-11.5 -9.149,-1.43 -11.482,-6.264 -7,-14.5 2.752,-0.212 5.252,-1.045 7.5,-2.5 3.262,4.586 7.095,8.752 11.5,12.5 9.526,0.135 14.026,-4.698 13.5,-14.5 2.519,-2.525 4.686,-5.358 6.5,-8.5 2.4,-1.701 5.067,-2.534 8,-2.5 3.317,0.553 6.65,0.886 10,1 0,-1 0,-2 0,-3 -24.929,-1.599 -36.929,-14.932 -36,-40 7.59,-31.976 27.59,-44.476 60,-37.5 19.568,5.277 29.401,18.11 29.5,38.5 3.638,4.447 2.972,8.114 -2,11 -2.554,12.22 -9.721,20.387 -21.5,24.5 -5.156,1.962 -10.489,2.795 -16,2.5 0,1 0,2 0,3 5.762,-0.351 11.428,0.149 17,1.5 3.034,1.191 4.701,3.358 5,6.5 3.152,-0.541 5.652,0.459 7.5,3 -0.213,7.574 2.787,13.574 9,18 0.742,4.823 2.075,9.489 4,14 0.477,8.797 1.643,17.464 3.5,26 -0.167,1.333 -0.333,2.667 -0.5,4 -0.383,0.556 -0.883,0.889 -1.5,1 z"
       id="path1159" />
  </g>
  <g
     id="g1160"
     transform="translate(-253.28929,-784.12598)">
    <path
       style="opacity:1"
       fill="#989899"
       d="m 343.5,882.5 c 0.333,0 0.667,0 1,0 0,0.667 0,1.333 0,2 -4.397,3.349 -9.397,4.683 -15,4 2.758,-1.261 5.758,-2.094 9,-2.5 2.084,-0.697 3.751,-1.864 5,-3.5 z"
       id="path1160" />
  </g>
  <g
     id="g1161"
     transform="translate(-253.28929,-784.12598)">
    <path
       style="opacity:1"
       fill="#e0dfe1"
       d="m 255.5,885.5 c 1.984,-0.117 3.65,0.55 5,2 -2.67,1.59 -4.337,0.923 -5,-2 z"
       id="path1161" />
  </g>
  <g
     id="g1162"
     transform="translate(-253.28929,-784.12598)">
    <path
       style="opacity:1"
       fill="#f1f1f1"
       d="m 344.5,884.5 c 0,-0.667 0,-1.333 0,-2 -0.239,-1.967 0.094,-3.801 1,-5.5 2.86,0.762 5.526,0.429 8,-1 0.267,5.578 1.933,10.745 5,15.5 1.414,1.124 2.914,2.124 4.5,3 0.49,1.293 0.657,2.627 0.5,4 -3.05,-0.577 -5.05,0.59 -6,3.5 -1,0.667 -2,0.667 -3,0 -0.41,-4.826 -1.91,-9.326 -4.5,-13.5 -1.451,-1.964 -3.284,-3.297 -5.5,-4 z"
       id="path1162" />
  </g>
  <g
     id="g1163"
     transform="translate(-253.28929,-784.12598)">
    <path
       style="opacity:1"
       fill="#bfbfc1"
       d="m 262.5,880.5 c 2.619,0.903 3.286,2.569 2,5 -1.45,-1.35 -2.117,-3.016 -2,-5 z"
       id="path1163" />
  </g>
  <g
     id="g1164"
     transform="translate(-253.28929,-784.12598)">
    <path
       style="opacity:1"
       fill="#e4e3e6"
       d="m 256.5,883.5 c 1.92,-1.44 3.587,-1.107 5,1 -1.692,0.701 -3.358,0.367 -5,-1 z"
       id="path1164" />
  </g>
  <g
     id="g1165"
     transform="translate(-253.28929,-784.12598)">
    <path
       style="opacity:1"
       fill="#e9e9ea"
       d="m 324.5,874.5 c 1.109,0.057 2.109,0.39 3,1 0,1 0,2 0,3 -2.424,-0.308 -4.757,0.026 -7,1 -1.112,0.765 -1.779,1.765 -2,3 -2.353,5.52 -0.353,8.353 6,8.5 -9.114,0.219 -10.781,3.553 -5,10 6.736,3.543 6.57,4.043 -0.5,1.5 -1.987,0.654 -3.32,1.987 -4,4 -1.167,-1.667 -2.333,-3.333 -3.5,-5 2.667,-3.667 2.667,-7.333 0,-11 1.239,-1.811 1.906,-3.811 2,-6 -1.485,-2.826 -2.485,-5.826 -3,-9 1.56,-0.019 3.06,-0.352 4.5,-1 1.667,0.667 3.333,1.333 5,2 1.406,-0.914 2.906,-1.58 4.5,-2 z"
       id="path1165" />
  </g>
  <g
     id="g1166"
     transform="translate(-253.28929,-784.12598)">
    <path
       style="opacity:1"
       fill="#f0f0f0"
       d="m 337.5,873.5 c 0,-0.333 0,-0.667 0,-1 2.082,-0.028 3.916,0.639 5.5,2 0.497,2.646 0.664,5.313 0.5,8 -1.249,1.636 -2.916,2.803 -5,3.5 -3.242,0.406 -6.242,1.239 -9,2.5 -3.018,0.165 -6.018,-0.002 -9,-0.5 -1.655,-1.444 -2.322,-3.278 -2,-5.5 6.315,-0.644 12.648,-1.477 19,-2.5 5.152,-2.046 5.152,-4.213 0,-6.5 z"
       id="path1166" />
  </g>
  <g
     id="g1167"
     transform="translate(-253.28929,-784.12598)">
    <path
       style="opacity:1"
       fill="#e8e8e8"
       d="m 298.5,872.5 c 2.357,-0.163 4.69,0.003 7,0.5 -3.003,1.166 -5.67,2.833 -8,5 0.667,1.333 1.667,2.333 3,3 3.711,0.175 7.378,0.675 11,1.5 1.247,1.542 1.247,3.042 0,4.5 -6.594,2.614 -12.427,1.447 -17.5,-3.5 -1.611,-5.199 -0.111,-8.866 4.5,-11 z"
       id="path1167" />
  </g>
  <g
     id="g1168"
     transform="translate(-253.28929,-784.12598)">
    <path
       style="opacity:1"
       fill="#111011"
       d="m 337.5,873.5 c 5.152,2.287 5.152,4.454 0,6.5 -6.352,1.023 -12.685,1.856 -19,2.5 0.221,-1.235 0.888,-2.235 2,-3 2.243,-0.974 4.576,-1.308 7,-1 0,-1 0,-2 0,-3 0.111,-0.617 0.444,-1.117 1,-1.5 2.982,-0.498 5.982,-0.665 9,-0.5 z"
       id="path1168" />
  </g>
  <g
     id="g1169"
     transform="translate(-253.28929,-784.12598)">
    <path
       style="opacity:1"
       fill="#585857"
       d="m 322.5,869.5 c 0.667,0 1.333,0 2,0 -1.35,1.324 -1.183,2.324 0.5,3 5.559,-2.01 11.059,-2.344 16.5,-1 -1.599,-0.268 -2.932,0.066 -4,1 0,0.333 0,0.667 0,1 -3.018,-0.165 -6.018,0.002 -9,0.5 -0.556,0.383 -0.889,0.883 -1,1.5 -0.891,-0.61 -1.891,-0.943 -3,-1 -0.709,-0.904 -1.709,-1.237 -3,-1 0.734,-1.208 1.067,-2.541 1,-4 z"
       id="path1169" />
  </g>
  <g
     id="g1170"
     transform="translate(-253.28929,-784.12598)">
    <path
       style="opacity:1"
       fill="#e1e1e1"
       d="m 322.5,869.5 c 0.067,1.459 -0.266,2.792 -1,4 -3.838,1.737 -5.838,0.404 -6,-4 2.333,0 4.667,0 7,0 z"
       id="path1170" />
  </g>
  <g
     id="g1171"
     transform="translate(-253.28929,-784.12598)">
    <path
       style="opacity:1"
       fill="#e7e6e7"
       d="m 297.5,867.5 c 5.362,-0.028 10.695,0.306 16,1 0,1.333 0,2.667 0,4 -3.626,-0.822 -7.293,-1.489 -11,-2 -2.686,0.512 -5.353,0.679 -8,0.5 1.21,-1.039 2.21,-2.206 3,-3.5 z"
       id="path1171" />
  </g>
  <g
     id="g1172"
     transform="translate(-253.28929,-784.12598)">
    <path
       style="opacity:1"
       fill="#efeff0"
       d="m 341.5,871.5 c -5.441,-1.344 -10.941,-1.01 -16.5,1 -1.683,-0.676 -1.85,-1.676 -0.5,-3 5.454,-2.01 11.12,-2.51 17,-1.5 6.476,2.992 6.476,4.159 0,3.5 z"
       id="path1172" />
  </g>
  <g
     id="g1173"
     transform="translate(-253.28929,-784.12598)">
    <path
       style="opacity:1"
       fill="#eaebea"
       d="m 324.5,866.5 c -3,1.333 -6,1.333 -9,0 1.014,-1.265 2.514,-1.931 4.5,-2 1.986,0.069 3.486,0.735 4.5,2 z"
       id="path1173" />
  </g>
  <g
     id="g1174"
     transform="translate(-253.28929,-784.12598)">
    <path
       style="opacity:1"
       fill="#7f7f7f"
       d="m 324.5,866.5 c -1.014,-1.265 -2.514,-1.931 -4.5,-2 -1.986,0.069 -3.486,0.735 -4.5,2 -0.904,-0.709 -1.237,-1.709 -1,-3 3.667,0 7.333,0 11,0 0.237,1.291 -0.096,2.291 -1,3 z"
       id="path1174" />
  </g>
  <g
     id="g1175"
     transform="translate(-253.28929,-784.12598)">
    <path
       style="opacity:1"
       fill="#d3d2d2"
       d="m 358.5,827.5 c 4.568,-0.417 6.068,1.583 4.5,6 -4.518,17.178 -15.684,26.345 -33.5,27.5 -7.179,0.821 -14.179,0.655 -21,-0.5 12.314,-0.229 23.981,-3.063 35,-8.5 7.421,-6.674 12.421,-14.84 15,-24.5 z"
       id="path1175" />
  </g>
  <g
     id="g1176"
     transform="translate(-253.28929,-784.12598)">
    <path
       style="opacity:1"
       fill="#f6f6f6"
       d="m 358.5,827.5 c -2.579,9.66 -7.579,17.826 -15,24.5 -11.019,5.437 -22.686,8.271 -35,8.5 -10.628,-0.895 -19.128,-5.562 -25.5,-14 -1.525,-3.22 -2.192,-6.553 -2,-10 5.299,4.984 11.466,6.318 18.5,4 0.667,1.667 1.333,3.333 2,5 5.465,11.568 13.798,14.068 25,7.5 2.615,-3.062 4.281,-6.562 5,-10.5 10.395,0.303 17.061,-4.53 20,-14.5 2.31,-0.497 4.643,-0.663 7,-0.5 z"
       id="path1176" />
  </g>
  <g
     id="g1177"
     transform="translate(-253.28929,-784.12598)">
    <path
       style="opacity:1"
       fill="#d65154"
       d="m 312.5,847.5 c 4.667,0 9.333,0 14,0 0.203,1.89 -0.463,3.39 -2,4.5 -4.307,2.553 -8.807,3.053 -13.5,1.5 -0.409,-2.195 0.091,-4.195 1.5,-6 z"
       id="path1177" />
  </g>
  <g
     id="g1178"
     transform="translate(-253.28929,-784.12598)">
    <path
       style="opacity:1"
       fill="#d3d4d6"
       d="m 326.5,841.5 c 1.855,-0.228 2.688,0.439 2.5,2 -1.444,1.655 -3.278,2.322 -5.5,2 0,-1 0,-2 0,-3 1.291,0.237 2.291,-0.096 3,-1 z"
       id="path1178" />
  </g>
  <g
     id="g1179"
     transform="translate(-253.28929,-784.12598)">
    <path
       style="opacity:1"
       fill="#f5f5f8"
       d="m 321.5,843.5 c -0.321,1.548 -1.321,2.215 -3,2 0.321,-1.548 1.321,-2.215 3,-2 z"
       id="path1179" />
  </g>
  <g
     id="g1180"
     transform="translate(-253.28929,-784.12598)">
    <path
       style="opacity:1"
       fill="#c3c2c4"
       d="m 306.5,841.5 c 0,1 0,2 0,3 -1,0 -2,0 -3,0 0,-1 0,-2 0,-3 1,0 2,0 3,0 z"
       id="path1180" />
  </g>
  <g
     id="g1181"
     transform="translate(-253.28929,-784.12598)">
    <path
       style="opacity:1"
       fill="#515150"
       d="m 306.5,841.5 c 4.333,0 8.667,0 13,0 0.667,0.667 1.333,1.333 2,2 -1.679,-0.215 -2.679,0.452 -3,2 -0.768,-0.763 -1.268,-1.763 -1.5,-3 -0.399,0.228 -0.565,0.562 -0.5,1 -1.679,-0.215 -2.679,0.452 -3,2 -0.667,0 -1.333,0 -2,0 0,-1 0,-2 0,-3 -1,0 -2,0 -3,0 0,1 0,2 0,3 -0.667,-0.333 -1.333,-0.667 -2,-1 0,-1 0,-2 0,-3 z"
       id="path1181" />
  </g>
  <g
     id="g1182"
     transform="translate(-253.28929,-784.12598)">
    <path
       style="opacity:1"
       fill="#dbdcdb"
       d="m 316.5,843.5 c -0.321,1.548 -1.321,2.215 -3,2 0.321,-1.548 1.321,-2.215 3,-2 z"
       id="path1182" />
  </g>
  <g
     id="g1183"
     transform="translate(-253.28929,-784.12598)">
    <path
       style="opacity:1"
       fill="#d5d6d7"
       d="m 311.5,845.5 c -1,0 -2,0 -3,0 0,-1 0,-2 0,-3 1,0 2,0 3,0 0,1 0,2 0,3 z"
       id="path1183" />
  </g>
  <g
     id="g1184"
     transform="translate(-253.28929,-784.12598)">
    <path
       style="opacity:1"
       fill="#666466"
       d="m 302.5,838.5 c 0.333,0.667 0.667,1.333 1,2 -1.756,1.052 -2.423,2.719 -2,5 -0.667,-1.667 -1.333,-3.333 -2,-5 0.79,-0.901 1.79,-1.568 3,-2 z"
       id="path1184" />
  </g>
  <g
     id="g1185"
     transform="translate(-253.28929,-784.12598)">
    <path
       style="opacity:1"
       fill="#eceaeb"
       d="m 319.5,841.5 c -4.333,0 -8.667,0 -13,0 -0.709,-0.904 -1.709,-1.237 -3,-1 -0.333,-0.667 -0.667,-1.333 -1,-2 1.629,-1.125 3.129,-2.459 4.5,-4 0.78,-3.012 1.947,-5.845 3.5,-8.5 2.31,-0.497 4.643,-0.663 7,-0.5 0.825,5.983 3.492,10.983 8,15 -1.896,0.966 -3.896,1.299 -6,1 z"
       id="path1185" />
  </g>
  <g
     id="g1186"
     transform="translate(-253.28929,-784.12598)">
    <path
       style="opacity:1"
       fill="#b05e3a"
       d="m 298.5,811.5 c 7.371,3.746 10.204,9.746 8.5,18 -5.276,10.759 -13.109,13.259 -23.5,7.5 -5.9,-7.499 -6.4,-15.333 -1.5,-23.5 4.439,-3.842 9.605,-5.009 15.5,-3.5 0.556,0.383 0.889,0.883 1,1.5 z"
       id="path1186" />
  </g>
  <g
     id="g1187"
     transform="translate(-253.28929,-784.12598)">
    <path
       style="opacity:1"
       fill="#161514"
       d="m 311.5,828.5 c 5.875,0.213 7.375,2.88 4.5,8 -1,-1 -2,-2 -3,-3 -3.363,3.667 -4.363,2.667 -3,-3 0.717,-0.544 1.217,-1.211 1.5,-2 z"
       id="path1187" />
  </g>
  <g
     id="g1188"
     transform="translate(-253.28929,-784.12598)">
    <path
       style="opacity:1"
       fill="#ca6a4d"
       d="m 351.5,825.5 c 4.146,-1.147 8.48,-1.314 13,-0.5 1.687,1.913 2.187,4.08 1.5,6.5 -0.346,-2.348 -1.513,-4.181 -3.5,-5.5 -3.652,-0.499 -7.318,-0.665 -11,-0.5 z"
       id="path1188" />
  </g>
  <g
     id="g1189"
     transform="translate(-253.28929,-784.12598)">
    <path
       style="opacity:1"
       fill="#1c1b1a"
       d="m 298.5,811.5 c 2.723,2.562 4.889,5.562 6.5,9 0.805,3.196 0.638,6.196 -0.5,9 -1.659,5.979 -5.659,8.979 -12,9 -8.094,-1.3 -12.427,-6.133 -13,-14.5 1.712,-11.189 8.045,-15.356 19,-12.5 z"
       id="path1189" />
  </g>
  <g
     id="g1190"
     transform="translate(-253.28929,-784.12598)">
    <path
       style="opacity:1"
       fill="#535657"
       d="m 303.5,822.5 c 0.968,2.107 1.302,4.441 1,7 -0.333,0 -0.667,0 -1,0 -0.416,-2.252 -1.749,-3.752 -4,-4.5 -4.506,-1.338 -8.173,-0.171 -11,3.5 -0.983,-3.529 0.35,-6.029 4,-7.5 4.005,-1.098 7.505,-0.265 10.5,2.5 0.399,-0.228 0.565,-0.562 0.5,-1 z"
       id="path1190" />
  </g>
  <g
     id="g1191"
     transform="translate(-253.28929,-784.12598)">
    <path
       style="opacity:1"
       fill="#f5f5f5"
       d="m 303.5,822.5 c 0.065,0.438 -0.101,0.772 -0.5,1 -2.995,-2.765 -6.495,-3.598 -10.5,-2.5 -3.65,1.471 -4.983,3.971 -4,7.5 2.827,-3.671 6.494,-4.838 11,-3.5 2.251,0.748 3.584,2.248 4,4.5 -2.959,6.473 -7.959,8.639 -15,6.5 -6.935,-4.509 -8.768,-10.676 -5.5,-18.5 4.739,-5.582 10.239,-6.415 16.5,-2.5 2.04,2.185 3.374,4.685 4,7.5 z"
       id="path1191" />
  </g>
  <g
     id="g1192"
     transform="translate(-253.28929,-784.12598)">
    <path
       style="opacity:1"
       fill="#b4623e"
       d="m 330.5,809.5 c 15.47,0.258 21.303,7.925 17.5,23 -5.849,8.25 -13.349,10.083 -22.5,5.5 -9.21,-11.447 -7.543,-20.947 5,-28.5 z"
       id="path1192" />
  </g>
  <g
     id="g1193"
     transform="translate(-253.28929,-784.12598)">
    <path
       style="opacity:1"
       fill="#23201d"
       d="m 344.5,816.5 c 5.129,5.68 5.296,11.68 0.5,18 -10.319,8.003 -17.986,6.003 -23,-6 -0.954,-12.713 4.879,-18.213 17.5,-16.5 2.208,1.047 3.874,2.547 5,4.5 z"
       id="path1193" />
  </g>
  <g
     id="g1194"
     transform="translate(-253.28929,-784.12598)">
    <path
       style="opacity:1"
       fill="#646465"
       d="m 336.5,812.5 c 2.895,0.899 5.562,2.233 8,4 0.057,1.109 0.39,2.109 1,3 -0.749,3.554 -1.582,7.22 -2.5,11 -3.728,4.285 -8.228,5.118 -13.5,2.5 -5.662,-9.805 -3.328,-16.638 7,-20.5 z"
       id="path1194" />
  </g>
  <g
     id="g1195"
     transform="translate(-253.28929,-784.12598)">
    <path
       style="opacity:1"
       fill="#e6e6e8"
       d="m 336.5,812.5 c -10.328,3.862 -12.662,10.695 -7,20.5 5.272,2.618 9.772,1.785 13.5,-2.5 0.918,-3.78 1.751,-7.446 2.5,-11 2.895,10.276 -0.939,16.276 -11.5,18 -9.189,-2.027 -12.522,-7.693 -10,-17 2.272,-5.556 6.439,-8.223 12.5,-8 z"
       id="path1195" />
  </g>
  <g
     id="g1196"
     transform="translate(-253.28929,-784.12598)">
    <path
       style="opacity:1"
       fill="#d0d0cf"
       d="m 354.5,798.5 c 6.036,6.774 9.036,14.774 9,24 -1.667,0 -3.333,0 -5,0 0.592,-8.368 -0.742,-16.368 -4,-24 z"
       id="path1196" />
  </g>
  <g
     id="g1197"
     transform="translate(-253.28929,-784.12598)">
    <path
       style="opacity:1"
       fill="#fafafa"
       d="m 354.5,798.5 c 3.258,7.632 4.592,15.632 4,24 -2.667,0 -5.333,0 -8,0 -2.125,-10.91 -8.791,-15.743 -20,-14.5 -6,2 -10,6 -12,12 -3.382,0.824 -6.716,0.657 -10,-0.5 -5.395,-10.702 -13.728,-14.202 -25,-10.5 5.407,-12.878 15.073,-20.211 29,-22 12.683,-1.886 24.683,0.114 36,6 2.496,1.331 4.496,3.164 6,5.5 z"
       id="path1197" />
  </g>
  <g
     id="g1199"
     transform="translate(-253.28929,-784.12598)">
    <path
       style="opacity:1"
       fill="#d8d8da"
       d="m 262.5,886.5 c 1.495,-0.085 2.495,0.581 3,2 -0.526,1.73 -1.526,3.064 -3,4 -1.194,-2.016 -1.194,-4.016 0,-6 z"
       id="path1199" />
  </g>
  <g
     id="g1202"
     transform="translate(-253.28929,-784.12598)">
    <path
       style="opacity:1"
       fill="#d8d8db"
       d="m 255.5,889.5 c 1.59,0.128 2.923,0.795 4,2 -2.333,1.441 -3.666,0.775 -4,-2 z"
       id="path1202" />
  </g>
  <g
     id="g1203"
     transform="translate(-253.28929,-784.12598)">
    <path
       style="opacity:1"
       fill="#e2e2e3"
       d="m 291.5,874.5 c 0.071,3.097 0.238,6.43 0.5,10 0.87,0.608 1.37,1.441 1.5,2.5 -3.056,3.954 -4.556,8.454 -4.5,13.5 -0.368,1.41 -1.201,2.41 -2.5,3 -0.131,-4.965 -2.464,-8.465 -7,-10.5 3.238,-0.232 5.738,-1.732 7.5,-4.5 1.544,-4.748 3.044,-9.414 4.5,-14 z"
       id="path1203" />
  </g>
  <g
     id="g1205"
     transform="translate(-253.28929,-784.12598)">
    <path
       style="opacity:1"
       fill="#f2f2f2"
       d="m 295.5,888.5 c 1.175,-0.219 2.175,0.114 3,1 -1.939,1.622 -2.272,3.456 -1,5.5 4.672,-0.158 9.339,-0.658 14,-1.5 0.398,4.325 -1.602,6.825 -6,7.5 -12.682,2.837 -16.016,-1.33 -10,-12.5 z"
       id="path1205" />
  </g>
  <g
     id="g1207"
     transform="translate(-253.28929,-784.12598)">
    <path
       style="opacity:1"
       fill="#f0f0f1"
       d="m 345.5,899.5 c -6.181,1.752 -12.514,2.419 -19,2 -3.439,-0.089 -6.272,-1.422 -8.5,-4 -0.684,-1.284 -0.517,-2.451 0.5,-3.5 6.928,1.052 13.928,1.386 21,1 1.68,-0.347 2.68,-1.347 3,-3 -0.648,-1.44 -0.981,-2.94 -1,-4.5 5.587,1.091 7.754,4.424 6.5,10 -0.708,0.881 -1.542,1.547 -2.5,2 z"
       id="path1207" />
  </g>
  <g
     id="g1211"
     transform="translate(-253.28929,-784.12598)">
    <path
       style="opacity:1"
       fill="#e1e1e3"
       d="m 264.5,894.5 c 3.287,0.764 5.954,2.597 8,5.5 3.456,1.481 6.789,3.148 10,5 -8.083,0.086 -14.083,-3.414 -18,-10.5 z"
       id="path1211" />
  </g>
  <g
     id="g1212"
     transform="translate(-253.28929,-784.12598)">
    <path
       style="opacity:1"
       fill="#e9e9ea"
       d="m 267.5,887.5 c 4.548,3.623 9.548,6.79 15,9.5 1.655,1.444 2.322,3.278 2,5.5 -1.373,0.157 -2.707,-0.01 -4,-0.5 -3.734,-5.198 -8.734,-8.365 -15,-9.5 0.956,-1.575 1.623,-3.242 2,-5 z"
       id="path1212" />
  </g>
  <g
     id="g1222"
     transform="translate(-253.28929,-784.12598)">
    <path
       style="opacity:1"
       fill="#7a797a"
       d="m 345.5,899.5 c -0.806,1.228 -1.806,2.228 -3,3 -5.526,0.321 -10.86,-0.012 -16,-1 6.486,0.419 12.819,-0.248 19,-2 z"
       id="path1222" />
  </g>
  <g
     id="g1245"
     transform="translate(-253.28929,-784.12598)">
    <path
       style="opacity:1"
       fill="#efeff0"
       d="m 348.5,905.5 c 0.606,5.904 -2.061,9.404 -8,10.5 -6.364,1.141 -12.364,0.308 -18,-2.5 -1.937,-1.431 -3.77,-3.098 -5.5,-5 -0.833,-3.167 0.333,-4.333 3.5,-3.5 5.891,4.741 12.558,6.408 20,5 3.219,-1.703 3.886,-4.203 2,-7.5 3.262,-1.763 5.262,-0.763 6,3 z"
       id="path1245" />
  </g>
  <g
     id="g1251"
     transform="translate(-253.28929,-784.12598)">
    <path
       style="opacity:1"
       fill="#efeeef"
       d="m 293.5,903.5 c 1.699,-0.16 3.366,0.006 5,0.5 -2.909,2.839 -2.575,5.006 1,6.5 4.468,-1.304 8.302,-3.637 11.5,-7 2.04,4.777 0.54,8.277 -4.5,10.5 -11.166,4.446 -15.5,0.946 -13,-10.5 z"
       id="path1251" />
  </g>
  <g
     id="g1255"
     transform="translate(-253.28929,-784.12598)">
    <path
       style="opacity:1"
       fill="#c3c1c4"
       d="m 327.5,907.5 c 2.272,-1.264 4.605,-1.098 7,0.5 -2.385,0.556 -4.718,0.39 -7,-0.5 z"
       id="path1255" />
  </g>
  <g
     id="g1262"
     transform="translate(-253.28929,-784.12598)">
    <path
       style="opacity:1"
       fill="#e2e1e2"
       d="m 313.5,910.5 c 1.143,3.476 1.31,7.142 0.5,11 -2.772,-2.261 -5.938,-3.761 -9.5,-4.5 3.776,-1.209 6.776,-3.376 9,-6.5 z"
       id="path1262" />
  </g>
  <g
     id="g1263"
     transform="translate(-253.28929,-784.12598)">
    <path
       style="opacity:1"
       fill="#bbb9bc"
       d="m 319.5,913.5 c -0.709,0.904 -1.709,1.237 -3,1 -1.098,-1.101 -1.265,-2.434 -0.5,-4 1.039,1.21 2.206,2.21 3.5,3 z"
       id="path1263" />
  </g>
  <g
     id="g1275"
     transform="translate(-253.28929,-784.12598)">
    <path
       style="opacity:1"
       fill="#eeecee"
       d="m 322.5,916.5 c 0.978,0.311 1.645,0.978 2,2 -2.243,0.974 -4.576,1.308 -7,1 -1.548,-0.321 -2.215,-1.321 -2,-3 2.333,0 4.667,0 7,0 z"
       id="path1275" />
  </g>
  <g
     id="g1280"
     transform="translate(-253.28929,-784.12598)">
    <path
       style="opacity:1"
       fill="#e7e6e8"
       d="m 359.5,901.5 c 0.595,7.488 1.929,14.988 4,22.5 -1.699,3.085 -2.866,2.585 -3.5,-1.5 -1.848,-6.231 -2.515,-12.565 -2,-19 0.717,-0.544 1.217,-1.211 1.5,-2 z"
       id="path1280" />
  </g>
  <g
     id="g1282"
     transform="translate(-253.28929,-784.12598)">
    <path
       style="opacity:1"
       fill="#e0dfe0"
       d="m 362.5,900.5 c 0.996,-0.086 1.829,0.248 2.5,1 2.744,7.794 3.744,15.794 3,24 -1.826,1.341 -2.993,0.841 -3.5,-1.5 0.572,-2.291 0.906,-4.625 1,-7 -1.452,-5.41 -2.452,-10.91 -3,-16.5 z"
       id="path1282" />
  </g>
  <g
     id="g1292"
     transform="translate(-253.28929,-784.12598)">
    <path
       style="opacity:1"
       fill="#d6d5d7"
       d="m 362.5,927.5 c 7.648,-0.987 9.314,1.347 5,7 1.145,1.391 1.145,2.724 0,4 -1.77,-5.174 -2.937,-4.841 -3.5,1 -0.642,-3.991 -1.142,-7.991 -1.5,-12 z"
       id="path1292" />
  </g>
  <g
     id="g1307"
     transform="translate(-253.28929,-784.12598)">
    <path
       style="opacity:1"
       fill="#d2d0d4"
       d="m 359.5,930.5 c 0.876,-0.131 1.543,0.202 2,1 -2.76,4.064 -3.426,3.731 -2,-1 z"
       id="path1307" />
  </g>
  <g
     id="g1322"
     transform="translate(-253.28929,-784.12598)">
    <path
       style="opacity:1"
       fill="#6a6a6a"
       d="m 370.5,939.5 c -0.333,0 -0.667,0 -1,0 -0.299,-2.104 0.034,-4.104 1,-6 1.019,1.96 1.019,3.96 0,6 z"
       id="path1322" />
  </g>
  <g
     id="g1336"
     transform="translate(-253.28929,-784.12598)">
    <path
       style="opacity:1"
       fill="#252424"
       d="m 349.5,903.5 c 2.199,6.865 -0.135,11.698 -7,14.5 6.326,5.466 6.659,11.299 1,17.5 0.645,1.146 1.478,2.146 2.5,3 0.333,3.667 0.667,7.333 1,11 0.667,0.667 1.333,1.333 2,2 0.56,5.181 0.393,10.348 -0.5,15.5 0.022,3.528 1.022,6.694 3,9.5 3.6,2.42 7.1,5.086 10.5,8 0.749,1.135 0.583,2.135 -0.5,3 -1.401,1.021 -2.735,2.021 -4,3 -2.676,0.508 -5.343,0.675 -8,0.5 -3.439,-2.139 -6.606,-4.639 -9.5,-7.5 0.56,-5.485 0.393,-10.819 -0.5,-16 -1.489,-2.978 -2.989,-5.978 -4.5,-9 -0.499,-2.522 -0.332,-5.022 0.5,-7.5 -0.125,-1.627 -0.625,-3.127 -1.5,-4.5 -3.046,-1.465 -5.879,-3.299 -8.5,-5.5 -2.872,-0.315 -5.705,-0.815 -8.5,-1.5 -2.323,1.652 -4.656,3.319 -7,5 -0.167,1.167 -0.333,2.333 -0.5,3.5 0.276,7.129 0.442,14.296 0.5,21.5 0.366,1.952 1.199,3.618 2.5,5 1.237,2.662 2.071,5.329 2.5,8 -6.785,4.642 -14.285,6.809 -22.5,6.5 -1.786,-0.785 -3.286,-1.951 -4.5,-3.5 -0.507,-1.496 -0.007,-2.663 1.5,-3.5 2.569,-0.898 4.902,-2.065 7,-3.5 3.634,0.343 5.301,-1.323 5,-5 -2.284,-6.237 -4.284,-12.571 -6,-19 1.507,-5.847 2.507,-11.847 3,-18 -6.598,-6.113 -6.598,-12.113 0,-18 0,0.667 0.333,1 1,1 -5.848,6.232 -5.182,11.566 2,16 1.193,5.589 4.526,7.423 10,5.5 2.055,-2.926 4.888,-4.093 8.5,-3.5 3.228,-0.508 5.728,0.492 7.5,3 2.606,1.152 5.273,1.318 8,0.5 1.55,-2.029 2.883,-4.196 4,-6.5 2.792,0.048 4.625,-1.285 5.5,-4 0.667,-2.333 0.667,-4.667 0,-7 -0.708,-0.881 -1.542,-1.547 -2.5,-2 -0.418,-0.722 -1.084,-1.222 -2,-1.5 -2.667,-0.667 -5.333,-0.667 -8,0 -2.963,1.961 -5.629,4.294 -8,7 -2.539,0.796 -4.872,0.629 -7,-0.5 2.235,0.295 4.235,-0.039 6,-1 0.641,-0.982 1.307,-1.982 2,-3 -0.825,-0.886 -1.825,-1.219 -3,-1 -1.667,-0.667 -3.333,-1.333 -5,-2 2.424,0.308 4.757,-0.026 7,-1 -0.355,-1.022 -1.022,-1.689 -2,-2 -2,-0.667 -4,-1.333 -6,-2 1.291,0.237 2.291,-0.096 3,-1 1,1.333 2,1.333 3,0 5.636,2.808 11.636,3.641 18,2.5 5.939,-1.096 8.606,-4.596 8,-10.5 0.838,-0.342 1.172,-1.008 1,-2 z"
       id="path1336" />
  </g>
  <g
     id="g1337"
     transform="translate(-253.28929,-784.12598)">
    <path
       style="opacity:1"
       fill="#cacaca"
       d="m 303.5,955.5 c 1.495,0.085 2.495,-0.581 3,-2 -0.667,-2.333 -1.333,-4.667 -2,-7 -0.828,-0.915 -1.828,-1.581 -3,-2 -0.67,1.791 -1.337,3.458 -2,5 0.049,-2.874 -0.284,-5.708 -1,-8.5 0.009,-1.404 0.509,-2.57 1.5,-3.5 0.899,4.07 3.399,6.07 7.5,6 -0.468,3.631 0.199,6.965 2,10 -1.42,2.841 -3.42,3.508 -6,2 z"
       id="path1337" />
  </g>
  <g
     id="g1338"
     transform="translate(-253.28929,-784.12598)">
    <path
       style="opacity:1"
       fill="#f5f6f5"
       d="m 303.5,955.5 c -1.935,0.65 -3.935,0.983 -6,1 -0.334,-2.688 0.332,-5.021 2,-7 0.663,-1.542 1.33,-3.209 2,-5 1.172,0.419 2.172,1.085 3,2 0.667,2.333 1.333,4.667 2,7 -0.505,1.419 -1.505,2.085 -3,2 z"
       id="path1338" />
  </g>
  <g
     id="g1339"
     transform="translate(-253.28929,-784.12598)">
    <path
       style="opacity:1"
       fill="#e8e7e8"
       d="m 339.5,937.5 c 1.644,-0.214 3.144,0.12 4.5,1 0.333,3.667 0.667,7.333 1,11 2.137,1.821 2.97,4.154 2.5,7 -3.12,-0.344 -5.953,0.323 -8.5,2 -0.772,-0.145 -1.439,-0.478 -2,-1 -0.498,-2.027 -0.331,-4.027 0.5,-6 -0.667,-2 -1.333,-4 -2,-6 1.803,-2.459 3.137,-5.126 4,-8 z"
       id="path1339" />
  </g>
  <g
     id="g1340"
     transform="translate(-253.28929,-784.12598)">
    <path
       style="opacity:1"
       fill="#f9fafa"
       d="m 339.5,967.5 c 0,3 0,6 0,9 -9.107,0.381 -18.107,-0.286 -27,-2 -1.301,-1.382 -2.134,-3.048 -2.5,-5 -0.058,-7.204 -0.224,-14.371 -0.5,-21.5 0.167,-1.167 0.333,-2.333 0.5,-3.5 2.344,-1.681 4.677,-3.348 7,-5 2.795,0.685 5.628,1.185 8.5,1.5 2.621,2.201 5.454,4.035 8.5,5.5 0.875,1.373 1.375,2.873 1.5,4.5 -0.832,2.478 -0.999,4.978 -0.5,7.5 1.511,3.022 3.011,6.022 4.5,9 z"
       id="path1340" />
  </g>
  <g
     id="g1341"
     transform="translate(-253.28929,-784.12598)">
    <path
       style="opacity:1"
       fill="#c1c0c2"
       d="m 342.5,921.5 c 0.958,0.453 1.792,1.119 2.5,2 0.667,2.333 0.667,4.667 0,7 -0.875,2.715 -2.708,4.048 -5.5,4 3.673,-3.696 4.673,-8.029 3,-13 z"
       id="path1341" />
  </g>
  <g
     id="g1342"
     transform="translate(-253.28929,-784.12598)">
    <path
       style="opacity:1"
       fill="#f0eff0"
       d="m 299.5,919.5 c 3.773,-0.237 7.44,0.263 11,1.5 1.922,2.43 4.255,4.263 7,5.5 2.128,1.129 4.461,1.296 7,0.5 2.371,-2.706 5.037,-5.039 8,-7 2.667,-0.667 5.333,-0.667 8,0 0.916,0.278 1.582,0.778 2,1.5 1.673,4.971 0.673,9.304 -3,13 -1.117,2.304 -2.45,4.471 -4,6.5 -2.727,0.818 -5.394,0.652 -8,-0.5 -1.772,-2.508 -4.272,-3.508 -7.5,-3 -3.612,-0.593 -6.445,0.574 -8.5,3.5 -5.474,1.923 -8.807,0.089 -10,-5.5 -7.182,-4.434 -7.848,-9.768 -2,-16 z"
       id="path1342" />
  </g>
  <g
     id="g1343"
     transform="translate(-253.28929,-784.12598)">
    <path
       style="opacity:1"
       fill="#161514"
       d="m 332.5,923.5 c 5.001,-0.829 7.168,1.171 6.5,6 -2.548,3.86 -6.048,5.36 -10.5,4.5 -1.054,-1.388 -1.22,-2.888 -0.5,-4.5 1.332,-2.16 2.832,-4.16 4.5,-6 z"
       id="path1343" />
  </g>
  <g
     id="g1344"
     transform="translate(-253.28929,-784.12598)">
    <path
       style="opacity:1"
       fill="#121110"
       d="m 301.5,924.5 c 6.593,-0.987 10.093,1.679 10.5,8 -4.873,2.753 -8.54,1.42 -11,-4 -0.579,-1.428 -0.412,-2.762 0.5,-4 z"
       id="path1344" />
  </g>
  <g
     id="g1345"
     transform="translate(-253.28929,-784.12598)">
    <path
       style="opacity:1"
       fill="#dfdee0"
       d="m 322.5,921.5 c 1.175,-0.219 2.175,0.114 3,1 -0.693,1.018 -1.359,2.018 -2,3 -2.027,0.162 -4.027,-0.005 -6,-0.5 -0.837,-1.011 -1.17,-2.178 -1,-3.5 2,0 4,0 6,0 z"
       id="path1345" />
  </g>
  <g
     id="g1346"
     transform="translate(-253.28929,-784.12598)">
    <path
       style="opacity:1"
       fill="#deddde"
       d="m 326.5,917.5 c 5.267,1.062 5.267,2.062 0,3 0,-1 0,-2 0,-3 z"
       id="path1346" />
  </g>
  <g
     id="g1349"
     transform="translate(-253.28929,-784.12598)">
    <path
       style="opacity:1"
       fill="#eaebeb"
       d="m 302.5,957.5 c 1.617,0.538 3.284,0.871 5,1 -0.165,3.682 10e-4,7.348 0.5,11 0.516,2.534 1.683,4.7 3.5,6.5 -0.608,0.87 -1.441,1.37 -2.5,1.5 -1.766,-0.733 -3.599,-1.067 -5.5,-1 -0.488,-6.447 -2.155,-12.447 -5,-18 1.599,0.268 2.932,-0.066 4,-1 z"
       id="path1349" />
  </g>
  <g
     id="g1350"
     transform="translate(-253.28929,-784.12598)">
    <path
       style="opacity:1"
       fill="#f0f0f1"
       d="m 342.5,958.5 c 1.667,0 3.333,0 5,0 -1.378,5.579 -1.045,11.079 1,16.5 -1.396,2.235 -3.396,3.402 -6,3.5 0.924,-6.269 -0.409,-11.936 -4,-17 1.684,-0.65 3.017,-1.65 4,-3 z"
       id="path1350" />
  </g>
  <g
     id="g1363"
     transform="translate(-253.28929,-784.12598)">
    <path
       style="opacity:1"
       fill="#e4e4e4"
       d="m 352.5,984.5 c -1.797,1.23 -3.797,1.896 -6,2 -3.146,-0.81 -4.813,-2.81 -5,-6 3.326,-0.845 6.66,-1.345 10,-1.5 2,1.333 4,2.667 6,4 -1,0.333 -2,0.667 -3,1 1.994,1.368 3.994,1.868 6,1.5 -0.387,1.22 -1.22,1.887 -2.5,2 -2.085,-0.624 -3.918,-1.624 -5.5,-3 z"
       id="path1363" />
  </g>
  <g
     id="g1364"
     transform="translate(-253.28929,-784.12598)">
    <path
       style="opacity:1"
       fill="#d4d4d5"
       d="m 339.5,967.5 c 0.893,5.181 1.06,10.515 0.5,16 2.894,2.861 6.061,5.361 9.5,7.5 2.657,0.175 5.324,0.008 8,-0.5 -1.777,1.1 -3.777,1.934 -6,2.5 -14.307,1.437 -28.641,1.77 -43,1 -4.208,-0.512 -8.208,-1.679 -12,-3.5 -6.229,1.522 -11.729,0.189 -16.5,-4 -0.749,-1.135 -0.583,-2.135 0.5,-3 2.167,-1.292 4.5,-2.125 7,-2.5 -0.556,-0.383 -0.889,-0.883 -1,-1.5 3.125,-0.979 6.458,-1.313 10,-1 -2.098,1.435 -4.431,2.602 -7,3.5 -1.507,0.837 -2.007,2.004 -1.5,3.5 1.214,1.549 2.714,2.715 4.5,3.5 8.215,0.309 15.715,-1.858 22.5,-6.5 -0.429,-2.671 -1.263,-5.338 -2.5,-8 8.893,1.714 17.893,2.381 27,2 0,-3 0,-6 0,-9 z"
       id="path1364" />
  </g>
  <g
     id="g1365"
     transform="translate(-253.28929,-784.12598)">
    <path
       style="opacity:1"
       fill="#eaebec"
       d="m 299.5,985.5 c -1.074,-1.385 -2.407,-2.551 -4,-3.5 1.501,-1.252 3.168,-2.252 5,-3 4.295,0.213 8.461,0.38 12.5,0.5 0.658,1.608 0.158,2.775 -1.5,3.5 -3.706,1.985 -7.706,2.818 -12,2.5 z"
       id="path1365" />
  </g>
  <g
     id="g1366"
     transform="translate(-253.28929,-784.12598)">
    <path
       style="opacity:1"
       fill="#e8e8e8"
       d="m 351.5,976.5 c 6.792,1.652 13.292,3.985 19.5,7 0.667,1.333 0.667,2.667 0,4 -2.03,2.237 -4.53,3.737 -7.5,4.5 -26.256,5.664 -52.589,5.998 -79,1 -4.572,-1.108 -8.238,-3.441 -11,-7 2.95,-4.718 7.283,-6.885 13,-6.5 0.111,0.617 0.444,1.117 1,1.5 -2.5,0.375 -4.833,1.208 -7,2.5 -1.083,0.865 -1.249,1.865 -0.5,3 4.771,4.189 10.271,5.522 16.5,4 3.792,1.821 7.792,2.988 12,3.5 14.359,0.77 28.693,0.437 43,-1 2.223,-0.566 4.223,-1.4 6,-2.5 1.265,-0.979 2.599,-1.979 4,-3 1.083,-0.865 1.249,-1.865 0.5,-3 -3.4,-2.914 -6.9,-5.58 -10.5,-8 z"
       id="path1366" />
  </g>
  <g
     id="g1377"
     transform="translate(-253.28929,-784.12598)">
    <path
       style="opacity:1"
       fill="#767674"
       d="m 352.5,984.5 c 0.203,1.544 0.87,2.878 2,4 -0.925,1.062 -1.925,1.062 -3,0 -0.891,-0.61 -1.891,-0.943 -3,-1 -0.992,0.172 -1.658,-0.162 -2,-1 2.203,-0.104 4.203,-0.77 6,-2 z"
       id="path1377" />
  </g>
  <g
     id="g1378"
     transform="translate(-253.28929,-784.12598)">
    <path
       style="opacity:1"
       fill="#8a8b89"
       d="m 299.5,985.5 c -2.358,3.494 -5.025,3.66 -8,0.5 1.431,-0.465 2.597,-1.299 3.5,-2.5 -0.077,1.238 0.089,2.238 0.5,3 1.236,-0.746 2.57,-1.079 4,-1 z"
       id="path1378" />
  </g>
  <g
     id="g1379"
     transform="translate(-253.28929,-784.12598)">
    <path
       style="opacity:1"
       fill="#e9e9eb"
       d="m 348.5,987.5 c 1.109,0.057 2.109,0.39 3,1 -1.279,1.215 -2.279,0.882 -3,-1 z"
       id="path1379" />
  </g>
</svg>
