<?xml version="1.0" encoding="UTF-8" standalone="no"?>
<svg
   version="1.1"
   width="105.02322"
   height="229.72574"
   style="clip-rule:evenodd;fill-rule:evenodd;image-rendering:optimizeQuality;shape-rendering:geometricPrecision;text-rendering:geometricPrecision"
   id="svg1400"
   xmlns="http://www.w3.org/2000/svg"
   xmlns:svg="http://www.w3.org/2000/svg">
  <defs
     id="defs1400" />
  <g
     id="g344"
     transform="translate(-456.47678,-272.54001)">
    <path
       style="opacity:1"
       fill="#2f2d2c"
       d="m 548.5,288.5 c 0.951,1.419 1.284,3.085 1,5 -0.722,-0.418 -1.222,-1.084 -1.5,-2 -0.49,1.293 -0.657,2.627 -0.5,4 9.076,0.653 11.076,4.82 6,12.5 2.584,2.561 4.251,5.561 5,9 0.056,3.449 -1.611,5.616 -5,6.5 3.689,8 1.022,11.667 -8,11 -0.182,-2.091 0.152,-4.091 1,-6 -5.834,-0.544 -7.501,-3.544 -5,-9 -1.491,-1.512 -3.324,-2.512 -5.5,-3 -1.582,-2.124 -1.749,-4.29 -0.5,-6.5 -1.679,-0.395 -3.345,-0.228 -5,0.5 -1.905,-0.565 -3.571,-1.565 -5,-3 -4.346,4.359 -9.179,5.026 -14.5,2 -0.399,0.228 -0.565,0.562 -0.5,1 -3.241,1.692 -6.741,2.692 -10.5,3 -3.297,0.266 -6.13,-0.734 -8.5,-3 -3.74,3.482 -7.74,3.815 -12,1 -1.021,1.688 -2.355,3.021 -4,4 -1.384,-1.301 -2.884,-1.301 -4.5,0 -0.42,4.459 -2.253,8.125 -5.5,11 -3.555,-2.229 -3.888,-4.896 -1,-8 -6.553,-4.733 -6.553,-9.4 0,-14 -3.858,-7.489 -1.524,-11.155 7,-11 -1.139,-9.529 2.861,-12.862 12,-10 0.354,-5.856 3.354,-8.023 9,-6.5 1.466,0.635 2.8,1.469 4,2.5 4.777,-6.583 9.61,-6.583 14.5,0 5.187,-5.699 9.521,-5.032 13,2 3.419,-3.348 7.252,-3.848 11.5,-1.5 1.516,1.897 2.183,4.064 2,6.5 2.357,-0.163 4.69,0.003 7,0.5 1.833,0.5 3,1.667 3.5,3.5 0.464,-0.594 0.631,-1.261 0.5,-2 z"
       id="path344" />
  </g>
  <g
     id="g374"
     transform="translate(-456.47678,-272.54001)">
    <path
       style="opacity:1"
       fill="#353434"
       d="m 558.5,430.5 c 0.624,0.417 0.957,1.084 1,2 -0.667,1.667 -1.333,3.333 -2,5 1.94,4.736 1.274,8.903 -2,12.5 -5.575,2.012 -8.409,0.179 -8.5,-5.5 -2.167,1.5 -3.667,1 -4.5,-1.5 0.984,-1.657 1.984,-3.323 3,-5 -0.833,-0.833 -1.667,-1.667 -2.5,-2.5 -0.548,-3.67 -1.048,-7.337 -1.5,-11 1.274,-3.574 1.107,-7.241 -0.5,-11 -4,-6.667 -8,-13.333 -12,-20 0.712,3.447 2.045,6.781 4,10 0.383,7.508 0.883,15.008 1.5,22.5 -0.333,1.833 -0.667,3.667 -1,5.5 -10.324,3.704 -20.991,5.37 -32,5 -0.166,-9.339 0,-18.673 0.5,-28 0.465,-1.431 1.299,-2.597 2.5,-3.5 6.057,-2.69 11.723,-5.856 17,-9.5 -5.706,1.675 -11.373,4.342 -17,8 -0.333,-0.333 -0.667,-0.667 -1,-1 3.539,-7.245 7.206,-14.411 11,-21.5 -0.948,-0.483 -1.948,-0.649 -3,-0.5 0.333,-1 1,-1.667 2,-2 0.06,0.543 0.393,0.876 1,1 1.702,-2.537 3.869,-4.537 6.5,-6 3.698,2.378 6.198,5.712 7.5,10 -3.901,1.323 -7.901,2.323 -12,3 -0.333,0.667 -0.667,1.333 -1,2 1.315,1.816 2.815,3.483 4.5,5 -0.937,-2.174 -1.771,-4.507 -2.5,-7 4.381,0.128 8.715,-0.205 13,-1 -0.315,-1.726 -0.481,-3.393 -0.5,-5 1.857,2.131 4.023,2.631 6.5,1.5 12.603,12.938 19.103,28.438 19.5,46.5 -0.925,0.547 -1.758,1.213 -2.5,2 1.595,0.934 3.261,0.934 5,0 z"
       id="path374" />
  </g>
  <g
     id="g387"
     transform="translate(-456.47678,-272.54001)">
    <path
       style="opacity:1"
       fill="#161616"
       d="m 548.5,288.5 c 0.131,0.739 -0.036,1.406 -0.5,2 -0.5,-1.833 -1.667,-3 -3.5,-3.5 -2.31,-0.497 -4.643,-0.663 -7,-0.5 0.183,-2.436 -0.484,-4.603 -2,-6.5 -4.248,-2.348 -8.081,-1.848 -11.5,1.5 -3.479,-7.032 -7.813,-7.699 -13,-2 -4.89,-6.583 -9.723,-6.583 -14.5,0 -1.2,-1.031 -2.534,-1.865 -4,-2.5 -5.646,-1.523 -8.646,0.644 -9,6.5 -9.139,-2.862 -13.139,0.471 -12,10 -8.524,-0.155 -10.858,3.511 -7,11 -6.553,4.6 -6.553,9.267 0,14 -2.888,3.104 -2.555,5.771 1,8 3.247,-2.875 5.08,-6.541 5.5,-11 1.616,-1.301 3.116,-1.301 4.5,0 -2.872,2.709 -5.039,6.042 -6.5,10 -0.334,6.681 -0.834,13.347 -1.5,20 0.973,10.813 6.64,17.98 17,21.5 4.254,1.314 8.587,2.147 13,2.5 13.567,2.183 26.567,0.017 39,-6.5 8.801,-6.532 13.134,-15.366 13,-26.5 -1.792,0.134 -3.458,-0.199 -5,-1 -0.539,-2.005 -1.205,-4.005 -2,-6 -3.417,-2.426 -4.75,-5.759 -4,-10 -1.89,0.203 -3.39,-0.463 -4.5,-2 -0.192,-2.077 -0.692,-4.077 -1.5,-6 -2.475,1.187 -4.809,0.853 -7,-1 -3.635,2.638 -7.635,3.471 -12,2.5 -1.442,-0.377 -2.442,-1.21 -3,-2.5 -0.065,-0.438 0.101,-0.772 0.5,-1 5.321,3.026 10.154,2.359 14.5,-2 1.429,1.435 3.095,2.435 5,3 1.655,-0.728 3.321,-0.895 5,-0.5 -1.249,2.21 -1.082,4.376 0.5,6.5 2.176,0.488 4.009,1.488 5.5,3 -2.501,5.456 -0.834,8.456 5,9 -0.848,1.909 -1.182,3.909 -1,6 9.022,0.667 11.689,-3 8,-11 3.389,-0.884 5.056,-3.051 5,-6.5 -0.749,-3.439 -2.416,-6.439 -5,-9 5.076,-7.68 3.076,-11.847 -6,-12.5 -0.157,-1.373 0.01,-2.707 0.5,-4 0.278,0.916 0.778,1.582 1.5,2 8.209,1.752 10.542,6.418 7,14 2.323,2.484 3.99,5.317 5,8.5 -0.649,3.636 -2.315,6.636 -5,9 2.499,5.707 0.832,9.207 -5,10.5 -0.523,19.194 -10.19,30.86 -29,35 0.813,1.314 1.813,2.481 3,3.5 10.255,3.251 17.755,9.751 22.5,19.5 7.056,11.333 10.556,23.666 10.5,37 -1.739,0.934 -3.405,0.934 -5,0 0.742,-0.787 1.575,-1.453 2.5,-2 -0.397,-18.062 -6.897,-33.562 -19.5,-46.5 -2.477,1.131 -4.643,0.631 -6.5,-1.5 0.019,1.607 0.185,3.274 0.5,5 -4.285,0.795 -8.619,1.128 -13,1 0.729,2.493 1.563,4.826 2.5,7 -1.685,-1.517 -3.185,-3.184 -4.5,-5 0.333,-0.667 0.667,-1.333 1,-2 4.099,-0.677 8.099,-1.677 12,-3 -1.302,-4.288 -3.802,-7.622 -7.5,-10 -2.631,1.463 -4.798,3.463 -6.5,6 -0.607,-0.124 -0.94,-0.457 -1,-1 -0.235,-0.597 -0.735,-0.93 -1.5,-1 -3.514,0.558 -7.014,1.224 -10.5,2 3.043,3.477 6.376,3.81 10,1 1.052,-0.149 2.052,0.017 3,0.5 -3.794,7.089 -7.461,14.255 -11,21.5 0.333,0.333 0.667,0.667 1,1 5.627,-3.658 11.294,-6.325 17,-8 -5.277,3.644 -10.943,6.81 -17,9.5 -1.201,0.903 -2.035,2.069 -2.5,3.5 -0.5,9.327 -0.666,18.661 -0.5,28 11.009,0.37 21.676,-1.296 32,-5 0.333,-1.833 0.667,-3.667 1,-5.5 -0.617,-7.492 -1.117,-14.992 -1.5,-22.5 -1.955,-3.219 -3.288,-6.553 -4,-10 4,6.667 8,13.333 12,20 1.607,3.759 1.774,7.426 0.5,11 -0.026,-5.973 -1.859,-11.306 -5.5,-16 -0.167,1.5 -0.333,3 -0.5,4.5 1.234,10.662 1.234,21.328 0,32 1.549,13.745 2.882,27.245 4,40.5 1.855,1.533 3.688,3.2 5.5,5 0.09,2.268 -1.077,3.768 -3.5,4.5 -3.608,1.323 -7.275,1.989 -11,2 -2.918,-1.709 -5.752,-3.542 -8.5,-5.5 -0.014,-3.404 -1.347,-6.07 -4,-8 -0.149,-3.633 -0.982,-6.966 -2.5,-10 -1.865,-5.597 -3.532,-11.263 -5,-17 -3.018,-0.204 -6.018,-0.537 -9,-1 -0.333,2 -0.667,4 -1,6 -1.311,-2.06 -1.311,-4.226 0,-6.5 -1.259,-0.923 -2.592,-1.757 -4,-2.5 0.333,-0.333 0.667,-0.667 1,-1 4.141,1.88 8.474,3.047 13,3.5 3.184,7.208 6.184,14.541 9,22 5.64,1.949 11.307,1.949 17,0 0.522,-0.561 0.855,-1.228 1,-2 -2.862,-11.648 -4.196,-23.481 -4,-35.5 -1.333,0 -2.667,0 -4,0 0,3 0,6 0,9 -4.193,0.138 -6.527,-1.862 -7,-6 -6.98,0.665 -13.98,0.998 -21,1 -0.203,9.135 -0.87,9.135 -2,0 -4.667,-0.667 -9.333,-1.333 -14,-2 -0.126,2.968 -1.626,4.968 -4.5,6 -0.667,8.667 -0.667,17.333 0,26 0.318,1.561 1.151,2.728 2.5,3.5 3.652,0.499 7.318,0.665 11,0.5 -0.043,-4.393 0.457,-4.726 1.5,-1 0.617,-4.753 1.617,-9.42 3,-14 0.464,0.594 0.631,1.261 0.5,2 0,4.667 0,9.333 0,14 0.38,3.292 -0.953,5.625 -4,7 0.985,1.598 1.151,3.265 0.5,5 -6.737,3.475 -13.904,4.975 -21.5,4.5 -1.786,-0.785 -3.286,-1.951 -4.5,-3.5 -0.507,-1.496 -0.007,-2.663 1.5,-3.5 2.569,-0.898 4.902,-2.065 7,-3.5 0.876,0.131 1.543,-0.202 2,-1 -1.568,-17.609 -2.568,-35.275 -3,-53 3.621,2.927 8.288,4.76 14,5.5 -4.299,0.737 -8.299,-0.097 -12,-2.5 -1.254,1.759 -0.921,3.259 1,4.5 6.512,2.049 13.179,3.216 20,3.5 0.17,-1.322 -0.163,-2.489 -1,-3.5 -9.31,-0.828 -9.31,-1.328 0,-1.5 -0.095,-10.725 0.072,-21.392 0.5,-32 -4.333,-3 -8.667,-6 -13,-9 -0.667,-1 -0.667,-2 0,-3 1.659,-1.317 2.826,-2.983 3.5,-5 -3.297,-1.149 -6.463,-2.483 -9.5,-4 -8.903,13.196 -15.403,27.529 -19.5,43 0.09,1.925 1.09,3.092 3,3.5 3.26,0.784 6.427,0.617 9.5,-0.5 1.882,-11.247 3.216,-22.581 4,-34 0.17,-2.215 0.837,-4.215 2,-6 -0.458,13.563 -1.958,26.897 -4.5,40 -0.65,1.935 -0.983,3.935 -1,6 -2.816,-0.325 -5.316,-1.325 -7.5,-3 -0.414,0.457 -0.914,0.791 -1.5,1 -1.333,-1 -2.667,-2 -4,-3 -0.333,0.5 -0.667,1 -1,1.5 0.772,1.221 1.772,2.221 3,3 -0.124,0.97 -0.124,1.803 0,2.5 -3,-0.333 -4.333,1 -4,4 -0.79,1.109 -1.29,2.442 -1.5,4 -0.483,-0.948 -0.649,-1.948 -0.5,-3 0.086,-2.177 0.753,-4.177 2,-6 -0.768,-5.701 -0.268,-11.368 1.5,-17 4.937,-16.715 13.103,-31.548 24.5,-44.5 2,-1.333 4,-2.667 6,-4 -8.506,-1.386 -15.672,-5.22 -21.5,-11.5 -1.608,-2.882 -2.941,-5.882 -4,-9 0.424,-7.013 0.257,-14.013 -0.5,-21 -4.742,-2.222 -6.076,-5.722 -4,-10.5 -2.268,-2.37 -3.601,-5.203 -4,-8.5 0.656,-2.833 1.99,-5.333 4,-7.5 -2.237,-7.261 0.43,-11.095 8,-11.5 -0.606,-8.405 3.061,-11.738 11,-10 3.579,-7.155 8.912,-8.822 16,-5 4.873,-5.28 9.706,-5.28 14.5,0 4.945,-4.179 9.612,-3.845 14,1 7.673,-3.123 12.173,-0.79 13.5,7 4.384,-0.924 7.718,0.409 10,4 z"
       id="path387" />
  </g>
  <g
     id="g388"
     transform="translate(-456.47678,-272.54001)">
    <path
       style="opacity:1"
       fill="#373637"
       d="m 477.5,430.5 c -0.667,-0.333 -1.333,-0.667 -2,-1 2.542,-13.103 4.042,-26.437 4.5,-40 -1.163,1.785 -1.83,3.785 -2,6 -0.784,11.419 -2.118,22.753 -4,34 -3.073,1.117 -6.24,1.284 -9.5,0.5 -1.91,-0.408 -2.91,-1.575 -3,-3.5 4.097,-15.471 10.597,-29.804 19.5,-43 3.037,1.517 6.203,2.851 9.5,4 -0.674,2.017 -1.841,3.683 -3.5,5 -0.667,1 -0.667,2 0,3 4.333,3 8.667,6 13,9 -0.428,10.608 -0.595,21.275 -0.5,32 -9.31,0.172 -9.31,0.672 0,1.5 0.837,1.011 1.17,2.178 1,3.5 -6.821,-0.284 -13.488,-1.451 -20,-3.5 -1.921,-1.241 -2.254,-2.741 -1,-4.5 3.701,2.403 7.701,3.237 12,2.5 -5.712,-0.74 -10.379,-2.573 -14,-5.5 z"
       id="path388" />
  </g>
  <g
     id="g389"
     transform="translate(-456.47678,-272.54001)">
    <path
       style="opacity:1"
       fill="#3d3c3c"
       d="m 491.5,372.5 c 1.333,0 2.667,0 4,0 1.233,9.829 3.233,19.496 6,29 -0.333,0.333 -0.667,0.667 -1,1 -3.861,-3.028 -7.861,-5.861 -12,-8.5 6.325,-5.825 5.325,-9.158 -3,-10 -1.41,-0.368 -2.41,-1.201 -3,-2.5 3.227,-2.779 6.227,-5.779 9,-9 z"
       id="path389" />
  </g>
  <g
     id="g390"
     transform="translate(-456.47678,-272.54001)">
    <path
       style="opacity:1"
       fill="#dad9d6"
       d="m 513.5,378.5 c -1,0.333 -1.667,1 -2,2 -3.624,2.81 -6.957,2.477 -10,-1 3.486,-0.776 6.986,-1.442 10.5,-2 0.765,0.07 1.265,0.403 1.5,1 z"
       id="path390" />
  </g>
  <g
     id="g391"
     transform="translate(-456.47678,-272.54001)">
    <path
       style="opacity:1"
       fill="#d4d2d0"
       d="m 501.5,372.5 c 3.398,-0.32 6.732,0.013 10,1 -0.477,0.978 -1.143,1.811 -2,2.5 -2.646,0.497 -5.313,0.664 -8,0.5 0,-1.333 0,-2.667 0,-4 z"
       id="path391" />
  </g>
  <g
     id="g392"
     transform="translate(-456.47678,-272.54001)">
    <path
       style="opacity:1"
       fill="#d4d4d2"
       d="m 544.5,335.5 c 1.542,0.801 3.208,1.134 5,1 0.134,11.134 -4.199,19.968 -13,26.5 -12.433,6.517 -25.433,8.683 -39,6.5 12.111,-0.426 23.444,-3.593 34,-9.5 6.829,-6.825 11.163,-14.991 13,-24.5 z"
       id="path392" />
  </g>
  <g
     id="g393"
     transform="translate(-456.47678,-272.54001)">
    <path
       style="opacity:1"
       fill="#f6f6f6"
       d="m 510.5,310.5 c 0.558,1.29 1.558,2.123 3,2.5 4.365,0.971 8.365,0.138 12,-2.5 2.191,1.853 4.525,2.187 7,1 0.808,1.923 1.308,3.923 1.5,6 1.11,1.537 2.61,2.203 4.5,2 -0.75,4.241 0.583,7.574 4,10 0.795,1.995 1.461,3.995 2,6 -1.837,9.509 -6.171,17.675 -13,24.5 -10.556,5.907 -21.889,9.074 -34,9.5 -4.413,-0.353 -8.746,-1.186 -13,-2.5 -10.36,-3.52 -16.027,-10.687 -17,-21.5 0.666,-6.653 1.166,-13.319 1.5,-20 1.461,-3.958 3.628,-7.291 6.5,-10 1.645,-0.979 2.979,-2.312 4,-4 4.26,2.815 8.26,2.482 12,-1 2.37,2.266 5.203,3.266 8.5,3 3.759,-0.308 7.259,-1.308 10.5,-3 z"
       id="path393" />
  </g>
  <g
     id="g394"
     transform="translate(-456.47678,-272.54001)">
    <path
       style="opacity:1"
       fill="#1e1c1a"
       d="m 489.5,349.5 c 9.325,1.201 18.658,1.201 28,0 0.693,10.641 -4.307,15.641 -15,15 -7.598,0.069 -12.264,-3.597 -14,-11 0.123,-1.425 0.457,-2.758 1,-4 z"
       id="path394" />
  </g>
  <g
     id="g395"
     transform="translate(-456.47678,-272.54001)">
    <path
       style="opacity:1"
       fill="#df4f4d"
       d="m 500.5,357.5 c 4.149,-0.58 7.816,0.086 11,2 -0.953,2.11 -2.619,3.277 -5,3.5 -2.667,0.667 -5.333,0.667 -8,0 -1.434,-2.528 -0.767,-4.362 2,-5.5 z"
       id="path395" />
  </g>
  <g
     id="g396"
     transform="translate(-456.47678,-272.54001)">
    <path
       style="opacity:1"
       fill="#7a2a2b"
       d="m 500.5,357.5 c 3.798,-0.983 7.798,-1.317 12,-1 0.237,1.291 -0.096,2.291 -1,3 -3.184,-1.914 -6.851,-2.58 -11,-2 z"
       id="path396" />
  </g>
  <g
     id="g397"
     transform="translate(-456.47678,-272.54001)">
    <path
       style="opacity:1"
       fill="#f7f5f7"
       d="m 497.5,352.5 c 1.478,-0.262 2.811,0.071 4,1 -0.667,0.333 -1.333,0.667 -2,1 -1.213,-0.247 -1.88,-0.914 -2,-2 z"
       id="path397" />
  </g>
  <g
     id="g398"
     transform="translate(-456.47678,-272.54001)">
    <path
       style="opacity:1"
       fill="#d7d7d9"
       d="m 507.5,351.5 c 1,0 2,0 3,0 0,1 0,2 0,3 -1,0 -2,0 -3,0 0,-1 0,-2 0,-3 z"
       id="path398" />
  </g>
  <g
     id="g399"
     transform="translate(-456.47678,-272.54001)">
    <path
       style="opacity:1"
       fill="#d7d6d7"
       d="m 503.5,352.5 c 1,0 2,0 3,0 0,1 0,2 0,3 -1,0 -2,0 -3,0 0,-1 0,-2 0,-3 z"
       id="path399" />
  </g>
  <g
     id="g400"
     transform="translate(-456.47678,-272.54001)">
    <path
       style="opacity:1"
       fill="#dddce0"
       d="m 491.5,351.5 c 1.333,0 2.667,0 4,0 0.219,1.175 -0.114,2.175 -1,3 -1.713,-0.379 -2.713,-1.379 -3,-3 z"
       id="path400" />
  </g>
  <g
     id="g401"
     transform="translate(-456.47678,-272.54001)">
    <path
       style="opacity:1"
       fill="#d2d1d5"
       d="m 511.5,350.5 c 1.333,0 2.667,0 4,0 0,1 0,2 0,3 -1.333,0 -2.667,0 -4,0 0,-1 0,-2 0,-3 z"
       id="path401" />
  </g>
  <g
     id="g402"
     transform="translate(-456.47678,-272.54001)">
    <path
       style="opacity:1"
       fill="#1d1d1d"
       d="m 499.5,337.5 c 3.604,1.088 5.437,3.421 5.5,7 -2.614,-0.954 -5.447,-0.954 -8.5,0 0.188,-2.706 1.188,-5.039 3,-7 z"
       id="path402" />
  </g>
  <g
     id="g403"
     transform="translate(-456.47678,-272.54001)">
    <path
       style="opacity:1"
       fill="#cccbcc"
       d="m 524.5,319.5 c -4.944,0.102 -8.444,2.435 -10.5,7 -1.776,7.019 -0.276,13.019 4.5,18 -3.882,-0.711 -6.382,-3.044 -7.5,-7 -1.886,-7.049 -0.053,-12.882 5.5,-17.5 2.727,-1.636 5.393,-1.802 8,-0.5 z"
       id="path403" />
  </g>
  <g
     id="g404"
     transform="translate(-456.47678,-272.54001)">
    <path
       style="opacity:1"
       fill="#0a0a0a"
       d="m 489.5,321.5 c 5.226,5.079 6.392,11.079 3.5,18 -3.739,6.581 -8.572,7.581 -14.5,3 -5.049,-8.484 -3.716,-15.651 4,-21.5 2.385,-0.556 4.718,-0.39 7,0.5 z"
       id="path404" />
  </g>
  <g
     id="g405"
     transform="translate(-456.47678,-272.54001)">
    <path
       style="opacity:1"
       fill="#d4d4d5"
       d="m 489.5,321.5 c -2.282,-0.89 -4.615,-1.056 -7,-0.5 -7.716,5.849 -9.049,13.016 -4,21.5 -2.934,-0.789 -4.768,-2.789 -5.5,-6 -1.213,-7.79 1.62,-13.623 8.5,-17.5 2,-0.667 4,-0.667 6,0 1.256,0.417 1.923,1.25 2,2.5 z"
       id="path405" />
  </g>
  <g
     id="g406"
     transform="translate(-456.47678,-272.54001)">
    <path
       style="opacity:1"
       fill="#090808"
       d="m 524.5,319.5 c 4.254,1.085 7.087,3.752 8.5,8 2.238,8.012 -0.262,13.845 -7.5,17.5 -2.429,0.703 -4.762,0.537 -7,-0.5 -4.776,-4.981 -6.276,-10.981 -4.5,-18 2.056,-4.565 5.556,-6.898 10.5,-7 z"
       id="path406" />
  </g>
  <g
     id="g411"
     transform="translate(-456.47678,-272.54001)">
    <path
       style="opacity:1"
       fill="#979498"
       d="m 518.5,403.5 c 0.814,-1.773 2.148,-2.273 4,-1.5 -1.245,0.791 -2.578,1.291 -4,1.5 z"
       id="path411" />
  </g>
  <g
     id="g415"
     transform="translate(-456.47678,-272.54001)">
    <path
       style="opacity:1"
       fill="#aba9ac"
       d="m 518.5,403.5 c -1.418,2.208 -3.418,3.042 -6,2.5 1.907,-1.122 3.907,-1.955 6,-2.5 z"
       id="path415" />
  </g>
  <g
     id="g528"
     transform="translate(-456.47678,-272.54001)">
    <path
       style="opacity:1"
       fill="#323232"
       d="m 474.5,435.5 c -1.486,2.119 -3.486,3.619 -6,4.5 0.59,1.509 1.256,3.009 2,4.5 1.09,-0.891 1.09,-1.891 0,-3 0.346,-1.196 0.846,-1.196 1.5,0 0.49,1.293 0.657,2.627 0.5,4 -1.701,0.466 -3.201,0.466 -4.5,0 -0.333,1.667 -0.667,3.333 -1,5 -0.671,0.752 -1.504,1.086 -2.5,1 -0.888,-2.554 -1.221,-5.221 -1,-8 5.318,-1.975 5.318,-3.975 0,-6 -0.124,-0.697 -0.124,-1.53 0,-2.5 -1.228,-0.779 -2.228,-1.779 -3,-3 0.333,-0.5 0.667,-1 1,-1.5 1.333,1 2.667,2 4,3 0.586,-0.209 1.086,-0.543 1.5,-1 2.184,1.675 4.684,2.675 7.5,3 z"
       id="path528" />
  </g>
  <g
     id="g529"
     transform="translate(-456.47678,-272.54001)">
    <path
       style="opacity:1"
       fill="#414143"
       d="m 532.5,433.5 c 0.997,-0.03 1.664,0.47 2,1.5 -0.944,1.477 -2.277,2.477 -4,3 -9.448,2.945 -19.114,4.112 -29,3.5 0,-1 0,-2 0,-3 10.725,-0.066 21.059,-1.733 31,-5 z"
       id="path529" />
  </g>
  <g
     id="g532"
     transform="translate(-456.47678,-272.54001)">
    <path
       style="opacity:1"
       fill="#dfe0e1"
       d="m 548.5,437.5 c 2.667,0 5.333,0 8,0 0.177,2.481 -0.823,4.314 -3,5.5 1.341,7.106 0.674,7.273 -2,0.5 -0.808,1.923 -1.308,3.923 -1.5,6 -0.642,-3.991 -1.142,-7.991 -1.5,-12 z"
       id="path532" />
  </g>
  <g
     id="g533"
     transform="translate(-456.47678,-272.54001)">
    <path
       style="opacity:1"
       fill="#d9dbdb"
       d="m 463.5,437.5 c 5.318,2.025 5.318,4.025 0,6 -1,0 -2,0 -3,0 -0.333,-0.667 -0.667,-1.333 -1,-2 -0.333,-3 1,-4.333 4,-4 z"
       id="path533" />
  </g>
  <g
     id="g536"
     transform="translate(-456.47678,-272.54001)">
    <path
       style="opacity:1"
       fill="#b2b3b6"
       d="m 545.5,439.5 c 2.601,1.422 2.434,2.756 -0.5,4 -0.5,-0.167 -1,-0.333 -1.5,-0.5 1.323,-0.816 1.989,-1.983 2,-3.5 z"
       id="path536" />
  </g>
  <g
     id="g585"
     transform="translate(-456.47678,-272.54001)">
    <path
       style="opacity:1"
       fill="#474649"
       d="m 480.5,440.5 c 4.741,0.323 5.075,1.99 1,5 -0.952,-1.545 -1.285,-3.212 -1,-5 z"
       id="path585" />
  </g>
  <g
     id="g587"
     transform="translate(-456.47678,-272.54001)">
    <path
       style="opacity:1"
       fill="#8c8d89"
       d="m 460.5,443.5 c 1,0 2,0 3,0 -0.221,2.779 0.112,5.446 1,8 -1.291,0.237 -2.291,-0.096 -3,-1 1.122,-1.788 1.289,-3.788 0.5,-6 -1.008,5.041 -1.508,4.708 -1.5,-1 z"
       id="path587" />
  </g>
  <g
     id="g588"
     transform="translate(-456.47678,-272.54001)">
    <path
       style="opacity:1"
       fill="#515150"
       d="m 500.5,461.5 c 0.237,1.291 -0.096,2.291 -1,3 0.131,-0.739 -0.036,-1.406 -0.5,-2 -1.383,4.58 -2.383,9.247 -3,14 -1.043,-3.726 -1.543,-3.393 -1.5,1 -3.682,0.165 -7.348,-10e-4 -11,-0.5 -1.349,-0.772 -2.182,-1.939 -2.5,-3.5 -0.667,-8.667 -0.667,-17.333 0,-26 2.874,-1.032 4.374,-3.032 4.5,-6 4.667,0.667 9.333,1.333 14,2 1.13,9.135 1.797,9.135 2,0 7.02,-0.002 14.02,-0.335 21,-1 0.473,4.138 2.807,6.138 7,6 0,-3 0,-6 0,-9 1.333,0 2.667,0 4,0 -0.196,12.019 1.138,23.852 4,35.5 -0.145,0.772 -0.478,1.439 -1,2 -5.693,1.949 -11.36,1.949 -17,0 -2.816,-7.459 -5.816,-14.792 -9,-22 -4.526,-0.453 -8.859,-1.62 -13,-3.5 -0.333,0.333 -0.667,0.667 -1,1 1.408,0.743 2.741,1.577 4,2.5 -1.311,2.274 -1.311,4.44 0,6.5 z"
       id="path588" />
  </g>
  <g
     id="g589"
     transform="translate(-456.47678,-272.54001)">
    <path
       style="opacity:1"
       fill="#4d4f4e"
       d="m 523.5,441.5 c 4,-0.667 5.667,1 5,5 -3.333,0 -5,-1.667 -5,-5 z"
       id="path589" />
  </g>
  <g
     id="g590"
     transform="translate(-456.47678,-272.54001)">
    <path
       style="opacity:1"
       fill="#a3a3a3"
       d="m 555.5,443.5 c 1.086,0.12 1.753,0.787 2,2 -0.333,0.667 -0.667,1.333 -1,2 -0.929,-1.189 -1.262,-2.522 -1,-4 z"
       id="path590" />
  </g>
  <g
     id="g594"
     transform="translate(-456.47678,-272.54001)">
    <path
       style="opacity:1"
       fill="#717371"
       d="m 459.5,441.5 c 0.333,0.667 0.667,1.333 1,2 -0.958,1.802 -1.625,3.802 -2,6 -1.493,-0.812 -2.16,-2.145 -2,-4 0.02,-1.226 0.353,-2.226 1,-3 -0.149,1.052 0.017,2.052 0.5,3 0.21,-1.558 0.71,-2.891 1.5,-4 z"
       id="path594" />
  </g>
  <g
     id="g595"
     transform="translate(-456.47678,-272.54001)">
    <path
       style="opacity:1"
       fill="#2d2d2d"
       d="m 460.5,443.5 c -0.008,5.708 0.492,6.041 1.5,1 0.789,2.212 0.622,4.212 -0.5,6 -1.109,-0.057 -2.109,-0.39 -3,-1 0.375,-2.198 1.042,-4.198 2,-6 z"
       id="path595" />
  </g>
  <g
     id="g609"
     transform="translate(-456.47678,-272.54001)">
    <path
       style="opacity:1"
       fill="#f7f7f7"
       d="m 515.5,473.5 c 0.463,2.982 0.796,5.982 1,9 -5.333,0 -10.667,0 -16,0 0.268,-1.599 -0.066,-2.932 -1,-4 0,-4.667 0,-9.333 0,-14 0.904,-0.709 1.237,-1.709 1,-3 0.333,-2 0.667,-4 1,-6 2.982,0.463 5.982,0.796 9,1 1.468,5.737 3.135,11.403 5,17 z"
       id="path609" />
  </g>
  <g
     id="g692"
     transform="translate(-456.47678,-272.54001)">
    <path
       style="opacity:1"
       fill="#515151"
       d="m 480.5,477.5 c 5.202,2.139 10.535,2.472 16,1 1.33,1.847 0.997,3.347 -1,4.5 -4.405,0.696 -8.739,0.363 -13,-1 -1.537,-1.11 -2.203,-2.61 -2,-4.5 z"
       id="path692" />
  </g>
  <g
     id="g693"
     transform="translate(-456.47678,-272.54001)">
    <path
       style="opacity:1"
       fill="#595656"
       d="m 535.5,478.5 c 1,0 2,0 3,0 0.17,1.322 -0.163,2.489 -1,3.5 -5.102,2.343 -10.436,3.01 -16,2 -1.921,-1.241 -2.254,-2.741 -1,-4.5 5.244,1.521 10.244,1.187 15,-1 z"
       id="path693" />
  </g>
  <g
     id="g695"
     transform="translate(-456.47678,-272.54001)">
    <path
       style="opacity:1"
       fill="#d9d9da"
       d="m 515.5,473.5 c 1.518,3.034 2.351,6.367 2.5,10 2.653,1.93 3.986,4.596 4,8 2.748,1.958 5.582,3.791 8.5,5.5 3.725,-0.011 7.392,-0.677 11,-2 2.423,-0.732 3.59,-2.232 3.5,-4.5 -1.812,-1.8 -3.645,-3.467 -5.5,-5 4.241,0.348 8.241,1.515 12,3.5 2.027,1.396 2.36,3.062 1,5 -9.976,2.741 -20.309,5.408 -31,8 -14.349,0.564 -28.683,0.23 -43,-1 -4.952,-0.979 -9.618,-2.645 -14,-5 -2.765,-2.966 -2.432,-5.633 1,-8 4.21,-1.636 8.544,-2.803 13,-3.5 -2.098,1.435 -4.431,2.602 -7,3.5 -1.507,0.837 -2.007,2.004 -1.5,3.5 1.214,1.549 2.714,2.715 4.5,3.5 7.596,0.475 14.763,-1.025 21.5,-4.5 0.651,-1.735 0.485,-3.402 -0.5,-5 3.047,-1.375 4.38,-3.708 4,-7 0.934,1.068 1.268,2.401 1,4 5.333,0 10.667,0 16,0 -0.204,-3.018 -0.537,-6.018 -1,-9 z"
       id="path695" />
  </g>
  <g
     id="g699"
     transform="translate(-456.47678,-272.54001)">
    <path
       style="opacity:1"
       fill="#f0eff0"
       d="m 539.5,488.5 c -4.284,0.761 -8.284,2.095 -12,4 -3.276,-0.622 -4.609,-2.622 -4,-6 4.686,-0.338 9.353,-0.505 14,-0.5 0.881,0.708 1.547,1.542 2,2.5 z"
       id="path699" />
  </g>
  <g
     id="g702"
     transform="translate(-456.47678,-272.54001)">
    <path
       style="opacity:1"
       fill="#eaebec"
       d="m 481.5,491.5 c -0.473,-1.406 -1.473,-2.073 -3,-2 -0.342,-0.838 -1.008,-1.172 -2,-1 1.659,-1.843 3.825,-2.843 6.5,-3 3.357,0.214 6.857,0.38 10.5,0.5 1.231,1.183 1.231,2.349 0,3.5 -1.871,1.267 -3.704,1.267 -5.5,0 -0.483,0.948 -0.649,1.948 -0.5,3 -2.065,-0.017 -4.065,-0.35 -6,-1 z"
       id="path702" />
  </g>
  <g
     id="g703"
     transform="translate(-456.47678,-272.54001)">
    <path
       style="opacity:1"
       fill="#747673"
       d="m 476.5,488.5 c 0.992,-0.172 1.658,0.162 2,1 -0.792,1.757 -2.125,3.091 -4,4 -0.333,-1.333 -0.667,-2.667 -1,-4 0.825,-0.886 1.825,-1.219 3,-1 z"
       id="path703" />
  </g>
  <g
     id="g704"
     transform="translate(-456.47678,-272.54001)">
    <path
       style="opacity:1"
       fill="#808080"
       d="m 539.5,488.5 c 0.876,-0.131 1.543,0.202 2,1 -0.477,1.431 -1.143,2.764 -2,4 -2.224,0.825 -4.224,1.159 -6,1 -0.656,-0.778 -1.489,-1.444 -2.5,-2 -1.03,0.336 -1.53,1.003 -1.5,2 -0.667,-0.667 -1.333,-1.333 -2,-2 3.716,-1.905 7.716,-3.239 12,-4 z"
       id="path704" />
  </g>
  <g
     id="g705"
     transform="translate(-456.47678,-272.54001)">
    <path
       style="opacity:1"
       fill="#cdcfcf"
       d="m 481.5,491.5 c 0.111,0.617 0.444,1.117 1,1.5 -7.304,2.029 -7.638,1.529 -1,-1.5 z"
       id="path705" />
  </g>
  <g
     id="g706"
     transform="translate(-456.47678,-272.54001)">
    <path
       style="opacity:1"
       fill="#ccccce"
       d="m 533.5,494.5 c -1.205,1.186 -2.539,1.186 -4,0 -0.03,-0.997 0.47,-1.664 1.5,-2 1.011,0.556 1.844,1.222 2.5,2 z"
       id="path706" />
  </g>
</svg>
