<?xml version="1.0" encoding="UTF-8" standalone="no"?>
<svg
   version="1.1"
   width="124.02347"
   height="221.44695"
   style="clip-rule:evenodd;fill-rule:evenodd;image-rendering:optimizeQuality;shape-rendering:geometricPrecision;text-rendering:geometricPrecision"
   id="svg1400"
   xmlns="http://www.w3.org/2000/svg"
   xmlns:svg="http://www.w3.org/2000/svg">
  <defs
     id="defs1400" />
  <g
     id="g2"
     transform="translate(-456.47678,-39.053303)">
    <path
       style="opacity:1"
       fill="#191c1d"
       d="m 550.5,100.5 c -0.904,-0.709 -1.237,-1.709 -1,-3 0.166,-4.0138 -10e-4,-8.0138 -0.5,-12 -1.129,-1.6412 -2.629,-2.6412 -4.5,-3 -23.29,-12.2571 -47.624,-15.0904 -73,-8.5 -2.695,4.0855 -4.195,8.5855 -4.5,13.5 -0.667,7.6667 -0.667,15.333 0,23 3.053,7.22 8.219,12.22 15.5,15 0,0.667 -0.333,1 -1,1 -7.858,-2.356 -13.358,-7.356 -16.5,-15 -0.667,-8.333 -0.667,-16.6667 0,-25 0.33,-2.9887 1.164,-5.822 2.5,-8.5 -4.877,-3.5719 -7.877,-8.4053 -9,-14.5 1.903,-5.728 5.903,-9.228 12,-10.5 4.333,-0.3333 8.667,-0.6667 13,-1 12.78,-12.7488 27.78,-16.0822 45,-10 18.588,6.6632 26.255,19.8299 23,39.5 7.391,1.1765 12.725,5.0098 16,11.5 -0.2,2.537 -1.533,4.2037 -4,5 -4.78,-0.1084 -9.114,0.725 -13,2.5 z"
       id="path2" />
  </g>
  <g
     id="g4"
     transform="translate(-456.47678,-39.053303)">
    <path
       style="opacity:1"
       fill="#4a8dbc"
       d="m 533.5,59.5 c 0,4.6667 0,9.3333 0,14 0.065,0.4382 -0.101,0.7716 -0.5,1 C 520.471,60.986 504.971,53.486 486.5,52 c 11.116,-10.7826 23.783,-13.2826 38,-7.5 4.802,3.9398 7.802,8.9398 9,15 z"
       id="path4" />
  </g>
  <g
     id="g5"
     transform="translate(-456.47678,-39.053303)">
    <path
       style="opacity:1"
       fill="#4483af"
       d="m 473.5,54.5 c 21.364,-2.4901 39.697,3.6765 55,18.5 -15.964,-4.2004 -32.297,-5.5338 -49,-4 -4.593,1.4818 -8.926,3.1485 -13,5 -4.188,-3.2031 -6.021,-7.3697 -5.5,-12.5 0.93,-2.0524 2.43,-3.5524 4.5,-4.5 2.81,-0.7823 5.477,-1.6156 8,-2.5 z"
       id="path5" />
  </g>
  <g
     id="g7"
     transform="translate(-456.47678,-39.053303)">
    <path
       style="opacity:1"
       fill="#5094c0"
       d="m 540.5,50.5 c 1.202,4.078 2.702,8.078 4.5,12 0.667,4.6667 0.667,9.3333 0,14 -0.232,1.2375 -0.732,2.2375 -1.5,3 -3.565,-0.942 -6.565,-2.6087 -9,-5 1.333,-5.6667 1.333,-11.3333 0,-17 -1.496,-5.1543 -4.163,-9.6543 -8,-13.5 5.241,0.785 9.907,2.9517 14,6.5 z"
       id="path7" />
  </g>
  <g
     id="g8"
     transform="translate(-456.47678,-39.053303)">
    <path
       style="opacity:1"
       fill="#3d779f"
       d="m 540.5,50.5 c 3.816,3.6174 6.65,7.9508 8.5,13 0.499,5.9908 0.666,11.9908 0.5,18 -2.398,0.2406 -4.398,-0.4261 -6,-2 0.768,-0.7625 1.268,-1.7625 1.5,-3 0.667,-4.6667 0.667,-9.3333 0,-14 -1.798,-3.922 -3.298,-7.922 -4.5,-12 z"
       id="path8" />
  </g>
  <g
     id="g12"
     transform="translate(-456.47678,-39.053303)">
    <path
       style="opacity:1"
       fill="#253c4b"
       d="m 534.5,57.5 c 1.333,5.6667 1.333,11.3333 0,17 0,-0.6667 -0.333,-1 -1,-1 0,-4.6667 0,-9.3333 0,-14 0.838,-0.3417 1.172,-1.0084 1,-2 z"
       id="path12" />
  </g>
  <g
     id="g13"
     transform="translate(-456.47678,-39.053303)">
    <path
       style="opacity:1"
       fill="#f6f6f7"
       d="m 544.5,82.5 c 0.478,25.274 -11.522,40.44 -36,45.5 -3.652,0.499 -7.318,0.665 -11,0.5 -5.216,0.038 -10.216,-0.962 -15,-3 -7.281,-2.78 -12.447,-7.78 -15.5,-15 -0.667,-7.667 -0.667,-15.3333 0,-23 0.305,-4.9145 1.805,-9.4145 4.5,-13.5 25.376,-6.5904 49.71,-3.7571 73,8.5 z"
       id="path13" />
  </g>
  <g
     id="g15"
     transform="translate(-456.47678,-39.053303)">
    <path
       style="opacity:1"
       fill="#060707"
       d="m 523.5,78.5 c 3.52,0.6828 6.02,2.6828 7.5,6 1.091,5.5969 0.424,10.9302 -2,16 -4.946,3.983 -9.779,3.983 -14.5,0 -4.502,-7.3203 -3.835,-14.1536 2,-20.5 2.177,-1.2022 4.511,-1.7022 7,-1.5 z"
       id="path15" />
  </g>
  <g
     id="g17"
     transform="translate(-456.47678,-39.053303)">
    <path
       style="opacity:1"
       fill="#060708"
       d="m 485.5,79.5 c 2.949,1.1141 5.115,3.1141 6.5,6 1.451,6.139 0.284,11.639 -3.5,16.5 -2.514,1.252 -5.18,1.752 -8,1.5 -5.708,-4.1845 -7.541,-9.8512 -5.5,-17 1.926,-4.7119 5.426,-7.0452 10.5,-7 z"
       id="path17" />
  </g>
  <g
     id="g18"
     transform="translate(-456.47678,-39.053303)">
    <path
       style="opacity:1"
       fill="#c9c9cb"
       d="m 485.5,79.5 c -5.074,-0.0452 -8.574,2.2881 -10.5,7 -2.041,7.1488 -0.208,12.8155 5.5,17 -4.423,-0.244 -7.256,-2.578 -8.5,-7 -1.886,-7.0485 -0.053,-12.8818 5.5,-17.5 2.867,-0.8007 5.534,-0.6341 8,0.5 z"
       id="path18" />
  </g>
  <g
     id="g28"
     transform="translate(-456.47678,-39.053303)">
    <path
       style="opacity:1"
       fill="#366c93"
       d="m 551.5,83.5 c 5.122,1.1443 9.622,3.4776 13.5,7 0.667,1.3333 0.667,2.6667 0,4 -0.465,-1.4308 -1.299,-2.5975 -2.5,-3.5 -3.333,-1.6667 -6.667,-3.3333 -10,-5 -0.752,-0.6708 -1.086,-1.5041 -1,-2.5 z"
       id="path28" />
  </g>
  <g
     id="g31"
     transform="translate(-456.47678,-39.053303)">
    <path
       style="opacity:1"
       fill="#3f779e"
       d="m 551.5,87.5 c 4.817,1.2392 8.817,3.7392 12,7.5 -3.797,1.4239 -7.797,1.9239 -12,1.5 0,-3 0,-6 0,-9 z"
       id="path31" />
  </g>
  <g
     id="g32"
     transform="translate(-456.47678,-39.053303)">
    <path
       style="opacity:1"
       fill="#cccbcb"
       d="m 544.5,82.5 c 1.871,0.3588 3.371,1.3588 4.5,3 0.499,3.9862 0.666,7.9862 0.5,12 -4.026,19.836 -16.359,30.336 -37,31.5 -5.184,0.816 -10.184,0.65 -15,-0.5 3.682,0.165 7.348,-0.001 11,-0.5 24.478,-5.06 36.478,-20.226 36,-45.5 z"
       id="path32" />
  </g>
  <g
     id="g33"
     transform="translate(-456.47678,-39.053303)">
    <path
       style="opacity:1"
       fill="#d0d0d0"
       d="m 523.5,78.5 c -2.489,-0.2022 -4.823,0.2978 -7,1.5 -5.835,6.3464 -6.502,13.1797 -2,20.5 -1.38,1.206 -2.547,0.873 -3.5,-1 -4.488,-8.8568 -2.655,-16.0234 5.5,-21.5 2.539,-0.7958 4.872,-0.6291 7,0.5 z"
       id="path33" />
  </g>
  <g
     id="g34"
     transform="translate(-456.47678,-39.053303)">
    <path
       style="opacity:1"
       fill="#0f1111"
       d="m 498.5,96.5 c 3.593,0.9298 5.259,3.2632 5,7 -1.984,0.117 -3.65,-0.55 -5,-2 -0.667,0.667 -1.333,1.333 -2,2 -1.114,-1.223 -1.281,-2.556 -0.5,-4 1.045,-0.8734 1.878,-1.8734 2.5,-3 z"
       id="path34" />
  </g>
  <g
     id="g38"
     transform="translate(-456.47678,-39.053303)">
    <path
       style="opacity:1"
       fill="#131211"
       d="m 511.5,107.5 c 4.568,-0.417 6.068,1.583 4.5,6 -1.167,5.167 -4.333,8.333 -9.5,9.5 -10.149,2.095 -16.816,-1.738 -20,-11.5 0.212,-2.388 1.545,-3.388 4,-3 6.31,1.04 12.643,1.207 19,0.5 0.916,-0.278 1.582,-0.778 2,-1.5 z"
       id="path38" />
  </g>
  <g
     id="g39"
     transform="translate(-456.47678,-39.053303)">
    <path
       style="opacity:1"
       fill="#dadbe0"
       d="m 510.5,109.5 c 1.478,-0.262 2.811,0.071 4,1 -0.82,1.611 -2.154,2.278 -4,2 0,-1 0,-2 0,-3 z"
       id="path39" />
  </g>
  <g
     id="g40"
     transform="translate(-456.47678,-39.053303)">
    <path
       style="opacity:1"
       fill="#d6d6db"
       d="m 490.5,109.5 c 3.81,1.254 3.81,2.254 0,3 0,-1 0,-2 0,-3 z"
       id="path40" />
  </g>
  <g
     id="g41"
     transform="translate(-456.47678,-39.053303)">
    <path
       style="opacity:1"
       fill="#bdbec0"
       d="m 494.5,110.5 c 2,0 4,0 6,0 0,1 0,2 0,3 -2,0 -4,0 -6,0 0,-1 0,-2 0,-3 z"
       id="path41" />
  </g>
  <g
     id="g42"
     transform="translate(-456.47678,-39.053303)">
    <path
       style="opacity:1"
       fill="#bebec2"
       d="m 502.5,110.5 c 2,0 4,0 6,0 0,1 0,2 0,3 -2,0 -4,0 -6,0 0,-1 0,-2 0,-3 z"
       id="path42" />
  </g>
  <g
     id="g51"
     transform="translate(-456.47678,-39.053303)">
    <path
       style="opacity:1"
       fill="#c35b52"
       d="m 498.5,115.5 c 4.384,-0.326 8.717,0.008 13,1 -4.113,6.022 -9.446,7.355 -16,4 1.263,-1.529 2.263,-3.195 3,-5 z"
       id="path51" />
  </g>
  <g
     id="g95"
     transform="translate(-456.47678,-39.053303)">
    <path
       style="opacity:1"
       fill="#1f1e1c"
       d="m 549.5,97.5 c -0.237,1.291 0.096,2.291 1,3 -3.292,15.958 -12.958,25.625 -29,29 0.939,1.553 2.106,2.887 3.5,4 5.268,1.218 10.101,3.384 14.5,6.5 4.167,4.167 8.333,8.333 12.5,12.5 -0.623,2.485 0.377,4.485 3,6 3,-2.333 6,-4.667 9,-7 0.806,-2.946 2.139,-5.612 4,-8 0.333,-2.667 0.667,-5.333 1,-8 1.726,-1.076 3.559,-1.243 5.5,-0.5 0.788,3.076 1.288,6.242 1.5,9.5 1.512,0.757 2.846,1.757 4,3 0.667,4.667 0.667,9.333 0,14 -2.837,2.085 -5.837,2.419 -9,1 -4.63,5.301 -10.296,8.968 -17,11 -4.218,-1.014 -8.051,-2.847 -11.5,-5.5 -1.634,-0.494 -3.301,-0.66 -5,-0.5 0.069,5.354 0.402,10.687 1,16 -0.934,1.068 -1.268,2.401 -1,4 -1.051,-5.146 -1.718,-10.479 -2,-16 0.163,-2.357 -0.003,-4.69 -0.5,-7 -2.102,-1.595 -3.602,-3.595 -4.5,-6 -0.994,-1.834 -0.994,-3.501 0,-5 0.845,1.171 1.511,2.505 2,4 1.82,3.309 4.32,5.976 7.5,8 1.952,-1.22 3.452,-2.887 4.5,-5 0.838,-0.342 1.172,-1.008 1,-2 1.979,-1.312 3.645,-2.979 5,-5 -3.991,-3.665 -7.991,-7.331 -12,-11 -0.333,-1 -1,-1.667 -2,-2 -2.842,-2.836 -6.342,-4.503 -10.5,-5 -1.908,0.215 -3.074,1.215 -3.5,3 -1.598,2.198 -2.931,4.531 -4,7 -1.105,1.1 -2.438,1.767 -4,2 -1.394,-2.092 -3.228,-3.758 -5.5,-5 -1.856,0.702 -3.023,2.036 -3.5,4 -0.929,1.436 -2.095,2.769 -3.5,4 -0.499,5.323 -0.666,10.656 -0.5,16 -0.487,-7.317 -1.487,-14.65 -3,-22 -0.131,-0.739 0.036,-1.406 0.5,-2 0.278,0.916 0.778,1.582 1.5,2 1.395,3.695 2.728,3.361 4,-1 1.474,-0.936 2.474,-2.27 3,-4 1.946,-0.754 2.779,-2.088 2.5,-4 -2.381,0.935 -4.881,1.268 -7.5,1 0,-0.333 0,-0.667 0,-1 2.706,-0.075 5.373,-0.408 8,-1 0.667,-0.333 1.333,-0.667 2,-1 4.921,-1.854 4.921,-2.854 0,-3 -5.676,-0.166 -11.343,0.001 -17,0.5 1.291,1.292 1.291,2.458 0,3.5 -1.499,-2.302 -2.832,-1.969 -4,1 -0.961,1.765 -1.295,3.765 -1,6 -0.067,1.459 0.266,2.792 1,4 -1,0 -2,0 -3,0 0,-3 0,-6 0,-9 -3.744,0.428 -6.744,2.095 -9,5 -1.425,1.422 -2.425,3.089 -3,5 -1.39,1.399 -2.39,3.066 -3,5 -2.004,2.338 -3.171,5.005 -3.5,8 2.07,2.287 4.57,3.953 7.5,5 0.966,-1.896 1.299,-3.896 1,-6 1.369,-2.798 2.369,-5.798 3,-9 -0.188,-1.603 0.312,-2.937 1.5,-4 0.556,2.385 0.39,4.718 -0.5,7 0,0.333 0,0.667 0,1 -1.489,3.736 -2.156,7.736 -2,12 -0.977,2.787 -1.31,5.787 -1,9 -0.801,1.542 -1.134,3.208 -1,5 -0.982,3.462 -1.315,7.129 -1,11 0,1.333 0,2.667 0,4 1.291,-0.237 2.291,0.096 3,1 -0.667,1.667 -1.333,3.333 -2,5 -1.465,-3.495 -2.465,-7.162 -3,-11 0.341,-4.731 1.008,-9.398 2,-14 -0.333,-0.333 -0.667,-0.667 -1,-1 -1.333,7.168 -3.666,14.001 -7,20.5 1.578,1.972 2.411,4.138 2.5,6.5 -1.333,1.333 -2.667,1.333 -4,0 -0.236,2.264 -0.736,4.431 -1.5,6.5 -2.761,0.145 -5.427,-0.355 -8,-1.5 0.648,-1.586 1.148,-3.253 1.5,-5 3.23,6.891 4.064,6.558 2.5,-1 1.333,0 2.667,0 4,0 0,-1.667 0,-3.333 0,-5 -1.56,-0.019 -3.06,-0.352 -4.5,-1 -1.595,0.856 -2.428,2.189 -2.5,4 -0.79,1.109 -1.29,2.442 -1.5,4 -0.483,-0.948 -0.649,-1.948 -0.5,-3 1.493,-6.565 2.66,-13.232 3.5,-20 2.521,-6.245 5.021,-12.411 7.5,-18.5 -0.909,-3.755 -0.075,-7.255 2.5,-10.5 3.984,-8.651 10.484,-14.485 19.5,-17.5 0.857,-0.689 1.523,-1.522 2,-2.5 -3.874,-1.091 -7.541,-2.424 -11,-4 0.667,0 1,-0.333 1,-1 4.784,2.038 9.784,3.038 15,3 4.816,1.15 9.816,1.316 15,0.5 20.641,-1.164 32.974,-11.664 37,-31.5 z"
       id="path95" />
  </g>
  <g
     id="g96"
     transform="translate(-456.47678,-39.053303)">
    <path
       style="opacity:1"
       fill="#ded7d0"
       d="m 504.5,143.5 c -1.272,4.361 -2.605,4.695 -4,1 0.12,-1.086 0.787,-1.753 2,-2 0.916,0.043 1.583,0.376 2,1 z"
       id="path96" />
  </g>
  <g
     id="g97"
     transform="translate(-456.47678,-39.053303)">
    <path
       style="opacity:1"
       fill="#b8937c"
       d="m 488.5,145.5 c -2.932,-1.438 -5.932,-2.771 -9,-4 2.256,-2.905 5.256,-4.572 9,-5 0,3 0,6 0,9 z"
       id="path97" />
  </g>
  <g
     id="g98"
     transform="translate(-456.47678,-39.053303)">
    <path
       style="opacity:1"
       fill="#8e8981"
       d="m 491.5,135.5 c -0.514,5.367 1.152,6.367 5,3 0.904,0.709 1.237,1.709 1,3 -2.333,0 -4.667,0 -7,0 -0.295,-2.235 0.039,-4.235 1,-6 z"
       id="path98" />
  </g>
  <g
     id="g99"
     transform="translate(-456.47678,-39.053303)">
    <path
       style="opacity:1"
       fill="#4f4e55"
       d="m 500.5,136.5 c -0.086,0.996 0.248,1.829 1,2.5 1.973,0.495 3.973,0.662 6,0.5 -0.526,1.73 -1.526,3.064 -3,4 -0.417,-0.624 -1.084,-0.957 -2,-1 -1.213,0.247 -1.88,0.914 -2,2 -0.722,-0.418 -1.222,-1.084 -1.5,-2 -0.464,0.594 -0.631,1.261 -0.5,2 -2.45,-0.202 -4.783,0.131 -7,1 -0.734,-1.208 -1.067,-2.541 -1,-4 2.333,0 4.667,0 7,0 0.472,-2.031 1.472,-3.698 3,-5 z"
       id="path99" />
  </g>
  <g
     id="g100"
     transform="translate(-456.47678,-39.053303)">
    <path
       style="opacity:1"
       fill="#bd8d6d"
       d="m 518.5,131.5 c 4.065,1.022 4.899,3.355 2.5,7 -1.483,4.165 -4.316,5.665 -8.5,4.5 -1.711,-1.133 -2.211,-2.633 -1.5,-4.5 2.479,-2.466 4.979,-4.799 7.5,-7 z"
       id="path100" />
  </g>
  <g
     id="g101"
     transform="translate(-456.47678,-39.053303)">
    <path
       style="opacity:1"
       fill="#dad9d3"
       d="m 507.5,139.5 c -2.027,0.162 -4.027,-0.005 -6,-0.5 -0.752,-0.671 -1.086,-1.504 -1,-2.5 0.667,0 1.333,0 2,0 2.619,0.268 5.119,-0.065 7.5,-1 0.279,1.912 -0.554,3.246 -2.5,4 z"
       id="path101" />
  </g>
  <g
     id="g102"
     transform="translate(-456.47678,-39.053303)">
    <path
       style="opacity:1"
       fill="#d7d7d8"
       d="m 570.5,135.5 c 2.965,0.23 4.298,1.897 4,5 -0.194,4.225 -2.194,5.892 -6,5 1.801,-3.035 2.468,-6.369 2,-10 z"
       id="path102" />
  </g>
  <g
     id="g103"
     transform="translate(-456.47678,-39.053303)">
    <path
       style="opacity:1"
       fill="#e9a888"
       d="m 495.5,134.5 c 0.333,1.333 0.667,2.667 1,4 -3.848,3.367 -5.514,2.367 -5,-3 1.168,-2.969 2.501,-3.302 4,-1 z"
       id="path103" />
  </g>
  <g
     id="g104"
     transform="translate(-456.47678,-39.053303)">
    <path
       style="opacity:1"
       fill="#403636"
       d="m 512.5,130.5 c 0,1 0,2 0,3 -0.667,0.333 -1.333,0.667 -2,1 -0.077,-1.25 -0.744,-2.083 -2,-2.5 -2.646,-0.497 -5.313,-0.664 -8,-0.5 0.027,1.699 0.694,3.033 2,4 0,0.333 0,0.667 0,1 -0.667,0 -1.333,0 -2,0 -1.528,1.302 -2.528,2.969 -3,5 0.237,-1.291 -0.096,-2.291 -1,-3 -0.333,-1.333 -0.667,-2.667 -1,-4 1.291,-1.042 1.291,-2.208 0,-3.5 5.657,-0.499 11.324,-0.666 17,-0.5 z"
       id="path104" />
  </g>
  <g
     id="g105"
     transform="translate(-456.47678,-39.053303)">
    <path
       style="opacity:1"
       fill="#c1c0bf"
       d="m 510.5,134.5 c -2.627,0.592 -5.294,0.925 -8,1 -1.306,-0.967 -1.973,-2.301 -2,-4 2.687,-0.164 5.354,0.003 8,0.5 1.256,0.417 1.923,1.25 2,2.5 z"
       id="path105" />
  </g>
  <g
     id="g106"
     transform="translate(-456.47678,-39.053303)">
    <path
       style="opacity:1"
       fill="#ddd4d2"
       d="m 512.5,130.5 c 4.921,0.146 4.921,1.146 0,3 0,-1 0,-2 0,-3 z"
       id="path106" />
  </g>
  <g
     id="g107"
     transform="translate(-456.47678,-39.053303)">
    <path
       style="opacity:1"
       fill="#aa8096"
       d="m 536.5,140.5 c 1,0.333 1.667,1 2,2 -1.406,0.473 -2.073,1.473 -2,3 -1.667,0 -3.333,0 -5,0 0.284,1.915 -0.049,3.581 -1,5 -0.297,-3.224 0.37,-6.224 2,-9 1.189,-0.929 2.522,-1.262 4,-1 z"
       id="path107" />
  </g>
  <g
     id="g108"
     transform="translate(-456.47678,-39.053303)">
    <path
       style="opacity:1"
       fill="#9e9081"
       d="m 514.5,147.5 c -2.333,0 -4.667,0 -7,0 0,2.333 0,4.667 0,7 -0.333,0 -0.667,0 -1,0 -0.333,-2.667 -0.667,-5.333 -1,-8 0.477,-1.964 1.644,-3.298 3.5,-4 2.272,1.242 4.106,2.908 5.5,5 z"
       id="path108" />
  </g>
  <g
     id="g109"
     transform="translate(-456.47678,-39.053303)">
    <path
       style="opacity:1"
       fill="#ecbe6a"
       d="m 522.5,138.5 c 2.52,2.063 3.353,4.73 2.5,8 -1.699,0.906 -3.533,1.239 -5.5,1 -0.333,-0.667 -0.667,-1.333 -1,-2 1.069,-2.469 2.402,-4.802 4,-7 z"
       id="path109" />
  </g>
  <g
     id="g112"
     transform="translate(-456.47678,-39.053303)">
    <path
       style="opacity:1"
       fill="#e2e2e4"
       d="m 572.5,146.5 c 2.477,-0.449 4.477,0.217 6,2 -2.962,1.534 -5.962,1.867 -9,1 0.84,-1.235 1.84,-2.235 3,-3 z"
       id="path112" />
  </g>
  <g
     id="g114"
     transform="translate(-456.47678,-39.053303)">
    <path
       style="opacity:1"
       fill="#f1bd5f"
       d="m 536.5,145.5 c 1.548,0.321 2.215,1.321 2,3 1,0 2,0 3,0 0,1 0,2 0,3 0.333,3 -1,4.333 -4,4 0,-2 0,-4 0,-6 -1,0 -2,0 -3,0 0.027,-1.699 0.694,-3.033 2,-4 z"
       id="path114" />
  </g>
  <g
     id="g116"
     transform="translate(-456.47678,-39.053303)">
    <path
       style="opacity:1"
       fill="#88949a"
       d="m 536.5,140.5 c -1.478,-0.262 -2.811,0.071 -4,1 -1.63,2.776 -2.297,5.776 -2,9 -1.333,1 -1.333,2 0,3 -0.994,1.499 -0.994,3.166 0,5 -2.433,-0.227 -4.099,0.773 -5,3 -0.667,-0.333 -1.333,-0.667 -2,-1 -1.051,-0.722 -1.718,-1.722 -2,-3 1.944,-3.616 0.944,-5.616 -3,-6 0.17,-1.322 -0.163,-2.489 -1,-3.5 0.594,-0.464 1.261,-0.631 2,-0.5 1.967,0.239 3.801,-0.094 5.5,-1 0.853,-3.27 0.02,-5.937 -2.5,-8 0.426,-1.785 1.592,-2.785 3.5,-3 4.158,0.497 7.658,2.164 10.5,5 z"
       id="path116" />
  </g>
  <g
     id="g117"
     transform="translate(-456.47678,-39.053303)">
    <path
       style="opacity:1"
       fill="#78829d"
       d="m 476.5,146.5 c 1.422,1.425 3.089,2.425 5,3 -0.631,3.202 -1.631,6.202 -3,9 -1,0 -2,0 -3,0 -0.667,-2.333 -1.333,-4.667 -2,-7 0.61,-1.934 1.61,-3.601 3,-5 z"
       id="path117" />
  </g>
  <g
     id="g118"
     transform="translate(-456.47678,-39.053303)">
    <path
       style="opacity:1"
       fill="#e3b377"
       d="m 479.5,141.5 c 3.068,1.229 6.068,2.562 9,4 1.068,0.934 2.401,1.268 4,1 0.334,2.688 -0.332,5.021 -2,7 -1,0 -2,0 -3,0 0,-1 0,-2 0,-3 -2.014,-0.108 -3.68,0.558 -5,2 0.89,-2.282 1.056,-4.615 0.5,-7 -1.188,1.063 -1.688,2.397 -1.5,4 -1.911,-0.575 -3.578,-1.575 -5,-3 0.575,-1.911 1.575,-3.578 3,-5 z"
       id="path118" />
  </g>
  <g
     id="g119"
     transform="translate(-456.47678,-39.053303)">
    <path
       style="opacity:1"
       fill="#e78d69"
       d="m 518.5,145.5 c 0.333,0.667 0.667,1.333 1,2 -0.739,-0.131 -1.406,0.036 -2,0.5 0.837,1.011 1.17,2.178 1,3.5 -0.667,0.333 -1.333,0.667 -2,1 -2.936,0.906 -5.936,1.572 -9,2 0,-2.333 0,-4.667 0,-7 2.333,0 4.667,0 7,0 1.562,-0.233 2.895,-0.9 4,-2 z"
       id="path119" />
  </g>
  <g
     id="g123"
     transform="translate(-456.47678,-39.053303)">
    <path
       style="opacity:1"
       fill="#ddddde"
       d="m 570.5,151.5 c 3,0 6,0 9,0 0,1 0,2 0,3 -3.398,0.32 -6.732,-0.013 -10,-1 0.363,-0.683 0.696,-1.35 1,-2 z"
       id="path123" />
  </g>
  <g
     id="g127"
     transform="translate(-456.47678,-39.053303)">
    <path
       style="opacity:1"
       fill="#e49a6f"
       d="m 536.5,145.5 c -1.306,0.967 -1.973,2.301 -2,4 1,0 2,0 3,0 0,2 0,4 0,6 3,0.333 4.333,-1 4,-4 1.293,2.308 2.626,4.642 4,7 0.172,0.992 -0.162,1.658 -1,2 -1.462,-0.958 -2.795,-2.124 -4,-3.5 -2.657,-0.175 -5.324,-0.008 -8,0.5 -0.489,-1.495 -1.155,-2.829 -2,-4 -1.333,-1 -1.333,-2 0,-3 0.951,-1.419 1.284,-3.085 1,-5 1.667,0 3.333,0 5,0 z"
       id="path127" />
  </g>
  <g
     id="g128"
     transform="translate(-456.47678,-39.053303)">
    <path
       style="opacity:1"
       fill="#b9906f"
       d="m 538.5,142.5 c 4.009,3.669 8.009,7.335 12,11 -1.355,2.021 -3.021,3.688 -5,5 -1.374,-2.358 -2.707,-4.692 -4,-7 0,-1 0,-2 0,-3 -1,0 -2,0 -3,0 0.215,-1.679 -0.452,-2.679 -2,-3 -0.073,-1.527 0.594,-2.527 2,-3 z"
       id="path128" />
  </g>
  <g
     id="g129"
     transform="translate(-456.47678,-39.053303)">
    <path
       style="opacity:1"
       fill="#fa936c"
       d="m 487.5,153.5 c -1.135,1.713 -2.802,2.38 -5,2 0,-0.667 0,-1.333 0,-2 0,-0.333 0,-0.667 0,-1 1.32,-1.442 2.986,-2.108 5,-2 0,1 0,2 0,3 z"
       id="path129" />
  </g>
  <g
     id="g130"
     transform="translate(-456.47678,-39.053303)">
    <path
       style="opacity:1"
       fill="#f3b95b"
       d="m 516.5,152.5 c -1.051,0.722 -1.718,1.722 -2,3 -0.486,2.452 -0.486,5.118 0,8 -0.787,1.604 -2.12,2.271 -4,2 0,-2 0,-4 0,-6 -1.667,0 -3.333,0 -5,0 0,-1.333 0,-2.667 0,-4 0,-0.667 0.333,-1 1,-1 0.333,0 0.667,0 1,0 3.064,-0.428 6.064,-1.094 9,-2 z"
       id="path130" />
  </g>
  <g
     id="g131"
     transform="translate(-456.47678,-39.053303)">
    <path
       style="opacity:1"
       fill="#f5dc66"
       d="m 518.5,151.5 c 3.944,0.384 4.944,2.384 3,6 -2.608,0.1 -4.942,-0.567 -7,-2 0.282,-1.278 0.949,-2.278 2,-3 0.667,-0.333 1.333,-0.667 2,-1 z"
       id="path131" />
  </g>
  <g
     id="g132"
     transform="translate(-456.47678,-39.053303)">
    <path
       style="opacity:1"
       fill="#939192"
       d="m 566.5,148.5 c 1.953,2.74 2.286,5.74 1,9 -1.541,-2.986 -1.874,-5.986 -1,-9 z"
       id="path132" />
  </g>
  <g
     id="g136"
     transform="translate(-456.47678,-39.053303)">
    <path
       style="opacity:1"
       fill="#e5d45c"
       d="m 487.5,153.5 c 1,0 2,0 3,0 0.956,1.159 1.956,2.326 3,3.5 -0.856,1.595 -2.189,2.428 -4,2.5 -2.181,-1.591 -4.514,-2.924 -7,-4 2.198,0.38 3.865,-0.287 5,-2 z"
       id="path136" />
  </g>
  <g
     id="g137"
     transform="translate(-456.47678,-39.053303)">
    <path
       style="opacity:1"
       fill="#d8d8d9"
       d="m 572.5,155.5 c 2.424,-0.308 4.757,0.026 7,1 -0.209,0.586 -0.543,1.086 -1,1.5 -2.727,0.818 -5.394,0.652 -8,-0.5 0.743,-0.682 1.409,-1.349 2,-2 z"
       id="path137" />
  </g>
  <g
     id="g140"
     transform="translate(-456.47678,-39.053303)">
    <path
       style="opacity:1"
       fill="#686d6e"
       d="m 505.5,146.5 c 0.333,2.667 0.667,5.333 1,8 -0.667,0 -1,0.333 -1,1 -1,0 -2,0 -3,0 -0.177,3.734 0.156,7.401 1,11 -0.667,0 -1.333,0 -2,0 -0.166,-5.344 10e-4,-10.677 0.5,-16 1.405,-1.231 2.571,-2.564 3.5,-4 z"
       id="path140" />
  </g>
  <g
     id="g141"
     transform="translate(-456.47678,-39.053303)">
    <path
       style="opacity:1"
       fill="#9a9e83"
       d="m 514.5,155.5 c 2.058,1.433 4.392,2.1 7,2 0.282,1.278 0.949,2.278 2,3 -1.109,0.057 -2.109,0.39 -3,1 0.065,-0.438 -0.101,-0.772 -0.5,-1 -1.512,2.457 -2.846,2.457 -4,0 -0.232,1.237 -0.732,2.237 -1.5,3 -0.486,-2.882 -0.486,-5.548 0,-8 z"
       id="path141" />
  </g>
  <g
     id="g142"
     transform="translate(-456.47678,-39.053303)">
    <path
       style="opacity:1"
       fill="#878f89"
       d="m 498.5,144.5 c 1.513,7.35 2.513,14.683 3,22 0,1.667 0,3.333 0,5 -0.667,0 -1.333,0 -2,0 0,-1.333 0,-2.667 0,-4 -4.688,0.392 -6.022,2.725 -4,7 -1.278,0.282 -2.278,0.949 -3,2 -2.667,0.333 -5.333,0.667 -8,1 0,-1 0,-2 0,-3 -1,0 -2,0 -3,0 1.689,-0.804 3.355,-1.804 5,-3 2.247,0.874 4.58,1.208 7,1 0.203,-1.89 -0.463,-3.39 -2,-4.5 -2.208,-0.191 -4.208,-0.691 -6,-1.5 1.333,0 2.667,0 4,0 0,-2.333 0,-4.667 0,-7 1.811,-0.072 3.144,-0.905 4,-2.5 -1.044,-1.174 -2.044,-2.341 -3,-3.5 1.668,-1.979 2.334,-4.312 2,-7 -1.599,0.268 -2.932,-0.066 -4,-1 1,0 2,0 3,0 2.217,-0.869 4.55,-1.202 7,-1 z"
       id="path142" />
  </g>
  <g
     id="g143"
     transform="translate(-456.47678,-39.053303)">
    <path
       style="opacity:1"
       fill="#b6b5b6"
       d="m 570.5,159.5 c 2.747,-0.313 5.414,0.02 8,1 -1.333,0.333 -2.667,0.667 -4,1 -1.833,-0.085 -3.166,-0.752 -4,-2 z"
       id="path143" />
  </g>
  <g
     id="g150"
     transform="translate(-456.47678,-39.053303)">
    <path
       style="opacity:1"
       fill="#b89774"
       d="m 473.5,151.5 c 0.667,2.333 1.333,4.667 2,7 1,0 2,0 3,0 0.299,2.104 -0.034,4.104 -1,6 -2.93,-1.047 -5.43,-2.713 -7.5,-5 0.329,-2.995 1.496,-5.662 3.5,-8 z"
       id="path150" />
  </g>
  <g
     id="g152"
     transform="translate(-456.47678,-39.053303)">
    <path
       style="opacity:1"
       fill="#f3cf5d"
       d="m 523.5,160.5 c 0.667,0.333 1.333,0.667 2,1 0.412,2.473 -0.588,3.806 -3,4 -1.604,-0.787 -2.271,-2.12 -2,-4 0.891,-0.61 1.891,-0.943 3,-1 z"
       id="path152" />
  </g>
  <g
     id="g153"
     transform="translate(-456.47678,-39.053303)">
    <path
       style="opacity:1"
       fill="#e9e7e8"
       d="m 549.5,157.5 c 1.495,-0.085 2.495,0.581 3,2 -0.98,1.481 -2.147,2.815 -3.5,4 -0.192,2.077 -0.692,4.077 -1.5,6 -1.772,-0.77 -2.772,-2.103 -3,-4 1.162,-2.993 2.829,-5.659 5,-8 z"
       id="path153" />
  </g>
  <g
     id="g155"
     transform="translate(-456.47678,-39.053303)">
    <path
       style="opacity:1"
       fill="#91a379"
       d="m 482.5,153.5 c 0,0.667 0,1.333 0,2 2.486,1.076 4.819,2.409 7,4 0,2.333 0,4.667 0,7 -1.333,0 -2.667,0 -4,0 -1.716,-0.129 -3.383,-0.462 -5,-1 -0.156,-4.264 0.511,-8.264 2,-12 z"
       id="path155" />
  </g>
  <g
     id="g156"
     transform="translate(-456.47678,-39.053303)">
    <path
       style="opacity:1"
       fill="#9e9a95"
       d="m 544.5,160.5 c -1.048,2.113 -2.548,3.78 -4.5,5 -3.18,-2.024 -5.68,-4.691 -7.5,-8 2.676,-0.508 5.343,-0.675 8,-0.5 1.205,1.376 2.538,2.542 4,3.5 z"
       id="path156" />
  </g>
  <g
     id="g159"
     transform="translate(-456.47678,-39.053303)">
    <path
       style="opacity:1"
       fill="#899791"
       d="m 505.5,155.5 c 0,1.333 0,2.667 0,4 1.667,0 3.333,0 5,0 0,2 0,4 0,6 -0.801,1.542 -1.134,3.208 -1,5 -2.726,-0.355 -4.726,-1.688 -6,-4 -0.844,-3.599 -1.177,-7.266 -1,-11 1,0 2,0 3,0 z"
       id="path159" />
  </g>
  <g
     id="g160"
     transform="translate(-456.47678,-39.053303)">
    <path
       style="opacity:1"
       fill="#dbdbdb"
       d="m 563.5,153.5 c 1.773,0.814 2.273,2.148 1.5,4 -4.784,2.45 -8.617,5.95 -11.5,10.5 2.42,-0.025 4.753,-0.691 7,-2 2.183,-2.35 4.516,-4.517 7,-6.5 1.601,0.535 2.101,1.535 1.5,3 -3.552,3.219 -7.385,6.052 -11.5,8.5 -2.957,0.653 -5.457,-0.181 -7.5,-2.5 -0.667,-1.333 -0.667,-2.667 0,-4 4.399,-3.909 8.899,-7.576 13.5,-11 z"
       id="path160" />
  </g>
  <g
     id="g161"
     transform="translate(-456.47678,-39.053303)">
    <path
       style="opacity:1"
       fill="#dad7e0"
       d="m 469.5,162.5 c 2.316,1.306 4.65,2.639 7,4 1.333,1.333 1.333,2.667 0,4 -2.07,-2.142 -4.57,-3.476 -7.5,-4 -0.579,-1.428 -0.412,-2.762 0.5,-4 z"
       id="path161" />
  </g>
  <g
     id="g163"
     transform="translate(-456.47678,-39.053303)">
    <path
       style="opacity:1"
       fill="#8489a8"
       d="m 480.5,165.5 c 1.617,0.538 3.284,0.871 5,1 1.792,0.809 3.792,1.309 6,1.5 1.537,1.11 2.203,2.61 2,4.5 -2.42,0.208 -4.753,-0.126 -7,-1 -1.645,1.196 -3.311,2.196 -5,3 -0.667,0 -1.333,0 -2,0 -0.31,-3.213 0.023,-6.213 1,-9 z"
       id="path163" />
  </g>
  <g
     id="g164"
     transform="translate(-456.47678,-39.053303)">
    <path
       style="opacity:1"
       fill="#dd9971"
       d="m 499.5,171.5 c 0,3.667 0,7.333 0,11 -1.322,0.17 -2.489,-0.163 -3.5,-1 -0.497,-2.31 -0.663,-4.643 -0.5,-7 -2.022,-4.275 -0.688,-6.608 4,-7 0,1.333 0,2.667 0,4 z"
       id="path164" />
  </g>
  <g
     id="g168"
     transform="translate(-456.47678,-39.053303)">
    <path
       style="opacity:1"
       fill="#e6996a"
       d="m 530.5,158.5 c 0.898,2.405 2.398,4.405 4.5,6 0.497,2.31 0.663,4.643 0.5,7 -1,0 -2,0 -3,0 1.008,5.167 -0.825,6.834 -5.5,5 -0.49,-1.293 -0.657,-2.627 -0.5,-4 -2.51,0.446 -4.51,-0.22 -6,-2 0.667,-1.667 1.333,-3.333 2,-5 2.412,-0.194 3.412,-1.527 3,-4 0.901,-2.227 2.567,-3.227 5,-3 z"
       id="path168" />
  </g>
  <g
     id="g205"
     transform="translate(-456.47678,-39.053303)">
    <path
       style="opacity:1"
       fill="#e1a26c"
       d="m 501.5,166.5 c 0.667,0 1.333,0 2,0 1.274,2.312 3.274,3.645 6,4 0.157,2.844 -1.176,4.511 -4,5 -1.333,0 -2.667,0 -4,0 0,2.333 0,4.667 0,7 -0.333,0 -0.667,0 -1,0 -0.177,-3.734 0.156,-7.401 1,-11 0,-1.667 0,-3.333 0,-5 z"
       id="path205" />
  </g>
  <g
     id="g211"
     transform="translate(-456.47678,-39.053303)">
    <path
       style="opacity:1"
       fill="#f0a272"
       d="m 479.5,174.5 c 0.667,0 1.333,0 2,0 1,0 2,0 3,0 0,1 0,2 0,3 2.667,-0.333 5.333,-0.667 8,-1 0.1,2.608 -0.567,4.942 -2,7 -1.109,0.057 -2.109,0.39 -3,1 -1.419,-0.951 -3.085,-1.284 -5,-1 0.39,-4.922 -0.777,-5.256 -3.5,-1 -0.483,-0.948 -0.649,-1.948 -0.5,-3 -0.134,-1.792 0.199,-3.458 1,-5 z"
       id="path211" />
  </g>
  <g
     id="g213"
     transform="translate(-456.47678,-39.053303)">
    <path
       style="opacity:1"
       fill="#8c9098"
       d="m 520.5,161.5 c -0.271,1.88 0.396,3.213 2,4 -0.667,1.667 -1.333,3.333 -2,5 -1.086,0.12 -1.753,0.787 -2,2 2.172,2.516 3.172,5.516 3,9 -1.967,-0.239 -3.801,0.094 -5.5,1 -0.773,1.852 -0.273,3.186 1.5,4 0,0.333 0,0.667 0,1 -1.442,1.32 -2.108,2.986 -2,5 1.667,0 3.333,0 5,0 -0.116,3.41 1.55,4.744 5,4 -6.047,2.256 -12.38,3.423 -19,3.5 -3.023,-2.177 -5.023,-5.011 -6,-8.5 2.327,-0.253 4.327,0.414 6,2 1.611,-0.82 2.278,-2.154 2,-4 -2.667,0 -5.333,0 -8,0 0,-2.333 0,-4.667 0,-7 0.333,0 0.667,0 1,0 2.307,0.486 4.473,0.486 6.5,0 -1.771,-1.737 -2.605,-4.071 -2.5,-7 2.824,-0.489 4.157,-2.156 4,-5 -0.134,-1.792 0.199,-3.458 1,-5 1.88,0.271 3.213,-0.396 4,-2 0.768,-0.763 1.268,-1.763 1.5,-3 1.154,2.457 2.488,2.457 4,0 0.399,0.228 0.565,0.562 0.5,1 z"
       id="path213" />
  </g>
  <g
     id="g215"
     transform="translate(-456.47678,-39.053303)">
    <path
       style="opacity:1"
       fill="#7c7b8b"
       d="m 520.5,170.5 c 1.49,1.78 3.49,2.446 6,2 -0.157,1.373 0.01,2.707 0.5,4 4.675,1.834 6.508,0.167 5.5,-5 1,0 2,0 3,0 0.282,5.521 0.949,10.854 2,16 0.239,1.967 -0.094,3.801 -1,5.5 -3.521,1.674 -7.187,2.84 -11,3.5 0,-1 0,-2 0,-3 7.258,0.945 8.592,-1.221 4,-6.5 4.298,-4.236 3.298,-6.069 -3,-5.5 0.744,-3.45 -0.59,-5.116 -4,-5 0.284,1.915 -0.049,3.581 -1,5 0.172,-3.484 -0.828,-6.484 -3,-9 0.247,-1.213 0.914,-1.88 2,-2 z"
       id="path215" />
  </g>
  <g
     id="g218"
     transform="translate(-456.47678,-39.053303)">
    <path
       style="opacity:1"
       fill="#f4ce66"
       d="m 505.5,175.5 c -0.105,2.929 0.729,5.263 2.5,7 -2.027,0.486 -4.193,0.486 -6.5,0 0,-2.333 0,-4.667 0,-7 1.333,0 2.667,0 4,0 z"
       id="path218" />
  </g>
  <g
     id="g220"
     transform="translate(-456.47678,-39.053303)">
    <path
       style="opacity:1"
       fill="#e3e3e5"
       d="m 467.5,168.5 c 0.639,0.597 0.972,1.43 1,2.5 -1.923,4.845 -3.256,9.845 -4,15 0.333,1.5 0.667,3 1,4.5 4.035,-6.135 5.535,-12.801 4.5,-20 1.333,-1.333 2.667,-1.333 4,0 0.059,7.765 -1.774,15.098 -5.5,22 -2.218,0.557 -4.551,0.557 -7,0 -0.248,-8.585 1.752,-16.585 6,-24 z"
       id="path220" />
  </g>
  <g
     id="g221"
     transform="translate(-456.47678,-39.053303)">
    <path
       style="opacity:1"
       fill="#d38777"
       d="m 478.5,179.5 c -0.149,1.052 0.017,2.052 0.5,3 2.723,-4.256 3.89,-3.922 3.5,1 1.915,-0.284 3.581,0.049 5,1 0.03,0.997 -0.47,1.664 -1.5,2 -4.004,-1.88 -5.504,-0.88 -4.5,3 -1.459,-0.067 -2.792,0.266 -4,1 -0.315,-3.871 0.018,-7.538 1,-11 z"
       id="path221" />
  </g>
  <g
     id="g226"
     transform="translate(-456.47678,-39.053303)">
    <path
       style="opacity:1"
       fill="#f4c664"
       d="m 490.5,183.5 c 3.013,0.856 3.68,2.689 2,5.5 -2.824,0.33 -5.491,1.164 -8,2.5 -1.538,0.047 -2.538,-0.62 -3,-2 -1.004,-3.88 0.496,-4.88 4.5,-3 1.03,-0.336 1.53,-1.003 1.5,-2 0.891,-0.61 1.891,-0.943 3,-1 z"
       id="path226" />
  </g>
  <g
     id="g230"
     transform="translate(-456.47678,-39.053303)">
    <path
       style="opacity:1"
       fill="#f3b369"
       d="m 525.5,196.5 c -3.45,0.744 -5.116,-0.59 -5,-4 -1.667,0 -3.333,0 -5,0 -0.108,-2.014 0.558,-3.68 2,-5 1.333,0 2.667,0 4,0 0,1.333 0,2.667 0,4 1,0 2,0 3,0 0.493,-2.306 0.826,-4.639 1,-7 -2.504,1.139 -5.17,1.806 -8,2 -1.773,-0.814 -2.273,-2.148 -1.5,-4 1.699,-0.906 3.533,-1.239 5.5,-1 0.951,-1.419 1.284,-3.085 1,-5 3.41,-0.116 4.744,1.55 4,5 6.298,-0.569 7.298,1.264 3,5.5 4.592,5.279 3.258,7.445 -4,6.5 0,1 0,2 0,3 z"
       id="path230" />
  </g>
  <g
     id="g231"
     transform="translate(-456.47678,-39.053303)">
    <path
       style="opacity:1"
       fill="#9391a1"
       d="m 495.5,174.5 c -0.163,2.357 0.003,4.69 0.5,7 1.011,0.837 2.178,1.17 3.5,1 0.099,2.737 -0.235,5.404 -1,8 -1.333,0 -2.667,0 -4,0 0,1.667 0,3.333 0,5 1.333,0 2.667,0 4,0 -0.859,2.046 -2.359,3.379 -4.5,4 -4.545,-1.238 -9.045,-2.571 -13.5,-4 -0.709,-0.904 -1.709,-1.237 -3,-1 0,-1.333 0,-2.667 0,-4 1.208,-0.734 2.541,-1.067 4,-1 0.462,1.38 1.462,2.047 3,2 2.509,-1.336 5.176,-2.17 8,-2.5 1.68,-2.811 1.013,-4.644 -2,-5.5 1.433,-2.058 2.1,-4.392 2,-7 0.722,-1.051 1.722,-1.718 3,-2 z"
       id="path231" />
  </g>
  <g
     id="g232"
     transform="translate(-456.47678,-39.053303)">
    <path
       style="opacity:1"
       fill="#b9a585"
       d="m 498.5,190.5 c 0,1.667 0,3.333 0,5 -1.333,0 -2.667,0 -4,0 0,-1.667 0,-3.333 0,-5 1.333,0 2.667,0 4,0 z"
       id="path232" />
  </g>
  <g
     id="g239"
     transform="translate(-456.47678,-39.053303)">
    <path
       style="opacity:1"
       fill="#18191a"
       d="m 499.5,171.5 c 0.667,0 1.333,0 2,0 -0.844,3.599 -1.177,7.266 -1,11 0,2.333 0,4.667 0,7 0,0.667 0,1.333 0,2 0.977,3.489 2.977,6.323 6,8.5 6.62,-0.077 12.953,-1.244 19,-3.5 3.813,-0.66 7.479,-1.826 11,-3.5 0.906,-1.699 1.239,-3.533 1,-5.5 -0.268,-1.599 0.066,-2.932 1,-4 1.742,4.054 1.242,7.721 -1.5,11 -0.167,2 -0.333,4 -0.5,6 1.853,14.216 3.186,28.216 4,42 2.01,2.335 4.01,4.668 6,7 -0.505,1.419 -1.505,2.085 -3,2 -0.438,0.065 -0.772,-0.101 -1,-0.5 0.916,-0.278 1.582,-0.778 2,-1.5 -1.333,-2 -3,-3.667 -5,-5 -4.936,-0.599 -9.936,-0.599 -15,0 0.066,5.694 2.732,7.36 8,5 0,0.667 0,1.333 0,2 -1.052,-0.149 -2.052,0.017 -3,0.5 1.245,0.791 2.578,1.291 4,1.5 1.599,-0.268 2.932,0.066 4,1 -2.306,0.493 -4.639,0.826 -7,1 -1.852,-2.789 -4.352,-4.789 -7.5,-6 -0.192,-2.077 -0.692,-4.077 -1.5,-6 -2.041,-1.207 -3.374,-2.874 -4,-5 -1.505,-8.188 -3.838,-16.188 -7,-24 -2.928,-0.984 -5.928,-1.317 -9,-1 -1.532,7.243 -2.198,14.576 -2,22 0.446,2.51 -0.22,4.51 -2,6 -0.992,0.172 -1.658,-0.162 -2,-1 2.923,-0.663 3.59,-2.33 2,-5 -5.333,1.333 -10.667,1.333 -16,0 -1.254,1.759 -0.921,3.259 1,4.5 2.31,0.497 4.643,0.663 7,0.5 0.763,0.768 1.763,1.268 3,1.5 -2.702,0.607 -5.368,0.44 -8,-0.5 -1.538,-0.047 -2.538,0.62 -3,2 -2.079,0.471 -4.079,1.137 -6,2 -0.667,0 -1,-0.333 -1,-1 1.868,-0.763 3.535,-1.763 5,-3 0.438,0.065 0.772,-0.101 1,-0.5 -0.626,-0.75 -1.126,-1.584 -1.5,-2.5 -1.567,-12.665 -1.734,-25.331 -0.5,-38 0.667,-1.667 1.333,-3.333 2,-5 4.455,1.429 8.955,2.762 13.5,4 2.141,-0.621 3.641,-1.954 4.5,-4 0,-1.667 0,-3.333 0,-5 0.765,-2.596 1.099,-5.263 1,-8 0,-3.667 0,-7.333 0,-11 z"
       id="path239" />
  </g>
  <g
     id="g240"
     transform="translate(-456.47678,-39.053303)">
    <path
       style="opacity:1"
       fill="#d5c477"
       d="m 500.5,189.5 c 2.667,0 5.333,0 8,0 0.278,1.846 -0.389,3.18 -2,4 -1.673,-1.586 -3.673,-2.253 -6,-2 0,-0.667 0,-1.333 0,-2 z"
       id="path240" />
  </g>
  <g
     id="g241"
     transform="translate(-456.47678,-39.053303)">
    <path
       style="opacity:1"
       fill="#e88575"
       d="m 517.5,187.5 c 0,-0.333 0,-0.667 0,-1 2.83,-0.194 5.496,-0.861 8,-2 -0.174,2.361 -0.507,4.694 -1,7 -1,0 -2,0 -3,0 0,-1.333 0,-2.667 0,-4 -1.333,0 -2.667,0 -4,0 z"
       id="path241" />
  </g>
  <g
     id="g243"
     transform="translate(-456.47678,-39.053303)">
    <path
       style="opacity:1"
       fill="#eaebec"
       d="m 462.5,200.5 c -1.679,0.215 -2.679,-0.452 -3,-2 0.072,-1.811 0.905,-3.144 2.5,-4 1.44,0.648 2.94,0.981 4.5,1 0,1.667 0,3.333 0,5 -1.333,0 -2.667,0 -4,0 z"
       id="path243" />
  </g>
  <g
     id="g244"
     transform="translate(-456.47678,-39.053303)">
    <path
       style="opacity:1"
       fill="#babdbe"
       d="m 468.5,198.5 c 1.725,0.343 2.225,1.343 1.5,3 -1.039,-0.744 -1.539,-1.744 -1.5,-3 z"
       id="path244" />
  </g>
  <g
     id="g247"
     transform="translate(-456.47678,-39.053303)">
    <path
       style="opacity:1"
       fill="#284978"
       d="m 481.5,198.5 c 1.855,-0.228 2.688,0.439 2.5,2 -2.808,1.36 -3.641,0.693 -2.5,-2 z"
       id="path247" />
  </g>
  <g
     id="g252"
     transform="translate(-456.47678,-39.053303)">
    <path
       style="opacity:1"
       fill="#3f5c8c"
       d="m 524.5,198.5 c 4.197,-0.306 6.197,1.694 6,6 -3.667,-0.333 -5.667,-2.333 -6,-6 z"
       id="path252" />
  </g>
  <g
     id="g258"
     transform="translate(-456.47678,-39.053303)">
    <path
       style="opacity:1"
       fill="#646564"
       d="m 459.5,198.5 c 0.321,1.548 1.321,2.215 3,2 1.564,7.558 0.73,7.891 -2.5,1 -0.352,1.747 -0.852,3.414 -1.5,5 -1.493,-0.812 -2.16,-2.145 -2,-4 0.02,-1.226 0.353,-2.226 1,-3 -0.149,1.052 0.017,2.052 0.5,3 0.21,-1.558 0.71,-2.891 1.5,-4 z"
       id="path258" />
  </g>
  <g
     id="g262"
     transform="translate(-456.47678,-39.053303)">
    <path
       style="opacity:1"
       fill="#364c6c"
       d="m 535.5,234.5 c -2.252,-9.183 -3.586,-18.516 -4,-28 0.04,-3.381 -0.293,-6.714 -1,-10 1.43,0.079 2.764,-0.254 4,-1 0.428,12.125 1.762,24.125 4,36 -0.688,1.355 -1.688,2.355 -3,3 z"
       id="path262" />
  </g>
  <g
     id="g263"
     transform="translate(-456.47678,-39.053303)">
    <path
       style="opacity:1"
       fill="#455f89"
       d="m 531.5,206.5 c 0.414,9.484 1.748,18.817 4,28 -4.942,2.244 -9.942,2.41 -15,0.5 -3.211,-6.958 -6.045,-14.124 -8.5,-21.5 -4.84,-1.419 -9.673,-2.585 -14.5,-3.5 1.228,0.779 2.228,1.779 3,3 -1.98,7.028 -2.98,14.195 -3,21.5 -5.457,1.579 -10.791,1.245 -16,-1 -1.754,-9.911 -2.421,-19.911 -2,-30 1.373,0.157 2.707,-0.01 4,-0.5 1.225,-1.563 2.725,-2.73 4.5,-3.5 3.776,1.729 7.609,2.062 11.5,1 1.333,8 2.667,8 4,0 0.818,2.607 1.318,5.274 1.5,8 0.495,-1.973 0.662,-3.973 0.5,-6 4.858,-0.432 9.691,-1.099 14.5,-2 3.483,2.644 7.316,4.644 11.5,6 z"
       id="path263" />
  </g>
  <g
     id="g265"
     transform="translate(-456.47678,-39.053303)">
    <path
       style="opacity:1"
       fill="#f5f6f5"
       d="m 517.5,238.5 c -5.235,1.95 -10.902,2.617 -17,2 0.284,-1.915 -0.049,-3.581 -1,-5 -0.198,-7.424 0.468,-14.757 2,-22 3.072,-0.317 6.072,0.016 9,1 3.162,7.812 5.495,15.812 7,24 z"
       id="path265" />
  </g>
  <g
     id="g298"
     transform="translate(-456.47678,-39.053303)">
    <path
       style="opacity:1"
       fill="#49679c"
       d="m 495.5,240.5 c -2,0 -4,0 -6,0 -2.357,0.163 -4.69,-0.003 -7,-0.5 -1.921,-1.241 -2.254,-2.741 -1,-4.5 5.333,1.333 10.667,1.333 16,0 1.59,2.67 0.923,4.337 -2,5 z"
       id="path298" />
  </g>
  <g
     id="g299"
     transform="translate(-456.47678,-39.053303)">
    <path
       style="opacity:1"
       fill="#435f8f"
       d="m 536.5,235.5 c 1,0 2,0 3,0 0.262,1.478 -0.071,2.811 -1,4 -5.444,2.864 -11.11,3.531 -17,2 -0.929,-1.189 -1.262,-2.522 -1,-4 4.346,0.166 8.679,-0.001 13,-0.5 1.237,-0.232 2.237,-0.732 3,-1.5 z"
       id="path299" />
  </g>
  <g
     id="g308"
     transform="translate(-456.47678,-39.053303)">
    <path
       style="opacity:1"
       fill="#d4d4d5"
       d="m 499.5,235.5 c 0.951,1.419 1.284,3.085 1,5 6.098,0.617 11.765,-0.05 17,-2 0.626,2.126 1.959,3.793 4,5 0.808,1.923 1.308,3.923 1.5,6 3.148,1.211 5.648,3.211 7.5,6 -2.016,1.513 -4.349,2.347 -7,2.5 -14.893,1.364 -29.559,0.197 -44,-3.5 -5.365,1.561 -10.365,0.728 -15,-2.5 -1.36,-1.938 -1.027,-3.604 1,-5 2.15,-1.411 4.484,-2.245 7,-2.5 -2.813,1.243 -3.479,3.243 -2,6 2.105,1.968 4.605,2.968 7.5,3 6.026,-0.764 11.859,-2.264 17.5,-4.5 1.267,-1.796 1.267,-3.629 0,-5.5 0.743,-0.682 1.409,-1.349 2,-2 1.78,-1.49 2.446,-3.49 2,-6 z"
       id="path308" />
  </g>
  <g
     id="g314"
     transform="translate(-456.47678,-39.053303)">
    <path
       style="opacity:1"
       fill="#292a2c"
       d="m 489.5,240.5 c 2,0 4,0 6,0 0.342,0.838 1.008,1.172 2,1 -0.591,0.651 -1.257,1.318 -2,2 1.267,1.871 1.267,3.704 0,5.5 -5.641,2.236 -11.474,3.736 -17.5,4.5 -2.895,-0.032 -5.395,-1.032 -7.5,-3 -1.479,-2.757 -0.813,-4.757 2,-6 0.667,0 1.333,0 2,0 0,0.667 0.333,1 1,1 0.709,0.904 1.709,1.237 3,1 -2.243,0.584 -4.243,1.75 -6,3.5 1.608,0.658 2.775,0.158 3.5,-1.5 1.113,1.26 1.28,2.427 0.5,3.5 2.053,0.325 4.053,-0.009 6,-1 -0.556,-0.383 -0.889,-0.883 -1,-1.5 1.935,0.65 3.935,0.983 6,1 -0.219,-1.175 0.114,-2.175 1,-3 1.916,0.748 3.916,0.748 6,0 0.17,-1.322 -0.163,-2.489 -1,-3.5 -4.144,0.022 -8.144,-0.145 -12,-0.5 0.462,-1.38 1.462,-2.047 3,-2 2.632,0.94 5.298,1.107 8,0.5 -1.237,-0.232 -2.237,-0.732 -3,-1.5 z"
       id="path314" />
  </g>
  <g
     id="g323"
     transform="translate(-456.47678,-39.053303)">
    <path
       style="opacity:1"
       fill="#e7e7e8"
       d="m 479.5,241.5 c -1.465,1.237 -3.132,2.237 -5,3 -0.667,0 -1.333,0 -2,0 -2.516,0.255 -4.85,1.089 -7,2.5 -2.027,1.396 -2.36,3.062 -1,5 4.635,3.228 9.635,4.061 15,2.5 14.441,3.697 29.107,4.864 44,3.5 2.651,-0.153 4.984,-0.987 7,-2.5 2.361,-0.174 4.694,-0.507 7,-1 2.319,-0.492 4.319,-1.492 6,-3 1.495,0.085 2.495,-0.581 3,-2 -1.99,-2.332 -3.99,-4.665 -6,-7 5.168,-0.001 9.668,1.666 13.5,5 0.667,1 0.667,2 0,3 -7.591,5.366 -16.091,8.532 -25.5,9.5 -15.667,0.667 -31.333,0.667 -47,0 -7.82,-0.941 -15.153,-3.274 -22,-7 -2.692,-2.632 -2.359,-4.966 1,-7 6.336,-1.831 12.669,-3.331 19,-4.5 z"
       id="path323" />
  </g>
  <g
     id="g324"
     transform="translate(-456.47678,-39.053303)">
    <path
       style="opacity:1"
       fill="#e5e4e2"
       d="m 532.5,251.5 c 0.333,0.667 0.667,1.333 1,2 -1.422,-0.209 -2.755,-0.709 -4,-1.5 0.948,-0.483 1.948,-0.649 3,-0.5 z"
       id="path324" />
  </g>
  <g
     id="g325"
     transform="translate(-456.47678,-39.053303)">
    <path
       style="opacity:1"
       fill="#424043"
       d="m 537.5,247.5 c 0.438,-0.065 0.772,0.101 1,0.5 -2.544,1.099 -2.544,2.265 0,3.5 1.634,-0.468 2.8,-1.468 3.5,-3 0.671,0.752 1.504,1.086 2.5,1 -0.418,0.722 -1.084,1.222 -2,1.5 0.228,0.399 0.562,0.565 1,0.5 -1.681,1.508 -3.681,2.508 -6,3 -1.068,-0.934 -2.401,-1.268 -4,-1 -0.333,-0.667 -0.667,-1.333 -1,-2 1.347,0.528 2.681,0.695 4,0.5 -0.808,-1.706 -2.141,-2.539 -4,-2.5 1.28,-1.431 2.947,-2.098 5,-2 z"
       id="path325" />
  </g>
  <g
     id="g326"
     transform="translate(-456.47678,-39.053303)">
    <path
       style="opacity:1"
       fill="#cacdc8"
       d="m 532.5,249.5 c 1.859,-0.039 3.192,0.794 4,2.5 -1.319,0.195 -2.653,0.028 -4,-0.5 0,-0.667 0,-1.333 0,-2 z"
       id="path326" />
  </g>
  <g
     id="g327"
     transform="translate(-456.47678,-39.053303)">
    <path
       style="opacity:1"
       fill="#919091"
       d="m 539.5,244.5 c 2,1.333 3.667,3 5,5 -0.996,0.086 -1.829,-0.248 -2.5,-1 -0.7,1.532 -1.866,2.532 -3.5,3 -2.544,-1.235 -2.544,-2.401 0,-3.5 -0.228,-0.399 -0.562,-0.565 -1,-0.5 1.051,-0.722 1.718,-1.722 2,-3 z"
       id="path327" />
  </g>
  <g
     id="g328"
     transform="translate(-456.47678,-39.053303)">
    <path
       style="opacity:1"
       fill="#dededf"
       d="m 539.5,244.5 c -0.282,1.278 -0.949,2.278 -2,3 -2.053,-0.098 -3.72,0.569 -5,2 -5.268,2.36 -7.934,0.694 -8,-5 5.064,-0.599 10.064,-0.599 15,0 z"
       id="path328" />
  </g>
  <g
     id="g329"
     transform="translate(-456.47678,-39.053303)">
    <path
       style="opacity:1"
       fill="#8f9091"
       d="m 478.5,246.5 c 1.333,0.667 2.333,1.667 3,3 0.111,0.617 0.444,1.117 1,1.5 -1.947,0.991 -3.947,1.325 -6,1 0.78,-1.073 0.613,-2.24 -0.5,-3.5 -0.725,1.658 -1.892,2.158 -3.5,1.5 1.757,-1.75 3.757,-2.916 6,-3.5 z"
       id="path329" />
  </g>
  <g
     id="g330"
     transform="translate(-456.47678,-39.053303)">
    <path
       style="opacity:1"
       fill="#eceded"
       d="m 481.5,243.5 c 3.856,0.355 7.856,0.522 12,0.5 0.837,1.011 1.17,2.178 1,3.5 -2.084,0.748 -4.084,0.748 -6,0 -0.886,0.825 -1.219,1.825 -1,3 -2.065,-0.017 -4.065,-0.35 -6,-1 -0.667,-1.333 -1.667,-2.333 -3,-3 -1.291,0.237 -2.291,-0.096 -3,-1 1.921,-0.863 3.921,-1.529 6,-2 z"
       id="path330" />
  </g>
</svg>
