<?xml version="1.0" encoding="UTF-8" standalone="no"?>
<svg
   version="1.1"
   width="158.8894"
   height="220.23254"
   style="clip-rule:evenodd;fill-rule:evenodd;image-rendering:optimizeQuality;shape-rendering:geometricPrecision;text-rendering:geometricPrecision"
   id="svg1400"
   xmlns="http://www.w3.org/2000/svg"
   xmlns:svg="http://www.w3.org/2000/svg">
  <defs
     id="defs1400" />
  <g
     id="g773"
     transform="translate(-799.6106,-535.4118)">
    <path
       style="opacity:1"
       fill="#1e2020"
       d="m 918.5,630.5 c -2.469,-0.817 -5.135,-1.317 -8,-1.5 -2.135,-0.876 -3.469,-2.376 -4,-4.5 6.686,2.62 13.686,4.287 21,5 0,-3.333 0,-6.667 0,-10 2.424,0.308 4.757,-0.026 7,-1 -1.475,-2.841 -2.641,-5.841 -3.5,-9 -2.527,2.527 -5.027,5.027 -7.5,7.5 -5.952,1.652 -11.619,3.818 -17,6.5 -17.14,2.194 -17.14,3.861 0,5 0,0.333 0,0.667 0,1 -2.014,-0.108 -3.68,0.558 -5,2 -1.333,2.667 -2.667,5.333 -4,8 -1.333,0.667 -2.333,1.667 -3,3 -3.455,1.096 -6.955,2.096 -10.5,3 -3.739,-0.87 -7.072,-2.536 -10,-5 -0.455,-3.354 -0.955,-6.687 -1.5,-10 -1.89,-0.203 -3.39,0.463 -4.5,2 -1.77,5.479 -3.603,10.813 -5.5,16 -0.218,-5.293 0.615,-10.293 2.5,-15 -3.901,2.079 -5.567,5.413 -5,10 -1.331,2.496 -3.164,4.496 -5.5,6 -0.333,0 -0.667,0 -1,0 2,-2.171 3.834,-4.504 5.5,-7 0.333,-2.333 0.667,-4.667 1,-7 2.158,-1.326 3.992,-2.993 5.5,-5 -3.945,-0.991 -7.945,-1.324 -12,-1 0,-2.667 0,-5.333 0,-8 -2,0 -4,0 -6,0 0,-1.333 0,-2.667 0,-4 0.256,-2.437 0.923,-4.771 2,-7 -1.471,-10.256 -2.471,-20.589 -3,-31 -1.524,-1.027 -2.191,-2.527 -2,-4.5 4.375,-24.538 19.041,-37.704 44,-39.5 9.583,-0.639 17.917,2.194 25,8.5 14.316,2.987 22.482,11.821 24.5,26.5 0.667,6 0.667,12 0,18 -1.606,5.983 -3.106,11.983 -4.5,18 0.846,5.048 1.846,10.048 3,15 -2.333,0 -4.667,0 -7,0 0.284,3.277 -0.049,6.443 -1,9.5 -3.349,0.388 -6.683,0.221 -10,-0.5 z"
       id="path773" />
  </g>
  <g
     id="g774"
     transform="translate(-799.6106,-535.4118)">
    <path
       style="opacity:1"
       fill="#f4f5f6"
       d="m 889.5,574.5 c 1.603,-0.188 2.937,0.312 4,1.5 -5.158,10.283 -3.491,18.449 5,24.5 2.157,-0.55 4.157,-1.217 6,-2 5.521,-1.528 8.521,-5.194 9,-11 0.958,-0.453 1.792,-1.119 2.5,-2 0.417,1.256 1.25,1.923 2.5,2 1.23,1.797 1.896,3.797 2,6 -0.348,12.198 -6.348,20.365 -18,24.5 -5.821,2.122 -11.821,3.289 -18,3.5 -3.406,0.204 -6.572,-0.462 -9.5,-2 -3.435,0.966 -6.935,0.966 -10.5,0 -6.197,-2.027 -10.697,-6.027 -13.5,-12 -1.381,-8.932 -1.881,-17.932 -1.5,-27 2.885,-0.306 5.552,0.027 8,1 -2.307,6.575 -0.641,12.075 5,16.5 5.809,1.345 9.643,-0.822 11.5,-6.5 0.966,-4.89 0.466,-9.557 -1.5,-14 3.359,-2.53 7.025,-4.864 11,-7 0.333,0.167 0.667,0.333 1,0.5 -1.187,1.019 -2.187,2.186 -3,3.5 2.626,0.949 5.292,0.949 8,0 z"
       id="path774" />
  </g>
  <g
     id="g775"
     transform="translate(-799.6106,-535.4118)">
    <path
       style="opacity:1"
       fill="#161210"
       d="m 897.5,602.5 c 0.524,9.853 -4.309,15.186 -14.5,16 -9.556,-1.03 -14.056,-6.03 -13.5,-15 0.992,-0.172 1.658,0.162 2,1 0.168,2.551 1.168,3.218 3,2 0.333,0 0.667,0 1,0 0,0.667 0.333,1 1,1 1.574,1.428 3.241,1.761 5,1 1.599,0.268 2.932,-0.066 4,-1 0.333,0 0.667,0 1,0 1.333,1.333 2.667,1.333 4,0 0.667,0 1.333,0 2,0 1.527,0.073 2.527,-0.594 3,-2 0.667,-1 1.333,-2 2,-3 z"
       id="path775" />
  </g>
  <g
     id="g776"
     transform="translate(-799.6106,-535.4118)">
    <path
       style="opacity:1"
       fill="#d8d9e0"
       d="m 885.5,607.5 c -1.068,0.934 -2.401,1.268 -4,1 0,-1 0,-2 0,-3 1.983,-0.343 3.317,0.324 4,2 z"
       id="path776" />
  </g>
  <g
     id="g777"
     transform="translate(-799.6106,-535.4118)">
    <path
       style="opacity:1"
       fill="#dddee3"
       d="m 890.5,607.5 c -1.333,1.333 -2.667,1.333 -4,0 0.12,-1.086 0.787,-1.753 2,-2 1.213,0.247 1.88,0.914 2,2 z"
       id="path777" />
  </g>
  <g
     id="g778"
     transform="translate(-799.6106,-535.4118)">
    <path
       style="opacity:1"
       fill="#d8d9da"
       d="m 876.5,607.5 c -0.667,0 -1,-0.333 -1,-1 0.787,-1.604 2.12,-2.271 4,-2 0,1 0,2 0,3 -1,0 -2,0 -3,0 z"
       id="path778" />
  </g>
  <g
     id="g779"
     transform="translate(-799.6106,-535.4118)">
    <path
       style="opacity:1"
       fill="#d8dbdf"
       d="m 895.5,605.5 c -0.473,1.406 -1.473,2.073 -3,2 -1.5,-2.009 -1,-3.342 1.5,-4 1.03,0.336 1.53,1.003 1.5,2 z"
       id="path779" />
  </g>
  <g
     id="g780"
     transform="translate(-799.6106,-535.4118)">
    <path
       style="opacity:1"
       fill="#2b2d2b"
       d="m 897.5,602.5 c -0.667,1 -1.333,2 -2,3 0.03,-0.997 -0.47,-1.664 -1.5,-2 -2.5,0.658 -3,1.991 -1.5,4 -0.667,0 -1.333,0 -2,0 -0.12,-1.086 -0.787,-1.753 -2,-2 -1.213,0.247 -1.88,0.914 -2,2 -0.333,0 -0.667,0 -1,0 -0.683,-1.676 -2.017,-2.343 -4,-2 0,1 0,2 0,3 -1.759,0.761 -3.426,0.428 -5,-1 1,0 2,0 3,0 0,-1 0,-2 0,-3 -1.88,-0.271 -3.213,0.396 -4,2 -0.333,0 -0.667,0 -1,0 -0.321,-1.548 -1.321,-2.215 -3,-2 -0.342,-0.838 -1.008,-1.172 -2,-1 6.797,-0.019 13.797,-0.186 21,-0.5 2.441,-1.392 4.774,-1.559 7,-0.5 z"
       id="path780" />
  </g>
  <g
     id="g781"
     transform="translate(-799.6106,-535.4118)">
    <path
       style="opacity:1"
       fill="#d6d6da"
       d="m 871.5,604.5 c 1.679,-0.215 2.679,0.452 3,2 -1.832,1.218 -2.832,0.551 -3,-2 z"
       id="path781" />
  </g>
  <g
     id="g782"
     transform="translate(-799.6106,-535.4118)">
    <path
       style="opacity:1"
       fill="#141514"
       d="m 879.5,591.5 c 4.138,0.473 6.138,2.807 6,7 -1.984,0.117 -3.65,-0.55 -5,-2 -0.978,0.477 -1.811,1.143 -2.5,2 -0.333,-0.333 -0.667,-0.667 -1,-1 -0.028,-2.287 0.805,-4.287 2.5,-6 z"
       id="path782" />
  </g>
  <g
     id="g783"
     transform="translate(-799.6106,-535.4118)">
    <path
       style="opacity:1"
       fill="#080909"
       d="m 869.5,575.5 c 1.278,0.282 2.278,0.949 3,2 1.966,4.443 2.466,9.11 1.5,14 -1.857,5.678 -5.691,7.845 -11.5,6.5 -5.641,-4.425 -7.307,-9.925 -5,-16.5 0.543,-0.06 0.876,-0.393 1,-1 -1.791,-0.67 -3.458,-1.337 -5,-2 5.482,-0.358 10.815,-1.358 16,-3 z"
       id="path783" />
  </g>
  <g
     id="g784"
     transform="translate(-799.6106,-535.4118)">
    <path
       style="opacity:1"
       fill="#060707"
       d="m 913.5,587.5 c -0.479,5.806 -3.479,9.472 -9,11 -5.419,0.541 -8.919,-1.793 -10.5,-7 -2.004,-7.137 -0.171,-12.97 5.5,-17.5 9.635,-0.868 14.302,3.632 14,13.5 z"
       id="path784" />
  </g>
  <g
     id="g785"
     transform="translate(-799.6106,-535.4118)">
    <path
       style="opacity:1"
       fill="#dee0e2"
       d="m 918.5,587.5 c -1.25,-0.077 -2.083,-0.744 -2.5,-2 -0.708,0.881 -1.542,1.547 -2.5,2 0.302,-9.868 -4.365,-14.368 -14,-13.5 -5.671,4.53 -7.504,10.363 -5.5,17.5 1.581,5.207 5.081,7.541 10.5,7 -1.843,0.783 -3.843,1.45 -6,2 -8.491,-6.051 -10.158,-14.217 -5,-24.5 -1.063,-1.188 -2.397,-1.688 -4,-1.5 7.005,-2.593 13.172,-6.593 18.5,-12 1.866,9.06 5.366,17.393 10.5,25 z"
       id="path785" />
  </g>
  <g
     id="g786"
     transform="translate(-799.6106,-535.4118)">
    <path
       style="opacity:1"
       fill="#7fc0c3"
       d="m 851.5,559.5 c -0.131,0.876 0.202,1.543 1,2 9.495,4.631 19.495,6.965 30,7 -4.027,2.898 -8.36,5.232 -13,7 -5.185,1.642 -10.518,2.642 -16,3 -2.333,0 -4.667,0 -7,0 -0.342,-6.97 1.325,-13.304 5,-19 z"
       id="path786" />
  </g>
  <g
     id="g787"
     transform="translate(-799.6106,-535.4118)">
    <path
       style="opacity:1"
       fill="#bde4e1"
       d="m 930.5,556.5 c 3.234,4.031 4.901,8.698 5,14 -6.297,1.039 -12.63,1.206 -19,0.5 -3.723,-1.259 -4.723,-3.592 -3,-7 6.503,-0.858 12.169,-3.358 17,-7.5 z"
       id="path787" />
  </g>
  <g
     id="g788"
     transform="translate(-799.6106,-535.4118)">
    <path
       style="opacity:1"
       fill="#bbe3e3"
       d="m 862.5,546.5 c 4.09,7.229 10.424,11.229 19,12 0,1 0,2 0,3 2.885,-0.306 5.552,0.027 8,1 -1.719,2.719 -4.053,4.719 -7,6 -10.505,-0.035 -20.505,-2.369 -30,-7 -0.798,-0.457 -1.131,-1.124 -1,-2 2.546,-5.219 6.213,-9.552 11,-13 z"
       id="path788" />
  </g>
  <g
     id="g789"
     transform="translate(-799.6106,-535.4118)">
    <path
       style="opacity:1"
       fill="#80c0c1"
       d="m 930.5,556.5 c -4.831,4.142 -10.497,6.642 -17,7.5 -1.723,3.408 -0.723,5.741 3,7 6.37,0.706 12.703,0.539 19,-0.5 2.366,14.126 -0.134,27.459 -7.5,40 -10.413,10.317 -12.413,9.317 -6,-3 0.667,-5.667 0.667,-11.333 0,-17 -6.626,-9.713 -10.793,-20.379 -12.5,-32 -6.626,7.973 -14.96,12.807 -25,14.5 3.6,-2.955 5.267,-6.455 5,-10.5 -2.448,-0.973 -5.115,-1.306 -8,-1 0,-1 0,-2 0,-3 -8.576,-0.771 -14.91,-4.771 -19,-12 12.075,-8.404 25.408,-10.904 40,-7.5 3.516,1.256 6.516,3.256 9,6 8.243,0.784 14.576,4.617 19,11.5 z"
       id="path789" />
  </g>
  <g
     id="g790"
     transform="translate(-799.6106,-535.4118)">
    <path
       style="opacity:1"
       fill="#cecfce"
       d="m 920.5,593.5 c 1.407,8.331 -0.26,16.164 -5,23.5 -13.017,6.121 -26.684,8.121 -41,6 -3.609,-0.701 -6.942,-1.868 -10,-3.5 3.565,0.966 7.065,0.966 10.5,0 2.928,1.538 6.094,2.204 9.5,2 6.179,-0.211 12.179,-1.378 18,-3.5 11.652,-4.135 17.652,-12.302 18,-24.5 z"
       id="path790" />
  </g>
  <g
     id="g791"
     transform="translate(-799.6106,-535.4118)">
    <path
       style="opacity:1"
       fill="#d75750"
       d="m 892.5,609.5 c 0.704,3.516 -0.962,5.683 -5,6.5 -2.667,0.667 -5.333,0.667 -8,0 -4,-1.667 -4,-3.333 0,-5 4.519,-0.175 8.853,-0.675 13,-1.5 z"
       id="path791" />
  </g>
  <g
     id="g793"
     transform="translate(-799.6106,-535.4118)">
    <path
       style="opacity:1"
       fill="#85c2c4"
       d="m 906.5,624.5 c 0,-0.333 0,-0.667 0,-1 5.381,-2.682 11.048,-4.848 17,-6.5 2.473,-2.473 4.973,-4.973 7.5,-7.5 0.859,3.159 2.025,6.159 3.5,9 -2.243,0.974 -4.576,1.308 -7,1 0,3.333 0,6.667 0,10 -7.314,-0.713 -14.314,-2.38 -21,-5 z"
       id="path793" />
  </g>
  <g
     id="g794"
     transform="translate(-799.6106,-535.4118)">
    <path
       style="opacity:1"
       fill="#79b4bd"
       d="m 850.5,612.5 c 7.961,7.808 17.627,12.141 29,13 0,1 0,2 0,3 -4.84,0.415 -9.507,-0.252 -14,-2 -3.485,1.594 -7.152,2.26 -11,2 0.659,-2.955 0.992,-5.955 1,-9 -2,0 -4,0 -6,0 -0.052,-2.403 0.281,-4.736 1,-7 z"
       id="path794" />
  </g>
  <g
     id="g796"
     transform="translate(-799.6106,-535.4118)">
    <path
       style="opacity:1"
       fill="#b9ccce"
       d="m 906.5,623.5 c 0,0.333 0,0.667 0,1 0.531,2.124 1.865,3.624 4,4.5 2.865,0.183 5.531,0.683 8,1.5 0,1.333 0,2.667 0,4 -4.403,-1.152 -8.403,-3.152 -12,-6 -17.14,-1.139 -17.14,-2.806 0,-5 z"
       id="path796" />
  </g>
  <g
     id="g798"
     transform="translate(-799.6106,-535.4118)">
    <path
       style="opacity:1"
       fill="#bfc2c7"
       d="m 881.5,625.5 c 3.333,0 6.667,0 10,0 0,1.333 0,2.667 0,4 -3.333,0 -6.667,0 -10,0 0,-1.333 0,-2.667 0,-4 z"
       id="path798" />
  </g>
  <g
     id="g804"
     transform="translate(-799.6106,-535.4118)">
    <path
       style="opacity:1"
       fill="#dcdcde"
       d="m 837.5,638.5 c 2.235,0.295 4.235,-0.039 6,-1 1.548,-0.321 2.215,-1.321 2,-3 2.091,-0.182 4.091,0.152 6,1 1.211,0.774 1.211,1.607 0,2.5 -5.464,2.126 -11.131,3.293 -17,3.5 -10.474,0.596 -20.808,-0.237 -31,-2.5 -2.405,-2.032 -1.905,-3.532 1.5,-4.5 0.309,1.266 0.809,2.433 1.5,3.5 10.328,0.5 20.661,0.666 31,0.5 z"
       id="path804" />
  </g>
  <g
     id="g805"
     transform="translate(-799.6106,-535.4118)">
    <path
       style="opacity:1"
       fill="#635e4f"
       d="m 809.5,636.5 c 10,0 20,0 30,0 1.068,0.934 2.401,1.268 4,1 -1.765,0.961 -3.765,1.295 -6,1 -9.333,-0.667 -18.667,-1.333 -28,-2 z"
       id="path805" />
  </g>
  <g
     id="g806"
     transform="translate(-799.6106,-535.4118)">
    <path
       style="opacity:1"
       fill="#ebebed"
       d="m 844.5,617.5 c 1,0 2,0 3,0 0,1.333 0,2.667 0,4 2,0 4,0 6,0 0,2.667 0,5.333 0,8 4.055,-0.324 8.055,0.009 12,1 -1.508,2.007 -3.342,3.674 -5.5,5 -0.333,2.333 -0.667,4.667 -1,7 -1.666,2.496 -3.5,4.829 -5.5,7 -1.637,0.718 -3.303,0.884 -5,0.5 -3,-1.667 -5.333,-4 -7,-7 5.196,-0.598 9.529,-2.764 13,-6.5 -1.944,-2.655 -4.61,-3.989 -8,-4 0.317,-4.202 -0.017,-8.202 -1,-12 -0.057,-1.109 -0.39,-2.109 -1,-3 z"
       id="path806" />
  </g>
  <g
     id="g807"
     transform="translate(-799.6106,-535.4118)">
    <path
       style="opacity:1"
       fill="#211f1e"
       d="m 844.5,617.5 c 0.61,0.891 0.943,1.891 1,3 0,4.667 0,9.333 0,14 0.215,1.679 -0.452,2.679 -2,3 -1.599,0.268 -2.932,-0.066 -4,-1 1.333,-1.667 1.333,-3.333 0,-5 -3.542,0.313 -6.875,-0.021 -10,-1 3.667,0 7.333,0 11,0 0.067,-1.459 -0.266,-2.792 -1,-4 0.667,0 1,-0.333 1,-1 0.667,3.667 1.333,7.333 2,11 0.617,-0.111 1.117,-0.444 1.5,-1 0.667,-5.333 0.667,-10.667 0,-16 -2.803,-2.319 -5.97,-3.985 -9.5,-5 -0.728,1.693 -1.728,3.193 -3,4.5 -4.598,1.024 -8.932,0.524 -13,-1.5 -2.882,1.461 -5.882,2.627 -9,3.5 5.657,0.499 11.324,0.666 17,0.5 1.915,-0.284 3.581,0.049 5,1 -7.966,0.865 -15.966,1.198 -24,1 0,1 0,2 0,3 5.819,0.828 11.819,1.328 18,1.5 -6.416,-0.129 -12.416,0.705 -18,2.5 0,0.667 0,1.333 0,2 -0.343,1.983 0.324,3.317 2,4 9.333,0.667 18.667,1.333 28,2 -10.339,0.166 -20.672,0 -31,-0.5 -0.691,-1.067 -1.191,-2.234 -1.5,-3.5 -3.405,0.968 -3.905,2.468 -1.5,4.5 10.192,2.263 20.526,3.096 31,2.5 1.109,0.79 2.442,1.29 4,1.5 -1.882,0.198 -3.548,0.698 -5,1.5 -0.667,-0.333 -1.333,-0.667 -2,-1 -2.687,-0.164 -5.354,0.003 -8,0.5 0.854,1.022 1.854,1.855 3,2.5 1.187,-1.153 2.187,-1.153 3,0 1.16,1.703 0.493,2.369 -2,2 -6.868,-4.555 -14.535,-7.055 -23,-7.5 -6.682,-3.006 -6.515,-5.839 0.5,-8.5 0.173,-4.041 0.673,-8.041 1.5,-12 3.884,-1.795 7.884,-3.295 12,-4.5 1.294,-2.087 2.461,-4.254 3.5,-6.5 4.83,-4.433 8.664,-3.6 11.5,2.5 3.972,1.319 7.639,3.153 11,5.5 z"
       id="path807" />
  </g>
  <g
     id="g808"
     transform="translate(-799.6106,-535.4118)">
    <path
       style="opacity:1"
       fill="#efd1a5"
       d="m 839.5,631.5 c 1.333,1.667 1.333,3.333 0,5 -10,0 -20,0 -30,0 -1.676,-0.683 -2.343,-2.017 -2,-4 10.846,0.328 21.513,-0.006 32,-1 z"
       id="path808" />
  </g>
  <g
     id="g809"
     transform="translate(-799.6106,-535.4118)">
    <path
       style="opacity:1"
       fill="#7e614b"
       d="m 829.5,630.5 c 3.125,0.979 6.458,1.313 10,1 -10.487,0.994 -21.154,1.328 -32,1 0,-0.667 0,-1.333 0,-2 7.362,-1.147 14.696,-1.147 22,0 z"
       id="path809" />
  </g>
  <g
     id="g810"
     transform="translate(-799.6106,-535.4118)">
    <path
       style="opacity:1"
       fill="#9f6d4b"
       d="m 807.5,626.5 c 10.667,0 21.333,0 32,0 0.734,1.208 1.067,2.541 1,4 -3.667,0 -7.333,0 -11,0 -7.304,-1.147 -14.638,-1.147 -22,0 5.584,-1.795 11.584,-2.629 18,-2.5 -6.181,-0.172 -12.181,-0.672 -18,-1.5 z"
       id="path810" />
  </g>
  <g
     id="g811"
     transform="translate(-799.6106,-535.4118)">
    <path
       style="opacity:1"
       fill="#d4d2d3"
       d="m 842.5,636.5 c 0,-5.333 0,-10.667 0,-16 -5.526,-0.321 -10.86,0.012 -16,1 -5.676,0.166 -11.343,-10e-4 -17,-0.5 3.118,-0.873 6.118,-2.039 9,-3.5 4.068,2.024 8.402,2.524 13,1.5 1.272,-1.307 2.272,-2.807 3,-4.5 3.53,1.015 6.697,2.681 9.5,5 0.667,5.333 0.667,10.667 0,16 -0.383,0.556 -0.883,0.889 -1.5,1 z"
       id="path811" />
  </g>
  <g
     id="g812"
     transform="translate(-799.6106,-535.4118)">
    <path
       style="opacity:1"
       fill="#383835"
       d="m 826.5,621.5 c 5.14,-0.988 10.474,-1.321 16,-1 0,5.333 0,10.667 0,16 -0.667,-3.667 -1.333,-7.333 -2,-11 0,-1 0,-2 0,-3 -3,0 -6,0 -9,0 -1.419,-0.951 -3.085,-1.284 -5,-1 z"
       id="path812" />
  </g>
  <g
     id="g813"
     transform="translate(-799.6106,-535.4118)">
    <path
       style="opacity:1"
       fill="#eeebe3"
       d="m 831.5,622.5 c 3,0 6,0 9,0 0,1 0,2 0,3 0,0.667 -0.333,1 -1,1 -10.667,0 -21.333,0 -32,0 0,-1 0,-2 0,-3 8.034,0.198 16.034,-0.135 24,-1 z"
       id="path813" />
  </g>
  <g
     id="g814"
     transform="translate(-799.6106,-535.4118)">
    <path
       style="opacity:1"
       fill="#b04339"
       d="m 825.5,607.5 c 5.338,1.341 7.004,4.674 5,10 -2.921,0.907 -5.921,1.24 -9,1 -0.613,-4.429 0.72,-8.095 4,-11 z"
       id="path814" />
  </g>
  <g
     id="g821"
     transform="translate(-799.6106,-535.4118)">
    <path
       style="opacity:1"
       fill="#a2a4a1"
       d="m 831.5,643.5 c 0.215,1.679 -0.452,2.679 -2,3 -0.813,-1.153 -1.813,-1.153 -3,0 -1.146,-0.645 -2.146,-1.478 -3,-2.5 2.646,-0.497 5.313,-0.664 8,-0.5 z"
       id="path821" />
  </g>
  <g
     id="g951"
     transform="translate(-799.6106,-535.4118)">
    <path
       style="opacity:1"
       fill="#242322"
       d="m 845.5,620.5 c 0.983,3.798 1.317,7.798 1,12 3.39,0.011 6.056,1.345 8,4 -3.471,3.736 -7.804,5.902 -13,6.5 1.667,3 4,5.333 7,7 1.697,0.384 3.363,0.218 5,-0.5 0.333,0 0.667,0 1,0 -0.453,0.958 -1.119,1.792 -2,2.5 2.218,2.75 3.551,5.917 4,9.5 1.299,-0.59 2.132,-1.59 2.5,-3 0.572,-3.663 1.738,-6.997 3.5,-10 -0.157,1.373 0.01,2.707 0.5,4 2.258,2.585 4.091,5.418 5.5,8.5 10.571,2.647 21.237,3.147 32,1.5 2.246,-0.436 4.413,-1.103 6.5,-2 0.438,-2.876 1.438,-5.543 3,-8 -0.882,-3.859 -1.715,-7.859 -2.5,-12 0.351,-2.738 1.018,-5.404 2,-8 -0.84,-1.235 -1.84,-2.235 -3,-3 0,-0.333 0,-0.667 0,-1 3.597,2.848 7.597,4.848 12,6 1.083,7.395 5.416,11.395 13,12 4.771,-1.603 8.105,-4.77 10,-9.5 0.948,-0.483 1.948,-0.649 3,-0.5 0,-2.333 0,-4.667 0,-7 2.411,-0.363 3.911,0.637 4.5,3 5.499,-4.657 8.666,-3.324 9.5,4 -0.6,3.934 -2.933,6.267 -7,7 -3.378,8.211 -9.211,13.878 -17.5,17 -3.128,-0.704 -6.294,-1.204 -9.5,-1.5 -2.343,-5.517 -6.343,-9.017 -12,-10.5 -0.299,3.605 -1.465,6.939 -3.5,10 -0.667,2.333 -0.667,4.667 0,7 8.471,11.774 14.971,24.608 19.5,38.5 -5.086,3.876 -10.753,6.71 -17,8.5 2.273,4.933 2.607,10.1 1,15.5 0.257,3.94 1.59,7.44 4,10.5 2.972,1.806 5.805,3.806 8.5,6 0.781,1.444 0.614,2.777 -0.5,4 -1.239,0.442 -2.239,1.109 -3,2 -1.333,0 -2.667,0 -4,0 -1.101,1.098 -2.434,1.265 -4,0.5 -3.353,-1.677 -6.353,-3.843 -9,-6.5 -1.077,-2.974 -1.077,-5.974 0,-9 0.51,-5.314 -0.99,-9.98 -4.5,-14 -0.497,-2.31 -0.663,-4.643 -0.5,-7 -8,0 -16,0 -24,0 0.107,4.035 -0.226,8.035 -1,12 0.409,3.227 1.409,6.227 3,9 2.1,2.636 2.767,5.469 2,8.5 -6.212,3.437 -12.879,5.104 -20,5 -2.14,-0.973 -3.807,-2.473 -5,-4.5 0.477,-0.978 1.143,-1.811 2,-2.5 3.599,-1.309 7.099,-2.809 10.5,-4.5 0.796,-2.539 0.629,-4.872 -0.5,-7 -0.628,-2.59 -1.795,-4.923 -3.5,-7 -0.339,-2.536 -0.839,-5.036 -1.5,-7.5 0.45,-1.285 1.117,-2.452 2,-3.5 -5.501,-2.247 -10.501,-5.247 -15,-9 4.397,-13.371 10.23,-26.037 17.5,-38 1.246,-4.23 0.08,-7.564 -3.5,-10 -1.479,2.178 -2.812,4.512 -4,7 -3.352,1.276 -6.685,2.11 -10,2.5 -6.946,-3.279 -12.279,-8.279 -16,-15 -1.882,-0.198 -3.548,-0.698 -5,-1.5 2.493,0.369 3.16,-0.297 2,-2 1.548,-0.321 2.215,-1.321 2,-3 0.667,0.333 1.333,0.667 2,1 1.452,-0.802 3.118,-1.302 5,-1.5 -1.558,-0.21 -2.891,-0.71 -4,-1.5 5.869,-0.207 11.536,-1.374 17,-3.5 1.211,-0.893 1.211,-1.726 0,-2.5 -1.909,-0.848 -3.909,-1.182 -6,-1 0,-4.667 0,-9.333 0,-14 z"
       id="path951" />
  </g>
  <g
     id="g952"
     transform="translate(-799.6106,-535.4118)">
    <path
       style="opacity:1"
       fill="#df8b49"
       d="m 921.5,691.5 c 1.565,2.009 2.565,4.343 3,7 -2.843,3.734 -5.51,3.734 -8,0 -0.926,-4.386 0.741,-6.72 5,-7 z"
       id="path952" />
  </g>
  <g
     id="g953"
     transform="translate(-799.6106,-535.4118)">
    <path
       style="opacity:1"
       fill="#f8e785"
       d="m 904.5,668.5 c 4.003,10.005 8.003,20.005 12,30 2.49,3.734 5.157,3.734 8,0 1.636,1.883 1.969,3.883 1,6 -16.184,7.597 -33.184,10.097 -51,7.5 -8.591,-0.863 -16.424,-3.696 -23.5,-8.5 3.399,-12.503 8.565,-24.336 15.5,-35.5 12.587,2.985 25.253,3.152 38,0.5 z"
       id="path953" />
  </g>
  <g
     id="g954"
     transform="translate(-799.6106,-535.4118)">
    <path
       style="opacity:1"
       fill="#e99966"
       d="m 886.5,697.5 c 3.658,-0.82 5.991,0.513 7,4 1.552,3.067 0.885,5.567 -2,7.5 -6.607,1.449 -9.774,-1.051 -9.5,-7.5 1.067,-0.691 2.234,-1.191 3.5,-1.5 0.752,-0.671 1.086,-1.504 1,-2.5 z"
       id="path954" />
  </g>
  <g
     id="g955"
     transform="translate(-799.6106,-535.4118)">
    <path
       style="opacity:1"
       fill="#f5e187"
       d="m 886.5,702.5 c 1,0 2,0 3,0 0,1 0,2 0,3 -1,0 -2,0 -3,0 0,-1 0,-2 0,-3 z"
       id="path955" />
  </g>
  <g
     id="g956"
     transform="translate(-799.6106,-535.4118)">
    <path
       style="opacity:1"
       fill="#e79357"
       d="m 858.5,693.5 c 5.206,-1.38 8.206,0.453 9,5.5 -1.801,5.831 -5.301,6.998 -10.5,3.5 -0.932,-3.323 -0.432,-6.323 1.5,-9 z"
       id="path956" />
  </g>
  <g
     id="g957"
     transform="translate(-799.6106,-535.4118)">
    <path
       style="opacity:1"
       fill="#e69d62"
       d="m 899.5,683.5 c 3.055,0.536 6.055,1.369 9,2.5 0.581,0.893 0.915,1.893 1,3 -1.332,5.103 -4.666,7.269 -10,6.5 -0.388,-2.185 -1.388,-4.018 -3,-5.5 1.406,-1.978 2.406,-4.145 3,-6.5 z"
       id="path957" />
  </g>
  <g
     id="g958"
     transform="translate(-799.6106,-535.4118)">
    <path
       style="opacity:1"
       fill="#eac65d"
       d="m 921.5,691.5 c -4.259,0.28 -5.926,2.614 -5,7 -3.997,-9.995 -7.997,-19.995 -12,-30 2.772,-1.539 4.939,-0.873 6.5,2 4.038,6.743 7.538,13.743 10.5,21 z"
       id="path958" />
  </g>
  <g
     id="g959"
     transform="translate(-799.6106,-535.4118)">
    <path
       style="opacity:1"
       fill="#e79354"
       d="m 875.5,672.5 c 6.486,1.323 8.319,4.99 5.5,11 -1.356,0.88 -2.856,1.214 -4.5,1 0.086,-2.177 0.753,-4.177 2,-6 -1.079,-2.376 -2.412,-2.543 -4,-0.5 1.85,3.466 0.85,5.299 -3,5.5 -0.164,-2.687 0.003,-5.354 0.5,-8 1.518,-0.663 2.685,-1.663 3.5,-3 z"
       id="path959" />
  </g>
  <g
     id="g960"
     transform="translate(-799.6106,-535.4118)">
    <path
       style="opacity:1"
       fill="#ede6a9"
       d="m 868.5,663.5 c 12.651,2.551 25.318,2.551 38,0 0,1 0,2 0,3 -12.378,2.805 -24.712,2.639 -37,-0.5 -0.752,-0.671 -1.086,-1.504 -1,-2.5 z"
       id="path960" />
  </g>
  <g
     id="g961"
     transform="translate(-799.6106,-535.4118)">
    <path
       style="opacity:1"
       fill="#d6d5d8"
       d="m 837.5,650.5 c 4.017,5.182 9.017,9.182 15,12 -1.223,1.114 -2.556,1.281 -4,0.5 -5.583,-2.452 -9.916,-6.286 -13,-11.5 0.457,-0.798 1.124,-1.131 2,-1 z"
       id="path961" />
  </g>
  <g
     id="g962"
     transform="translate(-799.6106,-535.4118)">
    <path
       style="opacity:1"
       fill="#dad9db"
       d="m 947.5,644.5 c -1.049,6.089 -4.715,10.589 -11,13.5 -1,0.667 -2,0.667 -3,0 5.196,-4.031 9.863,-8.531 14,-13.5 z"
       id="path962" />
  </g>
  <g
     id="g963"
     transform="translate(-799.6106,-535.4118)">
    <path
       style="opacity:1"
       fill="#f6e582"
       d="m 894.5,642.5 c -0.881,6.546 1.785,8.88 8,7 1.195,0.366 1.861,1.199 2,2.5 -2.316,3.131 -3.649,6.631 -4,10.5 -10.763,1.647 -21.429,1.147 -32,-1.5 -1.409,-3.082 -3.242,-5.915 -5.5,-8.5 -0.49,-1.293 -0.657,-2.627 -0.5,-4 1.897,-5.187 3.73,-10.521 5.5,-16 1.11,-1.537 2.61,-2.203 4.5,-2 0.545,3.313 1.045,6.646 1.5,10 2.928,2.464 6.261,4.13 10,5 3.545,-0.904 7.045,-1.904 10.5,-3 z"
       id="path963" />
  </g>
  <g
     id="g964"
     transform="translate(-799.6106,-535.4118)">
    <path
       style="opacity:1"
       fill="#e39463"
       d="m 879.5,647.5 c 6.026,-0.317 8.36,2.349 7,8 -2.797,3.652 -5.964,3.985 -9.5,1 -1.221,-3.782 -0.387,-6.782 2.5,-9 z"
       id="path964" />
  </g>
  <g
     id="g965"
     transform="translate(-799.6106,-535.4118)">
    <path
       style="opacity:1"
       fill="#dddcde"
       d="m 862.5,648.5 c -1.762,3.003 -2.928,6.337 -3.5,10 -0.368,1.41 -1.201,2.41 -2.5,3 -0.449,-3.583 -1.782,-6.75 -4,-9.5 0.881,-0.708 1.547,-1.542 2,-2.5 2.336,-1.504 4.169,-3.504 5.5,-6 -0.567,-4.587 1.099,-7.921 5,-10 -1.885,4.707 -2.718,9.707 -2.5,15 z"
       id="path965" />
  </g>
  <g
     id="g966"
     transform="translate(-799.6106,-535.4118)">
    <path
       style="opacity:1"
       fill="#e2e2e4"
       d="m 837.5,650.5 c -0.136,-3.024 1.198,-4.524 4,-4.5 3.741,3.286 7.575,6.453 11.5,9.5 0.49,1.293 0.657,2.627 0.5,4 -3.635,-1.761 -6.968,-4.261 -10,-7.5 -2.018,-0.505 -4.018,-1.005 -6,-1.5 z"
       id="path966" />
  </g>
  <g
     id="g967"
     transform="translate(-799.6106,-535.4118)">
    <path
       style="opacity:1"
       fill="#ebebec"
       d="m 942.5,638.5 c 3.353,0.055 4.853,1.722 4.5,5 -5.736,1.208 -9.736,4.541 -12,10 -4.852,4.156 -6.186,3.156 -4,-3 4.739,-3.237 8.572,-7.237 11.5,-12 z"
       id="path967" />
  </g>
  <g
     id="g968"
     transform="translate(-799.6106,-535.4118)">
    <path
       style="opacity:1"
       fill="#eacb5e"
       d="m 904.5,640.5 c 1,0 2,0 3,0 0.785,4.141 1.618,8.141 2.5,12 -1.562,2.457 -2.562,5.124 -3,8 -2.087,0.897 -4.254,1.564 -6.5,2 0.351,-3.869 1.684,-7.369 4,-10.5 -0.139,-1.301 -0.805,-2.134 -2,-2.5 1.626,-2.746 2.293,-5.746 2,-9 z"
       id="path968" />
  </g>
  <g
     id="g969"
     transform="translate(-799.6106,-535.4118)">
    <path
       style="opacity:1"
       fill="#e4e5e5"
       d="m 833.5,644.5 c 4.707,-0.083 5.207,1.25 1.5,4 -2.5,-0.658 -3,-1.991 -1.5,-4 z"
       id="path969" />
  </g>
  <g
     id="g970"
     transform="translate(-799.6106,-535.4118)">
    <path
       style="opacity:1"
       fill="#e59a58"
       d="m 897.5,639.5 c 2.45,-0.202 4.783,0.131 7,1 0.293,3.254 -0.374,6.254 -2,9 -6.215,1.88 -8.881,-0.454 -8,-7 0.667,-1.333 1.667,-2.333 3,-3 z"
       id="path970" />
  </g>
  <g
     id="g971"
     transform="translate(-799.6106,-535.4118)">
    <path
       style="opacity:1"
       fill="#c0bdc0"
       d="m 955.5,637.5 c 2.434,0.854 2.267,1.854 -0.5,3 -0.47,-1.077 -0.303,-2.077 0.5,-3 z"
       id="path971" />
  </g>
  <g
     id="g972"
     transform="translate(-799.6106,-535.4118)">
    <path
       style="opacity:1"
       fill="#ededef"
       d="m 948.5,635.5 c 2.955,1.523 3.789,3.523 2.5,6 -3.292,-1.051 -4.125,-3.051 -2.5,-6 z"
       id="path972" />
  </g>
  <g
     id="g973"
     transform="translate(-799.6106,-535.4118)">
    <path
       style="opacity:1"
       fill="#e9e8ea"
       d="m 875.5,636.5 c 4.084,-0.457 7.917,0.21 11.5,2 2.892,-2.173 6.059,-2.506 9.5,-1 -1.279,1.646 -2.945,2.813 -5,3.5 -2.777,0.642 -5.444,1.476 -8,2.5 -3.012,0.321 -4.345,-1.012 -4,-4 -1.333,0 -2.667,0 -4,0 0,-1 0,-2 0,-3 z"
       id="path973" />
  </g>
  <g
     id="g974"
     transform="translate(-799.6106,-535.4118)">
    <path
       style="opacity:1"
       fill="#e4e3e8"
       d="m 955.5,633.5 c 1.007,1.768 0.341,3.101 -2,4 -0.333,-0.333 -0.667,-0.667 -1,-1 1.27,-0.788 2.27,-1.788 3,-3 z"
       id="path974" />
  </g>
  <g
     id="g975"
     transform="translate(-799.6106,-535.4118)">
    <path
       style="opacity:1"
       fill="#eeeded"
       d="m 912.5,634.5 c 1.333,0 2.667,0 4,0 1.647,7.647 6.314,12.314 14,14 -1.77,2.693 -2.437,5.693 -2,9 -1.333,0 -2.667,0 -4,0 -0.626,-2.815 -1.96,-5.315 -4,-7.5 -3.103,-2.469 -6.603,-3.969 -10.5,-4.5 -0.986,-3.242 -0.152,-5.908 2.5,-8 -1.291,-1.027 -1.291,-2.027 0,-3 z"
       id="path975" />
  </g>
  <g
     id="g976"
     transform="translate(-799.6106,-535.4118)">
    <path
       style="opacity:1"
       fill="#f0e780"
       d="m 906.5,629.5 c 1.16,0.765 2.16,1.765 3,3 -0.982,2.596 -1.649,5.262 -2,8 -1,0 -2,0 -3,0 -2.217,-0.869 -4.55,-1.202 -7,-1 1.333,-2.667 2.667,-5.333 4,-8 1.32,-1.442 2.986,-2.108 5,-2 z"
       id="path976" />
  </g>
  <g
     id="g977"
     transform="translate(-799.6106,-535.4118)">
    <path
       style="opacity:1"
       fill="#dedbe1"
       d="m 953.5,630.5 c 0.543,0.06 0.876,0.393 1,1 -4.611,5.118 -4.944,4.785 -1,-1 z"
       id="path977" />
  </g>
  <g
     id="g978"
     transform="translate(-799.6106,-535.4118)">
    <path
       style="opacity:1"
       fill="#bfbec0"
       d="m 945.5,631.5 c 1.086,0.12 1.753,0.787 2,2 -0.333,0.667 -0.667,1.333 -1,2 -0.929,-1.189 -1.262,-2.522 -1,-4 z"
       id="path978" />
  </g>
  <g
     id="g979"
     transform="translate(-799.6106,-535.4118)">
    <path
       style="opacity:1"
       fill="#dcdcde"
       d="m 883.5,631.5 c 2.333,0 4.667,0 7,0 -0.383,3.854 -2.383,5.187 -6,4 -0.929,-1.189 -1.262,-2.522 -1,-4 z"
       id="path979" />
  </g>
  <g
     id="g980"
     transform="translate(-799.6106,-535.4118)">
    <path
       style="opacity:1"
       fill="#dfdcdd"
       d="m 879.5,630.5 c 1.676,0.683 2.343,2.017 2,4 -2.465,-0.267 -4.799,-0.934 -7,-2 1.052,-1.756 2.719,-2.423 5,-2 z"
       id="path980" />
  </g>
  <g
     id="g981"
     transform="translate(-799.6106,-535.4118)">
    <path
       style="opacity:1"
       fill="#dcdade"
       d="m 901.5,631.5 c -3.199,1.399 -6.532,2.399 -10,3 0.143,-3.805 2.143,-5.471 6,-5 1.833,0.085 3.166,0.752 4,2 z"
       id="path981" />
  </g>
  <g
     id="g982"
     transform="translate(-799.6106,-535.4118)">
    <path
       style="opacity:1"
       fill="#8f908e"
       d="m 879.5,630.5 c -2.281,-0.423 -3.948,0.244 -5,2 -0.904,-0.709 -1.237,-1.709 -1,-3 2.235,-0.295 4.235,0.039 6,1 z"
       id="path982" />
  </g>
  <g
     id="g983"
     transform="translate(-799.6106,-535.4118)">
    <path
       style="opacity:1"
       fill="#edeced"
       d="m 865.5,712.5 c 2.738,0.351 5.404,1.018 8,2 0.929,1.189 1.262,2.522 1,4 -3.277,-0.284 -6.443,0.049 -9.5,1 -1.97,-2.463 -1.804,-4.797 0.5,-7 z"
       id="path983" />
  </g>
  <g
     id="g984"
     transform="translate(-799.6106,-535.4118)">
    <path
       style="opacity:1"
       fill="#f8f8f8"
       d="m 904.5,735.5 c -9,0 -18,0 -27,0 -1.591,-2.773 -2.591,-5.773 -3,-9 0.774,-3.965 1.107,-7.965 1,-12 8,0 16,0 24,0 -0.163,2.357 0.003,4.69 0.5,7 3.51,4.02 5.01,8.686 4.5,14 z"
       id="path984" />
  </g>
  <g
     id="g985"
     transform="translate(-799.6106,-535.4118)">
    <path
       style="opacity:1"
       fill="#eaeaeb"
       d="m 901.5,713.5 c 3.018,-0.165 6.018,0.002 9,0.5 0.906,1.699 1.239,3.533 1,5.5 -3.27,-0.122 -6.27,0.378 -9,1.5 -0.935,-2.381 -1.268,-4.881 -1,-7.5 z"
       id="path985" />
  </g>
  <g
     id="g992"
     transform="translate(-799.6106,-535.4118)">
    <path
       style="opacity:1"
       fill="#eeefef"
       d="m 906.5,721.5 c 2.027,-0.162 4.027,0.005 6,0.5 -2.59,4.984 -2.257,9.817 1,14.5 -1.987,1.827 -4.321,2.827 -7,3 0.752,-5.759 -0.248,-11.093 -3,-16 1.102,-0.676 2.102,-1.342 3,-2 z"
       id="path992" />
  </g>
  <g
     id="g993"
     transform="translate(-799.6106,-535.4118)">
    <path
       style="opacity:1"
       fill="#eaeaea"
       d="m 865.5,720.5 c 2.747,-0.313 5.414,0.02 8,1 -1.238,5.721 -0.238,11.054 3,16 -1.984,1.206 -3.984,1.206 -6,0 -0.829,-5.489 -2.829,-10.489 -6,-15 0.363,-0.683 0.696,-1.35 1,-2 z"
       id="path993" />
  </g>
  <g
     id="g1014"
     transform="translate(-799.6106,-535.4118)">
    <path
       style="opacity:1"
       fill="#d7d7d8"
       d="m 866.5,730.5 c 1.129,2.128 1.296,4.461 0.5,7 -3.401,1.691 -6.901,3.191 -10.5,4.5 -0.857,0.689 -1.523,1.522 -2,2.5 1.193,2.027 2.86,3.527 5,4.5 7.121,0.104 13.788,-1.563 20,-5 0.767,-3.031 0.1,-5.864 -2,-8.5 9,0 18,0 27,0 -1.077,3.026 -1.077,6.026 0,9 2.647,2.657 5.647,4.823 9,6.5 1.566,0.765 2.899,0.598 4,-0.5 1.333,0 2.667,0 4,0 -4.032,2.157 -8.366,3.657 -13,4.5 -20.322,1.701 -40.322,0.034 -60,-5 -4.23,-1.437 -4.897,-3.771 -2,-7 3.011,-0.743 5.678,-2.076 8,-4 4.142,-0.327 8.142,-1.161 12,-2.5 0,-2 0,-4 0,-6 z"
       id="path1014" />
  </g>
  <g
     id="g1018"
     transform="translate(-799.6106,-535.4118)">
    <path
       style="opacity:1"
       fill="#e5e7e8"
       d="m 867.5,746.5 c -1.705,-1.692 -3.705,-3.025 -6,-4 5.212,-2.698 10.878,-3.698 17,-3 0.17,1.322 -0.163,2.489 -1,3.5 -3.233,1.386 -6.566,2.553 -10,3.5 z"
       id="path1018" />
  </g>
  <g
     id="g1019"
     transform="translate(-799.6106,-535.4118)">
    <path
       style="opacity:1"
       fill="#ececed"
       d="m 919.5,745.5 c -2.728,-0.329 -5.062,0.337 -7,2 -2.84,-0.923 -5.174,-2.59 -7,-5 5.307,-4.272 10.307,-3.938 15,1 -0.363,0.683 -0.696,1.35 -1,2 z"
       id="path1019" />
  </g>
  <g
     id="g1023"
     transform="translate(-799.6106,-535.4118)">
    <path
       style="opacity:1"
       fill="#757675"
       d="m 861.5,742.5 c 2.295,0.975 4.295,2.308 6,4 -4.02,2.438 -7.687,1.772 -11,-2 1.969,-1.921 3.469,-1.921 4.5,0 0.464,-0.594 0.631,-1.261 0.5,-2 z"
       id="path1023" />
  </g>
  <g
     id="g1024"
     transform="translate(-799.6106,-535.4118)">
    <path
       style="opacity:1"
       fill="#797978"
       d="m 917.5,750.5 c -2.348,-0.092 -4.014,-1.092 -5,-3 1.938,-1.663 4.272,-2.329 7,-2 1.872,-1.295 3.538,-1.128 5,0.5 -1.528,1.361 -3.195,2.528 -5,3.5 -1.444,-1.481 -2.111,-1.148 -2,1 z"
       id="path1024" />
  </g>
</svg>
