<?xml version="1.0" encoding="UTF-8" standalone="no"?>
<svg
   version="1.1"
   width="110.46198"
   height="191.87271"
   style="clip-rule:evenodd;fill-rule:evenodd;image-rendering:optimizeQuality;shape-rendering:geometricPrecision;text-rendering:geometricPrecision"
   id="svg1400"
   xmlns="http://www.w3.org/2000/svg"
   xmlns:svg="http://www.w3.org/2000/svg">
  <defs
     id="defs1400" />
  <g
     id="g422"
     transform="translate(-648.5,-278.62729)">
    <path
       style="opacity:1"
       fill="#1c1a18"
       d="m 744.5,404.5 c 0.667,0 1,0.333 1,1 -2.63,2.128 -5.13,4.461 -7.5,7 -0.774,1.903 -0.44,3.57 1,5 2.931,-2.991 5.765,-6.157 8.5,-9.5 1.941,-1.903 4.274,-2.736 7,-2.5 0,0.333 0,0.667 0,1 -4.318,4.805 -8.985,9.139 -14,13 0,0.667 -0.333,1 -1,1 -2.991,-0.17 -4.991,1.163 -6,4 -2.352,1.485 -4.686,2.818 -7,4 -10e-4,-3.821 -1.001,-7.321 -3,-10.5 0.258,-2.009 0.925,-3.843 2,-5.5 0.722,-0.418 1.222,-1.084 1.5,-2 1.356,0.88 2.856,1.214 4.5,1 0,-1 0,-2 0,-3 -1.291,0.237 -2.291,-0.096 -3,-1 3.159,-0.417 5.159,-2.25 6,-5.5 -0.336,-1.03 -1.003,-1.53 -2,-1.5 1.959,-3.046 2.793,-6.379 2.5,-10 -0.333,-0.333 -0.667,-0.667 -1,-1 -1.019,1.187 -2.186,2.187 -3.5,3 -1.632,-3.298 -3.965,-5.964 -7,-8 -0.333,-1 -1,-1.667 -2,-2 -0.844,-3.599 -1.177,-7.266 -1,-11 -6.641,0.909 -12.974,2.576 -19,5 2.758,1.467 2.425,2.133 -1,2 0,-1 0,-2 0,-3 -3.35,0.165 -6.683,-0.002 -10,-0.5 3.856,-0.177 7.523,-0.677 11,-1.5 7.11,-1.361 14.11,-3.194 21,-5.5 9.981,-5.116 15.648,-13.283 17,-24.5 -1.272,-2.94 -3.272,-5.273 -6,-7 -0.787,-1.604 -2.12,-2.271 -4,-2 -0.217,15.216 -7.883,21.883 -23,20 0.237,1.291 -0.096,2.291 -1,3 -0.135,-2.054 0.532,-3.721 2,-5 6.432,1.153 11.932,-0.514 16.5,-5 2.476,-5.545 4.643,-11.211 6.5,-17 -2.49,-2.214 -5.49,-3.381 -9,-3.5 -7.86,-1.088 -15.526,-0.421 -23,2 -6.142,7.311 -12.142,7.311 -18,0 -8.748,-3.775 -17.748,-4.442 -27,-2 -0.928,0.388 -1.595,1.055 -2,2 1.522,3.662 2.355,7.495 2.5,11.5 4.856,12.001 13.023,14.834 24.5,8.5 3.476,-3.452 5.476,-7.619 6,-12.5 3.072,-0.317 6.072,0.016 9,1 1.568,4.807 3.902,9.14 7,13 0,1 0,2 0,3 -1.333,0 -2.667,0 -4,0 0.898,-0.658 1.898,-1.324 3,-2 -3.356,-3.376 -5.69,-7.376 -7,-12 -2.243,-0.974 -4.576,-1.308 -7,-1 -2.716,12.371 -10.383,17.204 -23,14.5 -2.087,-0.792 -3.921,-1.959 -5.5,-3.5 0.161,10.445 5.328,17.278 15.5,20.5 4.845,1.869 9.845,3.035 15,3.5 -1.068,0.934 -2.401,1.268 -4,1 -2.369,-0.351 -4.703,-0.518 -7,-0.5 -1.575,3.726 -0.575,4.893 3,3.5 1.291,-0.237 2.291,0.096 3,1 -2.286,0.095 -4.286,0.762 -6,2 -2.592,1.536 -3.592,3.869 -3,7 -1.987,5.043 -0.32,8.376 5,10 5.475,1.783 11.141,2.449 17,2 0.992,-0.172 1.658,0.162 2,1 0,2 0,4 0,6 0.319,4.863 -0.014,9.53 -1,14 0,-1.667 0,-3.333 0,-5 0,-5 0,-10 0,-15 -8.306,2.138 -15.973,0.805 -23,-4 -1.586,1.673 -2.253,3.673 -2,6 -0.934,1.068 -1.268,2.401 -1,4 0.44,2.88 1.44,5.546 3,8 0.172,0.992 -0.162,1.658 -1,2 -0.462,-2.257 -1.462,-4.257 -3,-6 -0.333,0.333 -0.667,0.667 -1,1 1.13,1.122 1.797,2.456 2,4 0,0.667 -0.333,1 -1,1 -0.432,-1.21 -1.099,-2.21 -2,-3 -1.452,-0.802 -3.118,-1.302 -5,-1.5 1.558,-0.21 2.891,-0.71 4,-1.5 0.543,-0.06 0.876,-0.393 1,-1 -1.799,-1.288 -3.465,-1.288 -5,0 -1.622,-0.622 -2.955,-1.622 -4,-3 0.716,-2.783 1.383,-5.616 2,-8.5 -1.333,-3.333 -1.333,-6.667 0,-10 -2.54,-4.315 -2.54,-8.649 0,-13 -1.176,-3.197 -1.176,-6.364 0,-9.5 -4.743,-5.822 -6.91,-12.489 -6.5,-20 -1.363,-5.388 -2.863,-10.722 -4.5,-16 0.203,-1.708 1.036,-3.041 2.5,-4 0.189,-4.751 0.855,-9.417 2,-14 4.376,-4.391 8.042,-9.391 11,-15 22.676,-22.027 46.676,-23.694 72,-5 2.503,3.002 4.503,6.335 6,10 -0.837,6.351 -0.504,12.684 1,19 5.083,8.669 4.083,16.669 -3,24 0.263,5.316 0.263,10.649 0,16 -0.615,1.616 -1.615,2.949 -3,4 -0.105,3.86 -0.938,7.526 -2.5,11 2.565,4.302 2.565,8.636 0,13 1.244,3.311 1.244,6.644 0,10 1.582,2.924 3.582,5.591 6,8 1.018,-0.693 2.018,-1.359 3,-2 z"
       id="path422" />
  </g>
  <g
     id="g423"
     transform="translate(-648.5,-278.62729)">
    <path
       style="opacity:1"
       fill="#a271a4"
       d="m 696.5,415.5 c -7.42,0.297 -14.754,-0.036 -22,-1 -0.333,0 -0.667,0 -1,0 -1.56,-2.454 -2.56,-5.12 -3,-8 0.973,0.487 1.973,0.987 3,1.5 7.326,0.5 14.659,0.666 22,0.5 0,-1.667 0,-3.333 0,-5 -8.025,0.11 -16.025,-0.224 -24,-1 -0.253,-2.327 0.414,-4.327 2,-6 7.027,4.805 14.694,6.138 23,4 0,5 0,10 0,15 z"
       id="path423" />
  </g>
  <g
     id="g424"
     transform="translate(-648.5,-278.62729)">
    <path
       style="opacity:1"
       fill="#9ba180"
       d="m 704.5,397.5 c 0.734,1.208 1.067,2.541 1,4 -1.788,-0.285 -3.455,0.048 -5,1 1.189,0.929 2.522,1.262 4,1 0.857,2.543 2.19,4.877 4,7 -2.09,2.509 -3.923,2.175 -5.5,-1 -0.483,0.948 -0.649,1.948 -0.5,3 -1,0 -2,0 -3,0 -0.203,-1.89 0.463,-3.39 2,-4.5 -1.201,-0.903 -2.035,-2.069 -2.5,-3.5 -0.464,0.594 -0.631,1.261 -0.5,2 -0.333,0 -0.667,0 -1,0 0,-2 0,-4 0,-6 2.415,-0.805 4.749,-1.805 7,-3 z"
       id="path424" />
  </g>
  <g
     id="g425"
     transform="translate(-648.5,-278.62729)">
    <path
       style="opacity:1"
       fill="#e3e2e4"
       d="m 735.5,404.5 c 4.211,1.667 4.711,4.001 1.5,7 -0.349,7.571 -1.849,7.571 -4.5,0 1.834,-1.998 2.834,-4.332 3,-7 z"
       id="path425" />
  </g>
  <g
     id="g426"
     transform="translate(-648.5,-278.62729)">
    <path
       style="opacity:1"
       fill="#f5eff7"
       d="m 671.5,402.5 c 7.975,0.776 15.975,1.11 24,1 0,1.667 0,3.333 0,5 -7.341,0.166 -14.674,0 -22,-0.5 -1.027,-0.513 -2.027,-1.013 -3,-1.5 -0.268,-1.599 0.066,-2.932 1,-4 z"
       id="path426" />
  </g>
  <g
     id="g427"
     transform="translate(-648.5,-278.62729)">
    <path
       style="opacity:1"
       fill="#855a33"
       d="m 732.5,400.5 c 0.997,-0.03 1.664,0.47 2,1.5 -0.841,3.25 -2.841,5.083 -6,5.5 -2.803,-2.704 -3.637,-6.037 -2.5,-10 1.685,1.517 3.185,3.184 4.5,5 1.022,-0.355 1.689,-1.022 2,-2 z"
       id="path427" />
  </g>
  <g
     id="g428"
     transform="translate(-648.5,-278.62729)">
    <path
       style="opacity:1"
       fill="#946340"
       d="m 669.5,396.5 c 0.972,3.02 0.472,6.02 -1.5,9 -5.473,1.783 -7.473,-0.217 -6,-6 1,1 2,2 3,3 1.332,-2.16 2.832,-4.16 4.5,-6 z"
       id="path428" />
  </g>
  <g
     id="g429"
     transform="translate(-648.5,-278.62729)">
    <path
       style="opacity:1"
       fill="#825833"
       d="m 723.5,384.5 c 3.035,2.036 5.368,4.702 7,8 1.314,-0.813 2.481,-1.813 3.5,-3 0.333,0.333 0.667,0.667 1,1 0.293,3.621 -0.541,6.954 -2.5,10 -2.91,-1.739 -5.41,-4.072 -7.5,-7 -0.363,-3.044 -0.863,-6.044 -1.5,-9 z"
       id="path429" />
  </g>
  <g
     id="g430"
     transform="translate(-648.5,-278.62729)">
    <path
       style="opacity:1"
       fill="#868c75"
       d="m 690.5,385.5 c 0.667,0 1.333,0 2,0 1.08,1.545 1.08,3.045 0,4.5 0.259,1.261 0.926,2.261 2,3 -2.951,0.226 -5.451,1.392 -7.5,3.5 -1.168,-1.009 -2.335,-2.009 -3.5,-3 -1.295,0.598 -2.628,1.098 -4,1.5 -0.752,0.671 -1.086,1.504 -1,2.5 -5.32,-1.624 -6.987,-4.957 -5,-10 1.333,0 2.667,0 4,0 0.506,4.134 2.506,4.967 6,2.5 -1.321,-1.545 -0.988,-2.711 1,-3.5 3.566,9.553 5.566,9.219 6,-1 z"
       id="path430" />
  </g>
  <g
     id="g431"
     transform="translate(-648.5,-278.62729)">
    <path
       style="opacity:1"
       fill="#b5bd9a"
       d="m 695.5,399.5 c -5.859,0.449 -11.525,-0.217 -17,-2 -0.086,-0.996 0.248,-1.829 1,-2.5 1.372,-0.402 2.705,-0.902 4,-1.5 1.165,0.991 2.332,1.991 3.5,3 2.049,-2.108 4.549,-3.274 7.5,-3.5 -1.074,-0.739 -1.741,-1.739 -2,-3 1.08,-1.455 1.08,-2.955 0,-4.5 2.012,-0.514 4.012,-0.68 6,-0.5 -1.349,1.635 -1.182,3.135 0.5,4.5 0.192,-2.077 0.692,-4.077 1.5,-6 4.518,-2.451 9.184,-3.951 14,-4.5 2,2 4,4 6,6 -1.997,3.176 -4.664,4.342 -8,3.5 -0.728,1.693 -1.728,3.193 -3,4.5 -4.647,2.494 -9.314,4.661 -14,6.5 z"
       id="path431" />
  </g>
  <g
     id="g432"
     transform="translate(-648.5,-278.62729)">
    <path
       style="opacity:1"
       fill="#575a50"
       d="m 698.5,391.5 c 1.548,0.321 2.215,1.321 2,3 -2.748,0.098 -3.414,-0.902 -2,-3 z"
       id="path432" />
  </g>
  <g
     id="g433"
     transform="translate(-648.5,-278.62729)">
    <path
       style="opacity:1"
       fill="#885c34"
       d="m 670.5,385.5 c 1.134,2.466 1.301,5.133 0.5,8 -7.247,8.603 -10.08,7.27 -8.5,-4 0.978,0.477 1.811,1.143 2.5,2 2.04,-1.87 3.873,-3.87 5.5,-6 z"
       id="path433" />
  </g>
  <g
     id="g434"
     transform="translate(-648.5,-278.62729)">
    <path
       style="opacity:1"
       fill="#bcc8a5"
       d="m 676.5,380.5 c 0.876,-0.131 1.543,0.202 2,1 -3.811,1.238 -3.811,1.904 0,2 0,1 0,2 0,3 3.218,-0.151 3.551,-0.984 1,-2.5 0.594,-0.464 1.261,-0.631 2,-0.5 2.902,1.078 5.902,1.744 9,2 -0.434,10.219 -2.434,10.553 -6,1 -1.988,0.789 -2.321,1.955 -1,3.5 -3.494,2.467 -5.494,1.634 -6,-2.5 -1.333,0 -2.667,0 -4,0 -0.592,-3.131 0.408,-5.464 3,-7 z"
       id="path434" />
  </g>
  <g
     id="g435"
     transform="translate(-648.5,-278.62729)">
    <path
       style="opacity:1"
       fill="#7d8773"
       d="m 682.5,378.5 c 3.059,0.058 5.392,1.392 7,4 -1.574,1.131 -3.241,1.298 -5,0.5 -1.504,-1.788 -3.171,-2.288 -5,-1.5 0.743,0.682 1.409,1.349 2,2 -0.739,-0.131 -1.406,0.036 -2,0.5 2.551,1.516 2.218,2.349 -1,2.5 0,-1 0,-2 0,-3 -3.811,-0.096 -3.811,-0.762 0,-2 -0.457,-0.798 -1.124,-1.131 -2,-1 1.714,-1.238 3.714,-1.905 6,-2 z"
       id="path435" />
  </g>
  <g
     id="g436"
     transform="translate(-648.5,-278.62729)">
    <path
       style="opacity:1"
       fill="#865e3a"
       d="m 672.5,373.5 c 1.149,0.291 1.816,1.124 2,2.5 -1.524,5.545 -4.69,10.045 -9.5,13.5 -4.634,-3.336 -5.467,-7.336 -2.5,-12 1.261,1.953 2.427,3.953 3.5,6 0.435,-4.555 2.602,-7.889 6.5,-10 z"
       id="path436" />
  </g>
  <g
     id="g437"
     transform="translate(-648.5,-278.62729)">
    <path
       style="opacity:1"
       fill="#916337"
       d="m 722.5,372.5 c 3.545,1.73 6.212,4.396 8,8 0.915,-2.48 2.415,-3.147 4.5,-2 1.136,4.396 -0.031,8.062 -3.5,11 -2.651,-2.15 -5.151,-4.483 -7.5,-7 -1.316,-3.188 -1.816,-6.522 -1.5,-10 z"
       id="path437" />
  </g>
  <g
     id="g438"
     transform="translate(-648.5,-278.62729)">
    <path
       style="opacity:1"
       fill="#e3e5e5"
       d="m 683.5,374.5 c 1.452,0.802 3.118,1.302 5,1.5 -3.195,0.181 -6.195,0.681 -9,1.5 -3.575,1.393 -4.575,0.226 -3,-3.5 2.297,-0.018 4.631,0.149 7,0.5 z"
       id="path438" />
  </g>
  <g
     id="g439"
     transform="translate(-648.5,-278.62729)">
    <path
       style="opacity:1"
       fill="#dbdadb"
       d="m 721.5,382.5 c -2.171,-2 -4.504,-3.834 -7,-5.5 -4.321,-0.499 -8.654,-0.666 -13,-0.5 6.026,-2.424 12.359,-4.091 19,-5 -0.177,3.734 0.156,7.401 1,11 z"
       id="path439" />
  </g>
  <g
     id="g440"
     transform="translate(-648.5,-278.62729)">
    <path
       style="opacity:1"
       fill="#966636"
       d="m 738.5,352.5 c 1.149,0.291 1.816,1.124 2,2.5 -0.236,4.99 -2.569,8.49 -7,10.5 3.272,5.02 2.272,9.02 -3,12 -2,-2.667 -4.333,-5 -7,-7 7.188,-4.187 12.188,-10.187 15,-18 z"
       id="path440" />
  </g>
  <g
     id="g441"
     transform="translate(-648.5,-278.62729)">
    <path
       style="opacity:1"
       fill="#865e39"
       d="m 661.5,367.5 c 3.055,1.024 6.055,2.357 9,4 1.021,0.502 1.188,1.168 0.5,2 -2.029,1.76 -4.196,2.927 -6.5,3.5 -2.294,-2.718 -3.294,-5.885 -3,-9.5 z"
       id="path441" />
  </g>
  <g
     id="g442"
     transform="translate(-648.5,-278.62729)">
    <path
       style="opacity:1"
       fill="#f1f1f2"
       d="m 733.5,336.5 c -2.116,21.595 -14.116,33.095 -36,34.5 1.098,0.77 1.098,1.603 0,2.5 -3.333,0 -6.667,0 -10,0 -5.155,-0.465 -10.155,-1.631 -15,-3.5 -10.172,-3.222 -15.339,-10.055 -15.5,-20.5 1.579,1.541 3.413,2.708 5.5,3.5 12.617,2.704 20.284,-2.129 23,-14.5 2.424,-0.308 4.757,0.026 7,1 1.31,4.624 3.644,8.624 7,12 -1.102,0.676 -2.102,1.342 -3,2 -6.632,1.037 -13.132,1.037 -19.5,0 -1.062,6.368 1.438,10.868 7.5,13.5 6.946,2.697 13.112,1.53 18.5,-3.5 1.559,-1.717 2.392,-3.717 2.5,-6 0.904,-0.709 1.237,-1.709 1,-3 15.117,1.883 22.783,-4.784 23,-20 1.88,-0.271 3.213,0.396 4,2 z"
       id="path442" />
  </g>
  <g
     id="g443"
     transform="translate(-648.5,-278.62729)">
    <path
       style="opacity:1"
       fill="#0e0c0b"
       d="m 700.5,350.5 c 2.333,0.667 4.667,1.333 7,2 -1.468,1.279 -2.135,2.946 -2,5 -0.108,2.283 -0.941,4.283 -2.5,6 -5.388,5.03 -11.554,6.197 -18.5,3.5 -6.062,-2.632 -8.562,-7.132 -7.5,-13.5 6.368,1.037 12.868,1.037 19.5,0 1.333,0 2.667,0 4,0 0,-1 0,-2 0,-3 z"
       id="path443" />
  </g>
  <g
     id="g444"
     transform="translate(-648.5,-278.62729)">
    <path
       style="opacity:1"
       fill="#e66761"
       d="m 692.5,359.5 c 3.307,-0.437 6.307,0.23 9,2 -3.731,4.188 -8.398,5.688 -14,4.5 -0.951,-0.718 -1.117,-1.551 -0.5,-2.5 1.5,-1.969 3.333,-3.302 5.5,-4 z"
       id="path444" />
  </g>
  <g
     id="g445"
     transform="translate(-648.5,-278.62729)">
    <path
       style="opacity:1"
       fill="#d7d5d3"
       d="m 733.5,336.5 c 2.728,1.727 4.728,4.06 6,7 -1.352,11.217 -7.019,19.384 -17,24.5 -6.89,2.306 -13.89,4.139 -21,5.5 -1.333,0 -2.667,0 -4,0 1.098,-0.897 1.098,-1.73 0,-2.5 21.884,-1.405 33.884,-12.905 36,-34.5 z"
       id="path445" />
  </g>
  <g
     id="g446"
     transform="translate(-648.5,-278.62729)">
    <path
       style="opacity:1"
       fill="#8e65b4"
       d="m 707.5,352.5 c -2.333,-0.667 -4.667,-1.333 -7,-2 -3.098,-3.86 -5.432,-8.193 -7,-13 -2.928,-0.984 -5.928,-1.317 -9,-1 -0.524,4.881 -2.524,9.048 -6,12.5 -11.477,6.334 -19.644,3.501 -24.5,-8.5 -0.145,-4.005 -0.978,-7.838 -2.5,-11.5 0.405,-0.945 1.072,-1.612 2,-2 9.252,-2.442 18.252,-1.775 27,2 5.858,7.311 11.858,7.311 18,0 7.474,-2.421 15.14,-3.088 23,-2 3.51,0.119 6.51,1.286 9,3.5 -1.857,5.789 -4.024,11.455 -6.5,17 -4.568,4.486 -10.068,6.153 -16.5,5 z"
       id="path446" />
  </g>
  <g
     id="g447"
     transform="translate(-648.5,-278.62729)">
    <path
       style="opacity:1"
       fill="#1d1c1d"
       d="m 661.5,326.5 c 5.125,0.031 10.125,0.864 15,2.5 6.747,3.717 7.914,8.884 3.5,15.5 -4.176,5.612 -9.676,7.445 -16.5,5.5 -4.444,-2.111 -6.944,-5.611 -7.5,-10.5 -0.667,-3.333 -0.667,-6.667 0,-10 1.876,-1.109 3.709,-2.109 5.5,-3 z"
       id="path447" />
  </g>
  <g
     id="g448"
     transform="translate(-648.5,-278.62729)">
    <path
       style="opacity:1"
       fill="#151413"
       d="m 686.5,342.5 c 4.794,-0.873 7.127,1.127 7,6 -1.992,0.172 -3.658,-0.495 -5,-2 -1,0.667 -2,1.333 -3,2 -0.969,-2.117 -0.636,-4.117 1,-6 z"
       id="path448" />
  </g>
  <g
     id="g449"
     transform="translate(-648.5,-278.62729)">
    <path
       style="opacity:1"
       fill="#f0eff0"
       d="m 659.5,328.5 c 7.517,-0.8 14.351,0.867 20.5,5 0.667,1.667 0.667,3.333 0,5 -5.211,-7.439 -10.878,-7.773 -17,-1 -0.483,0.948 -0.649,1.948 -0.5,3 2.993,-1.32 5.993,-2.653 9,-4 9.756,2.333 10.423,6.166 2,11.5 -11.307,2.369 -16.974,-2.298 -17,-14 0.363,-2.192 1.363,-4.026 3,-5.5 z"
       id="path449" />
  </g>
  <g
     id="g450"
     transform="translate(-648.5,-278.62729)">
    <path
       style="opacity:1"
       fill="#201a21"
       d="m 706.5,327.5 c 4.014,-0.166 8.014,10e-4 12,0.5 2.507,0.093 4.674,0.926 6.5,2.5 1.965,18.05 -5.535,24.217 -22.5,18.5 -5.612,-4.176 -7.445,-9.676 -5.5,-16.5 2.907,-2.368 6.074,-4.035 9.5,-5 z"
       id="path450" />
  </g>
  <g
     id="g451"
     transform="translate(-648.5,-278.62729)">
    <path
       style="opacity:1"
       fill="#efecef"
       d="m 704.5,329.5 c 5.676,-0.166 11.343,10e-4 17,0.5 0.916,0.374 1.75,0.874 2.5,1.5 1.226,13.776 -4.941,19.609 -18.5,17.5 -5.816,-3.132 -8.316,-7.966 -7.5,-14.5 1.805,-2.326 3.972,-3.992 6.5,-5 z"
       id="path451" />
  </g>
  <g
     id="g452"
     transform="translate(-648.5,-278.62729)">
    <path
       style="opacity:1"
       fill="#131012"
       d="m 706.5,333.5 c 4.662,-0.696 8.829,0.304 12.5,3 1.009,1.525 1.509,3.192 1.5,5 -2.997,-1.792 -6.164,-3.459 -9.5,-5 -3.425,0.419 -6.091,2.086 -8,5 -0.692,-0.525 -1.192,-1.192 -1.5,-2 1.01,-2.641 2.676,-4.641 5,-6 z"
       id="path452" />
  </g>
  <g
     id="g453"
     transform="translate(-648.5,-278.62729)">
    <path
       style="opacity:1"
       fill="#cf733c"
       d="m 739.5,318.5 c 3.811,2.618 5.811,6.284 6,11 -0.342,4.36 -1.675,8.36 -4,12 -1.872,-2.035 -3.539,-4.202 -5,-6.5 2.538,-5.203 3.538,-10.703 3,-16.5 z"
       id="path453" />
  </g>
  <g
     id="g454"
     transform="translate(-648.5,-278.62729)">
    <path
       style="opacity:1"
       fill="#f1f0f1"
       d="m 678.5,318.5 c 12.772,-0.944 25.105,0.889 37,5.5 -6.704,-0.251 -13.037,1.082 -19,4 -2.426,4.288 -6.093,5.622 -11,4 -5.477,-5.498 -12.144,-8.498 -20,-9 4.435,-1.568 8.768,-3.068 13,-4.5 z"
       id="path454" />
  </g>
  <g
     id="g455"
     transform="translate(-648.5,-278.62729)">
    <path
       style="opacity:1"
       fill="#e38d49"
       d="m 716.5,306.5 c 8.056,1.944 15.222,5.611 21.5,11 1.035,6.015 0.035,11.682 -3,17 -1.887,-1.526 -2.887,-3.526 -3,-6 -2.438,-1.068 -4.605,-2.402 -6.5,-4 2.902,-4.072 3.402,-8.406 1.5,-13 -0.049,4.553 -0.883,8.886 -2.5,13 -3.734,-0.913 -7.4,-2.247 -11,-4 -0.798,-0.457 -1.131,-1.124 -1,-2 1.941,-3.824 3.275,-7.824 4,-12 z"
       id="path455" />
  </g>
  <g
     id="g456"
     transform="translate(-648.5,-278.62729)">
    <path
       style="opacity:1"
       fill="#68492a"
       d="m 725.5,324.5 c -0.333,0 -0.667,0 -1,0 1.617,-4.114 2.451,-8.447 2.5,-13 1.902,4.594 1.402,8.928 -1.5,13 z"
       id="path456" />
  </g>
  <g
     id="g457"
     transform="translate(-648.5,-278.62729)">
    <path
       style="opacity:1"
       fill="#6e4a2d"
       d="m 713.5,305.5 c 1.291,-0.237 2.291,0.096 3,1 -0.725,4.176 -2.059,8.176 -4,12 0.7,-4.298 1.033,-8.631 1,-13 z"
       id="path457" />
  </g>
  <g
     id="g458"
     transform="translate(-648.5,-278.62729)">
    <path
       style="opacity:1"
       fill="#734f31"
       d="m 700.5,302.5 c 1.291,-0.237 2.291,0.096 3,1 -0.996,-0.086 -1.829,0.248 -2.5,1 -0.735,4.313 -1.235,8.647 -1.5,13 -0.667,-0.667 -1.333,-1.333 -2,-2 0.681,-4.427 1.681,-8.76 3,-13 z"
       id="path458" />
  </g>
  <g
     id="g459"
     transform="translate(-648.5,-278.62729)">
    <path
       style="opacity:1"
       fill="#7f512c"
       d="m 684.5,308.5 c 0,0.667 0.333,1 1,1 0,2.333 0,4.667 0,7 3.542,-0.313 6.875,0.021 10,1 -5.333,0 -10.667,0 -16,0 1.068,-0.934 2.401,-1.268 4,-1 -0.306,-2.885 0.027,-5.552 1,-8 z"
       id="path459" />
  </g>
  <g
     id="g460"
     transform="translate(-648.5,-278.62729)">
    <path
       style="opacity:1"
       fill="#eb964f"
       d="m 684.5,308.5 c -0.973,2.448 -1.306,5.115 -1,8 -1.599,-0.268 -2.932,0.066 -4,1 -2.403,-0.052 -4.736,0.281 -7,1 -1.141,-3.14 -1.308,-6.473 -0.5,-10 0.36,-1.921 1.194,-3.588 2.5,-5 3.653,-1.264 7.32,-1.264 11,0 -0.809,1.571 -1.143,3.238 -1,5 z"
       id="path460" />
  </g>
  <g
     id="g461"
     transform="translate(-648.5,-278.62729)">
    <path
       style="opacity:1"
       fill="#5a3e27"
       d="m 662.5,307.5 c -0.873,4.268 -1.206,8.602 -1,13 -0.667,0 -1,0.333 -1,1 -1.162,-4.187 -1.162,-8.52 0,-13 0.342,-0.838 1.008,-1.172 2,-1 z"
       id="path461" />
  </g>
  <g
     id="g462"
     transform="translate(-648.5,-278.62729)">
    <path
       style="opacity:1"
       fill="#e08a46"
       d="m 660.5,308.5 c -1.162,4.48 -1.162,8.813 0,13 -1.284,2.114 -3.284,3.114 -6,3 -0.29,-4.436 0.21,-8.77 1.5,-13 1.129,-1.641 2.629,-2.641 4.5,-3 z"
       id="path462" />
  </g>
  <g
     id="g463"
     transform="translate(-648.5,-278.62729)">
    <path
       style="opacity:1"
       fill="#e38f4b"
       d="m 670.5,319.5 c -2.854,0.424 -5.521,1.424 -8,3 -0.798,-0.457 -1.131,-1.124 -1,-2 -0.206,-4.398 0.127,-8.732 1,-13 0.667,-0.333 1.333,-0.667 2,-1 2.088,-1.439 4.421,-2.106 7,-2 -0.829,4.953 -1.163,9.953 -1,15 z"
       id="path463" />
  </g>
  <g
     id="g464"
     transform="translate(-648.5,-278.62729)">
    <path
       style="opacity:1"
       fill="#654127"
       d="m 728.5,289.5 c 4.945,6.521 6.612,13.854 5,22 -0.992,0.172 -1.658,-0.162 -2,-1 1.143,-3.476 1.31,-7.142 0.5,-11 -1.46,-3.248 -2.626,-6.581 -3.5,-10 z"
       id="path464" />
  </g>
  <g
     id="g465"
     transform="translate(-648.5,-278.62729)">
    <path
       style="opacity:1"
       fill="#e9944d"
       d="m 703.5,303.5 c 3.488,0.04 6.821,0.707 10,2 0.033,4.369 -0.3,8.702 -1,13 -4.315,0.678 -8.648,0.345 -13,-1 0.265,-4.353 0.765,-8.687 1.5,-13 0.671,-0.752 1.504,-1.086 2.5,-1 z"
       id="path465" />
  </g>
  <g
     id="g466"
     transform="translate(-648.5,-278.62729)">
    <path
       style="opacity:1"
       fill="#e99148"
       d="m 697.5,302.5 c 1,0 2,0 3,0 -1.319,4.24 -2.319,8.573 -3,13 0,1.333 -0.667,2 -2,2 -3.125,-0.979 -6.458,-1.313 -10,-1 0,-2.333 0,-4.667 0,-7 0.174,-2.361 0.507,-4.694 1,-7 3.667,0 7.333,0 11,0 z"
       id="path466" />
  </g>
  <g
     id="g467"
     transform="translate(-648.5,-278.62729)">
    <path
       style="opacity:1"
       fill="#cd7b3e"
       d="m 726.5,286.5 c 8.544,4.127 13.378,10.793 14.5,20 -1.667,-2.667 -3.333,-5.333 -5,-8 -0.167,0.5 -0.333,1 -0.5,1.5 3.962,5.555 6.129,11.722 6.5,18.5 -3.023,-2.198 -5.856,-4.531 -8.5,-7 1.612,-8.146 -0.055,-15.479 -5,-22 -1.406,-0.473 -2.073,-1.473 -2,-3 z"
       id="path467" />
  </g>
  <g
     id="g468"
     transform="translate(-648.5,-278.62729)">
    <path
       style="opacity:1"
       fill="#3d2d1d"
       d="m 676.5,295.5 c -0.377,1.758 -1.044,3.425 -2,5 0.333,0.333 0.667,0.667 1,1 2.247,-0.874 4.58,-1.208 7,-1 5,0.667 10,1.333 15,2 -3.667,0 -7.333,0 -11,0 -0.493,2.306 -0.826,4.639 -1,7 -0.667,0 -1,-0.333 -1,-1 -0.143,-1.762 0.191,-3.429 1,-5 -3.68,-1.264 -7.347,-1.264 -11,0 -1.306,1.412 -2.14,3.079 -2.5,5 -0.808,3.527 -0.641,6.86 0.5,10 -0.342,0.838 -1.008,1.172 -2,1 -0.163,-5.047 0.171,-10.047 1,-15 -2.579,-0.106 -4.912,0.561 -7,2 0,-0.667 -0.333,-1 -1,-1 2.737,-1.699 5.737,-3.033 9,-4 0.861,-2.411 2.194,-4.411 4,-6 z"
       id="path468" />
  </g>
  <g
     id="g469"
     transform="translate(-648.5,-278.62729)">
    <path
       style="opacity:1"
       fill="#e2914d"
       d="m 685.5,286.5 c -4,2 -7,5 -9,9 -1.806,1.589 -3.139,3.589 -4,6 -3.263,0.967 -6.263,2.301 -9,4 -0.739,0.131 -1.406,-0.036 -2,-0.5 5.435,-8.769 12.768,-15.435 22,-20 2.448,-0.853 3.114,-0.353 2,1.5 z"
       id="path469" />
  </g>
  <g
     id="g470"
     transform="translate(-648.5,-278.62729)">
    <path
       style="opacity:1"
       fill="#805836"
       d="m 716.5,282.5 c 0.333,0 0.667,0 1,0 0.324,7.144 -0.342,14.144 -2,21 -1.599,0.268 -2.932,-0.066 -4,-1 1,0 2,0 3,0 1.547,-6.565 2.214,-13.232 2,-20 z"
       id="path470" />
  </g>
  <g
     id="g471"
     transform="translate(-648.5,-278.62729)">
    <path
       style="opacity:1"
       fill="#e9954d"
       d="m 717.5,282.5 c 3.206,0.954 6.206,2.287 9,4 -0.073,1.527 0.594,2.527 2,3 0.874,3.419 2.04,6.752 3.5,10 0.81,3.858 0.643,7.524 -0.5,11 -5.402,-2.372 -10.735,-4.705 -16,-7 1.658,-6.856 2.324,-13.856 2,-21 z"
       id="path471" />
  </g>
  <g
     id="g472"
     transform="translate(-648.5,-278.62729)">
    <path
       style="opacity:1"
       fill="#7e5733"
       d="m 695.5,289.5 c -1.047,3.096 -2.38,6.096 -4,9 1.102,0.676 2.102,1.342 3,2 -1.667,0 -3.333,0 -5,0 1.24,-4.151 3.24,-7.817 6,-11 z"
       id="path472" />
  </g>
  <g
     id="g473"
     transform="translate(-648.5,-278.62729)">
    <path
       style="opacity:1"
       fill="#e9964d"
       d="m 703.5,280.5 c -3.374,2.374 -6.041,5.374 -8,9 -2.76,3.183 -4.76,6.849 -6,11 -2.333,0 -4.667,0 -7,0 -2.42,-0.208 -4.753,0.126 -7,1 -0.333,-0.333 -0.667,-0.667 -1,-1 0.956,-1.575 1.623,-3.242 2,-5 3.333,-2.667 6.333,-5.667 9,-9 5.212,-4.142 11.212,-6.142 18,-6 z"
       id="path473" />
  </g>
  <g
     id="g474"
     transform="translate(-648.5,-278.62729)">
    <path
       style="opacity:1"
       fill="#64452b"
       d="m 685.5,286.5 c -2.667,3.333 -5.667,6.333 -9,9 2,-4 5,-7 9,-9 z"
       id="path474" />
  </g>
  <g
     id="g475"
     transform="translate(-648.5,-278.62729)">
    <path
       style="opacity:1"
       fill="#7c5536"
       d="m 703.5,280.5 c 3.213,-0.31 6.213,0.023 9,1 -2.687,-0.164 -5.354,0.003 -8,0.5 -3.165,2.335 -6.165,4.835 -9,7.5 1.959,-3.626 4.626,-6.626 8,-9 z"
       id="path475" />
  </g>
  <g
     id="g476"
     transform="translate(-648.5,-278.62729)">
    <path
       style="opacity:1"
       fill="#eb974e"
       d="m 712.5,281.5 c 1.459,-0.067 2.792,0.266 4,1 0.214,6.768 -0.453,13.435 -2,20 -1,0 -2,0 -3,0 -5.6,-1.186 -11.267,-1.853 -17,-2 -0.898,-0.658 -1.898,-1.324 -3,-2 1.62,-2.904 2.953,-5.904 4,-9 2.835,-2.665 5.835,-5.165 9,-7.5 2.646,-0.497 5.313,-0.664 8,-0.5 z"
       id="path476" />
  </g>
  <g
     id="g479"
     transform="translate(-648.5,-278.62729)">
    <path
       style="opacity:1"
       fill="#e6e6e8"
       d="m 754.5,405.5 c -2.726,-0.236 -5.059,0.597 -7,2.5 -2.735,3.343 -5.569,6.509 -8.5,9.5 -1.44,-1.43 -1.774,-3.097 -1,-5 2.37,-2.539 4.87,-4.872 7.5,-7 1.981,-1.644 3.981,-3.31 6,-5 2.944,0.868 3.944,2.535 3,5 z"
       id="path479" />
  </g>
  <g
     id="g483"
     transform="translate(-648.5,-278.62729)">
    <path
       style="opacity:1"
       fill="#dbdadd"
       d="m 740.5,419.5 c 5.015,-3.861 9.682,-8.195 14,-13 0.863,-0.963 1.53,-0.963 2,0 -3.591,6.601 -8.924,10.935 -16,13 z"
       id="path483" />
  </g>
  <g
     id="g489"
     transform="translate(-648.5,-278.62729)">
    <path
       style="opacity:1"
       fill="#232025"
       d="m 758.5,394.5 c 0.616,0.702 0.616,1.702 0,3 -5.138,-0.499 -5.138,-1.499 0,-3 z"
       id="path489" />
  </g>
  <g
     id="g492"
     transform="translate(-648.5,-278.62729)">
    <path
       style="opacity:1"
       fill="#afb0b1"
       d="m 756.5,376.5 c 0.838,0.342 1.172,1.008 1,2 -1.13,2.168 -1.13,4.502 0,7 -0.276,1.83 -0.943,3.497 -2,5 -1.244,-4.28 -1.744,-8.614 -1.5,-13 0.951,-0.384 1.784,-0.717 2.5,-1 z"
       id="path492" />
  </g>
  <g
     id="g495"
     transform="translate(-648.5,-278.62729)">
    <path
       style="opacity:1"
       fill="#c9ccad"
       d="m 710.5,407.5 c 0.473,4.523 -1.527,6.857 -6,7 -0.353,2.135 0.48,3.468 2.5,4 1.58,-1.3 3.08,-2.634 4.5,-4 0.166,5.011 -10e-4,10.011 -0.5,15 -3.934,1.321 -7.767,1.321 -11.5,0 0,-1.333 0,-2.667 0,-4 1.333,0 2.667,0 4,0 -0.143,-1.762 0.191,-3.429 1,-5 -0.515,-1.725 -1.182,-3.392 -2,-5 -2.336,1.618 -2.336,3.452 0,5.5 -1.293,0.49 -2.627,0.657 -4,0.5 0,-5 0,-10 0,-15 -0.131,-0.739 0.036,-1.406 0.5,-2 0.465,1.431 1.299,2.597 2.5,3.5 -1.537,1.11 -2.203,2.61 -2,4.5 1,0 2,0 3,0 -0.149,-1.052 0.017,-2.052 0.5,-3 1.577,3.175 3.41,3.509 5.5,1 -1.81,-2.123 -3.143,-4.457 -4,-7 -1.478,0.262 -2.811,-0.071 -4,-1 1.545,-0.952 3.212,-1.285 5,-1 0.067,-1.459 -0.266,-2.792 -1,-4 1.307,-0.653 2.64,-1.32 4,-2 1.645,3.82 2.311,7.82 2,12 z"
       id="path495" />
  </g>
  <g
     id="g496"
     transform="translate(-648.5,-278.62729)">
    <path
       style="opacity:1"
       fill="#86563b"
       d="m 727.5,413.5 c 5.305,0.577 7.138,3.577 5.5,9 -1.242,1.372 -2.742,2.372 -4.5,3 -0.929,-2.576 -1.929,-5.076 -3,-7.5 0.019,-1.833 0.685,-3.333 2,-4.5 z"
       id="path496" />
  </g>
  <g
     id="g498"
     transform="translate(-648.5,-278.62729)">
    <path
       style="opacity:1"
       fill="#ae7ba8"
       d="m 674.5,419.5 c 7.291,0.892 14.624,1.226 22,1 0,2.333 0,4.667 0,7 -8.119,0.386 -16.119,-0.281 -24,-2 0.667,-2 1.333,-4 2,-6 z"
       id="path498" />
  </g>
  <g
     id="g499"
     transform="translate(-648.5,-278.62729)">
    <path
       style="opacity:1"
       fill="#83543e"
       d="m 667.5,413.5 c 0.901,0.79 1.568,1.79 2,3 -0.854,3.522 -2.187,6.855 -4,10 -3.589,-3.271 -4.756,-7.271 -3.5,-12 1.699,-0.906 3.533,-1.239 5.5,-1 z"
       id="path499" />
  </g>
  <g
     id="g500"
     transform="translate(-648.5,-278.62729)">
    <path
       style="opacity:1"
       fill="#f4ecf2"
       d="m 713.5,414.5 c 1.667,0 3.333,0 5,0 0,1.333 0,2.667 0,4 -1.667,1.333 -3.333,1.333 -5,0 0,-1.333 0,-2.667 0,-4 z"
       id="path500" />
  </g>
  <g
     id="g501"
     transform="translate(-648.5,-278.62729)">
    <path
       style="opacity:1"
       fill="#93966f"
       d="m 699.5,429.5 c -0.973,-2.448 -1.306,-5.115 -1,-8 1.373,0.157 2.707,-0.01 4,-0.5 -2.336,-2.048 -2.336,-3.882 0,-5.5 0.818,1.608 1.485,3.275 2,5 -0.809,1.571 -1.143,3.238 -1,5 -1.333,0 -2.667,0 -4,0 0,1.333 0,2.667 0,4 z"
       id="path501" />
  </g>
  <g
     id="g502"
     transform="translate(-648.5,-278.62729)">
    <path
       style="opacity:1"
       fill="#f7f2f7"
       d="m 674.5,414.5 c 7.246,0.964 14.58,1.297 22,1 0,1.667 0,3.333 0,5 -7.376,0.226 -14.709,-0.108 -22,-1 0,-1.667 0,-3.333 0,-5 z"
       id="path502" />
  </g>
  <g
     id="g503"
     transform="translate(-648.5,-278.62729)">
    <path
       style="opacity:1"
       fill="#959979"
       d="m 710.5,407.5 c 0.968,2.107 1.302,4.441 1,7 -1.42,1.366 -2.92,2.7 -4.5,4 -2.02,-0.532 -2.853,-1.865 -2.5,-4 4.473,-0.143 6.473,-2.477 6,-7 z"
       id="path503" />
  </g>
  <g
     id="g504"
     transform="translate(-648.5,-278.62729)">
    <path
       style="opacity:1"
       fill="#c7b8c7"
       d="m 672.5,416.5 c 0.065,0.438 -0.101,0.772 -0.5,1 -0.278,-0.916 -0.778,-1.582 -1.5,-2 -0.203,-1.544 -0.87,-2.878 -2,-4 0.333,-0.333 0.667,-0.667 1,-1 1.538,1.743 2.538,3.743 3,6 z"
       id="path504" />
  </g>
  <g
     id="g505"
     transform="translate(-648.5,-278.62729)">
    <path
       style="opacity:1"
       fill="#a17eb8"
       d="m 718.5,405.5 c 1.181,2.862 1.181,5.862 0,9 -1.667,0 -3.333,0 -5,0 0.202,-2.45 -0.131,-4.783 -1,-7 2.398,0.241 4.398,-0.426 6,-2 z"
       id="path505" />
  </g>
  <g
     id="g506"
     transform="translate(-648.5,-278.62729)">
    <path
       style="opacity:1"
       fill="#c49fa2"
       d="m 666.5,410.5 c -1.599,0.268 -2.932,-0.066 -4,-1 1.535,-1.288 3.201,-1.288 5,0 -0.124,0.607 -0.457,0.94 -1,1 z"
       id="path506" />
  </g>
  <g
     id="g507"
     transform="translate(-648.5,-278.62729)">
    <path
       style="opacity:1"
       fill="#e8dbea"
       d="m 722.5,398.5 c 2.243,8.48 0.909,9.48 -4,3 1.576,-0.643 2.91,-1.643 4,-3 z"
       id="path507" />
  </g>
  <g
     id="g508"
     transform="translate(-648.5,-278.62729)">
    <path
       style="opacity:1"
       fill="#ede6ef"
       d="m 712.5,402.5 c 1.333,0 2.667,0 4,0 0.901,0.79 1.568,1.79 2,3 -1.602,1.574 -3.602,2.241 -6,2 0,-1.667 0,-3.333 0,-5 z"
       id="path508" />
  </g>
  <g
     id="g509"
     transform="translate(-648.5,-278.62729)">
    <path
       style="opacity:1"
       fill="#9373ae"
       d="m 714.5,392.5 c 0,1 0,2 0,3 -0.597,0.235 -0.93,0.735 -1,1.5 1.132,1.765 2.132,3.598 3,5.5 -1.333,0 -2.667,0 -4,0 -0.327,-1.988 -0.66,-3.988 -1,-6 0.12,-2.088 1.12,-3.422 3,-4 z"
       id="path509" />
  </g>
  <g
     id="g510"
     transform="translate(-648.5,-278.62729)">
    <path
       style="opacity:1"
       fill="#8c68aa"
       d="m 722.5,395.5 c 0,1 0,2 0,3 -1.09,1.357 -2.424,2.357 -4,3 -0.988,-1.295 -1.988,-2.628 -3,-4 2.246,-0.955 4.579,-1.622 7,-2 z"
       id="path510" />
  </g>
  <g
     id="g511"
     transform="translate(-648.5,-278.62729)">
    <path
       style="opacity:1"
       fill="#ddbfe6"
       d="m 722.5,395.5 c -2.421,0.378 -4.754,1.045 -7,2 -0.333,-0.667 -0.667,-1.333 -1,-2 0,-1 0,-2 0,-3 2.128,-1.903 4.461,-3.569 7,-5 0.98,2.586 1.313,5.253 1,8 z"
       id="path511" />
  </g>
  <g
     id="g512"
     transform="translate(-648.5,-278.62729)">
    <path
       style="opacity:1"
       fill="#c8cdbf"
       d="m 697.5,380.5 c 2.235,0.748 1.902,1.581 -1,2.5 -2.079,0.808 -4.079,0.641 -6,-0.5 2.469,-0.668 4.802,-1.335 7,-2 z"
       id="path512" />
  </g>
  <g
     id="g513"
     transform="translate(-648.5,-278.62729)">
    <path
       style="opacity:1"
       fill="#dddedb"
       d="m 690.5,376.5 c 3.072,-0.317 6.072,0.016 9,1 -0.209,0.586 -0.543,1.086 -1,1.5 -2.646,0.497 -5.313,0.664 -8,0.5 0,-1 0,-2 0,-3 z"
       id="path513" />
  </g>
  <g
     id="g514"
     transform="translate(-648.5,-278.62729)">
    <path
       style="opacity:1"
       fill="#88699c"
       d="m 713.5,418.5 c 1.667,1.333 3.333,1.333 5,0 0.667,2.667 1.333,5.333 2,8 -2.256,-0.938 -4.59,-0.938 -7,0 0,-2.667 0,-5.333 0,-8 z"
       id="path514" />
  </g>
  <g
     id="g516"
     transform="translate(-648.5,-278.62729)">
    <path
       style="opacity:1"
       fill="#f6f3f7"
       d="m 672.5,425.5 c 7.881,1.719 15.881,2.386 24,2 0.951,1.419 1.284,3.085 1,5 -7.728,0.311 -15.395,-0.189 -23,-1.5 -1.442,-0.377 -2.442,-1.21 -3,-2.5 0.057,-1.109 0.39,-2.109 1,-3 z"
       id="path516" />
  </g>
  <g
     id="g519"
     transform="translate(-648.5,-278.62729)">
    <path
       style="opacity:1"
       fill="#ebe4ec"
       d="m 720.5,426.5 c 0,0.667 0,1.333 0,2 -2.015,1.424 -4.348,2.09 -7,2 0,-1.333 0,-2.667 0,-4 2.41,-0.938 4.744,-0.938 7,0 z"
       id="path519" />
  </g>
  <g
     id="g521"
     transform="translate(-648.5,-278.62729)">
    <path
       style="opacity:1"
       fill="#e0dfe2"
       d="m 658.5,412.5 c 0.739,-0.131 1.406,0.036 2,0.5 -3.955,6.368 -5.622,13.201 -5,20.5 2.102,-3.205 3.935,-6.538 5.5,-10 1.703,8.113 -1.464,12.113 -9.5,12 0.132,-8.392 2.465,-16.059 7,-23 z"
       id="path521" />
  </g>
  <g
     id="g522"
     transform="translate(-648.5,-278.62729)">
    <path
       style="opacity:1"
       fill="#a97aac"
       d="m 671.5,428.5 c 0.558,1.29 1.558,2.123 3,2.5 7.605,1.311 15.272,1.811 23,1.5 5.469,0.254 10.803,-0.413 16,-2 2.652,0.09 4.985,-0.576 7,-2 1.446,2.754 2.446,5.754 3,9 -12.188,2.486 -24.522,3.486 -37,3 -6.142,-0.159 -12.142,-1.159 -18,-3 0.428,-3.285 1.428,-6.285 3,-9 z"
       id="path522" />
  </g>
  <g
     id="g531"
     transform="translate(-648.5,-278.62729)">
    <path
       style="opacity:1"
       fill="#fcfafc"
       d="m 668.5,437.5 c 5.858,1.841 11.858,2.841 18,3 5.81,0.99 11.81,1.323 18,1 0,1.333 0,2.667 0,4 -12.199,0.661 -24.199,-0.339 -36,-3 0,-1 0,-2 0,-3 0,-0.667 0,-1.333 0,-2 z"
       id="path531" />
  </g>
  <g
     id="g534"
     transform="translate(-648.5,-278.62729)">
    <path
       style="opacity:1"
       fill="#dfe0e0"
       d="m 657.5,440.5 c -0.761,0.891 -1.761,1.558 -3,2 -1.635,-0.546 -3.301,-0.88 -5,-1 0.179,-3.27 2.012,-4.937 5.5,-5 2.02,0.532 2.853,1.865 2.5,4 z"
       id="path534" />
  </g>
  <g
     id="g535"
     transform="translate(-648.5,-278.62729)">
    <path
       style="opacity:1"
       fill="#5f5e5e"
       d="m 657.5,440.5 c -0.067,1.459 0.266,2.792 1,4 -0.951,1.419 -1.284,3.085 -1,5 -1.333,0 -2.667,0 -4,0 -1.291,0.237 -2.291,-0.096 -3,-1 0.438,0.065 0.772,-0.101 1,-0.5 -1.012,-1.643 -2.012,-2.81 -3,-3.5 0.185,-1.084 0.518,-2.084 1,-3 1.699,0.12 3.365,0.454 5,1 1.239,-0.442 2.239,-1.109 3,-2 z"
       id="path535" />
  </g>
  <g
     id="g586"
     transform="translate(-648.5,-278.62729)">
    <path
       style="opacity:1"
       fill="#ece2ed"
       d="m 723.5,437.5 c 0.538,1.617 0.871,3.284 1,5 -6.581,1.324 -13.248,2.324 -20,3 0,-1.333 0,-2.667 0,-4 -6.19,0.323 -12.19,-0.01 -18,-1 12.478,0.486 24.812,-0.514 37,-3 z"
       id="path586" />
  </g>
  <g
     id="g591"
     transform="translate(-648.5,-278.62729)">
    <path
       style="opacity:1"
       fill="#dfdfe0"
       d="m 662.5,453.5 c 0.285,-1.788 -0.048,-3.455 -1,-5 -2.574,2.134 -5.241,2.468 -8,1 1.333,0 2.667,0 4,0 -0.284,-1.915 0.049,-3.581 1,-5 1.175,0.219 2.175,-0.114 3,-1 -1.462,0.435 -2.462,-0.398 -3,-2.5 0.167,-0.5 0.333,-1 0.5,-1.5 0.811,1.46 1.645,1.793 2.5,1 -0.883,-1.048 -1.55,-2.215 -2,-3.5 1.305,-2.776 2.471,-5.61 3.5,-8.5 1.008,-0.482 2.175,-0.648 3.5,-0.5 1.294,-2.087 2.461,-4.254 3.5,-6.5 0.718,-0.951 1.551,-1.117 2.5,-0.5 -1.629,3.427 -3.129,6.927 -4.5,10.5 -1.55,7.534 -3.384,14.868 -5.5,22 z"
       id="path591" />
  </g>
  <g
     id="g596"
     transform="translate(-648.5,-278.62729)">
    <path
       style="opacity:1"
       fill="#aa78a9"
       d="m 668.5,439.5 c 0,1 0,2 0,3 11.801,2.661 23.801,3.661 36,3 6.752,-0.676 13.419,-1.676 20,-3 0.493,2.306 0.826,4.639 1,7 -2.333,0.667 -4.667,1.333 -7,2 -15.713,2.745 -31.38,2.579 -47,-0.5 -1.952,-0.366 -3.618,-1.199 -5,-2.5 -0.285,-3.329 0.382,-6.329 2,-9 z"
       id="path596" />
  </g>
  <g
     id="g602"
     transform="translate(-648.5,-278.62729)">
    <path
       style="opacity:1"
       fill="#f7f2f6"
       d="m 666.5,448.5 c 1.382,1.301 3.048,2.134 5,2.5 15.62,3.079 31.287,3.245 47,0.5 0,1.667 0,3.333 0,5 -12.913,1.992 -25.913,2.492 -39,1.5 -4.521,-0.729 -8.854,-2.063 -13,-4 -1.307,-1.943 -1.307,-3.777 0,-5.5 z"
       id="path602" />
  </g>
  <g
     id="g603"
     transform="translate(-648.5,-278.62729)">
    <path
       style="opacity:1"
       fill="#d1b5cd"
       d="m 725.5,449.5 c 0.951,1.419 1.284,3.085 1,5 -2.721,0.463 -5.388,1.129 -8,2 0,-1.667 0,-3.333 0,-5 2.333,-0.667 4.667,-1.333 7,-2 z"
       id="path603" />
  </g>
  <g
     id="g611"
     transform="translate(-648.5,-278.62729)">
    <path
       style="opacity:1"
       fill="#e3e4e6"
       d="m 663.5,455.5 c 21.189,7.982 42.355,7.982 63.5,0 0.781,1.444 0.614,2.777 -0.5,4 -20.809,6.993 -41.476,6.66 -62,-1 -0.886,-0.825 -1.219,-1.825 -1,-3 z"
       id="path611" />
  </g>
  <g
     id="g614"
     transform="translate(-648.5,-278.62729)">
    <path
       style="opacity:1"
       fill="#ebebed"
       d="m 672.5,463.5 c 10.454,1.503 10.954,3.169 1.5,5 -2.611,-1 -3.111,-2.667 -1.5,-5 z"
       id="path614" />
  </g>
  <g
     id="g616"
     transform="translate(-648.5,-278.62729)">
    <path
       style="opacity:1"
       fill="#e5e6e6"
       d="m 712.5,464.5 c 2.333,0 4.667,0 7,0 0,1.333 0,2.667 0,4 -3.028,-0.161 -5.861,0.506 -8.5,2 -3.395,-2.891 -2.895,-4.891 1.5,-6 z"
       id="path616" />
  </g>
</svg>
