<?xml version="1.0" encoding="UTF-8" standalone="no"?>
<svg
   version="1.1"
   width="101.58331"
   height="229.00024"
   style="clip-rule:evenodd;fill-rule:evenodd;image-rendering:optimizeQuality;shape-rendering:geometricPrecision;text-rendering:geometricPrecision"
   id="svg1400"
   xmlns="http://www.w3.org/2000/svg"
   xmlns:svg="http://www.w3.org/2000/svg">
  <defs
     id="defs1400" />
  <g
     id="g728"
     transform="translate(-644.49988,-522.5)">
    <path
       style="opacity:1"
       fill="#82817c"
       d="m 666.5,525.5 c 0.308,2.424 -0.026,4.757 -1,7 -0.607,-0.124 -0.94,-0.457 -1,-1 0.667,-2 1.333,-4 2,-6 z"
       id="path728" />
  </g>
  <g
     id="g736"
     transform="translate(-644.49988,-522.5)">
    <path
       style="opacity:1"
       fill="#262523"
       d="m 704.5,619.5 c -1.915,0.284 -3.581,-0.049 -5,-1 23.58,-0.75 36.08,-12.75 37.5,-36 -1.789,1.729 -3.956,2.396 -6.5,2 1.267,-8.464 -0.566,-16.131 -5.5,-23 -4.922,-4.702 -10.755,-6.202 -17.5,-4.5 -13.444,7.27 -26.277,6.437 -38.5,-2.5 -7.997,3.293 -12.664,9.293 -14,18 -0.667,9.008 -1.001,18.008 -1,27 5.346,11.604 14.512,17.604 27.5,18 2.107,0.968 4.441,1.302 7,1 3.141,0.821 6.475,1.321 10,1.5 -3.525,0.179 -6.859,0.679 -10,1.5 0,1 0,2 0,3 2.667,0 5.333,0 8,0 0.438,-0.065 0.772,0.101 1,0.5 -3.079,0.973 -6.079,1.806 -9,2.5 0.699,3.041 2.699,4.708 6,5 -0.447,2.473 -1.447,2.64 -3,0.5 -3.991,-0.642 -7.991,-1.142 -12,-1.5 1.4,-0.6 2.4,-1.6 3,-3 1.617,0.538 3.284,0.871 5,1 0.17,-1.322 -0.163,-2.489 -1,-3.5 -2.646,-0.497 -5.313,-0.664 -8,-0.5 0,1 0,2 0,3 -0.333,1 -1,1.667 -2,2 2.244,-4.988 0.911,-6.155 -4,-3.5 -3.924,11.785 -6.091,23.952 -6.5,36.5 -0.796,7.413 -0.63,14.746 0.5,22 -0.157,1.373 0.01,2.707 0.5,4 0.414,-0.457 0.914,-0.791 1.5,-1 1.235,0.84 2.235,1.84 3,3 -0.645,1.312 -1.645,2.312 -3,3 -0.996,5.963 -1.329,11.963 -1,18 -0.667,-5 -1.333,-10 -2,-15 0.165,-3.682 -10e-4,-7.348 -0.5,-11 -1.946,-1.494 -2.779,-3.494 -2.5,-6 0.833,-3.986 0.999,-7.986 0.5,-12 -1.28,6.007 -3.447,11.674 -6.5,17 2.521,1.76 3.354,4.093 2.5,7 -1,1.333 -2,1.333 -3,0 0.198,4.622 -1.968,6.622 -6.5,6 0.137,-7.126 -0.53,-7.459 -2,-1 -2.012,-0.952 -3.012,-2.619 -3,-5 1.348,-6.958 2.514,-13.958 3.5,-21 1.237,-4.973 3.404,-9.473 6.5,-13.5 -1.597,-4.303 -0.097,-7.136 4.5,-8.5 2.845,-4.575 4.178,-9.575 4,-15 4.133,-3.131 7.966,-6.631 11.5,-10.5 3.986,-0.499 7.986,-0.666 12,-0.5 0,-1 0,-2 0,-3 -30.862,-2.417 -42.029,-18.751 -33.5,-49 0.601,-1.637 1.101,-3.303 1.5,-5 -0.948,-6.811 -1.948,-13.644 -3,-20.5 0.291,-2.859 1.958,-4.192 5,-4 -1.713,-3.66 -2.213,-7.493 -1.5,-11.5 0.893,-0.581 1.893,-0.915 3,-1 2.226,0.533 4.393,1.2 6.5,2 0.06,0.543 0.393,0.876 1,1 0.974,-2.243 1.308,-4.576 1,-7 1.446,-1.113 3.113,-1.28 5,-0.5 2.333,1.167 4.667,2.333 7,3.5 0.512,-2.351 1.512,-4.351 3,-6 4.279,1.473 8.279,3.473 12,6 0.568,-1.935 1.735,-3.268 3.5,-4 5.096,1.43 9.429,4.097 13,8 0.612,-2.532 2.112,-3.365 4.5,-2.5 4.19,2.69 7.524,6.19 10,10.5 7.391,-0.108 10.891,3.559 10.5,11 3.746,4.802 5.58,10.302 5.5,16.5 0.617,13.169 -1.883,25.669 -7.5,37.5 -7.449,8.808 -16.949,13.474 -28.5,14 z"
       id="path736" />
  </g>
  <g
     id="g737"
     transform="translate(-644.49988,-522.5)">
    <path
       style="opacity:1"
       fill="#f5eeaa"
       d="m 734.5,554.5 c -0.777,4.584 -1.277,9.25 -1.5,14 -0.278,0.916 -0.778,1.582 -1.5,2 -3.456,-12.3 -11.456,-17.467 -24,-15.5 -4.984,2.37 -10.151,4.204 -15.5,5.5 -3.881,-0.878 -6.548,-3.211 -8,-7 -0.671,-0.752 -1.504,-1.086 -2.5,-1 1.342,-1.293 3.009,-2.126 5,-2.5 0.711,-1.255 1.544,-2.421 2.5,-3.5 0.414,0.457 0.914,0.791 1.5,1 4.01,-2.335 8.01,-4.668 12,-7 0.744,-1.491 1.41,-2.991 2,-4.5 -0.854,-1.785 -0.187,-2.951 2,-3.5 2.312,1.646 4.312,3.646 6,6 -0.002,-2.241 0.332,-4.574 1,-7 4.044,3.043 7.377,6.709 10,11 2.586,0.98 5.253,1.313 8,1 -0.693,4.253 0.307,7.919 3,11 z"
       id="path737" />
  </g>
  <g
     id="g738"
     transform="translate(-644.49988,-522.5)">
    <path
       style="opacity:1"
       fill="#f4eaa2"
       d="m 706.5,532.5 c -2.187,0.549 -2.854,1.715 -2,3.5 -0.59,1.509 -1.256,3.009 -2,4.5 -3.99,2.332 -7.99,4.665 -12,7 -0.586,-0.209 -1.086,-0.543 -1.5,-1 -0.956,1.079 -1.789,2.245 -2.5,3.5 -1.991,0.374 -3.658,1.207 -5,2.5 1.108,2.281 2.442,4.448 4,6.5 -8.414,-0.058 -14.581,-3.891 -18.5,-11.5 -0.18,1.988 -0.014,3.988 0.5,6 -5.147,0.973 -8.647,3.973 -10.5,9 -0.667,1.333 -1.333,1.333 -2,0 -0.944,-2.847 -0.444,-5.347 1.5,-7.5 -0.995,-2.971 -1.995,-5.971 -3,-9 0.333,-0.5 0.667,-1 1,-1.5 1.333,0.667 2.667,1.333 4,2 0.333,-0.5 0.667,-1 1,-1.5 -2.339,-4.203 -3.339,-8.703 -3,-13.5 4.457,0.561 8.457,2.228 12,5 0.212,-3.152 0.212,-6.485 0,-10 5.028,1.025 9.361,3.358 13,7 0.282,-2.487 0.282,-5.153 0,-8 6.518,0.925 11.851,3.925 16,9 0.333,-0.333 0.667,-0.667 1,-1 -1.446,-2.118 -2.113,-4.451 -2,-7 4.098,0.772 7.431,2.772 10,6 z"
       id="path738" />
  </g>
  <g
     id="g740"
     transform="translate(-644.49988,-522.5)">
    <path
       style="opacity:1"
       fill="#f7f8f8"
       d="m 730.5,584.5 c -2.439,17.623 -13.106,28.456 -32,32.5 -5.657,0.499 -11.324,0.666 -17,0.5 -12.988,-0.396 -22.154,-6.396 -27.5,-18 -10e-4,-8.992 0.333,-17.992 1,-27 1.336,-8.707 6.003,-14.707 14,-18 12.223,8.937 25.056,9.77 38.5,2.5 6.745,-1.702 12.578,-0.202 17.5,4.5 4.934,6.869 6.767,14.536 5.5,23 z"
       id="path740" />
  </g>
  <g
     id="g746"
     transform="translate(-644.49988,-522.5)">
    <path
       style="opacity:1"
       fill="#ddcf8c"
       d="m 734.5,554.5 c 1.946,2.234 3.113,4.901 3.5,8 0.823,6.12 0.323,12.12 -1.5,18 -0.828,0.915 -1.828,1.581 -3,2 -0.886,-3.976 -1.552,-7.976 -2,-12 0.722,-0.418 1.222,-1.084 1.5,-2 0.223,-4.75 0.723,-9.416 1.5,-14 z"
       id="path746" />
  </g>
  <g
     id="g748"
     transform="translate(-644.49988,-522.5)">
    <path
       style="opacity:1"
       fill="#080809"
       d="m 711.5,568.5 c 3.52,0.683 6.02,2.683 7.5,6 0.667,4 0.667,8 0,12 -2.005,5.256 -5.839,7.922 -11.5,8 -7.404,-4.172 -9.904,-10.505 -7.5,-19 2.242,-5.096 6.075,-7.429 11.5,-7 z"
       id="path748" />
  </g>
  <g
     id="g749"
     transform="translate(-644.49988,-522.5)">
    <path
       style="opacity:1"
       fill="#0b0c0c"
       d="m 673.5,569.5 c 6.25,3.518 8.416,8.851 6.5,16 -1.99,6.078 -6.157,8.745 -12.5,8 -5.29,-4.373 -7.124,-10.04 -5.5,-17 1.858,-5.515 5.692,-7.848 11.5,-7 z"
       id="path749" />
  </g>
  <g
     id="g750"
     transform="translate(-644.49988,-522.5)">
    <path
       style="opacity:1"
       fill="#d4d5d6"
       d="m 673.5,569.5 c -5.808,-0.848 -9.642,1.485 -11.5,7 -1.624,6.96 0.21,12.627 5.5,17 -4.325,-0.901 -7.158,-3.568 -8.5,-8 -2.137,-7.541 0.03,-13.374 6.5,-17.5 2.919,-0.433 5.586,0.067 8,1.5 z"
       id="path750" />
  </g>
  <g
     id="g758"
     transform="translate(-644.49988,-522.5)">
    <path
       style="opacity:1"
       fill="#d1d1d1"
       d="m 699.5,618.5 c -3.667,0 -7.333,0 -11,0 -2.559,0.302 -4.893,-0.032 -7,-1 5.676,0.166 11.343,-10e-4 17,-0.5 18.894,-4.044 29.561,-14.877 32,-32.5 2.544,0.396 4.711,-0.271 6.5,-2 -1.42,23.25 -13.92,35.25 -37.5,36 z"
       id="path758" />
  </g>
  <g
     id="g760"
     transform="translate(-644.49988,-522.5)">
    <path
       style="opacity:1"
       fill="#121313"
       d="m 685.5,586.5 c 4.138,0.473 6.138,2.807 6,7 -1.984,0.117 -3.65,-0.55 -5,-2 -1,0.667 -2,1.333 -3,2 -0.867,-2.643 -0.2,-4.977 2,-7 z"
       id="path760" />
  </g>
  <g
     id="g761"
     transform="translate(-644.49988,-522.5)">
    <path
       style="opacity:1"
       fill="#d3d2d4"
       d="m 711.5,568.5 c -5.425,-0.429 -9.258,1.904 -11.5,7 -2.404,8.495 0.096,14.828 7.5,19 -2.155,0.128 -4.155,-0.372 -6,-1.5 -5.626,-6.541 -6.46,-13.708 -2.5,-21.5 3.591,-3.877 7.758,-4.877 12.5,-3 z"
       id="path761" />
  </g>
  <g
     id="g763"
     transform="translate(-644.49988,-522.5)">
    <path
       style="opacity:1"
       fill="#191817"
       d="m 675.5,597.5 c 9.645,2.503 19.312,2.503 29,0 -0.886,12.369 -7.553,17.535 -20,15.5 -5.901,-1.734 -9.568,-5.567 -11,-11.5 0.252,-1.573 0.918,-2.906 2,-4 z"
       id="path763" />
  </g>
  <g
     id="g764"
     transform="translate(-644.49988,-522.5)">
    <path
       style="opacity:1"
       fill="#d5d6d7"
       d="m 701.5,598.5 c 0.934,1.068 1.268,2.401 1,4 -4.682,-0.66 -5.015,-1.993 -1,-4 z"
       id="path764" />
  </g>
  <g
     id="g765"
     transform="translate(-644.49988,-522.5)">
    <path
       style="opacity:1"
       fill="#e6e4ea"
       d="m 677.5,599.5 c 1,0 2,0 3,0 -0.746,3.81 -1.746,3.81 -3,0 z"
       id="path765" />
  </g>
  <g
     id="g766"
     transform="translate(-644.49988,-522.5)">
    <path
       style="opacity:1"
       fill="#e0dee4"
       d="m 681.5,600.5 c 1.333,0 2.667,0 4,0 0,1 0,2 0,3 -2.473,0.412 -3.806,-0.588 -4,-3 z"
       id="path766" />
  </g>
  <g
     id="g767"
     transform="translate(-644.49988,-522.5)">
    <path
       style="opacity:1"
       fill="#cccbcd"
       d="m 687.5,600.5 c 1.333,0 2.667,0 4,0 0,1 0,2 0,3 -1.788,0.285 -3.455,-0.048 -5,-1 0.363,-0.683 0.696,-1.35 1,-2 z"
       id="path767" />
  </g>
  <g
     id="g768"
     transform="translate(-644.49988,-522.5)">
    <path
       style="opacity:1"
       fill="#e7e6e8"
       d="m 692.5,600.5 c 1.667,0 3.333,0 5,0 0,1 0,2 0,3 -1.667,0 -3.333,0 -5,0 0,-1 0,-2 0,-3 z"
       id="path768" />
  </g>
  <g
     id="g771"
     transform="translate(-644.49988,-522.5)">
    <path
       style="opacity:1"
       fill="#d25a43"
       d="m 684.5,605.5 c 4.714,-0.327 9.38,0.007 14,1 -2.473,3.665 -5.973,5.332 -10.5,5 -5.574,0.29 -6.741,-1.71 -3.5,-6 z"
       id="path771" />
  </g>
  <g
     id="g792"
     transform="translate(-644.49988,-522.5)">
    <path
       style="opacity:1"
       fill="#525151"
       d="m 688.5,618.5 c 3.667,0 7.333,0 11,0 1.419,0.951 3.085,1.284 5,1 -1.542,0.663 -3.209,1.33 -5,2 3.813,0.667 7.479,1.334 11,2 -3.726,-0.323 -7.393,0.011 -11,1 0.124,0.607 0.457,0.94 1,1 -0.111,0.617 -0.444,1.117 -1,1.5 -3.652,0.499 -7.318,0.665 -11,0.5 2.921,-0.694 5.921,-1.527 9,-2.5 -0.228,-0.399 -0.562,-0.565 -1,-0.5 0,-1 0,-2 0,-3 -2.667,0 -5.333,0 -8,0 3.141,-0.821 6.475,-1.321 10,-1.5 -3.525,-0.179 -6.859,-0.679 -10,-1.5 z"
       id="path792" />
  </g>
  <g
     id="g795"
     transform="translate(-644.49988,-522.5)">
    <path
       style="opacity:1"
       fill="#e4e3e1"
       d="m 688.5,621.5 c 2.667,0 5.333,0 8,0 0,1 0,2 0,3 -2.667,0 -5.333,0 -8,0 0,-1 0,-2 0,-3 z"
       id="path795" />
  </g>
  <g
     id="g797"
     transform="translate(-644.49988,-522.5)">
    <path
       style="opacity:1"
       fill="#e4e4e4"
       d="m 694.5,632.5 c -3.301,-0.292 -5.301,-1.959 -6,-5 3.682,0.165 7.348,-10e-4 11,-0.5 0.556,-0.383 0.889,-0.883 1,-1.5 2.891,-0.903 5.891,-1.236 9,-1 0,1 0,2 0,3 -2.027,-0.162 -4.027,0.005 -6,0.5 -3.315,1.31 -6.315,2.81 -9,4.5 z"
       id="path797" />
  </g>
  <g
     id="g799"
     transform="translate(-644.49988,-522.5)">
    <path
       style="opacity:1"
       fill="#f8f8f8"
       d="m 676.5,630.5 c -2.206,7.958 0.461,13.792 8,17.5 6.255,1.127 12.255,0.46 18,-2 1.167,-1.167 2.333,-2.333 3.5,-3.5 2.066,-4.863 3.732,-9.863 5,-15 1.912,-2.494 3.746,-2.327 5.5,0.5 -0.787,2.099 -1.12,4.266 -1,6.5 -0.983,3.798 -1.317,7.798 -1,12 1.667,13.663 2.334,27.33 2,41 -16.927,5.734 -33.594,5.067 -50,-2 -1.13,-7.254 -1.296,-14.587 -0.5,-22 0.409,-12.548 2.576,-24.715 6.5,-36.5 4.911,-2.655 6.244,-1.488 4,3.5 z"
       id="path799" />
  </g>
  <g
     id="g800"
     transform="translate(-644.49988,-522.5)">
    <path
       style="opacity:1"
       fill="#e6e5e5"
       d="m 682.5,628.5 c -1.333,0 -2.667,0 -4,0 0,-1 0,-2 0,-3 2.687,-0.164 5.354,0.003 8,0.5 0.837,1.011 1.17,2.178 1,3.5 -1.716,-0.129 -3.383,-0.462 -5,-1 z"
       id="path800" />
  </g>
  <g
     id="g803"
     transform="translate(-644.49988,-522.5)">
    <path
       style="opacity:1"
       fill="#f1f1f1"
       d="m 733.5,657.5 c -1.159,0.956 -2.326,1.956 -3.5,3 -0.772,-0.145 -1.439,-0.478 -2,-1 -0.224,-7.785 -3.557,-13.785 -10,-18 -0.483,-0.948 -0.649,-1.948 -0.5,-3 0.6,-1.4 1.6,-2.4 3,-3 1.548,-0.321 2.215,-1.321 2,-3 1.644,-0.214 3.144,0.12 4.5,1 0.718,8.775 4.552,15.775 11.5,21 -1.447,1.435 -3.114,2.435 -5,3 z"
       id="path803" />
  </g>
  <g
     id="g815"
     transform="translate(-644.49988,-522.5)">
    <path
       style="opacity:1"
       fill="#191919"
       d="m 710.5,623.5 c 2.427,0.023 4.76,0.523 7,1.5 2.775,2.461 5.775,4.461 9,6 0.833,0.833 1.667,1.667 2.5,2.5 0.199,7.73 3.532,13.73 10,18 3.827,10.628 5.493,21.628 5,33 1.188,1.063 1.688,2.397 1.5,4 -0.211,1.924 -0.877,2.257 -2,1 1.299,-1.653 0.966,-3.153 -1,-4.5 -2.098,-0.678 -4.098,-0.511 -6,0.5 -1.006,-0.438 -1.006,-1.104 0,-2 0.624,-0.417 0.957,-1.084 1,-2 -2.472,-7.467 -3.472,-15.133 -3,-23 0,-0.667 -0.333,-1 -1,-1 1.886,-0.565 3.553,-1.565 5,-3 -6.948,-5.225 -10.782,-12.225 -11.5,-21 -1.356,-0.88 -2.856,-1.214 -4.5,-1 0.215,1.679 -0.452,2.679 -2,3 0.019,-1.56 0.352,-3.06 1,-4.5 -0.113,-1.28 -0.78,-2.113 -2,-2.5 -0.956,2.978 -1.622,6.312 -2,10 -0.739,0.131 -1.406,-0.036 -2,-0.5 0.671,-0.986 0.671,-2.153 0,-3.5 -0.12,-2.234 0.213,-4.401 1,-6.5 -1.754,-2.827 -3.588,-2.994 -5.5,-0.5 -1.268,5.137 -2.934,10.137 -5,15 -1.167,1.167 -2.333,2.333 -3.5,3.5 -5.745,2.46 -11.745,3.127 -18,2 -7.539,-3.708 -10.206,-9.542 -8,-17.5 1,-0.333 1.667,-1 2,-2 1.333,0 2.667,0 4,0 -0.6,1.4 -1.6,2.4 -3,3 1.356,1.77 3.189,3.103 5.5,4 0.49,1.293 0.657,2.627 0.5,4 -2.424,-0.308 -4.757,0.026 -7,1 1.92,3.398 4.253,3.731 7,1 0.966,1.896 1.299,3.896 1,6 3.339,-0.39 6.673,-0.89 10,-1.5 -4.683,-0.399 -6.183,-2.899 -4.5,-7.5 2.663,-2.079 5.496,-3.745 8.5,-5 -1.896,-0.966 -3.896,-1.299 -6,-1 2.685,-1.69 5.685,-3.19 9,-4.5 1.973,-0.495 3.973,-0.662 6,-0.5 0,-1 0,-2 0,-3 -3.109,-0.236 -6.109,0.097 -9,1 -0.543,-0.06 -0.876,-0.393 -1,-1 3.607,-0.989 7.274,-1.323 11,-1 z"
       id="path815" />
  </g>
  <g
     id="g816"
     transform="translate(-644.49988,-522.5)">
    <path
       style="opacity:1"
       fill="#e7e7e7"
       d="m 694.5,637.5 c 4.055,-0.324 8.055,0.009 12,1 -3.341,4.956 -7.841,6.29 -13.5,4 -0.613,-1.995 -0.113,-3.662 1.5,-5 z"
       id="path816" />
  </g>
  <g
     id="g817"
     transform="translate(-644.49988,-522.5)">
    <path
       style="opacity:1"
       fill="#9b9b9c"
       d="m 720.5,635.5 c -1.4,0.6 -2.4,1.6 -3,3 0.378,-3.688 1.044,-7.022 2,-10 1.22,0.387 1.887,1.22 2,2.5 -0.648,1.44 -0.981,2.94 -1,4.5 z"
       id="path817" />
  </g>
  <g
     id="g818"
     transform="translate(-644.49988,-522.5)">
    <path
       style="opacity:1"
       fill="#edeced"
       d="m 679.5,631.5 c 4.009,0.358 8.009,0.858 12,1.5 1.553,2.14 2.553,1.973 3,-0.5 2.104,-0.299 4.104,0.034 6,1 -3.004,1.255 -5.837,2.921 -8.5,5 -1.683,4.601 -0.183,7.101 4.5,7.5 -3.327,0.61 -6.661,1.11 -10,1.5 0.299,-2.104 -0.034,-4.104 -1,-6 -2.747,2.731 -5.08,2.398 -7,-1 2.243,-0.974 4.576,-1.308 7,-1 0.157,-1.373 -0.01,-2.707 -0.5,-4 -2.311,-0.897 -4.144,-2.23 -5.5,-4 z"
       id="path818" />
  </g>
  <g
     id="g822"
     transform="translate(-644.49988,-522.5)">
    <path
       style="opacity:1"
       fill="#e7e8e9"
       d="m 666.5,632.5 c 0.997,-0.03 1.664,0.47 2,1.5 -2.114,8.738 -3.781,17.572 -5,26.5 -1.805,-2.093 -4.138,-3.26 -7,-3.5 -0.522,-0.561 -0.855,-1.228 -1,-2 2.801,-2.474 5.301,-5.307 7.5,-8.5 1.841,-4.681 3.007,-9.348 3.5,-14 z"
       id="path822" />
  </g>
  <g
     id="g825"
     transform="translate(-644.49988,-522.5)">
    <path
       style="opacity:1"
       fill="#dbdcdc"
       d="m 714.5,646.5 c 1.493,2.959 3.493,5.626 6,8 1.939,9.908 2.939,19.908 3,30 -2.213,1.273 -4.546,2.273 -7,3 0.334,-13.67 -0.333,-27.337 -2,-41 z"
       id="path825" />
  </g>
  <g
     id="g829"
     transform="translate(-644.49988,-522.5)">
    <path
       style="opacity:1"
       fill="#e5e5e5"
       d="m 735.5,658.5 c 1.322,-0.17 2.489,0.163 3.5,1 3.033,7.394 4.033,15.061 3,23 -1.011,0.837 -2.178,1.17 -3.5,1 0.059,-3.19 0.393,-6.357 1,-9.5 -0.833,-5.325 -2.166,-10.492 -4,-15.5 z"
       id="path829" />
  </g>
  <g
     id="g874"
     transform="translate(-644.49988,-522.5)">
    <path
       style="opacity:1"
       fill="#e4e4e4"
       d="m 654.5,659.5 c 0.997,-0.03 1.664,0.47 2,1.5 -3.589,7.054 -5.256,14.387 -5,22 -0.948,0.483 -1.948,0.649 -3,0.5 -0.112,-8.597 1.888,-16.597 6,-24 z"
       id="path874" />
  </g>
  <g
     id="g876"
     transform="translate(-644.49988,-522.5)">
    <path
       style="opacity:1"
       fill="#e6e8e8"
       d="m 734.5,658.5 c -0.472,7.867 0.528,15.533 3,23 -0.043,0.916 -0.376,1.583 -1,2 -1.431,-0.381 -2.264,-1.381 -2.5,-3 -2.053,-6.202 -2.72,-12.535 -2,-19 0.377,-1.442 1.21,-2.442 2.5,-3 z"
       id="path876" />
  </g>
  <g
     id="g879"
     transform="translate(-644.49988,-522.5)">
    <path
       style="opacity:1"
       fill="#dddedf"
       d="m 657.5,659.5 c 2.473,0.236 4.14,1.569 5,4 -1.31,5.381 -2.81,10.714 -4.5,16 -0.972,1.805 -2.139,3.472 -3.5,5 -0.333,-1 -0.667,-2 -1,-3 3.414,-6.887 4.747,-14.221 4,-22 z"
       id="path879" />
  </g>
  <g
     id="g906"
     transform="translate(-644.49988,-522.5)">
    <path
       style="opacity:1"
       fill="#323231"
       d="m 715.5,634.5 c 0.671,1.347 0.671,2.514 0,3.5 0.594,0.464 1.261,0.631 2,0.5 -0.149,1.052 0.017,2.052 0.5,3 6.443,4.215 9.776,10.215 10,18 0.561,0.522 1.228,0.855 2,1 1.174,-1.044 2.341,-2.044 3.5,-3 0.667,0 1,0.333 1,1 -1.29,0.558 -2.123,1.558 -2.5,3 -0.72,6.465 -0.053,12.798 2,19 0.236,1.619 1.069,2.619 2.5,3 -1.006,0.896 -1.006,1.562 0,2 0,2 0,4 0,6 1.333,0 2.667,0 4,0 0.331,6.304 0.831,5.97 1.5,-1 0.383,-0.556 0.883,-0.889 1.5,-1 1.123,1.257 1.789,0.924 2,-1 2.045,8.057 -1.288,11.391 -10,10 0.299,-2.104 -0.034,-4.104 -1,-6 -2.044,1.48 -3.378,0.98 -4,-1.5 0.771,-2.267 2.104,-4.1 4,-5.5 -2.899,-7.386 -4.733,-15.053 -5.5,-23 -2.959,-2.598 -4.293,-5.932 -4,-10 -0.333,-0.667 -0.667,-1.333 -1,-2 -0.494,9.382 0.006,18.716 1.5,28 -0.667,2 -1.333,4 -2,6 -0.061,-10.092 -1.061,-20.092 -3,-30 -2.507,-2.374 -4.507,-5.041 -6,-8 -0.317,-4.202 0.017,-8.202 1,-12 z"
       id="path906" />
  </g>
  <g
     id="g907"
     transform="translate(-644.49988,-522.5)">
    <path
       style="opacity:1"
       fill="#d7d5d5"
       d="m 717.5,645.5 c 1.322,-0.17 2.489,0.163 3.5,1 1.363,5.667 0.363,6.667 -3,3 -0.49,-1.293 -0.657,-2.627 -0.5,-4 z"
       id="path907" />
  </g>
  <g
     id="g913"
     transform="translate(-644.49988,-522.5)">
    <path
       style="opacity:1"
       fill="#e0dfe0"
       d="m 743.5,689.5 c -0.617,0.111 -1.117,0.444 -1.5,1 -0.669,6.97 -1.169,7.304 -1.5,1 -1.333,0 -2.667,0 -4,0 0,-2 0,-4 0,-6 1.902,-1.011 3.902,-1.178 6,-0.5 1.966,1.347 2.299,2.847 1,4.5 z"
       id="path913" />
  </g>
  <g
     id="g916"
     transform="translate(-644.49988,-522.5)">
    <path
       style="opacity:1"
       fill="#dddfdf"
       d="m 647.5,685.5 c 2.333,0 4.667,0 7,0 -0.187,2.064 -0.687,4.064 -1.5,6 -2.072,0.242 -4.239,-0.091 -6.5,-1 0.129,-1.716 0.462,-3.383 1,-5 z"
       id="path916" />
  </g>
  <g
     id="g918"
     transform="translate(-644.49988,-522.5)">
    <path
       style="opacity:1"
       fill="#cccfd0"
       d="m 655.5,687.5 c 1.337,0.815 2.337,1.982 3,3.5 -1.978,-0.033 -2.978,-1.2 -3,-3.5 z"
       id="path918" />
  </g>
  <g
     id="g919"
     transform="translate(-644.49988,-522.5)">
    <path
       style="opacity:1"
       fill="#f1f0f4"
       d="m 733.5,688.5 c 1.213,0.997 1.046,1.997 -0.5,3 -0.47,-1.077 -0.303,-2.077 0.5,-3 z"
       id="path919" />
  </g>
  <g
     id="g921"
     transform="translate(-644.49988,-522.5)">
    <path
       style="opacity:1"
       fill="#818281"
       d="m 645.5,691.5 c 1.086,0.12 1.753,0.787 2,2 -0.333,0.667 -0.667,1.333 -1,2 -0.929,-1.189 -1.262,-2.522 -1,-4 z"
       id="path921" />
  </g>
  <g
     id="g923"
     transform="translate(-644.49988,-522.5)">
    <path
       style="opacity:1"
       fill="#9c9a9c"
       d="m 737.5,692.5 c 1.149,0.291 1.816,1.124 2,2.5 -0.333,0.833 -0.667,1.667 -1,2.5 -0.952,-1.545 -1.285,-3.212 -1,-5 z"
       id="path923" />
  </g>
  <g
     id="g950"
     transform="translate(-644.49988,-522.5)">
    <path
       style="opacity:1"
       fill="#784832"
       d="m 714.5,696.5 c 1.068,0.934 2.401,1.268 4,1 0.761,9.756 2.094,19.423 4,29 -5.001,1.278 -10.001,1.278 -15,0 -3.128,-7.217 -5.961,-14.55 -8.5,-22 -4.85,-1.357 -9.684,-2.524 -14.5,-3.5 1.49,0.745 2.49,1.912 3,3.5 -1.226,7.025 -2.56,14.025 -4,21 -4.687,1.278 -9.354,1.111 -14,-0.5 -1.256,-4.039 -1.923,-8.206 -2,-12.5 -0.329,-6.037 0.004,-12.037 1,-18 1.355,-0.688 2.355,-1.688 3,-3 -0.131,-0.876 0.202,-1.543 1,-2 4.711,2.381 9.711,3.381 15,3 0.37,5.761 1.37,6.094 3,1 1.276,5.182 1.943,5.182 2,0 5.223,-0.176 10.39,-0.843 15.5,-2 2.294,1.456 4.461,3.123 6.5,5 z"
       id="path950" />
  </g>
  <g
     id="g989"
     transform="translate(-644.49988,-522.5)">
    <path
       style="opacity:1"
       fill="#191716"
       d="m 725.5,678.5 c -1.887,15.291 -1.221,30.624 2,46 0.24,3.079 -0.093,6.079 -1,9 1.894,1.445 3.56,3.112 5,5 -1.784,-0.393 -3.45,-1.059 -5,-2 -1.319,-1.397 -2.986,-2.063 -5,-2 -3.299,0.71 -6.633,1.043 -10,1 -0.901,3.741 0.432,5.741 4,6 0,0.667 0.333,1 1,1 0.333,1 1,1.667 2,2 1.966,0.041 3.966,0.375 6,1 -2.641,0.763 -5.308,0.93 -8,0.5 -1.051,-1.385 -2.384,-2.385 -4,-3 -2.028,-4.971 -4.695,-9.471 -8,-13.5 -1.784,-8.026 -3.784,-16.026 -6,-24 -3.025,-0.377 -6.025,-0.544 -9,-0.5 -1.546,3.65 -2.213,7.484 -2,11.5 -0.827,5.151 -1.327,10.484 -1.5,16 -1.205,0.571 -2.372,1.238 -3.5,2 1.267,1.871 1.267,3.704 0,5.5 -5.482,1.955 -11.148,3.455 -17,4.5 -4.732,-0.237 -7.232,-2.57 -7.5,-7 3.535,-1.569 7.035,-3.235 10.5,-5 -0.124,-0.607 -0.457,-0.94 -1,-1 -1.529,-11.228 -2.195,-22.561 -2,-34 0.667,5 1.333,10 2,15 0.077,4.294 0.744,8.461 2,12.5 4.646,1.611 9.313,1.778 14,0.5 1.44,-6.975 2.774,-13.975 4,-21 -0.51,-1.588 -1.51,-2.755 -3,-3.5 4.816,0.976 9.65,2.143 14.5,3.5 2.539,7.45 5.372,14.783 8.5,22 4.999,1.278 9.999,1.278 15,0 1.785,-0.426 2.785,-1.592 3,-3.5 -1.809,-11.451 -3.143,-22.951 -4,-34.5 -3.524,0.381 -6.858,1.381 -10,3 1.228,2.571 3.228,3.905 6,4 -0.16,-1.699 0.006,-3.366 0.5,-5 0.495,1.973 0.662,3.973 0.5,6 -1.333,0 -2.667,0 -4,0 -2.039,-1.877 -4.206,-3.544 -6.5,-5 -5.11,1.157 -10.277,1.824 -15.5,2 -0.057,5.182 -0.724,5.182 -2,0 -1.63,5.094 -2.63,4.761 -3,-1 -5.289,0.381 -10.289,-0.619 -15,-3 -0.798,0.457 -1.131,1.124 -1,2 -0.765,-1.16 -1.765,-2.16 -3,-3 -0.586,0.209 -1.086,0.543 -1.5,1 -0.49,-1.293 -0.657,-2.627 -0.5,-4 16.406,7.067 33.073,7.734 50,2 2.454,-0.727 4.787,-1.727 7,-3 0.667,-2 1.333,-4 2,-6 z"
       id="path989" />
  </g>
  <g
     id="g990"
     transform="translate(-644.49988,-522.5)">
    <path
       style="opacity:1"
       fill="#583220"
       d="m 722.5,726.5 c -1.906,-9.577 -3.239,-19.244 -4,-29 -1.599,0.268 -2.932,-0.066 -4,-1 1.333,0 2.667,0 4,0 0.162,-2.027 -0.005,-4.027 -0.5,-6 -0.494,1.634 -0.66,3.301 -0.5,5 -2.772,-0.095 -4.772,-1.429 -6,-4 3.142,-1.619 6.476,-2.619 10,-3 0.857,11.549 2.191,23.049 4,34.5 -0.215,1.908 -1.215,3.074 -3,3.5 z"
       id="path990" />
  </g>
  <g
     id="g991"
     transform="translate(-644.49988,-522.5)">
    <path
       style="opacity:1"
       fill="#f8f8f9"
       d="m 704.5,729.5 c -5.235,1.95 -10.902,2.617 -17,2 0,-5 0,-10 0,-15 -0.213,-4.016 0.454,-7.85 2,-11.5 2.975,-0.044 5.975,0.123 9,0.5 2.216,7.974 4.216,15.974 6,24 z"
       id="path991" />
  </g>
  <g
     id="g996"
     transform="translate(-644.49988,-522.5)">
    <path
       style="opacity:1"
       fill="#5d3c2d"
       d="m 668.5,726.5 c 5.272,0.9 10.605,1.233 16,1 0,1.333 0,2.667 0,4 -5.011,0.166 -10.011,-10e-4 -15,-0.5 -0.88,-1.356 -1.214,-2.856 -1,-4.5 z"
       id="path996" />
  </g>
  <g
     id="g1001"
     transform="translate(-644.49988,-522.5)">
    <path
       style="opacity:1"
       fill="#dadadb"
       d="m 687.5,716.5 c 0,5 0,10 0,15 6.098,0.617 11.765,-0.05 17,-2 3.305,4.029 5.972,8.529 8,13.5 1.616,0.615 2.949,1.615 4,3 2.692,0.43 5.359,0.263 8,-0.5 2.424,-0.53 4.757,-1.364 7,-2.5 1.301,-1.616 1.301,-3.116 0,-4.5 -1.44,-1.888 -3.106,-3.555 -5,-5 0.907,-2.921 1.24,-5.921 1,-9 0.977,2.787 1.31,5.787 1,9 2.354,0.338 4.687,0.838 7,1.5 1.721,1.527 3.721,2.527 6,3 1.435,2.267 1.102,4.267 -1,6 -7.28,3.406 -14.946,5.74 -23,7 -13.667,0.667 -27.333,0.667 -41,0 -9.339,-0.559 -18.339,-2.559 -27,-6 -1,-1.667 -2,-3.333 -3,-5 1.378,-1.713 3.045,-3.047 5,-4 5.374,-1.84 10.707,-3.34 16,-4.5 0.543,0.06 0.876,0.393 1,1 -3.465,1.765 -6.965,3.431 -10.5,5 0.268,4.43 2.768,6.763 7.5,7 5.852,-1.045 11.518,-2.545 17,-4.5 1.267,-1.796 1.267,-3.629 0,-5.5 1.128,-0.762 2.295,-1.429 3.5,-2 0.173,-5.516 0.673,-10.849 1.5,-16 z"
       id="path1001" />
  </g>
  <g
     id="g1002"
     transform="translate(-644.49988,-522.5)">
    <path
       style="opacity:1"
       fill="#643e2b"
       d="m 722.5,727.5 c 1.333,0 2.667,0 4,0 0,1.333 0,2.667 0,4 -6.272,1.911 -12.606,2.244 -19,1 -0.406,-1.609 -0.406,-2.943 0,-4 5.225,1.441 10.225,1.108 15,-1 z"
       id="path1002" />
  </g>
  <g
     id="g1003"
     transform="translate(-644.49988,-522.5)">
    <path
       style="opacity:1"
       fill="#e7eaec"
       d="m 671.5,734.5 c 1.364,1.691 2.697,3.358 4,5 -1.248,2.19 -2.914,2.523 -5,1 -1.1,-1.058 -2.434,-1.892 -4,-2.5 -0.752,-0.671 -1.086,-1.504 -1,-2.5 1.879,-0.841 3.879,-1.175 6,-1 z"
       id="path1003" />
  </g>
  <g
     id="g1004"
     transform="translate(-644.49988,-522.5)">
    <path
       style="opacity:1"
       fill="#848988"
       d="m 680.5,734.5 c -2.357,-0.163 -4.69,0.003 -7,0.5 1.323,0.816 1.989,1.983 2,3.5 0,0.333 0,0.667 0,1 -1.303,-1.642 -2.636,-3.309 -4,-5 3.104,-1.275 6.104,-1.275 9,0 z"
       id="path1004" />
  </g>
  <g
     id="g1005"
     transform="translate(-644.49988,-522.5)">
    <path
       style="opacity:1"
       fill="#e0e2e3"
       d="m 680.5,734.5 c 1.72,1.251 2.053,2.751 1,4.5 -2.098,0.678 -4.098,0.511 -6,-0.5 -0.011,-1.517 -0.677,-2.684 -2,-3.5 2.31,-0.497 4.643,-0.663 7,-0.5 z"
       id="path1005" />
  </g>
  <g
     id="g1007"
     transform="translate(-644.49988,-522.5)">
    <path
       style="opacity:1"
       fill="#e5e6e8"
       d="m 726.5,736.5 c -0.6,1.4 -1.6,2.4 -3,3 -2.951,-0.213 -5.618,0.454 -8,2 -3.568,-0.259 -4.901,-2.259 -4,-6 3.367,0.043 6.701,-0.29 10,-1 2.014,-0.063 3.681,0.603 5,2 z"
       id="path1007" />
  </g>
  <g
     id="g1012"
     transform="translate(-644.49988,-522.5)">
    <path
       style="opacity:1"
       fill="#5d5e5e"
       d="m 665.5,735.5 c -0.086,0.996 0.248,1.829 1,2.5 1.566,0.608 2.9,1.442 4,2.5 0.172,0.992 -0.162,1.658 -1,2 -0.12,-1.086 -0.787,-1.753 -2,-2 -1.918,0.361 -2.251,1.028 -1,2 -1.312,0.042 -2.646,0.042 -4,0 -0.751,-0.876 -1.251,-1.876 -1.5,-3 -0.654,1.196 -1.154,1.196 -1.5,0 1.647,-1.826 3.647,-3.16 6,-4 z"
       id="path1012" />
  </g>
  <g
     id="g1013"
     transform="translate(-644.49988,-522.5)">
    <path
       style="opacity:1"
       fill="#c7cccb"
       d="m 669.5,742.5 c -1,0 -2,0 -3,0 -1.251,-0.972 -0.918,-1.639 1,-2 1.213,0.247 1.88,0.914 2,2 z"
       id="path1013" />
  </g>
  <g
     id="g1016"
     transform="translate(-644.49988,-522.5)">
    <path
       style="opacity:1"
       fill="#e1e4e2"
       d="m 716.5,742.5 c 1.175,-0.219 2.175,0.114 3,1 -0.124,0.607 -0.457,0.94 -1,1 -1,-0.333 -1.667,-1 -2,-2 z"
       id="path1016" />
  </g>
  <g
     id="g1017"
     transform="translate(-644.49988,-522.5)">
    <path
       style="opacity:1"
       fill="#848585"
       d="m 726.5,736.5 c 1.55,0.941 3.216,1.607 5,2 0.17,1.322 -0.163,2.489 -1,3.5 -2.502,1.432 -5.002,1.598 -7.5,0.5 -0.456,-1.244 0.044,-2.077 1.5,-2.5 -0.228,-0.399 -0.562,-0.565 -1,-0.5 1.4,-0.6 2.4,-1.6 3,-3 z"
       id="path1017" />
  </g>
  <g
     id="g1021"
     transform="translate(-644.49988,-522.5)">
    <path
       style="opacity:1"
       fill="#3b3c3b"
       d="m 731.5,738.5 c 1.301,1.384 1.301,2.884 0,4.5 -2.243,1.136 -4.576,1.97 -7,2.5 -2.034,-0.625 -4.034,-0.959 -6,-1 0.543,-0.06 0.876,-0.393 1,-1 -0.825,-0.886 -1.825,-1.219 -3,-1 -0.667,0 -1,-0.333 -1,-1 2.382,-1.546 5.049,-2.213 8,-2 0.438,-0.065 0.772,0.101 1,0.5 -1.456,0.423 -1.956,1.256 -1.5,2.5 2.498,1.098 4.998,0.932 7.5,-0.5 0.837,-1.011 1.17,-2.178 1,-3.5 z"
       id="path1021" />
  </g>
</svg>
