<?xml version="1.0" encoding="UTF-8" standalone="no"?>
<svg
   version="1.1"
   width="144.98994"
   height="241.8457"
   style="clip-rule:evenodd;fill-rule:evenodd;image-rendering:optimizeQuality;shape-rendering:geometricPrecision;text-rendering:geometricPrecision"
   id="svg1400"
   xmlns="http://www.w3.org/2000/svg"
   xmlns:svg="http://www.w3.org/2000/svg">
  <defs
     id="defs1400" />
  <g
     id="g730"
     transform="translate(-59.5,-512.49976)">
    <path
       style="opacity:1"
       fill="#191716"
       d="m 170.5,600.5 c -1.932,-1.476 -2.265,-3.143 -1,-5 -0.131,0.739 0.036,1.406 0.5,2 3.336,-8.01 4.336,-16.343 3,-25 -1.704,-1.873 -3.537,-3.54 -5.5,-5 -9.567,-5.478 -19.9,-8.645 -31,-9.5 -9.333,-0.667 -18.667,-0.667 -28,0 -6.078,0.802 -11.578,2.968 -16.5,6.5 -1.9751,6.333 -2.8084,12.833 -2.5,19.5 0.0085,4.557 0.6752,8.724 2,12.5 0.2148,1.679 -0.4519,2.679 -2,3 -1.4795,-4.418 -2.4795,-9.085 -3,-14 -15.6763,-6.833 -24.6763,-18.666 -27,-35.5 1.0891,-11.716 7.4225,-16.383 19,-14 5.8734,3.436 11.8734,6.603 18,9.5 3.707,-8.924 7.54,-17.924 11.5,-27 1.833,-1.833 3.667,-3.667 5.5,-5.5 2,-0.667 4,-0.667 6,0 3.183,2.178 6.683,3.344 10.5,3.5 5.855,-1.229 11.688,-2.562 17.5,-4 5.149,-0.008 9.315,1.992 12.5,6 3.386,5.994 5.886,12.327 7.5,19 17.738,-3.711 29.905,2.955 36.5,20 2.072,13.13 -2.428,23.297 -13.5,30.5 -5.505,2.724 -11.172,5.057 -17,7 -0.729,2.058 -1.729,3.891 -3,5.5 z"
       id="path730" />
  </g>
  <g
     id="g731"
     transform="translate(-59.5,-512.49976)">
    <path
       style="opacity:1"
       fill="#885535"
       d="m 114.5,514.5 c 4.868,1.587 9.868,2.92 15,4 4.834,-0.444 9.501,-1.61 14,-3.5 7.301,-1.432 12.801,1.068 16.5,7.5 2.919,5.431 4.086,11.098 3.5,17 -2.468,1.569 -5.134,2.569 -8,3 -17.712,-3.844 -35.379,-3.844 -53,0 -0.333,-0.5 -0.667,-1 -1,-1.5 1.969,-6.242 4.136,-12.409 6.5,-18.5 1.479,-3.328 3.645,-5.994 6.5,-8 z"
       id="path731" />
  </g>
  <g
     id="g732"
     transform="translate(-59.5,-512.49976)">
    <path
       style="opacity:1"
       fill="#4e301e"
       d="m 147.5,519.5 c 0.543,0.06 0.876,0.393 1,1 -2.469,3.174 -2.636,6.507 -0.5,10 2.669,2.664 5.836,4.498 9.5,5.5 -7.131,0.041 -11.464,-3.459 -13,-10.5 0.128,-2.455 1.128,-4.455 3,-6 z"
       id="path732" />
  </g>
  <g
     id="g733"
     transform="translate(-59.5,-512.49976)">
    <path
       style="opacity:1"
       fill="#8b5637"
       d="m 68.5,537.5 c 3.0184,-0.165 6.0184,0.002 9,0.5 21.3716,13.472 44.372,17.139 69,11 8.716,-2.859 17.049,-6.526 25,-11 14.701,-0.726 24.868,5.774 30.5,19.5 1.215,18.971 -7.618,30.305 -26.5,34 0.428,-5.676 0.595,-11.343 0.5,-17 -3.947,-6.27 -9.447,-10.77 -16.5,-13.5 -16.647,-5.014 -33.647,-6.68 -51,-5 -6.022,1.007 -11.6891,3.007 -17,6 -3.278,6.695 -4.778,13.861 -4.5,21.5 -12.2367,-5.901 -20.5701,-15.234 -25,-28 -1.9966,-7.646 0.17,-13.646 6.5,-18 z"
       id="path733" />
  </g>
  <g
     id="g734"
     transform="translate(-59.5,-512.49976)">
    <path
       style="opacity:1"
       fill="#895f46"
       d="m 113.5,541.5 c 9.339,-0.166 18.673,0 28,0.5 4.073,0.512 8.073,1.345 12,2.5 -5.451,2.28 -11.118,3.78 -17,4.5 -8.667,0.667 -17.333,0.667 -26,0 -3.805,-0.534 -7.471,-1.534 -11,-3 4.559,-2.029 9.225,-3.529 14,-4.5 z"
       id="path734" />
  </g>
  <g
     id="g741"
     transform="translate(-59.5,-512.49976)">
    <path
       style="opacity:1"
       fill="#f4f4f5"
       d="m 167.5,567.5 c 0.553,6.292 -0.114,12.292 -2,18 -2.404,2.933 -4.237,6.266 -5.5,10 -2.536,3.546 -5.87,5.88 -10,7 -2.806,-3.134 -5.972,-5.967 -9.5,-8.5 -5.259,-3.062 -10.593,-3.229 -16,-0.5 -3.965,-1.03 -7.965,-1.197 -12,-0.5 -3.549,3.057 -7.216,5.891 -11,8.5 -3.1091,-1.274 -5.4424,-3.44 -7,-6.5 -1.4976,-0.585 -2.4976,-0.085 -3,1.5 -1.3248,-3.776 -1.9915,-7.943 -2,-12.5 -0.3084,-6.667 0.5249,-13.167 2.5,-19.5 4.922,-3.532 10.422,-5.698 16.5,-6.5 9.333,-0.667 18.667,-0.667 28,0 11.1,0.855 21.433,4.022 31,9.5 z"
       id="path741" />
  </g>
  <g
     id="g743"
     transform="translate(-59.5,-512.49976)">
    <path
       style="opacity:1"
       fill="#0b0b0b"
       d="m 109.5,565.5 c 5.947,3.237 8.113,8.237 6.5,15 -1.277,8.14 -5.777,11.14 -13.5,9 -2.196,-1.354 -3.6959,-3.354 -4.5,-6 -1.4507,-6.139 -0.2841,-11.639 3.5,-16.5 2.514,-1.252 5.18,-1.752 8,-1.5 z"
       id="path743" />
  </g>
  <g
     id="g744"
     transform="translate(-59.5,-512.49976)">
    <path
       style="opacity:1"
       fill="#070707"
       d="m 142.5,564.5 c 6.239,-0.964 10.739,1.369 13.5,7 0.791,4.426 0.457,8.759 -1,13 -3.392,5.967 -8.226,7.467 -14.5,4.5 -4.521,-4.623 -6.021,-10.123 -4.5,-16.5 1.305,-3.461 3.471,-6.128 6.5,-8 z"
       id="path744" />
  </g>
  <g
     id="g751"
     transform="translate(-59.5,-512.49976)">
    <path
       style="opacity:1"
       fill="#d2d1d1"
       d="m 109.5,565.5 c -2.82,-0.252 -5.486,0.248 -8,1.5 -3.7841,4.861 -4.9507,10.361 -3.5,16.5 0.8041,2.646 2.304,4.646 4.5,6 -3.9078,-0.739 -6.4078,-3.072 -7.5,-7 -0.7262,-4.739 -0.3929,-9.405 1,-14 3.9825,-3.802 8.482,-4.802 13.5,-3 z"
       id="path751" />
  </g>
  <g
     id="g753"
     transform="translate(-59.5,-512.49976)">
    <path
       style="opacity:1"
       fill="#d6d5d3"
       d="m 167.5,567.5 c 1.963,1.46 3.796,3.127 5.5,5 1.336,8.657 0.336,16.99 -3,25 -0.464,-0.594 -0.631,-1.261 -0.5,-2 1.069,-2.908 1.236,-5.908 0.5,-9 -1.356,-0.88 -2.856,-1.214 -4.5,-1 1.886,-5.708 2.553,-11.708 2,-18 z"
       id="path753" />
  </g>
  <g
     id="g756"
     transform="translate(-59.5,-512.49976)">
    <path
       style="opacity:1"
       fill="#181817"
       d="m 121.5,582.5 c 4.226,0.451 6.059,2.784 5.5,7 -2.614,-0.954 -5.447,-0.954 -8.5,0 0.188,-2.706 1.188,-5.039 3,-7 z"
       id="path756" />
  </g>
  <g
     id="g759"
     transform="translate(-59.5,-512.49976)">
    <path
       style="opacity:1"
       fill="#060606"
       d="m 165.5,585.5 c 1.644,-0.214 3.144,0.12 4.5,1 0.736,3.092 0.569,6.092 -0.5,9 -1.265,1.857 -0.932,3.524 1,5 0.165,3.35 -0.002,6.683 -0.5,10 -2.574,3.601 -4.241,7.601 -5,12 -1.916,1.709 -4.082,3.043 -6.5,4 -0.886,0.825 -1.219,1.825 -1,3 -1.149,0.291 -1.816,1.124 -2,2.5 0.592,1.478 0.592,2.644 0,3.5 -2.096,2.691 -2.43,5.691 -1,9 4.87,0.881 8.203,3.548 10,8 0,0.667 -0.333,1 -1,1 -1,-1.333 -2,-2.667 -3,-4 -0.06,-0.543 -0.393,-0.876 -1,-1 -0.672,1.449 -1.339,2.782 -2,4 -0.87,-5.1 -3.536,-6.933 -8,-5.5 3.825,2.232 3.825,4.232 0,6 -5.037,0.663 -10.037,0.496 -15,-0.5 -0.214,-1.644 0.12,-3.144 1,-4.5 2.208,-0.191 4.208,-0.691 6,-1.5 3.167,0.1 6.167,-0.567 9,-2 1.021,-4.026 2.021,-8.026 3,-12 -1,0 -2,0 -3,0 0.359,2.266 -0.308,4.099 -2,5.5 -7.258,0.716 -14.258,2.216 -21,4.5 -1.419,-0.951 -3.085,-1.284 -5,-1 0,1 0,2 0,3 -0.359,1.871 -1.359,3.371 -3,4.5 3.556,2.918 3.89,6.085 1,9.5 -1.733,0.508 -2.066,1.341 -1,2.5 -2.947,0.112 -4.28,1.612 -4,4.5 -3.005,1.799 -6.338,2.466 -10,2 -0.38,-2.198 0.287,-3.865 2,-5 1.861,-1.342 3.861,-2.342 6,-3 5.101,-0.185 7.434,-2.852 7,-8 -2.706,0.075 -5.373,0.408 -8,1 -5.898,-0.134 -6.565,-2.134 -2,-6 3.715,0.077 7.381,-0.256 11,-1 0.048,-2.792 -1.285,-4.625 -4,-5.5 -6.152,1.101 -10.152,-1.232 -12,-7 -0.948,-0.483 -1.948,-0.649 -3,-0.5 -0.592,2.627 -0.925,5.294 -1,8 -0.333,0 -0.667,0 -1,0 0.052,-3.698 0.386,-7.365 1,-11 -1,-1 -2,-2 -3,-3 -1.5174,-0.011 -2.6841,-0.677 -3.5,-2 -0.6258,-4.485 -2.2925,-8.485 -5,-12 -0.1752,-4.442 -0.3419,-8.776 -0.5,-13 1.5481,-0.321 2.2148,-1.321 2,-3 0.5024,-1.585 1.5024,-2.085 3,-1.5 1.5576,3.06 3.8909,5.226 7,6.5 3.784,-2.609 7.451,-5.443 11,-8.5 4.035,-0.697 8.035,-0.53 12,0.5 5.407,-2.729 10.741,-2.562 16,0.5 3.528,2.533 6.694,5.366 9.5,8.5 4.13,-1.12 7.464,-3.454 10,-7 1.263,-3.734 3.096,-7.067 5.5,-10 z"
       id="path759" />
  </g>
  <g
     id="g769"
     transform="translate(-59.5,-512.49976)">
    <path
       style="opacity:1"
       fill="#9c9997"
       d="m 123.5,601.5 c 1.846,-0.278 3.18,0.389 4,2 -2.265,1.147 -4.598,1.314 -7,0.5 1.071,-0.852 2.071,-1.685 3,-2.5 z"
       id="path769" />
  </g>
  <g
     id="g772"
     transform="translate(-59.5,-512.49976)">
    <path
       style="opacity:1"
       fill="#ed776d"
       d="m 124.5,605.5 c 3.884,-0.476 7.217,0.524 10,3 -1.165,1.084 -2.498,1.917 -4,2.5 -3.317,0.498 -6.65,0.665 -10,0.5 0.157,-2.818 1.491,-4.818 4,-6 z"
       id="path772" />
  </g>
  <g
     id="g801"
     transform="translate(-59.5,-512.49976)">
    <path
       style="opacity:1"
       fill="#efeded"
       d="m 110.5,646.5 c -3.445,-1.23 -6.445,-3.23 -9,-6 0.075,-2.706 0.408,-5.373 1,-8 1.052,-0.149 2.052,0.017 3,0.5 1.848,5.768 5.848,8.101 12,7 2.715,0.875 4.048,2.708 4,5.5 -3.619,0.744 -7.285,1.077 -11,1 z"
       id="path801" />
  </g>
  <g
     id="g802"
     transform="translate(-59.5,-512.49976)">
    <path
       style="opacity:1"
       fill="#efeeef"
       d="m 141.5,646.5 c -4.014,0.166 -8.014,-10e-4 -12,-0.5 -1.323,-0.816 -1.989,-1.983 -2,-3.5 6.742,-2.284 13.742,-3.784 21,-4.5 1.692,-1.401 2.359,-3.234 2,-5.5 1,0 2,0 3,0 -0.979,3.974 -1.979,7.974 -3,12 -2.833,1.433 -5.833,2.1 -9,2 z"
       id="path802" />
  </g>
  <g
     id="g819"
     transform="translate(-59.5,-512.49976)">
    <path
       style="opacity:1"
       fill="#eeeded"
       d="m 101.5,629.5 c -0.614,3.635 -0.948,7.302 -1,11 -2.6789,2.101 -5.5123,4.101 -8.5,6 -0.2163,1.884 -0.883,3.551 -2,5 -2.0104,-1.348 -4.0104,-2.682 -6,-4 -1.4397,0.648 -2.9397,0.981 -4.5,1 -0.0792,-1.43 0.2542,-2.764 1,-4 8.6716,-1.238 14.505,-5.904 17.5,-14 1.0113,-0.837 2.178,-1.17 3.5,-1 z"
       id="path819" />
  </g>
  <g
     id="g820"
     transform="translate(-59.5,-512.49976)">
    <path
       style="opacity:1"
       fill="#f2f1f0"
       d="m 167.5,657.5 c -0.25,-2.174 -1.25,-3.841 -3,-5 -1.797,-4.452 -5.13,-7.119 -10,-8 -1.43,-3.309 -1.096,-6.309 1,-9 1.676,1.21 3.01,0.71 4,-1.5 1,-0.667 2,-0.667 3,0 1.267,4.358 3.101,8.524 5.5,12.5 2.43,2.714 5.43,4.381 9,5 0.667,1.667 0.667,3.333 0,5 -3.618,-2.964 -6.451,-2.298 -8.5,2 -0.607,-0.124 -0.94,-0.457 -1,-1 z"
       id="path820" />
  </g>
  <g
     id="g823"
     transform="translate(-59.5,-512.49976)">
    <path
       style="opacity:1"
       fill="#efefef"
       d="m 160.5,649.5 c 1,1.333 2,2.667 3,4 3.426,5.756 2.26,10.423 -3.5,14 0.086,-3.547 -1.08,-6.547 -3.5,-9 2.26,-2.669 3.594,-5.669 4,-9 z"
       id="path823" />
  </g>
  <g
     id="g824"
     transform="translate(-59.5,-512.49976)">
    <path
       style="opacity:1"
       fill="#edecec"
       d="m 157.5,652.5 c -1.033,4.367 -3.7,7.033 -8,8 -4.667,0 -9.333,0 -14,0 -2.524,-1.24 -5.191,-2.407 -8,-3.5 -1.333,-1.667 -1.333,-3.333 0,-5 2.385,-0.556 4.718,-0.39 7,0.5 4.963,0.996 9.963,1.163 15,0.5 3.825,-1.768 3.825,-3.768 0,-6 4.464,-1.433 7.13,0.4 8,5.5 z"
       id="path824" />
  </g>
  <g
     id="g826"
     transform="translate(-59.5,-512.49976)">
    <path
       style="opacity:1"
       fill="#1e1e1d"
       d="m 157.5,629.5 c -1.126,1.358 -1.126,2.692 0,4 2.268,-1.044 4.601,-1.211 7,-0.5 1.429,3.389 2.596,6.889 3.5,10.5 3.125,3.51 6.792,6.176 11,8 0.407,3.182 0.907,6.349 1.5,9.5 -0.687,3.173 -2.021,6.006 -4,8.5 -0.667,0 -1.333,0 -2,0 0.94,-2.112 2.106,-4.112 3.5,-6 0.667,-1.333 0.667,-2.667 0,-4 -4.067,6.902 -9.567,12.235 -16.5,16 2.027,-6.197 6.027,-10.697 12,-13.5 2.336,-2.048 2.336,-3.882 0,-5.5 -2.019,1.69 -4.019,3.356 -6,5 -1.333,-1.333 -1.333,-2.667 0,-4 0.06,0.543 0.393,0.876 1,1 2.049,-4.298 4.882,-4.964 8.5,-2 0.667,-1.667 0.667,-3.333 0,-5 -3.57,-0.619 -6.57,-2.286 -9,-5 -2.399,-3.976 -4.233,-8.142 -5.5,-12.5 -1,-0.667 -2,-0.667 -3,0 -0.99,2.21 -2.324,2.71 -4,1.5 0.592,-0.856 0.592,-2.022 0,-3.5 0.184,-1.376 0.851,-2.209 2,-2.5 z"
       id="path826" />
  </g>
  <g
     id="g827"
     transform="translate(-59.5,-512.49976)">
    <path
       style="opacity:1"
       fill="#e2e2e3"
       d="m 174.5,669.5 c -2.835,2.665 -5.835,5.165 -9,7.5 -1.963,0.844 -3.296,0.344 -4,-1.5 6.933,-3.765 12.433,-9.098 16.5,-16 0.667,1.333 0.667,2.667 0,4 -1.394,1.888 -2.56,3.888 -3.5,6 z"
       id="path827" />
  </g>
  <g
     id="g828"
     transform="translate(-59.5,-512.49976)">
    <path
       style="opacity:1"
       fill="#eaeaeb"
       d="m 161.5,675.5 c -2.576,-0.222 -3.41,-1.555 -2.5,-4 2.669,-3.5 5.502,-6.833 8.5,-10 1.981,-1.644 3.981,-3.31 6,-5 2.336,1.618 2.336,3.452 0,5.5 -5.973,2.803 -9.973,7.303 -12,13.5 z"
       id="path828" />
  </g>
  <g
     id="g878"
     transform="translate(-59.5,-512.49976)">
    <path
       style="opacity:1"
       fill="#e2e1e0"
       d="m 101.5,673.5 c 0.065,0.438 -0.101,0.772 -0.5,1 -1.1127,-0.805 -2.2794,-1.472 -3.5,-2 1.3493,-3.721 2.683,-3.388 4,1 z"
       id="path878" />
  </g>
  <g
     id="g881"
     transform="translate(-59.5,-512.49976)">
    <path
       style="opacity:1"
       fill="#262624"
       d="m 98.5,626.5 c 1,1 2,2 3,3 -1.322,-0.17 -2.4887,0.163 -3.5,1 -2.995,8.096 -8.8284,12.762 -17.5,14 -0.7458,1.236 -1.0792,2.57 -1,4 1.5603,-0.019 3.0603,-0.352 4.5,-1 1.9896,1.318 3.9896,2.652 6,4 1.117,-1.449 1.7837,-3.116 2,-5 2.9877,-1.899 5.8211,-3.899 8.5,-6 0.333,0 0.667,0 1,0 2.555,2.77 5.555,4.77 9,6 -4.565,3.866 -3.898,5.866 2,6 -1.788,1.122 -3.788,1.289 -6,0.5 -1.272,-2.044 -0.939,-3.878 1,-5.5 -3.872,-0.644 -5.872,1.189 -6,5.5 -0.333,2.667 0.667,4.667 3,6 2.982,0.498 5.982,0.665 9,0.5 -2.139,0.658 -4.139,1.658 -6,3 -3.94,-1.594 -5.94,-0.094 -6,4.5 -0.362,5.128 1.972,7.295 7,6.5 7.811,0.176 12.144,-3.491 13,-11 -2.447,0.115 -4.447,1.115 -6,3 -0.28,-2.888 1.053,-4.388 4,-4.5 -1.066,-1.159 -0.733,-1.992 1,-2.5 0.531,2.044 1.698,3.711 3.5,5 1.062,-1.399 2.395,-2.399 4,-3 1.582,1.529 3.415,2.029 5.5,1.5 -1.721,-1.527 -3.721,-2.527 -6,-3 -2.229,-2.553 -2.562,-5.386 -1,-8.5 2.426,-0.668 4.759,-1.002 7,-1 -1.869,-1.124 -3.869,-1.957 -6,-2.5 -0.876,-1.586 -1.876,-3.086 -3,-4.5 -0.682,0.743 -1.349,1.409 -2,2 0,-1 0,-2 0,-3 1.915,-0.284 3.581,0.049 5,1 0.011,1.517 0.677,2.684 2,3.5 3.986,0.499 7.986,0.666 12,0.5 -1.792,0.809 -3.792,1.309 -6,1.5 -0.88,1.356 -1.214,2.856 -1,4.5 -2.282,-0.89 -4.615,-1.056 -7,-0.5 -1.333,1.667 -1.333,3.333 0,5 2.809,1.093 5.476,2.26 8,3.5 -0.904,0.709 -1.237,1.709 -1,3 1.915,-0.284 3.581,0.049 5,1 -1.052,-0.149 -2.052,0.017 -3,0.5 2.111,0.845 4.111,1.678 6,2.5 0,0.333 0,0.667 0,1 -5.531,-1.616 -10.864,-3.449 -16,-5.5 -1.017,1.049 -1.184,2.216 -0.5,3.5 6.579,7.302 14.745,9.802 24.5,7.5 2.522,-0.957 4.689,-2.457 6.5,-4.5 0.667,-2.667 0.667,-5.333 0,-8 -1.915,-1.416 -3.415,-1.082 -4.5,1 -0.722,-1.051 -1.722,-1.718 -3,-2 4.3,-0.967 6.967,-3.633 8,-8 0.661,-1.218 1.328,-2.551 2,-4 0.607,0.124 0.94,0.457 1,1 -0.406,3.331 -1.74,6.331 -4,9 2.42,2.453 3.586,5.453 3.5,9 5.76,-3.577 6.926,-8.244 3.5,-14 0.667,0 1,-0.333 1,-1 1.75,1.159 2.75,2.826 3,5 -1.333,1.333 -1.333,2.667 0,4 -2.998,3.167 -5.831,6.5 -8.5,10 -0.91,2.445 -0.076,3.778 2.5,4 0.704,1.844 2.037,2.344 4,1.5 3.165,-2.335 6.165,-4.835 9,-7.5 0.667,0 1.333,0 2,0 -3.764,4.698 -8.097,8.698 -13,12 -2.05,2.558 -4.383,5.058 -7,7.5 2.681,-1.113 5.347,-2.613 8,-4.5 0.683,0.363 1.35,0.696 2,1 -1.556,6.55 -5.556,8.716 -12,6.5 -2.431,1.432 -2.431,2.932 0,4.5 -0.667,0 -1,0.333 -1,1 -1.279,-1.468 -2.946,-2.135 -5,-2 -0.443,3.124 -2.11,5.457 -5,7 3.083,3.989 3.749,8.322 2,13 -0.667,0 -1,0.333 -1,1 -0.573,-3.159 -0.74,-6.492 -0.5,-10 -1.38,-3.383 -3.88,-5.216 -7.5,-5.5 -1.185,-1.353 -2.519,-2.52 -4,-3.5 -2.64,0.835 -5.307,1.002 -8,0.5 -1.888,2.19 -4.055,4.023 -6.5,5.5 -0.167,0.833 -0.333,1.667 -0.5,2.5 2.057,5.521 2.057,11.188 0,17 0.651,3.788 1.984,7.288 4,10.5 1.718,2.426 2.218,5.093 1.5,8 -4.113,1.651 -8.279,2.984 -12.5,4 0.667,-0.667 1.333,-1.333 2,-2 2.554,-1.106 5.221,-1.939 8,-2.5 1.247,-1.494 1.247,-2.994 0,-4.5 -3.949,0.519 -7.949,0.686 -12,0.5 -1.815,0.757 -3.481,1.59 -5,2.5 -0.992,0.172 -1.658,-0.162 -2,-1 3.487,-0.908 6.487,-2.574 9,-5 -1.972,-6.986 -3.972,-13.986 -6,-21 2.099,-4.315 2.433,-8.815 1,-13.5 0.529,-1.559 1.196,-3.059 2,-4.5 -4.208,-2.838 -6.041,-6.838 -5.5,-12 -2.5515,1.52 -4.7182,1.187 -6.5,-1 1.8307,0.552 3.4974,0.552 5,0 -0.8505,-3.112 -2.0172,-3.446 -3.5,-1 -0.7726,-1.852 -0.2726,-3.186 1.5,-4 1.3267,1.3 2.66,2.633 4,4 1.342,-1.842 3.009,-3.342 5,-4.5 -1.654,-0.608 -3.321,-1.108 -5,-1.5 0,-0.667 -0.333,-1 -1,-1 -1.317,-4.388 -2.6507,-4.721 -4,-1 -0.3417,0.838 -1.0084,1.172 -2,1 -8.6759,-4.508 -14.6759,-11.341 -18,-20.5 0.5072,-3.213 1.1739,-6.38 2,-9.5 4.8119,-1.137 9.1452,-3.304 13,-6.5 2.4676,-3.24 4.4676,-6.74 6,-10.5 z"
       id="path881" />
  </g>
  <g
     id="g882"
     transform="translate(-59.5,-512.49976)">
    <path
       style="opacity:1"
       fill="#888685"
       d="m 128.5,674.5 c -1,0 -2,0 -3,0 0,1 0,2 0,3 -1.412,-1.73 -1.078,-3.23 1,-4.5 -1.658,-0.725 -2.158,-1.892 -1.5,-3.5 2.172,1.009 3.338,2.676 3.5,5 z"
       id="path882" />
  </g>
  <g
     id="g883"
     transform="translate(-59.5,-512.49976)">
    <path
       style="opacity:1"
       fill="#e5e4e4"
       d="m 121.5,669.5 c 4.233,9.909 2.233,11.742 -6,5.5 2.496,-1.331 4.496,-3.164 6,-5.5 z"
       id="path883" />
  </g>
  <g
     id="g884"
     transform="translate(-59.5,-512.49976)">
    <path
       style="opacity:1"
       fill="#eeeded"
       d="m 107.5,662.5 c -1.713,1.135 -2.38,2.802 -2,5 3.662,0.466 6.995,-0.201 10,-2 1.553,-1.885 3.553,-2.885 6,-3 -0.856,7.509 -5.189,11.176 -13,11 -5.028,0.795 -7.362,-1.372 -7,-6.5 0.06,-4.594 2.06,-6.094 6,-4.5 z"
       id="path884" />
  </g>
  <g
     id="g885"
     transform="translate(-59.5,-512.49976)">
    <path
       style="opacity:1"
       fill="#eeeeee"
       d="m 142.5,668.5 c 2.687,0.164 5.354,-0.003 8,-0.5 1.655,-1.444 2.322,-3.278 2,-5.5 1.085,-2.082 2.585,-2.416 4.5,-1 0.667,2.667 0.667,5.333 0,8 -1.811,2.043 -3.978,3.543 -6.5,4.5 -9.755,2.302 -17.921,-0.198 -24.5,-7.5 -0.684,-1.284 -0.517,-2.451 0.5,-3.5 5.136,2.051 10.469,3.884 16,5.5 z"
       id="path885" />
  </g>
  <g
     id="g886"
     transform="translate(-59.5,-512.49976)">
    <path
       style="opacity:1"
       fill="#bebabd"
       d="m 139.5,664.5 c 2.093,0.545 4.093,1.378 6,2.5 -0.948,0.483 -1.948,0.649 -3,0.5 -1.889,-0.822 -3.889,-1.655 -6,-2.5 0.948,-0.483 1.948,-0.649 3,-0.5 z"
       id="path886" />
  </g>
  <g
     id="g887"
     transform="translate(-59.5,-512.49976)">
    <path
       style="opacity:1"
       fill="#0e0e0d"
       d="m 135.5,660.5 c 4.667,0 9.333,0 14,0 1.278,0.282 2.278,0.949 3,2 0.322,2.222 -0.345,4.056 -2,5.5 -2.646,0.497 -5.313,0.664 -8,0.5 0,-0.333 0,-0.667 0,-1 1.052,0.149 2.052,-0.017 3,-0.5 -1.907,-1.122 -3.907,-1.955 -6,-2.5 -1.419,-0.951 -3.085,-1.284 -5,-1 -0.237,-1.291 0.096,-2.291 1,-3 z"
       id="path887" />
  </g>
  <g
     id="g888"
     transform="translate(-59.5,-512.49976)">
    <path
       style="opacity:1"
       fill="#eeedec"
       d="m 100.5,643.5 c 1.086,0.12 1.753,0.787 2,2 -1.547,2.433 -2.5465,5.099 -3,8 0.0559,2.611 1.056,4.778 3,6.5 -0.525,0.692 -1.192,1.192 -2,1.5 -10.6618,-6.455 -10.6618,-12.455 0,-18 z"
       id="path888" />
  </g>
  <g
     id="g889"
     transform="translate(-59.5,-512.49976)">
    <path
       style="opacity:1"
       fill="#edebec"
       d="m 120.5,658.5 c 2.89,-3.415 2.556,-6.582 -1,-9.5 1.641,-1.129 2.641,-2.629 3,-4.5 0.651,-0.591 1.318,-1.257 2,-2 1.124,1.414 2.124,2.914 3,4.5 2.131,0.543 4.131,1.376 6,2.5 -2.241,-0.002 -4.574,0.332 -7,1 -1.562,3.114 -1.229,5.947 1,8.5 2.279,0.473 4.279,1.473 6,3 -2.085,0.529 -3.918,0.029 -5.5,-1.5 -1.605,0.601 -2.938,1.601 -4,3 -1.802,-1.289 -2.969,-2.956 -3.5,-5 z"
       id="path889" />
  </g>
  <g
     id="g890"
     transform="translate(-59.5,-512.49976)">
    <path
       style="opacity:1"
       fill="#eeebea"
       d="m 112.5,652.5 c 2.627,-0.592 5.294,-0.925 8,-1 0.434,5.148 -1.899,7.815 -7,8 -3.018,0.165 -6.018,-0.002 -9,-0.5 -2.333,-1.333 -3.333,-3.333 -3,-6 0.128,-4.311 2.128,-6.144 6,-5.5 -1.939,1.622 -2.272,3.456 -1,5.5 2.212,0.789 4.212,0.622 6,-0.5 z"
       id="path890" />
  </g>
  <g
     id="g891"
     transform="translate(-59.5,-512.49976)">
    <path
       style="opacity:1"
       fill="#e3e2e2"
       d="m 81.5,649.5 c 1.3734,-0.157 2.7068,0.01 4,0.5 5.1667,3.833 9.6667,8.333 13.5,13.5 0.7805,1.444 0.6139,2.777 -0.5,4 -1.146,0.645 -2.146,1.478 -3,2.5 -3.0421,-0.327 -5.7088,-1.66 -8,-4 -2.888,-3.222 -5.388,-6.722 -7.5,-10.5 -0.6667,-1 -0.6667,-2 0,-3 3.286,3.741 6.4527,7.575 9.5,11.5 1.8703,1.366 3.8703,2.533 6,3.5 0.3333,-0.333 0.6667,-0.667 1,-1 -3.6904,-5.857 -8.5237,-10.524 -14.5,-14 -0.4828,-0.948 -0.6495,-1.948 -0.5,-3 z"
       id="path891" />
  </g>
  <g
     id="g892"
     transform="translate(-59.5,-512.49976)">
    <path
       style="opacity:1"
       fill="#656465"
       d="m 97.5,672.5 c 1.2206,0.528 2.3873,1.195 3.5,2 0.399,-0.228 0.565,-0.562 0.5,-1 0.667,0 1,0.333 1,1 0.238,3.599 -0.762,3.933 -3,1 -0.6067,0.124 -0.94,0.457 -1,1 -1.7726,0.814 -2.2726,2.148 -1.5,4 1.4828,-2.446 2.6495,-2.112 3.5,1 -1.5026,0.552 -3.1693,0.552 -5,0 -4.2184,-2.848 -3.8851,-5.015 1,-6.5 -0.556,-0.383 -0.8893,-0.883 -1,-1.5 0.9916,0.172 1.6583,-0.162 2,-1 z"
       id="path892" />
  </g>
  <g
     id="g895"
     transform="translate(-59.5,-512.49976)">
    <path
       style="opacity:1"
       fill="#f2f1f1"
       d="m 128.5,674.5 c 2.165,-0.384 3.832,0.283 5,2 -2.586,0.98 -5.253,1.313 -8,1 0,-1 0,-2 0,-3 1,0 2,0 3,0 z"
       id="path895" />
  </g>
  <g
     id="g896"
     transform="translate(-59.5,-512.49976)">
    <path
       style="opacity:1"
       fill="#d1d1d0"
       d="m 135.5,675.5 c 3.174,0.452 3.507,1.452 1,3 -0.886,-0.825 -1.219,-1.825 -1,-3 z"
       id="path896" />
  </g>
  <g
     id="g898"
     transform="translate(-59.5,-512.49976)">
    <path
       style="opacity:1"
       fill="#a2a09e"
       d="m 102.5,674.5 c 1.679,0.392 3.346,0.892 5,1.5 -1.991,1.158 -3.658,2.658 -5,4.5 -1.34,-1.367 -2.6733,-2.7 -4,-4 0.06,-0.543 0.3933,-0.876 1,-1 2.238,2.933 3.238,2.599 3,-1 z"
       id="path898" />
  </g>
  <g
     id="g899"
     transform="translate(-59.5,-512.49976)">
    <path
       style="opacity:1"
       fill="#f1f0f0"
       d="m 108.5,677.5 c 6.201,-1.268 11.201,0.566 15,5.5 3.539,1.504 7.205,1.837 11,1 5.828,-7.498 12.328,-8.331 19.5,-2.5 1.202,5.427 -0.631,9.26 -5.5,11.5 -1.333,2 -2.667,4 -4,6 -4.079,1.151 -7.412,0.151 -10,-3 -5.965,-1.692 -10.965,-0.359 -15,4 -1.667,0.667 -3.333,0.667 -5,0 -2.53,-4.351 -5.697,-8.184 -9.5,-11.5 -1.338,-4.54 -0.171,-8.207 3.5,-11 z"
       id="path899" />
  </g>
  <g
     id="g901"
     transform="translate(-59.5,-512.49976)">
    <path
       style="opacity:1"
       fill="#e8e8e8"
       d="m 154.5,674.5 c 2.742,1.438 5.076,3.438 7,6 -0.674,2.017 -1.841,3.683 -3.5,5 -0.973,-3.279 -2.473,-6.279 -4.5,-9 0.363,-0.683 0.696,-1.35 1,-2 z"
       id="path901" />
  </g>
  <g
     id="g903"
     transform="translate(-59.5,-512.49976)">
    <path
       style="opacity:1"
       fill="#dbdadb"
       d="m 125.5,679.5 c 3.072,-0.317 6.072,0.016 9,1 -2.308,2.895 -5.141,3.562 -8.5,2 -0.483,-0.948 -0.649,-1.948 -0.5,-3 z"
       id="path903" />
  </g>
  <g
     id="g908"
     transform="translate(-59.5,-512.49976)">
    <path
       style="opacity:1"
       fill="#141413"
       d="m 111.5,681.5 c 5.01,0.332 8.344,2.832 10,7.5 -0.947,3.072 -2.947,4.072 -6,3 -5.271,-2.327 -6.605,-5.827 -4,-10.5 z"
       id="path908" />
  </g>
  <g
     id="g911"
     transform="translate(-59.5,-512.49976)">
    <path
       style="opacity:1"
       fill="#131311"
       d="m 142.5,681.5 c 4.5,-0.336 6.333,1.664 5.5,6 -2.548,3.86 -6.048,5.36 -10.5,4.5 -1.076,-1.726 -1.243,-3.559 -0.5,-5.5 1.73,-1.902 3.563,-3.569 5.5,-5 z"
       id="path911" />
  </g>
  <g
     id="g912"
     transform="translate(-59.5,-512.49976)">
    <path
       style="opacity:1"
       fill="#b7b8b2"
       d="m 163.5,681.5 c 0.722,0.418 1.222,1.084 1.5,2 0.333,-0.333 0.667,-0.667 1,-1 0.483,0.948 0.649,1.948 0.5,3 -0.65,-0.304 -1.317,-0.637 -2,-1 -2.653,1.887 -5.319,3.387 -8,4.5 2.617,-2.442 4.95,-4.942 7,-7.5 z"
       id="path912" />
  </g>
  <g
     id="g927"
     transform="translate(-59.5,-512.49976)">
    <path
       style="opacity:1"
       fill="#f8f7f8"
       d="m 144.5,716.5 c 1.355,3.37 2.689,6.703 4,10 0.488,3.211 -0.179,6.044 -2,8.5 -8.496,1.033 -16.83,0.533 -25,-1.5 -2.016,-3.212 -3.349,-6.712 -4,-10.5 2.057,-5.812 2.057,-11.479 0,-17 0.167,-0.833 0.333,-1.667 0.5,-2.5 2.445,-1.477 4.612,-3.31 6.5,-5.5 2.693,0.502 5.36,0.335 8,-0.5 1.481,0.98 2.815,2.147 4,3.5 3.62,0.284 6.12,2.117 7.5,5.5 -0.24,3.508 -0.073,6.841 0.5,10 z"
       id="path927" />
  </g>
  <g
     id="g929"
     transform="translate(-59.5,-512.49976)">
    <path
       style="opacity:1"
       fill="#eeeeee"
       d="m 108.5,695.5 c 1.257,3.258 3.591,5.591 7,7 1.132,3.926 1.799,7.926 2,12 -3.199,-0.932 -6.365,-0.932 -9.5,0 -1.28,-0.113 -2.113,-0.78 -2.5,-2 1.031,-1.2 1.865,-2.534 2.5,-4 0.056,-4.432 0.222,-8.765 0.5,-13 z"
       id="path929" />
  </g>
  <g
     id="g930"
     transform="translate(-59.5,-512.49976)">
    <path
       style="opacity:1"
       fill="#ebeaeb"
       d="m 153.5,697.5 c -0.284,5.676 0.549,11.009 2.5,16 -2.961,0.69 -5.794,1.69 -8.5,3 -0.916,-0.043 -1.583,-0.376 -2,-1 1.749,-4.678 1.083,-9.011 -2,-13 2.89,-1.543 4.557,-3.876 5,-7 2.054,-0.135 3.721,0.532 5,2 z"
       id="path930" />
  </g>
  <g
     id="g987"
     transform="translate(-59.5,-512.49976)">
    <path
       style="opacity:1"
       fill="#212121"
       d="m 154.5,696.5 c -0.813,4.961 0.353,9.294 3.5,13 0.18,6.343 0.18,12.676 0,19 0.528,3.079 2.028,5.413 4.5,7 2.679,2.101 5.512,4.101 8.5,6 0.781,1.444 0.614,2.777 -0.5,4 -5.23,3.372 -10.564,3.706 -16,1 -1.937,-1.431 -3.77,-3.098 -5.5,-5 0.427,-5.161 0.26,-10.161 -0.5,-15 -1.311,-3.297 -2.645,-6.63 -4,-10 0,-0.667 0.333,-1 1,-1 0.417,0.624 1.084,0.957 2,1 2.706,-1.31 5.539,-2.31 8.5,-3 -1.951,-4.991 -2.784,-10.324 -2.5,-16 0,-0.667 0.333,-1 1,-1 z"
       id="path987" />
  </g>
  <g
     id="g988"
     transform="translate(-59.5,-512.49976)">
    <path
       style="opacity:1"
       fill="#f0f1f1"
       d="m 151.5,716.5 c 2.104,-0.299 4.104,0.034 6,1 -2.729,5.388 -2.395,10.554 1,15.5 -1.836,1.419 -3.836,2.586 -6,3.5 -0.825,-3.622 -1.325,-7.289 -1.5,-11 -0.536,-2.369 -1.703,-4.369 -3.5,-6 1.401,-1.021 2.735,-2.021 4,-3 z"
       id="path988" />
  </g>
  <g
     id="g997"
     transform="translate(-59.5,-512.49976)">
    <path
       style="opacity:1"
       fill="#ececed"
       d="m 109.5,716.5 c 2.333,0 4.667,0 7,0 -0.589,6.679 0.411,13.012 3,19 -2.091,0.182 -4.091,-0.152 -6,-1 -0.789,-6.041 -3.122,-11.375 -7,-16 1.102,-0.676 2.102,-1.342 3,-2 z"
       id="path997" />
  </g>
  <g
     id="g1008"
     transform="translate(-59.5,-512.49976)">
    <path
       style="opacity:1"
       fill="#d1d2d3"
       d="m 148.5,726.5 c 0.76,4.839 0.927,9.839 0.5,15 1.73,1.902 3.563,3.569 5.5,5 -0.904,0.709 -1.237,1.709 -1,3 -7.563,0.04 -15.063,0.706 -22.5,2 -7.13,-0.782 -14.297,-1.282 -21.5,-1.5 -2.427,-0.902 -4.76,-1.736 -7,-2.5 2.403,0.052 4.736,-0.281 7,-1 0.667,0 1,-0.333 1,-1 4.221,-1.016 8.387,-2.349 12.5,-4 0.718,-2.907 0.218,-5.574 -1.5,-8 8.17,2.033 16.504,2.533 25,1.5 1.821,-2.456 2.488,-5.289 2,-8.5 z"
       id="path1008" />
  </g>
  <g
     id="g1032"
     transform="translate(-59.5,-512.49976)">
    <path
       style="opacity:1"
       fill="#e3e4e4"
       d="m 110.5,733.5 c -2.513,2.426 -5.513,4.092 -9,5 -0.992,-0.172 -1.6583,0.162 -2,1 -1.3118,0.645 -2.3118,1.645 -3,3 1.6619,2.152 3.662,3.818 6,5 2.24,0.764 4.573,1.598 7,2.5 7.203,0.218 14.37,0.718 21.5,1.5 7.437,-1.294 14.937,-1.96 22.5,-2 -0.237,-1.291 0.096,-2.291 1,-3 5.436,2.706 10.77,2.372 16,-1 1.114,-1.223 1.281,-2.556 0.5,-4 -2.988,-1.899 -5.821,-3.899 -8.5,-6 5.608,1.589 11.275,3.089 17,4.5 1.482,2.592 1.148,4.925 -1,7 -27.313,8.202 -54.98,9.535 -83,4 -3.3593,-1.383 -6.6926,-2.716 -10,-4 -2.8603,-3.03 -2.527,-5.697 1,-8 7.9458,-2.156 15.946,-3.99 24,-5.5 z"
       id="path1032" />
  </g>
  <g
     id="g1033"
     transform="translate(-59.5,-512.49976)">
    <path
       style="opacity:1"
       fill="#787979"
       d="m 165.5,741.5 c 0.966,2.625 1.966,2.625 3,0 1,0.333 1.667,1 2,2 -2.293,2.052 -4.793,2.719 -7.5,2 -0.388,0.928 -1.055,1.595 -2,2 -2.12,-0.64 -3.954,-1.64 -5.5,-3 3.323,-0.992 6.656,-1.992 10,-3 z"
       id="path1033" />
  </g>
  <g
     id="g1034"
     transform="translate(-59.5,-512.49976)">
    <path
       style="opacity:1"
       fill="#4e4d4e"
       d="m 99.5,739.5 c 0.3417,-0.838 1.008,-1.172 2,-1 0.342,0.838 1.008,1.172 2,1 2.588,2.125 5.588,3.458 9,4 -0.667,0.667 -1.333,1.333 -2,2 0,0.667 -0.333,1 -1,1 0,-0.667 -0.333,-1 -1,-1 -1.538,-2.548 -3.204,-2.548 -5,0 -2.84,-0.307 -3.6735,-1.64 -2.5,-4 -2.9835,2.207 -3.1502,1.707 -0.5,-1.5 -0.228,-0.399 -0.5618,-0.565 -1,-0.5 z"
       id="path1034" />
  </g>
  <g
     id="g1035"
     transform="translate(-59.5,-512.49976)">
    <path
       style="opacity:1"
       fill="#c3c5c5"
       d="m 108.5,745.5 c -1.667,0 -3.333,0 -5,0 1.796,-2.548 3.462,-2.548 5,0 z"
       id="path1035" />
  </g>
  <g
     id="g1036"
     transform="translate(-59.5,-512.49976)">
    <path
       style="opacity:1"
       fill="#1d1d1e"
       d="m 99.5,739.5 c 0.4382,-0.065 0.772,0.101 1,0.5 -2.6502,3.207 -2.4835,3.707 0.5,1.5 -1.1735,2.36 -0.34,3.693 2.5,4 1.667,0 3.333,0 5,0 0.667,0 1,0.333 1,1 -2.264,0.719 -4.597,1.052 -7,1 -2.338,-1.182 -4.3381,-2.848 -6,-5 0.6882,-1.355 1.6882,-2.355 3,-3 z"
       id="path1036" />
  </g>
  <g
     id="g1037"
     transform="translate(-59.5,-512.49976)">
    <path
       style="opacity:1"
       fill="#e8e9ea"
       d="m 165.5,741.5 c -3.344,1.008 -6.677,2.008 -10,3 -2.299,-0.993 -3.966,-2.659 -5,-5 2.658,-1.329 5.324,-2.662 8,-4 2.841,1.586 5.507,3.42 8,5.5 -0.228,0.399 -0.562,0.565 -1,0.5 z"
       id="path1037" />
  </g>
  <g
     id="g1038"
     transform="translate(-59.5,-512.49976)">
    <path
       style="opacity:1"
       fill="#e7e9eb"
       d="m 112.5,743.5 c -3.412,-0.542 -6.412,-1.875 -9,-4 1.519,-0.91 3.185,-1.743 5,-2.5 4.051,0.186 8.051,0.019 12,-0.5 1.247,1.506 1.247,3.006 0,4.5 -2.779,0.561 -5.446,1.394 -8,2.5 z"
       id="path1038" />
  </g>
</svg>
