<?xml version="1.0" encoding="UTF-8" standalone="no"?>
<svg
   version="1.1"
   width="113.69336"
   height="218.47919"
   style="clip-rule:evenodd;fill-rule:evenodd;image-rendering:optimizeQuality;shape-rendering:geometricPrecision;text-rendering:geometricPrecision"
   id="svg1400"
   xmlns="http://www.w3.org/2000/svg"
   xmlns:svg="http://www.w3.org/2000/svg">
  <defs
     id="defs1400" />
  <g
     id="g1050"
     transform="translate(-642.84723,-776.18402)">
    <path
       style="opacity:1"
       fill="#1e1a18"
       d="m 729.5,878.5 c 0.131,0.739 -0.036,1.406 -0.5,2 -0.278,-0.916 -0.778,-1.582 -1.5,-2 -1.248,-2.19 -2.914,-2.523 -5,-1 0.237,-1.291 -0.096,-2.291 -1,-3 -1.699,-1.941 -3.866,-3.274 -6.5,-4 -3.97,3.134 -7.803,6.467 -11.5,10 -1.441,-1.365 -2.774,-2.865 -4,-4.5 -0.948,-0.483 -1.948,-0.649 -3,-0.5 0,2.333 0,4.667 0,7 -0.333,0 -0.667,0 -1,0 -4,0 -8,0 -12,0 0.172,-0.992 -0.162,-1.658 -1,-2 0,-1 0,-2 0,-3 -1.984,-0.117 -3.65,0.55 -5,2 -2.157,-2.303 -3.823,-4.97 -5,-8 -1.299,0.59 -2.132,1.59 -2.5,3 -0.383,-0.556 -0.883,-0.889 -1.5,-1 2.403,-3.249 5.07,-6.416 8,-9.5 -8.332,-2.246 -15.498,-6.413 -21.5,-12.5 -2.924,-6.145 -4.091,-12.645 -3.5,-19.5 0.748,-9.498 1.581,-18.998 2.5,-28.5 11.668,-22.906 30.168,-31.406 55.5,-25.5 16.428,4.927 26.428,15.761 30,32.5 4.988,-3.683 10.655,-5.016 17,-4 0.241,3.294 -0.592,6.294 -2.5,9 -2.597,2.702 -5.43,5.036 -8.5,7 3.656,3.976 5.656,8.643 6,14 -5.177,0.797 -9.677,-0.536 -13.5,-4 -3.399,15.901 -12.899,26.234 -28.5,31 2.199,3.887 5.532,6.054 10,6.5 3.219,3.089 6.552,5.922 10,8.5 z"
       id="path1050" />
  </g>
  <g
     id="g1051"
     transform="translate(-642.84723,-776.18402)">
    <path
       style="opacity:1"
       fill="#642a24"
       d="m 729.5,806.5 c 1,0.333 1.667,1 2,2 -0.333,0 -0.667,0 -1,0 -1.667,0 -3.333,0 -5,0 0.787,-1.604 2.12,-2.271 4,-2 z"
       id="path1051" />
  </g>
  <g
     id="g1052"
     transform="translate(-642.84723,-776.18402)">
    <path
       style="opacity:1"
       fill="#f8f8f8"
       d="m 730.5,818.5 c -0.055,10.996 -3.221,20.996 -9.5,30 -7.732,7.247 -16.898,11.414 -27.5,12.5 0.916,0.278 1.582,0.778 2,1.5 -36.47,2.206 -49.47,-14.128 -39,-49 21.521,-9.081 43.188,-9.248 65,-0.5 3.398,1.357 6.398,3.19 9,5.5 z"
       id="path1052" />
  </g>
  <g
     id="g1053"
     transform="translate(-642.84723,-776.18402)">
    <path
       style="opacity:1"
       fill="#ecc8c1"
       d="m 658.5,799.5 c 0.996,-0.086 1.829,0.248 2.5,1 1.224,3.71 0.058,6.377 -3.5,8 0.192,-1.462 -0.141,-3.128 -1,-5 0.16,-1.653 0.826,-2.986 2,-4 z"
       id="path1053" />
  </g>
  <g
     id="g1054"
     transform="translate(-642.84723,-776.18402)">
    <path
       style="opacity:1"
       fill="#91392f"
       d="m 728.5,792.5 c 0.901,0.79 1.568,1.79 2,3 -1.344,1.685 -1.177,3.352 0.5,5 0.717,-0.544 1.217,-1.211 1.5,-2 2.308,3.288 3.475,6.955 3.5,11 -2.729,-2.899 -5.562,-5.566 -8.5,-8 -0.228,-2.826 0.106,-5.826 1,-9 z"
       id="path1054" />
  </g>
  <g
     id="g1055"
     transform="translate(-642.84723,-776.18402)">
    <path
       style="opacity:1"
       fill="#eac8bc"
       d="m 707.5,806.5 c -1,0 -2,0 -3,0 0.133,-3.425 -0.533,-3.758 -2,-1 0.285,-1.788 -0.048,-3.455 -1,-5 -1.417,1.761 -3.083,3.094 -5,4 0.062,-5.523 2.729,-7.356 8,-5.5 2.539,1.805 3.539,4.305 3,7.5 z"
       id="path1055" />
  </g>
  <g
     id="g1056"
     transform="translate(-642.84723,-776.18402)">
    <path
       style="opacity:1"
       fill="#d1433e"
       d="m 671.5,805.5 c -5.444,1.375 -10.778,3.375 -16,6 -0.333,-0.333 -0.667,-0.667 -1,-1 0.567,-2.482 1.234,-4.816 2,-7 0.859,1.872 1.192,3.538 1,5 3.558,-1.623 4.724,-4.29 3.5,-8 -0.671,-0.752 -1.504,-1.086 -2.5,-1 0,-0.667 0.333,-1 1,-1 1,0 2,0 3,0 -0.306,-3.54 1.027,-4.874 4,-4 1.145,3.974 3.479,6.974 7,9 -0.743,0.682 -1.409,1.349 -2,2 z"
       id="path1056" />
  </g>
  <g
     id="g1057"
     transform="translate(-642.84723,-776.18402)">
    <path
       style="opacity:1"
       fill="#c89d90"
       d="m 730.5,795.5 c 0.901,0.79 1.568,1.79 2,3 -0.283,0.789 -0.783,1.456 -1.5,2 -1.677,-1.648 -1.844,-3.315 -0.5,-5 z"
       id="path1057" />
  </g>
  <g
     id="g1058"
     transform="translate(-642.84723,-776.18402)">
    <path
       style="opacity:1"
       fill="#762820"
       d="m 708.5,806.5 c -0.333,0 -0.667,0 -1,0 0.539,-3.195 -0.461,-5.695 -3,-7.5 -5.271,-1.856 -7.938,-0.023 -8,5.5 0,0.333 0,0.667 0,1 -5.667,0 -11.333,0 -17,0 5.14,-0.988 10.474,-1.321 16,-1 -0.542,-5.127 1.791,-7.794 7,-8 1.874,-0.11 3.374,0.556 4.5,2 1.252,2.514 1.752,5.18 1.5,8 z"
       id="path1058" />
  </g>
  <g
     id="g1059"
     transform="translate(-642.84723,-776.18402)">
    <path
       style="opacity:1"
       fill="#a53329"
       d="m 711.5,780.5 c 2.98,0.823 5.647,2.157 8,4 -0.667,0 -1,0.333 -1,1 -6.023,-4.943 -8.523,-3.61 -7.5,4 4.241,3.199 6.741,2.199 7.5,-3 1.387,1.989 1.053,3.822 -1,5.5 -7.255,0.746 -10.588,-2.588 -10,-10 1.558,-0.21 2.891,-0.71 4,-1.5 z"
       id="path1059" />
  </g>
  <g
     id="g1060"
     transform="translate(-642.84723,-776.18402)">
    <path
       style="opacity:1"
       fill="#cfa69f"
       d="m 718.5,785.5 c 0,0.333 0,0.667 0,1 -0.759,5.199 -3.259,6.199 -7.5,3 -1.023,-7.61 1.477,-8.943 7.5,-4 z"
       id="path1060" />
  </g>
  <g
     id="g1061"
     transform="translate(-642.84723,-776.18402)">
    <path
       style="opacity:1"
       fill="#922821"
       d="m 693.5,778.5 c 0.667,0 1.333,0 2,0 -0.038,6.869 -3.371,9.369 -10,7.5 -1.323,-0.816 -1.989,-1.983 -2,-3.5 0.333,0 0.667,0 1,0 0.111,0.617 0.444,1.117 1,1.5 5.329,1.822 7.996,-0.011 8,-5.5 z"
       id="path1061" />
  </g>
  <g
     id="g1062"
     transform="translate(-642.84723,-776.18402)">
    <path
       style="opacity:1"
       fill="#ebd3cd"
       d="m 690.5,778.5 c 1,0 2,0 3,0 -0.004,5.489 -2.671,7.322 -8,5.5 -0.556,-0.383 -0.889,-0.883 -1,-1.5 -0.131,-0.876 0.202,-1.543 1,-2 3.089,2.956 4.756,2.289 5,-2 z"
       id="path1062" />
  </g>
  <g
     id="g1063"
     transform="translate(-642.84723,-776.18402)">
    <path
       style="opacity:1"
       fill="#da3936"
       d="m 695.5,778.5 c 5.47,-0.254 10.804,0.413 16,2 -1.109,0.79 -2.442,1.29 -4,1.5 -0.588,7.412 2.745,10.746 10,10 2.053,-1.678 2.387,-3.511 1,-5.5 0,-0.333 0,-0.667 0,-1 0,-0.667 0.333,-1 1,-1 3.62,1.953 6.62,4.619 9,8 -0.894,3.174 -1.228,6.174 -1,9 -2.561,-1.871 -5.061,-3.871 -7.5,-6 -0.167,0.333 -0.333,0.667 -0.5,1 3.367,3.34 6.7,6.673 10,10 -1.88,-0.271 -3.213,0.396 -4,2 -0.61,0.891 -0.943,1.891 -1,3 -5.515,-1.374 -10.848,-3.04 -16,-5 0.252,-2.82 -0.248,-5.486 -1.5,-8 -1.126,-1.444 -2.626,-2.11 -4.5,-2 -5.209,0.206 -7.542,2.873 -7,8 -5.526,-0.321 -10.86,0.012 -16,1 -2.667,0 -5.333,0 -8,0 0.591,-0.651 1.257,-1.318 2,-2 -3.521,-2.026 -5.855,-5.026 -7,-9 -2.973,-0.874 -4.306,0.46 -4,4 -1,0 -2,0 -3,0 5.296,-9.66 13.296,-15.993 24,-19 0,1 0,2 0,3 0.011,1.517 0.677,2.684 2,3.5 6.629,1.869 9.962,-0.631 10,-7.5 z"
       id="path1063" />
  </g>
  <g
     id="g1064"
     transform="translate(-642.84723,-776.18402)">
    <path
       style="opacity:1"
       fill="#d27c72"
       d="m 702.5,805.5 c -2,0 -4,0 -6,0 0,-0.333 0,-0.667 0,-1 1.917,-0.906 3.583,-2.239 5,-4 0.952,1.545 1.285,3.212 1,5 z"
       id="path1064" />
  </g>
  <g
     id="g1065"
     transform="translate(-642.84723,-776.18402)">
    <path
       style="opacity:1"
       fill="#89312a"
       d="m 671.5,791.5 c 8.766,-1.581 11.433,1.586 8,9.5 -8.549,1.304 -11.216,-1.862 -8,-9.5 z"
       id="path1065" />
  </g>
  <g
     id="g1066"
     transform="translate(-642.84723,-776.18402)">
    <path
       style="opacity:1"
       fill="#dbbab2"
       d="m 672.5,792.5 c 5.613,-1.421 7.78,0.579 6.5,6 -2.064,1.091 -4.231,1.258 -6.5,0.5 -2.561,-2.156 -2.561,-4.323 0,-6.5 z"
       id="path1066" />
  </g>
  <g
     id="g1067"
     transform="translate(-642.84723,-776.18402)">
    <path
       style="opacity:1"
       fill="#cd7768"
       d="m 690.5,778.5 c -0.244,4.289 -1.911,4.956 -5,2 -0.798,0.457 -1.131,1.124 -1,2 -0.333,0 -0.667,0 -1,0 0,-1 0,-2 0,-3 2.361,-0.174 4.694,-0.507 7,-1 z"
       id="path1067" />
  </g>
  <g
     id="g1068"
     transform="translate(-642.84723,-776.18402)">
    <path
       style="opacity:1"
       fill="#d5c3bc"
       d="m 725.5,808.5 c 1.667,0 3.333,0 5,0 0,1.667 0,3.333 0,5 -2.51,0.446 -4.51,-0.22 -6,-2 0.057,-1.109 0.39,-2.109 1,-3 z"
       id="path1068" />
  </g>
  <g
     id="g1069"
     transform="translate(-642.84723,-776.18402)">
    <path
       style="opacity:1"
       fill="#eadfdf"
       d="m 743.5,810.5 c 1.765,-0.961 3.765,-1.295 6,-1 0.841,1.879 1.175,3.879 1,6 -1.459,0.067 -2.792,-0.266 -4,-1 0.271,-1.88 -0.396,-3.213 -2,-4 -0.333,0 -0.667,0 -1,0 z"
       id="path1069" />
  </g>
  <g
     id="g1073"
     transform="translate(-642.84723,-776.18402)">
    <path
       style="opacity:1"
       fill="#cb5146"
       d="m 743.5,810.5 c 0.333,0 0.667,0 1,0 -0.489,2.824 -2.156,4.157 -5,4 0.394,-2.21 1.727,-3.543 4,-4 z"
       id="path1073" />
  </g>
  <g
     id="g1074"
     transform="translate(-642.84723,-776.18402)">
    <path
       style="opacity:1"
       fill="#561c1d"
       d="m 744.5,810.5 c 1.604,0.787 2.271,2.12 2,4 -2.333,0.667 -4.667,1.333 -7,2 0,-0.667 0,-1.333 0,-2 2.844,0.157 4.511,-1.176 5,-4 z"
       id="path1074" />
  </g>
  <g
     id="g1084"
     transform="translate(-642.84723,-776.18402)">
    <path
       style="opacity:1"
       fill="#c9443a"
       d="m 730.5,808.5 c 0.333,0 0.667,0 1,0 1.293,1.796 2.793,3.463 4.5,5 0.667,2.333 0.667,4.667 0,7 -2.454,-1.941 -4.287,-4.275 -5.5,-7 0,-1.667 0,-3.333 0,-5 z"
       id="path1084" />
  </g>
  <g
     id="g1085"
     transform="translate(-642.84723,-776.18402)">
    <path
       style="opacity:1"
       fill="#c6413b"
       d="m 739.5,816.5 c 2.333,-0.667 4.667,-1.333 7,-2 1.208,0.734 2.541,1.067 4,1 0.175,-2.121 -0.159,-4.121 -1,-6 1.419,-0.951 3.085,-1.284 5,-1 -0.463,4.762 -2.796,8.262 -7,10.5 -2.851,1.289 -5.851,1.789 -9,1.5 -0.067,-1.459 0.266,-2.792 1,-4 z"
       id="path1085" />
  </g>
  <g
     id="g1087"
     transform="translate(-642.84723,-776.18402)">
    <path
       style="opacity:1"
       fill="#1a1b1a"
       d="m 666.5,823.5 c 6.832,-1.096 11.165,1.571 13,8 -2.656,-2.237 -5.823,-3.57 -9.5,-4 -3.105,0.84 -5.938,2.006 -8.5,3.5 -0.951,-0.718 -1.117,-1.551 -0.5,-2.5 1.73,-1.902 3.563,-3.569 5.5,-5 z"
       id="path1087" />
  </g>
  <g
     id="g1088"
     transform="translate(-642.84723,-776.18402)">
    <path
       style="opacity:1"
       fill="#161616"
       d="m 704.5,823.5 c 7.451,-0.959 12.118,2.041 14,9 -1.052,0.149 -2.052,-0.017 -3,-0.5 -2.883,-4.217 -6.883,-5.551 -12,-4 -1.185,1.353 -2.519,2.52 -4,3.5 -1.083,-0.865 -1.249,-1.865 -0.5,-3 1.73,-1.902 3.563,-3.569 5.5,-5 z"
       id="path1088" />
  </g>
  <g
     id="g1093"
     transform="translate(-642.84723,-776.18402)">
    <path
       style="opacity:1"
       fill="#b43831"
       d="m 745.5,826.5 c -1.212,0.73 -2.212,1.73 -3,3 -2.039,-2.692 -2.873,-2.358 -2.5,1 2.064,1.091 4.231,1.258 6.5,0.5 0.752,-0.671 1.086,-1.504 1,-2.5 1.574,1.602 2.241,3.602 2,6 -9.173,0.931 -12.839,-3.069 -11,-12 3.312,-0.351 5.645,0.982 7,4 z"
       id="path1093" />
  </g>
  <g
     id="g1095"
     transform="translate(-642.84723,-776.18402)">
    <path
       style="opacity:1"
       fill="#e4c6be"
       d="m 745.5,826.5 c 1,0.333 1.667,1 2,2 0.086,0.996 -0.248,1.829 -1,2.5 -2.269,0.758 -4.436,0.591 -6.5,-0.5 -0.373,-3.358 0.461,-3.692 2.5,-1 0.788,-1.27 1.788,-2.27 3,-3 z"
       id="path1095" />
  </g>
  <g
     id="g1096"
     transform="translate(-642.84723,-776.18402)">
    <path
       style="opacity:1"
       fill="#212121"
       d="m 684.5,830.5 c 4.149,0.644 6.315,2.977 6.5,7 -2.923,-1.066 -6.09,-1.066 -9.5,0 0.543,-2.538 1.543,-4.872 3,-7 z"
       id="path1096" />
  </g>
  <g
     id="g1106"
     transform="translate(-642.84723,-776.18402)">
    <path
       style="opacity:1"
       fill="#322f2e"
       d="m 703.5,843.5 c -0.667,0.667 -1.333,1.333 -2,2 -0.343,-1.725 -1.343,-2.225 -3,-1.5 -1.192,2.634 -0.526,3.468 2,2.5 0.38,2.198 -0.287,3.865 -2,5 0,-1.333 -0.667,-2 -2,-2 0,-0.333 0,-0.667 0,-1 0,-1.333 0,-2.667 0,-4 -1,0 -2,0 -3,0 0,1 0,2 0,3 -0.667,0.333 -1.333,0.667 -2,1 0,-1 0,-2 0,-3 -1.333,0 -2.667,0 -4,0 0,1 0,2 0,3 -0.667,0 -1.333,0 -2,0 -0.667,-4 -1.333,-4 -2,0 -0.667,-0.333 -1.333,-0.667 -2,-1 0,-1 0,-2 0,-3 0.667,0 1,-0.333 1,-1 7.19,-0.361 14.19,-0.361 21,0 z"
       id="path1106" />
  </g>
  <g
     id="g1108"
     transform="translate(-642.84723,-776.18402)">
    <path
       style="opacity:1"
       fill="#191716"
       d="m 682.5,843.5 c 0,0.667 -0.333,1 -1,1 -1,0 -2,0 -3,0 0,1 0,2 0,3 1,0 2,0 3,0 0.667,0.333 1.333,0.667 2,1 0.667,0 1.333,0 2,0 0.667,0 1.333,0 2,0 1.333,-1.333 2.667,-1.333 4,0 0.667,-0.333 1.333,-0.667 2,-1 0.709,0.904 1.709,1.237 3,1 0,0.333 0,0.667 0,1 -4.384,-0.326 -8.717,0.008 -13,1 -1.697,4.254 -0.197,6.254 4.5,6 4.518,0.185 8.018,-1.482 10.5,-5 1.713,-1.135 2.38,-2.802 2,-5 0.667,0 1,-0.333 1,-1 0.667,-0.667 1.333,-1.333 2,-2 -2.436,13.554 -10.102,17.72 -23,12.5 -5.297,-2.921 -7.297,-7.254 -6,-13 2.657,-0.175 5.324,-0.008 8,0.5 z"
       id="path1108" />
  </g>
  <g
     id="g1109"
     transform="translate(-642.84723,-776.18402)">
    <path
       style="opacity:1"
       fill="#d3d4d6"
       d="m 691.5,848.5 c -1.333,-1.333 -2.667,-1.333 -4,0 0,-1 0,-2 0,-3 1.333,0 2.667,0 4,0 0,1 0,2 0,3 z"
       id="path1109" />
  </g>
  <g
     id="g1110"
     transform="translate(-642.84723,-776.18402)">
    <path
       style="opacity:1"
       fill="#eaebed"
       d="m 685.5,848.5 c -0.667,0 -1.333,0 -2,0 0.667,-4 1.333,-4 2,0 z"
       id="path1110" />
  </g>
  <g
     id="g1111"
     transform="translate(-642.84723,-776.18402)">
    <path
       style="opacity:1"
       fill="#d6d6d7"
       d="m 681.5,844.5 c 0,1 0,2 0,3 -1,0 -2,0 -3,0 0,-1 0,-2 0,-3 1,0 2,0 3,0 z"
       id="path1111" />
  </g>
  <g
     id="g1112"
     transform="translate(-642.84723,-776.18402)">
    <path
       style="opacity:1"
       fill="#cecccc"
       d="m 696.5,848.5 c -1.291,0.237 -2.291,-0.096 -3,-1 0,-1 0,-2 0,-3 1,0 2,0 3,0 0,1.333 0,2.667 0,4 z"
       id="path1112" />
  </g>
  <g
     id="g1113"
     transform="translate(-642.84723,-776.18402)">
    <path
       style="opacity:1"
       fill="#bfbdbf"
       d="m 675.5,843.5 c 1.725,0.343 2.225,1.343 1.5,3 -1.039,-0.744 -1.539,-1.744 -1.5,-3 z"
       id="path1113" />
  </g>
  <g
     id="g1114"
     transform="translate(-642.84723,-776.18402)">
    <path
       style="opacity:1"
       fill="#c8c7c8"
       d="m 701.5,845.5 c 0,0.667 -0.333,1 -1,1 -2.526,0.968 -3.192,0.134 -2,-2.5 1.657,-0.725 2.657,-0.225 3,1.5 z"
       id="path1114" />
  </g>
  <g
     id="g1115"
     transform="translate(-642.84723,-776.18402)">
    <path
       style="opacity:1"
       fill="#c95b5b"
       d="m 696.5,849.5 c 1.333,0 2,0.667 2,2 -2.482,3.518 -5.982,5.185 -10.5,5 -4.697,0.254 -6.197,-1.746 -4.5,-6 4.283,-0.992 8.616,-1.326 13,-1 z"
       id="path1115" />
  </g>
  <g
     id="g1116"
     transform="translate(-642.84723,-776.18402)">
    <path
       style="opacity:1"
       fill="#d4d4d3"
       d="m 730.5,818.5 c 1.871,0.359 3.371,1.359 4.5,3 1.393,27.443 -11.773,41.11 -39.5,41 -0.418,-0.722 -1.084,-1.222 -2,-1.5 10.602,-1.086 19.768,-5.253 27.5,-12.5 6.279,-9.004 9.445,-19.004 9.5,-30 z"
       id="path1116" />
  </g>
  <g
     id="g1118"
     transform="translate(-642.84723,-776.18402)">
    <path
       style="opacity:1"
       fill="#696767"
       d="m 687.5,864.5 c 4,0 8,0 12,0 0,1 0,2 0,3 -0.667,-0.333 -1.333,-0.667 -2,-1 -3.333,-0.667 -6.667,-1.333 -10,-2 z"
       id="path1118" />
  </g>
  <g
     id="g1120"
     transform="translate(-642.84723,-776.18402)">
    <path
       style="opacity:1"
       fill="#ebe9e6"
       d="m 699.5,864.5 c 6.264,0.114 6.264,1.114 0,3 0,-1 0,-2 0,-3 z"
       id="path1120" />
  </g>
  <g
     id="g1121"
     transform="translate(-642.84723,-776.18402)">
    <path
       style="opacity:1"
       fill="#e1dfde"
       d="m 687.5,864.5 c 3.333,0.667 6.667,1.333 10,2 -3.593,2.637 -7.259,2.637 -11,0 -2.005,2.528 -3.671,2.195 -5,-1 1.896,-0.966 3.896,-1.299 6,-1 z"
       id="path1121" />
  </g>
  <g
     id="g1123"
     transform="translate(-642.84723,-776.18402)">
    <path
       style="opacity:1"
       fill="#d6a56b"
       d="m 676.5,866.5 c 3.599,0.817 5.599,3.15 6,7 -4.363,4.342 -7.03,3.342 -8,-3 0.252,-1.573 0.918,-2.906 2,-4 z"
       id="path1123" />
  </g>
  <g
     id="g1124"
     transform="translate(-642.84723,-776.18402)">
    <path
       style="opacity:1"
       fill="#e5e4e2"
       d="m 682.5,869.5 c 3.432,-0.252 4.432,1.081 3,4 -1.788,-0.783 -2.788,-2.116 -3,-4 z"
       id="path1124" />
  </g>
  <g
     id="g1125"
     transform="translate(-642.84723,-776.18402)">
    <path
       style="opacity:1"
       fill="#dda668"
       d="m 706.5,865.5 c 2.627,-0.207 4.293,0.96 5,3.5 -1.724,3.73 -4.224,6.897 -7.5,9.5 -1.833,-1.833 -3.667,-3.667 -5.5,-5.5 2.562,-2.733 5.229,-5.233 8,-7.5 z"
       id="path1125" />
  </g>
  <g
     id="g1135"
     transform="translate(-642.84723,-776.18402)">
    <path
       style="opacity:1"
       fill="#d6d6d4"
       d="m 697.5,869.5 c 0.739,-0.131 1.406,0.036 2,0.5 -2.532,2.094 -5.199,3.927 -8,5.5 -0.942,-0.108 -1.775,-0.441 -2.5,-1 -0.309,-1.266 -0.809,-2.433 -1.5,-3.5 3.525,-0.179 6.859,-0.679 10,-1.5 z"
       id="path1135" />
  </g>
  <g
     id="g1142"
     transform="translate(-642.84723,-776.18402)">
    <path
       style="opacity:1"
       fill="#f2f2f2"
       d="m 727.5,878.5 c -0.015,7.969 3.151,14.303 9.5,19 0.483,0.948 0.649,1.948 0.5,3 -1.788,-0.285 -3.455,0.048 -5,1 -0.785,2.653 -2.285,3.32 -4.5,2 -0.206,-3.123 -0.873,-6.123 -2,-9 -2.689,-4.506 -5.856,-8.506 -9.5,-12 0.345,-3.457 2.011,-4.457 5,-3 0.798,-0.457 1.131,-1.124 1,-2 2.086,-1.523 3.752,-1.19 5,1 z"
       id="path1142" />
  </g>
  <g
     id="g1145"
     transform="translate(-642.84723,-776.18402)">
    <path
       style="opacity:1"
       fill="#e5e4e5"
       d="m 686.5,875.5 c 1.656,0.646 3.323,1.313 5,2 1.054,-0.18 2.054,-0.513 3,-1 1.083,0.865 1.249,1.865 0.5,3 -2.737,1.11 -5.571,1.277 -8.5,0.5 -2.482,-1.461 -2.482,-2.961 0,-4.5 z"
       id="path1145" />
  </g>
  <g
     id="g1146"
     transform="translate(-642.84723,-776.18402)">
    <path
       style="opacity:1"
       fill="#222221"
       d="m 668.5,873.5 c 0.039,1.083 0.373,2.083 1,3 -4.985,19.194 -6.985,38.527 -6,58 0,0.667 -0.333,1 -1,1 -0.617,-0.111 -1.117,-0.444 -1.5,-1 -0.167,-2 -0.333,-4 -0.5,-6 0.767,-5.327 0.934,-10.66 0.5,-16 -1.188,6.206 -3.354,12.04 -6.5,17.5 2.541,1.848 3.541,4.348 3,7.5 -1.322,0.17 -2.489,-0.163 -3.5,-1 -0.091,5.679 -2.925,7.512 -8.5,5.5 -3.362,-3.777 -3.528,-7.943 -0.5,-12.5 -0.467,-9.468 1.866,-18.135 7,-26 0.333,-2 0.667,-4 1,-6 2.667,-1.333 4.667,-3.333 6,-6 0.928,-4.701 1.928,-9.368 3,-14 1.944,-1.721 4.11,-3.054 6.5,-4 z"
       id="path1146" />
  </g>
  <g
     id="g1198"
     transform="translate(-642.84723,-776.18402)">
    <path
       style="opacity:1"
       fill="#e0a769"
       d="m 721.5,874.5 c -1.535,1.552 -3.369,2.885 -5.5,4 -0.634,3.055 -0.468,6.055 0.5,9 0.16,16.36 0.827,32.693 2,49 -2.358,1.629 -5.024,2.795 -8,3.5 -4.655,0.499 -9.321,0.666 -14,0.5 0,-19.333 0,-38.667 0,-58 0,-2.333 0,-4.667 0,-7 1.052,-0.149 2.052,0.017 3,0.5 1.226,1.635 2.559,3.135 4,4.5 3.697,-3.533 7.53,-6.866 11.5,-10 2.634,0.726 4.801,2.059 6.5,4 z"
       id="path1198" />
  </g>
  <g
     id="g1206"
     transform="translate(-642.84723,-776.18402)">
    <path
       style="opacity:1"
       fill="#dfa86c"
       d="m 682.5,880.5 c -0.825,4.147 -1.325,8.481 -1.5,13 -0.5,15.33 -0.667,30.663 -0.5,46 -6.365,0.543 -12.032,-1.123 -17,-5 -0.985,-19.473 1.015,-38.806 6,-58 -0.627,-0.917 -0.961,-1.917 -1,-3 0.617,0.111 1.117,0.444 1.5,1 0.368,-1.41 1.201,-2.41 2.5,-3 1.177,3.03 2.843,5.697 5,8 1.35,-1.45 3.016,-2.117 5,-2 0,1 0,2 0,3 z"
       id="path1206" />
  </g>
  <g
     id="g1209"
     transform="translate(-642.84723,-776.18402)">
    <path
       style="opacity:1"
       fill="#eaeaea"
       d="m 665.5,876.5 c 0.997,-0.03 1.664,0.47 2,1.5 -2.447,9.066 -4.447,18.233 -6,27.5 -1.375,-3.047 -3.708,-4.38 -7,-4 1.437,-3.644 3.604,-6.977 6.5,-10 0.993,-3.942 1.66,-7.942 2,-12 1.045,-0.873 1.878,-1.873 2.5,-3 z"
       id="path1209" />
  </g>
  <g
     id="g1267"
     transform="translate(-642.84723,-776.18402)">
    <path
       style="opacity:1"
       fill="#f4f3f4"
       d="m 741.5,915.5 c 0,4 0,8 0,12 -1,0 -2,0 -3,0 0.136,-2.85 0.469,-5.683 1,-8.5 -1,-4.333 -2,-8.667 -3,-13 0.333,-1.167 0.667,-2.333 1,-3.5 2.129,4.056 3.462,8.389 4,13 z"
       id="path1267" />
  </g>
  <g
     id="g1270"
     transform="translate(-642.84723,-776.18402)">
    <path
       style="opacity:1"
       fill="#cc965b"
       d="m 716.5,887.5 c 1.729,0.617 3.229,1.617 4.5,3 0.671,13.716 1.837,27.383 3.5,41 -0.185,1.084 -0.518,2.084 -1,3 -1.55,0.941 -3.216,1.607 -5,2 -1.173,-16.307 -1.84,-32.64 -2,-49 z"
       id="path1270" />
  </g>
  <g
     id="g1273"
     transform="translate(-642.84723,-776.18402)">
    <path
       style="opacity:1"
       fill="#dedee0"
       d="m 655.5,903.5 c 2.614,0.352 4.281,1.852 5,4.5 -1.267,5.234 -2.767,10.401 -4.5,15.5 -0.687,2.055 -1.854,3.721 -3.5,5 -0.333,-0.667 -0.667,-1.333 -1,-2 3.545,-7.243 4.878,-14.91 4,-23 z"
       id="path1273" />
  </g>
  <g
     id="g1278"
     transform="translate(-642.84723,-776.18402)">
    <path
       style="opacity:1"
       fill="#797777"
       d="m 742.5,912.5 c 0.934,1.068 1.268,2.401 1,4 -0.667,3.667 -1.333,7.333 -2,11 0,-4 0,-8 0,-12 0.904,-0.709 1.237,-1.709 1,-3 z"
       id="path1278" />
  </g>
  <g
     id="g1281"
     transform="translate(-642.84723,-776.18402)">
    <path
       style="opacity:1"
       fill="#dfdfe2"
       d="m 652.5,904.5 c 0.997,-0.03 1.664,0.47 2,1.5 -3.44,6.761 -4.773,13.928 -4,21.5 -1,0 -2,0 -3,0 -0.686,-8.249 0.981,-15.916 5,-23 z"
       id="path1281" />
  </g>
  <g
     id="g1308"
     transform="translate(-642.84723,-776.18402)">
    <path
       style="opacity:1"
       fill="#dbdbdc"
       d="m 646.5,929.5 c 1.838,0.477 3.672,0.81 5.5,1 0.486,3.901 -0.181,7.568 -2,11 -0.333,-2 -0.667,-4 -1,-6 -1,-1.333 -2,-1.333 -3,0 -0.678,-2.098 -0.511,-4.098 0.5,-6 z"
       id="path1308" />
  </g>
  <g
     id="g1309"
     transform="translate(-642.84723,-776.18402)">
    <path
       style="opacity:1"
       fill="#1e1b17"
       d="m 682.5,880.5 c 0.838,0.342 1.172,1.008 1,2 -0.697,15.99 -1.03,31.99 -1,48 4,0 8,0 12,0 -0.219,-16.019 0.114,-32.019 1,-48 0.333,0 0.667,0 1,0 0,19.333 0,38.667 0,58 4.679,0.166 9.345,-10e-4 14,-0.5 2.976,-0.705 5.642,-1.871 8,-3.5 1.784,-0.393 3.45,-1.059 5,-2 0,0.667 0,1.333 0,2 -0.968,2.107 -1.302,4.441 -1,7 0.284,1.915 -0.049,3.581 -1,5 0.349,-3.564 -0.317,-6.898 -2,-10 -7.592,3.742 -15.592,4.909 -24,3.5 -0.951,-3.057 -1.284,-6.223 -1,-9.5 -4,0 -8,0 -12,0 0,3 0,6 0,9 -5.651,0.57 -10.984,-0.43 -16,-3 -0.974,11.333 -0.808,22.666 0.5,34 2.135,1.778 4.635,2.445 7.5,2 1.792,0.809 3.792,1.309 6,1.5 -0.594,0.464 -1.261,0.631 -2,0.5 -5.107,-0.456 -9.774,0.544 -14,3 -2.064,0.187 -4.064,0.687 -6,1.5 -0.837,1.011 -1.17,2.178 -1,3.5 -1.585,-0.502 -2.085,-1.502 -1.5,-3 2.995,-2.153 6.162,-3.819 9.5,-5 0.543,-0.06 0.876,-0.393 1,-1 -1.997,-13.303 -3.33,-26.636 -4,-40 0.667,0 1,-0.333 1,-1 4.968,3.877 10.635,5.543 17,5 -0.167,-15.337 0,-30.67 0.5,-46 0.175,-4.519 0.675,-8.853 1.5,-13 z"
       id="path1309" />
  </g>
  <g
     id="g1310"
     transform="translate(-642.84723,-776.18402)">
    <path
       style="opacity:1"
       fill="#303032"
       d="m 683.5,882.5 c 4,0 8,0 12,0 -0.886,15.981 -1.219,31.981 -1,48 -4,0 -8,0 -12,0 -0.03,-16.01 0.303,-32.01 1,-48 z"
       id="path1310" />
  </g>
  <g
     id="g1313"
     transform="translate(-642.84723,-776.18402)">
    <path
       style="opacity:1"
       fill="#bbbbc2"
       d="m 653.5,932.5 c 1.422,0.25 2.422,1.083 3,2.5 -1.989,0.519 -2.989,-0.314 -3,-2.5 z"
       id="path1313" />
  </g>
  <g
     id="g1323"
     transform="translate(-642.84723,-776.18402)">
    <path
       style="opacity:1"
       fill="#a19f9f"
       d="m 646.5,936.5 c 1.086,0.12 1.753,0.787 2,2 -0.333,0.667 -0.667,1.333 -1,2 -0.929,-1.189 -1.262,-2.522 -1,-4 z"
       id="path1323" />
  </g>
  <g
     id="g1325"
     transform="translate(-642.84723,-776.18402)">
    <path
       style="opacity:1"
       fill="#252523"
       d="m 721.5,874.5 c 0.904,0.709 1.237,1.709 1,3 0.131,0.876 -0.202,1.543 -1,2 -2.989,-1.457 -4.655,-0.457 -5,3 3.644,3.494 6.811,7.494 9.5,12 1.127,2.877 1.794,5.877 2,9 2.215,1.32 3.715,0.653 4.5,-2 1.545,-0.952 3.212,-1.285 5,-1 0.149,-1.052 -0.017,-2.052 -0.5,-3 -6.349,-4.697 -9.515,-11.031 -9.5,-19 0.722,0.418 1.222,1.084 1.5,2 0.464,-0.594 0.631,-1.261 0.5,-2 -0.377,7.57 2.789,13.57 9.5,18 0.876,5.411 2.043,10.744 3.5,16 0.237,1.291 -0.096,2.291 -1,3 -0.538,-4.611 -1.871,-8.944 -4,-13 -0.333,1.167 -0.667,2.333 -1,3.5 1,4.333 2,8.667 3,13 -0.531,2.817 -0.864,5.65 -1,8.5 1,0 2,0 3,0 0.667,-3.667 1.333,-7.333 2,-11 -0.042,8.18 0.791,16.18 2.5,24 -1.586,0.876 -3.086,1.876 -4.5,3 -1.333,-1.333 -2.667,-1.333 -4,0 -1.524,-1.983 -2.524,-4.316 -3,-7 -1.236,0.746 -2.57,1.079 -4,1 -0.123,-3.088 0.877,-5.755 3,-8 -2.127,-7.55 -3.794,-15.217 -5,-23 -0.978,-0.477 -1.811,-1.143 -2.5,-2 -0.101,-3.2 -0.768,-6.2 -2,-9 -0.864,11.783 -0.031,23.449 2.5,35 0.422,2.808 -0.578,4.808 -3,6 0,-0.667 0,-1.333 0,-2 0.482,-0.916 0.815,-1.916 1,-3 -1.663,-13.617 -2.829,-27.284 -3.5,-41 -1.271,-1.383 -2.771,-2.383 -4.5,-3 -0.968,-2.945 -1.134,-5.945 -0.5,-9 2.131,-1.115 3.965,-2.448 5.5,-4 z"
       id="path1325" />
  </g>
  <g
     id="g1326"
     transform="translate(-642.84723,-776.18402)">
    <path
       style="opacity:1"
       fill="#717171"
       d="m 744.5,933.5 c 0.162,2.027 -0.005,4.027 -0.5,6 -0.333,-0.667 -0.667,-1.333 -1,-2 -0.249,1.124 -0.749,2.124 -1.5,3 -1.062,-1.522 -1.729,-3.188 -2,-5 1.55,-0.941 3.216,-1.607 5,-2 z"
       id="path1326" />
  </g>
  <g
     id="g1327"
     transform="translate(-642.84723,-776.18402)">
    <path
       style="opacity:1"
       fill="#f5f4f8"
       d="m 733.5,932.5 c 1.213,0.997 1.046,1.997 -0.5,3 -0.47,-1.077 -0.303,-2.077 0.5,-3 z"
       id="path1327" />
  </g>
  <g
     id="g1328"
     transform="translate(-642.84723,-776.18402)">
    <path
       style="opacity:1"
       fill="#dbdbdd"
       d="m 744.5,933.5 c -1.784,0.393 -3.45,1.059 -5,2 -0.665,1.869 -1.331,3.869 -2,6 -1.159,-3.622 -1.325,-7.289 -0.5,-11 2.041,-0.923 4.208,-1.256 6.5,-1 -0.067,1.459 0.266,2.792 1,4 z"
       id="path1328" />
  </g>
  <g
     id="g1329"
     transform="translate(-642.84723,-776.18402)">
    <path
       style="opacity:1"
       fill="#e7e7e8"
       d="m 733.5,903.5 c 0.648,7.239 1.648,14.573 3,22 -0.333,1 -0.667,2 -1,3 -1.434,-1.72 -2.267,-3.72 -2.5,-6 -0.64,-3.983 -1.14,-7.983 -1.5,-12 -0.181,-2.663 0.485,-4.997 2,-7 z"
       id="path1329" />
  </g>
  <g
     id="g1332"
     transform="translate(-642.84723,-776.18402)">
    <path
       style="opacity:1"
       fill="#526d84"
       d="m 721.5,948.5 c 1.277,8.318 2.11,16.651 2.5,25 -5.564,3.211 -11.23,3.545 -17,1 -3,-9 -6,-18 -9,-27 -4.541,-1.095 -9.041,-2.428 -13.5,-4 -0.333,0.333 -0.667,0.667 -1,1 0.825,0.886 1.825,1.219 3,1 -2.583,9.452 -3.583,19.119 -3,29 -3,0 -6,0 -9,0 -2.865,0.445 -5.365,-0.222 -7.5,-2 -1.308,-11.334 -1.474,-22.667 -0.5,-34 5.016,2.57 10.349,3.57 16,3 0,-3 0,-6 0,-9 4,0 8,0 12,0 -0.284,3.277 0.049,6.443 1,9.5 8.408,1.409 16.408,0.242 24,-3.5 1.683,3.102 2.349,6.436 2,10 z"
       id="path1332" />
  </g>
  <g
     id="g1353"
     transform="translate(-642.84723,-776.18402)">
    <path
       style="opacity:1"
       fill="#1d1e1e"
       d="m 721.5,948.5 c 0.951,-1.419 1.284,-3.085 1,-5 1.482,9.167 2.815,18.5 4,28 0.063,1.981 -0.604,3.648 -2,5 0.457,0.798 1.124,1.131 2,1 0.333,0.667 0.667,1.333 1,2 3.764,0.885 4.764,3.052 3,6.5 -8.019,5.497 -15.186,4.663 -21.5,-2.5 -0.192,-2.077 -0.692,-4.077 -1.5,-6 -2.041,-1.207 -3.374,-2.874 -4,-5 -1.846,-7.71 -4.012,-15.377 -6.5,-23 -2.835,-0.92 -5.668,-1.92 -8.5,-3 -1.469,2.798 -2.302,5.798 -2.5,9 -0.499,4.989 -0.666,9.989 -0.5,15 0.394,3.357 -0.939,5.69 -4,7 1.507,2.469 1.173,4.635 -1,6.5 -6.371,2.672 -13.038,3.672 -20,3 -1.442,-0.377 -2.442,-1.21 -3,-2.5 1.586,0.913 3.086,0.913 4.5,0 0.388,0.928 1.055,1.595 2,2 2.346,-0.49 4.513,-1.157 6.5,-2 3.234,-1.076 6.568,-1.743 10,-2 0.247,-2.358 -0.419,-4.358 -2,-6 0.739,0.131 1.406,-0.036 2,-0.5 -2.208,-0.191 -4.208,-0.691 -6,-1.5 3,0 6,0 9,0 -0.583,-9.881 0.417,-19.548 3,-29 -1.175,0.219 -2.175,-0.114 -3,-1 0.333,-0.333 0.667,-0.667 1,-1 4.459,1.572 8.959,2.905 13.5,4 3,9 6,18 9,27 5.77,2.545 11.436,2.211 17,-1 -0.39,-8.349 -1.223,-16.682 -2.5,-25 z"
       id="path1353" />
  </g>
  <g
     id="g1354"
     transform="translate(-642.84723,-776.18402)">
    <path
       style="opacity:1"
       fill="#f7f7f8"
       d="m 703.5,972.5 c -5.235,1.95 -10.902,2.617 -17,2 0.268,-1.599 -0.066,-2.932 -1,-4 -0.166,-5.011 10e-4,-10.011 0.5,-15 0.198,-3.202 1.031,-6.202 2.5,-9 2.832,1.08 5.665,2.08 8.5,3 2.488,7.623 4.654,15.29 6.5,23 z"
       id="path1354" />
  </g>
  <g
     id="g1368"
     transform="translate(-642.84723,-776.18402)">
    <path
       style="opacity:1"
       fill="#d8d8d9"
       d="m 685.5,970.5 c 0.934,1.068 1.268,2.401 1,4 6.098,0.617 11.765,-0.05 17,-2 0.626,2.126 1.959,3.793 4,5 0.808,1.923 1.308,3.923 1.5,6 6.314,7.163 13.481,7.997 21.5,2.5 1.764,-3.448 0.764,-5.615 -3,-6.5 -0.333,-0.667 -0.667,-1.333 -1,-2 17.282,2.306 18.115,6.973 2.5,14 -12.534,2.348 -25.201,3.348 -38,3 -15.334,0.804 -30.167,-1.363 -44.5,-6.5 -2.718,-1.415 -3.385,-3.415 -2,-6 6.543,-3.543 13.543,-5.376 21,-5.5 -3.338,1.181 -6.505,2.847 -9.5,5 -0.585,1.498 -0.085,2.498 1.5,3 0.558,1.29 1.558,2.123 3,2.5 6.962,0.672 13.629,-0.328 20,-3 2.173,-1.865 2.507,-4.031 1,-6.5 3.061,-1.31 4.394,-3.643 4,-7 z"
       id="path1368" />
  </g>
  <g
     id="g1369"
     transform="translate(-642.84723,-776.18402)">
    <path
       style="opacity:1"
       fill="#b9bcb3"
       d="m 725.5,982.5 c 1.478,-0.262 2.811,0.071 4,1 -1.218,-0.391 -2.052,0.276 -2.5,2 -1.039,-0.744 -1.539,-1.744 -1.5,-3 z"
       id="path1369" />
  </g>
  <g
     id="g1370"
     transform="translate(-642.84723,-776.18402)">
    <path
       style="opacity:1"
       fill="#6b6b6b"
       d="m 664.5,979.5 c 1.683,2.014 3.683,3.68 6,5 -1.987,0.843 -4.154,1.51 -6.5,2 -0.945,-0.405 -1.612,-1.072 -2,-2 -1.414,0.913 -2.914,0.913 -4.5,0 -0.17,-1.322 0.163,-2.489 1,-3.5 1.936,-0.813 3.936,-1.313 6,-1.5 z"
       id="path1370" />
  </g>
  <g
     id="g1371"
     transform="translate(-642.84723,-776.18402)">
    <path
       style="opacity:1"
       fill="#e0e0e1"
       d="m 727.5,979.5 c -0.948,1.478 -2.281,2.478 -4,3 -3.403,0.351 -6.737,1.018 -10,2 -0.996,0.086 -1.829,-0.248 -2.5,-1 -0.494,-1.634 -0.66,-3.301 -0.5,-5 2.327,-0.253 4.327,0.414 6,2 1.006,-0.438 1.006,-1.104 0,-2 1.167,-0.333 2.333,-0.667 3.5,-1 2.59,0.445 5.09,1.111 7.5,2 z"
       id="path1371" />
  </g>
  <g
     id="g1372"
     transform="translate(-642.84723,-776.18402)">
    <path
       style="opacity:1"
       fill="#dcdcdd"
       d="m 678.5,976.5 c 1.581,1.642 2.247,3.642 2,6 -3.432,0.257 -6.766,0.924 -10,2 -2.317,-1.32 -4.317,-2.986 -6,-5 4.226,-2.456 8.893,-3.456 14,-3 z"
       id="path1372" />
  </g>
  <g
     id="g1374"
     transform="translate(-642.84723,-776.18402)">
    <path
       style="opacity:1"
       fill="#edeced"
       d="m 717.5,987.5 c -0.667,-0.333 -1.333,-0.667 -2,-1 0.966,-2.625 1.966,-2.625 3,0 -0.124,0.607 -0.457,0.94 -1,1 z"
       id="path1374" />
  </g>
  <g
     id="g1375"
     transform="translate(-642.84723,-776.18402)">
    <path
       style="opacity:1"
       fill="#7f7f80"
       d="m 723.5,982.5 c 0.011,1.517 0.677,2.684 2,3.5 -1.897,1.11 -3.73,1.276 -5.5,0.5 -0.601,1.859 -1.434,2.192 -2.5,1 0.543,-0.06 0.876,-0.393 1,-1 -1.034,-2.625 -2.034,-2.625 -3,0 -1,-0.333 -1.667,-1 -2,-2 3.263,-0.982 6.597,-1.649 10,-2 z"
       id="path1375" />
  </g>
</svg>
