<?xml version="1.0" encoding="UTF-8" standalone="no"?>
<svg
   version="1.1"
   width="98.5"
   height="222.22247"
   style="clip-rule:evenodd;fill-rule:evenodd;image-rendering:optimizeQuality;shape-rendering:geometricPrecision;text-rendering:geometricPrecision"
   id="svg1400"
   xmlns="http://www.w3.org/2000/svg"
   xmlns:svg="http://www.w3.org/2000/svg">
  <defs
     id="defs1400" />
  <g
     id="g1076"
     transform="translate(-838,-781.5)">
    <path
       style="opacity:1"
       fill="#1c1f20"
       d="m 892.5,876.5 c -0.667,0 -1.333,0 -2,0 -2.837,-1.902 -6.171,-2.569 -10,-2 -0.067,1.459 0.266,2.792 1,4 3.125,0.979 6.458,1.313 10,1 -3.125,0.979 -6.458,1.313 -10,1 0.762,4.048 3.096,5.048 7,3 2,0.667 4,1.333 6,2 -3.209,-0.089 -6.375,0.244 -9.5,1 -2.009,-0.258 -3.843,-0.925 -5.5,-2 0,-0.667 0,-1.333 0,-2 1.276,-0.886 1.276,-1.886 0,-3 -1.909,-0.848 -3.909,-1.182 -6,-1 0.667,-0.667 1.333,-1.333 2,-2 1,0 2,0 3,0 0,-1 0,-2 0,-3 -12.423,0.036 -22.589,-4.631 -30.5,-14 -0.667,-1.333 -1.333,-2.667 -2,-4 -0.873,-12.663 -1.206,-25.33 -1,-38 8.892,-25.539 26.725,-36.039 53.5,-31.5 2.115,0.557 4.115,1.391 6,2.5 0.192,-2.305 0.526,-4.638 1,-7 3.284,1.617 5.951,3.95 8,7 4.015,-1.398 7.681,-0.731 11,2 -1.836,1.419 -3.836,2.586 -6,3.5 11.817,8.47 16.983,19.97 15.5,34.5 -1.75,8.83 -4.083,17.497 -7,26 -3.23,7.563 -8.73,12.729 -16.5,15.5 -5.846,2.003 -11.846,3.169 -18,3.5 0,1 0,2 0,3 z"
       id="path1076" />
  </g>
  <g
     id="g1077"
     transform="translate(-838,-781.5)">
    <path
       style="opacity:1"
       fill="#5790b7"
       d="m 852.5,805.5 c 4.031,3.234 8.698,4.901 14,5 0,0.333 0,0.667 0,1 -7.888,2.063 -13.888,6.563 -18,13.5 0.392,1.011 1.059,1.511 2,1.5 -1.419,1.836 -2.586,3.836 -3.5,6 -1.923,-9.891 -0.089,-18.891 5.5,-27 z"
       id="path1077" />
  </g>
  <g
     id="g1078"
     transform="translate(-838,-781.5)">
    <path
       style="opacity:1"
       fill="#4f8bb6"
       d="m 868.5,811.5 c 3.446,1.187 7.113,1.854 11,2 -8.983,3.507 -17.983,7.174 -27,11 -0.468,-1.613 0.199,-3.113 2,-4.5 3.86,-2.761 7.86,-5.261 12,-7.5 0.667,-0.333 1.333,-0.667 2,-1 z"
       id="path1078" />
  </g>
  <g
     id="g1079"
     transform="translate(-838,-781.5)">
    <path
       style="opacity:1"
       fill="#b5cbcb"
       d="m 891.5,811.5 c 0,-0.333 0,-0.667 0,-1 2.356,-1.075 4.689,-1.075 7,0 -0.848,1.491 -2.181,2.158 -4,2 -1.226,-0.02 -2.226,-0.353 -3,-1 z"
       id="path1079" />
  </g>
  <g
     id="g1080"
     transform="translate(-838,-781.5)">
    <path
       style="opacity:1"
       fill="#8abbd2"
       d="m 879.5,806.5 c 2.737,0.717 5.07,2.05 7,4 -2.009,1.565 -4.343,2.565 -7,3 -3.887,-0.146 -7.554,-0.813 -11,-2 3.375,-2.239 7.041,-3.906 11,-5 z"
       id="path1080" />
  </g>
  <g
     id="g1081"
     transform="translate(-838,-781.5)">
    <path
       style="opacity:1"
       fill="#234a64"
       d="m 877.5,804.5 c 2.493,-0.369 3.16,0.297 2,2 -3.959,1.094 -7.625,2.761 -11,5 -0.667,0.333 -1.333,0.667 -2,1 0,-0.333 0,-0.667 0,-1 0,-0.333 0,-0.667 0,-1 3.862,-1.762 7.528,-3.762 11,-6 z"
       id="path1081" />
  </g>
  <g
     id="g1082"
     transform="translate(-838,-781.5)">
    <path
       style="opacity:1"
       fill="#5493bc"
       d="m 921.5,799.5 c 2.643,3.279 2.643,6.612 0,10 -2.14,0.973 -3.807,2.473 -5,4.5 -2.907,0.718 -5.574,0.218 -8,-1.5 0.285,-1.788 -0.048,-3.455 -1,-5 -7.879,7.772 -17.213,12.605 -28,14.5 4.168,-3.336 8.168,-6.836 12,-10.5 0.774,0.647 1.774,0.98 3,1 1.819,0.158 3.152,-0.509 4,-2 -2.311,-1.075 -4.644,-1.075 -7,0 0.453,-0.958 1.119,-1.792 2,-2.5 -0.333,-0.167 -0.667,-0.333 -1,-0.5 -2.034,1.059 -4.034,2.059 -6,3 -1.93,-1.95 -4.263,-3.283 -7,-4 1.16,-1.703 0.493,-2.369 -2,-2 -6.479,-2.121 -9.812,-6.454 -10,-13 11.955,-6.099 24.289,-6.599 37,-1.5 1.185,1.353 2.519,2.52 4,3.5 -0.527,-2.525 -0.527,-5.192 0,-8 1.45,1.155 2.45,2.655 3,4.5 3.018,-0.499 6.018,-0.332 9,0.5 -1.836,1.419 -3.836,2.586 -6,3.5 2.766,1.371 5.099,3.204 7,5.5 z"
       id="path1082" />
  </g>
  <g
     id="g1083"
     transform="translate(-838,-781.5)">
    <path
       style="opacity:1"
       fill="#91bfd8"
       d="m 867.5,791.5 c 0.188,6.546 3.521,10.879 10,13 -3.472,2.238 -7.138,4.238 -11,6 -5.302,-0.099 -9.969,-1.766 -14,-5 3.717,-6.05 8.717,-10.717 15,-14 z"
       id="path1083" />
  </g>
  <g
     id="g1086"
     transform="translate(-838,-781.5)">
    <path
       style="opacity:1"
       fill="#4d8ab8"
       d="m 921.5,799.5 c 7.464,5.43 11.13,12.93 11,22.5 -0.131,5.286 -0.964,10.453 -2.5,15.5 -0.487,-3.298 -1.653,-6.298 -3.5,-9 -1.333,5.686 -2.667,11.353 -4,17 -0.667,-3.667 -1.333,-7.333 -2,-11 -6.077,-6.151 -10.077,-13.484 -12,-22 2.426,1.718 5.093,2.218 8,1.5 1.193,-2.027 2.86,-3.527 5,-4.5 2.643,-3.388 2.643,-6.721 0,-10 z"
       id="path1086" />
  </g>
  <g
     id="g1097"
     transform="translate(-838,-781.5)">
    <path
       style="opacity:1"
       fill="#f3f3f4"
       d="m 917.5,853.5 c -5.192,8.613 -12.859,13.78 -23,15.5 -1.256,0.417 -1.923,1.25 -2,2.5 -8.719,0.297 -17.386,-0.203 -26,-1.5 -16.718,-5.591 -22.884,-17.091 -18.5,-34.5 0.739,-3.562 2.239,-6.728 4.5,-9.5 11.646,-3.654 22.979,-8.154 34,-13.5 0.333,0.167 0.667,0.333 1,0.5 -4.189,3.69 -8.522,7.19 -13,10.5 12.413,-0.088 23.246,-4.422 32.5,-13 0.522,10.042 4.522,18.376 12,25 0.623,6.1 0.123,12.1 -1.5,18 z"
       id="path1097" />
  </g>
  <g
     id="g1098"
     transform="translate(-838,-781.5)">
    <path
       style="opacity:1"
       fill="#050506"
       d="m 899.5,822.5 c 8.51,-0.49 12.843,3.51 13,12 -0.044,10.388 -5.044,14.388 -15,12 -5.091,-5.515 -6.258,-11.848 -3.5,-19 1.73,-1.902 3.563,-3.569 5.5,-5 z"
       id="path1098" />
  </g>
  <g
     id="g1099"
     transform="translate(-838,-781.5)">
    <path
       style="opacity:1"
       fill="#0c0d0d"
       d="m 862.5,822.5 c 7.13,0.798 10.797,4.798 11,12 0.222,6.914 -2.945,11.247 -9.5,13 -6.546,-1.728 -9.713,-6.061 -9.5,-13 0.696,-5.412 3.363,-9.412 8,-12 z"
       id="path1099" />
  </g>
  <g
     id="g1103"
     transform="translate(-838,-781.5)">
    <path
       style="opacity:1"
       fill="#c5c5c5"
       d="m 899.5,822.5 c -1.937,1.431 -3.77,3.098 -5.5,5 -2.758,7.152 -1.591,13.485 3.5,19 -2.922,-0.018 -5.088,-1.684 -6.5,-5 -0.667,-4.333 -0.667,-8.667 0,-13 1.641,-3.823 4.474,-5.823 8.5,-6 z"
       id="path1103" />
  </g>
  <g
     id="g1104"
     transform="translate(-838,-781.5)">
    <path
       style="opacity:1"
       fill="#335977"
       d="m 920.5,834.5 c 0.667,3.667 1.333,7.333 2,11 -0.487,0.973 -0.987,1.973 -1.5,3 -0.499,-4.655 -0.666,-9.321 -0.5,-14 z"
       id="path1104" />
  </g>
  <g
     id="g1105"
     transform="translate(-838,-781.5)">
    <path
       style="opacity:1"
       fill="#19191a"
       d="m 878.5,840.5 c 4.516,-0.019 6.516,2.314 6,7 -2.827,-1.927 -5.827,-2.594 -9,-2 0.76,-1.86 1.76,-3.527 3,-5 z"
       id="path1105" />
  </g>
  <g
     id="g1107"
     transform="translate(-838,-781.5)">
    <path
       style="opacity:1"
       fill="#100e0d"
       d="m 890.5,850.5 c 2.027,-0.162 4.027,0.005 6,0.5 1.596,7.138 -1.071,12.138 -8,15 -8.471,2.842 -15.304,0.676 -20.5,-6.5 -0.769,-2.599 -0.602,-5.099 0.5,-7.5 4.146,0.238 8.313,0.738 12.5,1.5 3.565,-0.048 6.732,-1.048 9.5,-3 z"
       id="path1107" />
  </g>
  <g
     id="g1117"
     transform="translate(-838,-781.5)">
    <path
       style="opacity:1"
       fill="#e76259"
       d="m 882.5,858.5 c 3.018,-0.165 6.018,0.002 9,0.5 0.808,0.308 1.475,0.808 2,1.5 -4.235,4.023 -9.235,5.523 -15,4.5 -0.951,-0.718 -1.117,-1.551 -0.5,-2.5 1.397,-1.57 2.897,-2.904 4.5,-4 z"
       id="path1117" />
  </g>
  <g
     id="g1119"
     transform="translate(-838,-781.5)">
    <path
       style="opacity:1"
       fill="#d2d2d0"
       d="m 892.5,871.5 c 0.077,-1.25 0.744,-2.083 2,-2.5 10.141,-1.72 17.808,-6.887 23,-15.5 1.517,-0.011 2.684,-0.677 3.5,-2 3.198,-5.595 5.198,-11.595 6,-18 2.707,14.42 -2.126,25.587 -14.5,33.5 -6.413,2.654 -13.08,4.154 -20,4.5 z"
       id="path1119" />
  </g>
  <g
     id="g1141"
     transform="translate(-838,-781.5)">
    <path
       style="opacity:1"
       fill="#d3d3d2"
       d="m 890.5,876.5 c -0.111,0.617 -0.444,1.117 -1,1.5 -2.646,0.497 -5.313,0.664 -8,0.5 -0.734,-1.208 -1.067,-2.541 -1,-4 3.829,-0.569 7.163,0.098 10,2 z"
       id="path1141" />
  </g>
  <g
     id="g1143"
     transform="translate(-838,-781.5)">
    <path
       style="opacity:1"
       fill="#040404"
       d="m 875.5,876.5 c -0.667,0.667 -1.333,1.333 -2,2 -1.184,1.188 -1.184,2.355 0,3.5 1.973,0.495 3.973,0.662 6,0.5 0,0.667 0,1.333 0,2 -2.424,-0.308 -4.757,0.026 -7,1 1.222,2.478 3.222,3.478 6,3 0,1 0,2 0,3 2.687,0.164 5.354,-0.003 8,-0.5 2.85,-1.651 5.517,-3.484 8,-5.5 -2,-0.667 -4,-1.333 -6,-2 2.469,-0.817 5.135,-1.317 8,-1.5 1.537,-1.11 2.203,-2.61 2,-4.5 -2.465,0.267 -4.799,0.934 -7,2 -3.542,0.313 -6.875,-0.021 -10,-1 2.687,0.164 5.354,-0.003 8,-0.5 0.556,-0.383 0.889,-0.883 1,-1.5 0.667,0 1.333,0 2,0 16.141,-2.369 26.641,3.964 31.5,19 -0.383,0.556 -0.883,0.889 -1.5,1 -1,0.333 -1.667,1 -2,2 -1.333,1 -2.667,2 -4,3 -0.667,1 -1.333,2 -2,3 -1.624,-0.14 -2.79,0.527 -3.5,2 -0.824,6.11 -0.324,12.11 1.5,18 -1.079,2.08 -2.745,3.413 -5,4 -1.495,0.489 -2.829,1.155 -4,2 -4.767,0.174 -9.1,1.507 -13,4 -2.705,-2.081 -5.705,-2.415 -9,-1 1.944,1.301 3.944,2.301 6,3 -4.744,0.46 -8.744,-1.04 -12,-4.5 -3.813,-1.772 -7.813,-2.605 -12,-2.5 -0.667,-0.667 -1.333,-1.333 -2,-2 -1.526,-0.992 -2.193,-2.492 -2,-4.5 0.607,-3.143 0.941,-6.31 1,-9.5 0.295,-2.235 -0.039,-4.235 -1,-6 0.356,-3.276 -0.644,-5.943 -3,-8 -0.79,-0.901 -1.79,-1.568 -3,-2 -1.011,-1.902 -1.178,-3.902 -0.5,-6 2.377,-3.588 4.877,-7.088 7.5,-10.5 4.408,-3.413 9.408,-4.913 15,-4.5 z"
       id="path1143" />
  </g>
  <g
     id="g1148"
     transform="translate(-838,-781.5)">
    <path
       style="opacity:1"
       fill="#d2d3d3"
       d="m 873.5,878.5 c 2.091,-0.182 4.091,0.152 6,1 1.276,1.114 1.276,2.114 0,3 -2.027,0.162 -4.027,-0.005 -6,-0.5 -1.184,-1.145 -1.184,-2.312 0,-3.5 z"
       id="path1148" />
  </g>
  <g
     id="g1150"
     transform="translate(-838,-781.5)">
    <path
       style="opacity:1"
       fill="#eaeae9"
       d="m 888.5,883.5 c -3.904,2.048 -6.238,1.048 -7,-3 3.542,0.313 6.875,-0.021 10,-1 2.201,-1.066 4.535,-1.733 7,-2 0.203,1.89 -0.463,3.39 -2,4.5 -2.865,0.183 -5.531,0.683 -8,1.5 z"
       id="path1150" />
  </g>
  <g
     id="g1158"
     transform="translate(-838,-781.5)">
    <path
       style="opacity:1"
       fill="#e1e2e1"
       d="m 879.5,884.5 c 1.657,1.075 3.491,1.742 5.5,2 3.125,-0.756 6.291,-1.089 9.5,-1 -2.483,2.016 -5.15,3.849 -8,5.5 -2.646,0.497 -5.313,0.664 -8,0.5 0,-1 0,-2 0,-3 -2.778,0.478 -4.778,-0.522 -6,-3 2.243,-0.974 4.576,-1.308 7,-1 z"
       id="path1158" />
  </g>
  <g
     id="g1221"
     transform="translate(-838,-781.5)">
    <path
       style="opacity:1"
       fill="#eeeff0"
       d="m 920.5,898.5 c 1.643,2.473 3.81,4.473 6.5,6 0.483,0.948 0.649,1.948 0.5,3 -2.778,-0.478 -4.778,0.522 -6,3 -1.189,0.929 -2.522,1.262 -4,1 0.04,-3.381 -0.293,-6.714 -1,-10 1.333,-1 2.667,-2 4,-3 z"
       id="path1221" />
  </g>
  <g
     id="g1246"
     transform="translate(-838,-781.5)">
    <path
       style="opacity:1"
       fill="#e7e7e9"
       d="m 856.5,899.5 c 2.356,2.057 3.356,4.724 3,8 0,1.667 0,3.333 0,5 -2.985,-1.945 -6.318,-2.945 -10,-3 -0.157,-1.373 0.01,-2.707 0.5,-4 2.69,-1.527 4.857,-3.527 6.5,-6 z"
       id="path1246" />
  </g>
  <g
     id="g1274"
     transform="translate(-838,-781.5)">
    <path
       style="opacity:1"
       fill="#1a1a19"
       d="m 853.5,897.5 c 1.21,0.432 2.21,1.099 3,2 -1.643,2.473 -3.81,4.473 -6.5,6 -0.49,1.293 -0.657,2.627 -0.5,4 3.682,0.055 7.015,1.055 10,3 0,-1.667 0,-3.333 0,-5 0.961,1.765 1.295,3.765 1,6 -1.773,0.888 -3.106,2.221 -4,4 -1.199,6.595 -3.199,12.929 -6,19 0.47,2.274 1.47,4.274 3,6 -0.82,1.611 -2.154,2.278 -4,2 0.591,-0.651 1.257,-1.318 2,-2 -0.861,-2.411 -2.194,-4.411 -4,-6 -0.333,0 -0.667,0 -1,0 0,-0.333 0,-0.667 0,-1 0.996,0.086 1.829,-0.248 2.5,-1 4.408,-7.057 6.242,-14.723 5.5,-23 -1.333,0 -2.667,0 -4,0 0.166,4.346 -10e-4,8.679 -0.5,13 -0.705,2.976 -1.871,5.642 -3.5,8 -0.333,0 -0.667,0 -1,0 -0.228,-6.816 1.105,-13.316 4,-19.5 -0.333,-0.5 -0.667,-1 -1,-1.5 -3.386,5.871 -5.386,12.204 -6,19 -0.904,-0.709 -1.237,-1.709 -1,-3 -0.162,-2.027 0.005,-4.027 0.5,-6 2.069,-5.369 4.069,-10.702 6,-16 2.903,-2.046 4.736,-4.713 5.5,-8 z"
       id="path1274" />
  </g>
  <g
     id="g1287"
     transform="translate(-838,-781.5)">
    <path
       style="opacity:1"
       fill="#e5e6e8"
       d="m 845.5,932.5 c -0.311,0.978 -0.978,1.645 -2,2 -0.929,-1.189 -1.262,-2.522 -1,-4 0.614,-6.796 2.614,-13.129 6,-19 0.333,0.5 0.667,1 1,1.5 -2.895,6.184 -4.228,12.684 -4,19.5 z"
       id="path1287" />
  </g>
  <g
     id="g1289"
     transform="translate(-838,-781.5)">
    <path
       style="opacity:1"
       fill="#e0e0e2"
       d="m 846.5,935.5 c 0,-1 0,-2 0,-3 1.629,-2.358 2.795,-5.024 3.5,-8 0.499,-4.321 0.666,-8.654 0.5,-13 1.333,0 2.667,0 4,0 0.742,8.277 -1.092,15.943 -5.5,23 -0.671,0.752 -1.504,1.086 -2.5,1 z"
       id="path1289" />
  </g>
  <g
     id="g1314"
     transform="translate(-838,-781.5)">
    <path
       style="opacity:1"
       fill="#292827"
       d="m 922.5,896.5 c 1.26,3.096 3.426,5.429 6.5,7 1.126,5.713 2.46,11.38 4,17 -0.155,8.232 1.011,16.232 3.5,24 -0.376,1.883 -1.376,3.383 -3,4.5 -2.617,0.822 -5.284,1.322 -8,1.5 0.308,-2.424 -0.026,-4.757 -1,-7 -2.37,1.598 -4.036,1.098 -5,-1.5 1.333,-2 2.667,-4 4,-6 -2.462,-6.932 -3.628,-14.099 -3.5,-21.5 -3.774,-2.184 -5.607,-5.517 -5.5,-10 0.667,-1 1.333,-2 2,-3 0.707,3.286 1.04,6.619 1,10 1.478,0.262 2.811,-0.071 4,-1 1.222,-2.478 3.222,-3.478 6,-3 0.149,-1.052 -0.017,-2.052 -0.5,-3 -2.69,-1.527 -4.857,-3.527 -6.5,-6 0.333,-1 1,-1.667 2,-2 z"
       id="path1314" />
  </g>
  <g
     id="g1315"
     transform="translate(-838,-781.5)">
    <path
       style="opacity:1"
       fill="#e5e5e6"
       d="m 923.5,909.5 c 1.44,0.863 2.774,0.863 4,0 1.306,1.412 2.14,3.079 2.5,5 1.329,6.592 1.829,13.259 1.5,20 -1,0 -2,0 -3,0 -0.089,-3.209 0.244,-6.375 1,-9.5 -1.1,-4.634 -2.6,-9.134 -4.5,-13.5 -1.072,7.246 -0.238,14.246 2.5,21 0.047,1.5 -0.619,2.5 -2,3 -3.976,-8.473 -4.643,-17.14 -2,-26 z"
       id="path1315" />
  </g>
  <g
     id="g1320"
     transform="translate(-838,-781.5)">
    <path
       style="opacity:1"
       fill="#d8d8d9"
       d="m 925.5,936.5 c 2.357,-0.163 4.69,0.003 7,0.5 0.837,1.011 1.17,2.178 1,3.5 -1.175,-0.219 -2.175,0.114 -3,1 1.423,7.327 0.756,7.66 -2,1 -0.333,0.167 -0.667,0.333 -1,0.5 1.26,1.814 1.26,3.647 0,5.5 -0.994,-3.952 -1.66,-7.952 -2,-12 z"
       id="path1320" />
  </g>
  <g
     id="g1330"
     transform="translate(-838,-781.5)">
    <path
       style="opacity:1"
       fill="#d1d0d3"
       d="m 923.5,938.5 c 1.367,1.593 1.034,2.926 -1,4 -0.333,-0.333 -0.667,-0.667 -1,-1 0.693,-1.018 1.359,-2.018 2,-3 z"
       id="path1330" />
  </g>
  <g
     id="g1333"
     transform="translate(-838,-781.5)">
    <path
       style="opacity:1"
       fill="#3f3f3f"
       d="m 841.5,927.5 c -0.237,1.291 0.096,2.291 1,3 -0.262,1.478 0.071,2.811 1,4 1.022,-0.355 1.689,-1.022 2,-2 0.333,0 0.667,0 1,0 0,1 0,2 0,3 0,0.333 0,0.667 0,1 -1.586,0.913 -3.086,0.913 -4.5,0 -2.533,3.586 -1.7,5.586 2.5,6 -0.162,2.027 0.005,4.027 0.5,6 1.154,-3.954 1.987,-7.954 2.5,-12 1.806,1.589 3.139,3.589 4,6 -0.743,0.682 -1.409,1.349 -2,2 -1.238,1.714 -1.905,3.714 -2,6 -3.441,-0.589 -6.608,-1.923 -9.5,-4 1.3,-6.373 2.467,-12.707 3.5,-19 z"
       id="path1333" />
  </g>
  <g
     id="g1334"
     transform="translate(-838,-781.5)">
    <path
       style="opacity:1"
       fill="#e4e5e4"
       d="m 846.5,936.5 c 0.333,0 0.667,0 1,0 -0.513,4.046 -1.346,8.046 -2.5,12 -0.495,-1.973 -0.662,-3.973 -0.5,-6 -4.2,-0.414 -5.033,-2.414 -2.5,-6 1.414,0.913 2.914,0.913 4.5,0 z"
       id="path1334" />
  </g>
  <g
     id="g1376"
     transform="translate(-838,-781.5)">
    <path
       style="opacity:1"
       fill="#d6d6d6"
       d="m 876.5,982.5 c 9.265,-0.595 18.265,0.072 27,2 -0.667,2.319 -0.834,4.653 -0.5,7 3.93,4.383 8.763,6.716 14.5,7 -1.987,0.843 -4.154,1.51 -6.5,2 -13.91,-0.37 -27.91,-0.37 -42,0 -2.368,-0.7 -4.534,-1.7 -6.5,-3 5.149,-1.816 10.315,-3.816 15.5,-6 0.597,-3.181 0.097,-6.181 -1.5,-9 z"
       id="path1376" />
  </g>
  <g
     id="g1380"
     transform="translate(-838,-781.5)">
    <path
       style="opacity:1"
       fill="#222221"
       d="m 861.5,927.5 c 0.667,0.667 1.333,1.333 2,2 -3.953,4.835 -3.953,9.669 0,14.5 3.229,0.356 4.729,2.19 4.5,5.5 2.627,2.488 5.46,2.655 8.5,0.5 1.06,-1.298 2.226,-2.465 3.5,-3.5 3.514,0.558 7.014,1.224 10.5,2 0.477,0.978 1.143,1.811 2,2.5 5.543,1.957 8.71,0.124 9.5,-5.5 6.631,-2.259 8.631,-6.592 6,-13 -1.11,-1.537 -2.61,-2.203 -4.5,-2 1.171,-0.845 2.505,-1.511 4,-2 3.963,5.501 3.963,11.001 0,16.5 1.652,1.47 2.652,3.303 3,5.5 -1.778,4.281 -0.944,7.947 2.5,11 0.463,4.676 0.296,9.343 -0.5,14 -0.052,3.241 0.615,6.241 2,9 2.427,2.058 5.093,3.891 8,5.5 1.399,1.062 2.399,2.395 3,4 -2.207,2.271 -4.874,3.771 -8,4.5 -5.737,-0.284 -10.57,-2.617 -14.5,-7 -0.334,-2.347 -0.167,-4.681 0.5,-7 1.129,-2.128 1.296,-4.461 0.5,-7 -3.494,-5.286 -4.994,-10.953 -4.5,-17 -0.554,-2.11 -1.388,-4.11 -2.5,-6 -4.315,-1.584 -8.482,-3.251 -12.5,-5 -3.937,0.085 -7.437,1.418 -10.5,4 -0.045,8.29 -0.045,16.623 0,25 0.662,1.484 1.496,2.817 2.5,4 1.597,2.819 2.097,5.819 1.5,9 -5.185,2.184 -10.351,4.184 -15.5,6 -3.73,-0.365 -6.73,-2.031 -9,-5 -0.047,-1.538 0.62,-2.538 2,-3 0.438,-0.065 0.772,0.101 1,0.5 -0.857,0.689 -1.523,1.522 -2,2.5 1.529,1.263 3.195,2.263 5,3 2.198,0.38 3.865,-0.287 5,-2 3.712,-0.528 7.379,-1.362 11,-2.5 0.837,-1.011 1.17,-2.178 1,-3.5 -5.499,-1.604 -10.833,-1.27 -16,1 -1.152,1.125 -2.152,1.125 -3,0 2.732,-1.366 5.399,-2.699 8,-4 0.813,-4.961 -0.353,-9.294 -3.5,-13 -0.564,-2.655 -1.064,-5.321 -1.5,-8 1.411,-5.78 2.411,-11.614 3,-17.5 -3.238,-2.145 -4.905,-5.145 -5,-9 0.602,-3.352 1.602,-6.519 3,-9.5 z"
       id="path1380" />
  </g>
  <g
     id="g1381"
     transform="translate(-838,-781.5)">
    <path
       style="opacity:1"
       fill="#ecebec"
       d="m 905.5,967.5 c 2,0 4,0 6,0 -1.649,5.468 -1.316,10.801 1,16 -1.987,1.827 -4.321,2.827 -7,3 0.166,-4.014 -10e-4,-8.014 -0.5,-12 -0.635,-1.466 -1.469,-2.8 -2.5,-4 1.27,-0.788 2.27,-1.788 3,-3 z"
       id="path1381" />
  </g>
  <g
     id="g1382"
     transform="translate(-838,-781.5)">
    <path
       style="opacity:1"
       fill="#ededed"
       d="m 863.5,967.5 c 2.667,0 5.333,0 8,0 -0.165,3.682 10e-4,7.348 0.5,11 1.903,1.941 2.736,4.274 2.5,7 -2.306,-0.493 -4.639,-0.826 -7,-1 0.164,-2.687 -0.003,-5.354 -0.5,-8 -1.953,-2.755 -3.12,-5.755 -3.5,-9 z"
       id="path1382" />
  </g>
  <g
     id="g1383"
     transform="translate(-838,-781.5)">
    <path
       style="opacity:1"
       fill="#e9e9e8"
       d="m 904.5,946.5 c 1.624,-0.14 2.79,0.527 3.5,2 -0.128,2.986 -0.128,5.986 0,9 0.615,1.616 1.615,2.949 3,4 0.49,1.293 0.657,2.627 0.5,4 -3.307,-0.437 -6.307,0.23 -9,2 -0.586,-0.209 -1.086,-0.543 -1.5,-1 -0.017,-4.393 -0.85,-8.56 -2.5,-12.5 3.068,-1.63 5.068,-4.13 6,-7.5 z"
       id="path1383" />
  </g>
  <g
     id="g1384"
     transform="translate(-838,-781.5)">
    <path
       style="opacity:1"
       fill="#ececec"
       d="m 864.5,947.5 c 1.101,1.348 2.101,2.848 3,4.5 1.293,0.49 2.627,0.657 4,0.5 -0.138,4.233 0.362,8.233 1.5,12 -3.443,-0.049 -6.943,0.118 -10.5,0.5 -0.923,-2.048 -0.423,-3.881 1.5,-5.5 -0.006,-4.096 0.16,-8.096 0.5,-12 z"
       id="path1384" />
  </g>
  <g
     id="g1385"
     transform="translate(-838,-781.5)">
    <path
       style="opacity:1"
       fill="#f8f8f8"
       d="m 903.5,984.5 c -8.735,-1.928 -17.735,-2.595 -27,-2 -1.004,-1.183 -1.838,-2.516 -2.5,-4 -0.045,-8.377 -0.045,-16.71 0,-25 3.063,-2.582 6.563,-3.915 10.5,-4 4.018,1.749 8.185,3.416 12.5,5 1.112,1.89 1.946,3.89 2.5,6 -0.494,6.047 1.006,11.714 4.5,17 0.796,2.539 0.629,4.872 -0.5,7 z"
       id="path1385" />
  </g>
  <g
     id="g1386"
     transform="translate(-838,-781.5)">
    <path
       style="opacity:1"
       fill="#edeceb"
       d="m 863.5,929.5 c 4.187,-0.105 8.187,0.728 12,2.5 3.256,3.46 7.256,4.96 12,4.5 1.21,-0.432 2.21,-1.099 3,-2 3.9,-2.493 8.233,-3.826 13,-4 1.89,-0.203 3.39,0.463 4.5,2 2.631,6.408 0.631,10.741 -6,13 -0.79,5.624 -3.957,7.457 -9.5,5.5 -0.857,-0.689 -1.523,-1.522 -2,-2.5 -3.486,-0.776 -6.986,-1.442 -10.5,-2 -1.274,1.035 -2.44,2.202 -3.5,3.5 -3.04,2.155 -5.873,1.988 -8.5,-0.5 0.229,-3.31 -1.271,-5.144 -4.5,-5.5 -3.953,-4.831 -3.953,-9.665 0,-14.5 z"
       id="path1386" />
  </g>
  <g
     id="g1387"
     transform="translate(-838,-781.5)">
    <path
       style="opacity:1"
       fill="#11100f"
       d="m 896.5,934.5 c 2,0 4,0 6,0 0.797,5.713 -1.703,9.046 -7.5,10 -1.833,-0.5 -3,-1.667 -3.5,-3.5 0.783,-2.938 2.45,-5.104 5,-6.5 z"
       id="path1387" />
  </g>
  <g
     id="g1388"
     transform="translate(-838,-781.5)">
    <path
       style="opacity:1"
       fill="#5f5d5d"
       d="m 890.5,934.5 c -0.79,0.901 -1.79,1.568 -3,2 -2.056,-0.699 -4.056,-1.699 -6,-3 3.295,-1.415 6.295,-1.081 9,1 z"
       id="path1388" />
  </g>
  <g
     id="g1389"
     transform="translate(-838,-781.5)">
    <path
       style="opacity:1"
       fill="#131312"
       d="m 867.5,933.5 c 6.012,0.181 9.178,3.181 9.5,9 -5.34,1.582 -9.173,-0.251 -11.5,-5.5 0.478,-1.303 1.145,-2.469 2,-3.5 z"
       id="path1389" />
  </g>
  <g
     id="g1395"
     transform="translate(-838,-781.5)">
    <path
       style="opacity:1"
       fill="#e2e2e2"
       d="m 865.5,984.5 c -2.601,1.301 -5.268,2.634 -8,4 -0.992,-0.172 -1.658,0.162 -2,1 -1.38,0.462 -2.047,1.462 -2,3 2.27,2.969 5.27,4.635 9,5 1.966,1.3 4.132,2.3 6.5,3 14.09,-0.37 28.09,-0.37 42,0 2.346,-0.49 4.513,-1.157 6.5,-2 3.126,-0.729 5.793,-2.229 8,-4.5 -0.601,-1.605 -1.601,-2.938 -3,-4 -2.907,-1.609 -5.573,-3.442 -8,-5.5 6.193,1.306 12.193,3.139 18,5.5 2.516,2.854 2.183,5.521 -1,8 -14.641,4.57 -29.641,6.4 -45,5.5 -11.753,0.28 -23.42,-0.56 -35,-2.5 -3.734,-1.517 -7.401,-3.184 -11,-5 -1.054,-1.388 -1.22,-2.888 -0.5,-4.5 1.41,-1.287 2.91,-2.454 4.5,-3.5 6.926,-1.649 13.926,-2.815 21,-3.5 z"
       id="path1395" />
  </g>
  <g
     id="g1396"
     transform="translate(-838,-781.5)">
    <path
       style="opacity:1"
       fill="#716f6f"
       d="m 919.5,991.5 c 0.962,2.486 1.795,2.486 2.5,0 1.91,2.664 1.077,4.33 -2.5,5 -1.71,-1.187 -3.21,-0.854 -4.5,1 -2.12,-0.64 -3.954,-1.64 -5.5,-3 3.509,-0.5 6.843,-1.5 10,-3 z"
       id="path1396" />
  </g>
  <g
     id="g1397"
     transform="translate(-838,-781.5)">
    <path
       style="opacity:1"
       fill="#cdcece"
       d="m 864.5,993.5 c -1.135,1.713 -2.802,2.38 -5,2 1.135,-1.713 2.802,-2.38 5,-2 z"
       id="path1397" />
  </g>
  <g
     id="g1398"
     transform="translate(-838,-781.5)">
    <path
       style="opacity:1"
       fill="#eeeeee"
       d="m 919.5,991.5 c -3.157,1.5 -6.491,2.5 -10,3 -1.979,-1.312 -3.645,-2.979 -5,-5 3.168,-1.766 6.501,-2.599 10,-2.5 1.667,1 3.333,2 5,3 1.238,0.69 1.238,1.19 0,1.5 z"
       id="path1398" />
  </g>
  <g
     id="g1399"
     transform="translate(-838,-781.5)">
    <path
       style="opacity:1"
       fill="#555554"
       d="m 855.5,989.5 c 0.342,-0.838 1.008,-1.172 2,-1 0.848,1.125 1.848,1.125 3,0 0.8,2.073 2.133,3.74 4,5 -2.198,-0.38 -3.865,0.287 -5,2 -1.805,-0.737 -3.471,-1.737 -5,-3 0.477,-0.978 1.143,-1.811 2,-2.5 -0.228,-0.399 -0.562,-0.565 -1,-0.5 z"
       id="path1399" />
  </g>
  <g
     id="g1400"
     transform="translate(-838,-781.5)">
    <path
       style="opacity:1"
       fill="#f0eff0"
       d="m 864.5,993.5 c -1.867,-1.26 -3.2,-2.927 -4,-5 5.167,-2.27 10.501,-2.604 16,-1 0.17,1.322 -0.163,2.489 -1,3.5 -3.621,1.138 -7.288,1.972 -11,2.5 z"
       id="path1400" />
  </g>
</svg>
