<?xml version="1.0" encoding="UTF-8" standalone="no"?>
<svg
   version="1.1"
   width="118.68235"
   height="223.55064"
   style="clip-rule:evenodd;fill-rule:evenodd;image-rendering:optimizeQuality;shape-rendering:geometricPrecision;text-rendering:geometricPrecision"
   id="svg1400"
   xmlns="http://www.w3.org/2000/svg"
   xmlns:svg="http://www.w3.org/2000/svg">
  <defs
     id="defs1400" />
  <g
     id="g3"
     transform="translate(-63.753654,-40.949596)">
    <path
       style="opacity:1"
       fill="#0b0b0b"
       d="m 145.5,130.5 c 1.215,-1.279 0.882,-2.279 -1,-3 4.767,-2.815 7.6,-7.149 8.5,-13 2.973,-9.808 3.973,-19.8077 3,-30 -1.133,-1.7112 -2.633,-2.2112 -4.5,-1.5 4.952,8.4922 3.286,15.4922 -5,21 -6.669,0.352 -10.835,-2.815 -12.5,-9.5 -0.667,-2.6667 -0.667,-5.3333 0,-8 1.559,-1.7166 2.392,-3.7166 2.5,-6 -3.682,0.1653 -7.348,-0.0014 -11,-0.5 -1.392,-2.7238 -2.558,-5.5571 -3.5,-8.5 -0.498,2.9816 -0.665,5.9816 -0.5,9 -3.079,0.2399 -6.079,-0.0934 -9,-1 -1.274,-2.867 -2.107,-5.867 -2.5,-9 -0.667,3.3333 -0.667,6.6667 0,10 4.301,4.4666 5.635,9.7999 4,16 -2.103,5.969 -6.27,8.136 -12.5,6.5 -4.6515,-4.5357 -6.1515,-10.0357 -4.5,-16.5 1.0298,-1.8464 2.1964,-3.5131 3.5,-5 0.789,-0.2828 1.456,-0.7828 2,-1.5 -1.973,-0.4955 -3.9727,-0.6621 -6,-0.5 0.1633,-2.3568 -0.0034,-4.6902 -0.5,-7 -0.7914,1.245 -1.2914,2.5783 -1.5,4 -1.2389,3.0889 -2.7389,6.0889 -4.5,9 -0.3453,6.3468 -0.8453,12.6802 -1.5,19 1.9294,13.263 9.5961,20.93 23,23 0.282,1.278 0.949,2.278 2,3 -18.1206,8.027 -28.6206,2.361 -31.5,-17 -2.9033,-19.2574 0.43,-37.2574 10,-54 12.585,-15.3097 28.752,-21.1431 48.5,-17.5 17.29,3.5537 29.457,13.3871 36.5,29.5 7.248,17.7272 7.248,35.394 0,53 -9.254,7.137 -19.754,10.137 -31.5,9 0,-1 0,-2 0,-3 z"
       id="path3" />
  </g>
  <g
     id="g6"
     transform="translate(-63.753654,-40.949596)">
    <path
       style="opacity:1"
       fill="#4d4d4d"
       d="m 158.5,53.5 c 5.539,2.5326 9.872,6.5326 13,12 -0.209,0.586 -0.543,1.086 -1,1.5 -5.301,1.665 -10.635,2.165 -16,1.5 -0.902,-2.5398 -1.902,-5.0398 -3,-7.5 3.216,-1.7147 5.549,-4.2147 7,-7.5 z"
       id="path6" />
  </g>
  <g
     id="g9"
     transform="translate(-63.753654,-40.949596)">
    <path
       style="opacity:1"
       fill="#5a5959"
       d="m 98.5,55.5 c 1.873,1.3635 3.539,3.0301 5,5 1.916,-0.7483 3.916,-0.7483 6,0 -0.667,2.6667 -1.333,5.3333 -2,8 -2.104,0.2989 -4.104,-0.0344 -6,-1 -0.387,-1.2199 -1.22,-1.8865 -2.5,-2 -2.1538,0.8204 -3.6538,2.3204 -4.5,4.5 -1.7588,0.7975 -3.4255,0.6309 -5,-0.5 2.5119,-5.0348 5.5119,-9.7014 9,-14 z"
       id="path9" />
  </g>
  <g
     id="g10"
     transform="translate(-63.753654,-40.949596)">
    <path
       style="opacity:1"
       fill="#454444"
       d="m 115.5,63.5 c 1.208,0.7341 2.541,1.0674 4,1 0,1.6667 0,3.3333 0,5 -2,0 -4,0 -6,0 -0.247,-2.3583 0.419,-4.3583 2,-6 z"
       id="path10" />
  </g>
  <g
     id="g11"
     transform="translate(-63.753654,-40.949596)">
    <path
       style="opacity:1"
       fill="#4c4a4b"
       d="m 145.5,61.5 c 1.322,-0.17 2.489,0.1634 3.5,1 1.707,2.4088 2.54,5.0755 2.5,8 -9.333,0 -18.667,0 -28,0 0,-2 0,-4 0,-6 5.011,0.1659 10.011,-7e-4 15,-0.5 2.604,-0.3903 4.938,-1.2237 7,-2.5 z"
       id="path11" />
  </g>
  <g
     id="g14"
     transform="translate(-63.753654,-40.949596)">
    <path
       style="opacity:1"
       fill="#5d5b5a"
       d="m 100.5,81.5 c -1.4187,-0.9511 -3.0853,-1.2845 -5,-1 0.2678,-1.599 -0.0655,-2.9324 -1,-4 0.2086,-1.4217 0.7086,-2.755 1.5,-4 0.4966,2.3098 0.6633,4.6432 0.5,7 2.0273,-0.1621 4.027,0.0045 6,0.5 -0.544,0.7172 -1.211,1.2172 -2,1.5 z"
       id="path14" />
  </g>
  <g
     id="g16"
     transform="translate(-63.753654,-40.949596)">
    <path
       style="opacity:1"
       fill="#f0f0ef"
       d="m 144.5,127.5 c -11.059,1.178 -22.059,1.178 -33,0 -13.4039,-2.07 -21.0706,-9.737 -23,-23 0.6547,-6.3198 1.1547,-12.6532 1.5,-19 1.7611,-2.9111 3.2611,-5.9111 4.5,-9 0.9345,1.0676 1.2678,2.401 1,4 1.9147,-0.2845 3.5813,0.0489 5,1 -1.3036,1.4869 -2.4702,3.1536 -3.5,5 -1.6515,6.4643 -0.1515,11.9643 4.5,16.5 6.23,1.636 10.397,-0.531 12.5,-6.5 1.635,-6.2001 0.301,-11.5334 -4,-16 -0.667,-3.3333 -0.667,-6.6667 0,-10 0.393,3.133 1.226,6.133 2.5,9 2.921,0.9066 5.921,1.2399 9,1 -0.165,-3.0184 0.002,-6.0184 0.5,-9 0.942,2.9429 2.108,5.7762 3.5,8.5 3.652,0.4986 7.318,0.6653 11,0.5 -0.108,2.2834 -0.941,4.2834 -2.5,6 -0.667,2.6667 -0.667,5.3333 0,8 1.665,6.685 5.831,9.852 12.5,9.5 8.286,-5.5078 9.952,-12.5078 5,-21 1.867,-0.7112 3.367,-0.2112 4.5,1.5 0.973,10.1923 -0.027,20.192 -3,30 -0.9,5.851 -3.733,10.185 -8.5,13 z"
       id="path16" />
  </g>
  <g
     id="g36"
     transform="translate(-63.753654,-40.949596)">
    <path
       style="opacity:1"
       fill="#10100f"
       d="m 120.5,96.5 c 3.593,0.9298 5.259,3.2632 5,7 -1.89,0.203 -3.39,-0.463 -4.5,-2 -2.711,2.665 -3.711,1.998 -3,-2 1.045,-0.8734 1.878,-1.8734 2.5,-3 z"
       id="path36" />
  </g>
  <g
     id="g44"
     transform="translate(-63.753654,-40.949596)">
    <path
       style="opacity:1"
       fill="#141312"
       d="m 133.5,107.5 c 1.667,0 3.333,0 5,0 -0.656,13.356 -7.656,18.523 -21,15.5 -6.277,-2.396 -9.11,-6.896 -8.5,-13.5 1.726,-1.076 3.559,-1.243 5.5,-0.5 -1.473,0.71 -2.14,1.876 -2,3.5 1,0 2,0 3,0 0,-1 0,-2 0,-3 6.262,0.395 12.262,-0.272 18,-2 z"
       id="path44" />
  </g>
  <g
     id="g45"
     transform="translate(-63.753654,-40.949596)">
    <path
       style="opacity:1"
       fill="#e4e4e6"
       d="m 125.5,110.5 c 1.667,0 3.333,0 5,0 0,1 0,2 0,3 -1.667,0 -3.333,0 -5,0 0,-1 0,-2 0,-3 z"
       id="path45" />
  </g>
  <g
     id="g46"
     transform="translate(-63.753654,-40.949596)">
    <path
       style="opacity:1"
       fill="#d9dadd"
       d="m 120.5,110.5 c -0.057,1.109 -0.39,2.109 -1,3 -4.143,-1.814 -3.81,-2.814 1,-3 z"
       id="path46" />
  </g>
  <g
     id="g47"
     transform="translate(-63.753654,-40.949596)">
    <path
       style="opacity:1"
       fill="#727274"
       d="m 120.5,110.5 c 1.333,0 2.667,0 4,0 0.237,1.291 -0.096,2.291 -1,3 -0.667,-2.667 -1.333,-2.667 -2,0 -0.667,0 -1.333,0 -2,0 0.61,-0.891 0.943,-1.891 1,-3 z"
       id="path47" />
  </g>
  <g
     id="g48"
     transform="translate(-63.753654,-40.949596)">
    <path
       style="opacity:1"
       fill="#fcfcff"
       d="m 123.5,113.5 c -0.667,0 -1.333,0 -2,0 0.667,-2.667 1.333,-2.667 2,0 z"
       id="path48" />
  </g>
  <g
     id="g49"
     transform="translate(-63.753654,-40.949596)">
    <path
       style="opacity:1"
       fill="#dbdbde"
       d="m 132.5,109.5 c 1.478,-0.262 2.811,0.071 4,1 -0.82,1.611 -2.154,2.278 -4,2 0,-1 0,-2 0,-3 z"
       id="path49" />
  </g>
  <g
     id="g50"
     transform="translate(-63.753654,-40.949596)">
    <path
       style="opacity:1"
       fill="#c65253"
       d="m 121.5,115.5 c 4.055,-0.324 8.055,0.009 12,1 -3.462,5.701 -8.295,7.367 -14.5,5 -0.966,-2.84 -0.133,-4.84 2.5,-6 z"
       id="path50" />
  </g>
  <g
     id="g54"
     transform="translate(-63.753654,-40.949596)">
    <path
       style="opacity:1"
       fill="#262524"
       d="m 111.5,127.5 c 10.941,1.178 21.941,1.178 33,0 1.882,0.721 2.215,1.721 1,3 -3.462,-0.44 -7.129,-0.44 -11,0 0,1 0,2 0,3 3.213,-0.31 6.213,0.023 9,1 -0.667,0 -1,0.333 -1,1 -6.484,1.439 -13.151,2.106 -20,2 -0.345,2.988 0.988,4.321 4,4 5.372,-1.193 10.538,-2.86 15.5,-5 0.232,1.237 0.732,2.237 1.5,3 0,0.667 -0.333,1 -1,1 -2.245,2.82 -4.245,5.82 -6,9 -2.986,1.985 -6.32,3.152 -10,3.5 -1.238,0.69 -1.238,1.19 0,1.5 -0.709,0.904 -1.709,1.237 -3,1 -3.632,-2.639 -6.632,-5.972 -9,-10 0.667,-1 1.333,-2 2,-3 1.051,-0.722 1.718,-1.722 2,-3 3.055,0.591 3.722,-0.742 2,-4 0,-0.333 0,-0.667 0,-1 0.219,-1.175 -0.114,-2.175 -1,-3 -1.909,-0.848 -3.909,-1.182 -6,-1 -1.051,-0.722 -1.718,-1.722 -2,-3 z"
       id="path54" />
  </g>
  <g
     id="g56"
     transform="translate(-63.753654,-40.949596)">
    <path
       style="opacity:1"
       fill="#dedddd"
       d="m 122.5,131.5 c 3.333,0 6.667,0 10,0 -0.374,3.12 -2.207,4.454 -5.5,4 -3.263,0.568 -4.763,-0.766 -4.5,-4 z"
       id="path56" />
  </g>
  <g
     id="g57"
     transform="translate(-63.753654,-40.949596)">
    <path
       style="opacity:1"
       fill="#040404"
       d="m 120.5,134.5 c 0,0.333 0,0.667 0,1 -2.292,-0.256 -4.459,0.077 -6.5,1 0.317,2.273 1.817,3.273 4.5,3 -0.282,1.278 -0.949,2.278 -2,3 -0.667,1 -1.333,2 -2,3 -0.495,-1.982 -0.995,-3.982 -1.5,-6 -0.754,8.165 2.746,13.498 10.5,16 1.291,0.237 2.291,-0.096 3,-1 4.273,0.027 7.607,-1.639 10,-5 3.507,-1.866 5.507,-4.866 6,-9 0.667,0 1,-0.333 1,-1 0.268,-1.599 -0.066,-2.932 -1,-4 0,-0.667 0.333,-1 1,-1 3.832,0.382 7.165,1.715 10,4 -1.433,2.058 -2.1,4.392 -2,7 -0.409,3.355 0.258,6.355 2,9 -0.841,1.879 -1.175,3.879 -1,6 -1.578,4.211 -2.078,8.544 -1.5,13 4.876,10.048 8.376,20.548 10.5,31.5 0.146,2.034 -0.52,3.701 -2,5 -2.504,0.698 -4.837,1.531 -7,2.5 -0.667,1.667 -1.333,3.333 -2,5 -0.734,-1.208 -1.067,-2.541 -1,-4 -2.9,-0.22 -5.567,0.446 -8,2 0.627,0.917 0.961,1.917 1,3 0,0.667 -0.333,1 -1,1 -0.039,-1.083 -0.373,-2.083 -1,-3 -7.638,-0.997 -15.304,-1.331 -23,-1 -2.448,-0.973 -5.115,-1.306 -8,-1 -0.333,0 -0.667,0 -1,0 -1.602,-1.574 -3.602,-2.241 -6,-2 -4.3373,-0.175 -7.004,-2.342 -8,-6.5 2.3622,-12.305 5.862,-24.138 10.5,-35.5 -2.224,-6.3 -3.557,-6.3 -4,0 -0.833,0.833 -1.6667,1.667 -2.5,2.5 -2.9453,1.131 -5.9453,1.964 -9,2.5 1,-0.667 2,-1.333 3,-2 -4.5167,-2.678 -9.1833,-6.011 -14,-10 0.3417,-0.838 1.0084,-1.172 2,-1 4.6026,0.802 7.936,3.302 10,7.5 1.2932,0.49 2.6266,0.657 4,0.5 0,-1.333 0,-2.667 0,-4 0,-0.667 0.3333,-1 1,-1 0.6646,1.869 1.3313,3.869 2,6 0.586,-0.209 1.086,-0.543 1.5,-1 0.9968,-5.961 1.663,-11.961 2,-18 0.898,-3.455 2.065,-6.789 3.5,-10 0,-0.667 0,-1.333 0,-2 0.703,-2.216 2.036,-4.049 4,-5.5 3.986,-0.499 7.986,-0.666 12,-0.5 z"
       id="path57" />
  </g>
  <g
     id="g59"
     transform="translate(-63.753654,-40.949596)">
    <path
       style="opacity:1"
       fill="#c7c5c4"
       d="m 120.5,135.5 c 1.722,3.258 1.055,4.591 -2,4 -2.683,0.273 -4.183,-0.727 -4.5,-3 2.041,-0.923 4.208,-1.256 6.5,-1 z"
       id="path59" />
  </g>
  <g
     id="g64"
     transform="translate(-63.753654,-40.949596)">
    <path
       style="opacity:1"
       fill="#e6e3e2"
       d="m 142.5,135.5 c 0.934,1.068 1.268,2.401 1,4 -0.768,-0.763 -1.268,-1.763 -1.5,-3 -4.962,2.14 -10.128,3.807 -15.5,5 -3.012,0.321 -4.345,-1.012 -4,-4 6.849,0.106 13.516,-0.561 20,-2 z"
       id="path64" />
  </g>
  <g
     id="g66"
     transform="translate(-63.753654,-40.949596)">
    <path
       style="opacity:1"
       fill="#a3a2a4"
       d="m 114.5,145.5 c 2.368,4.028 5.368,7.361 9,10 -7.754,-2.502 -11.254,-7.835 -10.5,-16 0.505,2.018 1.005,4.018 1.5,6 z"
       id="path66" />
  </g>
  <g
     id="g70"
     transform="translate(-63.753654,-40.949596)">
    <path
       style="opacity:1"
       fill="#f1f0f0"
       d="m 116.5,142.5 c 3.762,0.152 7.428,0.819 11,2 3.099,-2.136 6.432,-2.47 10,-1 -3.175,1.632 -6.508,2.965 -10,4 -1.47,4.434 -3.97,5.101 -7.5,2 -0.49,-1.293 -0.657,-2.627 -0.5,-4 -1,0 -2,0 -3,0 0,-1 0,-2 0,-3 z"
       id="path70" />
  </g>
  <g
     id="g90"
     transform="translate(-63.753654,-40.949596)">
    <path
       style="opacity:1"
       fill="#b5b3b4"
       d="m 142.5,140.5 c -0.493,4.134 -2.493,7.134 -6,9 1.755,-3.18 3.755,-6.18 6,-9 z"
       id="path90" />
  </g>
  <g
     id="g111"
     transform="translate(-63.753654,-40.949596)">
    <path
       style="opacity:1"
       fill="#efeeed"
       d="m 153.5,154.5 c -1.742,-2.645 -2.409,-5.645 -2,-9 0.973,-1.291 1.973,-1.291 3,0 0.886,-0.825 1.219,-1.825 1,-3 1.89,-0.203 3.39,0.463 4.5,2 -0.257,8.165 3.076,14.165 10,18 0.49,1.293 0.657,2.627 0.5,4 -1.788,-0.285 -3.455,0.048 -5,1 -0.581,2.224 -1.914,3.057 -4,2.5 -0.701,-6.238 -3.368,-11.404 -8,-15.5 z"
       id="path111" />
  </g>
  <g
     id="g126"
     transform="translate(-63.753654,-40.949596)">
    <path
       style="opacity:1"
       fill="#acacab"
       d="m 136.5,149.5 c -2.393,3.361 -5.727,5.027 -10,5 -1.238,-0.31 -1.238,-0.81 0,-1.5 3.68,-0.348 7.014,-1.515 10,-3.5 z"
       id="path126" />
  </g>
  <g
     id="g138"
     transform="translate(-63.753654,-40.949596)">
    <path
       style="opacity:1"
       fill="#ebebec"
       d="m 104.5,142.5 c -1.435,3.211 -2.602,6.545 -3.5,10 -0.337,6.039 -1.0032,12.039 -2,18 -0.414,0.457 -0.914,0.791 -1.5,1 -0.6687,-2.131 -1.3354,-4.131 -2,-6 -1.3001,-1.327 -2.6335,-2.66 -4,-4 6.2652,-3.858 9.432,-9.524 9.5,-17 0.816,-1.323 1.983,-1.989 3.5,-2 z"
       id="path138" />
  </g>
  <g
     id="g144"
     transform="translate(-63.753654,-40.949596)">
    <path
       style="opacity:1"
       fill="#262725"
       d="m 104.5,140.5 c 0,0.667 0,1.333 0,2 -1.517,0.011 -2.684,0.677 -3.5,2 -0.068,7.476 -3.2348,13.142 -9.5,17 1.3665,1.34 2.6999,2.673 4,4 -0.6667,0 -1,0.333 -1,1 -5.3214,-3.494 -10.4881,-7.161 -15.5,-11 -1.5199,1.197 -2.6866,2.697 -3.5,4.5 1.8146,0.757 3.4812,1.59 5,2.5 -0.9916,-0.172 -1.6583,0.162 -2,1 -0.9822,-0.641 -1.9822,-1.307 -3,-2 -0.3333,0.333 -0.6667,0.667 -1,1 4.146,6.738 10.146,10.405 18,11 -1,0.667 -2,1.333 -3,2 -7.627,-2.315 -13.627,-6.815 -18,-13.5 -2.834,-0.045 -5.334,-0.879 -7.5,-2.5 -0.4501,-3.688 -0.2834,-7.354 0.5,-11 3.2654,0.292 6.2654,-0.375 9,-2 2.6082,1.544 3.9415,3.877 4,7 3.287,0.764 5.9537,2.597 8,5.5 6.3578,1.209 10.5244,-1.291 12.5,-7.5 -0.8757,-5.594 1.2909,-9.261 6.5,-11 z"
       id="path144" />
  </g>
  <g
     id="g145"
     transform="translate(-63.753654,-40.949596)">
    <path
       style="opacity:1"
       fill="#dededf"
       d="m 65.5,157.5 c 1.4778,-0.262 2.8112,0.071 4,1 -0.6667,0.333 -1.3333,0.667 -2,1 -1.2133,-0.247 -1.88,-0.914 -2,-2 z"
       id="path145" />
  </g>
  <g
     id="g146"
     transform="translate(-63.753654,-40.949596)">
    <path
       style="opacity:1"
       fill="#ebebec"
       d="m 72.5,154.5 c 1,0 2,0 3,0 -0.085,2.429 -1.085,4.429 -3,6 -1.0192,-1.96 -1.0192,-3.96 0,-6 z"
       id="path146" />
  </g>
  <g
     id="g147"
     transform="translate(-63.753654,-40.949596)">
    <path
       style="opacity:1"
       fill="#ecebee"
       d="m 64.5,154.5 c 0.5968,-0.639 1.4302,-0.972 2.5,-1 2.7374,-0.124 3.5707,0.876 2.5,3 -1.6955,-0.674 -3.3621,-1.341 -5,-2 z"
       id="path147" />
  </g>
  <g
     id="g148"
     transform="translate(-63.753654,-40.949596)">
    <path
       style="opacity:1"
       fill="#dedee1"
       d="m 72.5,147.5 c 2.619,0.903 3.2856,2.569 2,5 -1.7174,-1.168 -2.3841,-2.835 -2,-5 z"
       id="path148" />
  </g>
  <g
     id="g149"
     transform="translate(-63.753654,-40.949596)">
    <path
       style="opacity:1"
       fill="#dcdbdf"
       d="m 66.5,149.5 c 2.1648,-0.384 3.8315,0.283 5,2 -2.4305,1.286 -4.0972,0.619 -5,-2 z"
       id="path149" />
  </g>
  <g
     id="g151"
     transform="translate(-63.753654,-40.949596)">
    <path
       style="opacity:1"
       fill="#e7e6e6"
       d="m 94.5,166.5 c 0,1.333 0,2.667 0,4 -1.3734,0.157 -2.7068,-0.01 -4,-0.5 -2.064,-4.198 -5.3974,-6.698 -10,-7.5 -1.5188,-0.91 -3.1854,-1.743 -5,-2.5 0.8134,-1.803 1.9801,-3.303 3.5,-4.5 5.0119,3.839 10.1786,7.506 15.5,11 z"
       id="path151" />
  </g>
  <g
     id="g157"
     transform="translate(-63.753654,-40.949596)">
    <path
       style="opacity:1"
       fill="#e0e0e1"
       d="m 78.5,163.5 c 4.8167,3.989 9.4833,7.322 14,10 -7.854,-0.595 -13.854,-4.262 -18,-11 0.3333,-0.333 0.6667,-0.667 1,-1 1.0178,0.693 2.0178,1.359 3,2 z"
       id="path157" />
  </g>
  <g
     id="g233"
     transform="translate(-63.753654,-40.949596)">
    <path
       style="opacity:1"
       fill="#242423"
       d="m 153.5,138.5 c 3.276,1.225 6.11,3.225 8.5,6 -0.307,8.055 3.026,14.055 10,18 0.719,5.158 2.052,10.158 4,15 0.499,5.657 0.666,11.324 0.5,17 -2.264,0.719 -4.597,1.052 -7,1 0,1.667 0,3.333 0,5 0.71,2.246 1.21,4.58 1.5,7 1.356,-0.88 2.856,-1.214 4.5,-1 -0.162,-2.027 0.005,-4.027 0.5,-6 0.623,4.735 1.79,5.068 3.5,1 -0.205,4.299 -2.538,6.632 -7,7 -1.272,-0.07 -2.438,-0.403 -3.5,-1 -0.494,-1.634 -0.66,-3.301 -0.5,-5 -1.667,0 -3.333,0 -5,0 0.051,-3.041 1.051,-5.708 3,-8 -2.312,-7.155 -3.812,-14.488 -4.5,-22 -1,-1 -2,-2 -3,-3 -0.022,-4.708 -1.689,-8.708 -5,-12 -0.232,1.237 -0.732,2.237 -1.5,3 -0.175,-2.121 0.159,-4.121 1,-6 4.632,4.096 7.299,9.262 8,15.5 2.086,0.557 3.419,-0.276 4,-2.5 1.545,-0.952 3.212,-1.285 5,-1 0.157,-1.373 -0.01,-2.707 -0.5,-4 -6.924,-3.835 -10.257,-9.835 -10,-18 -1.11,-1.537 -2.61,-2.203 -4.5,-2 0.219,1.175 -0.114,2.175 -1,3 -1.027,-1.291 -2.027,-1.291 -3,0 -0.1,-2.608 0.567,-4.942 2,-7 z"
       id="path233" />
  </g>
  <g
     id="g234"
     transform="translate(-63.753654,-40.949596)">
    <path
       style="opacity:1"
       fill="#e0e0e1"
       d="m 168.5,168.5 c 1.624,-0.14 2.79,0.527 3.5,2 2.62,7.135 3.62,14.468 3,22 -1.011,0.837 -2.178,1.17 -3.5,1 0.059,-3.19 0.393,-6.357 1,-9.5 -1.263,-5.271 -2.596,-10.438 -4,-15.5 z"
       id="path234" />
  </g>
  <g
     id="g235"
     transform="translate(-63.753654,-40.949596)">
    <path
       style="opacity:1"
       fill="#e0dfe1"
       d="m 166.5,168.5 c 0.625,8.311 1.958,16.644 4,25 -1,0 -2,0 -3,0 -1.319,-5.429 -2.319,-10.929 -3,-16.5 -0.019,-3.03 0.647,-5.863 2,-8.5 z"
       id="path235" />
  </g>
  <g
     id="g236"
     transform="translate(-63.753654,-40.949596)">
    <path
       style="opacity:1"
       fill="#f1f2f2"
       d="m 176.5,194.5 c 0.375,4.995 -1.958,6.995 -7,6 0,-1.667 0,-3.333 0,-5 2.403,0.052 4.736,-0.281 7,-1 z"
       id="path236" />
  </g>
  <g
     id="g246"
     transform="translate(-63.753654,-40.949596)">
    <path
       style="opacity:1"
       fill="#cfcfd2"
       d="m 165.5,198.5 c 1.965,0.448 2.298,1.448 1,3 -0.886,-0.825 -1.219,-1.825 -1,-3 z"
       id="path246" />
  </g>
  <g
     id="g254"
     transform="translate(-63.753654,-40.949596)">
    <path
       style="opacity:1"
       fill="#626362"
       d="m 176.5,194.5 c 1.948,1.82 2.948,4.154 3,7 -1.71,4.068 -2.877,3.735 -3.5,-1 -0.495,1.973 -0.662,3.973 -0.5,6 -1.644,-0.214 -3.144,0.12 -4.5,1 -0.29,-2.42 -0.79,-4.754 -1.5,-7 5.042,0.995 7.375,-1.005 7,-6 z"
       id="path254" />
  </g>
  <g
     id="g266"
     transform="translate(-63.753654,-40.949596)">
    <path
       style="opacity:1"
       fill="#ebebe9"
       d="m 150.5,217.5 c 0.622,1.127 1.455,2.127 2.5,3 0.798,1.759 0.631,3.426 -0.5,5 -0.793,-0.431 -1.627,-0.765 -2.5,-1 -2.149,1.958 -4.482,2.291 -7,1 0.105,-2.528 -0.062,-4.862 -0.5,-7 -0.039,-1.083 -0.373,-2.083 -1,-3 2.433,-1.554 5.1,-2.22 8,-2 -0.067,1.459 0.266,2.792 1,4 z"
       id="path266" />
  </g>
  <g
     id="g267"
     transform="translate(-63.753654,-40.949596)">
    <path
       style="opacity:1"
       fill="#f6f6f6"
       d="m 117.5,215.5 c 7.696,-0.331 15.362,0.003 23,1 0.627,0.917 0.961,1.917 1,3 -0.12,1.699 -0.454,3.365 -1,5 2.115,3.459 3.782,7.125 5,11 0.165,3.018 -0.002,6.018 -0.5,9 -8.5,-1.319 -17,-1.319 -25.5,0 -4.373,-6.93 -5.039,-14.263 -2,-22 -0.667,-1.667 -1.333,-3.333 -2,-5 0.247,-1.213 0.914,-1.88 2,-2 z"
       id="path267" />
  </g>
  <g
     id="g294"
     transform="translate(-63.753654,-40.949596)">
    <path
       style="opacity:1"
       fill="#252525"
       d="m 152.5,212.5 c -0.536,3.165 0.297,5.831 2.5,8 0.3,5.686 0.3,11.353 0,17 1,2.333 2,4.667 3,7 0.816,1.323 1.983,1.989 3.5,2 2.501,2.002 4.835,4.169 7,6.5 -1.617,2.801 -3.951,4.635 -7,5.5 -6.196,-0.014 -11.363,-2.347 -15.5,-7 0.636,-5.476 0.47,-10.81 -0.5,-16 -1.218,-3.875 -2.885,-7.541 -5,-11 0.546,-1.635 0.88,-3.301 1,-5 0.667,0 1,-0.333 1,-1 0.438,2.138 0.605,4.472 0.5,7 2.518,1.291 4.851,0.958 7,-1 0.873,0.235 1.707,0.569 2.5,1 1.131,-1.574 1.298,-3.241 0.5,-5 -1.045,-0.873 -1.878,-1.873 -2.5,-3 0.667,-1.667 1.333,-3.333 2,-5 z"
       id="path294" />
  </g>
  <g
     id="g295"
     transform="translate(-63.753654,-40.949596)">
    <path
       style="opacity:1"
       fill="#eeeeee"
       d="m 148.5,227.5 c 2.104,-0.299 4.104,0.034 6,1 -1.276,4.646 -1.276,9.313 0,14 -1.202,2.536 -3.202,3.87 -6,4 0.668,-5.688 -0.332,-11.021 -3,-16 0.84,-1.235 1.84,-2.235 3,-3 z"
       id="path295" />
  </g>
  <g
     id="g301"
     transform="translate(-63.753654,-40.949596)">
    <path
       style="opacity:1"
       fill="#232322"
       d="m 102.5,212.5 c 2.398,-0.241 4.398,0.426 6,2 -1.595,1.611 -2.761,3.611 -3.5,6 -0.49,1.293 -0.657,2.627 -0.5,4 3.328,-1.146 6.661,-1.313 10,-0.5 0.522,-0.561 0.855,-1.228 1,-2 -1.513,-1.879 -2.179,-4.046 -2,-6.5 -1.599,0.268 -2.932,-0.066 -4,-1 2.885,-0.306 5.552,0.027 8,1 -1.086,0.12 -1.753,0.787 -2,2 0.667,1.667 1.333,3.333 2,5 -3.039,7.737 -2.373,15.07 2,22 2.388,2.597 2.388,5.097 0,7.5 -5.088,1.89 -10.088,3.723 -15,5.5 -3.519,0.241 -6.1855,-1.093 -8,-4 -1.2911,-1.042 -1.2911,-2.208 0,-3.5 3.759,-1.879 7.425,-3.713 11,-5.5 1.271,-5.067 0.104,-9.734 -3.5,-14 -2.045,-5.003 -1.879,-9.836 0.5,-14.5 -0.362,-1.434 -1.028,-2.601 -2,-3.5 z"
       id="path301" />
  </g>
  <g
     id="g302"
     transform="translate(-63.753654,-40.949596)">
    <path
       style="opacity:1"
       fill="#ededed"
       d="m 105.5,226.5 c 3.072,-0.317 6.072,0.016 9,1 -1.769,5.846 -0.769,11.179 3,16 -0.387,1.22 -1.22,1.887 -2.5,2 -1.766,-0.733 -3.599,-1.067 -5.5,-1 1.056,-6.228 -0.611,-11.561 -5,-16 0.363,-0.683 0.696,-1.35 1,-2 z"
       id="path302" />
  </g>
  <g
     id="g303"
     transform="translate(-63.753654,-40.949596)">
    <path
       style="opacity:1"
       fill="#eeeeee"
       d="m 108.5,214.5 c 0.333,0 0.667,0 1,0 1.068,0.934 2.401,1.268 4,1 -0.179,2.454 0.487,4.621 2,6.5 -0.145,0.772 -0.478,1.439 -1,2 -3.339,-0.813 -6.672,-0.646 -10,0.5 -0.157,-1.373 0.01,-2.707 0.5,-4 0.739,-2.389 1.905,-4.389 3.5,-6 z"
       id="path303" />
  </g>
  <g
     id="g311"
     transform="translate(-63.753654,-40.949596)">
    <path
       style="opacity:1"
       fill="#e6e6e7"
       d="m 164.5,251.5 c -1.291,-0.237 -2.291,0.096 -3,1 -1.788,-0.285 -3.455,0.048 -5,1 0.742,0.787 1.575,1.453 2.5,2 0.688,0.832 0.521,1.498 -0.5,2 -3.409,-2.077 -6.742,-4.244 -10,-6.5 -0.837,-1.011 -1.17,-2.178 -1,-3.5 2.89,0.222 5.557,-0.445 8,-2 3.583,1.28 6.583,3.28 9,6 z"
       id="path311" />
  </g>
  <g
     id="g322"
     transform="translate(-63.753654,-40.949596)">
    <path
       style="opacity:1"
       fill="#d4d5d6"
       d="m 145.5,235.5 c 0.97,5.19 1.136,10.524 0.5,16 4.137,4.653 9.304,6.986 15.5,7 -5.069,1.599 -10.402,2.433 -16,2.5 -13.366,0.778 -26.699,0.611 -40,-0.5 0.237,-1.291 -0.096,-2.291 -1,-3 4.912,-1.777 9.912,-3.61 15,-5.5 2.388,-2.403 2.388,-4.903 0,-7.5 8.5,-1.319 17,-1.319 25.5,0 0.498,-2.982 0.665,-5.982 0.5,-9 z"
       id="path322" />
  </g>
  <g
     id="g335"
     transform="translate(-63.753654,-40.949596)">
    <path
       style="opacity:1"
       fill="#e8e7e8"
       d="m 107.5,244.5 c -3.575,1.787 -7.241,3.621 -11,5.5 -1.2911,1.292 -1.2911,2.458 0,3.5 1.8145,2.907 4.481,4.241 8,4 0.904,0.709 1.237,1.709 1,3 13.301,1.111 26.634,1.278 40,0.5 5.598,-0.067 10.931,-0.901 16,-2.5 3.049,-0.865 5.383,-2.699 7,-5.5 -2.165,-2.331 -4.499,-4.498 -7,-6.5 6.067,-0.025 11.567,1.642 16.5,5 -0.466,2.6 -1.966,4.766 -4.5,6.5 -9.353,3.393 -19.019,5.393 -29,6 -12,0.667 -24,0.667 -36,0 -8.6586,-1.664 -16.9919,-4.331 -25,-8 -2.0653,-4.291 -0.732,-6.957 4,-8 6.3963,-2.539 13.063,-3.706 20,-3.5 z"
       id="path335" />
  </g>
  <g
     id="g336"
     transform="translate(-63.753654,-40.949596)">
    <path
       style="opacity:1"
       fill="#d4d5d5"
       d="m 106.5,254.5 c -1.784,1.22 -3.45,1.22 -5,0 1.784,-1.22 3.45,-1.22 5,0 z"
       id="path336" />
  </g>
  <g
     id="g337"
     transform="translate(-63.753654,-40.949596)">
    <path
       style="opacity:1"
       fill="#525052"
       d="m 102.5,248.5 c 1.693,3.182 4.359,4.848 8,5 -1.068,0.934 -2.401,1.268 -4,1 -1.55,-1.22 -3.216,-1.22 -5,0 -1.436,0.214 -3.1026,-0.119 -5,-1 1.1061,-2.577 3.1061,-4.244 6,-5 z"
       id="path337" />
  </g>
  <g
     id="g338"
     transform="translate(-63.753654,-40.949596)">
    <path
       style="opacity:1"
       fill="#999a99"
       d="m 164.5,251.5 c 1.256,-0.039 2.256,0.461 3,1.5 -0.949,0.617 -1.782,0.451 -2.5,-0.5 -0.388,2.215 -1.388,3.548 -3,4 -0.833,-0.833 -1.667,-1.667 -2.5,-2.5 0.916,-0.278 1.582,-0.778 2,-1.5 0.709,-0.904 1.709,-1.237 3,-1 z"
       id="path338" />
  </g>
  <g
     id="g339"
     transform="translate(-63.753654,-40.949596)">
    <path
       style="opacity:1"
       fill="#ededef"
       d="m 110.5,253.5 c -3.641,-0.152 -6.307,-1.818 -8,-5 2.365,-1.094 4.865,-1.761 7.5,-2 2.754,0.876 5.421,0.876 8,0 1.578,1.211 1.745,2.545 0.5,4 -2.81,0.699 -5.477,1.699 -8,3 z"
       id="path339" />
  </g>
</svg>
