<?xml version="1.0" encoding="UTF-8" standalone="no"?>
<svg
   version="1.1"
   width="106.82864"
   height="208.32919"
   style="clip-rule:evenodd;fill-rule:evenodd;image-rendering:optimizeQuality;shape-rendering:geometricPrecision;text-rendering:geometricPrecision"
   id="svg1400"
   xmlns="http://www.w3.org/2000/svg"
   xmlns:svg="http://www.w3.org/2000/svg">
  <defs
     id="defs1400" />
  <g
     id="g604"
     transform="translate(-79.496201,-291.17081)">
    <path
       style="opacity:1"
       fill="#634b2d"
       d="m 133.5,438.5 c -1.765,0.961 -3.765,1.295 -6,1 -0.165,3.35 0.002,6.683 0.5,10 0.498,-2.982 0.665,-5.982 0.5,-9 2,0 4,0 6,0 -0.293,3.937 0.04,7.77 1,11.5 8.114,0.886 16.114,0.386 24,-1.5 -0.16,1.699 0.006,3.366 0.5,5 0.191,-2.208 0.691,-4.208 1.5,-6 0,2.333 0,4.667 0,7 -0.669,5.834 -0.836,11.834 -0.5,18 -5.886,3.36 -11.886,3.694 -18,1 -2.002,-6.011 -4.002,-12.011 -6,-18 -0.377,-1.442 -1.21,-2.442 -2.5,-3 -0.111,-0.617 -0.444,-1.117 -1,-1.5 -4.382,-0.024 -8.382,-1.191 -12,-3.5 -0.333,0.333 -0.667,0.667 -1,1 1.165,1.084 2.498,1.917 4,2.5 -2.181,6.961 -3.348,14.127 -3.5,21.5 -5.333,1.333 -10.667,1.333 -16,0 -1.348,-7.261 -1.848,-14.594 -1.5,-22 3.398,0.32 6.732,-0.013 10,-1 0.933,-3.929 1.266,-7.929 1,-12 2.687,-0.164 5.354,0.003 8,0.5 0.774,2.405 1.274,4.905 1.5,7.5 0.498,-2.982 0.665,-5.982 0.5,-9 2.961,-0.147 5.961,-0.147 9,0 z"
       id="path604" />
  </g>
  <g
     id="g607"
     transform="translate(-79.496201,-291.17081)">
    <path
       style="opacity:1"
       fill="#f6f6f5"
       d="m 134.5,454.5 c 1.798,6.726 3.798,13.393 6,20 0,2 0,4 0,6 -5.823,1.082 -11.49,1.082 -17,0 -0.33,-8.393 0.17,-16.727 1.5,-25 0.674,-1.078 1.674,-1.745 3,-2 2.137,0.577 4.304,0.91 6.5,1 z"
       id="path607" />
  </g>
  <g
     id="g622"
     transform="translate(-79.496201,-291.17081)">
    <path
       style="opacity:1"
       fill="#201f1d"
       d="m 134.5,454.5 c 1.29,0.558 2.123,1.558 2.5,3 1.998,5.989 3.998,11.989 6,18 6.114,2.694 12.114,2.36 18,-1 -0.336,-6.166 -0.169,-12.166 0.5,-18 0.78,7.018 1.78,14.018 3,21 0.063,2.014 -0.603,3.681 -2,5 -0.438,-0.065 -0.772,0.101 -1,0.5 3.365,1.833 6.031,4.333 8,7.5 -0.477,0.978 -1.143,1.811 -2,2.5 -3.464,1.242 -6.964,2.409 -10.5,3.5 -2.279,-0.891 -4.446,-1.891 -6.5,-3 -1.333,-1.433 -2.833,-2.767 -4.5,-4 -2.4,-4.799 -4.233,-9.799 -5.5,-15 -2.202,-6.607 -4.202,-13.274 -6,-20 z"
       id="path622" />
  </g>
  <g
     id="g623"
     transform="translate(-79.496201,-291.17081)">
    <path
       style="opacity:1"
       fill="#1c1b1a"
       d="m 161.5,449.5 c -0.809,1.792 -1.309,3.792 -1.5,6 -0.494,-1.634 -0.66,-3.301 -0.5,-5 -7.886,1.886 -15.886,2.386 -24,1.5 -0.96,-3.73 -1.293,-7.563 -1,-11.5 -2,0 -4,0 -6,0 0.165,3.018 -0.002,6.018 -0.5,9 -0.498,-3.317 -0.665,-6.65 -0.5,-10 2.235,0.295 4.235,-0.039 6,-1 0,-1.333 0,-2.667 0,-4 -0.667,-0.667 -1.333,-1.333 -2,-2 0.667,0 1,-0.333 1,-1 1.55,-0.941 3.216,-1.607 5,-2 1.88,0.271 3.213,-0.396 4,-2 0.667,0 1.333,0 2,0 2.333,1.333 4.667,1.333 7,0 1.21,-3.43 0.876,-6.763 -1,-10 0,-0.333 0,-0.667 0,-1 0.237,-1.291 -0.096,-2.291 -1,-3 -0.416,-4.993 -0.749,-9.993 -1,-15 0.934,-1.068 1.268,-2.401 1,-4 0.078,-2.752 0.245,-5.418 0.5,-8 -1.113,0.805 -2.279,1.472 -3.5,2 -0.992,-0.172 -1.658,0.162 -2,1 -1.109,0.057 -2.109,0.39 -3,1 -1.653,0.16 -2.986,0.826 -4,2 -1.967,-0.239 -3.801,0.094 -5.5,1 -1.3,7.271 -1.8,14.604 -1.5,22 -0.268,1.599 0.066,2.932 1,4 0.805,2.415 1.805,4.749 3,7 -0.438,1.006 -1.104,1.006 -2,0 -0.844,-2.259 -2.511,-3.259 -5,-3 2.064,-2.16 2.398,-4.493 1,-7 -0.191,-7.701 0.142,-15.368 1,-23 -2.561,-1.267 -5.228,-1.267 -8,0 -0.709,-0.904 -1.709,-1.237 -3,-1 0,1 0,2 0,3 1,0 2,0 3,0 1.333,1.333 1.333,2.667 0,4 -3.304,0.644 -4.638,2.644 -4,6 1.333,0 2.667,0 4,0 -0.801,1.542 -1.134,3.208 -1,5 -1.333,1.333 -2.667,2.667 -4,4 -0.961,-1.765 -1.295,-3.765 -1,-6 0.26,-5.672 0.593,-11.339 1,-17 -5.62,-1.227 -10.453,-3.894 -14.5,-8 -8.9919,11.818 -15.1585,24.985 -18.5,39.5 -0.1464,2.034 0.5203,3.701 2,5 2.5627,1.079 5.2294,1.579 8,1.5 1.124,-13.426 3.9573,-26.426 8.5,-39 -1.9823,10.61 -3.9823,21.277 -6,32 -3.734,15.093 2.0994,22.093 17.5,21 -0.304,-9.084 0.029,-18.084 1,-27 0.866,2.327 1.866,4.661 3,7 -0.617,0.111 -1.117,0.444 -1.5,1 -0.497,2.646 -0.664,5.313 -0.5,8 2.333,0 4.667,0 7,0 -1.69,0.603 -3.19,1.603 -4.5,3 -0.998,-2.528 -1.831,-2.528 -2.5,0 1.526,2.592 3.859,3.592 7,3 -0.268,-1.599 0.066,-2.932 1,-4 -0.271,1.88 0.396,3.213 2,4 0.165,3.018 -0.002,6.018 -0.5,9 -0.226,-2.595 -0.726,-5.095 -1.5,-7.5 -2.646,-0.497 -5.313,-0.664 -8,-0.5 0.266,4.071 -0.067,8.071 -1,12 -3.268,0.987 -6.602,1.32 -10,1 -0.348,7.406 0.152,14.739 1.5,22 5.333,1.333 10.667,1.333 16,0 0.152,-7.373 1.319,-14.539 3.5,-21.5 -1.502,-0.583 -2.835,-1.416 -4,-2.5 0.333,-0.333 0.667,-0.667 1,-1 3.618,2.309 7.618,3.476 12,3.5 0.556,0.383 0.889,0.883 1,1.5 -2.196,-0.09 -4.363,-0.423 -6.5,-1 -1.326,0.255 -2.326,0.922 -3,2 -1.33,8.273 -1.83,16.607 -1.5,25 -1.312,1.312 -2.646,2.646 -4,4 1.267,1.871 1.267,3.704 0,5.5 -6.108,2.197 -12.442,3.697 -19,4.5 -3.1261,-0.888 -5.4594,-2.722 -7,-5.5 0.1448,-0.772 0.4781,-1.439 1,-2 3.4606,-1.231 6.794,-2.731 10,-4.5 -0.355,-1.022 -1.022,-1.689 -2,-2 -0.086,-10.038 -0.752,-20.038 -2,-30 -1.3333,-0.667 -2.6667,-1.333 -4,-2 -0.6719,-3.397 -1.5052,-6.73 -2.5,-10 -0.6543,-1.196 -1.1543,-1.196 -1.5,0 0.7458,1.236 1.0792,2.57 1,4 -1,0 -2,0 -3,0 0.0973,2.814 -1.0693,4.814 -3.5,6 -2.6408,-0.403 -4.9741,-1.403 -7,-3 -0.8042,-3.704 -0.3042,-7.204 1.5,-10.5 -1.3941,-0.956 -2.0607,-2.289 -2,-4 2.021,-18.208 8.8543,-34.374 20.5,-48.5 -0.3655,-5.479 1.134,-10.312 4.5,-14.5 -2.828,-2.248 -5.828,-4.248 -9,-6 -2.9335,-2.264 -5.1001,-5.098 -6.5,-8.5 -1.5925,-10.259 -1.9258,-20.593 -1,-31 4.4888,-17.488 15.655,-27.655 33.5,-30.5 18.647,-3.006 34.48,2.161 47.5,15.5 7.855,14.68 8.522,29.68 2,45 -2,2.667 -4,5.333 -6,8 -2.959,1.889 -5.792,3.889 -8.5,6 2.726,2.786 4.393,6.119 5,10 10.693,5.859 18.86,14.193 24.5,25 0.796,5.505 0.129,10.838 -2,16 -2.032,3.354 -4.032,6.687 -6,10 -1.763,1.444 -3.763,2.444 -6,3 -0.49,1.293 -0.657,2.627 -0.5,4 1,0 2,0 3,0 0.214,1.644 -0.12,3.144 -1,4.5 -2.514,1.252 -5.18,1.752 -8,1.5 0.842,4.121 -0.491,7.121 -4,9 z"
       id="path623" />
  </g>
  <g
     id="g624"
     transform="translate(-79.496201,-291.17081)">
    <path
       style="opacity:1"
       fill="#7d7d82"
       d="m 97.5,442.5 c 4.693,2.38 9.693,3.38 15,3 0,1.667 0,3.333 0,5 -4.912,0.437 -9.578,-0.396 -14,-2.5 -0.9061,-1.699 -1.2394,-3.533 -1,-5.5 z"
       id="path624" />
  </g>
  <g
     id="g625"
     transform="translate(-79.496201,-291.17081)">
    <path
       style="opacity:1"
       fill="#7f8082"
       d="m 161.5,441.5 c 2.703,2.798 2.036,4.965 -2,6.5 -7.468,2.467 -15.135,3.634 -23,3.5 0,-2 0,-4 0,-6 8.805,0.787 17.139,-0.546 25,-4 z"
       id="path625" />
  </g>
  <g
     id="g626"
     transform="translate(-79.496201,-291.17081)">
    <path
       style="opacity:1"
       fill="#acb2ac"
       d="m 83.5,441.5 c 1.0862,0.12 1.7528,0.787 2,2 -0.3333,0.667 -0.6667,1.333 -1,2 -0.9287,-1.189 -1.262,-2.522 -1,-4 z"
       id="path626" />
  </g>
  <g
     id="g627"
     transform="translate(-79.496201,-291.17081)">
    <path
       style="opacity:1"
       fill="#bec1c0"
       d="m 82.5,435.5 c 2.2014,1.066 4.5347,1.733 7,2 -0.3442,3.062 -1.0109,6.062 -2,9 -0.6667,-2 -1.3333,-4 -2,-6 -0.6667,-0.333 -1.3333,-0.667 -2,-1 -0.6667,1.667 -1.3333,3.333 -2,5 -0.3333,-0.333 -0.6667,-0.667 -1,-1 0.7951,-2.644 1.4618,-5.311 2,-8 z"
       id="path627" />
  </g>
  <g
     id="g628"
     transform="translate(-79.496201,-291.17081)">
    <path
       style="opacity:1"
       fill="#aeafac"
       d="m 166.5,428.5 c 1.256,-0.039 2.256,0.461 3,1.5 -2.305,2.458 -3.972,5.291 -5,8.5 -1.141,-1.921 -1.308,-3.921 -0.5,-6 1.706,-0.808 2.539,-2.141 2.5,-4 z"
       id="path628" />
  </g>
  <g
     id="g629"
     transform="translate(-79.496201,-291.17081)">
    <path
       style="opacity:1"
       fill="#cecdcc"
       d="m 122.5,434.5 c 3.667,0 7.333,0 11,0 0,1.333 0,2.667 0,4 -3.039,-0.147 -6.039,-0.147 -9,0 -1.604,-0.787 -2.271,-2.12 -2,-4 z"
       id="path629" />
  </g>
  <g
     id="g630"
     transform="translate(-79.496201,-291.17081)">
    <path
       style="opacity:1"
       fill="#aeb0aa"
       d="m 168.5,433.5 c 1.212,1.764 0.879,3.43 -1,5 -0.701,-1.692 -0.367,-3.358 1,-5 z"
       id="path630" />
  </g>
  <g
     id="g631"
     transform="translate(-79.496201,-291.17081)">
    <path
       style="opacity:1"
       fill="#696a6c"
       d="m 159.5,427.5 c 0.898,0.658 1.898,1.324 3,2 -1.586,1.673 -2.253,3.673 -2,6 -3.581,-2.259 -3.914,-4.926 -1,-8 z"
       id="path631" />
  </g>
  <g
     id="g632"
     transform="translate(-79.496201,-291.17081)">
    <path
       style="opacity:1"
       fill="#393734"
       d="m 128.5,393.5 c -2,0 -4,0 -6,0 0.218,4.711 -0.115,9.378 -1,14 0.577,3.422 1.911,6.422 4,9 0.896,1.006 1.562,1.006 2,0 1.398,2.507 1.064,4.84 -1,7 -1.676,0.683 -2.343,2.017 -2,4 2.559,0.302 4.893,-0.032 7,-1 0.896,1.006 1.562,1.006 2,0 2.285,-2.712 2.952,-2.379 2,1 0.743,0.682 1.409,1.349 2,2 -1.784,0.393 -3.45,1.059 -5,2 -2.135,-1.869 -4.802,-2.536 -8,-2 0,1 0,2 0,3 2.333,0 4.667,0 7,0 0.667,0.667 1.333,1.333 2,2 -3.667,0 -7.333,0 -11,0 -0.934,1.068 -1.268,2.401 -1,4 -3.141,0.592 -5.474,-0.408 -7,-3 0.669,-2.528 1.502,-2.528 2.5,0 1.31,-1.397 2.81,-2.397 4.5,-3 1.147,-4.146 1.314,-8.48 0.5,-13 -1.432,1.939 -3.265,3.272 -5.5,4 -1.134,-2.339 -2.134,-4.673 -3,-7 -0.306,-2.885 0.027,-5.552 1,-8 -0.295,2.235 0.039,4.235 1,6 -0.525,7.272 1.308,7.938 5.5,2 0.167,-1 0.333,-2 0.5,-3 -0.14,-1.53 -0.807,-2.53 -2,-3 -0.134,-1.792 0.199,-3.458 1,-5 0,-2 0,-4 0,-6 1.333,-1.333 1.333,-2.667 0,-4 0,-0.667 0,-1.333 0,-2 2.772,-1.267 5.439,-1.267 8,0 z"
       id="path632" />
  </g>
  <g
     id="g633"
     transform="translate(-79.496201,-291.17081)">
    <path
       style="opacity:1"
       fill="#e3e2e6"
       d="m 132.5,431.5 c 0,0.667 -0.333,1 -1,1 -2.333,0 -4.667,0 -7,0 0,-1 0,-2 0,-3 3.198,-0.536 5.865,0.131 8,2 z"
       id="path633" />
  </g>
  <g
     id="g634"
     transform="translate(-79.496201,-291.17081)">
    <path
       style="opacity:1"
       fill="#828488"
       d="m 81.5,428.5 c 3.3407,2 7.0074,3 11,3 0,1.333 0,2.667 0,4 -3.1074,0.149 -6.1074,-0.351 -9,-1.5 -1.6554,-1.444 -2.322,-3.278 -2,-5.5 z"
       id="path634" />
  </g>
  <g
     id="g635"
     transform="translate(-79.496201,-291.17081)">
    <path
       style="opacity:1"
       fill="#b2b3b2"
       d="m 160.5,435.5 c -0.253,-2.327 0.414,-4.327 2,-6 -1.102,-0.676 -2.102,-1.342 -3,-2 -0.085,-1.495 0.581,-2.495 2,-3 4.432,1.679 4.932,4.012 1.5,7 -0.333,2 -0.667,4 -1,6 -0.717,-0.544 -1.217,-1.211 -1.5,-2 z"
       id="path635" />
  </g>
  <g
     id="g636"
     transform="translate(-79.496201,-291.17081)">
    <path
       style="opacity:1"
       fill="#b4b5b5"
       d="m 132.5,417.5 c 1.791,1.684 3.291,3.684 4.5,6 2.706,0.401 5.206,-0.099 7.5,-1.5 -1.674,1.506 -2.674,3.339 -3,5.5 -0.787,1.604 -2.12,2.271 -4,2 -0.591,-0.651 -1.257,-1.318 -2,-2 0.952,-3.379 0.285,-3.712 -2,-1 -1.195,-2.251 -2.195,-4.585 -3,-7 0,-1.333 0.667,-2 2,-2 z"
       id="path636" />
  </g>
  <g
     id="g637"
     transform="translate(-79.496201,-291.17081)">
    <path
       style="opacity:1"
       fill="#bcbdbb"
       d="m 150.5,427.5 c -2.333,1.333 -4.667,1.333 -7,0 0.792,-4.381 1.959,-4.714 3.5,-1 1.688,-0.825 1.855,-1.825 0.5,-3 0.825,-0.886 1.825,-1.219 3,-1 0,1.667 0,3.333 0,5 z"
       id="path637" />
  </g>
  <g
     id="g638"
     transform="translate(-79.496201,-291.17081)">
    <path
       style="opacity:1"
       fill="#d0d1d5"
       d="m 126.5,423.5 c 2.489,-0.259 4.156,0.741 5,3 -2.107,0.968 -4.441,1.302 -7,1 -0.343,-1.983 0.324,-3.317 2,-4 z"
       id="path638" />
  </g>
  <g
     id="g639"
     transform="translate(-79.496201,-291.17081)">
    <path
       style="opacity:1"
       fill="#eaecef"
       d="m 121.5,432.5 c -2.333,0 -4.667,0 -7,0 -0.164,-2.687 0.003,-5.354 0.5,-8 0.383,-0.556 0.883,-0.889 1.5,-1 2.235,-0.728 4.068,-2.061 5.5,-4 0.814,4.52 0.647,8.854 -0.5,13 z"
       id="path639" />
  </g>
  <g
     id="g640"
     transform="translate(-79.496201,-291.17081)">
    <path
       style="opacity:1"
       fill="#818183"
       d="m 161.5,417.5 c 3.281,2.648 6.948,4.814 11,6.5 1.293,0.49 2.627,0.657 4,0.5 0,1 0,2 0,3 -6.316,0.924 -11.483,-1.076 -15.5,-6 -0.195,-1.319 -0.028,-2.653 0.5,-4 z"
       id="path640" />
  </g>
  <g
     id="g641"
     transform="translate(-79.496201,-291.17081)">
    <path
       style="opacity:1"
       fill="#babdbc"
       d="m 125.5,416.5 c 0.203,1.544 0.87,2.878 2,4 -2.308,1.448 -3.641,0.782 -4,-2 0.247,-1.213 0.914,-1.88 2,-2 z"
       id="path641" />
  </g>
  <g
     id="g642"
     transform="translate(-79.496201,-291.17081)">
    <path
       style="opacity:1"
       fill="#c6c7c6"
       d="m 149.5,416.5 c 0,0.333 0,0.667 0,1 -0.868,4.119 -2.534,4.619 -5,1.5 0.885,-2.157 2.552,-2.99 5,-2.5 z"
       id="path642" />
  </g>
  <g
     id="g643"
     transform="translate(-79.496201,-291.17081)">
    <path
       style="opacity:1"
       fill="#e4e4e7"
       d="m 119.5,410.5 c 1.193,0.47 1.86,1.47 2,3 -0.167,1 -0.333,2 -0.5,3 -4.192,5.938 -6.025,5.272 -5.5,-2 1.333,-1.333 2.667,-2.667 4,-4 z"
       id="path643" />
  </g>
  <g
     id="g644"
     transform="translate(-79.496201,-291.17081)">
    <path
       style="opacity:1"
       fill="#868687"
       d="m 158.5,399.5 c -1.295,6.364 -1.295,12.697 0,19 -0.079,1.43 0.254,2.764 1,4 -1.616,2.67 -2.949,5.504 -4,8.5 1.392,3.293 3.392,6.126 6,8.5 -7.952,3.589 -16.285,5.089 -25,4.5 -0.964,-4.066 -1.297,-8.233 -1,-12.5 4.992,-0.499 9.992,-0.999 15,-1.5 0.833,-0.833 1.667,-1.667 2.5,-2.5 -1.351,-8.418 -2.517,-16.918 -3.5,-25.5 0.147,-4.87 0.647,-9.703 1.5,-14.5 2.995,-3.326 6.328,-6.326 10,-9 9.654,5.654 17.321,13.321 23,23 1.435,8.689 -0.898,16.022 -7,22 -5.471,-1.645 -9.971,-4.645 -13.5,-9 0.892,-3.452 2.558,-6.452 5,-9 -4.971,-3.137 -9.138,-7.137 -12.5,-12 -0.028,2.287 0.805,4.287 2.5,6 z"
       id="path644" />
  </g>
  <g
     id="g645"
     transform="translate(-79.496201,-291.17081)">
    <path
       style="opacity:1"
       fill="#c2c2c6"
       d="m 162.5,404.5 c 2.424,1.728 2.59,3.728 0.5,6 -0.495,-1.973 -0.662,-3.973 -0.5,-6 z"
       id="path645" />
  </g>
  <g
     id="g646"
     transform="translate(-79.496201,-291.17081)">
    <path
       style="opacity:1"
       fill="#737279"
       d="m 143.5,389.5 c 0.342,-0.838 1.008,-1.172 2,-1 2.687,2.011 2.52,3.678 -0.5,5 -0.483,0.948 -0.649,1.948 -0.5,3 1.699,-0.027 3.033,-0.694 4,-2 0.268,1.599 -0.066,2.932 -1,4 -3.785,0.089 -5.119,1.756 -4,5 1.052,-0.149 2.052,0.017 3,0.5 -1.553,1.097 -2.886,2.43 -4,4 2.383,0.065 3.05,0.898 2,2.5 1.352,1.024 2.685,2.024 4,3 0.904,0.709 1.237,1.709 1,3 -2.448,-0.49 -4.115,0.343 -5,2.5 2.466,3.119 4.132,2.619 5,-1.5 1.876,3.237 2.21,6.57 1,10 0,-1.667 0,-3.333 0,-5 -1.175,-0.219 -2.175,0.114 -3,1 1.355,1.175 1.188,2.175 -0.5,3 -1.541,-3.714 -2.708,-3.381 -3.5,1 -0.667,0 -1.333,0 -2,0 0.326,-2.161 1.326,-3.994 3,-5.5 -2.294,1.401 -4.794,1.901 -7.5,1.5 -1.209,-2.316 -2.709,-4.316 -4.5,-6 -1.333,0 -2,0.667 -2,2 -0.934,-1.068 -1.268,-2.401 -1,-4 2.264,-1.597 4.264,-3.597 6,-6 0.746,-1.236 1.079,-2.57 1,-4 -2.776,0.411 -3.443,-0.422 -2,-2.5 -0.45,-1.285 -1.117,-2.452 -2,-3.5 1.29,-2.292 2.957,-4.292 5,-6 -0.124,-0.607 -0.457,-0.94 -1,-1 1.014,-1.174 2.347,-1.84 4,-2 -0.689,2.853 -2.022,5.353 -4,7.5 1.641,1.646 1.307,2.646 -1,3 0.5,0.5 1,1 1.5,1.5 2.579,-0.869 4.412,-2.535 5.5,-5 -2.956,-3.089 -2.289,-4.756 2,-5 0.237,-1.291 -0.096,-2.291 -1,-3 z"
       id="path646" />
  </g>
  <g
     id="g647"
     transform="translate(-79.496201,-291.17081)">
    <path
       style="opacity:1"
       fill="#cfcece"
       d="m 140.5,415.5 c 2.984,3.689 1.984,5.356 -3,5 0,-1.333 0,-2.667 0,-4 0.891,-0.61 1.891,-0.943 3,-1 z"
       id="path647" />
  </g>
  <g
     id="g648"
     transform="translate(-79.496201,-291.17081)">
    <path
       style="opacity:1"
       fill="#cacccc"
       d="m 137.5,416.5 c -1.435,1.901 -3.102,2.234 -5,1 -0.353,-2.135 0.48,-3.468 2.5,-4 1.749,0.248 2.582,1.248 2.5,3 z"
       id="path648" />
  </g>
  <g
     id="g649"
     transform="translate(-79.496201,-291.17081)">
    <path
       style="opacity:1"
       fill="#cccdcb"
       d="m 140.5,415.5 c 0,-0.667 0,-1.333 0,-2 2.098,-1.463 4.098,-1.296 6,0.5 -1.537,2.612 -3.537,3.112 -6,1.5 z"
       id="path649" />
  </g>
  <g
     id="g650"
     transform="translate(-79.496201,-291.17081)">
    <path
       style="opacity:1"
       fill="#d1d1d1"
       d="m 140.5,413.5 c -3.661,0.15 -4.661,-1.35 -3,-4.5 4.978,-0.864 5.978,0.636 3,4.5 z"
       id="path650" />
  </g>
  <g
     id="g651"
     transform="translate(-79.496201,-291.17081)">
    <path
       style="opacity:1"
       fill="#e2e3e5"
       d="m 128.5,393.5 c -0.858,7.632 -1.191,15.299 -1,23 -0.438,1.006 -1.104,1.006 -2,0 -2.089,-2.578 -3.423,-5.578 -4,-9 0.885,-4.622 1.218,-9.289 1,-14 2,0 4,0 6,0 z"
       id="path651" />
  </g>
  <g
     id="g652"
     transform="translate(-79.496201,-291.17081)">
    <path
       style="opacity:1"
       fill="#646465"
       d="m 158.5,399.5 c 0.617,0.111 1.117,0.444 1.5,1 1.418,4.928 1.751,9.928 1,15 -0.377,1.442 -1.21,2.442 -2.5,3 -1.295,-6.303 -1.295,-12.636 0,-19 z"
       id="path652" />
  </g>
  <g
     id="g653"
     transform="translate(-79.496201,-291.17081)">
    <path
       style="opacity:1"
       fill="#a6a7a8"
       d="m 136.5,392.5 c 0.543,0.06 0.876,0.393 1,1 -2.043,1.708 -3.71,3.708 -5,6 0.883,1.048 1.55,2.215 2,3.5 -1.443,2.078 -0.776,2.911 2,2.5 0.079,1.43 -0.254,2.764 -1,4 -1.736,2.403 -3.736,4.403 -6,6 -0.3,-7.396 0.2,-14.729 1.5,-22 1.699,-0.906 3.533,-1.239 5.5,-1 z"
       id="path653" />
  </g>
  <g
     id="g654"
     transform="translate(-79.496201,-291.17081)">
    <path
       style="opacity:1"
       fill="#b5b5b5"
       d="m 147.5,398.5 c 0.251,5.007 0.584,10.007 1,15 -1.315,-0.976 -2.648,-1.976 -4,-3 1.05,-1.602 0.383,-2.435 -2,-2.5 1.114,-1.57 2.447,-2.903 4,-4 -0.948,-0.483 -1.948,-0.649 -3,-0.5 -1.119,-3.244 0.215,-4.911 4,-5 z"
       id="path654" />
  </g>
  <g
     id="g655"
     transform="translate(-79.496201,-291.17081)">
    <path
       style="opacity:1"
       fill="#cbcbc9"
       d="m 143.5,403.5 c 0.016,1.984 -0.984,2.984 -3,3 -4,-1.333 -4,-2.667 0,-4 1.084,0.185 2.084,0.518 3,1 z"
       id="path655" />
  </g>
  <g
     id="g656"
     transform="translate(-79.496201,-291.17081)">
    <path
       style="opacity:1"
       fill="#d3d5d8"
       d="m 120.5,399.5 c 0,2 0,4 0,6 -1.333,0 -2.667,0 -4,0 -0.638,-3.356 0.696,-5.356 4,-6 z"
       id="path656" />
  </g>
  <g
     id="g657"
     transform="translate(-79.496201,-291.17081)">
    <path
       style="opacity:1"
       fill="#828385"
       d="m 114.5,408.5 c -0.973,2.448 -1.306,5.115 -1,8 -0.971,8.916 -1.304,17.916 -1,27 -15.4006,1.093 -21.234,-5.907 -17.5,-21 2.0177,-10.723 4.0177,-21.39 6,-32 -4.5427,12.574 -7.376,25.574 -8.5,39 -2.7706,0.079 -5.4373,-0.421 -8,-1.5 -1.4797,-1.299 -2.1464,-2.966 -2,-5 3.3415,-14.515 9.5081,-27.682 18.5,-39.5 4.047,4.106 8.88,6.773 14.5,8 -0.407,5.661 -0.74,11.328 -1,17 z"
       id="path657" />
  </g>
  <g
     id="g658"
     transform="translate(-79.496201,-291.17081)">
    <path
       style="opacity:1"
       fill="#c2c5c0"
       d="m 143.5,389.5 c 0.904,0.709 1.237,1.709 1,3 -4.289,0.244 -4.956,1.911 -2,5 -1.088,2.465 -2.921,4.131 -5.5,5 -0.5,-0.5 -1,-1 -1.5,-1.5 2.307,-0.354 2.641,-1.354 1,-3 1.978,-2.147 3.311,-4.647 4,-7.5 0.891,-0.61 1.891,-0.943 3,-1 z"
       id="path658" />
  </g>
  <g
     id="g659"
     transform="translate(-79.496201,-291.17081)">
    <path
       style="opacity:1"
       fill="#babab9"
       d="m 148.5,394.5 c -0.967,1.306 -2.301,1.973 -4,2 -0.149,-1.052 0.017,-2.052 0.5,-3 3.02,-1.322 3.187,-2.989 0.5,-5 1.221,-0.528 2.387,-1.195 3.5,-2 -0.255,2.582 -0.422,5.248 -0.5,8 z"
       id="path659" />
  </g>
  <g
     id="g660"
     transform="translate(-79.496201,-291.17081)">
    <path
       style="opacity:1"
       fill="#ceced3"
       d="m 120.5,393.5 c 0,0.667 0,1.333 0,2 -1,0 -2,0 -3,0 0,-1 0,-2 0,-3 1.291,-0.237 2.291,0.096 3,1 z"
       id="path660" />
  </g>
  <g
     id="g661"
     transform="translate(-79.496201,-291.17081)">
    <path
       style="opacity:1"
       fill="#bebebb"
       d="m 117.5,386.5 c 0.734,1.208 1.067,2.541 1,4 -1.599,0.268 -2.932,-0.066 -4,-1 0,-1 0,-2 0,-3 1,0 2,0 3,0 z"
       id="path661" />
  </g>
  <g
     id="g662"
     transform="translate(-79.496201,-291.17081)">
    <path
       style="opacity:1"
       fill="#78787d"
       d="m 136.5,372.5 c 1.068,-0.934 2.401,-1.268 4,-1 -0.143,1.762 0.191,3.429 1,5 -1.211,1.374 -2.211,2.874 -3,4.5 0.145,0.772 0.478,1.439 1,2 -2.019,0.45 -3.852,1.283 -5.5,2.5 -3.856,-4.571 -6.189,-3.904 -7,2 -0.414,-0.457 -0.914,-0.791 -1.5,-1 -4.087,2.266 -3.754,3.599 1,4 1,-0.333 2,-0.667 3,-1 -0.826,-0.951 -0.992,-1.951 -0.5,-3 0.741,1.141 1.575,1.141 2.5,0 0.406,1.057 0.406,2.391 0,4 -4.201,1.236 -8.535,1.236 -13,0 0.067,-1.459 -0.266,-2.792 -1,-4 -1,0 -2,0 -3,0 0,1 0,2 0,3 -1.291,0.237 -2.291,-0.096 -3,-1 1.548,-0.321 2.215,-1.321 2,-3 -1.052,0.149 -2.052,-0.017 -3,-0.5 3.693,-1.048 6.859,-2.881 9.5,-5.5 0.6,-2.595 0.1,-4.929 -1.5,-7 4.667,0 9.333,0 14,0 -1.452,0.802 -3.118,1.302 -5,1.5 0.951,0.718 1.117,1.551 0.5,2.5 -1.746,-1.957 -3.912,-2.957 -6.5,-3 -0.14,1.624 0.527,2.79 2,3.5 -0.757,1.512 -1.757,2.846 -3,4 1.786,0.785 3.286,1.951 4.5,3.5 2.19,-1.782 3.023,-3.782 2.5,-6 2.014,1.436 4.014,2.77 6,4 4.159,-0.968 4.826,-2.968 2,-6 0.167,-0.333 0.333,-0.667 0.5,-1 2.711,2.665 3.711,1.998 3,-2 -0.671,-0.752 -1.504,-1.086 -2.5,-1 z"
       id="path662" />
  </g>
  <g
     id="g663"
     transform="translate(-79.496201,-291.17081)">
    <path
       style="opacity:1"
       fill="#bdbebf"
       d="m 117.5,386.5 c -1.184,-1.188 -1.184,-2.355 0,-3.5 1.607,0.019 3.274,0.185 5,0.5 0.004,3.83 -1.662,4.83 -5,3 z"
       id="path663" />
  </g>
  <g
     id="g664"
     transform="translate(-79.496201,-291.17081)">
    <path
       style="opacity:1"
       fill="#babeba"
       d="m 150.5,383.5 c -0.667,0.333 -1.333,0.667 -2,1 -3.302,-3.389 -2.636,-5.389 2,-6 0,1.667 0,3.333 0,5 z"
       id="path664" />
  </g>
  <g
     id="g665"
     transform="translate(-79.496201,-291.17081)">
    <path
       style="opacity:1"
       fill="#707175"
       d="m 147.5,369.5 c 0.709,-0.904 1.709,-1.237 3,-1 0.077,1.25 0.744,2.083 2,2.5 -2.926,0.687 -4.259,2.52 -4,5.5 3.36,0.71 5.193,-0.624 5.5,-4 0.569,2.514 0.069,4.848 -1.5,7 0.043,0.916 0.376,1.583 1,2 -0.473,1.406 -1.473,2.073 -3,2 0,-1.667 0,-3.333 0,-5 -4.636,0.611 -5.302,2.611 -2,6 -0.79,0.901 -1.79,1.568 -3,2 -0.463,-2.982 -0.796,-5.982 -1,-9 2.987,0.078 3.653,-1.089 2,-3.5 0.488,-1.584 1.488,-2.751 3,-3.5 -0.457,-0.798 -1.124,-1.131 -2,-1 z"
       id="path665" />
  </g>
  <g
     id="g666"
     transform="translate(-79.496201,-291.17081)">
    <path
       style="opacity:1"
       fill="#b0b1b1"
       d="m 132.5,372.5 c 1.333,0 2.667,0 4,0 0.996,-0.086 1.829,0.248 2.5,1 0.711,3.998 -0.289,4.665 -3,2 -0.167,0.333 -0.333,0.667 -0.5,1 2.826,3.032 2.159,5.032 -2,6 -1.986,-1.23 -3.986,-2.564 -6,-4 0.523,2.218 -0.31,4.218 -2.5,6 -1.214,-1.549 -2.714,-2.715 -4.5,-3.5 1.243,-1.154 2.243,-2.488 3,-4 -1.473,-0.71 -2.14,-1.876 -2,-3.5 2.588,0.043 4.754,1.043 6.5,3 0.617,-0.949 0.451,-1.782 -0.5,-2.5 1.882,-0.198 3.548,-0.698 5,-1.5 z"
       id="path666" />
  </g>
  <g
     id="g667"
     transform="translate(-79.496201,-291.17081)">
    <path
       style="opacity:1"
       fill="#aeb0b1"
       d="m 118.5,372.5 c 1.6,2.071 2.1,4.405 1.5,7 -2.641,2.619 -5.807,4.452 -9.5,5.5 0.948,0.483 1.948,0.649 3,0.5 0.215,1.679 -0.452,2.679 -2,3 -1.385,-1.074 -2.551,-2.407 -3.5,-4 -1.292,1.291 -2.458,1.291 -3.5,0 2.417,-2.72 5.417,-4.72 9,-6 1.639,-1.416 2.473,-3.083 2.5,-5 -1,1 -2,2 -3,3 -3.476,-2.686 -3.976,-2.353 -1.5,1 -1.32,1.77 -2.82,2.103 -4.5,1 -0.748,2.251 -2.248,3.584 -4.5,4 -1.426,-5.23 -0.093,-9.73 4,-13.5 4.162,0.666 8.162,1.832 12,3.5 z"
       id="path667" />
  </g>
  <g
     id="g668"
     transform="translate(-79.496201,-291.17081)">
    <path
       style="opacity:1"
       fill="#6e6e72"
       d="m 104.5,384.5 c -1,-0.333 -1.667,-1 -2,-2 2.252,-0.416 3.752,-1.749 4.5,-4 1.68,1.103 3.18,0.77 4.5,-1 -2.476,-3.353 -1.976,-3.686 1.5,-1 1,-1 2,-2 3,-3 -0.027,1.917 -0.861,3.584 -2.5,5 -3.583,1.28 -6.583,3.28 -9,6 z"
       id="path668" />
  </g>
  <g
     id="g669"
     transform="translate(-79.496201,-291.17081)">
    <path
       style="opacity:1"
       fill="#abadac"
       d="m 147.5,369.5 c 0.876,-0.131 1.543,0.202 2,1 -1.512,0.749 -2.512,1.916 -3,3.5 1.653,2.411 0.987,3.578 -2,3.5 0.204,3.018 0.537,6.018 1,9 -4.481,1.938 -9.148,3.271 -14,4 0.406,-1.609 0.406,-2.943 0,-4 -0.925,1.141 -1.759,1.141 -2.5,0 -0.492,1.049 -0.326,2.049 0.5,3 -1,0.333 -2,0.667 -3,1 -4.754,-0.401 -5.087,-1.734 -1,-4 0.586,0.209 1.086,0.543 1.5,1 0.811,-5.904 3.144,-6.571 7,-2 1.648,-1.217 3.481,-2.05 5.5,-2.5 -0.522,-0.561 -0.855,-1.228 -1,-2 0.789,-1.626 1.789,-3.126 3,-4.5 -0.809,-1.571 -1.143,-3.238 -1,-5 2.099,-1.112 4.433,-1.779 7,-2 z"
       id="path669" />
  </g>
  <g
     id="g670"
     transform="translate(-79.496201,-291.17081)">
    <path
       style="opacity:1"
       fill="#9c9e9d"
       d="m 153.5,381.5 c -0.624,-0.417 -0.957,-1.084 -1,-2 1.569,-2.152 2.069,-4.486 1.5,-7 -0.307,3.376 -2.14,4.71 -5.5,4 -0.259,-2.98 1.074,-4.813 4,-5.5 -1.256,-0.417 -1.923,-1.25 -2,-2.5 4.547,-2.004 7.047,-0.337 7.5,5 1.248,4.245 -0.252,6.912 -4.5,8 z"
       id="path670" />
  </g>
  <g
     id="g671"
     transform="translate(-79.496201,-291.17081)">
    <path
       style="opacity:1"
       fill="#4c4d4c"
       d="m 121.5,368.5 c 4.667,0 9.333,0 14,0 -1.268,1.887 -3.101,2.887 -5.5,3 -3.372,-0.109 -6.206,-1.109 -8.5,-3 z"
       id="path671" />
  </g>
  <g
     id="g672"
     transform="translate(-79.496201,-291.17081)">
    <path
       style="opacity:1"
       fill="#d2d2d2"
       d="m 163.5,305.5 c 5.332,5.106 8.498,11.44 9.5,19 2.68,27.652 -9.82,42.318 -37.5,44 -4.667,0 -9.333,0 -14,0 -1.599,0.268 -2.932,-0.066 -4,-1 3.74,0.259 7.406,-0.074 11,-1 0.333,-0.333 0.667,-0.667 1,-1 -2.469,-0.668 -4.802,-1.335 -7,-2 5.603,0.683 10.603,-0.651 15,-4 0.17,1.322 -0.163,2.489 -1,3.5 0.93,0.991 2.096,1.491 3.5,1.5 11.275,-2.283 19.275,-8.616 24,-19 6.092,-13.456 5.925,-26.789 -0.5,-40 z"
       id="path672" />
  </g>
  <g
     id="g673"
     transform="translate(-79.496201,-291.17081)">
    <path
       style="opacity:1"
       fill="#f8f8f9"
       d="m 163.5,305.5 c 6.425,13.211 6.592,26.544 0.5,40 -4.725,10.384 -12.725,16.717 -24,19 -1.404,-0.009 -2.57,-0.509 -3.5,-1.5 0.837,-1.011 1.17,-2.178 1,-3.5 2.47,-3.595 3.47,-7.595 3,-12 -5.66,0.665 -11.327,1.331 -17,2 -3.8,0.045 -7.467,-0.622 -11,-2 -1.961,0.579 -2.961,1.913 -3,4 1.76,6.759 6.093,10.759 13,12 2.198,0.665 4.531,1.332 7,2 -0.333,0.333 -0.667,0.667 -1,1 -3.594,0.926 -7.26,1.259 -11,1 -11.646,-0.168 -20.4796,-5.168 -26.5,-15 -1.5867,-9.592 -1.9201,-19.258 -1,-29 5.7114,-20.703 19.378,-30.703 41,-30 7.805,-0.039 15.305,1.461 22.5,4.5 3.939,1.791 7.272,4.291 10,7.5 z"
       id="path673" />
  </g>
  <g
     id="g674"
     transform="translate(-79.496201,-291.17081)">
    <path
       style="opacity:1"
       fill="#171514"
       d="m 137.5,359.5 c -4.397,3.349 -9.397,4.683 -15,4 -6.907,-1.241 -11.24,-5.241 -13,-12 0.039,-2.087 1.039,-3.421 3,-4 3.533,1.378 7.2,2.045 11,2 5.673,-0.669 11.34,-1.335 17,-2 0.47,4.405 -0.53,8.405 -3,12 z"
       id="path674" />
  </g>
  <g
     id="g675"
     transform="translate(-79.496201,-291.17081)">
    <path
       style="opacity:1"
       fill="#cd675f"
       d="m 121.5,355.5 c 4.333,0 8.667,0 13,0 0.048,2.792 -1.285,4.625 -4,5.5 -3.652,0.499 -7.318,0.665 -11,0.5 0.104,-2.203 0.77,-4.203 2,-6 z"
       id="path675" />
  </g>
  <g
     id="g676"
     transform="translate(-79.496201,-291.17081)">
    <path
       style="opacity:1"
       fill="#e3e1e7"
       d="m 123.5,350.5 c 1.333,0 2.667,0 4,0 0,1 0,2 0,3 -1.333,0 -2.667,0 -4,0 0,-1 0,-2 0,-3 z"
       id="path676" />
  </g>
  <g
     id="g677"
     transform="translate(-79.496201,-291.17081)">
    <path
       style="opacity:1"
       fill="#dfe1e5"
       d="m 136.5,348.5 c 2.385,1.367 2.052,2.701 -1,4 -0.333,-0.5 -0.667,-1 -1,-1.5 0.556,-1.011 1.222,-1.844 2,-2.5 z"
       id="path677" />
  </g>
  <g
     id="g678"
     transform="translate(-79.496201,-291.17081)">
    <path
       style="opacity:1"
       fill="#dfdfe3"
       d="m 128.5,350.5 c 1.788,-0.285 3.455,0.048 5,1 -2.297,2.79 -3.964,2.456 -5,-1 z"
       id="path678" />
  </g>
  <g
     id="g679"
     transform="translate(-79.496201,-291.17081)">
    <path
       style="opacity:1"
       fill="#c8c9ce"
       d="m 117.5,350.5 c 1.667,0 3.333,0 5,0 0,1 0,2 0,3 -2.785,0.584 -4.452,-0.416 -5,-3 z"
       id="path679" />
  </g>
  <g
     id="g680"
     transform="translate(-79.496201,-291.17081)">
    <path
       style="opacity:1"
       fill="#c6c8d1"
       d="m 113.5,349.5 c 1,0 2,0 3,0 -0.746,3.81 -1.746,3.81 -3,0 z"
       id="path680" />
  </g>
  <g
     id="g681"
     transform="translate(-79.496201,-291.17081)">
    <path
       style="opacity:1"
       fill="#151617"
       d="m 121.5,335.5 c 3.775,0.909 5.608,3.242 5.5,7 -2.614,-0.954 -5.447,-0.954 -8.5,0 0.188,-2.706 1.188,-5.039 3,-7 z"
       id="path681" />
  </g>
  <g
     id="g682"
     transform="translate(-79.496201,-291.17081)">
    <path
       style="opacity:1"
       fill="#c7c6c7"
       d="m 108.5,318.5 c -5.034,-0.061 -8.534,2.273 -10.5,7 -0.908,5.183 -0.408,10.183 1.5,15 -2.6878,-0.524 -4.1878,-2.191 -4.5,-5 -1.8884,-7.088 -0.0551,-12.922 5.5,-17.5 2.867,-0.801 5.534,-0.634 8,0.5 z"
       id="path682" />
  </g>
  <g
     id="g683"
     transform="translate(-79.496201,-291.17081)">
    <path
       style="opacity:1"
       fill="#d5d5d6"
       d="m 143.5,317.5 c -8.424,5.422 -10.257,12.756 -5.5,22 2.239,3.462 5.406,4.795 9.5,4 -0.763,0.768 -1.763,1.268 -3,1.5 1.196,0.654 1.196,1.154 0,1.5 -11.369,-5.278 -14.535,-13.611 -9.5,-25 2.141,-2.821 4.975,-4.154 8.5,-4 z"
       id="path683" />
  </g>
  <g
     id="g684"
     transform="translate(-79.496201,-291.17081)">
    <path
       style="opacity:1"
       fill="#0a0a0c"
       d="m 108.5,318.5 c 8.912,5.563 10.412,12.896 4.5,22 -4.497,3.945 -8.997,3.945 -13.5,0 -1.908,-4.817 -2.408,-9.817 -1.5,-15 1.966,-4.727 5.466,-7.061 10.5,-7 z"
       id="path684" />
  </g>
  <g
     id="g685"
     transform="translate(-79.496201,-291.17081)">
    <path
       style="opacity:1"
       fill="#08090b"
       d="m 143.5,317.5 c 6.566,-0.303 10.733,2.697 12.5,9 0.933,5.868 -0.567,11.035 -4.5,15.5 -1.245,0.791 -2.578,1.291 -4,1.5 -4.094,0.795 -7.261,-0.538 -9.5,-4 -4.757,-9.244 -2.924,-16.578 5.5,-22 z"
       id="path685" />
  </g>
  <g
     id="g688"
     transform="translate(-79.496201,-291.17081)">
    <path
       style="opacity:1"
       fill="#64543f"
       d="m 104.5,476.5 c 5.606,0.907 11.273,1.24 17,1 0.17,1.322 -0.163,2.489 -1,3.5 -4.667,0.667 -9.333,0.667 -14,0 -1.537,-1.11 -2.203,-2.61 -2,-4.5 z"
       id="path688" />
  </g>
  <g
     id="g691"
     transform="translate(-79.496201,-291.17081)">
    <path
       style="opacity:1"
       fill="#584c41"
       d="m 159.5,484.5 c -3.635,0.614 -7.302,0.948 -11,1 0,1 0,2 0,3 -0.934,-1.068 -1.268,-2.401 -1,-4 2.573,0.352 4.906,-0.148 7,-1.5 -3.382,-0.176 -6.715,-0.676 -10,-1.5 -0.928,-1.268 -1.095,-2.601 -0.5,-4 6.217,1.358 12.384,1.025 18.5,-1 0.262,1.478 -0.071,2.811 -1,4 -2.161,0.535 -4.161,1.368 -6,2.5 1.558,0.21 2.891,0.71 4,1.5 z"
       id="path691" />
  </g>
  <g
     id="g694"
     transform="translate(-79.496201,-291.17081)">
    <path
       style="opacity:1"
       fill="#d1d1d3"
       d="m 140.5,474.5 c 1.267,5.201 3.1,10.201 5.5,15 1.667,1.233 3.167,2.567 4.5,4 -4.12,3.621 -9.454,5.621 -16,6 -6.313,-0.707 -12.647,-1.207 -19,-1.5 -3.551,-0.24 -6.718,-1.407 -9.5,-3.5 -1.943,1.307 -3.777,1.307 -5.5,0 6.558,-0.803 12.892,-2.303 19,-4.5 1.267,-1.796 1.267,-3.629 0,-5.5 1.354,-1.354 2.688,-2.688 4,-4 5.51,1.082 11.177,1.082 17,0 0,-2 0,-4 0,-6 z"
       id="path694" />
  </g>
  <g
     id="g697"
     transform="translate(-79.496201,-291.17081)">
    <path
       style="opacity:1"
       fill="#e8e9ea"
       d="m 111.5,490.5 c -4.427,0.625 -7.427,-1.041 -9,-5 1.415,-0.789 2.915,-1.456 4.5,-2 3.771,-0.284 7.605,0.049 11.5,1 0,1.333 0,2.667 0,4 -2.652,-0.09 -4.985,0.576 -7,2 z"
       id="path697" />
  </g>
  <g
     id="g698"
     transform="translate(-79.496201,-291.17081)">
    <path
       style="opacity:1"
       fill="#767677"
       d="m 102.5,485.5 c 1.573,3.959 4.573,5.625 9,5 -3.147,1.24 -6.48,2.24 -10,3 -8.0637,-3.266 -7.7304,-5.932 1,-8 z"
       id="path698" />
  </g>
  <g
     id="g700"
     transform="translate(-79.496201,-291.17081)">
    <path
       style="opacity:1"
       fill="#e2e2e4"
       d="m 159.5,484.5 c 1.422,0.209 2.755,0.709 4,1.5 1.238,0.69 1.238,1.19 0,1.5 -3.813,0.438 -7.146,1.771 -10,4 -2.534,0.241 -4.2,-0.759 -5,-3 0,-1 0,-2 0,-3 3.698,-0.052 7.365,-0.386 11,-1 z"
       id="path700" />
  </g>
  <g
     id="g701"
     transform="translate(-79.496201,-291.17081)">
    <path
       style="opacity:1"
       fill="#898989"
       d="m 163.5,487.5 c 1.218,0.661 2.551,1.328 4,2 -2.542,3.349 -5.708,4.349 -9.5,3 -1.854,2.351 -3.354,2.017 -4.5,-1 2.854,-2.229 6.187,-3.562 10,-4 z"
       id="path701" />
  </g>
</svg>
