<?xml version="1.0" encoding="UTF-8" standalone="no"?>
<svg
   version="1.1"
   width="119.72198"
   height="233.03693"
   style="clip-rule:evenodd;fill-rule:evenodd;image-rendering:optimizeQuality;shape-rendering:geometricPrecision;text-rendering:geometricPrecision"
   id="svg1400"
   xmlns="http://www.w3.org/2000/svg"
   xmlns:svg="http://www.w3.org/2000/svg">
  <defs
     id="defs1400" />
  <g
     id="g19"
     transform="translate(-636.62653,-30.499975)">
    <path
       style="opacity:1"
       fill="#1a1a19"
       d="m 700.5,130.5 c -0.992,0.172 -1.658,-0.162 -2,-1 5.563,-0.724 10.897,-2.057 16,-4 11.682,-3.309 18.848,-10.976 21.5,-23 1.136,-9.173 0.469,-18.173 -2,-27 -5.266,-1.3243 -10.433,-1.3243 -15.5,0 -3.698,0.0524 -7.365,0.3857 -11,1 -4.87,0.1896 -9.536,0.8563 -14,2 -6.854,-0.324 -13.521,0.0093 -20,1 -1,0 -2,0 -3,0 -4.339,-1.7831 -8.839,-2.1165 -13.5,-1 -1.346,4.0617 -2.179,8.2283 -2.5,12.5 1.229,4.157 1.229,8.3237 0,12.5 0.107,3.067 0.607,6.067 1.5,9 0.383,-0.556 0.883,-0.889 1.5,-1 -0.65,1.935 -0.983,3.935 -1,6 -1.435,-2.098 -2.602,-4.431 -3.5,-7 -0.667,-8.333 -0.667,-16.6667 0,-25 0.309,-1.2659 0.809,-2.4326 1.5,-3.5 -5.564,-1.1907 -10.898,-3.1907 -16,-6 -2.102,-1.7328 -2.435,-3.7328 -1,-6 7.265,-4.8103 15.265,-7.3103 24,-7.5 2.399,-12.0596 7.733,-22.5596 16,-31.5 1.667,-0.6667 3.333,-0.6667 5,0 7.447,4.2846 15.114,4.6179 23,1 11.091,-2.9805 18.591,0.8528 22.5,11.5 1.975,6.5151 3.309,13.1818 4,20 9.197,1.5984 17.197,5.5984 24,12 0.595,1.3989 0.428,2.7322 -0.5,4 -5.064,3.5907 -10.731,4.924 -17,4 3.461,28.86 -9.205,44.527 -38,47 z"
       id="path19" />
  </g>
  <g
     id="g20"
     transform="translate(-636.62653,-30.499975)">
    <path
       style="opacity:1"
       fill="#5f5d58"
       d="m 736.5,75.5 c 5.387,-0.0946 10.72,0.4054 16,1.5 0.457,0.414 0.791,0.914 1,1.5 -1.412,1.3064 -3.079,2.1397 -5,2.5 -3.652,0.4986 -7.318,0.6653 -11,0.5 -0.017,-2.0648 -0.35,-4.0648 -1,-6 z"
       id="path20" />
  </g>
  <g
     id="g21"
     transform="translate(-636.62653,-30.499975)">
    <path
       style="opacity:1"
       fill="#5b595a"
       d="m 639.5,72.5 c 5.018,1.0042 10.018,2.1708 15,3.5 0.457,0.414 0.791,0.914 1,1.5 -4.484,1.2417 -8.817,0.7417 -13,-1.5 -1.563,-0.7589 -2.563,-1.9256 -3,-3.5 z"
       id="path21" />
  </g>
  <g
     id="g22"
     transform="translate(-636.62653,-30.499975)">
    <path
       style="opacity:1"
       fill="#f5f6f6"
       d="m 718.5,75.5 c 4,0 8,0 12,0 2.536,13.155 0.369,25.488 -6.5,37 -0.708,0.881 -1.542,1.547 -2.5,2 -0.945,-3.794 -3.279,-5.294 -7,-4.5 4.285,4.406 3.285,6.073 -3,5 -2.043,-1.708 -3.71,-3.708 -5,-6 -6.131,-4.812 -12.131,-4.645 -18,0.5 -3.365,-3.288 -7.365,-4.454 -12,-3.5 -4.207,2.89 -8.373,5.724 -12.5,8.5 -4.407,-0.988 -4.574,-2.488 -0.5,-4.5 -2.579,-2.088 -4.579,-1.588 -6,1.5 -0.617,0.111 -1.117,0.444 -1.5,1 -0.893,-2.933 -1.393,-5.933 -1.5,-9 1.229,-4.1763 1.229,-8.343 0,-12.5 0.321,-4.2717 1.154,-8.4383 2.5,-12.5 4.661,-1.1165 9.161,-0.7831 13.5,1 -0.667,0 -1.333,0 -2,0 -5.867,1.6935 -8.867,5.6935 -9,12 0.059,4.0152 1.393,7.5152 4,10.5 0.948,0.483 1.948,0.649 3,0.5 6.094,2.516 10.594,0.849 13.5,-5 0.667,-4.3333 0.667,-8.6667 0,-13 -1.558,-2.5213 -3.725,-4.188 -6.5,-5 6.479,-0.9907 13.146,-1.324 20,-1 2.687,-0.1641 5.354,0.0026 8,0.5 -5.763,8.5935 -5.263,16.7601 1.5,24.5 0.383,-0.556 0.883,-0.889 1.5,-1 6.437,3.377 11.27,1.711 14.5,-5 3.532,-8.9126 1.032,-15.2459 -7.5,-19 -1.333,-0.6667 -2.667,-1.3333 -4,-2 3.635,-0.6143 7.302,-0.9476 11,-1 z"
       id="path22" />
  </g>
  <g
     id="g23"
     transform="translate(-636.62653,-30.499975)">
    <path
       style="opacity:1"
       fill="#060707"
       d="m 668.5,79.5 c 0.667,0 1.333,0 2,0 1,0 2,0 3,0 2.775,0.812 4.942,2.4787 6.5,5 0.667,4.3333 0.667,8.6667 0,13 -2.906,5.849 -7.406,7.516 -13.5,5 -5.87,-8.2907 -5.204,-15.9573 2,-23 z"
       id="path23" />
  </g>
  <g
     id="g24"
     transform="translate(-636.62653,-30.499975)">
    <path
       style="opacity:1"
       fill="#0c0d0d"
       d="m 711.5,78.5 c 8.532,3.7541 11.032,10.0874 7.5,19 -3.23,6.711 -8.063,8.377 -14.5,5 -6.63,-7.5012 -6.63,-15.0012 0,-22.5 2.177,-1.2022 4.511,-1.7022 7,-1.5 z"
       id="path24" />
  </g>
  <g
     id="g25"
     transform="translate(-636.62653,-30.499975)">
    <path
       style="opacity:1"
       fill="#8f8c8a"
       d="m 653.5,64.5 c 12.729,2.2705 25.562,3.9371 38.5,5 15.185,-1.0017 30.351,-1.8351 45.5,-2.5 5.891,1.6123 11.225,4.2789 16,8 -8.2,-1.3346 -16.533,-2.1679 -25,-2.5 -12.028,0.8368 -24.028,2.0034 -36,3.5 -17.75,1.7868 -35.084,-0.0465 -52,-5.5 4.274,-2.306 8.607,-4.306 13,-6 z"
       id="path25" />
  </g>
  <g
     id="g26"
     transform="translate(-636.62653,-30.499975)">
    <path
       style="opacity:1"
       fill="#666666"
       d="m 665.5,55.5 c 4.277,1.022 8.611,1.8553 13,2.5 17.01,0.6279 34.01,0.4613 51,-0.5 0,2.3333 0,4.6667 0,7 -16.235,2.4451 -32.569,3.2784 -49,2.5 -5.441,-0.7213 -10.774,-1.8879 -16,-3.5 -0.978,-2.7675 -0.645,-5.4342 1,-8 z"
       id="path26" />
  </g>
  <g
     id="g27"
     transform="translate(-636.62653,-30.499975)">
    <path
       style="opacity:1"
       fill="#807f7f"
       d="m 678.5,32.5 c 5.069,1.0324 10.069,2.3657 15,4 4.063,-0.5156 8.063,-1.3489 12,-2.5 11.774,-2.8995 18.941,1.6005 21.5,13.5 0.822,2.6168 1.322,5.2835 1.5,8 -20.718,1.6165 -41.384,1.2831 -62,-1 1.256,-5.1855 3.09,-10.1855 5.5,-15 1.694,-2.8576 3.861,-5.191 6.5,-7 z"
       id="path27" />
  </g>
  <g
     id="g29"
     transform="translate(-636.62653,-30.499975)">
    <path
       style="opacity:1"
       fill="#cacbcb"
       d="m 668.5,79.5 c -7.204,7.0427 -7.87,14.7093 -2,23 -1.052,0.149 -2.052,-0.017 -3,-0.5 -2.607,-2.9848 -3.941,-6.4848 -4,-10.5 0.133,-6.3065 3.133,-10.3065 9,-12 z"
       id="path29" />
  </g>
  <g
     id="g30"
     transform="translate(-636.62653,-30.499975)">
    <path
       style="opacity:1"
       fill="#d3d3d3"
       d="m 707.5,76.5 c 1.333,0.6667 2.667,1.3333 4,2 -2.489,-0.2022 -4.823,0.2978 -7,1.5 -6.63,7.4988 -6.63,14.9988 0,22.5 -0.617,0.111 -1.117,0.444 -1.5,1 -6.763,-7.7399 -7.263,-15.9065 -1.5,-24.5 -2.646,-0.4974 -5.313,-0.6641 -8,-0.5 4.464,-1.1437 9.13,-1.8104 14,-2 z"
       id="path30" />
  </g>
  <g
     id="g35"
     transform="translate(-636.62653,-30.499975)">
    <path
       style="opacity:1"
       fill="#0e0e0e"
       d="m 686.5,96.5 c 4.466,1.1267 5.8,3.793 4,8 -1.314,-0.813 -2.481,-1.813 -3.5,-3 -2.711,2.665 -3.711,1.998 -3,-2 1.045,-0.8734 1.878,-1.8734 2.5,-3 z"
       id="path35" />
  </g>
  <g
     id="g37"
     transform="translate(-636.62653,-30.499975)">
    <path
       style="opacity:1"
       fill="#0c0b0b"
       d="m 721.5,114.5 c -0.142,3.117 -1.476,5.617 -4,7.5 -3.863,1.354 -7.863,1.854 -12,1.5 -2.196,-0.09 -4.363,-0.423 -6.5,-1 -7.291,3.245 -14.125,2.578 -20.5,-2 -3.916,1.688 -7.25,3.022 -10,4 0,0.667 -0.333,1 -1,1 -4.817,-1.159 -8.484,-3.826 -11,-8 0.017,-2.065 0.35,-4.065 1,-6 1.421,-3.088 3.421,-3.588 6,-1.5 -4.074,2.012 -3.907,3.512 0.5,4.5 4.127,-2.776 8.293,-5.61 12.5,-8.5 4.635,-0.954 8.635,0.212 12,3.5 5.869,-5.145 11.869,-5.312 18,-0.5 1.29,2.292 2.957,4.292 5,6 6.285,1.073 7.285,-0.594 3,-5 3.721,-0.794 6.055,0.706 7,4.5 z"
       id="path37" />
  </g>
  <g
     id="g43"
     transform="translate(-636.62653,-30.499975)">
    <path
       style="opacity:1"
       fill="#cfcecd"
       d="m 718.5,75.5 c 5.067,-1.3243 10.234,-1.3243 15.5,0 2.469,8.827 3.136,17.827 2,27 -2.652,12.024 -9.818,19.691 -21.5,23 -3,-0.667 -6,-1.333 -9,-2 4.137,0.354 8.137,-0.146 12,-1.5 2.524,-1.883 3.858,-4.383 4,-7.5 0.958,-0.453 1.792,-1.119 2.5,-2 6.869,-11.512 9.036,-23.845 6.5,-37 -4,0 -8,0 -12,0 z"
       id="path43" />
  </g>
  <g
     id="g52"
     transform="translate(-636.62653,-30.499975)">
    <path
       style="opacity:1"
       fill="#e2837b"
       d="m 687.5,116.5 c 2.989,0.798 5.655,2.298 8,4.5 -3.539,1.504 -7.205,1.837 -11,1 -0.457,-0.414 -0.791,-0.914 -1,-1.5 1.688,-1.021 3.021,-2.355 4,-4 z"
       id="path52" />
  </g>
  <g
     id="g53"
     transform="translate(-636.62653,-30.499975)">
    <path
       style="opacity:1"
       fill="#ededed"
       d="m 705.5,123.5 c 3,0.667 6,1.333 9,2 -5.103,1.943 -10.437,3.276 -16,4 -10.549,1.199 -20.549,-0.467 -30,-5 2.75,-0.978 6.084,-2.312 10,-4 6.375,4.578 13.209,5.245 20.5,2 2.137,0.577 4.304,0.91 6.5,1 z"
       id="path53" />
  </g>
  <g
     id="g60"
     transform="translate(-636.62653,-30.499975)">
    <path
       style="opacity:1"
       fill="#2c2b2a"
       d="m 668.5,124.5 c 9.451,4.533 19.451,6.199 30,5 0.342,0.838 1.008,1.172 2,1 0,1 0,2 0,3 3.682,-0.165 7.348,0.001 11,0.5 3.099,0.387 5.766,1.554 8,3.5 0.172,0.992 -0.162,1.658 -1,2 -1.348,-1.98 -3.348,-3.147 -6,-3.5 -3.196,-0.805 -6.196,-0.638 -9,0.5 -0.438,-0.065 -0.772,0.101 -1,0.5 0.916,0.278 1.582,0.778 2,1.5 -3.159,-0.019 -5.826,1.148 -8,3.5 1.973,0.495 3.973,0.662 6,0.5 -1.667,0.667 -3.333,1.333 -5,2 -1.083,0.039 -2.083,0.373 -3,1 -2.453,-2.42 -5.453,-3.586 -9,-3.5 1.124,-0.249 2.124,-0.749 3,-1.5 -0.457,-0.798 -1.124,-1.131 -2,-1 1.006,-0.896 1.006,-1.562 0,-2 -2.298,-2.847 -3.631,-2.513 -4,1 -0.838,-0.342 -1.172,-1.008 -1,-2 -1.419,-0.951 -3.085,-1.284 -5,-1 -0.342,-0.838 -1.008,-1.172 -2,-1 3.853,-0.666 7.853,-1.333 12,-2 -6.785,-1.37 -13.118,-3.703 -19,-7 0.667,0 1,-0.333 1,-1 z"
       id="path60" />
  </g>
  <g
     id="g61"
     transform="translate(-636.62653,-30.499975)">
    <path
       style="opacity:1"
       fill="#e1e2e1"
       d="m 686.5,137.5 c -1.208,0.734 -2.541,1.067 -4,1 0.369,-3.513 1.702,-3.847 4,-1 z"
       id="path61" />
  </g>
  <g
     id="g62"
     transform="translate(-636.62653,-30.499975)">
    <path
       style="opacity:1"
       fill="#d6d6d3"
       d="m 688.5,131.5 c 3.333,0 6.667,0 10,0 0,1.333 0,2.667 0,4 -3.072,0.317 -6.072,-0.016 -9,-1 -0.627,-0.917 -0.961,-1.917 -1,-3 z"
       id="path62" />
  </g>
  <g
     id="g63"
     transform="translate(-636.62653,-30.499975)">
    <path
       style="opacity:1"
       fill="#bbb8b9"
       d="m 703.5,136.5 c 2.804,-1.138 5.804,-1.305 9,-0.5 2.652,0.353 4.652,1.52 6,3.5 -5.032,-0.841 -10.032,-1.841 -15,-3 z"
       id="path63" />
  </g>
  <g
     id="g65"
     transform="translate(-636.62653,-30.499975)">
    <path
       style="opacity:1"
       fill="#e0dee1"
       d="m 676.5,135.5 c 1.915,-0.284 3.581,0.049 5,1 -2.924,1.086 -5.924,1.586 -9,1.5 0.971,-1.481 2.304,-2.315 4,-2.5 z"
       id="path65" />
  </g>
  <g
     id="g67"
     transform="translate(-636.62653,-30.499975)">
    <path
       style="opacity:1"
       fill="#201f1e"
       d="m 674.5,134.5 c 0.992,-0.172 1.658,0.162 2,1 -1.696,0.185 -3.029,1.019 -4,2.5 3.076,0.086 6.076,-0.414 9,-1.5 -0.172,0.992 0.162,1.658 1,2 1.459,0.067 2.792,-0.266 4,-1 1.006,0.438 1.006,1.104 0,2 -1.984,-0.016 -2.984,0.984 -3,3 0.548,2.056 1.714,3.723 3.5,5 0.333,3 0.667,6 1,9 1.154,2.457 2.488,2.457 4,0 0.333,-2.667 0.667,-5.333 1,-8 1.714,-1.425 3.047,-1.092 4,1 2.818,-1.806 2.984,-3.472 0.5,-5 1.667,-0.667 3.333,-1.333 5,-2 0.667,-1.333 1.333,-2.667 2,-4 -0.418,-0.722 -1.084,-1.222 -2,-1.5 0.228,-0.399 0.562,-0.565 1,-0.5 4.968,1.159 9.968,2.159 15,3 0.838,-0.342 1.172,-1.008 1,-2 2.577,2.265 5.41,4.265 8.5,6 0.553,8.445 4.22,15.111 11,20 3.573,14.147 5.573,28.481 6,43 -1.586,0.876 -3.086,1.876 -4.5,3 -1.521,-0.38 -3.187,-0.546 -5,-0.5 -0.774,-2.405 -1.274,-4.905 -1.5,-7.5 -3.047,2.81 -4.38,2.143 -4,-2 0.383,-0.556 0.883,-0.889 1.5,-1 0.518,-1.077 0.852,-2.244 1,-3.5 -1.926,-7.39 -3.259,-14.89 -4,-22.5 -0.978,-0.477 -1.811,-1.143 -2.5,-2 -0.188,-4.377 -1.521,-8.377 -4,-12 -0.58,10.052 -0.08,20.052 1.5,30 -3.351,2.801 -4.851,6.468 -4.5,11 -0.833,1.667 -1.667,3.333 -2.5,5 1.618,4.144 2.451,8.478 2.5,13 0.667,0.667 1.333,1.333 2,2 0.18,6.343 0.18,12.676 0,19 1.211,3.575 3.378,6.242 6.5,8 9.632,4.723 9.299,8.556 -1,11.5 -2.385,0.556 -4.718,0.39 -7,-0.5 -2.604,-2.1 -5.104,-4.433 -7.5,-7 -0.49,-2.045 -0.323,-4.045 0.5,-6 0.165,-3.35 -0.002,-6.683 -0.5,-10 -2.639,-3.944 -4.139,-8.278 -4.5,-13 0.667,-1 1.333,-2 2,-3 -0.636,2.606 -0.636,5.106 0,7.5 3.67,-0.159 7.337,-0.659 11,-1.5 -0.454,-2.64 -1.621,-4.973 -3.5,-7 0.016,-4.295 -0.817,-8.295 -2.5,-12 -0.333,-0.667 -0.667,-1.333 -1,-2 3.508,-1.925 4.841,-4.925 4,-9 -1.762,-0.143 -3.429,0.191 -5,1 -2.162,5.581 -6.162,7.747 -12,6.5 -0.837,-1.011 -1.17,-2.178 -1,-3.5 -4.526,-1.593 -9.193,-2.593 -14,-3 1.327,6.174 -1.006,8.341 -7,6.5 -2.135,-0.876 -3.469,-2.376 -4,-4.5 -0.172,-0.992 0.162,-1.658 1,-2 2.282,0.89 4.615,1.056 7,0.5 2,-1.667 4,-3.333 6,-5 -1.324,-10.137 -1.324,-20.303 0,-30.5 -2.116,-1.9 -3.449,-4.233 -4,-7 -2.927,-4.195 -5.094,-8.861 -6.5,-14 -2,0.667 -4,1.333 -6,2 -2.863,15.886 -4.196,31.886 -4,48 0.717,0.544 1.217,1.211 1.5,2 -0.524,1.806 -1.191,3.472 -2,5 0.175,-2.121 -0.159,-4.121 -1,-6 0.166,-5.676 -10e-4,-11.343 -0.5,-17 -0.813,1.936 -1.313,3.936 -1.5,6 -0.801,6.067 -2.801,11.734 -6,17 2.521,1.76 3.354,4.093 2.5,7 -1.113,1.211 -2.28,1.211 -3.5,0 -0.966,1.896 -1.299,3.896 -1,6 -3.509,0.042 -6.842,-0.624 -10,-2 2.065,-9.127 3.565,-18.46 4.5,-28 1.306,-3.946 3.139,-7.612 5.5,-11 -0.928,-1.268 -1.095,-2.601 -0.5,-4 6.431,-4.59 9.431,-10.923 9,-19 3.207,-2.205 5.207,-5.205 6,-9 0.816,-1.323 1.983,-1.989 3.5,-2 z"
       id="path67" />
  </g>
  <g
     id="g68"
     transform="translate(-636.62653,-30.499975)">
    <path
       style="opacity:1"
       fill="#cfd0cf"
       d="m 690.5,137.5 c 1.667,0 3.333,0 5,0 0.116,3.41 -1.55,4.744 -5,4 0,-1.333 0,-2.667 0,-4 z"
       id="path68" />
  </g>
  <g
     id="g69"
     transform="translate(-636.62653,-30.499975)">
    <path
       style="opacity:1"
       fill="#e3e1de"
       d="m 704.5,138.5 c -0.667,1.333 -1.333,2.667 -2,4 -2.027,0.162 -4.027,-0.005 -6,-0.5 2.174,-2.352 4.841,-3.519 8,-3.5 z"
       id="path69" />
  </g>
  <g
     id="g91"
     transform="translate(-636.62653,-30.499975)">
    <path
       style="opacity:1"
       fill="#efefef"
       d="m 722.5,142.5 c 1.322,-0.17 2.489,0.163 3.5,1 0.483,6.216 2.483,11.882 6,17 1.441,1.37 3.108,2.37 5,3 0.483,0.948 0.649,1.948 0.5,3 -3.639,0.66 -6.972,1.994 -10,4 -0.256,-8.515 -4.09,-14.848 -11.5,-19 -1.033,-4.427 0.8,-6.76 5.5,-7 0.363,-0.683 0.696,-1.35 1,-2 z"
       id="path91" />
  </g>
  <g
     id="g120"
     transform="translate(-636.62653,-30.499975)">
    <path
       style="opacity:1"
       fill="#a89e8f"
       d="m 684.5,153.5 c 0.551,2.767 1.884,5.1 4,7 -1.324,10.197 -1.324,20.363 0,30.5 -2,1.667 -4,3.333 -6,5 -2.385,0.556 -4.718,0.39 -7,-0.5 -1.705,-1.692 -3.705,-3.025 -6,-4 -0.283,-0.789 -0.783,-1.456 -1.5,-2 -0.196,-16.114 1.137,-32.114 4,-48 2,-0.667 4,-1.333 6,-2 1.406,5.139 3.573,9.805 6.5,14 z"
       id="path120" />
  </g>
  <g
     id="g121"
     transform="translate(-636.62653,-30.499975)">
    <path
       style="opacity:1"
       fill="#eaeae8"
       d="m 686.5,139.5 c 0.876,-0.131 1.543,0.202 2,1 -0.876,0.751 -1.876,1.251 -3,1.5 3.547,-0.086 6.547,1.08 9,3.5 0.917,-0.627 1.917,-0.961 3,-1 2.484,1.528 2.318,3.194 -0.5,5 -0.953,-2.092 -2.286,-2.425 -4,-1 -0.333,2.667 -0.667,5.333 -1,8 -1.512,2.457 -2.846,2.457 -4,0 -0.333,-3 -0.667,-6 -1,-9 -1.786,-1.277 -2.952,-2.944 -3.5,-5 0.016,-2.016 1.016,-3.016 3,-3 z"
       id="path121" />
  </g>
  <g
     id="g124"
     transform="translate(-636.62653,-30.499975)">
    <path
       style="opacity:1"
       fill="#9a9794"
       d="m 684.5,153.5 c -1.249,-7.101 -0.582,-7.434 2,-1 -0.457,0.798 -1.124,1.131 -2,1 z"
       id="path124" />
  </g>
  <g
     id="g133"
     transform="translate(-636.62653,-30.499975)">
    <path
       style="opacity:1"
       fill="#ebecec"
       d="m 668.5,143.5 c 0.639,0.597 0.972,1.43 1,2.5 -1.01,8.552 -2.344,17.052 -4,25.5 -1.805,-2.093 -4.138,-3.26 -7,-3.5 -0.522,-0.561 -0.855,-1.228 -1,-2 3.186,-2.531 5.686,-5.698 7.5,-9.5 0.763,-4.546 1.929,-8.879 3.5,-13 z"
       id="path133" />
  </g>
  <g
     id="g134"
     transform="translate(-636.62653,-30.499975)">
    <path
       style="opacity:1"
       fill="#ebe9e9"
       d="m 714.5,154.5 c 0.397,-1.025 1.063,-1.192 2,-0.5 2.107,1.264 3.107,3.097 3,5.5 -1.175,0.219 -2.175,-0.114 -3,-1 -0.494,-1.526 -1.161,-2.859 -2,-4 z"
       id="path134" />
  </g>
  <g
     id="g165"
     transform="translate(-636.62653,-30.499975)">
    <path
       style="opacity:1"
       fill="#ada392"
       d="m 714.5,159.5 c 0.479,10.969 0.479,21.969 0,33 -6.01,2.919 -12.343,4.086 -19,3.5 -6.305,-5.581 -8.638,-12.581 -7,-21 -0.107,-4.612 0.393,-9.112 1.5,-13.5 6.807,-6.958 12.64,-14.625 17.5,-23 2.596,0.982 5.262,1.649 8,2 -2.029,6.256 -2.363,12.59 -1,19 z"
       id="path165" />
  </g>
  <g
     id="g166"
     transform="translate(-636.62653,-30.499975)">
    <path
       style="opacity:1"
       fill="#1f1f1c"
       d="m 692.5,162.5 c 2.412,0.194 3.412,1.527 3,4 -1.333,0 -2.667,0 -4,0 -0.067,-1.459 0.266,-2.792 1,-4 z"
       id="path166" />
  </g>
  <g
     id="g167"
     transform="translate(-636.62653,-30.499975)">
    <path
       style="opacity:1"
       fill="#4c4840"
       d="m 717.5,161.5 c 1,0 2,0 3,0 0,4.667 0,9.333 0,14 -0.453,-4.779 -1.453,-9.446 -3,-14 z"
       id="path167" />
  </g>
  <g
     id="g208"
     transform="translate(-636.62653,-30.499975)">
    <path
       style="opacity:1"
       fill="#2a2925"
       d="m 691.5,172.5 c 1.333,0 2.667,0 4,0 0.333,3 -1,4.333 -4,4 0,-1.333 0,-2.667 0,-4 z"
       id="path208" />
  </g>
  <g
     id="g209"
     transform="translate(-636.62653,-30.499975)">
    <path
       style="opacity:1"
       fill="#e0e0e2"
       d="m 732.5,169.5 c 0.595,7.483 1.929,14.983 4,22.5 -0.18,2.241 -1.013,2.741 -2.5,1.5 -3.501,-7.949 -4.001,-15.949 -1.5,-24 z"
       id="path209" />
  </g>
  <g
     id="g222"
     transform="translate(-636.62653,-30.499975)">
    <path
       style="opacity:1"
       fill="#373630"
       d="m 692.5,181.5 c 2.412,0.194 3.412,1.527 3,4 -1.333,0 -2.667,0 -4,0 -0.067,-1.459 0.266,-2.792 1,-4 z"
       id="path222" />
  </g>
  <g
     id="g223"
     transform="translate(-636.62653,-30.499975)">
    <path
       style="opacity:1"
       fill="#968c7a"
       d="m 714.5,159.5 c 1,0.667 2,1.333 3,2 1.547,4.554 2.547,9.221 3,14 0.667,4.66 0.833,9.326 0.5,14 -2.052,1.293 -4.219,2.293 -6.5,3 0.479,-11.031 0.479,-22.031 0,-33 z"
       id="path223" />
  </g>
  <g
     id="g224"
     transform="translate(-636.62653,-30.499975)">
    <path
       style="opacity:1"
       fill="#e3e3e6"
       d="m 656.5,170.5 c 0.639,0.597 0.972,1.43 1,2.5 -1.738,4.547 -3.071,9.213 -4,14 0.042,1.967 0.542,3.801 1.5,5.5 3.685,-6.888 5.185,-14.222 4.5,-22 2.965,0.23 4.298,1.897 4,5 -0.638,7.421 -3.138,14.088 -7.5,20 -0.667,-0.667 -1.333,-1.333 -2,-2 -2.395,1.298 -3.562,0.465 -3.5,-2.5 0.809,-7.233 2.809,-14.067 6,-20.5 z"
       id="path224" />
  </g>
  <g
     id="g225"
     transform="translate(-636.62653,-30.499975)">
    <path
       style="opacity:1"
       fill="#656364"
       d="m 666.5,190.5 c -0.667,-3.667 -1.333,-7.333 -2,-11 0.187,-2.064 0.687,-4.064 1.5,-6 0.499,5.657 0.666,11.324 0.5,17 z"
       id="path225" />
  </g>
  <g
     id="g227"
     transform="translate(-636.62653,-30.499975)">
    <path
       style="opacity:1"
       fill="#e9e8e9"
       d="m 735.5,169.5 c 1,0 2,0 3,0 2.422,7.807 3.422,15.807 3,24 -1.333,0 -2.667,0 -4,0 0.201,-3.008 0.534,-6.008 1,-9 -1.213,-4.968 -2.213,-9.968 -3,-15 z"
       id="path227" />
  </g>
  <g
     id="g237"
     transform="translate(-636.62653,-30.499975)">
    <path
       style="opacity:1"
       fill="#edecec"
       d="m 674.5,197.5 c 0.531,2.124 1.865,3.624 4,4.5 5.994,1.841 8.327,-0.326 7,-6.5 4.807,0.407 9.474,1.407 14,3 -0.17,1.322 0.163,2.489 1,3.5 5.838,1.247 9.838,-0.919 12,-6.5 1.571,-0.809 3.238,-1.143 5,-1 0.841,4.075 -0.492,7.075 -4,9 -2.252,1.649 -3.919,3.815 -5,6.5 -4.084,1.282 -7.418,0.282 -10,-3 -3.539,-0.282 -7.039,-0.782 -10.5,-1.5 -2.566,3.712 -6.066,4.878 -10.5,3.5 -0.96,-1.419 -1.793,-2.919 -2.5,-4.5 -5.066,-2.081 -6.733,-5.748 -5,-11 1.667,1.233 3.167,2.567 4.5,4 z"
       id="path237" />
  </g>
  <g
     id="g242"
     transform="translate(-636.62653,-30.499975)">
    <path
       style="opacity:1"
       fill="#deddde"
       d="m 742.5,197.5 c 0,1 0,2 0,3 -0.876,-0.131 -1.543,0.202 -2,1 1.02,1.932 1.187,3.932 0.5,6 -1.319,-1.75 -1.819,-3.75 -1.5,-6 -1.333,0 -2.667,0 -4,0 -0.239,-1.967 0.094,-3.801 1,-5.5 1,-0.167 2,-0.333 3,-0.5 1.53,0.14 2.53,0.807 3,2 z"
       id="path242" />
  </g>
  <g
     id="g248"
     transform="translate(-636.62653,-30.499975)">
    <path
       style="opacity:1"
       fill="#c9c9c9"
       d="m 649.5,196.5 c 2.333,0 4.667,0 7,0 -0.421,3.7 -1.088,7.367 -2,11 -0.667,-1.667 -1.333,-3.333 -2,-5 0.022,1.495 -0.311,3.162 -1,5 -0.578,-2.869 -1.578,-5.535 -3,-8 0.627,-0.917 0.961,-1.917 1,-3 z"
       id="path248" />
  </g>
  <g
     id="g249"
     transform="translate(-636.62653,-30.499975)">
    <path
       style="opacity:1"
       fill="#b9b8bd"
       d="m 657.5,198.5 c 1.773,0.814 2.273,2.148 1.5,4 -1.188,-1.063 -1.688,-2.397 -1.5,-4 z"
       id="path249" />
  </g>
  <g
     id="g250"
     transform="translate(-636.62653,-30.499975)">
    <path
       style="opacity:1"
       fill="#d1d1d5"
       d="m 731.5,198.5 c 2.512,0.716 2.512,1.716 0,3 -0.587,-0.733 -0.587,-1.733 0,-3 z"
       id="path250" />
  </g>
  <g
     id="g256"
     transform="translate(-636.62653,-30.499975)">
    <path
       style="opacity:1"
       fill="#8b8a8c"
       d="m 742.5,197.5 c 1.879,2.415 2.213,5.082 1,8 -0.952,-1.545 -1.285,-3.212 -1,-5 0,-1 0,-2 0,-3 z"
       id="path256" />
  </g>
  <g
     id="g264"
     transform="translate(-636.62653,-30.499975)">
    <path
       style="opacity:1"
       fill="#f9f9f9"
       d="m 707.5,221.5 c 0.361,4.722 1.861,9.056 4.5,13 0.498,3.317 0.665,6.65 0.5,10 -7.865,-1.884 -15.865,-2.384 -24,-1.5 -0.544,0.717 -1.211,1.217 -2,1.5 -1.696,-2.736 -2.862,-5.736 -3.5,-9 -0.004,-7.745 0.162,-15.412 0.5,-23 4.26,-4.036 9.26,-5.036 15,-3 2.334,1.941 4.834,3.607 7.5,5 1.202,2.177 1.702,4.511 1.5,7 z"
       id="path264" />
  </g>
  <g
     id="g268"
     transform="translate(-636.62653,-30.499975)">
    <path
       style="opacity:1"
       fill="#e7e7e7"
       d="m 714.5,205.5 c 1.683,3.705 2.516,7.705 2.5,12 1.879,2.027 3.046,4.36 3.5,7 -3.663,0.841 -7.33,1.341 -11,1.5 -0.636,-2.394 -0.636,-4.894 0,-7.5 -0.377,-1.758 -1.044,-3.425 -2,-5 2.444,-2.763 4.777,-5.43 7,-8 z"
       id="path268" />
  </g>
  <g
     id="g291"
     transform="translate(-636.62653,-30.499975)">
    <path
       style="opacity:1"
       fill="#272726"
       d="m 669.5,191.5 c 2.295,0.975 4.295,2.308 6,4 -0.838,0.342 -1.172,1.008 -1,2 -1.333,-1.433 -2.833,-2.767 -4.5,-4 -1.733,5.252 -0.066,8.919 5,11 0.707,1.581 1.54,3.081 2.5,4.5 4.434,1.378 7.934,0.212 10.5,-3.5 3.461,0.718 6.961,1.218 10.5,1.5 2.582,3.282 5.916,4.282 10,3 1.081,-2.685 2.748,-4.851 5,-6.5 0.333,0.667 0.667,1.333 1,2 -2.223,2.57 -4.556,5.237 -7,8 0.956,1.575 1.623,3.242 2,5 -0.667,1 -1.333,2 -2,3 0.202,-2.489 -0.298,-4.823 -1.5,-7 -2.666,-1.393 -5.166,-3.059 -7.5,-5 -5.74,-2.036 -10.74,-1.036 -15,3 -0.338,7.588 -0.504,15.255 -0.5,23 0.638,3.264 1.804,6.264 3.5,9 2.97,2.906 2.637,5.406 -1,7.5 -3.765,1.049 -7.432,2.382 -11,4 -5.498,1.618 -9.831,0.118 -13,-4.5 0.363,-0.683 0.696,-1.35 1,-2 3.823,-1.489 7.49,-3.156 11,-5 1.752,-5.006 0.919,-9.672 -2.5,-14 -0.564,-2.655 -1.064,-5.321 -1.5,-8 1.98,-4.213 2.314,-8.546 1,-13 0.222,-1.555 0.889,-2.889 2,-4 -2.985,-2.306 -4.652,-5.306 -5,-9 0.809,-1.528 1.476,-3.194 2,-5 z"
       id="path291" />
  </g>
  <g
     id="g292"
     transform="translate(-636.62653,-30.499975)">
    <path
       style="opacity:1"
       fill="#e7e7e6"
       d="m 673.5,206.5 c 1.08,3.411 3.414,5.411 7,6 0.052,3.698 0.386,7.365 1,11 -3.679,0.224 -7.346,0.558 -11,1 0.923,-3.296 1.923,-6.629 3,-10 -1.037,-2.743 -1.037,-5.41 0,-8 z"
       id="path292" />
  </g>
  <g
     id="g296"
     transform="translate(-636.62653,-30.499975)">
    <path
       style="opacity:1"
       fill="#e7e7e7"
       d="m 672.5,226.5 c 3.072,-0.317 6.072,0.016 9,1 -0.587,1.773 -0.92,3.606 -1,5.5 0.516,4.36 1.516,8.527 3,12.5 -2.361,-0.174 -4.694,-0.507 -7,-1 0.734,-6.128 -0.932,-11.461 -5,-16 0.363,-0.683 0.696,-1.35 1,-2 z"
       id="path296" />
  </g>
  <g
     id="g297"
     transform="translate(-636.62653,-30.499975)">
    <path
       style="opacity:1"
       fill="#eaebea"
       d="m 715.5,226.5 c 1.667,0 3.333,0 5,0 -1.616,5.655 -1.283,11.155 1,16.5 -1.836,1.419 -3.836,2.586 -6,3.5 -0.827,-3.959 -1.327,-7.959 -1.5,-12 -0.85,-1.51 -1.683,-3.01 -2.5,-4.5 1.186,-1.412 2.519,-2.579 4,-3.5 z"
       id="path297" />
  </g>
  <g
     id="g309"
     transform="translate(-636.62653,-30.499975)">
    <path
       style="opacity:1"
       fill="#d2d2d3"
       d="m 712.5,244.5 c -0.823,1.955 -0.99,3.955 -0.5,6 2.396,2.567 4.896,4.9 7.5,7 -3.403,1.425 -7.07,2.258 -11,2.5 -17.779,1.942 -35.112,0.276 -52,-5 -1.333,-0.667 -1.333,-1.333 0,-2 1.293,-0.49 2.627,-0.657 4,-0.5 0.17,-1.322 -0.163,-2.489 -1,-3.5 1.077,-0.47 2.077,-0.303 3,0.5 -0.304,0.65 -0.637,1.317 -1,2 3.169,4.618 7.502,6.118 13,4.5 3.568,-1.618 7.235,-2.951 11,-4 3.637,-2.094 3.97,-4.594 1,-7.5 0.789,-0.283 1.456,-0.783 2,-1.5 8.135,-0.884 16.135,-0.384 24,1.5 z"
       id="path309" />
  </g>
  <g
     id="g312"
     transform="translate(-636.62653,-30.499975)">
    <path
       style="opacity:1"
       fill="#eaeaeb"
       d="m 729.5,250.5 c -1.653,0.16 -2.986,0.826 -4,2 -2.177,0.086 -4.177,0.753 -6,2 -1.693,-1.527 -3.527,-2.86 -5.5,-4 -0.483,-0.948 -0.649,-1.948 -0.5,-3 2.813,-0.048 5.479,-0.715 8,-2 3.068,1.191 5.735,2.858 8,5 z"
       id="path312" />
  </g>
  <g
     id="g313"
     transform="translate(-636.62653,-30.499975)">
    <path
       style="opacity:1"
       fill="#eeeef0"
       d="m 672.5,252.5 c -0.843,-1.673 -2.176,-2.84 -4,-3.5 2.672,-1.557 5.505,-2.724 8.5,-3.5 2.77,0.848 5.603,1.181 8.5,1 0,1.333 0,2.667 0,4 -1.699,-0.16 -3.366,0.006 -5,0.5 -2.333,2.504 -4.999,3.004 -8,1.5 z"
       id="path313" />
  </g>
  <g
     id="g340"
     transform="translate(-636.62653,-30.499975)">
    <path
       style="opacity:1"
       fill="#e4e4e5"
       d="m 673.5,244.5 c -3.51,1.844 -7.177,3.511 -11,5 -0.923,-0.803 -1.923,-0.97 -3,-0.5 0.837,1.011 1.17,2.178 1,3.5 -1.373,-0.157 -2.707,0.01 -4,0.5 -1.333,0.667 -1.333,1.333 0,2 16.888,5.276 34.221,6.942 52,5 3.93,-0.242 7.597,-1.075 11,-2.5 2.282,0.89 4.615,1.056 7,0.5 10.299,-2.944 10.632,-6.777 1,-11.5 5.305,-0.177 10.305,0.99 15,3.5 1.575,2.87 0.908,5.037 -2,6.5 -5.897,1.291 -11.564,3.124 -17,5.5 -22.859,2.785 -45.526,1.785 -68,-3 -9.51,-4.788 -9.177,-8.788 1,-12 5.677,-0.835 11.344,-1.669 17,-2.5 z"
       id="path340" />
  </g>
  <g
     id="g341"
     transform="translate(-636.62653,-30.499975)">
    <path
       style="opacity:1"
       fill="#e6e8e8"
       d="m 721.5,255.5 c 1.349,-1.297 2.682,-1.13 4,0.5 -1.428,0.579 -2.762,0.412 -4,-0.5 z"
       id="path341" />
  </g>
  <g
     id="g342"
     transform="translate(-636.62653,-30.499975)">
    <path
       style="opacity:1"
       fill="#d1d1d2"
       d="m 672.5,252.5 c 0.111,0.617 0.444,1.117 1,1.5 -1.372,0.402 -2.705,0.902 -4,1.5 -0.962,-2.383 0.038,-3.383 3,-3 z"
       id="path342" />
  </g>
  <g
     id="g343"
     transform="translate(-636.62653,-30.499975)">
    <path
       style="opacity:1"
       fill="#838484"
       d="m 729.5,250.5 c 2.186,0.011 3.019,1.011 2.5,3 -1.164,0.335 -2.497,0.335 -4,0 -1.22,2.357 -2.053,2.024 -2.5,-1 1.014,-1.174 2.347,-1.84 4,-2 z"
       id="path343" />
  </g>
</svg>
