<?xml version="1.0" encoding="UTF-8" standalone="no"?>
<svg
   version="1.1"
   width="123.03247"
   height="210.76419"
   style="clip-rule:evenodd;fill-rule:evenodd;image-rendering:optimizeQuality;shape-rendering:geometricPrecision;text-rendering:geometricPrecision"
   id="svg1400"
   xmlns="http://www.w3.org/2000/svg"
   xmlns:svg="http://www.w3.org/2000/svg">
  <defs
     id="defs1400" />
  <g
     id="g71"
     transform="translate(-835.46753,-52.685059)">
    <path
       style="opacity:1"
       fill="#1d1d1c"
       d="m 955.5,147.5 c -2.125,1.622 -4.125,3.455 -6,5.5 -2.352,8.342 -7.019,15.008 -14,20 -8.474,1.348 -13.641,-2.152 -15.5,-10.5 -1.667,-1.667 -3.333,-3.333 -5,-5 -0.664,10.552 -0.164,21.052 1.5,31.5 -0.567,3.641 -0.901,7.308 -1,11 0.642,11.542 1.642,23.042 3,34.5 0,1.333 0,2.667 0,4 -5.846,1.733 -11.846,2.4 -18,2 -0.06,-0.543 -0.393,-0.876 -1,-1 -0.676,1.102 -1.342,2.102 -2,3 0.284,-1.915 -0.049,-3.581 -1,-5 -2.329,-6.654 -4.663,-13.321 -7,-20 -2.527,-0.714 -5.027,-1.38 -7.5,-2 -2.921,7.033 -4.088,14.366 -3.5,22 0.796,4.13 -0.538,7.297 -4,9.5 0.83,1.465 0.996,2.965 0.5,4.5 -4.455,1.448 -8.955,2.781 -13.5,4 -1.052,0.149 -2.052,-0.017 -3,-0.5 2.879,-0.546 5.546,-1.379 8,-2.5 1.238,-0.31 1.238,-0.81 0,-1.5 2.31,-0.497 4.643,-0.663 7,-0.5 0.214,-1.644 -0.12,-3.144 -1,-4.5 -5.55,-0.997 -10.883,-0.497 -16,1.5 -0.667,0 -1,-0.333 -1,-1 3.541,-0.643 4.374,-2.31 2.5,-5 -0.333,-13.667 -0.667,-27.333 -1,-41 -1.252,-2.514 -1.752,-5.18 -1.5,-8 0.166,-5.676 -10e-4,-11.343 -0.5,-17 -0.813,1.936 -1.313,3.936 -1.5,6 -1.064,5.192 -2.731,10.192 -5,15 1.262,2.522 1.929,5.189 2,8 -1.644,0.214 -3.144,-0.12 -4.5,-1 -0.333,2.333 -0.667,4.667 -1,7 -1.49,1.228 -2.99,1.228 -4.5,0 0,-1 0,-2 0,-3 -0.667,-4 1,-5.667 5,-5 0,-1.667 0,-3.333 0,-5 -2.333,0 -4.667,0 -7,0 -0.052,2.403 0.281,4.736 1,7 -1.624,-1.637 -2.624,-1.303 -3,1 0.352,1.286 1.018,2.119 2,2.5 -0.07,0.765 -0.403,1.265 -1,1.5 -1.526,-0.992 -2.193,-2.492 -2,-4.5 2.24,-7.953 3.74,-16.12 4.5,-24.5 2.533,-4.727 4.199,-9.727 5,-15 6.668,-5.336 10.168,-12.336 10.5,-21 4.112,-2.438 7.446,-5.605 10,-9.5 4.321,-0.499 8.654,-0.666 13,-0.5 0,-1 0,-2 0,-3 -29.842,-1.361 -41.342,-16.695 -34.5,-46 2.96,-16.9595 12.794,-27.4595 29.5,-31.5 18.042,-3.6133 34.209,0.2201 48.5,11.5 8.114,11.045 10.78,23.3783 8,37 -2.606,12.395 -9.772,20.895 -21.5,25.5 -5.735,1.313 -11.401,2.813 -17,4.5 7.587,0.126 14.754,1.793 21.5,5 0.483,0.948 0.649,1.948 0.5,3 5.356,0.525 8.19,3.525 8.5,9 2.212,4.578 5.712,7.078 10.5,7.5 5.848,-5.776 8.848,-12.776 9,-21 -0.932,-4.48 -1.099,-8.98 -0.5,-13.5 1.587,-1.227 2.921,-0.894 4,1 1,3.333 2,6.667 3,10 0.741,-4.493 2.741,-8.159 6,-11 1.732,0.234 2.566,1.234 2.5,3 -0.767,3.567 -1.767,7.067 -3,10.5 2.149,1.756 3.815,3.923 5,6.5 -0.257,2.192 -1.257,3.859 -3,5 z"
       id="path71" />
  </g>
  <g
     id="g72"
     transform="translate(-835.46753,-52.685059)">
    <path
       style="opacity:1"
       fill="#818183"
       d="m 948.5,142.5 c -1.418,-1.808 -3.418,-2.475 -6,-2 2.557,-1.088 5.224,-2.088 8,-3 0.098,2.053 -0.569,3.72 -2,5 z"
       id="path72" />
  </g>
  <g
     id="g73"
     transform="translate(-835.46753,-52.685059)">
    <path
       style="opacity:1"
       fill="#d8d9d9"
       d="m 942.5,140.5 c 2.582,-0.475 4.582,0.192 6,2 -2.104,-0.299 -4.104,0.034 -6,1 2.339,0.918 3.839,2.584 4.5,5 1.494,-1.247 2.994,-1.247 4.5,0 -1.193,1.884 -2.859,2.384 -5,1.5 -4.35,-1.327 -6.183,-4.16 -5.5,-8.5 0.383,-0.556 0.883,-0.889 1.5,-1 z"
       id="path73" />
  </g>
  <g
     id="g74"
     transform="translate(-835.46753,-52.685059)">
    <path
       style="opacity:1"
       fill="#7d7d7d"
       d="m 910.5,145.5 c -0.333,0 -0.667,0 -1,0 0,-1.667 0,-3.333 0,-5 1.818,-1.578 2.818,-1.078 3,1.5 -0.362,1.434 -1.028,2.601 -2,3.5 z"
       id="path74" />
  </g>
  <g
     id="g75"
     transform="translate(-835.46753,-52.685059)">
    <path
       style="opacity:1"
       fill="#dfdfdf"
       d="m 952.5,138.5 c 1.195,0.366 1.861,1.199 2,2.5 -0.612,2.058 -1.612,3.891 -3,5.5 -0.333,-0.5 -0.667,-1 -1,-1.5 1.109,-2.047 1.776,-4.213 2,-6.5 z"
       id="path75" />
  </g>
  <g
     id="g76"
     transform="translate(-835.46753,-52.685059)">
    <path
       style="opacity:1"
       fill="#563d26"
       d="m 909.5,140.5 c -1.91,1.475 -3.076,3.475 -3.5,6 -1.101,5.516 -0.267,10.683 2.5,15.5 1.525,1.009 3.192,1.509 5,1.5 0.12,9.435 0.12,18.768 0,28 -8.735,4.972 -18.069,7.139 -28,6.5 -2.196,-2.525 -4.362,-5.025 -6.5,-7.5 -0.92,-9.742 -0.587,-19.408 1,-29 7.073,-7.904 13.573,-16.237 19.5,-25 0.667,-0.333 1.333,-0.667 2,-1 2.63,0.878 5.297,1.545 8,2 0,1 0,2 0,3 z"
       id="path76" />
  </g>
  <g
     id="g77"
     transform="translate(-835.46753,-52.685059)">
    <path
       style="opacity:1"
       fill="#eae9e9"
       d="m 893.5,135.5 c 1.478,-0.262 2.811,0.071 4,1 -0.209,0.586 -0.543,1.086 -1,1.5 -5.642,0.999 -10.975,2.499 -16,4.5 0,-1.333 0,-2.667 0,-4 4.856,0.661 9.19,-0.339 13,-3 z"
       id="path77" />
  </g>
  <g
     id="g78"
     transform="translate(-835.46753,-52.685059)">
    <path
       style="opacity:1"
       fill="#d7d7da"
       d="m 872.5,135.5 c 2.921,-0.354 5.254,0.646 7,3 -0.333,1 -1,1.667 -2,2 -1.571,-0.809 -3.238,-1.143 -5,-1 0,-1.333 0,-2.667 0,-4 z"
       id="path78" />
  </g>
  <g
     id="g79"
     transform="translate(-835.46753,-52.685059)">
    <path
       style="opacity:1"
       fill="#c5c4c5"
       d="m 941.5,123.5 c 1.25,0.077 2.083,0.744 2.5,2 0.515,4.077 1.349,8.077 2.5,12 -1.151,1.231 -2.317,1.231 -3.5,0 -0.829,-4.637 -1.329,-9.304 -1.5,-14 z"
       id="path79" />
  </g>
  <g
     id="g80"
     transform="translate(-835.46753,-52.685059)">
    <path
       style="opacity:1"
       fill="#d6d6d7"
       d="m 952.5,124.5 c 1.149,0.291 1.816,1.124 2,2.5 -0.583,3.418 -1.749,6.584 -3.5,9.5 -0.87,-0.608 -1.37,-1.441 -1.5,-2.5 1.107,-3.154 2.107,-6.32 3,-9.5 z"
       id="path80" />
  </g>
  <g
     id="g81"
     transform="translate(-835.46753,-52.685059)">
    <path
       style="opacity:1"
       fill="#d4d3d2"
       d="m 879.5,132.5 c 3.333,0 6.667,0 10,0 0.125,3.393 -1.542,4.726 -5,4 -3.458,0.726 -5.125,-0.607 -5,-4 z"
       id="path81" />
  </g>
  <g
     id="g82"
     transform="translate(-835.46753,-52.685059)">
    <path
       style="opacity:1"
       fill="#d2d2d1"
       d="m 918.5,66.5 c 4.929,4.1769 8.096,9.5102 9.5,16 4.178,30.333 -8.989,46 -39.5,47 0.528,-1.221 1.195,-2.387 2,-3.5 -4.188,-0.176 -8.188,-0.676 -12,-1.5 4.205,0.309 8.205,-0.357 12,-2 0.059,2.222 1.225,3.222 3.5,3 15.282,-3.282 24.615,-12.615 28,-28 2.845,-10.8938 1.678,-21.2272 -3.5,-31 z"
       id="path82" />
  </g>
  <g
     id="g83"
     transform="translate(-835.46753,-52.685059)">
    <path
       style="opacity:1"
       fill="#f8f9f9"
       d="m 918.5,66.5 c 5.178,9.7728 6.345,20.1062 3.5,31 -3.385,15.385 -12.718,24.718 -28,28 -2.275,0.222 -3.441,-0.778 -3.5,-3 4.929,-3.348 6.596,-7.848 5,-13.5 -5.436,-0.443 -10.769,0.057 -16,1.5 -3.646,0.072 -7.146,-0.595 -10.5,-2 -2.291,0.624 -3.457,2.124 -3.5,4.5 1.79,6.582 6.124,10.415 13,11.5 3.812,0.824 7.812,1.324 12,1.5 -0.805,1.113 -1.472,2.279 -2,3.5 -39.66,1.732 -52.826,-16.268 -39.5,-54 5.359,-9.9409 13.525,-16.4409 24.5,-19.5 10.052,-0.8645 20.052,-0.5312 30,1 6.047,1.6804 11.047,4.8471 15,9.5 z"
       id="path83" />
  </g>
  <g
     id="g84"
     transform="translate(-835.46753,-52.685059)">
    <path
       style="opacity:1"
       fill="#110e0e"
       d="m 890.5,122.5 c -3.795,1.643 -7.795,2.309 -12,2 -6.876,-1.085 -11.21,-4.918 -13,-11.5 0.043,-2.376 1.209,-3.876 3.5,-4.5 3.354,1.405 6.854,2.072 10.5,2 5.231,-1.443 10.564,-1.943 16,-1.5 1.596,5.652 -0.071,10.152 -5,13.5 z"
       id="path84" />
  </g>
  <g
     id="g85"
     transform="translate(-835.46753,-52.685059)">
    <path
       style="opacity:1"
       fill="#e36966"
       d="m 882.5,115.5 c 3.564,-0.349 6.898,0.317 10,2 -1.649,2.495 -3.983,3.995 -7,4.5 -2.982,0.498 -5.982,0.665 -9,0.5 -0.149,-1.052 0.017,-2.052 0.5,-3 1.812,-1.477 3.645,-2.81 5.5,-4 z"
       id="path85" />
  </g>
  <g
     id="g86"
     transform="translate(-835.46753,-52.685059)">
    <path
       style="opacity:1"
       fill="#101111"
       d="m 877.5,97.5 c 4.138,0.4732 6.138,2.807 6,7 -1.984,0.117 -3.65,-0.55 -5,-2 -3.05,2.934 -4.217,2.268 -3.5,-2 1.045,-0.8734 1.878,-1.8734 2.5,-3 z"
       id="path86" />
  </g>
  <g
     id="g87"
     transform="translate(-835.46753,-52.685059)">
    <path
       style="opacity:1"
       fill="#141414"
       d="m 896.5,90.5 c 5.4,-0.7151 9.9,0.9515 13.5,5 0.781,1.4437 0.614,2.777 -0.5,4 -2.408,-3.1203 -5.574,-4.787 -9.5,-5 -3.274,1.114 -6.44,2.4473 -9.5,4 0.845,-3.5146 2.845,-6.1813 6,-8 z"
       id="path87" />
  </g>
  <g
     id="g88"
     transform="translate(-835.46753,-52.685059)">
    <path
       style="opacity:1"
       fill="#cececf"
       d="m 865.5,80.5 c -5.808,-0.8481 -9.642,1.4852 -11.5,7 -0.882,4.8525 -0.382,9.5192 1.5,14 -2.688,-0.524 -4.188,-2.1908 -4.5,-5 -1.611,-7.2715 0.556,-13.1048 6.5,-17.5 3.038,-0.885 5.705,-0.385 8,1.5 z"
       id="path88" />
  </g>
  <g
     id="g89"
     transform="translate(-835.46753,-52.685059)">
    <path
       style="opacity:1"
       fill="#0a0b0c"
       d="m 865.5,80.5 c 6.97,4.2434 8.803,10.2434 5.5,18 -4.087,6.653 -9.253,7.653 -15.5,3 -1.882,-4.4808 -2.382,-9.1475 -1.5,-14 1.858,-5.5148 5.692,-7.8481 11.5,-7 z"
       id="path89" />
  </g>
  <g
     id="g92"
     transform="translate(-835.46753,-52.685059)">
    <path
       style="opacity:1"
       fill="#583f28"
       d="m 866.5,136.5 c 1.333,0 2.667,0 4,0 0.092,8.531 2.259,16.531 6.5,24 0.199,11.2 0.699,22.367 1.5,33.5 -2.361,2.43 -5.195,3.93 -8.5,4.5 -4.828,-0.914 -9.162,-2.914 -13,-6 -0.939,-18.427 1.394,-36.427 7,-54 0.995,-0.566 1.828,-1.233 2.5,-2 z"
       id="path92" />
  </g>
  <g
     id="g94"
     transform="translate(-835.46753,-52.685059)">
    <path
       style="opacity:1"
       fill="#cbcacc"
       d="m 955.5,147.5 c -0.876,0.131 -1.543,-0.202 -2,-1 2.795,-6.57 3.461,-6.236 2,1 z"
       id="path94" />
  </g>
  <g
     id="g110"
     transform="translate(-835.46753,-52.685059)">
    <path
       style="opacity:1"
       fill="#e6e5e3"
       d="m 883.5,152.5 c -0.699,2.056 -1.699,4.056 -3,6 -0.502,1.021 -1.168,1.188 -2,0.5 0.219,-3.839 -0.281,-7.673 -1.5,-11.5 -3.094,-0.293 -4.594,-1.959 -4.5,-5 3.856,0.471 7.689,1.138 11.5,2 2.166,-0.664 4.166,-1.664 6,-3 0.833,0.167 1.667,0.333 2.5,0.5 -1.333,0.667 -2.667,1.333 -4,2 1.456,0.423 1.956,1.256 1.5,2.5 -1.6,1.366 -3.433,2.366 -5.5,3 -0.627,0.917 -0.961,1.917 -1,3 z"
       id="path110" />
  </g>
  <g
     id="g113"
     transform="translate(-835.46753,-52.685059)">
    <path
       style="opacity:1"
       fill="#edecec"
       d="m 928.5,168.5 c -0.343,1.725 -1.343,2.225 -3,1.5 -2.669,-8.67 -8.169,-14.837 -16.5,-18.5 -0.789,-2.212 -0.622,-4.212 0.5,-6 0.333,0 0.667,0 1,0 1.859,0.039 3.192,-0.794 4,-2.5 1,-0.667 2,-0.667 3,0 1.439,5.87 4.439,10.87 9,15 1.587,0.862 3.254,1.529 5,2 -3.702,2.113 -4.702,4.946 -3,8.5 z"
       id="path113" />
  </g>
  <g
     id="g125"
     transform="translate(-835.46753,-52.685059)">
    <path
       style="opacity:1"
       fill="#dddade"
       d="m 883.5,152.5 c 0.863,-0.963 1.53,-0.963 2,0 -0.757,1.273 -1.423,1.273 -2,0 z"
       id="path125" />
  </g>
  <g
     id="g135"
     transform="translate(-835.46753,-52.685059)">
    <path
       style="opacity:1"
       fill="#e9e7e5"
       d="m 907.5,152.5 c 1.385,1.114 2.885,2.114 4.5,3 0.884,2.141 0.384,3.807 -1.5,5 -2.163,-2.147 -3.163,-4.814 -3,-8 z"
       id="path135" />
  </g>
  <g
     id="g154"
     transform="translate(-835.46753,-52.685059)">
    <path
       style="opacity:1"
       fill="#dbdbdd"
       d="m 928.5,168.5 c -0.157,-1.373 0.01,-2.707 0.5,-4 4,-5.333 8,-10.667 12,-16 1.552,1.466 3.386,2.466 5.5,3 -0.296,7.227 -3.296,13.394 -9,18.5 -1.544,1.187 -3.211,1.52 -5,1 5.918,-4.674 10.251,-10.508 13,-17.5 -0.333,-0.333 -0.667,-0.667 -1,-1 -5.484,3.644 -8.984,8.644 -10.5,15 -1.556,2.135 -3.389,2.468 -5.5,1 z"
       id="path154" />
  </g>
  <g
     id="g158"
     transform="translate(-835.46753,-52.685059)">
    <path
       style="opacity:1"
       fill="#e9e9ea"
       d="m 858.5,143.5 c 0.639,0.597 0.972,1.43 1,2.5 -1.398,8.891 -3.065,17.724 -5,26.5 -1.609,-2.44 -3.943,-3.607 -7,-3.5 -0.522,-0.561 -0.855,-1.228 -1,-2 6.502,-5.176 9.668,-12.009 9.5,-20.5 1.045,-0.873 1.878,-1.873 2.5,-3 z"
       id="path158" />
  </g>
  <g
     id="g162"
     transform="translate(-835.46753,-52.685059)">
    <path
       style="opacity:1"
       fill="#15130f"
       d="m 882.5,164.5 c 1,0 2,0 3,0 0,1.333 0,2.667 0,4 -1.333,0 -2.667,0 -4,0 -0.067,-1.459 0.266,-2.792 1,-4 z"
       id="path162" />
  </g>
  <g
     id="g210"
     transform="translate(-835.46753,-52.685059)">
    <path
       style="opacity:1"
       fill="#16130e"
       d="m 881.5,174.5 c 1.333,0 2.667,0 4,0 0.333,3 -1,4.333 -4,4 0,-1.333 0,-2.667 0,-4 z"
       id="path210" />
  </g>
  <g
     id="g228"
     transform="translate(-835.46753,-52.685059)">
    <path
       style="opacity:1"
       fill="#6c6e6e"
       d="m 855.5,192.5 c -0.667,-3.667 -1.333,-7.333 -2,-11 0.187,-2.064 0.687,-4.064 1.5,-6 0.499,5.657 0.666,11.324 0.5,17 z"
       id="path228" />
  </g>
  <g
     id="g229"
     transform="translate(-835.46753,-52.685059)">
    <path
       style="opacity:1"
       fill="#dddddf"
       d="m 845.5,171.5 c 0.876,-0.131 1.543,0.202 2,1 -0.867,3.435 -2.034,6.769 -3.5,10 -1.479,13.193 -0.146,13.86 4,2 0.499,-4.321 0.666,-8.654 0.5,-13 2.821,-0.184 4.488,1.149 5,4 -0.813,7.057 -3.147,13.557 -7,19.5 -2.346,-0.792 -4.679,-0.625 -7,0.5 0.133,-8.533 2.133,-16.533 6,-24 z"
       id="path229" />
  </g>
  <g
     id="g238"
     transform="translate(-835.46753,-52.685059)">
    <path
       style="opacity:1"
       fill="#e6e6e8"
       d="m 912.5,193.5 c 1.098,1.101 1.265,2.434 0.5,4 -6.36,3.958 -13.194,5.292 -20.5,4 4.617,-1.56 9.283,-3.06 14,-4.5 2.227,-0.941 4.227,-2.108 6,-3.5 z"
       id="path238" />
  </g>
  <g
     id="g245"
     transform="translate(-835.46753,-52.685059)">
    <path
       style="opacity:1"
       fill="#dfe0e1"
       d="m 840.5,207.5 c -0.904,-0.709 -1.237,-1.709 -1,-3 -0.719,-2.264 -1.052,-4.597 -1,-7 2.333,0 4.667,0 7,0 0,1.667 0,3.333 0,5 -4,-0.667 -5.667,1 -5,5 z"
       id="path245" />
  </g>
  <g
     id="g251"
     transform="translate(-835.46753,-52.685059)">
    <path
       style="opacity:1"
       fill="#656663"
       d="m 872.5,201.5 c 0,-0.333 0,-0.667 0,-1 2.771,-2.959 3.771,-2.626 3,1 -1.027,-1.291 -2.027,-1.291 -3,0 z"
       id="path251" />
  </g>
  <g
     id="g253"
     transform="translate(-835.46753,-52.685059)">
    <path
       style="opacity:1"
       fill="#cccbcc"
       d="m 880.5,197.5 c 3.333,0 5,1.667 5,5 -1.667,0 -3.333,0 -5,0 0,-1.667 0,-3.333 0,-5 z"
       id="path253" />
  </g>
  <g
     id="g255"
     transform="translate(-835.46753,-52.685059)">
    <path
       style="opacity:1"
       fill="#d1cfd3"
       d="m 872.5,200.5 c 0,0.333 0,0.667 0,1 -5.242,1.65 -9.909,0.484 -14,-3.5 0.333,-0.5 0.667,-1 1,-1.5 3.976,2.548 8.31,3.881 13,4 z"
       id="path255" />
  </g>
  <g
     id="g257"
     transform="translate(-835.46753,-52.685059)">
    <path
       style="opacity:1"
       fill="#a4a7a9"
       d="m 846.5,199.5 c 2.332,0.662 2.999,1.995 2,4 -1.611,-0.82 -2.278,-2.154 -2,-4 z"
       id="path257" />
  </g>
  <g
     id="g259"
     transform="translate(-835.46753,-52.685059)">
    <path
       style="opacity:1"
       fill="#727a7f"
       d="m 908.5,208.5 c 1.332,1.33 2.165,2.997 2.5,5 0.361,8.394 1.194,16.728 2.5,25 -4.749,1.439 -9.416,1.272 -14,-0.5 -3.058,-7.382 -5.891,-14.882 -8.5,-22.5 -5.037,-0.488 -9.87,-1.821 -14.5,-4 -0.333,0.167 -0.667,0.333 -1,0.5 2.113,0.872 3.446,2.372 4,4.5 -1.655,6.568 -2.822,13.235 -3.5,20 -4.681,2.405 -9.515,2.572 -14.5,0.5 -0.691,-1.067 -1.191,-2.234 -1.5,-3.5 -0.5,-10.328 -0.666,-20.661 -0.5,-31 1.052,-0.149 2.052,0.017 3,0.5 -1.507,0.837 -2.007,2.004 -1.5,3.5 1.062,-1.399 2.395,-2.399 4,-3 4.805,0.913 9.638,0.913 14.5,0 0.349,8.397 1.349,8.73 3,1 0.798,1.578 1.298,3.244 1.5,5 0.273,-1.601 0.773,-3.101 1.5,-4.5 6,-0.667 12,-0.667 18,0 1.289,1.802 2.956,2.969 5,3.5 z"
       id="path259" />
  </g>
  <g
     id="g260"
     transform="translate(-835.46753,-52.685059)">
    <path
       style="opacity:1"
       fill="#6a6c6d"
       d="m 839.5,204.5 c -0.237,1.291 0.096,2.291 1,3 0,1 0,2 0,3 -1.291,0.237 -2.291,-0.096 -3,-1 0.597,-0.235 0.93,-0.735 1,-1.5 -0.982,-0.381 -1.648,-1.214 -2,-2.5 0.376,-2.303 1.376,-2.637 3,-1 z"
       id="path260" />
  </g>
  <g
     id="g261"
     transform="translate(-835.46753,-52.685059)">
    <path
       style="opacity:1"
       fill="#9fa09f"
       d="m 841.5,204.5 c 2.584,0.548 3.584,2.215 3,5 -1,0 -2,0 -3,0 0,-1.667 0,-3.333 0,-5 z"
       id="path261" />
  </g>
  <g
     id="g269"
     transform="translate(-835.46753,-52.685059)">
    <path
       style="opacity:1"
       fill="#f7f8f7"
       d="m 896.5,237.5 c 0,2 0,4 0,6 -5.344,0.166 -10.677,-0.001 -16,-0.5 -0.609,-1.948 -1.276,-3.782 -2,-5.5 -0.588,-7.634 0.579,-14.967 3.5,-22 2.473,0.62 4.973,1.286 7.5,2 2.337,6.679 4.671,13.346 7,20 z"
       id="path269" />
  </g>
  <g
     id="g270"
     transform="translate(-835.46753,-52.685059)">
    <path
       style="opacity:1"
       fill="#565d62"
       d="m 913.5,238.5 c -1.306,-8.272 -2.139,-16.606 -2.5,-25 -0.335,-2.003 -1.168,-3.67 -2.5,-5 0.739,0.131 1.406,-0.036 2,-0.5 -3.272,-0.437 -4.939,-2.27 -5,-5.5 2.667,-0.667 5.333,-1.333 8,-2 0.18,11.639 1.514,23.139 4,34.5 -0.702,1.856 -2.036,3.023 -4,3.5 z"
       id="path270" />
  </g>
  <g
     id="g300"
     transform="translate(-835.46753,-52.685059)">
    <path
       style="opacity:1"
       fill="#7b848c"
       d="m 859.5,238.5 c 5.621,0.854 11.288,1.187 17,1 0,1.333 0,2.667 0,4 -4.679,0.166 -9.345,-0.001 -14,-0.5 -2.363,-0.589 -3.363,-2.089 -3,-4.5 z"
       id="path300" />
  </g>
  <g
     id="g304"
     transform="translate(-835.46753,-52.685059)">
    <path
       style="opacity:1"
       fill="#848a91"
       d="m 918.5,238.5 c 0.535,2.738 -0.465,4.572 -3,5.5 -5,0.667 -10,0.667 -15,0 -1.291,-1.292 -1.291,-2.458 0,-3.5 6.154,0.4 12.154,-0.267 18,-2 z"
       id="path304" />
  </g>
  <g
     id="g310"
     transform="translate(-835.46753,-52.685059)">
    <path
       style="opacity:1"
       fill="#272727"
       d="m 918.5,234.5 c 1.54,2.338 2.206,5.005 2,8 -0.891,0.761 -1.558,1.761 -2,3 1.693,1.527 3.527,2.86 5.5,4 0.798,1.759 0.631,3.426 -0.5,5 -4.406,2.268 -9.073,3.601 -14,4 -2.156,-2.341 -4.656,-4.341 -7.5,-6 -0.192,-2.077 -0.692,-4.077 -1.5,-6 -1.788,-0.783 -2.788,-2.116 -3,-4 0.658,-0.898 1.324,-1.898 2,-3 0.607,0.124 0.94,0.457 1,1 -1.291,1.042 -1.291,2.208 0,3.5 5,0.667 10,0.667 15,0 2.535,-0.928 3.535,-2.762 3,-5.5 0,-1.333 0,-2.667 0,-4 z"
       id="path310" />
  </g>
  <g
     id="g315"
     transform="translate(-835.46753,-52.685059)">
    <path
       style="opacity:1"
       fill="#e1e2e3"
       d="m 866.5,252.5 c -4.446,0.444 -7.779,-1.223 -10,-5 5.117,-1.997 10.45,-2.497 16,-1.5 0.88,1.356 1.214,2.856 1,4.5 -2.357,-0.163 -4.69,0.003 -7,0.5 1.238,0.69 1.238,1.19 0,1.5 z"
       id="path315" />
  </g>
  <g
     id="g316"
     transform="translate(-835.46753,-52.685059)">
    <path
       style="opacity:1"
       fill="#e6e7e7"
       d="m 920.5,242.5 c -0.219,1.175 0.114,2.175 1,3 3.925,0.34 7.425,1.674 10.5,4 1.301,1.865 1.635,3.865 1,6 -4.042,1.972 -8.209,3.472 -12.5,4.5 -24.322,4.599 -48.655,4.599 -73,0 -2.882,-1.52 -5.882,-2.853 -9,-4 -2.387,-2.953 -1.721,-5.286 2,-7 4.316,-0.996 8.649,-1.83 13,-2.5 0,0.333 0,0.667 0,1 -6.292,1.882 -6.625,4.549 -1,8 4.468,1.259 9.134,3.093 14,5.5 9.667,0.667 19.333,0.667 29,0 4.889,-0.354 9.556,-1.187 14,-2.5 4.927,-0.399 9.594,-1.732 14,-4 1.131,-1.574 1.298,-3.241 0.5,-5 -1.973,-1.14 -3.807,-2.473 -5.5,-4 0.442,-1.239 1.109,-2.239 2,-3 z"
       id="path316" />
  </g>
  <g
     id="g317"
     transform="translate(-835.46753,-52.685059)">
    <path
       style="opacity:1"
       fill="#686969"
       d="m 853.5,247.5 c 0,-0.333 0,-0.667 0,-1 0.667,0 1.333,0 2,0 0,0.667 0.333,1 1,1 2.221,3.777 5.554,5.444 10,5 -2.454,1.121 -5.121,1.954 -8,2.5 0.948,0.483 1.948,0.649 3,0.5 -1.068,0.934 -2.401,1.268 -4,1 -1.462,-1.301 -2.796,-2.801 -4,-4.5 0.513,-1.752 0.513,-3.252 0,-4.5 z"
       id="path317" />
  </g>
  <g
     id="g318"
     transform="translate(-835.46753,-52.685059)">
    <path
       style="opacity:1"
       fill="#2a2a2b"
       d="m 853.5,247.5 c 0.513,1.248 0.513,2.748 0,4.5 1.204,1.699 2.538,3.199 4,4.5 -1.716,-0.129 -3.383,-0.462 -5,-1 -5.625,-3.451 -5.292,-6.118 1,-8 z"
       id="path318" />
  </g>
  <g
     id="g319"
     transform="translate(-835.46753,-52.685059)">
    <path
       style="opacity:1"
       fill="#d4d4d5"
       d="m 878.5,237.5 c 0.724,1.718 1.391,3.552 2,5.5 5.323,0.499 10.656,0.666 16,0.5 0,-2 0,-4 0,-6 0.951,1.419 1.284,3.085 1,5 0.212,1.884 1.212,3.217 3,4 0.808,1.923 1.308,3.923 1.5,6 2.844,1.659 5.344,3.659 7.5,6 -4.444,1.313 -9.111,2.146 -14,2.5 -9.667,0.667 -19.333,0.667 -29,0 -4.866,-2.407 -9.532,-4.241 -14,-5.5 1.617,0.538 3.284,0.871 5,1 1.599,0.268 2.932,-0.066 4,-1 4.545,-1.219 9.045,-2.552 13.5,-4 0.496,-1.535 0.33,-3.035 -0.5,-4.5 3.462,-2.203 4.796,-5.37 4,-9.5 z"
       id="path319" />
  </g>
  <g
     id="g320"
     transform="translate(-835.46753,-52.685059)">
    <path
       style="opacity:1"
       fill="#e6e6e7"
       d="m 920.5,249.5 c -2.652,-0.09 -4.985,0.576 -7,2 -1.459,-0.067 -2.792,0.266 -4,1 -1.333,0 -2.667,0 -4,0 -1.756,-1.052 -2.423,-2.719 -2,-5 4.672,-0.503 9.339,-0.669 14,-0.5 1.442,0.377 2.442,1.21 3,2.5 z"
       id="path320" />
  </g>
  <g
     id="g321"
     transform="translate(-835.46753,-52.685059)">
    <path
       style="opacity:1"
       fill="#4c4b51"
       d="m 913.5,251.5 c 0.438,-0.065 0.772,0.101 1,0.5 -1.146,0.645 -2.146,1.478 -3,2.5 -1.022,-0.355 -1.689,-1.022 -2,-2 1.208,-0.734 2.541,-1.067 4,-1 z"
       id="path321" />
  </g>
  <g
     id="g331"
     transform="translate(-835.46753,-52.685059)">
    <path
       style="opacity:1"
       fill="#9f9f9f"
       d="m 920.5,249.5 c 2.186,0.011 3.019,1.011 2.5,3 -1.164,0.335 -2.497,0.335 -4,0 -2.05,2.51 -4.383,3.844 -7,4 -2.334,-1.19 -4.501,-2.523 -6.5,-4 1.333,0 2.667,0 4,0 0.311,0.978 0.978,1.645 2,2 0.854,-1.022 1.854,-1.855 3,-2.5 -0.228,-0.399 -0.562,-0.565 -1,-0.5 2.015,-1.424 4.348,-2.09 7,-2 z"
       id="path331" />
  </g>
</svg>
