<?xml version="1.0" encoding="UTF-8" standalone="no"?>
<svg
   version="1.1"
   width="452"
   height="227"
   style="clip-rule:evenodd;fill-rule:evenodd;image-rendering:optimizeQuality;shape-rendering:geometricPrecision;text-rendering:geometricPrecision"
   id="svg2290"
   xmlns="http://www.w3.org/2000/svg"
   xmlns:svg="http://www.w3.org/2000/svg">
  <defs
     id="defs2290" />
  <g
     id="g592"
     transform="translate(-529.5,-274.5)">
    <path
       style="opacity:1"
       fill="#483c37"
       d="m 981.5,462.5 c -24.333,0 -48.667,0 -73,0 0,-10.333 0,-20.667 0,-31 10,0 20,0 30,0 0,-6 0,-12 0,-18 -5.667,0 -11.333,0 -17,0 0,-3.333 0,-6.667 0,-10 -2.333,0 -4.667,0 -7,0 -0.333,-5.333 -0.667,-10.667 -1,-16 1.165,-0.996 1.832,-2.329 2,-4 -0.866,-3.192 -2.532,-5.859 -5,-8 -12.542,-44.054 -40.876,-73.554 -85,-88.5 -34.764,-9.042 -70.097,-12.042 -106,-9 -28.069,2.69 -54.069,11.356 -78,26 -6.125,4.456 -11.958,9.289 -17.5,14.5 -4.5,5.833 -9,11.667 -13.5,17.5 0.228,0.399 0.562,0.565 1,0.5 -8.52,6.043 -12.52,14.376 -12,25 -1.953,2.641 -3.453,5.641 -4.5,9 -8.831,29.668 -12.998,60.002 -12.5,91 -17.667,0 -35.333,0 -53,0 0,-62.333 0,-124.667 0,-187 150.667,0 301.333,0 452,0 0,62.667 0,125.333 0,188 z"
       id="path592" />
  </g>
  <g
     id="g593"
     transform="translate(-529.5,-274.5)">
    <path
       style="opacity:1"
       fill="#725b4e"
       d="m 910.5,375.5 c -5.457,-4.433 -10.29,-3.766 -14.5,2 -1.653,5.878 -0.153,10.712 4.5,14.5 0.937,0.692 1.603,0.525 2,-0.5 1.333,0 2.667,0 4,0 -0.763,0.768 -1.763,1.268 -3,1.5 1.11,2.737 1.277,5.571 0.5,8.5 -1.699,0.906 -3.533,1.239 -5.5,1 0,3.667 0,7.333 0,11 -3.829,0.569 -7.163,-0.098 -10,-2 1.113,-1.446 1.28,-3.113 0.5,-5 -4.982,-3.297 -7.315,-7.963 -7,-14 -0.417,-1.256 -1.25,-1.923 -2.5,-2 -1.068,-0.934 -2.401,-1.268 -4,-1 -0.374,-3.388 -2.374,-5.222 -6,-5.5 -3.677,-0.108 -7.343,-0.108 -11,0 5.158,-2.038 10.491,-3.704 16,-5 11.379,-5.91 16.713,-15.41 16,-28.5 -1.463,-18.296 -11.463,-28.129 -30,-29.5 -26.832,-1.168 -39.832,11.832 -39,39 0.097,3.788 1.097,7.288 3,10.5 -2.598,3.526 -5.598,3.86 -9,1 -3.466,2.04 -3.799,4.54 -1,7.5 -2.445,7.284 -3.279,14.784 -2.5,22.5 0.179,-3.525 0.679,-6.859 1.5,-10 0,3.667 0,7.333 0,11 -1.932,4.113 -0.598,6.78 4,8 1.446,1.113 3.113,1.28 5,0.5 2.141,-1.308 4.141,-2.808 6,-4.5 0.927,1.613 1.761,3.279 2.5,5 -0.623,2.937 -0.957,5.937 -1,9 1.5,2.833 3.667,5 6.5,6.5 -5.155,4.27 -5.322,8.77 -0.5,13.5 0.407,3.182 0.907,6.349 1.5,9.5 -1.36,2.27 -2.027,4.77 -2,7.5 0.039,1.083 0.373,2.083 1,3 -23.324,1 -46.657,1.333 -70,1 0.162,-2.027 -0.005,-4.027 -0.5,-6 -0.232,1.237 -0.732,2.237 -1.5,3 -0.204,-2.185 -0.87,-4.185 -2,-6 -0.183,-4.093 -1.183,-7.927 -3,-11.5 0.661,-2.464 1.161,-4.964 1.5,-7.5 2.325,-0.733 3.825,-2.233 4.5,-4.5 -2.399,-9.095 -4.399,-18.261 -6,-27.5 7.796,0.139 14.796,-2.028 21,-6.5 5.958,-6.084 9.624,-13.25 11,-21.5 3.833,-0.337 5.833,-2.504 6,-6.5 -1.154,-2.487 -2.987,-4.321 -5.5,-5.5 -0.464,0.594 -0.631,1.261 -0.5,2 -0.838,-0.342 -1.172,-1.008 -1,-2 0.165,-3.018 -0.002,-6.018 -0.5,-9 -0.837,-1.507 -2.004,-2.007 -3.5,-1.5 -1.267,5.423 -2.934,10.756 -5,16 0.07,0.765 0.403,1.265 1,1.5 0,0.333 0,0.667 0,1 -0.996,-0.086 -1.829,0.248 -2.5,1 -2.492,6.147 -6.326,11.314 -11.5,15.5 -6.325,0.102 -12.658,-0.065 -19,-0.5 0.789,-2.934 2.789,-4.768 6,-5.5 4.469,-3.122 7.302,-7.288 8.5,-12.5 1.865,-13.242 -1.302,-25.075 -9.5,-35.5 -13.324,-8.952 -27.324,-9.952 -42,-3 -13.825,9.331 -18.325,22.165 -13.5,38.5 4.201,10.867 12.035,17.367 23.5,19.5 -3.661,0.829 -6.995,2.329 -10,4.5 -1.93,4.436 -4.097,8.769 -6.5,13 -2.04,-2.697 -4.04,-5.363 -6,-8 -0.191,2.208 -0.691,4.208 -1.5,6 -1.418,-1.808 -3.418,-2.475 -6,-2 -0.065,-2.196 -0.732,-4.196 -2,-6 -0.808,0.308 -1.475,0.808 -2,1.5 2.508,4.444 2.008,4.611 -1.5,0.5 -0.167,0.333 -0.333,0.667 -0.5,1 0.38,1.521 0.546,3.187 0.5,5 0.689,0.857 1.522,1.523 2.5,2 -0.335,-1.164 -0.335,-2.497 0,-4 1.592,2.062 3.425,2.395 5.5,1 0.667,0.667 0.667,1.333 0,2 -0.995,0.566 -1.828,1.233 -2.5,2 -1.052,-0.149 -2.052,0.017 -3,0.5 3.594,5.93 8.26,10.93 14,15 5.343,1.325 9.676,-0.175 13,-4.5 0,1.667 0,3.333 0,5 -0.338,4.686 -0.505,9.353 -0.5,14 1,0.667 2,1.333 3,2 0.249,2.677 1.249,5.01 3,7 1.461,5.836 1.295,11.502 -0.5,17 -20.344,0.333 -40.678,0 -61,-1 -1.48,-3.259 -2.48,-6.592 -3,-10 0,-0.333 0,-0.667 0,-1 0.672,-0.767 1.505,-1.434 2.5,-2 2.964,-8.539 0.13,-12.872 -8.5,-13 0.333,-0.667 0.667,-1.333 1,-2 7.103,2.882 10.77,0.548 11,-7 7.533,-1.385 9.033,-5.385 4.5,-12 -0.671,-0.752 -1.504,-1.086 -2.5,-1 -1.286,-2.617 -2.953,-4.95 -5,-7 0,-1 0,-2 0,-3 1.508,-2.622 1.008,-4.955 -1.5,-7 -0.667,-2.333 -0.667,-4.667 0,-7 3.79,-2.953 6.623,-6.62 8.5,-11 -0.124,-0.607 -0.457,-0.94 -1,-1 1.469,-1.605 1.135,-2.105 -1,-1.5 -1.952,2.074 -3.785,4.241 -5.5,6.5 0.756,-2.215 1.589,-4.549 2.5,-7 1.815,-1.13 3.815,-1.796 6,-2 -0.107,1.879 0.393,2.212 1.5,1 0.167,-1.167 0.333,-2.333 0.5,-3.5 -1.944,-6.672 -3.444,-13.505 -4.5,-20.5 -5.882,-13.034 -16.049,-19.701 -30.5,-20 -8.676,0.167 -16.676,2.501 -24,7 -0.438,0.065 -0.772,-0.101 -1,-0.5 4.5,-5.833 9,-11.667 13.5,-17.5 5.542,-5.211 11.375,-10.044 17.5,-14.5 23.931,-14.644 49.931,-23.31 78,-26 35.903,-3.042 71.236,-0.042 106,9 44.124,14.946 72.458,44.446 85,88.5 z"
       id="path593" />
  </g>
  <g
     id="g594"
     transform="translate(-529.5,-274.5)">
    <path
       style="opacity:1"
       fill="#292822"
       d="m 672.5,295.5 c -2.827,0.084 -5.494,0.75 -8,2 3.884,-3.726 8.551,-4.893 14,-3.5 -2.208,0.191 -4.208,0.691 -6,1.5 z"
       id="path594" />
  </g>
  <g
     id="g596"
     transform="translate(-529.5,-274.5)">
    <path
       style="opacity:1"
       fill="#f5f5f5"
       d="m 769.5,330.5 c 0.838,-0.342 1.172,-1.008 1,-2 0.534,-3.978 -0.966,-6.978 -4.5,-9 -5.294,-12.581 -1.461,-21.081 11.5,-25.5 15.508,-2.614 28.008,2.22 37.5,14.5 3.722,13.049 -1.111,20.882 -14.5,23.5 -8.181,1.163 -16.014,-0.003 -23.5,-3.5 -2.234,1.201 -4.401,2.535 -6.5,4 -0.798,-0.457 -1.131,-1.124 -1,-2 z"
       id="path596" />
  </g>
  <g
     id="g598"
     transform="translate(-529.5,-274.5)">
    <path
       style="opacity:1"
       fill="#f4f4f4"
       d="m 672.5,295.5 c 2.667,0 5.333,0 8,0 11.288,3.91 15.122,11.577 11.5,23 -2.087,3.802 -5.254,6.302 -9.5,7.5 -5,0.333 -10,0.667 -15,1 -1.431,0.465 -2.597,1.299 -3.5,2.5 -0.333,-2 -0.667,-4 -1,-6 -7.702,-9.171 -7.202,-17.838 1.5,-26 2.506,-1.25 5.173,-1.916 8,-2 z"
       id="path598" />
  </g>
  <g
     id="g606"
     transform="translate(-529.5,-274.5)">
    <path
       style="opacity:1"
       fill="#f7f6f6"
       d="m 883.5,334.5 c 3.515,14.949 -0.152,27.782 -11,38.5 -4.978,2.985 -10.311,4.985 -16,6 0.916,0.278 1.582,0.778 2,1.5 -4.333,0 -8.667,0 -13,0 -6.308,-0.49 -11.808,-2.823 -16.5,-7 0.607,-2.082 1.44,-4.249 2.5,-6.5 -2.298,-3.218 -3.964,-2.718 -5,1.5 -1.25,-0.077 -2.083,-0.744 -2.5,-2 -0.333,-7.348 10e-4,-14.682 1,-22 6.144,-17.832 18.644,-24.999 37.5,-21.5 8.787,0.724 15.787,4.557 21,11.5 z"
       id="path606" />
  </g>
  <g
     id="g607"
     transform="translate(-529.5,-274.5)">
    <path
       style="opacity:1"
       fill="#23221f"
       d="m 769.5,330.5 c -0.131,0.876 0.202,1.543 1,2 2.099,-1.465 4.266,-2.799 6.5,-4 7.486,3.497 15.319,4.663 23.5,3.5 13.389,-2.618 18.222,-10.451 14.5,-23.5 -9.492,-12.28 -21.992,-17.114 -37.5,-14.5 -12.961,4.419 -16.794,12.919 -11.5,25.5 3.534,2.022 5.034,5.022 4.5,9 -2.212,-4.071 -4.712,-8.071 -7.5,-12 -2.546,-13.829 3.287,-21.996 17.5,-24.5 10.163,-1.07 19.497,1.263 28,7 12.365,9.777 13.031,20.111 2,31 -10.896,4.492 -21.896,4.659 -33,0.5 -3.268,1.426 -6.435,3.093 -9.5,5 -0.419,-2.611 0.081,-4.278 1.5,-5 z"
       id="path607" />
  </g>
  <g
     id="g608"
     transform="translate(-529.5,-274.5)">
    <path
       style="opacity:1"
       fill="#3f3f3d"
       d="m 799.5,306.5 c 1.248,0.834 1.915,2.167 2,4 -0.5,4 -1,8 -1.5,12 -0.497,-2.31 -0.663,-4.643 -0.5,-7 -1,0 -2,0 -3,0 -0.727,9.215 -1.394,9.049 -2,-0.5 0.606,-9.549 1.273,-9.715 2,-0.5 1,0 2,0 3,0 0,-2.667 0,-5.333 0,-8 z"
       id="path608" />
  </g>
  <g
     id="g609"
     transform="translate(-529.5,-274.5)">
    <path
       style="opacity:1"
       fill="#343432"
       d="m 805.5,308.5 c 1.567,1.181 2.401,2.847 2.5,5 1.182,3.356 1.349,6.69 0.5,10 -0.952,-1.545 -1.285,-3.212 -1,-5 -2.888,-0.28 -4.388,1.053 -4.5,4 -0.443,-4.893 0.39,-9.56 2.5,-14 z"
       id="path609" />
  </g>
  <g
     id="g610"
     transform="translate(-529.5,-274.5)">
    <path
       style="opacity:1"
       fill="#d7d7d8"
       d="m 805.5,312.5 c 1.288,1.535 1.288,3.201 0,5 -0.934,-1.595 -0.934,-3.261 0,-5 z"
       id="path610" />
  </g>
  <g
     id="g611"
     transform="translate(-529.5,-274.5)">
    <path
       style="opacity:1"
       fill="#31302e"
       d="m 785.5,313.5 c -1.91,1.475 -3.076,3.475 -3.5,6 1.661,-20.742 4.494,-21.075 8.5,-1 -0.333,0.667 -0.667,1.333 -1,2 -0.792,-1.965 -1.459,-3.965 -2,-6 -0.457,-0.798 -1.124,-1.131 -2,-1 z"
       id="path611" />
  </g>
  <g
     id="g612"
     transform="translate(-529.5,-274.5)">
    <path
       style="opacity:1"
       fill="#dcdce1"
       d="m 785.5,313.5 c -0.597,-0.235 -0.93,-0.735 -1,-1.5 0.5,-1.5 1,-3 1.5,-4.5 0.678,2.098 0.511,4.098 -0.5,6 z"
       id="path612" />
  </g>
  <g
     id="g613"
     transform="translate(-529.5,-274.5)">
    <path
       style="opacity:1"
       fill="#32312f"
       d="m 773.5,303.5 c 0.667,2.333 1.333,4.667 2,7 1,0 2,0 3,0 -0.313,-2.747 0.02,-5.414 1,-8 1.101,5.346 0.934,10.679 -0.5,16 -0.497,-2.31 -0.663,-4.643 -0.5,-7 -1.333,0 -2.667,0 -4,0 0.163,2.357 -0.003,4.69 -0.5,7 -0.499,-4.989 -0.666,-9.989 -0.5,-15 z"
       id="path613" />
  </g>
  <g
     id="g614"
     transform="translate(-529.5,-274.5)">
    <path
       style="opacity:1"
       fill="#848484"
       d="m 773.5,303.5 c 0.06,-0.543 0.393,-0.876 1,-1 0.98,2.586 1.313,5.253 1,8 -0.667,-2.333 -1.333,-4.667 -2,-7 z"
       id="path614" />
  </g>
  <g
     id="g615"
     transform="translate(-529.5,-274.5)">
    <path
       style="opacity:1"
       fill="#312e2b"
       d="m 680.5,295.5 c 4.702,-0.397 8.535,1.603 11.5,6 5.805,10.92 3.305,19.42 -7.5,25.5 -5.161,1.696 -10.327,1.863 -15.5,0.5 -2.309,1.475 -4.476,3.142 -6.5,5 -0.012,-5.731 -1.846,-10.731 -5.5,-15 -1.091,-5.597 -0.424,-10.93 2,-16 1.451,-1.964 3.284,-3.297 5.5,-4 -8.702,8.162 -9.202,16.829 -1.5,26 0.333,2 0.667,4 1,6 0.903,-1.201 2.069,-2.035 3.5,-2.5 5,-0.333 10,-0.667 15,-1 4.246,-1.198 7.413,-3.698 9.5,-7.5 3.622,-11.423 -0.212,-19.09 -11.5,-23 z"
       id="path615" />
  </g>
  <g
     id="g616"
     transform="translate(-529.5,-274.5)">
    <path
       style="opacity:1"
       fill="#727371"
       d="m 670.5,312.5 c 0.308,2.424 -0.026,4.757 -1,7 -0.607,-0.124 -0.94,-0.457 -1,-1 0.667,-2 1.333,-4 2,-6 z"
       id="path616" />
  </g>
  <g
     id="g617"
     transform="translate(-529.5,-274.5)">
    <path
       style="opacity:1"
       fill="#989898"
       d="m 678.5,307.5 c 0.31,1.238 0.81,1.238 1.5,0 0.346,1.718 0.846,3.385 1.5,5 -0.825,0.886 -1.825,1.219 -3,1 0.237,-1.291 -0.096,-2.291 -1,-3 -0.237,-1.291 0.096,-2.291 1,-3 z"
       id="path617" />
  </g>
  <g
     id="g618"
     transform="translate(-529.5,-274.5)">
    <path
       style="opacity:1"
       fill="#272724"
       d="m 670.5,312.5 c -0.667,2 -1.333,4 -2,6 0,-2 0,-4 0,-6 -0.306,-2.885 0.027,-5.552 1,-8 0,2 0,4 0,6 1.333,0 2.667,0 4,0 -0.163,-2.357 0.003,-4.69 0.5,-7 1.318,5.334 1.484,10.667 0.5,16 -0.974,-2.243 -1.308,-4.576 -1,-7 -1,0 -2,0 -3,0 z"
       id="path618" />
  </g>
  <g
     id="g619"
     transform="translate(-529.5,-274.5)">
    <path
       style="opacity:1"
       fill="#787876"
       d="m 669.5,304.5 c -0.973,2.448 -1.306,5.115 -1,8 -1.303,-2.855 -1.303,-5.855 0,-9 0.607,0.124 0.94,0.457 1,1 z"
       id="path619" />
  </g>
  <g
     id="g620"
     transform="translate(-529.5,-274.5)">
    <path
       style="opacity:1"
       fill="#353432"
       d="m 677.5,310.5 c 0.904,0.709 1.237,1.709 1,3 1.175,0.219 2.175,-0.114 3,-1 -0.654,-1.615 -1.154,-3.282 -1.5,-5 -0.69,1.238 -1.19,1.238 -1.5,0 -0.262,-1.478 0.071,-2.811 1,-4 0.333,0.333 0.667,0.667 1,1 1.938,5.021 2.938,10.021 3,15 -0.857,-1.236 -1.523,-2.569 -2,-4 -0.825,-0.886 -1.825,-1.219 -3,-1 0.009,1.808 -0.491,3.475 -1.5,5 -0.634,-3.055 -0.468,-6.055 0.5,-9 z"
       id="path620" />
  </g>
  <g
     id="g622"
     transform="translate(-529.5,-274.5)">
    <path
       style="opacity:1"
       fill="#f7f8f8"
       d="m 632.5,390.5 c -0.453,-0.958 -1.119,-1.792 -2,-2.5 -17.152,-4.167 -25.819,-15.167 -26,-33 0.776,-3.489 1.442,-6.989 2,-10.5 7.322,-9.124 16.989,-13.458 29,-13 20.005,1.507 30.339,12.34 31,32.5 -2.494,2.328 -4.828,4.828 -7,7.5 -2.344,6.188 -5.344,12.022 -9,17.5 -5.935,1.239 -11.935,1.739 -18,1.5 z"
       id="path622" />
  </g>
  <g
     id="g628"
     transform="translate(-529.5,-274.5)">
    <path
       style="opacity:1"
       fill="#322c27"
       d="m 790.5,361.5 c -0.667,0 -1.333,0 -2,0 -0.368,-11.895 -1.368,-11.895 -3,0 0.457,0.798 1.124,1.131 2,1 -0.254,0.832 -1.254,1.499 -3,2 -1.174,1.014 -1.84,2.347 -2,4 -0.597,-0.235 -0.93,-0.735 -1,-1.5 2.066,-5.244 3.733,-10.577 5,-16 1.496,-0.507 2.663,-0.007 3.5,1.5 0.498,2.982 0.665,5.982 0.5,9 z"
       id="path628" />
  </g>
  <g
     id="g629"
     transform="translate(-529.5,-274.5)">
    <path
       style="opacity:1"
       fill="#121111"
       d="m 650.5,348.5 c 8.321,0.94 11.488,5.607 9.5,14 -3.819,5.269 -7.819,5.269 -12,0 -2.495,-5.37 -1.662,-10.036 2.5,-14 z"
       id="path629" />
  </g>
  <g
     id="g631"
     transform="translate(-529.5,-274.5)">
    <path
       style="opacity:1"
       fill="#d9d9d8"
       d="m 883.5,334.5 c 2.246,2.149 3.746,4.816 4.5,8 4.215,22.621 -4.952,35.288 -27.5,38 -0.667,0 -1.333,0 -2,0 -0.418,-0.722 -1.084,-1.222 -2,-1.5 5.689,-1.015 11.022,-3.015 16,-6 10.848,-10.718 14.515,-23.551 11,-38.5 z"
       id="path631" />
  </g>
  <g
     id="g633"
     transform="translate(-529.5,-274.5)">
    <path
       style="opacity:1"
       fill="#e8e2df"
       d="m 788.5,361.5 c -0.667,0 -1,0.333 -1,1 -0.876,0.131 -1.543,-0.202 -2,-1 1.632,-11.895 2.632,-11.895 3,0 z"
       id="path633" />
  </g>
  <g
     id="g638"
     transform="translate(-529.5,-274.5)">
    <path
       style="opacity:1"
       fill="#1a1a1a"
       d="m 621.5,358.5 c 4.016,-0.6 7.516,0.4 10.5,3 0.563,1.225 0.23,2.225 -1,3 -1.594,-1.797 -3.594,-2.797 -6,-3 -2.995,1.517 -5.828,3.184 -8.5,5 -0.149,-1.052 0.017,-2.052 0.5,-3 1.707,-1.537 3.207,-3.204 4.5,-5 z"
       id="path638" />
  </g>
  <g
     id="g646"
     transform="translate(-529.5,-274.5)">
    <path
       style="opacity:1"
       fill="#181716"
       d="m 640.5,363.5 c 3.735,0.046 5.068,1.713 4,5 -1.898,-1.234 -3.565,-0.901 -5,1 -0.969,-2.117 -0.636,-4.117 1,-6 z"
       id="path646" />
  </g>
  <g
     id="g647"
     transform="translate(-529.5,-274.5)">
    <path
       style="opacity:1"
       fill="#575355"
       d="m 787.5,362.5 c 0,-0.667 0.333,-1 1,-1 0.667,0 1.333,0 2,0 -0.172,0.992 0.162,1.658 1,2 -0.131,-0.739 0.036,-1.406 0.5,-2 2.513,1.179 4.346,3.013 5.5,5.5 -0.167,3.996 -2.167,6.163 -6,6.5 -0.667,0 -1.333,0 -2,0 -0.507,-1.359 -1.507,-2.359 -3,-3 1,-0.667 2,-1.333 3,-2 -1.276,-1.145 -2.609,-1.145 -4,0 -0.333,-0.333 -0.667,-0.667 -1,-1 2.477,-1.38 2.477,-2.38 0,-3 1.746,-0.501 2.746,-1.168 3,-2 z"
       id="path647" />
  </g>
  <g
     id="g650"
     transform="translate(-529.5,-274.5)">
    <path
       style="opacity:1"
       fill="#aeaca9"
       d="m 791.5,363.5 c 1.617,1.089 2.45,2.756 2.5,5 0.333,-0.667 0.667,-1.333 1,-2 0.774,1.903 0.44,3.57 -1,5 -0.333,-0.667 -0.667,-1.333 -1,-2 -0.718,0.951 -1.551,1.117 -2.5,0.5 0.923,-2.041 1.256,-4.208 1,-6.5 z"
       id="path650" />
  </g>
  <g
     id="g652"
     transform="translate(-529.5,-274.5)">
    <path
       style="opacity:1"
       fill="#bdbebe"
       d="m 825.5,375.5 c -3.681,0.218 -4.348,1.384 -2,3.5 -0.5,0.5 -1,1 -1.5,1.5 -2.016,-1.455 -2.849,-3.455 -2.5,-6 2.867,0.131 4.533,-1.203 5,-4 1,-0.333 1.667,-1 2,-2 0.958,-0.453 1.792,-1.119 2.5,-2 0.167,0.333 0.333,0.667 0.5,1 -1.797,2.455 -3.13,5.122 -4,8 z"
       id="path652" />
  </g>
  <g
     id="g654"
     transform="translate(-529.5,-274.5)">
    <path
       style="opacity:1"
       fill="#d5d6d6"
       d="m 606.5,344.5 c -0.558,3.511 -1.224,7.011 -2,10.5 0.181,17.833 8.848,28.833 26,33 0.881,0.708 1.547,1.542 2,2.5 -17.243,0.882 -27.577,-7.118 -31,-24 0,-3.333 0,-6.667 0,-10 0.127,-4.732 1.793,-8.732 5,-12 z"
       id="path654" />
  </g>
  <g
     id="g655"
     transform="translate(-529.5,-274.5)">
    <path
       style="opacity:1"
       fill="#15120f"
       d="m 837.5,361.5 c 0.667,0 1,0.333 1,1 0,2 1,3 3,3 2.157,0.907 4.49,1.573 7,2 0.667,0 1.333,0 2,0 3.374,-0.174 6.707,-0.674 10,-1.5 0.556,-0.383 0.889,-0.883 1,-1.5 0.667,-0.667 1.333,-1.333 2,-2 -0.819,10.655 -6.485,15.155 -17,13.5 -6.922,-2.418 -9.922,-7.252 -9,-14.5 z"
       id="path655" />
  </g>
  <g
     id="g657"
     transform="translate(-529.5,-274.5)">
    <path
       style="opacity:1"
       fill="#cbceca"
       d="m 784.5,364.5 c 2.477,0.62 2.477,1.62 0,3 0.333,0.333 0.667,0.667 1,1 1.391,-1.145 2.724,-1.145 4,0 -1,0.667 -2,1.333 -3,2 1.493,0.641 2.493,1.641 3,3 -0.397,1.025 -1.063,1.192 -2,0.5 -2.118,-1.049 -3.784,-2.549 -5,-4.5 0,-0.333 0,-0.667 0,-1 0.16,-1.653 0.826,-2.986 2,-4 z"
       id="path657" />
  </g>
  <g
     id="g661"
     transform="translate(-529.5,-274.5)">
    <path
       style="opacity:1"
       fill="#cd5e62"
       d="m 847.5,369.5 c 3.35,-0.165 6.683,0.002 10,0.5 0.776,2.929 -0.557,4.596 -4,5 -3.38,0.938 -6.38,0.271 -9,-2 1.21,-1.039 2.21,-2.206 3,-3.5 z"
       id="path661" />
  </g>
  <g
     id="g665"
     transform="translate(-529.5,-274.5)">
    <path
       style="opacity:1"
       fill="#1e1d1b"
       d="m 782.5,369.5 c 1.216,1.951 2.882,3.451 5,4.5 0.937,0.692 1.603,0.525 2,-0.5 0.667,0 1.333,0 2,0 -1.376,8.25 -5.042,15.416 -11,21.5 -6.204,4.472 -13.204,6.639 -21,6.5 1.601,9.239 3.601,18.405 6,27.5 -0.675,2.267 -2.175,3.767 -4.5,4.5 -0.339,2.536 -0.839,5.036 -1.5,7.5 1.817,3.573 2.817,7.407 3,11.5 -1.3,-3.042 -2.8,-6.042 -4.5,-9 -1.727,0.146 -1.894,0.813 -0.5,2 -1.024,1.352 -2.024,2.685 -3,4 -0.722,0.418 -1.222,1.084 -1.5,2 -4.347,-3.085 -9.18,-4.251 -14.5,-3.5 -2.531,1.489 -4.698,3.322 -6.5,5.5 -0.399,-0.228 -0.565,-0.562 -0.5,-1 -2.677,-1.682 -5.343,-3.349 -8,-5 0.378,2.146 0.712,4.313 1,6.5 -0.528,2.881 -1.194,5.715 -2,8.5 -0.333,0 -0.667,0 -1,0 0,-0.333 0,-0.667 0,-1 1.795,-5.498 1.961,-11.164 0.5,-17 -1.751,-1.99 -2.751,-4.323 -3,-7 -1,-0.667 -2,-1.333 -3,-2 -0.005,-4.647 0.162,-9.314 0.5,-14 1.296,3.869 1.296,7.869 0,12 2.324,1.162 4.658,2.329 7,3.5 -0.948,0.483 -1.948,0.649 -3,0.5 -0.237,1.291 0.096,2.291 1,3 2.274,2.824 4.607,5.657 7,8.5 3.812,1.207 6.812,0.207 9,-3 2.595,-0.226 5.095,-0.726 7.5,-1.5 2.475,3.024 5.475,3.69 9,2 0.058,-3.059 1.391,-5.392 4,-7 0.494,-1.634 0.66,-3.301 0.5,-5 -1.788,-0.285 -3.455,0.048 -5,1 0.537,3.521 -1.129,5.855 -5,7 -1.546,-0.712 -2.546,-1.878 -3,-3.5 1.193,-2.692 3.193,-4.526 6,-5.5 -0.82,-1.611 -2.154,-2.278 -4,-2 -0.048,-1.007 0.952,-1.34 3,-1 -0.299,-3.142 -1.966,-5.309 -5,-6.5 0.228,-0.399 0.562,-0.565 1,-0.5 1.324,1.35 2.324,1.183 3,-0.5 -0.877,-2.253 -1.877,-4.419 -3,-6.5 1.186,-1.461 1.186,-2.795 0,-4 0.067,-1.459 -0.266,-2.792 -1,-4 -0.065,-0.438 0.101,-0.772 0.5,-1 2.004,2.975 3.004,6.308 3,10 0.849,-5.078 2.015,-10.078 3.5,-15 -1.115,-2.567 -2.782,-4.733 -5,-6.5 -1.293,-0.49 -2.627,-0.657 -4,-0.5 0,-0.667 -0.333,-1 -1,-1 -0.79,-0.901 -1.79,-1.568 -3,-2 0,-0.333 0,-0.667 0,-1 1.333,0.333 2.667,0.667 4,1 3.814,3.272 5.481,2.272 5,-3 0.774,-3.718 -0.56,-6.051 -4,-7 8.543,-1.198 14.376,-5.865 17.5,-14 3.729,-30.266 -9.438,-44.1 -39.5,-41.5 -9.044,1.677 -15.711,6.51 -20,14.5 -3.816,9.464 -3.983,19.131 -0.5,29 3.593,7.377 9.426,11.71 17.5,13 3.333,0.667 6.667,1.333 10,2 -1,0 -2,0 -3,0 0,2.667 0,5.333 0,8 -1.85,-1.195 -2.85,-0.529 -3,2 1.051,2.032 2.717,3.365 5,4 -1.333,1.667 -2.667,3.333 -4,5 1.14,1.578 1.64,3.244 1.5,5 -3.483,-3.401 -3.316,-6.567 0.5,-9.5 -3.455,-0.727 -5.121,-2.893 -5,-6.5 -2.948,-0.277 -5.781,0.056 -8.5,1 -2.223,3.279 -4.057,6.779 -5.5,10.5 1.115,1.393 1.615,2.893 1.5,4.5 -1.351,-1.519 -2.851,-2.852 -4.5,-4 -1.124,1.414 -2.124,2.914 -3,4.5 -1.832,0.748 -3.499,1.748 -5,3 3.575,5.622 8.575,7.622 15,6 1.878,-1.543 3.378,-3.376 4.5,-5.5 0.176,-3.382 0.676,-6.715 1.5,-10 1.163,5.637 1.33,11.304 0.5,17 -0.079,-2.236 -0.579,-3.57 -1.5,-4 -3.324,4.325 -7.657,5.825 -13,4.5 -5.74,-4.07 -10.406,-9.07 -14,-15 0.948,-0.483 1.948,-0.649 3,-0.5 2.813,0.475 4.813,-0.525 6,-3 0.809,-1.792 1.309,-3.792 1.5,-6 1.96,2.637 3.96,5.303 6,8 2.403,-4.231 4.57,-8.564 6.5,-13 3.005,-2.171 6.339,-3.671 10,-4.5 -11.465,-2.133 -19.299,-8.633 -23.5,-19.5 -4.825,-16.335 -0.325,-29.169 13.5,-38.5 14.676,-6.952 28.676,-5.952 42,3 8.198,10.425 11.365,22.258 9.5,35.5 -1.198,5.212 -4.031,9.378 -8.5,12.5 -3.211,0.732 -5.211,2.566 -6,5.5 6.342,0.435 12.675,0.602 19,0.5 5.174,-4.186 9.008,-9.353 11.5,-15.5 0.671,-0.752 1.504,-1.086 2.5,-1 z"
       id="path665" />
  </g>
  <g
     id="g666"
     transform="translate(-529.5,-274.5)">
    <path
       style="opacity:1"
       fill="#12110f"
       d="m 727.5,378.5 c -2.637,-1.13 -5.303,-1.13 -8,0 -7.573,1.413 -11.24,-1.587 -11,-9 0.906,-2.414 2.572,-3.247 5,-2.5 -3.089,4.058 -2.089,5.725 3,5 2.203,-2.372 4.537,-4.539 7,-6.5 2.667,0 5.333,0 8,0 2.086,1.523 3.752,1.19 5,-1 2,0 4,0 6,0 2.982,0.906 5.815,2.24 8.5,4 2.637,-0.601 3.804,-2.267 3.5,-5 -1.052,0.149 -2.052,-0.017 -3,-0.5 4.278,-1.78 6.611,-0.114 7,5 -0.334,2.175 -1.334,4.008 -3,5.5 -3.474,1.562 -7.14,2.395 -11,2.5 -4.117,4.259 -9.117,5.592 -15,4 -0.916,-0.278 -1.582,-0.778 -2,-1.5 z"
       id="path666" />
  </g>
  <g
     id="g667"
     transform="translate(-529.5,-274.5)">
    <path
       style="opacity:1"
       fill="#b1a59c"
       d="m 734.5,371.5 c 1.923,0.295 3.59,1.128 5,2.5 -2.402,0.814 -4.735,0.647 -7,-0.5 0.743,-0.682 1.409,-1.349 2,-2 z"
       id="path667" />
  </g>
  <g
     id="g668"
     transform="translate(-529.5,-274.5)">
    <path
       style="opacity:1"
       fill="#d1d0d0"
       d="m 702.5,341.5 c 0.029,6.22 0.196,12.554 0.5,19 1.631,4.256 2.964,8.59 4,13 0.21,-1.558 0.71,-2.891 1.5,-4 -0.24,7.413 3.427,10.413 11,9 -1.452,0.802 -3.118,1.302 -5,1.5 2.473,0.22 4.14,1.386 5,3.5 -8.074,-1.29 -13.907,-5.623 -17.5,-13 -3.483,-9.869 -3.316,-19.536 0.5,-29 z"
       id="path668" />
  </g>
  <g
     id="g669"
     transform="translate(-529.5,-274.5)">
    <path
       style="opacity:1"
       fill="#f7f7f7"
       d="m 744.5,382.5 c -4.654,2.521 -9.654,3.521 -15,3 -3.333,-0.667 -6.667,-1.333 -10,-2 -0.86,-2.114 -2.527,-3.28 -5,-3.5 1.882,-0.198 3.548,-0.698 5,-1.5 2.697,-1.13 5.363,-1.13 8,0 0.418,0.722 1.084,1.222 2,1.5 5.883,1.592 10.883,0.259 15,-4 3.86,-0.105 7.526,-0.938 11,-2.5 1.666,-1.492 2.666,-3.325 3,-5.5 -0.389,-5.114 -2.722,-6.78 -7,-5 0.948,0.483 1.948,0.649 3,0.5 0.304,2.733 -0.863,4.399 -3.5,5 -2.685,-1.76 -5.518,-3.094 -8.5,-4 -1.419,-0.951 -3.085,-1.284 -5,-1 0.184,-2.821 -1.149,-4.488 -4,-5 -2.478,1.222 -3.478,3.222 -3,6 -2.559,-0.302 -4.893,0.032 -7,1 -2.463,1.961 -4.797,4.128 -7,6.5 -5.089,0.725 -6.089,-0.942 -3,-5 -2.428,-0.747 -4.094,0.086 -5,2.5 -0.79,1.109 -1.29,2.442 -1.5,4 -1.036,-4.41 -2.369,-8.744 -4,-13 -0.304,-6.446 -0.471,-12.78 -0.5,-19 4.289,-7.99 10.956,-12.823 20,-14.5 30.062,-2.6 43.229,11.234 39.5,41.5 -3.124,8.135 -8.957,12.802 -17.5,14 z"
       id="path669" />
  </g>
  <g
     id="g670"
     transform="translate(-529.5,-274.5)">
    <path
       style="opacity:1"
       fill="#d2d4d4"
       d="m 736.5,364.5 c -1.248,2.19 -2.914,2.523 -5,1 1.377,-3.226 3.043,-3.559 5,-1 z"
       id="path670" />
  </g>
  <g
     id="g671"
     transform="translate(-529.5,-274.5)">
    <path
       style="opacity:1"
       fill="#373836"
       d="m 742.5,364.5 c -2,0 -4,0 -6,0 -1.957,-2.559 -3.623,-2.226 -5,1 -2.667,0 -5.333,0 -8,0 2.107,-0.968 4.441,-1.302 7,-1 -0.478,-2.778 0.522,-4.778 3,-6 2.851,0.512 4.184,2.179 4,5 1.915,-0.284 3.581,0.049 5,1 z"
       id="path671" />
  </g>
  <g
     id="g672"
     transform="translate(-529.5,-274.5)">
    <path
       style="opacity:1"
       fill="#1d1c1b"
       d="m 744.5,350.5 c 2.357,-0.163 4.69,0.003 7,0.5 3.144,0.919 4.144,2.752 3,5.5 -4.629,-4.176 -8.963,-3.843 -13,1 -1.083,-0.865 -1.249,-1.865 -0.5,-3 1.376,-1.205 2.542,-2.538 3.5,-4 z"
       id="path672" />
  </g>
  <g
     id="g673"
     transform="translate(-529.5,-274.5)">
    <path
       style="opacity:1"
       fill="#242322"
       d="m 714.5,353.5 c 3.631,-0.34 6.964,0.494 10,2.5 1.568,5.627 0.568,5.961 -3,1 -2,-0.667 -4,-0.667 -6,0 -1.517,1.685 -3.184,3.185 -5,4.5 -1.083,-0.865 -1.249,-1.865 -0.5,-3 1.366,-1.862 2.866,-3.528 4.5,-5 z"
       id="path673" />
  </g>
  <g
     id="g674"
     transform="translate(-529.5,-274.5)">
    <path
       style="opacity:1"
       fill="#272625"
       d="m 716.5,342.5 c 1.788,-0.285 3.455,0.048 5,1 -4.033,1.099 -7.533,3.099 -10.5,6 -0.667,-0.667 -0.667,-1.333 0,-2 1.812,-1.8 3.645,-3.467 5.5,-5 z"
       id="path674" />
  </g>
  <g
     id="g675"
     transform="translate(-529.5,-274.5)">
    <path
       style="opacity:1"
       fill="#323131"
       d="m 740.5,339.5 c 4.677,-0.441 8.677,0.892 12,4 -0.333,0.333 -0.667,0.667 -1,1 -3.826,-1.757 -7.493,-3.423 -11,-5 z"
       id="path675" />
  </g>
  <g
     id="g678"
     transform="translate(-529.5,-274.5)">
    <path
       style="opacity:1"
       fill="#22221e"
       d="m 845.5,380.5 c -6.746,0.995 -12.746,-1.005 -18,-6 -0.683,0.363 -1.35,0.696 -2,1 0.87,-2.878 2.203,-5.545 4,-8 -0.167,-0.333 -0.333,-0.667 -0.5,-1 -0.708,0.881 -1.542,1.547 -2.5,2 1.036,-4.218 2.702,-4.718 5,-1.5 -1.06,2.251 -1.893,4.418 -2.5,6.5 4.692,4.177 10.192,6.51 16.5,7 z"
       id="path678" />
  </g>
  <g
     id="g683"
     transform="translate(-529.5,-274.5)">
    <path
       style="opacity:1"
       fill="#cc6054"
       d="m 727.5,378.5 c 0.077,-1.25 0.744,-2.083 2,-2.5 4.041,-0.827 8.041,-0.66 12,0.5 -0.59,1.299 -1.59,2.132 -3,2.5 -3.688,0.45 -7.354,0.283 -11,-0.5 z"
       id="path683" />
  </g>
  <g
     id="g690"
     transform="translate(-529.5,-274.5)">
    <path
       style="opacity:1"
       fill="#302e2d"
       d="m 824.5,370.5 c -0.467,2.797 -2.133,4.131 -5,4 -0.349,2.545 0.484,4.545 2.5,6 0.5,-0.5 1,-1 1.5,-1.5 -2.348,-2.116 -1.681,-3.282 2,-3.5 -0.409,3.311 -1.576,6.311 -3.5,9 -0.499,4.655 -0.666,9.321 -0.5,14 2.688,0.334 5.021,-0.332 7,-2 -1.027,3.358 -3.36,5.025 -7,5 0.173,3.67 -1.493,6.17 -5,7.5 0.556,0.383 0.889,0.883 1,1.5 -4.598,-1.22 -5.932,-3.887 -4,-8 0.201,3.85 2.034,4.85 5.5,3 1.377,-6.576 1.877,-13.243 1.5,-20 -2.113,0.756 -4.113,0.923 -6,0.5 -0.906,1.699 -1.239,3.533 -1,5.5 -0.821,3.141 -1.321,6.475 -1.5,10 -0.779,-7.716 0.055,-15.216 2.5,-22.5 -2.799,-2.96 -2.466,-5.46 1,-7.5 3.402,2.86 6.402,2.526 9,-1 z"
       id="path690" />
  </g>
  <g
     id="g691"
     transform="translate(-529.5,-274.5)">
    <path
       style="opacity:1"
       fill="#91928d"
       d="m 814.5,373.5 c 0.722,0.418 1.222,1.084 1.5,2 1.487,-1.241 2.32,-0.741 2.5,1.5 -0.009,1.404 -0.509,2.57 -1.5,3.5 -2.031,-2.187 -2.864,-4.521 -2.5,-7 z"
       id="path691" />
  </g>
  <g
     id="g692"
     transform="translate(-529.5,-274.5)">
    <path
       style="opacity:1"
       fill="#725a4d"
       d="m 601.5,356.5 c 0,3.333 0,6.667 0,10 0.211,12.433 6.544,20.6 19,24.5 4.675,0.797 9.341,1.63 14,2.5 -7.905,-0.463 -14.738,1.87 -20.5,7 -0.801,2.867 -0.634,5.534 0.5,8 0,0.667 -0.333,1 -1,1 -2.074,3.81 -4.407,7.477 -7,11 2.84,8.095 8.506,12.928 17,14.5 -3.303,3.795 -3.803,7.962 -1.5,12.5 0.667,4 0.667,8 0,12 -0.5,0.5 -1,1 -1.5,1.5 -12.662,0.5 -25.329,0.667 -38,0.5 -0.498,-30.998 3.669,-61.332 12.5,-91 1.047,-3.359 2.547,-6.359 4.5,-9 -0.157,1.373 0.01,2.707 0.5,4 0.181,-3.195 0.681,-6.195 1.5,-9 z"
       id="path692" />
  </g>
  <g
     id="g696"
     transform="translate(-529.5,-274.5)">
    <path
       style="opacity:1"
       fill="#2b2722"
       d="m 694.5,391.5 c -1.161,-2.602 -2.328,-5.269 -3.5,-8 -1.188,1.063 -1.688,2.397 -1.5,4 -1.13,-0.423 -1.297,-1.757 -0.5,-4 1.049,-1.017 2.216,-1.184 3.5,-0.5 1.491,2.621 2.158,5.455 2,8.5 z"
       id="path696" />
  </g>
  <g
     id="g697"
     transform="translate(-529.5,-274.5)">
    <path
       style="opacity:1"
       fill="#c4c5c5"
       d="m 813.5,381.5 c 2.724,0.895 5.391,1.228 8,1 -0.209,0.586 -0.543,1.086 -1,1.5 -2.31,0.497 -4.643,0.663 -7,0.5 0,-1 0,-2 0,-3 z"
       id="path697" />
  </g>
  <g
     id="g700"
     transform="translate(-529.5,-274.5)">
    <path
       style="opacity:1"
       fill="#482922"
       d="m 744.5,382.5 c -1.074,1.385 -2.407,2.551 -4,3.5 1.522,1.916 2.522,4.083 3,6.5 -1.333,-0.333 -2.667,-0.667 -4,-1 -0.667,0 -1,-0.333 -1,-1 0.438,0.065 0.772,-0.101 1,-0.5 -1.333,-4.667 -2.667,-4.667 -4,0 0.228,0.399 0.562,0.565 1,0.5 -0.79,0.901 -1.79,1.568 -3,2 -1.306,-2.316 -2.639,-4.65 -4,-7 5.346,0.521 10.346,-0.479 15,-3 z"
       id="path700" />
  </g>
  <g
     id="g701"
     transform="translate(-529.5,-274.5)">
    <path
       style="opacity:1"
       fill="#6e584a"
       d="m 845.5,380.5 c 4.333,0 8.667,0 13,0 0.667,0 1.333,0 2,0 -4.482,0.826 -9.149,1.326 -14,1.5 0.457,0.414 0.791,0.914 1,1.5 -3.959,0.827 -7.959,1.327 -12,1.5 -0.556,0.383 -0.889,0.883 -1,1.5 0,0.667 -0.333,1 -1,1 -2.443,2.552 -4.11,5.552 -5,9 -1.979,1.668 -4.312,2.334 -7,2 -0.166,-4.679 10e-4,-9.345 0.5,-14 1.924,-2.689 3.091,-5.689 3.5,-9 0.65,-0.304 1.317,-0.637 2,-1 5.254,4.995 11.254,6.995 18,6 z"
       id="path701" />
  </g>
  <g
     id="g704"
     transform="translate(-529.5,-274.5)">
    <path
       style="opacity:1"
       fill="#242321"
       d="m 910.5,375.5 c 2.468,2.141 4.134,4.808 5,8 -0.168,1.671 -0.835,3.004 -2,4 0.278,-8.519 -0.556,-8.852 -2.5,-1 -2.929,3.199 -6.429,4.366 -10.5,3.5 0.544,0.717 1.211,1.217 2,1.5 -0.397,1.025 -1.063,1.192 -2,0.5 -4.653,-3.788 -6.153,-8.622 -4.5,-14.5 4.21,-5.766 9.043,-6.433 14.5,-2 z"
       id="path704" />
  </g>
  <g
     id="g705"
     transform="translate(-529.5,-274.5)">
    <path
       style="opacity:1"
       fill="#515254"
       d="m 900.5,374.5 c 8.329,-0.836 11.495,2.83 9.5,11 -4.261,3.923 -8.594,3.923 -13,0 -1.338,-4.54 -0.171,-8.207 3.5,-11 z"
       id="path705" />
  </g>
  <g
     id="g706"
     transform="translate(-529.5,-274.5)">
    <path
       style="opacity:1"
       fill="#d7d2ce"
       d="m 694.5,391.5 c -0.448,1.965 -1.448,2.298 -3,1 -0.528,-1.836 -1.194,-3.503 -2,-5 -0.188,-1.603 0.312,-2.937 1.5,-4 1.172,2.731 2.339,5.398 3.5,8 z"
       id="path706" />
  </g>
  <g
     id="g707"
     transform="translate(-529.5,-274.5)">
    <path
       style="opacity:1"
       fill="#d3d4d4"
       d="m 833.5,387.5 c 0.667,0 1,-0.333 1,-1 3.612,-1.011 7.279,-1.178 11,-0.5 1.905,0.826 2.239,1.993 1,3.5 -4.198,-1.309 -8.364,-1.309 -12.5,0 -0.464,-0.594 -0.631,-1.261 -0.5,-2 z"
       id="path707" />
  </g>
  <g
     id="g708"
     transform="translate(-529.5,-274.5)">
    <path
       style="opacity:1"
       fill="#3d3c3b"
       d="m 778.5,376.5 c 2.919,1.628 5.919,2.962 9,4 -4.538,13.832 -14.205,20.165 -29,19 0.23,5.381 0.896,10.714 2,16 -0.296,2.485 -1.629,4.152 -4,5 0.5,1 1,2 1.5,3 1.494,-1.247 2.994,-1.247 4.5,0 -1.333,0.667 -2.667,1.333 -4,2 2.178,1.157 4.178,2.49 6,4 -3.54,2.615 -7.54,3.615 -12,3 -1.824,-10.519 -1.158,-20.853 2,-31 -1.333,-1.667 -2.667,-3.333 -4,-5 2.667,-1.333 2.667,-2.667 0,-4 0.774,-1.211 1.607,-1.211 2.5,0 2.344,-1.681 4.677,-3.348 7,-5 3.258,1.429 6.424,1.262 9.5,-0.5 3.585,-3.078 6.585,-6.578 9,-10.5 z"
       id="path708" />
  </g>
  <g
     id="g709"
     transform="translate(-529.5,-274.5)">
    <path
       style="opacity:1"
       fill="#d88d67"
       d="m 738.5,390.5 c -0.667,0 -1.333,0 -2,0 -0.438,0.065 -0.772,-0.101 -1,-0.5 1.333,-4.667 2.667,-4.667 4,0 -0.228,0.399 -0.562,0.565 -1,0.5 z"
       id="path709" />
  </g>
  <g
     id="g710"
     transform="translate(-529.5,-274.5)">
    <path
       style="opacity:1"
       fill="#c96e53"
       d="m 744.5,382.5 c 3.44,0.949 4.774,3.282 4,7 0.481,5.272 -1.186,6.272 -5,3 -0.478,-2.417 -1.478,-4.584 -3,-6.5 1.593,-0.949 2.926,-2.115 4,-3.5 z"
       id="path710" />
  </g>
  <g
     id="g711"
     transform="translate(-529.5,-274.5)">
    <path
       style="opacity:1"
       fill="#adadaf"
       d="m 913.5,387.5 c -1.872,2.104 -4.205,3.437 -7,4 -1.333,0 -2.667,0 -4,0 -0.789,-0.283 -1.456,-0.783 -2,-1.5 4.071,0.866 7.571,-0.301 10.5,-3.5 1.944,-7.852 2.778,-7.519 2.5,1 z"
       id="path711" />
  </g>
  <g
     id="g713"
     transform="translate(-529.5,-274.5)">
    <path
       style="opacity:1"
       fill="#c8caca"
       d="m 662.5,374.5 c -0.911,2.451 -1.744,4.785 -2.5,7 1.715,-2.259 3.548,-4.426 5.5,-6.5 2.135,-0.605 2.469,-0.105 1,1.5 -3.667,5.333 -7.333,10.667 -11,16 -1.143,0.408 -2.143,1.075 -3,2 1.112,0.765 1.779,1.765 2,3 -1.979,1.979 -3.979,3.979 -6,6 1.316,-2.325 1.316,-4.992 0,-8 4.113,-6.209 7.779,-12.876 11,-20 0.825,-0.886 1.825,-1.219 3,-1 z"
       id="path713" />
  </g>
  <g
     id="g714"
     transform="translate(-529.5,-274.5)">
    <path
       style="opacity:1"
       fill="#c16049"
       d="m 729.5,385.5 c 1.361,2.35 2.694,4.684 4,7 -2.029,3.203 -4.362,3.536 -7,1 0,-2.667 0,-5.333 0,-8 1,0 2,0 3,0 z"
       id="path714" />
  </g>
  <g
     id="g715"
     transform="translate(-529.5,-274.5)">
    <path
       style="opacity:1"
       fill="#3b3a3a"
       d="m 736.5,390.5 c 0.667,0 1.333,0 2,0 0,0.667 0.333,1 1,1 0,0.333 0,0.667 0,1 1.21,0.432 2.21,1.099 3,2 -1.574,0.437 -2.741,1.437 -3.5,3 -7.538,-2.688 -8.204,-1.355 -2,4 0.576,1.877 0.409,3.711 -0.5,5.5 1.009,1.168 2.009,2.335 3,3.5 -0.308,0.808 -0.808,1.475 -1.5,2 -0.615,-1.616 -1.615,-2.949 -3,-4 -0.624,-1.964 -0.124,-3.631 1.5,-5 -0.742,-0.787 -1.575,-1.453 -2.5,-2 -0.667,5 -0.667,10 0,15 2.723,-4.256 3.89,-3.922 3.5,1 -4.494,0.659 -6.161,3.325 -5,8 -0.79,-1.109 -1.29,-2.442 -1.5,-4 -0.471,5.344 -0.971,10.678 -1.5,16 -1.915,-0.284 -3.581,0.049 -5,1 -1.679,-0.215 -2.679,0.452 -3,2 -0.904,-0.709 -1.237,-1.709 -1,-3 1.052,0.149 2.052,-0.017 3,-0.5 -2.342,-1.171 -4.676,-2.338 -7,-3.5 1.296,-4.131 1.296,-8.131 0,-12 0,-1.667 0,-3.333 0,-5 0.921,0.43 1.421,1.764 1.5,4 0.83,-5.696 0.663,-11.363 -0.5,-17 -0.824,3.285 -1.324,6.618 -1.5,10 -1.122,2.124 -2.622,3.957 -4.5,5.5 -6.425,1.622 -11.425,-0.378 -15,-6 1.501,-1.252 3.168,-2.252 5,-3 0.876,-1.586 1.876,-3.086 3,-4.5 1.649,1.148 3.149,2.481 4.5,4 0.115,-1.607 -0.385,-3.107 -1.5,-4.5 1.443,-3.721 3.277,-7.221 5.5,-10.5 2.719,-0.944 5.552,-1.277 8.5,-1 -0.121,3.607 1.545,5.773 5,6.5 -3.816,2.933 -3.983,6.099 -0.5,9.5 0.14,-1.756 -0.36,-3.422 -1.5,-5 1.333,-1.667 2.667,-3.333 4,-5 -2.283,-0.635 -3.949,-1.968 -5,-4 0.15,-2.529 1.15,-3.195 3,-2 2.638,2.536 4.971,2.203 7,-1 1.21,-0.432 2.21,-1.099 3,-2 z"
       id="path715" />
  </g>
  <g
     id="g716"
     transform="translate(-529.5,-274.5)">
    <path
       style="opacity:1"
       fill="#f0f0f1"
       d="m 739.5,392.5 c -0.797,3.209 -2.463,3.709 -5,1.5 1.405,-1.269 3.071,-1.769 5,-1.5 z"
       id="path716" />
  </g>
  <g
     id="g717"
     transform="translate(-529.5,-274.5)">
    <path
       style="opacity:1"
       fill="#dadadb"
       d="m 813.5,402.5 c 0,-3.667 0,-7.333 0,-11 -0.239,-1.967 0.094,-3.801 1,-5.5 1.887,0.423 3.887,0.256 6,-0.5 0.377,6.757 -0.123,13.424 -1.5,20 -3.466,1.85 -5.299,0.85 -5.5,-3 z"
       id="path717" />
  </g>
  <g
     id="g719"
     transform="translate(-529.5,-274.5)">
    <path
       style="opacity:1"
       fill="#1b1b1a"
       d="m 816.5,388.5 c 1.44,1.446 2.107,3.279 2,5.5 -0.541,3.828 -1.041,7.661 -1.5,11.5 -1.784,-5.634 -1.951,-11.301 -0.5,-17 z"
       id="path719" />
  </g>
  <g
     id="g720"
     transform="translate(-529.5,-274.5)">
    <path
       style="opacity:1"
       fill="#292725"
       d="m 668.5,372.5 c 0.988,-7.236 -1.178,-7.902 -6.5,-2 -0.195,1.319 -0.028,2.653 0.5,4 -1.175,-0.219 -2.175,0.114 -3,1 -3.221,7.124 -6.887,13.791 -11,20 -0.832,-0.829 -0.499,-1.662 1,-2.5 -1.544,-1.187 -3.211,-1.52 -5,-1 2.069,0.324 2.402,1.158 1,2.5 -0.857,0.925 -1.857,1.592 -3,2 -2.785,-0.584 -4.452,0.416 -5,3 -2.559,0.302 -4.893,-0.032 -7,-1 1.699,0.16 3.366,-0.006 5,-0.5 -4.68,-2.987 -9.68,-3.32 -15,-1 -0.691,1.067 -1.191,2.234 -1.5,3.5 -1.587,-1.227 -2.921,-0.894 -4,1 -0.497,2.31 -0.663,4.643 -0.5,7 -1.134,-2.466 -1.301,-5.133 -0.5,-8 5.762,-5.13 12.595,-7.463 20.5,-7 -4.659,-0.87 -9.325,-1.703 -14,-2.5 -12.456,-3.9 -18.789,-12.067 -19,-24.5 3.423,16.882 13.757,24.882 31,24 6.065,0.239 12.065,-0.261 18,-1.5 3.656,-5.478 6.656,-11.312 9,-17.5 2.172,-2.672 4.506,-5.172 7,-7.5 -0.661,-20.16 -10.995,-30.993 -31,-32.5 -12.011,-0.458 -21.678,3.876 -29,13 -3.207,3.268 -4.873,7.268 -5,12 -0.819,2.805 -1.319,5.805 -1.5,9 -0.49,-1.293 -0.657,-2.627 -0.5,-4 -0.52,-10.624 3.48,-18.957 12,-25 7.324,-4.499 15.324,-6.833 24,-7 14.451,0.299 24.618,6.966 30.5,20 1.056,6.995 2.556,13.828 4.5,20.5 -0.167,1.167 -0.333,2.333 -0.5,3.5 -1.107,1.212 -1.607,0.879 -1.5,-1 z"
       id="path720" />
  </g>
  <g
     id="g721"
     transform="translate(-529.5,-274.5)">
    <path
       style="opacity:1"
       fill="#f2f3f4"
       d="m 635.5,392.5 c 2.424,-0.308 4.757,0.026 7,1 -1.544,1.946 -3.544,2.446 -6,1.5 -0.752,-0.671 -1.086,-1.504 -1,-2.5 z"
       id="path721" />
  </g>
  <g
     id="g722"
     transform="translate(-529.5,-274.5)">
    <path
       style="opacity:1"
       fill="#1d1a19"
       d="m 650.5,371.5 c 2.743,-0.423 4.076,0.744 4,3.5 -2.18,8.929 -7.847,12.596 -17,11 -5.644,-1.804 -8.311,-5.638 -8,-11.5 5.204,0.202 10.371,-0.131 15.5,-1 3.154,-0.008 3.321,0.658 0.5,2 1.865,1.166 3.532,0.833 5,-1 -0.525,-0.692 -1.192,-1.192 -2,-1.5 0.916,-0.278 1.582,-0.778 2,-1.5 z"
       id="path722" />
  </g>
  <g
     id="g723"
     transform="translate(-529.5,-274.5)">
    <path
       style="opacity:1"
       fill="#c86656"
       d="m 637.5,379.5 c 2.687,-0.164 5.354,0.003 8,0.5 1.894,1.079 2.227,2.413 1,4 -3.333,0.667 -6.667,0.667 -10,0 -1.081,-1.711 -0.748,-3.211 1,-4.5 z"
       id="path723" />
  </g>
  <g
     id="g724"
     transform="translate(-529.5,-274.5)">
    <path
       style="opacity:1"
       fill="#b9b9b9"
       d="m 631.5,375.5 c 4.384,-0.326 8.717,0.008 13,1 -2.411,0.892 -4.911,1.559 -7.5,2 -2.448,-0.199 -4.281,-1.199 -5.5,-3 z"
       id="path724" />
  </g>
  <g
     id="g725"
     transform="translate(-529.5,-274.5)">
    <path
       style="opacity:1"
       fill="#dcdddd"
       d="m 668.5,372.5 c -2.185,0.204 -4.185,0.87 -6,2 -0.528,-1.347 -0.695,-2.681 -0.5,-4 5.322,-5.902 7.488,-5.236 6.5,2 z"
       id="path725" />
  </g>
  <g
     id="g726"
     transform="translate(-529.5,-274.5)">
    <path
       style="opacity:1"
       fill="#696767"
       d="m 655.5,392.5 c 1.585,0.974 2.585,2.474 3,4.5 -1.459,-0.355 -2.793,-0.189 -4,0.5 -0.221,-1.235 -0.888,-2.235 -2,-3 0.857,-0.925 1.857,-1.592 3,-2 z"
       id="path726" />
  </g>
  <g
     id="g728"
     transform="translate(-529.5,-274.5)">
    <path
       style="opacity:1"
       fill="#302c2a"
       d="m 666.5,376.5 c 0.543,0.06 0.876,0.393 1,1 -1.877,4.38 -4.71,8.047 -8.5,11 -0.667,2.333 -0.667,4.667 0,7 2.508,2.045 3.008,4.378 1.5,7 -1.079,-2.043 -2.746,-3.376 -5,-4 -0.667,0 -1,-0.333 -1,-1 1.207,-0.689 2.541,-0.855 4,-0.5 -0.415,-2.026 -1.415,-3.526 -3,-4.5 3.667,-5.333 7.333,-10.667 11,-16 z"
       id="path728" />
  </g>
  <g
     id="g729"
     transform="translate(-529.5,-274.5)">
    <path
       style="opacity:1"
       fill="#bcbbb4"
       d="m 694.5,394.5 c 3.752,10e-4 4.752,1.667 3,5 -2.273,-0.875 -3.273,-2.542 -3,-5 z"
       id="path729" />
  </g>
  <g
     id="g731"
     transform="translate(-529.5,-274.5)">
    <path
       style="opacity:1"
       fill="#e8e8e8"
       d="m 642.5,396.5 c 1.454,2.9 0.454,4.233 -3,4 -0.667,-0.333 -1.333,-0.667 -2,-1 0.548,-2.584 2.215,-3.584 5,-3 z"
       id="path731" />
  </g>
  <g
     id="g732"
     transform="translate(-529.5,-274.5)">
    <path
       style="opacity:1"
       fill="#ececed"
       d="m 879.5,390.5 c 0.189,7.044 3.022,12.711 8.5,17 0.49,1.293 0.657,2.627 0.5,4 -0.333,0 -0.667,0 -1,0 -1.159,-0.956 -2.326,-1.956 -3.5,-3 -1.44,0.648 -2.94,0.981 -4.5,1 -0.096,-4.855 -2.263,-8.522 -6.5,-11 -0.743,-1.941 -0.576,-3.774 0.5,-5.5 1.284,-0.684 2.451,-0.517 3.5,0.5 0.236,-1.619 1.069,-2.619 2.5,-3 z"
       id="path732" />
  </g>
  <g
     id="g733"
     transform="translate(-529.5,-274.5)">
    <path
       style="opacity:1"
       fill="#b4b5b3"
       d="m 698.5,402.5 c -1.187,2.475 -3.187,3.475 -6,3 0.672,-0.767 1.505,-1.434 2.5,-2 0.667,-0.667 0.667,-1.333 0,-2 -2.075,1.395 -3.908,1.062 -5.5,-1 -0.335,1.503 -0.335,2.836 0,4 -0.978,-0.477 -1.811,-1.143 -2.5,-2 0.046,-1.813 -0.12,-3.479 -0.5,-5 0.167,-0.333 0.333,-0.667 0.5,-1 3.508,4.111 4.008,3.944 1.5,-0.5 0.525,-0.692 1.192,-1.192 2,-1.5 1.268,1.804 1.935,3.804 2,6 2.582,-0.475 4.582,0.192 6,2 z"
       id="path733" />
  </g>
  <g
     id="g734"
     transform="translate(-529.5,-274.5)">
    <path
       style="opacity:1"
       fill="#272522"
       d="m 879.5,390.5 c 1.25,0.077 2.083,0.744 2.5,2 -0.315,6.037 2.018,10.703 7,14 0.78,1.887 0.613,3.554 -0.5,5 0.157,-1.373 -0.01,-2.707 -0.5,-4 -5.478,-4.289 -8.311,-9.956 -8.5,-17 z"
       id="path734" />
  </g>
  <g
     id="g737"
     transform="translate(-529.5,-274.5)">
    <path
       style="opacity:1"
       fill="#e6e6e6"
       d="m 630.5,398.5 c -1,0 -2,0 -3,0 -2.559,-0.11 -4.892,0.556 -7,2 0.5,0.333 1,0.667 1.5,1 4.26,-2.885 4.927,-2.552 2,1 -0.667,2 -1.333,4 -2,6 -2,0.667 -3.333,2 -4,4 -0.497,2.646 -0.664,5.313 -0.5,8 -2.982,-0.396 -5.649,0.271 -8,2 -0.333,-0.667 -0.667,-1.333 -1,-2 2.47,-3.276 4.137,-6.942 5,-11 0.667,0 1,-0.333 1,-1 -0.163,-2.357 0.003,-4.69 0.5,-7 1.079,-1.894 2.413,-2.227 4,-1 0.309,-1.266 0.809,-2.433 1.5,-3.5 5.32,-2.32 10.32,-1.987 15,1 -1.634,0.494 -3.301,0.66 -5,0.5 z"
       id="path737" />
  </g>
  <g
     id="g738"
     transform="translate(-529.5,-274.5)">
    <path
       style="opacity:1"
       fill="#10100f"
       d="m 627.5,398.5 c 1,0 2,0 3,0 2.107,0.968 4.441,1.302 7,1 0.667,0.333 1.333,0.667 2,1 0,0.667 -0.333,1 -1,1 -1.568,-0.973 -3.235,-1.14 -5,-0.5 1.563,1.947 3.563,3.114 6,3.5 -3.462,0.982 -7.129,1.315 -11,1 -1.109,-0.057 -2.109,-0.39 -3,-1 1.181,-1.567 2.847,-2.401 5,-2.5 -0.948,-0.483 -1.948,-0.649 -3,-0.5 0,-1 0,-2 0,-3 z"
       id="path738" />
  </g>
  <g
     id="g740"
     transform="translate(-529.5,-274.5)">
    <path
       style="opacity:1"
       fill="#515052"
       d="m 648.5,395.5 c 1.316,3.008 1.316,5.675 0,8 2.021,-2.021 4.021,-4.021 6,-6 0,0.667 0.333,1 1,1 -1.16,1.703 -0.493,2.369 2,2 -0.17,1.322 0.163,2.489 1,3.5 -1.244,0.456 -2.077,-0.044 -2.5,-1.5 -0.483,0.948 -0.649,1.948 -0.5,3 1,0 2,0 3,0 0.333,0.667 0.667,1.333 1,2 -1.548,0.321 -2.215,1.321 -2,3 0,0.333 0,0.667 0,1 -0.838,0.342 -1.172,1.008 -1,2 -0.667,-1.333 -1.333,-2.667 -2,-4 1.217,-2.991 0.05,-4.658 -3.5,-5 0.969,4.191 -0.198,4.858 -3.5,2 0.172,-0.992 -0.162,-1.658 -1,-2 0.278,-1.846 -0.389,-3.18 -2,-4 -1.895,1.986 -3.895,2.319 -6,1 0.667,0 1,-0.333 1,-1 3.454,0.233 4.454,-1.1 3,-4 1.143,-0.408 2.143,-1.075 3,-2 1.402,-1.342 1.069,-2.176 -1,-2.5 1.789,-0.52 3.456,-0.187 5,1 -1.499,0.838 -1.832,1.671 -1,2.5 z"
       id="path740" />
  </g>
  <g
     id="g741"
     transform="translate(-529.5,-274.5)">
    <path
       style="opacity:1"
       fill="#bcbdb8"
       d="m 655.5,398.5 c 2.254,0.624 3.921,1.957 5,4 0,1 0,2 0,3 -0.667,0 -1.333,0 -2,0 -1,0 -2,0 -3,0 -0.149,-1.052 0.017,-2.052 0.5,-3 0.423,1.456 1.256,1.956 2.5,1.5 -0.837,-1.011 -1.17,-2.178 -1,-3.5 -2.493,0.369 -3.16,-0.297 -2,-2 z"
       id="path741" />
  </g>
  <g
     id="g744"
     transform="translate(-529.5,-274.5)">
    <path
       style="opacity:1"
       fill="#ececed"
       d="m 833.5,402.5 c 0.876,-0.131 1.543,0.202 2,1 -0.746,1.236 -1.079,2.57 -1,4 2.121,-0.175 4.121,0.159 6,1 0.333,1.333 0.667,2.667 1,4 -2,0 -4,0 -6,0 -3.754,-1.328 -4.921,-3.994 -3.5,-8 0.717,-0.544 1.217,-1.211 1.5,-2 z"
       id="path744" />
  </g>
  <g
     id="g745"
     transform="translate(-529.5,-274.5)">
    <path
       style="opacity:1"
       fill="#2c2a28"
       d="m 879.5,390.5 c -1.431,0.381 -2.264,1.381 -2.5,3 -1.049,-1.017 -2.216,-1.184 -3.5,-0.5 -1.076,1.726 -1.243,3.559 -0.5,5.5 4.237,2.478 6.404,6.145 6.5,11 1.56,-0.019 3.06,-0.352 4.5,-1 1.174,1.044 2.341,2.044 3.5,3 -0.61,0.891 -0.943,1.891 -1,3 -4.738,1.198 -9.405,2.698 -14,4.5 -2.31,0.497 -4.643,0.663 -7,0.5 -0.219,1.175 0.114,2.175 1,3 3.291,-0.882 6.624,-1.548 10,-2 0.667,0.667 1.333,1.333 2,2 -0.749,1.031 -1.415,2.198 -2,3.5 -2,0.333 -4,0.667 -6,1 4.982,4.22 5.315,8.887 1,14 2.272,2.763 2.605,5.763 1,9 1.999,3.179 2.999,6.679 3,10.5 -0.667,0 -1,0.333 -1,1 -0.333,0 -0.667,0 -1,0 0.03,-0.997 -0.47,-1.664 -1.5,-2 -2.448,0.199 -4.281,1.199 -5.5,3 -6.522,0.323 -12.855,-0.01 -19,-1 5.667,0 11.333,0 17,0 0.838,-0.342 1.172,-1.008 1,-2 1.544,-0.203 2.878,-0.87 4,-2 1.236,0.746 2.57,1.079 4,1 -1.486,-4.794 -2.319,-9.794 -2.5,-15 -1.716,-1.052 -2.716,-0.386 -3,2 -1.113,0.805 -2.279,1.472 -3.5,2 -1.333,-0.667 -2.667,-1.333 -4,-2 1.667,0 3.333,0 5,0 -0.149,-1.052 0.017,-2.052 0.5,-3 2.225,-1.439 4.225,-3.106 6,-5 1.368,-8.105 -2.132,-11.439 -10.5,-10 -0.712,4.376 -3.379,6.376 -8,6 -1.333,-0.167 -2.667,-0.333 -4,-0.5 -1.896,-2.068 -3.896,-3.901 -6,-5.5 -1.538,-2.051 -1.204,-3.718 1,-5 0.65,1.684 1.65,3.017 3,4 0,0.667 0.333,1 1,1 0,0.333 0,0.667 0,1 0.432,1.21 1.099,2.21 2,3 2.607,1.302 5.273,1.136 8,-0.5 1.655,-1.444 2.322,-3.278 2,-5.5 -3.333,0 -6.667,0 -10,0 0.457,-2.524 0.457,-5.191 0,-8 1.109,-0.057 2.109,-0.39 3,-1 4.541,-0.169 4.874,0.498 1,2 4,1.333 4,2.667 0,4 1.545,0.952 3.212,1.285 5,1 0.333,-8 0.667,-8 1,0 1,0 2,0 3,0 0.533,-4.158 -0.8,-7.492 -4,-10 -2.157,0.55 -4.157,1.217 -6,2 -1.879,0.107 -2.212,-0.393 -1,-1.5 2.48,-0.96 4.98,-1.793 7.5,-2.5 0.667,-1.333 0.667,-2.667 0,-4 -5.709,1.431 -11.543,2.431 -17.5,3 1.077,2.229 1.744,4.563 2,7 -0.617,-0.111 -1.117,-0.444 -1.5,-1 -1.995,2.247 -4.495,3.247 -7.5,3 0,-1.333 0,-2.667 0,-4 1.861,-1.342 3.861,-2.342 6,-3 -0.333,-1.333 -0.667,-2.667 -1,-4 -1.879,-0.841 -3.879,-1.175 -6,-1 -0.079,-1.43 0.254,-2.764 1,-4 -0.457,-0.798 -1.124,-1.131 -2,-1 -0.333,0 -0.667,0 -1,0 -0.531,-2.737 -1.364,-5.404 -2.5,-8 -0.278,0.916 -0.778,1.582 -1.5,2 0.89,-3.448 2.557,-6.448 5,-9 -0.131,0.739 0.036,1.406 0.5,2 4.136,-1.309 8.302,-1.309 12.5,0 1.239,-1.507 0.905,-2.674 -1,-3.5 -3.721,-0.678 -7.388,-0.511 -11,0.5 0.111,-0.617 0.444,-1.117 1,-1.5 4.041,-0.173 8.041,-0.673 12,-1.5 -0.209,-0.586 -0.543,-1.086 -1,-1.5 4.851,-0.174 9.518,-0.674 14,-1.5 22.548,-2.712 31.715,-15.379 27.5,-38 -0.754,-3.184 -2.254,-5.851 -4.5,-8 -5.213,-6.943 -12.213,-10.776 -21,-11.5 -18.856,-3.499 -31.356,3.668 -37.5,21.5 -0.999,7.318 -1.333,14.652 -1,22 0.417,1.256 1.25,1.923 2.5,2 -0.333,1 -1,1.667 -2,2 -1.903,-3.212 -2.903,-6.712 -3,-10.5 -0.832,-27.168 12.168,-40.168 39,-39 18.537,1.371 28.537,11.204 30,29.5 0.713,13.09 -4.621,22.59 -16,28.5 -5.509,1.296 -10.842,2.962 -16,5 3.657,-0.108 7.323,-0.108 11,0 3.626,0.278 5.626,2.112 6,5.5 1.599,-0.268 2.932,0.066 4,1 z"
       id="path745" />
  </g>
  <g
     id="g746"
     transform="translate(-529.5,-274.5)">
    <path
       style="opacity:1"
       fill="#e5e5e6"
       d="m 862.5,407.5 c 2.357,0.163 4.69,-0.003 7,-0.5 0.752,-0.671 1.086,-1.504 1,-2.5 0.577,-2.152 1.744,-2.485 3.5,-1 0.769,2.599 0.602,5.099 -0.5,7.5 -3.572,1.48 -7.238,2.146 -11,2 -1.252,-1.828 -1.252,-3.661 0,-5.5 z"
       id="path746" />
  </g>
  <g
     id="g747"
     transform="translate(-529.5,-274.5)">
    <path
       style="opacity:1"
       fill="#8a8989"
       d="m 847.5,396.5 c 1,0 2,0 3,0 -0.351,2.541 -0.018,4.208 1,5 1.333,0.667 2.667,1.333 4,2 -0.342,0.838 -1.008,1.172 -2,1 -1.765,-0.961 -3.765,-1.295 -6,-1 0,-2.333 0,-4.667 0,-7 z"
       id="path747" />
  </g>
  <g
     id="g748"
     transform="translate(-529.5,-274.5)">
    <path
       style="opacity:1"
       fill="#e1e2e3"
       d="m 866.5,390.5 c 3.11,-1.425 4.776,-0.259 5,3.5 -0.131,2.253 -0.631,4.419 -1.5,6.5 -1.622,0.599 -3.122,1.266 -4.5,2 -4.009,-0.358 -8.009,-0.858 -12,-1.5 -1.586,-3.698 -0.586,-4.865 3,-3.5 3.761,-0.512 7.428,-1.345 11,-2.5 2.793,-2.24 2.46,-3.74 -1,-4.5 z"
       id="path748" />
  </g>
  <g
     id="g749"
     transform="translate(-529.5,-274.5)">
    <path
       style="opacity:1"
       fill="#e7e8e9"
       d="m 850.5,391.5 c 0.311,0.978 0.978,1.645 2,2 2.311,-1.461 4.644,-1.794 7,-1 -0.743,0.682 -1.409,1.349 -2,2 -1.935,0.65 -3.935,0.983 -6,1 0,2 0,4 0,6 -1.018,-0.792 -1.351,-2.459 -1,-5 -1,0 -2,0 -3,0 -2.776,-6.788 -6.776,-7.622 -12,-2.5 3.014,3.034 6.681,4.201 11,3.5 0,1.667 0,3.333 0,5 -5.177,0.797 -9.677,-0.536 -13.5,-4 -1.405,-5.927 0.928,-8.927 7,-9 3.432,0.916 6.932,1.583 10.5,2 z"
       id="path749" />
  </g>
  <g
     id="g750"
     transform="translate(-529.5,-274.5)">
    <path
       style="opacity:1"
       fill="#1b1b1a"
       d="m 866.5,390.5 c 3.46,0.76 3.793,2.26 1,4.5 -3.572,1.155 -7.239,1.988 -11,2.5 -3.586,-1.365 -4.586,-0.198 -3,3.5 3.991,0.642 7.991,1.142 12,1.5 2.054,-0.135 3.721,0.532 5,2 0.086,0.996 -0.248,1.829 -1,2.5 -2.31,0.497 -4.643,0.663 -7,0.5 -0.667,-1.333 -1.333,-2.667 -2,-4 -1.667,0 -3.333,0 -5,0 -1.333,-0.667 -2.667,-1.333 -4,-2 0,-2 0,-4 0,-6 2.065,-0.017 4.065,-0.35 6,-1 1,0 2,0 3,0 -0.299,-4.76 1.701,-6.094 6,-4 z"
       id="path750" />
  </g>
  <g
     id="g751"
     transform="translate(-529.5,-274.5)">
    <path
       style="opacity:1"
       fill="#dee0e0"
       d="m 850.5,391.5 c -0.734,-1.208 -1.067,-2.541 -1,-4 5.128,0.068 10.128,-0.599 15,-2 3.172,-0.051 6.172,0.616 9,2 -2.797,1.067 -5.631,1.067 -8.5,0 -5.142,0.738 -9.975,2.071 -14.5,4 z"
       id="path751" />
  </g>
  <g
     id="g752"
     transform="translate(-529.5,-274.5)">
    <path
       style="opacity:1"
       fill="#d7d9da"
       d="m 849.5,382.5 c 2.333,0 4.667,0 7,0 -0.575,3.973 -2.742,4.973 -6.5,3 -0.483,-0.948 -0.649,-1.948 -0.5,-3 z"
       id="path752" />
  </g>
  <g
     id="g753"
     transform="translate(-529.5,-274.5)">
    <path
       style="opacity:1"
       fill="#c2c1c3"
       d="m 861.5,364.5 c -0.111,0.617 -0.444,1.117 -1,1.5 -3.293,0.826 -6.626,1.326 -10,1.5 0,-1 0,-2 0,-3 3.679,0.137 7.179,-0.529 10.5,-2 0.464,0.594 0.631,1.261 0.5,2 z"
       id="path753" />
  </g>
  <g
     id="g754"
     transform="translate(-529.5,-274.5)">
    <path
       style="opacity:1"
       fill="#979596"
       d="m 843.5,363.5 c 1.44,0.863 2.774,0.863 4,0 0.929,1.189 1.262,2.522 1,4 -2.51,-0.427 -4.843,-1.093 -7,-2 1.333,0 2,-0.667 2,-2 z"
       id="path754" />
  </g>
  <g
     id="g755"
     transform="translate(-529.5,-274.5)">
    <path
       style="opacity:1"
       fill="#e1e1e0"
       d="m 838.5,362.5 c 1.617,0.538 3.284,0.871 5,1 0,1.333 -0.667,2 -2,2 -2,0 -3,-1 -3,-3 z"
       id="path755" />
  </g>
  <g
     id="g756"
     transform="translate(-529.5,-274.5)">
    <path
       style="opacity:1"
       fill="#494845"
       d="m 837.5,361.5 c 0.06,-0.543 0.393,-0.876 1,-1 1.295,0.598 2.628,1.098 4,1.5 7.195,0.262 14.195,0.429 21,0.5 -0.667,0.667 -1.333,1.333 -2,2 0.131,-0.739 -0.036,-1.406 -0.5,-2 -3.321,1.471 -6.821,2.137 -10.5,2 0,1 0,2 0,3 -0.667,0 -1.333,0 -2,0 0.262,-1.478 -0.071,-2.811 -1,-4 -1.226,0.863 -2.56,0.863 -4,0 -1.716,-0.129 -3.383,-0.462 -5,-1 0,-0.667 -0.333,-1 -1,-1 z"
       id="path756" />
  </g>
  <g
     id="g757"
     transform="translate(-529.5,-274.5)">
    <path
       style="opacity:1"
       fill="#212121"
       d="m 845.5,353.5 c 4.234,-0.438 5.901,1.228 5,5 -1.892,-2.544 -3.725,-2.544 -5.5,0 -0.384,-1.697 -0.218,-3.363 0.5,-5 z"
       id="path757" />
  </g>
  <g
     id="g758"
     transform="translate(-529.5,-274.5)">
    <path
       style="opacity:1"
       fill="#100f0f"
       d="m 862.5,339.5 c 8.105,-0.728 11.605,2.938 10.5,11 -2.995,7.563 -7.662,8.897 -14,4 -2.669,-6.028 -1.502,-11.028 3.5,-15 z"
       id="path758" />
  </g>
  <g
     id="g759"
     transform="translate(-529.5,-274.5)">
    <path
       style="opacity:1"
       fill="#111110"
       d="m 833.5,338.5 c 9.131,0.571 11.964,5.237 8.5,14 -2.602,3.712 -6.102,4.878 -10.5,3.5 -4.499,-6.491 -3.832,-12.325 2,-17.5 z"
       id="path759" />
  </g>
  <g
     id="g761"
     transform="translate(-529.5,-274.5)">
    <path
       style="opacity:1"
       fill="#c0c0ba"
       d="m 654.5,409.5 c -1.955,0.823 -3.955,0.99 -6,0.5 -0.837,-1.011 -1.17,-2.178 -1,-3.5 3.302,2.858 4.469,2.191 3.5,-2 3.55,0.342 4.717,2.009 3.5,5 z"
       id="path761" />
  </g>
  <g
     id="g762"
     transform="translate(-529.5,-274.5)">
    <path
       style="opacity:1"
       fill="#191818"
       d="m 658.5,405.5 c 0.667,0 1.333,0 2,0 2.047,2.05 3.714,4.383 5,7 -2,-1.667 -4,-3.333 -6,-5 -0.333,-0.667 -0.667,-1.333 -1,-2 z"
       id="path762" />
  </g>
  <g
     id="g763"
     transform="translate(-529.5,-274.5)">
    <path
       style="opacity:1"
       fill="#dadcdc"
       d="m 855.5,403.5 c 1.667,0 3.333,0 5,0 0.14,1.624 -0.527,2.79 -2,3.5 -5.923,1.304 -11.923,1.804 -18,1.5 0,-1 0,-2 0,-3 4.349,-0.487 8.683,-0.82 13,-1 0.992,0.172 1.658,-0.162 2,-1 z"
       id="path763" />
  </g>
  <g
     id="g764"
     transform="translate(-529.5,-274.5)">
    <path
       style="opacity:1"
       fill="#dbdadb"
       d="m 832.5,402.5 c -3.362,1.68 -6.362,3.846 -9,6.5 -1.845,1.128 -3.845,1.628 -6,1.5 -0.111,-0.617 -0.444,-1.117 -1,-1.5 3.507,-1.33 5.173,-3.83 5,-7.5 3.64,0.025 5.973,-1.642 7,-5 0.722,-0.418 1.222,-1.084 1.5,-2 1.136,2.596 1.969,5.263 2.5,8 z"
       id="path764" />
  </g>
  <g
     id="g768"
     transform="translate(-529.5,-274.5)">
    <path
       style="opacity:1"
       fill="#e9e8e7"
       d="m 625.5,404.5 c 0.891,0.61 1.891,0.943 3,1 4.065,0.693 8.232,1.36 12.5,2 0.684,1.284 0.517,2.451 -0.5,3.5 -3.317,0.498 -6.65,0.665 -10,0.5 -2.333,0 -4.667,0 -7,0 -0.329,-2.728 0.337,-5.062 2,-7 z"
       id="path768" />
  </g>
  <g
     id="g769"
     transform="translate(-529.5,-274.5)">
    <path
       style="opacity:1"
       fill="#d7d6d7"
       d="m 659.5,407.5 c 2,1.667 4,3.333 6,5 0.572,1.755 1.406,3.422 2.5,5 0.667,1.333 0.667,2.667 0,4 -2.403,-1.805 -4.07,-4.138 -5,-7 -1.432,-1.939 -3.265,-3.272 -5.5,-4 -0.215,-1.679 0.452,-2.679 2,-3 z"
       id="path769" />
  </g>
  <g
     id="g770"
     transform="translate(-529.5,-274.5)">
    <path
       style="opacity:1"
       fill="#383738"
       d="m 743.5,395.5 c 1.373,-0.157 2.707,0.01 4,0.5 2.218,1.767 3.885,3.933 5,6.5 -1.485,4.922 -2.651,9.922 -3.5,15 0.004,-3.692 -0.996,-7.025 -3,-10 -0.399,0.228 -0.565,0.562 -0.5,1 -2.557,1.904 -2.39,3.904 0.5,6 0.464,-0.594 0.631,-1.261 0.5,-2 1.186,1.205 1.186,2.539 0,4 -1.188,-1.184 -2.355,-1.184 -3.5,0 -1.227,-3.374 -1.394,-6.708 -0.5,-10 -0.652,-0.949 -0.986,-2.115 -1,-3.5 0.445,-2.59 1.111,-5.09 2,-7.5 z"
       id="path770" />
  </g>
  <g
     id="g771"
     transform="translate(-529.5,-274.5)">
    <path
       style="opacity:1"
       fill="#b1b0b1"
       d="m 742.5,406.5 c -0.285,-1.788 0.048,-3.455 1,-5 1.717,1.168 2.384,2.835 2,5 -1,0 -2,0 -3,0 z"
       id="path771" />
  </g>
  <g
     id="g772"
     transform="translate(-529.5,-274.5)">
    <path
       style="opacity:1"
       fill="#41423e"
       d="m 639.5,404.5 c 2.754,1.553 3.587,3.886 2.5,7 -1.067,0.691 -2.234,1.191 -3.5,1.5 4.881,0.504 6.214,3.004 4,7.5 -0.333,0 -0.667,0 -1,0 0.538,-1.617 0.871,-3.284 1,-5 -1.667,0 -3.333,0 -5,0 0,-1 0,-2 0,-3 -2.559,0.302 -4.893,-0.032 -7,-1 3.35,0.165 6.683,-0.002 10,-0.5 1.017,-1.049 1.184,-2.216 0.5,-3.5 -4.268,-0.64 -8.435,-1.307 -12.5,-2 3.871,0.315 7.538,-0.018 11,-1 z"
       id="path772" />
  </g>
  <g
     id="g773"
     transform="translate(-529.5,-274.5)">
    <path
       style="opacity:1"
       fill="#dfdfdf"
       d="m 745.5,408.5 c 0.734,1.208 1.067,2.541 1,4 0.131,0.739 -0.036,1.406 -0.5,2 -2.89,-2.096 -3.057,-4.096 -0.5,-6 z"
       id="path773" />
  </g>
  <g
     id="g775"
     transform="translate(-529.5,-274.5)">
    <path
       style="opacity:1"
       fill="#0c0c0b"
       d="m 623.5,411.5 c 2.333,0 4.667,0 7,0 2.107,0.968 4.441,1.302 7,1 0,1 0,2 0,3 -4.515,1.779 -9.182,2.279 -14,1.5 -0.837,-1.011 -1.17,-2.178 -1,-3.5 0.838,-0.342 1.172,-1.008 1,-2 z"
       id="path775" />
  </g>
  <g
     id="g776"
     transform="translate(-529.5,-274.5)">
    <path
       style="opacity:1"
       fill="#ddddde"
       d="m 638.5,401.5 c 2.105,1.319 4.105,0.986 6,-1 1.611,0.82 2.278,2.154 2,4 0.921,5.537 1.254,11.037 1,16.5 -0.572,2.074 -1.905,3.24 -4,3.5 -0.734,-1.208 -1.067,-2.541 -1,-4 2.214,-4.496 0.881,-6.996 -4,-7.5 1.266,-0.309 2.433,-0.809 3.5,-1.5 1.087,-3.114 0.254,-5.447 -2.5,-7 -2.437,-0.386 -4.437,-1.553 -6,-3.5 1.765,-0.64 3.432,-0.473 5,0.5 z"
       id="path776" />
  </g>
  <g
     id="g778"
     transform="translate(-529.5,-274.5)">
    <path
       style="opacity:1"
       fill="#c1867c"
       d="m 853.5,415.5 c 0,0.333 0,0.667 0,1 -0.891,0.61 -1.891,0.943 -3,1 -0.291,-1.149 -1.124,-1.816 -2.5,-2 -1.376,0.184 -2.209,0.851 -2.5,2 -0.333,0 -0.667,0 -1,0 -0.256,-2.437 -0.923,-4.771 -2,-7 5.957,-0.569 11.791,-1.569 17.5,-3 0.667,1.333 0.667,2.667 0,4 -2.52,0.707 -5.02,1.54 -7.5,2.5 -1.212,1.107 -0.879,1.607 1,1.5 z"
       id="path778" />
  </g>
  <g
     id="g781"
     transform="translate(-529.5,-274.5)">
    <path
       style="opacity:1"
       fill="#e2e2e4"
       d="m 881.5,410.5 c 1.846,-0.278 3.18,0.389 4,2 -6.809,0.576 -13.143,2.576 -19,6 -0.688,-2.218 0.312,-3.718 3,-4.5 4.043,-1.491 8.043,-2.658 12,-3.5 z"
       id="path781" />
  </g>
  <g
     id="g783"
     transform="translate(-529.5,-274.5)">
    <path
       style="opacity:1"
       fill="#7a7a7a"
       d="m 835.5,412.5 c 2,0 4,0 6,0 -2.139,0.658 -4.139,1.658 -6,3 -0.342,-0.838 -1.008,-1.172 -2,-1 0.667,-0.667 1.333,-1.333 2,-2 z"
       id="path783" />
  </g>
  <g
     id="g785"
     transform="translate(-529.5,-274.5)">
    <path
       style="opacity:1"
       fill="#e0dfe0"
       d="m 742.5,394.5 c 0.667,0 1,0.333 1,1 -0.889,2.41 -1.555,4.91 -2,7.5 0.014,1.385 0.348,2.551 1,3.5 -0.894,3.292 -0.727,6.626 0.5,10 1.145,-1.184 2.312,-1.184 3.5,0 1.123,2.081 2.123,4.247 3,6.5 -0.676,1.683 -1.676,1.85 -3,0.5 -0.342,-0.838 -1.008,-1.172 -2,-1 -1.301,-1.382 -2.134,-3.048 -2.5,-5 -1.011,0.837 -2.178,1.17 -3.5,1 -0.529,3.533 -2.529,5.867 -6,7 -1.161,-4.675 0.506,-7.341 5,-8 0.39,-4.922 -0.777,-5.256 -3.5,-1 -0.667,-5 -0.667,-10 0,-15 0.925,0.547 1.758,1.213 2.5,2 -1.624,1.369 -2.124,3.036 -1.5,5 1.385,1.051 2.385,2.384 3,4 0.692,-0.525 1.192,-1.192 1.5,-2 -0.991,-1.165 -1.991,-2.332 -3,-3.5 0.909,-1.789 1.076,-3.623 0.5,-5.5 -6.204,-5.355 -5.538,-6.688 2,-4 0.759,-1.563 1.926,-2.563 3.5,-3 z"
       id="path785" />
  </g>
  <g
     id="g786"
     transform="translate(-529.5,-274.5)">
    <path
       style="opacity:1"
       fill="#ececec"
       d="m 833.5,414.5 c 0.992,-0.172 1.658,0.162 2,1 0,1.333 0,2.667 0,4 3.005,0.247 5.505,-0.753 7.5,-3 0.383,0.556 0.883,0.889 1.5,1 0.262,1.478 -0.071,2.811 -1,4 -1.502,0.583 -2.835,1.416 -4,2.5 -4.7,1.135 -7.366,-0.699 -8,-5.5 -0.16,-1.855 0.507,-3.188 2,-4 z"
       id="path786" />
  </g>
  <g
     id="g788"
     transform="translate(-529.5,-274.5)">
    <path
       style="opacity:1"
       fill="#e9eaea"
       d="m 622.5,413.5 c -0.17,1.322 0.163,2.489 1,3.5 4.818,0.779 9.485,0.279 14,-1.5 1.667,0 3.333,0 5,0 -0.129,1.716 -0.462,3.383 -1,5 -4.597,0.608 -9.097,1.608 -13.5,3 -8.463,-0.272 -10.963,-4.106 -7.5,-11.5 1.316,-0.528 1.983,-0.028 2,1.5 z"
       id="path788" />
  </g>
  <g
     id="g789"
     transform="translate(-529.5,-274.5)">
    <path
       style="opacity:1"
       fill="#c95c5a"
       d="m 850.5,417.5 c 0.457,2.809 0.457,5.476 0,8 0,1.333 -0.667,2 -2,2 -0.667,0 -1,-0.333 -1,-1 -1.078,-2.902 -1.744,-5.902 -2,-9 0.291,-1.149 1.124,-1.816 2.5,-2 1.376,0.184 2.209,0.851 2.5,2 z"
       id="path789" />
  </g>
  <g
     id="g790"
     transform="translate(-529.5,-274.5)">
    <path
       style="opacity:1"
       fill="#b4aa9f"
       d="m 853.5,416.5 c 0,-0.333 0,-0.667 0,-1 1.843,-0.783 3.843,-1.45 6,-2 3.2,2.508 4.533,5.842 4,10 -1,0 -2,0 -3,0 -0.333,-8 -0.667,-8 -1,0 -1.788,0.285 -3.455,-0.048 -5,-1 4,-1.333 4,-2.667 0,-4 3.874,-1.502 3.541,-2.169 -1,-2 z"
       id="path790" />
  </g>
  <g
     id="g791"
     transform="translate(-529.5,-274.5)">
    <path
       style="opacity:1"
       fill="#e1e0e2"
       d="m 886.5,414.5 c -2.661,3.002 -5.995,5.002 -10,6 -3.376,0.452 -6.709,1.118 -10,2 -0.886,-0.825 -1.219,-1.825 -1,-3 2.357,0.163 4.69,-0.003 7,-0.5 4.595,-1.802 9.262,-3.302 14,-4.5 z"
       id="path791" />
  </g>
  <g
     id="g794"
     transform="translate(-529.5,-274.5)">
    <path
       style="opacity:1"
       fill="#282625"
       d="m 646.5,404.5 c 0.838,0.342 1.172,1.008 1,2 -0.17,1.322 0.163,2.489 1,3.5 2.045,0.49 4.045,0.323 6,-0.5 0.667,1.333 1.333,2.667 2,4 2.091,3.271 4.424,6.437 7,9.5 1,0.667 2,0.667 3,0 -3.978,-3.136 -6.978,-6.969 -9,-11.5 0,-0.333 0,-0.667 0,-1 2.235,0.728 4.068,2.061 5.5,4 0.93,2.862 2.597,5.195 5,7 0.667,-1.333 0.667,-2.667 0,-4 -1.094,-1.578 -1.928,-3.245 -2.5,-5 0.996,-0.086 1.829,0.248 2.5,1 4.533,6.615 3.033,10.615 -4.5,12 -0.23,7.548 -3.897,9.882 -11,7 -2.907,-1.234 -5.241,-3.234 -7,-6 -0.333,0.333 -0.667,0.667 -1,1 1.45,1.35 2.117,3.016 2,5 1.052,-0.149 2.052,0.017 3,0.5 -4.172,0.813 -6.172,-1.021 -6,-5.5 0,-0.667 0,-1.333 0,-2 0,-0.333 0,-0.667 0,-1 2.095,-0.26 3.428,-1.426 4,-3.5 0.254,-5.463 -0.079,-10.963 -1,-16.5 z"
       id="path794" />
  </g>
  <g
     id="g795"
     transform="translate(-529.5,-274.5)">
    <path
       style="opacity:1"
       fill="#e7e6ea"
       d="m 657.5,411.5 c 2.022,4.531 5.022,8.364 9,11.5 -1,0.667 -2,0.667 -3,0 -2.576,-3.063 -4.909,-6.229 -7,-9.5 -0.172,-0.992 0.162,-1.658 1,-2 z"
       id="path795" />
  </g>
  <g
     id="g796"
     transform="translate(-529.5,-274.5)">
    <path
       style="opacity:1"
       fill="#f0eff0"
       d="m 648.5,414.5 c 4.336,-0.228 7.67,1.439 10,5 -3.362,1.4 -6.529,1.067 -9.5,-1 -0.49,-1.293 -0.657,-2.627 -0.5,-4 z"
       id="path796" />
  </g>
  <g
     id="g798"
     transform="translate(-529.5,-274.5)">
    <path
       style="opacity:1"
       fill="#cbcdc8"
       d="m 640.5,422.5 c 0.073,1.527 -0.594,2.527 -2,3 -1.052,0.149 -2.052,-0.017 -3,-0.5 1.41,-1.372 3.077,-2.205 5,-2.5 z"
       id="path798" />
  </g>
  <g
     id="g799"
     transform="translate(-529.5,-274.5)">
    <path
       style="opacity:1"
       fill="#d6d5d2"
       d="m 742.5,422.5 c 0,1.333 0,2.667 0,4 -2.104,0.299 -4.104,-0.034 -6,-1 1.222,-2.478 3.222,-3.478 6,-3 z"
       id="path799" />
  </g>
  <g
     id="g800"
     transform="translate(-529.5,-274.5)">
    <path
       style="opacity:1"
       fill="#bebcbd"
       d="m 871.5,422.5 c 2.442,-0.146 3.109,0.687 2,2.5 -3,0.667 -6,0.667 -9,0 2.333,-1.043 4.666,-1.876 7,-2.5 z"
       id="path800" />
  </g>
  <g
     id="g803"
     transform="translate(-529.5,-274.5)">
    <path
       style="opacity:1"
       fill="#e6e8e5"
       d="m 643.5,425.5 c 0,0.667 0,1.333 0,2 -2.098,1.414 -3.098,0.748 -3,-2 1,0 2,0 3,0 z"
       id="path803" />
  </g>
  <g
     id="g804"
     transform="translate(-529.5,-274.5)">
    <path
       style="opacity:1"
       fill="#ececed"
       d="m 658.5,421.5 c 4.071,1.935 4.904,4.935 2.5,9 -3.55,2.583 -7.05,2.417 -10.5,-0.5 -2.774,-1.605 -3.44,-3.772 -2,-6.5 2.778,2.791 6.111,4.124 10,4 0,-2 0,-4 0,-6 z"
       id="path804" />
  </g>
  <g
     id="g805"
     transform="translate(-529.5,-274.5)">
    <path
       style="opacity:1"
       fill="#b8b9b6"
       d="m 636.5,427.5 c 0,0.667 0,1.333 0,2 1.414,2.098 0.748,3.098 -2,3 0,1 0,2 0,3 -1.322,0.17 -2.489,-0.163 -3.5,-1 -0.334,-2.347 -0.167,-4.681 0.5,-7 1.667,0 3.333,0 5,0 z"
       id="path805" />
  </g>
  <g
     id="g806"
     transform="translate(-529.5,-274.5)">
    <path
       style="opacity:1"
       fill="#ae7369"
       d="m 850.5,425.5 c 3.333,0 6.667,0 10,0 0.322,2.222 -0.345,4.056 -2,5.5 -2.727,1.636 -5.393,1.802 -8,0.5 2.667,-0.606 5.334,-1.439 8,-2.5 -3.317,-0.498 -6.65,-0.665 -10,-0.5 0,-0.333 0,-0.667 0,-1 1.333,0 2,-0.667 2,-2 z"
       id="path806" />
  </g>
  <g
     id="g807"
     transform="translate(-529.5,-274.5)">
    <path
       style="opacity:1"
       fill="#110f0d"
       d="m 913.5,387.5 c 0.333,5.333 0.667,10.667 1,16 2.333,0 4.667,0 7,0 0,3.333 0,6.667 0,10 5.667,0 11.333,0 17,0 0,6 0,12 0,18 -10,0 -20,0 -30,0 0,10.333 0,20.667 0,31 24.333,0 48.667,0 73,0 0,0.333 0,0.667 0,1 -24.333,0 -48.667,0 -73,0 0,9 0,18 0,27 -2.559,0.302 -4.893,-0.032 -7,-1 0,-8.667 0,-17.333 0,-26 -9.182,-0.327 -18.182,0.007 -27,1 -0.838,-0.342 -1.172,-1.008 -1,-2 0,-0.333 0,-0.667 0,-1 0.333,0 0.667,0 1,0 8.818,0.993 17.818,1.327 27,1 0,-10.333 0,-20.667 0,-31 -7.333,0 -14.667,0 -22,0 -0.977,-2.787 -1.31,-5.787 -1,-9 -0.667,-0.667 -1.333,-1.333 -2,-2 4.005,-0.998 7.339,-2.998 10,-6 0.057,-1.109 0.39,-2.109 1,-3 0.333,0 0.667,0 1,0 2.837,1.902 6.171,2.569 10,2 0,-3.667 0,-7.333 0,-11 1.967,0.239 3.801,-0.094 5.5,-1 0.777,-2.929 0.61,-5.763 -0.5,-8.5 1.237,-0.232 2.237,-0.732 3,-1.5 2.795,-0.563 5.128,-1.896 7,-4 z"
       id="path807" />
  </g>
  <g
     id="g808"
     transform="translate(-529.5,-274.5)">
    <path
       style="opacity:1"
       fill="#694a34"
       d="m 921.5,415.5 c 5.14,-0.988 10.474,-1.321 16,-1 0,5.333 0,10.667 0,16 -19.174,0.33 -38.174,-0.003 -57,-1 18.667,0 37.333,0 56,0 0,-4.667 0,-9.333 0,-14 -5,0 -10,0 -15,0 z"
       id="path808" />
  </g>
  <g
     id="g809"
     transform="translate(-529.5,-274.5)">
    <path
       style="opacity:1"
       fill="#906144"
       d="m 921.5,415.5 c 5,0 10,0 15,0 0,4.667 0,9.333 0,14 -18.667,0 -37.333,0 -56,0 -0.165,-3.018 0.002,-6.018 0.5,-9 2.428,-1.13 4.595,-2.63 6.5,-4.5 11.328,-0.5 22.662,-0.667 34,-0.5 z"
       id="path809" />
  </g>
  <g
     id="g810"
     transform="translate(-529.5,-274.5)">
    <path
       style="opacity:1"
       fill="#aeb1af"
       d="m 899.5,404.5 c 7,0 14,0 21,0 0,3 0,6 0,9 -7,0 -14,0 -21,0 0,-3 0,-6 0,-9 z"
       id="path810" />
  </g>
  <g
     id="g811"
     transform="translate(-529.5,-274.5)">
    <path
       style="opacity:1"
       fill="#737472"
       d="m 906.5,394.5 c 2.362,2.419 3.362,5.419 3,9 -1.333,0 -2.667,0 -4,0 0.204,-3.018 0.537,-6.018 1,-9 z"
       id="path811" />
  </g>
  <g
     id="g812"
     transform="translate(-529.5,-274.5)">
    <path
       style="opacity:1"
       fill="#514f4f"
       d="m 908.5,392.5 c 1.333,0 2.667,0 4,0 0.96,3.695 0.96,7.361 0,11 -0.586,-0.209 -1.086,-0.543 -1.5,-1 -0.533,-3.429 -1.367,-6.762 -2.5,-10 z"
       id="path812" />
  </g>
  <g
     id="g814"
     transform="translate(-529.5,-274.5)">
    <path
       style="opacity:1"
       fill="#777471"
       d="m 641.5,420.5 c 0.333,0 0.667,0 1,0 -0.067,1.459 0.266,2.792 1,4 0,0.333 0,0.667 0,1 -1,0 -2,0 -3,0 -0.098,2.748 0.902,3.414 3,2 -0.172,4.479 1.828,6.313 6,5.5 -0.948,-0.483 -1.948,-0.649 -3,-0.5 0.117,-1.984 -0.55,-3.65 -2,-5 0.333,-0.333 0.667,-0.667 1,-1 1.759,2.766 4.093,4.766 7,6 -0.333,0.667 -0.667,1.333 -1,2 -2.641,0.763 -5.308,0.93 -8,0.5 -2.158,-1.312 -2.491,-2.978 -1,-5 -1,-0.667 -2,-0.667 -3,0 1.211,0.893 1.211,1.726 0,2.5 -0.641,-1.493 -1.641,-2.493 -3,-3 0,-0.667 0,-1.333 0,-2 1.333,0 2,-0.667 2,-2 1.406,-0.473 2.073,-1.473 2,-3 0.333,-0.667 0.667,-1.333 1,-2 z"
       id="path814" />
  </g>
  <g
     id="g815"
     transform="translate(-529.5,-274.5)">
    <path
       style="opacity:1"
       fill="#474745"
       d="m 742.5,422.5 c 0.667,0 1.333,0 2,0 0.992,-0.172 1.658,0.162 2,1 -0.438,-0.065 -0.772,0.101 -1,0.5 3.034,1.191 4.701,3.358 5,6.5 -2.048,-0.34 -3.048,-0.007 -3,1 -1.581,3.087 -4.081,4.753 -7.5,5 -2.933,-0.779 -5.766,-1.779 -8.5,-3 0.435,-1.797 0.435,-3.797 0,-6 2.667,0 5.333,0 8,0 -0.898,0.658 -1.898,1.324 -3,2 1.896,0.966 3.896,1.299 6,1 0,-1 0,-2 0,-3 1.333,-0.333 1.333,-0.667 0,-1 0,-1.333 0,-2.667 0,-4 z"
       id="path815" />
  </g>
  <g
     id="g816"
     transform="translate(-529.5,-274.5)">
    <path
       style="opacity:1"
       fill="#ebeced"
       d="m 736.5,432.5 c 2.424,-0.308 4.757,0.026 7,1 -1.544,1.946 -3.544,2.446 -6,1.5 -0.752,-0.671 -1.086,-1.504 -1,-2.5 z"
       id="path816" />
  </g>
  <g
     id="g817"
     transform="translate(-529.5,-274.5)">
    <path
       style="opacity:1"
       fill="#eff0f1"
       d="m 739.5,427.5 c 1,0 2,0 3,0 0,1 0,2 0,3 -2.104,0.299 -4.104,-0.034 -6,-1 1.102,-0.676 2.102,-1.342 3,-2 z"
       id="path817" />
  </g>
  <g
     id="g818"
     transform="translate(-529.5,-274.5)">
    <path
       style="opacity:1"
       fill="#755d4e"
       d="m 878.5,422.5 c -0.31,3.213 0.023,6.213 1,9 6.813,0.991 13.813,1.325 21,1 0,9.667 0,19.333 0,29 -8.517,0.326 -16.85,-0.007 -25,-1 -10e-4,-3.821 -1.001,-7.321 -3,-10.5 1.605,-3.237 1.272,-6.237 -1,-9 4.315,-5.113 3.982,-9.78 -1,-14 2,-0.333 4,-0.667 6,-1 0.585,-1.302 1.251,-2.469 2,-3.5 z"
       id="path818" />
  </g>
  <g
     id="g819"
     transform="translate(-529.5,-274.5)">
    <path
       style="opacity:1"
       fill="#eeeff0"
       d="m 843.5,427.5 c 2.104,1.599 4.104,3.432 6,5.5 1.333,0.167 2.667,0.333 4,0.5 4.621,0.376 7.288,-1.624 8,-6 8.368,-1.439 11.868,1.895 10.5,10 -1.775,1.894 -3.775,3.561 -6,5 -0.483,0.948 -0.649,1.948 -0.5,3 -1.667,0 -3.333,0 -5,0 -2.204,-1.862 -4.871,-2.862 -8,-3 -3.248,0.199 -6.081,1.199 -8.5,3 -2.975,-0.308 -4.641,-1.975 -5,-5 -5.36,-3.525 -5.86,-7.692 -1.5,-12.5 1.973,-0.495 3.973,-0.662 6,-0.5 z"
       id="path819" />
  </g>
  <g
     id="g820"
     transform="translate(-529.5,-274.5)">
    <path
       style="opacity:1"
       fill="#6d343b"
       d="m 848.5,428.5 c 3.35,-0.165 6.683,0.002 10,0.5 -2.666,1.061 -5.333,1.894 -8,2.5 -0.901,-0.79 -1.568,-1.79 -2,-3 z"
       id="path820" />
  </g>
  <g
     id="g821"
     transform="translate(-529.5,-274.5)">
    <path
       style="opacity:1"
       fill="#705a4e"
       d="m 909.5,432.5 c 3.333,0 6.667,0 10,0 0.86,9.639 1.193,19.306 1,29 -3.667,0 -7.333,0 -11,0 0,-9.667 0,-19.333 0,-29 z"
       id="path821" />
  </g>
  <g
     id="g823"
     transform="translate(-529.5,-274.5)">
    <path
       style="opacity:1"
       fill="#1b1b1a"
       d="m 839.5,431.5 c 5.583,-0.422 7.917,1.912 7,7 -3.879,1.002 -6.546,-0.498 -8,-4.5 0.243,-0.902 0.577,-1.735 1,-2.5 z"
       id="path823" />
  </g>
  <g
     id="g824"
     transform="translate(-529.5,-274.5)">
    <path
       style="opacity:1"
       fill="#141312"
       d="m 862.5,431.5 c 5.828,0.797 6.495,3.297 2,7.5 -1.973,0.495 -3.973,0.662 -6,0.5 -0.16,-1.699 0.006,-3.366 0.5,-5 1.518,-0.663 2.685,-1.663 3.5,-3 z"
       id="path824" />
  </g>
  <g
     id="g825"
     transform="translate(-529.5,-274.5)">
    <path
       style="opacity:1"
       fill="#f1f1f1"
       d="m 747.5,431.5 c 1.846,-0.278 3.18,0.389 4,2 -2.807,0.974 -4.807,2.808 -6,5.5 0.454,1.622 1.454,2.788 3,3.5 3.871,-1.145 5.537,-3.479 5,-7 1.545,-0.952 3.212,-1.285 5,-1 0.16,1.699 -0.006,3.366 -0.5,5 -2.609,1.608 -3.942,3.941 -4,7 -3.525,1.69 -6.525,1.024 -9,-2 -2.405,0.774 -4.905,1.274 -7.5,1.5 -2.188,3.207 -5.188,4.207 -9,3 -2.393,-2.843 -4.726,-5.676 -7,-8.5 0.321,-1.548 1.321,-2.215 3,-2 1.588,1.141 2.921,2.641 4,4.5 1.973,0.495 3.973,0.662 6,0.5 0.727,-3.724 -0.606,-6.391 -4,-8 0.363,-0.683 0.696,-1.35 1,-2 2.734,1.221 5.567,2.221 8.5,3 3.419,-0.247 5.919,-1.913 7.5,-5 z"
       id="path825" />
  </g>
  <g
     id="g826"
     transform="translate(-529.5,-274.5)">
    <path
       style="opacity:1"
       fill="#141413"
       d="m 744.5,422.5 c -0.667,0 -1.333,0 -2,0 -2.778,-0.478 -4.778,0.522 -6,3 1.896,0.966 3.896,1.299 6,1 1.333,0.333 1.333,0.667 0,1 -1,0 -2,0 -3,0 -2.667,0 -5.333,0 -8,0 0.435,2.203 0.435,4.203 0,6 -0.304,0.65 -0.637,1.317 -1,2 3.394,1.609 4.727,4.276 4,8 -2.027,0.162 -4.027,-0.005 -6,-0.5 -1.079,-1.859 -2.412,-3.359 -4,-4.5 1.419,-0.951 3.085,-1.284 5,-1 0.529,-5.322 1.029,-10.656 1.5,-16 0.21,1.558 0.71,2.891 1.5,4 3.471,-1.133 5.471,-3.467 6,-7 1.322,0.17 2.489,-0.163 3.5,-1 0.366,1.952 1.199,3.618 2.5,5 z"
       id="path826" />
  </g>
  <g
     id="g827"
     transform="translate(-529.5,-274.5)">
    <path
       style="opacity:1"
       fill="#865a40"
       d="m 902.5,431.5 c 1.667,0 3.333,0 5,0 0,19.333 0,38.667 0,58 -1.667,0 -3.333,0 -5,0 0,-19.333 0,-38.667 0,-58 z"
       id="path827" />
  </g>
  <g
     id="g828"
     transform="translate(-529.5,-274.5)">
    <path
       style="opacity:1"
       fill="#1d1c19"
       d="m 832.5,402.5 c 0.333,0 0.667,0 1,0 -0.283,0.789 -0.783,1.456 -1.5,2 -1.421,4.006 -0.254,6.672 3.5,8 -0.667,0.667 -1.333,1.333 -2,2 -1.493,0.812 -2.16,2.145 -2,4 0.634,4.801 3.3,6.635 8,5.5 1.165,-1.084 2.498,-1.917 4,-2.5 0.929,-1.189 1.262,-2.522 1,-4 0.333,0 0.667,0 1,0 0.256,3.098 0.922,6.098 2,9 -1.35,-0.983 -2.35,-2.316 -3,-4 -2.204,1.282 -2.538,2.949 -1,5 -2.027,-0.162 -4.027,0.005 -6,0.5 -4.36,4.808 -3.86,8.975 1.5,12.5 0.359,3.025 2.025,4.692 5,5 2.419,-1.801 5.252,-2.801 8.5,-3 3.129,0.138 5.796,1.138 8,3 1.333,0.667 2.667,1.333 4,2 0.823,4.068 1.156,8.068 1,12 0.172,0.992 -0.162,1.658 -1,2 -0.767,-3.915 -1.267,-7.915 -1.5,-12 -3.638,-3.147 -7.805,-5.147 -12.5,-6 -3.96,2.553 -5.126,5.886 -3.5,10 0.497,2.646 0.664,5.313 0.5,8 6.145,0.99 12.478,1.323 19,1 0.61,0.891 0.943,1.891 1,3 0,0.667 -0.333,1 -1,1 0.086,-0.996 -0.248,-1.829 -1,-2.5 -3.167,-0.167 -6.333,-0.333 -9.5,-0.5 -3.576,0.015 -6.742,0.682 -9.5,2 0,0.667 -0.333,1 -1,1 0,-2.333 0,-4.667 0,-7 -1.333,-0.667 -2.667,-1.333 -4,-2 1.667,0 3.333,0 5,0 -1.517,-3.087 -2.184,-6.421 -2,-10 -2.763,-0.244 -4.929,-1.577 -6.5,-4 0.747,3.68 0.58,7.347 -0.5,11 -0.667,1 -1.333,2 -2,3 -0.027,-2.73 0.64,-5.23 2,-7.5 -0.593,-3.151 -1.093,-6.318 -1.5,-9.5 -4.822,-4.73 -4.655,-9.23 0.5,-13.5 -2.833,-1.5 -5,-3.667 -6.5,-6.5 0.043,-3.063 0.377,-6.063 1,-9 -0.739,-1.721 -1.573,-3.387 -2.5,-5 -1.859,1.692 -3.859,3.192 -6,4.5 -1.887,0.78 -3.554,0.613 -5,-0.5 2.155,0.128 4.155,-0.372 6,-1.5 2.638,-2.654 5.638,-4.82 9,-6.5 z"
       id="path828" />
  </g>
  <g
     id="g829"
     transform="translate(-529.5,-274.5)">
    <path
       style="opacity:1"
       fill="#71594d"
       d="m 864.5,461.5 c -5.667,0 -11.333,0 -17,0 0.164,-2.687 -0.003,-5.354 -0.5,-8 -1.626,-4.114 -0.46,-7.447 3.5,-10 4.695,0.853 8.862,2.853 12.5,6 0.233,4.085 0.733,8.085 1.5,12 z"
       id="path829" />
  </g>
  <g
     id="g830"
     transform="translate(-529.5,-274.5)">
    <path
       style="opacity:1"
       fill="#4c3e33"
       d="m 879.5,431.5 c 7.333,0 14.667,0 22,0 0,10.333 0,20.667 0,31 -9.182,0.327 -18.182,-0.007 -27,-1 0,-0.667 0.333,-1 1,-1 8.15,0.993 16.483,1.326 25,1 0,-9.667 0,-19.333 0,-29 -7.187,0.325 -14.187,-0.009 -21,-1 z"
       id="path830" />
  </g>
  <g
     id="g831"
     transform="translate(-529.5,-274.5)">
    <path
       style="opacity:1"
       fill="#ebecee"
       d="m 841.5,457.5 c -1.333,0 -2.667,0 -4,0 0,-1 0,-2 0,-3 1.08,-3.653 1.247,-7.32 0.5,-11 1.571,2.423 3.737,3.756 6.5,4 -0.184,3.579 0.483,6.913 2,10 -1.667,0 -3.333,0 -5,0 z"
       id="path831" />
  </g>
  <g
     id="g833"
     transform="translate(-529.5,-274.5)">
    <path
       style="opacity:1"
       fill="#eaeaea"
       d="m 731.5,452.5 c -1.333,2 -1.333,4 0,6 0,1.333 0,2.667 0,4 -3,-1.333 -6,-1.333 -9,0 0.806,-2.785 1.472,-5.619 2,-8.5 -0.288,-2.187 -0.622,-4.354 -1,-6.5 2.657,1.651 5.323,3.318 8,5 z"
       id="path833" />
  </g>
  <g
     id="g834"
     transform="translate(-529.5,-274.5)">
    <path
       style="opacity:1"
       fill="#6a574b"
       d="m 754.5,449.5 c 0.057,1.109 0.39,2.109 1,3 -1.283,2.865 -1.283,5.865 0,9 -7.303,0.997 -14.637,1.331 -22,1 0.271,-1.88 -0.396,-3.213 -2,-4 -1.333,-2 -1.333,-4 0,-6 -0.065,0.438 0.101,0.772 0.5,1 1.802,-2.178 3.969,-4.011 6.5,-5.5 5.32,-0.751 10.153,0.415 14.5,3.5 0.278,-0.916 0.778,-1.582 1.5,-2 z"
       id="path834" />
  </g>
  <g
     id="g835"
     transform="translate(-529.5,-274.5)">
    <path
       style="opacity:1"
       fill="#eeeff0"
       d="m 762.5,452.5 c 1.13,1.815 1.796,3.815 2,6 -2.657,-0.338 -4.99,0.329 -7,2 -0.76,-2.687 -1.427,-5.353 -2,-8 -0.61,-0.891 -0.943,-1.891 -1,-3 0.976,-1.315 1.976,-2.648 3,-4 -1.394,-1.187 -1.227,-1.854 0.5,-2 1.7,2.958 3.2,5.958 4.5,9 z"
       id="path835" />
  </g>
  <g
     id="g840"
     transform="translate(-529.5,-274.5)">
    <path
       style="opacity:1"
       fill="#322f2b"
       d="m 627.5,398.5 c 0,1 0,2 0,3 1.052,-0.149 2.052,0.017 3,0.5 -2.153,0.099 -3.819,0.933 -5,2.5 -1.663,1.938 -2.329,4.272 -2,7 0.172,0.992 -0.162,1.658 -1,2 -0.017,-1.528 -0.684,-2.028 -2,-1.5 -3.463,7.394 -0.963,11.228 7.5,11.5 4.403,-1.392 8.903,-2.392 13.5,-3 -0.333,0.667 -0.667,1.333 -1,2 -1.923,0.295 -3.59,1.128 -5,2.5 0.948,0.483 1.948,0.649 3,0.5 0,1.333 -0.667,2 -2,2 -1.667,0 -3.333,0 -5,0 -0.667,2.319 -0.834,4.653 -0.5,7 1.011,0.837 2.178,1.17 3.5,1 0,-1 0,-2 0,-3 2.748,0.098 3.414,-0.902 2,-3 1.359,0.507 2.359,1.507 3,3 1.211,-0.774 1.211,-1.607 0,-2.5 1,-0.667 2,-0.667 3,0 -1.491,2.022 -1.158,3.688 1,5 2.692,0.43 5.359,0.263 8,-0.5 8.63,0.128 11.464,4.461 8.5,13 -0.995,0.566 -1.828,1.233 -2.5,2 -4.582,4.016 -6.582,9.016 -6,15 2.634,-1.016 5.3,-1.016 8,0 -1.607,-4.441 -2.274,-9.108 -2,-14 0.52,3.408 1.52,6.741 3,10 20.322,1 40.656,1.333 61,1 0,0.333 0,0.667 0,1 0,0.333 0,0.667 0,1 -20.003,-0.167 -40.003,0 -60,0.5 -0.571,2.611 -1.404,5.111 -2.5,7.5 -0.667,3 -0.667,6 0,9 3.005,1.502 6.171,2.502 9.5,3 0.268,1.599 -0.066,2.932 -1,4 -0.763,-0.768 -1.763,-1.268 -3,-1.5 1.066,-1.159 0.733,-1.992 -1,-2.5 -2.902,-1.078 -5.902,-1.744 -9,-2 -1.419,0.951 -3.085,1.284 -5,1 -0.17,1.322 0.163,2.489 1,3.5 1.936,0.813 3.936,1.313 6,1.5 3.296,1.665 6.629,2.332 10,2 -5.048,1.003 -10.048,0.503 -15,-1.5 -3.618,-1.064 -4.618,-3.231 -3,-6.5 3.23,-5.403 3.563,-10.903 1,-16.5 -6.028,-0.83 -12.028,-0.664 -18,0.5 -2.451,5.044 -3.451,10.377 -3,16 3.507,6.985 1.34,10.651 -6.5,11 -2.59,0.124 -4.923,-0.542 -7,-2 -0.048,-2.913 0.785,-5.579 2.5,-8 1.29,-0.558 2.123,-1.558 2.5,-3 0.498,-5.019 0.332,-10.019 -0.5,-15 0.543,-0.06 0.876,-0.393 1,-1 -30.326,-1 -60.659,-1.333 -91,-1 0,-0.333 0,-0.667 0,-1 17.667,0 35.333,0 53,0 12.671,0.167 25.338,0 38,-0.5 0.5,-0.5 1,-1 1.5,-1.5 0.667,-4 0.667,-8 0,-12 -2.303,-4.538 -1.803,-8.705 1.5,-12.5 -8.494,-1.572 -14.16,-6.405 -17,-14.5 2.593,-3.523 4.926,-7.19 7,-11 -0.863,4.058 -2.53,7.724 -5,11 0.333,0.667 0.667,1.333 1,2 2.351,-1.729 5.018,-2.396 8,-2 -0.164,-2.687 0.003,-5.354 0.5,-8 0.667,-2 2,-3.333 4,-4 0.667,-2 1.333,-4 2,-6 2.927,-3.552 2.26,-3.885 -2,-1 -0.5,-0.333 -1,-0.667 -1.5,-1 2.108,-1.444 4.441,-2.11 7,-2 z"
       id="path840" />
  </g>
  <g
     id="g841"
     transform="translate(-529.5,-274.5)">
    <path
       style="opacity:1"
       fill="#efeff0"
       d="m 638.5,450.5 c -1.21,0.432 -2.21,1.099 -3,2 -3.72,1.93 -6.387,0.93 -8,-3 -3.527,-1.212 -5.194,-3.712 -5,-7.5 -0.146,-2.034 0.52,-3.701 2,-5 2.333,-0.667 4.667,-0.667 7,0 2.944,1.938 6.111,3.438 9.5,4.5 3.063,-1.381 5.896,-3.214 8.5,-5.5 7.833,-1.5 11,1.667 9.5,9.5 -2.54,2.205 -4.707,4.705 -6.5,7.5 -4.43,-1.506 -9.097,-2.339 -14,-2.5 z"
       id="path841" />
  </g>
  <g
     id="g842"
     transform="translate(-529.5,-274.5)">
    <path
       style="opacity:1"
       fill="#1b1b19"
       d="m 650.5,439.5 c 1.333,0 2.667,0 4,0 1.046,4.256 -0.454,6.922 -4.5,8 -1.732,-0.234 -2.566,-1.234 -2.5,-3 0.592,-1.923 1.592,-3.589 3,-5 z"
       id="path842" />
  </g>
  <g
     id="g843"
     transform="translate(-529.5,-274.5)">
    <path
       style="opacity:1"
       fill="#141413"
       d="m 628.5,439.5 c 5.197,0.195 7.53,2.862 7,8 -6.055,0.291 -8.389,-2.376 -7,-8 z"
       id="path843" />
  </g>
  <g
     id="g844"
     transform="translate(-529.5,-274.5)">
    <path
       style="opacity:1"
       fill="#dad9d9"
       d="m 640.5,436.5 c 5.123,0.399 5.29,1.399 0.5,3 -3.007,-0.499 -3.174,-1.499 -0.5,-3 z"
       id="path844" />
  </g>
  <g
     id="g845"
     transform="translate(-529.5,-274.5)">
    <path
       style="opacity:1"
       fill="#d2d3d4"
       d="m 611.5,422.5 c 5.401,-0.534 10.401,0.633 15,3.5 3.962,2.651 3.962,5.151 0,7.5 -5.893,-0.621 -10.893,-2.955 -15,-7 0.333,-0.333 0.667,-0.667 1,-1 3.215,1.774 6.548,3.274 10,4.5 1.759,0.798 3.426,0.631 5,-0.5 -5.525,-2.442 -10.858,-4.775 -16,-7 z"
       id="path845" />
  </g>
  <g
     id="g846"
     transform="translate(-529.5,-274.5)">
    <path
       style="opacity:1"
       fill="#eeeeef"
       d="m 623.5,450.5 c 2.556,1.043 4.723,2.71 6.5,5 -0.708,2.989 -0.541,5.989 0.5,9 -2.928,0.984 -5.928,1.317 -9,1 0.923,-3.296 1.923,-6.629 3,-10 -0.228,-1.707 -0.562,-3.374 -1,-5 z"
       id="path846" />
  </g>
  <g
     id="g855"
     transform="translate(-529.5,-274.5)">
    <path
       style="opacity:1"
       fill="#e9e9e9"
       d="m 865.5,459.5 c 0.156,-3.932 -0.177,-7.932 -1,-12 1.221,-0.528 2.387,-1.195 3.5,-2 0.284,-2.386 1.284,-3.052 3,-2 0.181,5.206 1.014,10.206 2.5,15 -1.43,0.079 -2.764,-0.254 -4,-1 -1.122,1.13 -2.456,1.797 -4,2 z"
       id="path855" />
  </g>
  <g
     id="g856"
     transform="translate(-529.5,-274.5)">
    <path
       style="opacity:1"
       fill="#755d4e"
       d="m 638.5,450.5 c 3.459,1.376 6.959,3.043 10.5,5 0.309,1.266 0.809,2.433 1.5,3.5 -0.837,1.011 -1.17,2.178 -1,3.5 -6.333,0 -12.667,0 -19,0 0.57,-4.412 2.903,-7.578 7,-9.5 -0.594,-0.464 -1.261,-0.631 -2,-0.5 0.79,-0.901 1.79,-1.568 3,-2 z"
       id="path856" />
  </g>
  <g
     id="g857"
     transform="translate(-529.5,-274.5)">
    <path
       style="opacity:1"
       fill="#e3e4e4"
       d="m 657.5,449.5 c 0,0.333 0,0.667 0,1 -0.274,4.892 0.393,9.559 2,14 -2.7,-1.016 -5.366,-1.016 -8,0 -0.582,-5.984 1.418,-10.984 6,-15 z"
       id="path857" />
  </g>
  <g
     id="g858"
     transform="translate(-529.5,-274.5)">
    <path
       style="opacity:1"
       fill="#332e2a"
       d="m 755.5,452.5 c 0.573,2.647 1.24,5.313 2,8 2.01,-1.671 4.343,-2.338 7,-2 0.768,-0.763 1.268,-1.763 1.5,-3 0.495,1.973 0.662,3.973 0.5,6 23.343,0.333 46.676,0 70,-1 -0.627,-0.917 -0.961,-1.917 -1,-3 0.667,-1 1.333,-2 2,-3 0,1 0,2 0,3 1.333,0 2.667,0 4,0 1.333,0.667 2.667,1.333 4,2 -2.333,0 -4.667,0 -7,0 2.327,4.323 3.661,8.99 4,14 2.027,0.162 4.027,-0.005 6,-0.5 -1.414,-1.993 -2.414,-4.16 -3,-6.5 0.667,0 1,-0.333 1,-1 1.851,3.539 3.518,7.206 5,11 0.219,1.175 -0.114,2.175 -1,3 -4.561,1.973 -9.228,3.64 -14,5 -4.196,-0.482 -5.863,-2.482 -5,-6 0,-0.333 0,-0.667 0,-1 2.638,-0.992 5.305,-1.992 8,-3 1.603,-3.955 0.936,-7.455 -2,-10.5 -23.674,-0.833 -47.34,-0.666 -71,0.5 -0.746,1.236 -1.079,2.57 -1,4 -0.904,-0.709 -1.237,-1.709 -1,-3 0.538,-1.617 0.871,-3.284 1,-5 -2.306,0.493 -4.639,0.826 -7,1 1.333,5 1.333,10 0,15 -0.667,0 -1,0.333 -1,1 -0.17,1.322 0.163,2.489 1,3.5 2.857,1.627 5.857,2.793 9,3.5 1.333,0.333 2.667,0.667 4,1 -4.809,0.473 -9.476,-0.693 -14,-3.5 -0.88,-1.356 -1.214,-2.856 -1,-4.5 0.873,-4.268 1.206,-8.602 1,-13 -8.34,-0.166 -16.673,0 -25,0.5 -0.944,2.719 -1.277,5.552 -1,8.5 1.237,1.465 2.237,3.132 3,5 1.924,1.59 2.257,3.424 1,5.5 -4.435,2.441 -9.102,4.275 -14,5.5 -7.504,-2.465 -7.837,-5.465 -1,-9 1.617,-0.538 3.284,-0.871 5,-1 -0.108,-5.766 -1.441,-11.1 -4,-16 0,-0.333 0,-0.667 0,-1 0.333,0 0.667,0 1,0 3,-1.333 6,-1.333 9,0 0,-1.333 0,-2.667 0,-4 1.604,0.787 2.271,2.12 2,4 7.363,0.331 14.697,-0.003 22,-1 -1.283,-3.135 -1.283,-6.135 0,-9 z"
       id="path858" />
  </g>
  <g
     id="g859"
     transform="translate(-529.5,-274.5)">
    <path
       style="opacity:1"
       fill="#f1f1f2"
       d="m 764.5,465.5 c -1.283,2.865 -1.283,5.865 0,9 -1.673,1.586 -3.673,2.253 -6,2 1.333,-5 1.333,-10 0,-15 2.361,-0.174 4.694,-0.507 7,-1 -0.129,1.716 -0.462,3.383 -1,5 z"
       id="path859" />
  </g>
  <g
     id="g860"
     transform="translate(-529.5,-274.5)">
    <path
       style="opacity:1"
       fill="#f2f2f3"
       d="m 845.5,459.5 c 0,2.333 0,4.667 0,7 0.586,2.34 1.586,4.507 3,6.5 -1.973,0.495 -3.973,0.662 -6,0.5 -0.339,-5.01 -1.673,-9.677 -4,-14 2.333,0 4.667,0 7,0 z"
       id="path860" />
  </g>
  <g
     id="g861"
     transform="translate(-529.5,-274.5)">
    <path
       style="opacity:1"
       fill="#07070a"
       d="m 529.5,463.5 c 0,-0.333 0,-0.667 0,-1 30.341,-0.333 60.674,0 91,1 -0.124,0.607 -0.457,0.94 -1,1 -29.829,-0.998 -59.829,-1.331 -90,-1 z"
       id="path861" />
  </g>
  <g
     id="g862"
     transform="translate(-529.5,-274.5)">
    <path
       style="opacity:1"
       fill="#715e49"
       d="m 874.5,464.5 c 8.818,-0.993 17.818,-1.327 27,-1 0,8.667 0,17.333 0,26 -0.951,-1.419 -1.284,-3.085 -1,-5 0,-6.667 0,-13.333 0,-20 -8.667,0 -17.333,0 -26,0 z"
       id="path862" />
  </g>
  <g
     id="g863"
     transform="translate(-529.5,-274.5)">
    <path
       style="opacity:1"
       fill="#6d5c48"
       d="m 981.5,463.5 c 0,0.333 0,0.667 0,1 -24,0 -48,0 -72,0 0,7 0,14 0,21 0.284,1.915 -0.049,3.581 -1,5 0,-9 0,-18 0,-27 24.333,0 48.667,0 73,0 z"
       id="path863" />
  </g>
  <g
     id="g864"
     transform="translate(-529.5,-274.5)">
    <path
       style="opacity:1"
       fill="#b99c75"
       d="m 866.5,466.5 c 0.313,3.542 -0.021,6.875 -1,10 -4.667,0 -9.333,0 -14,0 -1.482,-3.794 -3.149,-7.461 -5,-11 2.758,-1.318 5.924,-1.985 9.5,-2 3.167,0.167 6.333,0.333 9.5,0.5 0.752,0.671 1.086,1.504 1,2.5 z"
       id="path864" />
  </g>
  <g
     id="g865"
     transform="translate(-529.5,-274.5)">
    <path
       style="opacity:1"
       fill="#eff0f0"
       d="m 873.5,461.5 c 0,0.333 0,0.667 0,1 -1.162,4.187 -1.162,8.52 0,13 -1.667,0 -3.333,0 -5,0 0.313,-3.542 -0.021,-6.875 -1,-10 -0.057,-1.109 -0.39,-2.109 -1,-3 1.219,-1.801 3.052,-2.801 5.5,-3 1.03,0.336 1.53,1.003 1.5,2 z"
       id="path865" />
  </g>
  <g
     id="g957"
     transform="translate(-529.5,-274.5)">
    <path
       style="opacity:1"
       fill="#bc9d77"
       d="m 529.5,463.5 c 30.171,-0.331 60.171,0.002 90,1 0.832,4.981 0.998,9.981 0.5,15 -0.377,1.442 -1.21,2.442 -2.5,3 -5.229,0.724 -10.229,2.224 -15,4.5 -1.36,1.938 -1.027,3.604 1,5 11.447,4.046 23.28,5.88 35.5,5.5 11.397,0.187 22.564,-1.313 33.5,-4.5 1.581,-0.707 3.081,-1.54 4.5,-2.5 0.667,-1 0.667,-2 0,-3 -2.421,-2.197 -5.255,-3.53 -8.5,-4 -3.329,-0.498 -6.495,-1.498 -9.5,-3 -0.667,-3 -0.667,-6 0,-9 1.096,-2.389 1.929,-4.889 2.5,-7.5 19.997,-0.5 39.997,-0.667 60,-0.5 2.559,4.9 3.892,10.234 4,16 -1.716,0.129 -3.383,0.462 -5,1 -4.082,-0.156 -8.082,0.344 -12,1.5 -3.425,1.598 -3.758,3.598 -1,6 4.434,2.145 9.1,3.478 14,4 14.333,0.667 28.667,0.667 43,0 4.566,-1.642 9.232,-2.975 14,-4 5.478,-3.584 4.812,-5.75 -2,-6.5 -2.938,-2.477 -6.271,-4.477 -10,-6 -0.974,-2.243 -1.308,-4.576 -1,-7 -0.079,-1.43 0.254,-2.764 1,-4 23.66,-1.166 47.326,-1.333 71,-0.5 2.936,3.045 3.603,6.545 2,10.5 -2.695,1.008 -5.362,2.008 -8,3 -3.828,-1.469 -7.328,-0.802 -10.5,2 -0.249,3.685 1.584,5.852 5.5,6.5 16.505,3.349 33.171,4.349 50,3 19.965,-4.708 19.965,-9.208 0,-13.5 -0.722,-0.418 -1.222,-1.084 -1.5,-2 -0.498,-2.982 -0.665,-5.982 -0.5,-9 8.667,0 17.333,0 26,0 0,6.667 0,13.333 0,20 -4.798,0.594 -9.465,1.76 -14,3.5 -1.187,1.019 -2.187,2.186 -3,3.5 3.567,2.579 7.567,4.079 12,4.5 10.807,0.927 21.474,0.26 32,-2 2.826,-2.522 2.493,-4.522 -1,-6 -5.488,-2.016 -11.155,-2.849 -17,-2.5 0,-7 0,-14 0,-21 24,0 48,0 72,0 0,12.333 0,24.667 0,37 -150.667,0 -301.333,0 -452,0 0,-12.667 0,-25.333 0,-38 z"
       id="path957" />
  </g>
  <g
     id="g958"
     transform="translate(-529.5,-274.5)">
    <path
       style="opacity:1"
       fill="#e9e9e8"
       d="m 731.5,473.5 c 0.333,2 0.667,4 1,6 -1.667,0 -3.333,0 -5,0 -0.255,-5.357 -1.588,-10.357 -4,-15 2.333,0 4.667,0 7,0 -0.31,3.213 0.023,6.213 1,9 z"
       id="path958" />
  </g>
  <g
     id="g959"
     transform="translate(-529.5,-274.5)">
    <path
       style="opacity:1"
       fill="#ececed"
       d="m 654.5,481.5 c -1.603,0.188 -2.937,-0.312 -4,-1.5 1.748,-4.294 2.415,-8.794 2,-13.5 1.644,0.214 3.144,-0.12 4.5,-1 0.925,0.547 1.758,1.213 2.5,2 -1.977,4.668 -3.644,9.334 -5,14 z"
       id="path959" />
  </g>
  <g
     id="g960"
     transform="translate(-529.5,-274.5)">
    <path
       style="opacity:1"
       fill="#b99b77"
       d="m 756.5,477.5 c -0.651,0.591 -1.318,1.257 -2,2 -6.608,-0.962 -13.274,-1.295 -20,-1 -0.763,-1.868 -1.763,-3.535 -3,-5 -0.277,-2.948 0.056,-5.781 1,-8.5 8.327,-0.5 16.66,-0.666 25,-0.5 0.206,4.398 -0.127,8.732 -1,13 z"
       id="path960" />
  </g>
  <g
     id="g969"
     transform="translate(-529.5,-274.5)">
    <path
       style="opacity:1"
       fill="#e8e8e9"
       d="m 621.5,467.5 c 2.333,0 4.667,0 7,0 -1.651,4.828 -2.317,9.828 -2,15 -2.155,0.128 -4.155,-0.372 -6,-1.5 2.189,-4.352 2.523,-8.852 1,-13.5 z"
       id="path969" />
  </g>
  <g
     id="g972"
     transform="translate(-529.5,-274.5)">
    <path
       style="opacity:1"
       fill="#bc9d76"
       d="m 648.5,481.5 c -6.667,0 -13.333,0 -20,0 -0.451,-5.623 0.549,-10.956 3,-16 5.972,-1.164 11.972,-1.33 18,-0.5 2.563,5.597 2.23,11.097 -1,16.5 z"
       id="path972" />
  </g>
  <g
     id="g974"
     transform="translate(-529.5,-274.5)">
    <path
       style="opacity:1"
       fill="#433e38"
       d="m 873.5,462.5 c -0.172,0.992 0.162,1.658 1,2 -0.165,3.018 0.002,6.018 0.5,9 0.278,0.916 0.778,1.582 1.5,2 0.61,0.891 0.943,1.891 1,3 -3.735,-2.53 -7.568,-2.53 -11.5,0 -0.483,0.948 -0.649,1.948 -0.5,3 -1.22,-1.55 -1.22,-3.216 0,-5 0.979,-3.125 1.313,-6.458 1,-10 0.667,0 1,-0.333 1,-1 0.979,3.125 1.313,6.458 1,10 1.667,0 3.333,0 5,0 -1.162,-4.48 -1.162,-8.813 0,-13 z"
       id="path974" />
  </g>
  <g
     id="g975"
     transform="translate(-529.5,-274.5)">
    <path
       style="opacity:1"
       fill="#514d4a"
       d="m 764.5,465.5 c -0.237,1.291 0.096,2.291 1,3 -0.308,2.424 0.026,4.757 1,7 3.729,1.523 7.062,3.523 10,6 -1.085,2.087 -2.751,3.42 -5,4 -1.333,-0.333 -2.667,-0.667 -4,-1 0.203,-2.138 1.203,-3.805 3,-5 -0.333,-0.333 -0.667,-0.667 -1,-1 -4.054,-0.688 -8.054,-1.021 -12,-1 0,-0.667 0.333,-1 1,-1 2.327,0.253 4.327,-0.414 6,-2 -1.283,-3.135 -1.283,-6.135 0,-9 z"
       id="path975" />
  </g>
  <g
     id="g976"
     transform="translate(-529.5,-274.5)">
    <path
       style="opacity:1"
       fill="#f1f1f3"
       d="m 843.5,480.5 c -3.131,0.592 -5.464,-0.408 -7,-3 4.433,-1.801 9.1,-2.467 14,-2 0,1 0,2 0,3 -2.421,0.378 -4.754,1.045 -7,2 z"
       id="path976" />
  </g>
  <g
     id="g979"
     transform="translate(-529.5,-274.5)">
    <path
       style="opacity:1"
       fill="#a78767"
       d="m 756.5,477.5 c -0.214,1.644 0.12,3.144 1,4.5 4.524,2.807 9.191,3.973 14,3.5 2.249,-0.58 3.915,-1.913 5,-4 6.812,0.75 7.478,2.916 2,6.5 -4.768,1.025 -9.434,2.358 -14,4 -14.333,0.667 -28.667,0.667 -43,0 -4.9,-0.522 -9.566,-1.855 -14,-4 -2.758,-2.402 -2.425,-4.402 1,-6 3.918,-1.156 7.918,-1.656 12,-1.5 -6.837,3.535 -6.504,6.535 1,9 4.898,-1.225 9.565,-3.059 14,-5.5 1.257,-2.076 0.924,-3.91 -1,-5.5 6.726,-0.295 13.392,0.038 20,1 0.682,-0.743 1.349,-1.409 2,-2 z"
       id="path979" />
  </g>
  <g
     id="g980"
     transform="translate(-529.5,-274.5)">
    <path
       style="opacity:1"
       fill="#ecebea"
       d="m 757.5,477.5 c 3.946,-0.021 7.946,0.312 12,1 0.333,0.333 0.667,0.667 1,1 -1.797,1.195 -2.797,2.862 -3,5 -3.143,-0.707 -6.143,-1.873 -9,-3.5 -0.837,-1.011 -1.17,-2.178 -1,-3.5 z"
       id="path980" />
  </g>
  <g
     id="g982"
     transform="translate(-529.5,-274.5)">
    <path
       style="opacity:1"
       fill="#a48666"
       d="m 876.5,475.5 c 19.965,4.292 19.965,8.792 0,13.5 -16.829,1.349 -33.495,0.349 -50,-3 -3.916,-0.648 -5.749,-2.815 -5.5,-6.5 3.172,-2.802 6.672,-3.469 10.5,-2 0,0.333 0,0.667 0,1 -0.863,3.518 0.804,5.518 5,6 4.772,-1.36 9.439,-3.027 14,-5 0.886,-0.825 1.219,-1.825 1,-3 4.667,0 9.333,0 14,0 -1.22,1.784 -1.22,3.45 0,5 0.011,1.517 0.677,2.684 2,3.5 3.527,0.808 6.86,0.641 10,-0.5 2.667,-2 2.667,-4 0,-6 -0.057,-1.109 -0.39,-2.109 -1,-3 z"
       id="path982" />
  </g>
  <g
     id="g983"
     transform="translate(-529.5,-274.5)">
    <path
       style="opacity:1"
       fill="#6f6867"
       d="m 836.5,477.5 c 1.536,2.592 3.869,3.592 7,3 -2.281,0.839 -4.615,1.839 -7,3 -2.712,-0.712 -4.379,-2.379 -5,-5 1.617,-0.538 3.284,-0.871 5,-1 z"
       id="path983" />
  </g>
  <g
     id="g984"
     transform="translate(-529.5,-274.5)">
    <path
       style="opacity:1"
       fill="#edeeee"
       d="m 877.5,478.5 c -0.077,1.25 -0.744,2.083 -2,2.5 -1.973,0.495 -3.973,0.662 -6,0.5 -1.333,0 -2.667,0 -4,0 -0.149,-1.052 0.017,-2.052 0.5,-3 3.932,-2.53 7.765,-2.53 11.5,0 z"
       id="path984" />
  </g>
  <g
     id="g986"
     transform="translate(-529.5,-274.5)">
    <path
       style="opacity:1"
       fill="#e8e7e9"
       d="m 654.5,481.5 c 3.098,0.256 6.098,0.922 9,2 -1.84,2.169 -4.174,3.502 -7,4 -2.064,-0.187 -4.064,-0.687 -6,-1.5 -0.837,-1.011 -1.17,-2.178 -1,-3.5 1.915,0.284 3.581,-0.049 5,-1 z"
       id="path986" />
  </g>
  <g
     id="g987"
     transform="translate(-529.5,-274.5)">
    <path
       style="opacity:1"
       fill="#6b6969"
       d="m 877.5,478.5 c 2.667,2 2.667,4 0,6 -2.495,-0.469 -5.161,-0.469 -8,0 0,-1 0,-2 0,-3 2.027,0.162 4.027,-0.005 6,-0.5 1.256,-0.417 1.923,-1.25 2,-2.5 z"
       id="path987" />
  </g>
  <g
     id="g989"
     transform="translate(-529.5,-274.5)">
    <path
       style="opacity:1"
       fill="#efeef0"
       d="m 723.5,480.5 c 3.667,0 7.333,0 11,0 0,1 0,2 0,3 -3.098,1.682 -6.431,2.182 -10,1.5 -3.342,-1.124 -3.675,-2.624 -1,-4.5 z"
       id="path989" />
  </g>
  <g
     id="g990"
     transform="translate(-529.5,-274.5)">
    <path
       style="opacity:1"
       fill="#322e30"
       d="m 865.5,481.5 c 1.333,0 2.667,0 4,0 0,1 0,2 0,3 2.839,-0.469 5.505,-0.469 8,0 -3.14,1.141 -6.473,1.308 -10,0.5 -1.323,-0.816 -1.989,-1.983 -2,-3.5 z"
       id="path990" />
  </g>
  <g
     id="g991"
     transform="translate(-529.5,-274.5)">
    <path
       style="opacity:1"
       fill="#a88765"
       d="m 628.5,481.5 c 6.667,0 13.333,0 20,0 -1.618,3.269 -0.618,5.436 3,6.5 4.952,2.003 9.952,2.503 15,1.5 0.838,-0.342 1.172,-1.008 1,-2 0.934,-1.068 1.268,-2.401 1,-4 3.245,0.47 6.079,1.803 8.5,4 0.667,1 0.667,2 0,3 -1.419,0.96 -2.919,1.793 -4.5,2.5 -10.936,3.187 -22.103,4.687 -33.5,4.5 -12.22,0.38 -24.053,-1.454 -35.5,-5.5 -2.027,-1.396 -2.36,-3.062 -1,-5 4.771,-2.276 9.771,-3.776 15,-4.5 -1.715,2.421 -2.548,5.087 -2.5,8 2.077,1.458 4.41,2.124 7,2 7.84,-0.349 10.007,-4.015 6.5,-11 z"
       id="path991" />
  </g>
  <g
     id="g992"
     transform="translate(-529.5,-274.5)">
    <path
       style="opacity:1"
       fill="#f0f0f0"
       d="m 618.5,483.5 c 3.513,-0.193 6.846,0.474 10,2 -1.591,2.484 -3.925,3.484 -7,3 -1.667,-0.333 -3.333,-0.667 -5,-1 1.13,-1.122 1.797,-2.456 2,-4 z"
       id="path992" />
  </g>
  <g
     id="g993"
     transform="translate(-529.5,-274.5)">
    <path
       style="opacity:1"
       fill="#6f6c6d"
       d="m 663.5,483.5 c 1.733,0.508 2.066,1.341 1,2.5 1.237,0.232 2.237,0.732 3,1.5 0.172,0.992 -0.162,1.658 -1,2 -3.371,0.332 -6.704,-0.335 -10,-2 2.826,-0.498 5.16,-1.831 7,-4 z"
       id="path993" />
  </g>
  <g
     id="g994"
     transform="translate(-529.5,-274.5)">
    <path
       style="opacity:1"
       fill="#a98966"
       d="m 900.5,484.5 c -0.284,1.915 0.049,3.581 1,5 2.107,0.968 4.441,1.302 7,1 0.951,-1.419 1.284,-3.085 1,-5 5.845,-0.349 11.512,0.484 17,2.5 3.493,1.478 3.826,3.478 1,6 -10.526,2.26 -21.193,2.927 -32,2 -4.433,-0.421 -8.433,-1.921 -12,-4.5 0.813,-1.314 1.813,-2.481 3,-3.5 4.535,-1.74 9.202,-2.906 14,-3.5 z"
       id="path994" />
  </g>
</svg>
