<?xml version="1.0" encoding="UTF-8" standalone="no"?>
<svg
   version="1.1"
   width="452"
   height="227"
   style="clip-rule:evenodd;fill-rule:evenodd;image-rendering:optimizeQuality;shape-rendering:geometricPrecision;text-rendering:geometricPrecision"
   id="svg2290"
   xmlns="http://www.w3.org/2000/svg"
   xmlns:svg="http://www.w3.org/2000/svg">
  <defs
     id="defs2290" />
  <g
     id="g591"
     transform="translate(-41.5,-274.5)">
    <path
       style="opacity:1"
       fill="#f9f4d1"
       d="m 493.5,450.5 c -15.333,0 -30.667,0 -46,0 0.323,-6.19 -0.01,-12.19 -1,-18 -1.483,-16.975 -9.15,-30.309 -23,-40 8.881,-11.46 9.881,-23.46 3,-36 -11.887,-12.681 -26.221,-16.514 -43,-11.5 -7.026,4.37 -11.86,10.536 -14.5,18.5 -7.477,17.212 -2.31,28.712 15.5,34.5 -3.839,0.236 -7.506,1.069 -11,2.5 -0.667,0 -1,0.333 -1,1 -1.621,0.287 -2.621,1.287 -3,3 -2.866,0.708 -5.7,1.375 -8.5,2 -1.09,-5.193 -2.257,-10.359 -3.5,-15.5 -0.104,-2.145 0.563,-3.979 2,-5.5 -2.431,-0.86 -3.764,-2.527 -4,-5 -9.509,-0.244 -11.509,3.423 -6,11 -0.166,4.014 10e-4,8.014 0.5,12 0.232,1.237 0.732,2.237 1.5,3 0.023,4.894 1.856,5.894 5.5,3 0.333,1.547 -0.167,2.88 -1.5,4 1.165,1.084 2.498,1.917 4,2.5 -1.566,0.608 -2.9,1.442 -4,2.5 -15.802,4.805 -24.135,15.472 -25,32 -1.667,0 -3.333,0 -5,0 -1.65,-20.634 -10.65,-37.301 -27,-50 4.297,-6.12 9.963,-10.62 17,-13.5 1.082,-1.33 1.749,-2.83 2,-4.5 2.033,-1.398 3.033,-3.398 3,-6 0.033,-2.602 -0.967,-4.602 -3,-6 -0.209,-1.422 -0.709,-2.755 -1.5,-4 -2.755,-2.927 -5.589,-5.594 -8.5,-8 -2.254,-4.036 -4.087,-8.369 -5.5,-13 -3.499,-2.922 -4.499,-6.589 -3,-11 -4.257,-7.766 -10.757,-12.099 -19.5,-13 -23.445,1.123 -36.445,13.123 -39,36 -1.591,0.719 -3.091,1.719 -4.5,3 -0.119,3.495 -1.285,6.495 -3.5,9 -1.174,1.014 -1.84,2.347 -2,4 -4.805,6.512 -3.805,11.846 3,16 4.271,2.473 8.604,4.973 13,7.5 -21.304,11.421 -32.971,29.254 -35,53.5 -4.667,0 -9.333,0 -14,0 -0.971,-11.47 -6.304,-20.303 -16,-26.5 -5.917,-2.631 -11.584,-5.631 -17,-9 2.296,-0.091 4.63,0.076 7,0.5 1.333,-0.167 2.667,-0.333 4,-0.5 0.556,-0.383 0.889,-0.883 1,-1.5 5.479,-6.231 7.479,-13.564 6,-22 1.927,-2.637 2.427,-5.637 1.5,-9 -2.621,-1.5 -5.288,-1.834 -8,-1 -0.653,2.064 -1.82,3.731 -3.5,5 0.947,1.559 1.613,3.226 2,5 -1.32,4.613 -2.32,9.279 -3,14 -2.086,1.109 -4.42,1.776 -7,2 -2.981,-1.298 -5.981,-2.632 -9,-4 -1.602,-1.574 -3.602,-2.241 -6,-2 0,-0.333 0,-0.667 0,-1 5.272,-2.226 9.772,-5.56 13.5,-10 1.725,-9.005 1.392,-18.005 -1,-27 -5.466,-12.944 -15.3,-19.278 -29.5,-19 -11.975,0.238 -21.808,4.905 -29.5,14 -2.035,3.061 -3.2014,6.395 -3.5,10 -0.8019,1.452 -1.3019,3.118 -1.5,5 -2.83,-3.734 -5.83,-3.734 -9,0 0.0812,3.408 1.2478,6.408 3.5,9 1.0362,6.141 2.7028,12.141 5,18 -11.9204,14.432 -17.2538,31.099 -16,50 -13.3333,0 -26.6667,0 -40,0 0,-58.667 0,-117.333 0,-176 150.667,0 301.333,0 452,0 0,58.667 0,117.333 0,176 z"
       id="path591" />
  </g>
  <g
     id="g595"
     transform="translate(-41.5,-274.5)">
    <path
       style="opacity:1"
       fill="#32322f"
       d="m 320.5,305.5 c -1,1.667 -2.333,3 -4,4 0.333,-2.333 1.667,-3.667 4,-4 z"
       id="path595" />
  </g>
  <g
     id="g597"
     transform="translate(-41.5,-274.5)">
    <path
       style="opacity:1"
       fill="#413f3c"
       d="m 316.5,309.5 c -3.372,8.241 -2.372,15.908 3,23 -0.593,1.882 -1.26,3.715 -2,5.5 2.199,-0.745 4.533,-1.579 7,-2.5 8.661,1.94 16.994,1.106 25,-2.5 8.239,-8.962 7.905,-17.628 -1,-26 -9.089,-5.369 -18.422,-5.869 -28,-1.5 3.586,-3.27 7.919,-4.937 13,-5 11.029,0.756 18.862,6.089 23.5,16 0.134,14.533 -7.199,21.867 -22,22 -6.952,-2.259 -13.285,-1.259 -19,3 -0.053,-2.702 0.447,-5.369 1.5,-8 -0.637,-2.607 -1.804,-4.94 -3.5,-7 -1.325,-3.928 -1.658,-7.928 -1,-12 0.697,-2.084 1.864,-3.751 3.5,-5 z"
       id="path597" />
  </g>
  <g
     id="g599"
     transform="translate(-41.5,-274.5)">
    <path
       style="opacity:1"
       fill="#f1f0f0"
       d="m 316.5,309.5 c 1.667,-1 3,-2.333 4,-4 9.578,-4.369 18.911,-3.869 28,1.5 8.905,8.372 9.239,17.038 1,26 -8.006,3.606 -16.339,4.44 -25,2.5 -2.467,0.921 -4.801,1.755 -7,2.5 0.74,-1.785 1.407,-3.618 2,-5.5 -5.372,-7.092 -6.372,-14.759 -3,-23 z"
       id="path599" />
  </g>
  <g
     id="g600"
     transform="translate(-41.5,-274.5)">
    <path
       style="opacity:1"
       fill="#31302f"
       d="m 323.5,311.5 c 0.665,2.198 1.332,4.531 2,7 1.569,-1.214 2.402,-2.881 2.5,-5 0.167,0.833 0.333,1.667 0.5,2.5 -0.981,2.49 -1.148,4.99 -0.5,7.5 -0.419,-1.172 -1.085,-2.172 -2,-3 -0.192,2.077 -0.692,4.077 -1.5,6 -0.994,-4.956 -1.327,-9.956 -1,-15 z"
       id="path600" />
  </g>
  <g
     id="g601"
     transform="translate(-41.5,-274.5)">
    <path
       style="opacity:1"
       fill="#434240"
       d="m 332.5,311.5 c 2.752,4.201 3.586,8.868 2.5,14 -2.082,-2.65 -3.749,-2.316 -5,1 -0.148,-5.175 0.686,-10.175 2.5,-15 z"
       id="path601" />
  </g>
  <g
     id="g602"
     transform="translate(-41.5,-274.5)">
    <path
       style="opacity:1"
       fill="#f1f1f2"
       d="m 332.5,315.5 c 1.293,1.864 1.293,3.864 0,6 -0.42,-1.826 -0.42,-3.826 0,-6 z"
       id="path602" />
  </g>
  <g
     id="g603"
     transform="translate(-41.5,-274.5)">
    <path
       style="opacity:1"
       fill="#6d6d6b"
       d="m 343.5,314.5 c 1.287,1.371 1.953,3.205 2,5.5 -0.167,1.833 -0.333,3.667 -0.5,5.5 -1.237,-3.56 -1.737,-7.227 -1.5,-11 z"
       id="path603" />
  </g>
  <g
     id="g604"
     transform="translate(-41.5,-274.5)">
    <path
       style="opacity:1"
       fill="#2c2b29"
       d="m 337.5,313.5 c 0.875,2.068 2.041,4.068 3.5,6 0.333,-2 0.667,-4 1,-6 0.667,4.333 0.667,8.667 0,13 -2.412,-8.917 -3.745,-8.917 -4,0 -0.499,-4.321 -0.666,-8.654 -0.5,-13 z"
       id="path604" />
  </g>
  <g
     id="g605"
     transform="translate(-41.5,-274.5)">
    <path
       style="opacity:1"
       fill="#2e2927"
       d="m 307.5,358.5 c -2.814,-1.551 -4.48,-3.884 -5,-7 -0.049,-2.599 -1.049,-4.766 -3,-6.5 -2.827,-1.664 -5.827,-2.83 -9,-3.5 -0.333,0 -0.667,0 -1,0 -12.362,-2.766 -24.696,-2.433 -37,1 5.946,-3.362 12.446,-5.029 19.5,-5 8.714,0.044 17.047,1.71 25,5 0.315,-1.408 -0.018,-2.741 -1,-4 -8.509,-8.579 -8.176,-8.913 1,-1 0.52,-1.789 0.187,-3.456 -1,-5 -2.5,-2.5 -5,-5 -7.5,-7.5 -2.802,-1.545 -5.802,-2.378 -9,-2.5 -12.649,0.705 -23.149,5.705 -31.5,15 -1.312,2.455 -2.478,4.955 -3.5,7.5 0.594,0.464 1.261,0.631 2,0.5 -1.293,1.796 -2.793,3.463 -4.5,5 -0.497,2.31 -0.663,4.643 -0.5,7 -0.333,0 -0.667,0 -1,0 2.555,-22.877 15.555,-34.877 39,-36 8.743,0.901 15.243,5.234 19.5,13 -1.499,4.411 -0.499,8.078 3,11 1.413,4.631 3.246,8.964 5.5,13 z"
       id="path605" />
  </g>
  <g
     id="g621"
     transform="translate(-41.5,-274.5)">
    <path
       style="opacity:1"
       fill="#e69eaf"
       d="m 252.5,342.5 c -2.589,-0.039 -4.589,0.961 -6,3 -0.739,0.131 -1.406,-0.036 -2,-0.5 1.022,-2.545 2.188,-5.045 3.5,-7.5 8.351,-9.295 18.851,-14.295 31.5,-15 3.198,0.122 6.198,0.955 9,2.5 2.5,2.5 5,5 7.5,7.5 1.187,1.544 1.52,3.211 1,5 -9.176,-7.913 -9.509,-7.579 -1,1 0.982,1.259 1.315,2.592 1,4 -7.953,-3.29 -16.286,-4.956 -25,-5 -7.054,-0.029 -13.554,1.638 -19.5,5 z"
       id="path621" />
  </g>
  <g
     id="g623"
     transform="translate(-41.5,-274.5)">
    <path
       style="opacity:1"
       fill="#1b1715"
       d="m 252.5,342.5 c -1.681,1.508 -3.681,2.508 -6,3 1.411,-2.039 3.411,-3.039 6,-3 z"
       id="path623" />
  </g>
  <g
     id="g624"
     transform="translate(-41.5,-274.5)">
    <path
       style="opacity:1"
       fill="#de91a7"
       d="m 289.5,341.5 c 0.306,2.885 -0.027,5.552 -1,8 -7.945,-0.937 -15.945,-1.27 -24,-1 0.163,-2.357 -0.003,-4.69 -0.5,-7 -0.226,2.595 -0.726,5.095 -1.5,7.5 -4.626,0.906 -8.96,2.573 -13,5 -2.135,0.876 -3.469,2.376 -4,4.5 -1.459,0.067 -2.792,-0.266 -4,-1 -0.163,-2.357 0.003,-4.69 0.5,-7 1.707,-1.537 3.207,-3.204 4.5,-5 2.319,-0.492 4.319,-1.492 6,-3 12.304,-3.433 24.638,-3.766 37,-1 z"
       id="path624" />
  </g>
  <g
     id="g625"
     transform="translate(-41.5,-274.5)">
    <path
       style="opacity:1"
       fill="#f7f7f6"
       d="m 425.5,357.5 c 0.61,0.891 0.943,1.891 1,3 1.22,17.402 -6.113,29.569 -22,36.5 -4.01,0.501 -8.01,1.001 -12,1.5 -9.345,-1.589 -17.178,-5.923 -23.5,-13 -1.761,-12.294 0.906,-23.627 8,-34 7.62,-6.67 16.453,-8.837 26.5,-6.5 8.958,1.49 16.291,5.656 22,12.5 z"
       id="path625" />
  </g>
  <g
     id="g626"
     transform="translate(-41.5,-274.5)">
    <path
       style="opacity:1"
       fill="#de8ba2"
       d="m 290.5,341.5 c 3.173,0.67 6.173,1.836 9,3.5 1.951,1.734 2.951,3.901 3,6.5 0.284,1.915 -0.049,3.581 -1,5 -1.208,-2.544 -3.208,-3.878 -6,-4 -1.031,-0.749 -2.198,-1.415 -3.5,-2 -0.502,-3.013 -1.002,-6.013 -1.5,-9 z"
       id="path626" />
  </g>
  <g
     id="g627"
     transform="translate(-41.5,-274.5)">
    <path
       style="opacity:1"
       fill="#332d2b"
       d="m 288.5,349.5 c 0,0.333 0,0.667 0,1 -9.364,-1.458 -18.698,-1.291 -28,0.5 -5.585,1.459 -10.585,3.959 -15,7.5 0.531,-2.124 1.865,-3.624 4,-4.5 4.04,-2.427 8.374,-4.094 13,-5 0.774,-2.405 1.274,-4.905 1.5,-7.5 0.497,2.31 0.663,4.643 0.5,7 8.055,-0.27 16.055,0.063 24,1 z"
       id="path627" />
  </g>
  <g
     id="g630"
     transform="translate(-41.5,-274.5)">
    <path
       style="opacity:1"
       fill="#f4f3f0"
       d="m 288.5,350.5 c 0.418,0.722 1.084,1.222 2,1.5 -1.237,0.232 -2.237,0.732 -3,1.5 -2.698,0.345 -4.698,1.678 -6,4 -0.667,0 -1,0.333 -1,1 -1.465,0.906 -2.465,2.239 -3,4 -2.265,1.147 -4.598,1.314 -7,0.5 -5.17,-8.347 -11.837,-10.18 -20,-5.5 -2.591,0.754 -4.424,2.421 -5.5,5 -0.195,-1.319 -0.028,-2.653 0.5,-4 4.415,-3.541 9.415,-6.041 15,-7.5 9.302,-1.791 18.636,-1.958 28,-0.5 z"
       id="path630" />
  </g>
  <g
     id="g632"
     transform="translate(-41.5,-274.5)">
    <path
       style="opacity:1"
       fill="#826158"
       d="m 289.5,341.5 c 0.333,0 0.667,0 1,0 0.498,2.987 0.998,5.987 1.5,9 1.302,0.585 2.469,1.251 3.5,2 2.383,1.385 4.05,3.385 5,6 -1.648,-1.31 -3.314,-2.643 -5,-4 -2.938,1.075 -5.938,1.241 -9,0.5 0.667,-0.333 1.333,-0.667 2,-1 -0.228,-0.399 -0.562,-0.565 -1,-0.5 0.763,-0.768 1.763,-1.268 3,-1.5 -0.916,-0.278 -1.582,-0.778 -2,-1.5 0,-0.333 0,-0.667 0,-1 0.973,-2.448 1.306,-5.115 1,-8 z"
       id="path632" />
  </g>
  <g
     id="g634"
     transform="translate(-41.5,-274.5)">
    <path
       style="opacity:1"
       fill="#392d27"
       d="m 287.5,353.5 c 0.438,-0.065 0.772,0.101 1,0.5 -0.667,0.333 -1.333,0.667 -2,1 3.062,0.741 6.062,0.575 9,-0.5 1.686,1.357 3.352,2.69 5,4 0.166,4.346 -10e-4,8.679 -0.5,13 -0.748,2.251 -2.248,3.584 -4.5,4 5.59,-6.458 5.257,-12.625 -1,-18.5 -5.343,-1.325 -9.676,0.175 -13,4.5 0.011,-1.517 0.677,-2.684 2,-3.5 -0.594,-0.464 -1.261,-0.631 -2,-0.5 1.302,-2.322 3.302,-3.655 6,-4 z"
       id="path634" />
  </g>
  <g
     id="g635"
     transform="translate(-41.5,-274.5)">
    <path
       style="opacity:1"
       fill="#f2f2f1"
       d="m 295.5,375.5 c -2.264,0.719 -4.597,1.052 -7,1 -6.248,-2.979 -8.581,-7.979 -7,-15 3.324,-4.325 7.657,-5.825 13,-4.5 6.257,5.875 6.59,12.042 1,18.5 z"
       id="path635" />
  </g>
  <g
     id="g636"
     transform="translate(-41.5,-274.5)">
    <path
       style="opacity:1"
       fill="#9e5c50"
       d="m 253.5,358.5 c -0.342,0.838 -1.008,1.172 -2,1 -2.198,0.091 -2.531,-0.575 -1,-2 3.612,-1.011 7.279,-1.178 11,-0.5 -2.865,0.183 -5.531,0.683 -8,1.5 z"
       id="path636" />
  </g>
  <g
     id="g637"
     transform="translate(-41.5,-274.5)">
    <path
       style="opacity:1"
       fill="#121211"
       d="m 379.5,357.5 c 4.696,-0.631 7.363,1.369 8,6 -0.91,8.475 -5.076,11.142 -12.5,8 -2.237,-5.861 -0.737,-10.527 4.5,-14 z"
       id="path637" />
  </g>
  <g
     id="g639"
     transform="translate(-41.5,-274.5)">
    <path
       style="opacity:1"
       fill="#f2f0ec"
       d="m 253.5,358.5 c 9.992,-1.173 14.492,3.16 13.5,13 -0.997,1.823 -2.164,3.49 -3.5,5 -8.949,3.196 -14.283,0.196 -16,-9 0.282,-3.231 1.615,-5.898 4,-8 0.992,0.172 1.658,-0.162 2,-1 z"
       id="path639" />
  </g>
  <g
     id="g640"
     transform="translate(-41.5,-274.5)">
    <path
       style="opacity:1"
       fill="#564842"
       d="m 240.5,357.5 c 0.333,0 0.667,0 1,0 1.208,0.734 2.541,1.067 4,1 -0.528,1.347 -0.695,2.681 -0.5,4 1.076,-2.579 2.909,-4.246 5.5,-5 -1.531,1.425 -1.198,2.091 1,2 -2.385,2.102 -3.718,4.769 -4,8 1.717,9.196 7.051,12.196 16,9 2.235,0.748 1.902,1.581 -1,2.5 -8.244,2.082 -14.077,-0.751 -17.5,-8.5 -0.464,0.594 -0.631,1.261 -0.5,2 -0.802,-1.452 -1.302,-3.118 -1.5,-5 -0.852,1.071 -1.685,2.071 -2.5,3 0.042,-2.349 -1.125,-3.682 -3.5,-4 -1.643,0.815 -3.143,1.815 -4.5,3 2.215,-2.505 3.381,-5.505 3.5,-9 1.409,-1.281 2.909,-2.281 4.5,-3 z"
       id="path640" />
  </g>
  <g
     id="g641"
     transform="translate(-41.5,-274.5)">
    <path
       style="opacity:1"
       fill="#bdbdb6"
       d="m 237.5,361.5 c 3.257,-0.326 4.757,1.007 4.5,4 -3.319,1.144 -4.819,-0.189 -4.5,-4 z"
       id="path641" />
  </g>
  <g
     id="g642"
     transform="translate(-41.5,-274.5)">
    <path
       style="opacity:1"
       fill="#292926"
       d="m 285.5,363.5 c 2.357,-0.163 4.69,0.003 7,0.5 1.711,1.133 2.211,2.633 1.5,4.5 -3.667,-4 -7.333,-4 -11,0 -0.706,-2.455 0.127,-4.122 2.5,-5 z"
       id="path642" />
  </g>
  <g
     id="g643"
     transform="translate(-41.5,-274.5)">
    <path
       style="opacity:1"
       fill="#8d6955"
       d="m 300.5,358.5 c 0.617,0.111 1.117,0.444 1.5,1 0.968,4.86 0.468,9.526 -1.5,14 0.333,0.333 0.667,0.667 1,1 0.676,-1.102 1.342,-2.102 2,-3 0.268,1.599 -0.066,2.932 -1,4 -0.333,0 -0.667,0 -1,0 -1,0.667 -2,1.333 -3,2 -1.148,-0.664 -2.481,-0.831 -4,-0.5 0.556,-0.383 0.889,-0.883 1,-1.5 2.252,-0.416 3.752,-1.749 4.5,-4 0.499,-4.321 0.666,-8.654 0.5,-13 z"
       id="path643" />
  </g>
  <g
     id="g644"
     transform="translate(-41.5,-274.5)">
    <path
       style="opacity:1"
       fill="#2b2825"
       d="m 295.5,352.5 c 2.792,0.122 4.792,1.456 6,4 0.558,1.29 1.558,2.123 3,2.5 -0.102,2.819 -0.435,5.652 -1,8.5 0,1.333 0,2.667 0,4 -0.658,0.898 -1.324,1.898 -2,3 -0.333,-0.333 -0.667,-0.667 -1,-1 1.968,-4.474 2.468,-9.14 1.5,-14 -0.383,-0.556 -0.883,-0.889 -1.5,-1 -0.95,-2.615 -2.617,-4.615 -5,-6 z"
       id="path644" />
  </g>
  <g
     id="g645"
     transform="translate(-41.5,-274.5)">
    <path
       style="opacity:1"
       fill="#62625f"
       d="m 302.5,351.5 c 0.52,3.116 2.186,5.449 5,7 2.911,2.406 5.745,5.073 8.5,8 0.791,1.245 1.291,2.578 1.5,4 -2.964,-2.462 -5.797,-5.129 -8.5,-8 -0.47,1.077 -0.303,2.077 0.5,3 -0.838,0.342 -1.172,1.008 -1,2 -0.661,-1.218 -1.328,-2.551 -2,-4 -0.333,0.667 -0.667,1.333 -1,2 1.267,2.203 2.267,4.537 3,7 -1.439,-1.86 -3.105,-3.527 -5,-5 0.565,-2.848 0.898,-5.681 1,-8.5 -1.442,-0.377 -2.442,-1.21 -3,-2.5 0.951,-1.419 1.284,-3.085 1,-5 z"
       id="path645" />
  </g>
  <g
     id="g648"
     transform="translate(-41.5,-274.5)">
    <path
       style="opacity:1"
       fill="#322f2c"
       d="m 255.5,364.5 c 2.82,-0.252 5.486,0.248 8,1.5 1.017,1.049 1.184,2.216 0.5,3.5 -3.741,-2.796 -7.241,-2.463 -10.5,1 -0.333,-0.5 -0.667,-1 -1,-1.5 0.815,-1.643 1.815,-3.143 3,-4.5 z"
       id="path648" />
  </g>
  <g
     id="g649"
     transform="translate(-41.5,-274.5)">
    <path
       style="opacity:1"
       fill="#1f1f1e"
       d="m 403.5,366.5 c 7.816,0.492 10.483,4.492 8,12 -0.588,-9.735 -4.421,-11.402 -11.5,-5 -0.667,-1 -0.667,-2 0,-3 1.376,-1.205 2.542,-2.538 3.5,-4 z"
       id="path649" />
  </g>
  <g
     id="g651"
     transform="translate(-41.5,-274.5)">
    <path
       style="opacity:1"
       fill="#d6d7cd"
       d="m 317.5,370.5 c 0.377,1.758 1.044,3.425 2,5 -0.333,0.333 -0.667,0.667 -1,1 -2.675,-4.001 -5.675,-7.668 -9,-11 -0.803,-0.923 -0.97,-1.923 -0.5,-3 2.703,2.871 5.536,5.538 8.5,8 z"
       id="path651" />
  </g>
  <g
     id="g653"
     transform="translate(-41.5,-274.5)">
    <path
       style="opacity:1"
       fill="#c5d2e7"
       d="m 176.5,366.5 c 1,0 2,0 3,0 0,1.667 0,3.333 0,5 -1.333,0 -2.667,0 -4,0 0.129,-1.716 0.462,-3.383 1,-5 z"
       id="path653" />
  </g>
  <g
     id="g656"
     transform="translate(-41.5,-274.5)">
    <path
       style="opacity:1"
       fill="#6f5147"
       d="m 281.5,357.5 c 0.739,-0.131 1.406,0.036 2,0.5 -1.323,0.816 -1.989,1.983 -2,3.5 -1.581,7.021 0.752,12.021 7,15 1.452,0.802 3.118,1.302 5,1.5 -5.116,0.776 -9.45,-0.724 -13,-4.5 -1.679,-1.5 -3.012,-3.333 -4,-5.5 -2.34,-0.748 -4.34,-0.248 -6,1.5 -0.722,0.418 -1.222,1.084 -1.5,2 -0.667,-2.667 -0.667,-5.333 0,-8 2.804,1.844 5.97,2.511 9.5,2 0.378,-2.421 1.045,-4.754 2,-7 0,-0.667 0.333,-1 1,-1 z"
       id="path656" />
  </g>
  <g
     id="g658"
     transform="translate(-41.5,-274.5)">
    <path
       style="opacity:1"
       fill="#464940"
       d="m 308.5,372.5 c 1.406,0.473 2.073,1.473 2,3 -1.406,-0.473 -2.073,-1.473 -2,-3 z"
       id="path658" />
  </g>
  <g
     id="g659"
     transform="translate(-41.5,-274.5)">
    <path
       style="opacity:1"
       fill="#e7e6df"
       d="m 308.5,367.5 c 2.263,3.603 4.93,6.936 8,10 -0.333,0.333 -0.667,0.667 -1,1 -1.86,-0.76 -3.527,-1.76 -5,-3 0.073,-1.527 -0.594,-2.527 -2,-3 -0.733,-2.463 -1.733,-4.797 -3,-7 0.333,-0.667 0.667,-1.333 1,-2 0.672,1.449 1.339,2.782 2,4 z"
       id="path659" />
  </g>
  <g
     id="g660"
     transform="translate(-41.5,-274.5)">
    <path
       style="opacity:1"
       fill="#282827"
       d="m 387.5,372.5 c 3.849,-0.481 5.849,1.186 6,5 -1.643,0.02 -2.976,-0.647 -4,-2 -2.925,0.954 -3.592,-0.046 -2,-3 z"
       id="path660" />
  </g>
  <g
     id="g662"
     transform="translate(-41.5,-274.5)">
    <path
       style="opacity:1"
       fill="#3e3734"
       d="m 280.5,358.5 c -0.955,2.246 -1.622,4.579 -2,7 -3.53,0.511 -6.696,-0.156 -9.5,-2 -0.667,2.667 -0.667,5.333 0,8 0.278,-0.916 0.778,-1.582 1.5,-2 0.059,4.048 -1.608,7.215 -5,9.5 2.31,0.497 4.643,0.663 7,0.5 -1.126,1.358 -1.126,2.692 0,4 2,0 4,0 6,0 1.786,-1.521 3.619,-1.854 5.5,-1 0.167,-0.333 0.333,-0.667 0.5,-1 -1.102,-0.676 -2.102,-1.342 -3,-2 1.373,0.157 2.707,-0.01 4,-0.5 -2.579,-1.076 -4.246,-2.909 -5,-5.5 3.55,3.776 7.884,5.276 13,4.5 -1.882,-0.198 -3.548,-0.698 -5,-1.5 2.403,0.052 4.736,-0.281 7,-1 -0.111,0.617 -0.444,1.117 -1,1.5 1.519,-0.331 2.852,-0.164 4,0.5 -3.83,1.434 -7.83,2.434 -12,3 -1.155,3.495 -3.488,5.495 -7,6 -3.811,1.145 -7.811,1.312 -12,0.5 -2.871,-1.371 -4.871,-3.537 -6,-6.5 -5.732,2.012 -10.565,0.679 -14.5,-4 1.424,9.917 7.258,15.251 17.5,16 -2.198,0.665 -4.531,1.332 -7,2 1.667,0.333 3.333,0.667 5,1 5.792,-1.131 11.458,-2.131 17,-3 8.518,-0.674 15.351,-4.34 20.5,-11 0.505,-2.018 1.005,-4.018 1.5,-6 0.333,0 0.667,0 1,0 -0.586,5.905 -3.253,10.572 -8,14 -4.1,1.979 -8.434,3.479 -13,4.5 -2.862,2.558 -2.529,4.391 1,5.5 -0.342,0.838 -1.008,1.172 -2,1 -1.372,-1.012 -2.705,-2.012 -4,-3 -4.351,-0.967 -6.685,0.7 -7,5 0,0.667 0,1.333 0,2 -0.333,0 -0.667,0 -1,0 -0.547,-1.985 -1.547,-3.651 -3,-5 1,0 2,0 3,0 0,-1 0,-2 0,-3 -4.1,-0.263 -8.1,0.07 -12,1 -1.713,-1.135 -2.38,-2.802 -2,-5 -6.303,-0.667 -10.97,-3.667 -14,-9 3.388,3.524 7.388,5.691 12,6.5 -4.967,-4.769 -7.634,-10.602 -8,-17.5 -0.131,-0.739 0.036,-1.406 0.5,-2 3.423,7.749 9.256,10.582 17.5,8.5 2.902,-0.919 3.235,-1.752 1,-2.5 1.336,-1.51 2.503,-3.177 3.5,-5 0.992,-9.84 -3.508,-14.173 -13.5,-13 2.469,-0.817 5.135,-1.317 8,-1.5 -3.721,-0.678 -7.388,-0.511 -11,0.5 8.163,-4.68 14.83,-2.847 20,5.5 2.402,0.814 4.735,0.647 7,-0.5 0.535,-1.761 1.535,-3.094 3,-4 z"
       id="path662" />
  </g>
  <g
     id="g663"
     transform="translate(-41.5,-274.5)">
    <path
       style="opacity:1"
       fill="#e7e6dc"
       d="m 303.5,367.5 c 1.895,1.473 3.561,3.14 5,5 -0.073,1.527 0.594,2.527 2,3 -2.759,3.312 -5.425,6.812 -8,10.5 -2.318,1.993 -4.984,3.159 -8,3.5 4.747,-3.428 7.414,-8.095 8,-14 0.934,-1.068 1.268,-2.401 1,-4 0,-1.333 0,-2.667 0,-4 z"
       id="path663" />
  </g>
  <g
     id="g664"
     transform="translate(-41.5,-274.5)">
    <path
       style="opacity:1"
       fill="#9eb0d8"
       d="m 352.5,371.5 c 1,0 2,0 3,0 0,1.333 0,2.667 0,4 -1,0 -2,0 -3,0 0,-1.333 0,-2.667 0,-4 z"
       id="path664" />
  </g>
  <g
     id="g676"
     transform="translate(-41.5,-274.5)">
    <path
       style="opacity:1"
       fill="#ebe9e6"
       d="m 280.5,373.5 c 0.754,2.591 2.421,4.424 5,5.5 -1.293,0.49 -2.627,0.657 -4,0.5 -3,0 -6,0 -9,0 -2.357,0.163 -4.69,-0.003 -7,-0.5 3.392,-2.285 5.059,-5.452 5,-9.5 1.66,-1.748 3.66,-2.248 6,-1.5 0.988,2.167 2.321,4 4,5.5 z"
       id="path676" />
  </g>
  <g
     id="g677"
     transform="translate(-41.5,-274.5)">
    <path
       style="opacity:1"
       fill="#221f1b"
       d="m 273.5,369.5 c 3.466,0.609 4.466,2.442 3,5.5 -5.211,0.546 -6.211,-1.287 -3,-5.5 z"
       id="path677" />
  </g>
  <g
     id="g679"
     transform="translate(-41.5,-274.5)">
    <path
       style="opacity:1"
       fill="#636160"
       d="m 99.5,368.5 c 0.2896,3.285 -0.377,6.285 -2,9 -3.5394,-1.409 -5.2061,-0.076 -5,4 0,0.333 0,0.667 0,1 -2.2522,-2.592 -3.4188,-5.592 -3.5,-9 3.17,-3.734 6.17,-3.734 9,0 0.1981,-1.882 0.6981,-3.548 1.5,-5 z"
       id="path679" />
  </g>
  <g
     id="g680"
     transform="translate(-41.5,-274.5)">
    <path
       style="opacity:1"
       fill="#efede2"
       d="m 244.5,372.5 c 0.366,6.898 3.033,12.731 8,17.5 -4.612,-0.809 -8.612,-2.976 -12,-6.5 -0.203,-1.544 -0.87,-2.878 -2,-4 1.142,-2.899 1.808,-5.899 2,-9 0.815,-0.929 1.648,-1.929 2.5,-3 0.198,1.882 0.698,3.548 1.5,5 z"
       id="path680" />
  </g>
  <g
     id="g681"
     transform="translate(-41.5,-274.5)">
    <path
       style="opacity:1"
       fill="#a99793"
       d="m 371.5,375.5 c 2.333,0 4.667,0 7,0 0.028,2.082 -0.639,3.916 -2,5.5 -1.135,0.749 -2.135,0.583 -3,-0.5 0.525,-0.692 1.192,-1.192 2,-1.5 -1.293,-0.49 -2.627,-0.657 -4,-0.5 0,-1 0,-2 0,-3 z"
       id="path681" />
  </g>
  <g
     id="g682"
     transform="translate(-41.5,-274.5)">
    <path
       style="opacity:1"
       fill="#d6d6d6"
       d="m 426.5,360.5 c 4.845,12.172 2.845,23.339 -6,33.5 -4.982,3.938 -10.649,5.772 -17,5.5 -3.871,0.315 -7.538,-0.018 -11,-1 3.99,-0.499 7.99,-0.999 12,-1.5 15.887,-6.931 23.22,-19.098 22,-36.5 z"
       id="path682" />
  </g>
  <g
     id="g684"
     transform="translate(-41.5,-274.5)">
    <path
       style="opacity:1"
       fill="#dfdfdb"
       d="m 97.5,377.5 c 0.1162,3.41 -1.5504,4.744 -5,4 -0.2061,-4.076 1.4606,-5.409 5,-4 z"
       id="path684" />
  </g>
  <g
     id="g685"
     transform="translate(-41.5,-274.5)">
    <path
       style="opacity:1"
       fill="#383836"
       d="m 309.5,365.5 c 3.325,3.332 6.325,6.999 9,11 0.333,-0.333 0.667,-0.667 1,-1 -0.956,-1.575 -1.623,-3.242 -2,-5 2.033,1.398 3.033,3.398 3,6 0.033,2.602 -0.967,4.602 -3,6 -0.086,-0.996 0.248,-1.829 1,-2.5 -2.985,-0.868 -5.985,-1.201 -9,-1 -2.625,5.793 -6.959,9.627 -13,11.5 -0.916,-0.043 -1.583,-0.376 -2,-1 3.016,-0.341 5.682,-1.507 8,-3.5 2.575,-3.688 5.241,-7.188 8,-10.5 1.473,1.24 3.14,2.24 5,3 0.333,-0.333 0.667,-0.667 1,-1 -3.07,-3.064 -5.737,-6.397 -8,-10 -0.172,-0.992 0.162,-1.658 1,-2 z"
       id="path685" />
  </g>
  <g
     id="g686"
     transform="translate(-41.5,-274.5)">
    <path
       style="opacity:1"
       fill="#d7d7d4"
       d="m 240.5,370.5 c -1.268,5.28 -3.601,10.113 -7,14.5 -1,0.667 -2,0.667 -3,0 1.721,-1.944 3.054,-4.11 4,-6.5 1.97,-3.19 2.636,-6.523 2,-10 -1.872,2.41 -3.205,5.077 -4,8 -0.822,1.889 -1.655,3.889 -2.5,6 -0.301,-3.007 -0.135,-6.007 0.5,-9 0.16,-1.653 0.826,-2.986 2,-4 1.357,-1.185 2.857,-2.185 4.5,-3 2.375,0.318 3.542,1.651 3.5,4 z"
       id="path686" />
  </g>
  <g
     id="g687"
     transform="translate(-41.5,-274.5)">
    <path
       style="opacity:1"
       fill="#171716"
       d="m 234.5,378.5 c -1.333,0 -2,-0.667 -2,-2 0.795,-2.923 2.128,-5.59 4,-8 0.636,3.477 -0.03,6.81 -2,10 z"
       id="path687" />
  </g>
  <g
     id="g688"
     transform="translate(-41.5,-274.5)">
    <path
       style="opacity:1"
       fill="#5d5d5a"
       d="m 381.5,378.5 c 4.167,1.793 8.5,3.126 13,4 -3.429,0.604 -6.762,0.604 -10,0 -2.412,-0.194 -3.412,-1.527 -3,-4 z"
       id="path688" />
  </g>
  <g
     id="g689"
     transform="translate(-41.5,-274.5)">
    <path
       style="opacity:1"
       fill="#f3f0eb"
       d="m 301.5,375.5 c -0.495,1.982 -0.995,3.982 -1.5,6 -5.149,6.66 -11.982,10.326 -20.5,11 -5,0 -10,0 -15,0 -10.242,-0.749 -16.076,-6.083 -17.5,-16 3.935,4.679 8.768,6.012 14.5,4 1.129,2.963 3.129,5.129 6,6.5 4.189,0.812 8.189,0.645 12,-0.5 3.512,-0.505 5.845,-2.505 7,-6 4.17,-0.566 8.17,-1.566 12,-3 1,-0.667 2,-1.333 3,-2 z"
       id="path689" />
  </g>
  <g
     id="g693"
     transform="translate(-41.5,-274.5)">
    <path
       style="opacity:1"
       fill="#908c87"
       d="m 272.5,379.5 c 3,0 6,0 9,0 0.898,0.658 1.898,1.324 3,2 -0.167,0.333 -0.333,0.667 -0.5,1 -1.881,-0.854 -3.714,-0.521 -5.5,1 -2,0 -4,0 -6,0 -1.126,-1.308 -1.126,-2.642 0,-4 z"
       id="path693" />
  </g>
  <g
     id="g694"
     transform="translate(-41.5,-274.5)">
    <path
       style="opacity:1"
       fill="#9c9c9c"
       d="m 384.5,382.5 c 3.238,0.604 6.571,0.604 10,0 2.885,-0.306 5.552,0.027 8,1 -6.163,2.717 -12.163,2.384 -18,-1 z"
       id="path694" />
  </g>
  <g
     id="g695"
     transform="translate(-41.5,-274.5)">
    <path
       style="opacity:1"
       fill="#ad9f94"
       d="m 406.5,382.5 c 2.283,0.108 4.283,0.941 6,2.5 -0.753,1.487 -1.586,1.654 -2.5,0.5 -0.419,4.352 -1.086,4.685 -2,1 -1.342,1.402 -2.176,1.069 -2.5,-1 0.185,-1.084 0.518,-2.084 1,-3 z"
       id="path695" />
  </g>
  <g
     id="g698"
     transform="translate(-41.5,-274.5)">
    <path
       style="opacity:1"
       fill="#40403e"
       d="m 240.5,370.5 c -0.192,3.101 -0.858,6.101 -2,9 1.13,1.122 1.797,2.456 2,4 -2.539,-2.699 -4.039,-2.032 -4.5,2 -2.764,0.525 -3.598,1.858 -2.5,4 -6.805,-4.154 -7.805,-9.488 -3,-16 -0.635,2.993 -0.801,5.993 -0.5,9 0.845,-2.111 1.678,-4.111 2.5,-6 0,1.333 0.667,2 2,2 -0.946,2.39 -2.279,4.556 -4,6.5 1,0.667 2,0.667 3,0 3.399,-4.387 5.732,-9.22 7,-14.5 z"
       id="path698" />
  </g>
  <g
     id="g699"
     transform="translate(-41.5,-274.5)">
    <path
       style="opacity:1"
       fill="#e3e2de"
       d="m 317.5,382.5 c -0.617,0.111 -1.117,0.444 -1.5,1 -1.171,-2.116 -2.671,-2.782 -4.5,-2 2.668,1.015 3.334,2.682 2,5 -2.333,1.167 -4.667,2.333 -7,3.5 -3.996,3.163 -7.663,6.663 -11,10.5 -0.586,-0.209 -1.086,-0.543 -1.5,-1 -0.186,-2.4 -0.686,-4.734 -1.5,-7 -3.402,2.067 -7.069,3.4 -11,4 0.333,0.333 0.667,0.667 1,1 2.953,-1.092 5.953,-1.592 9,-1.5 -1.369,2.239 -0.869,4.073 1.5,5.5 1.189,6.647 -1.644,9.647 -8.5,9 -0.952,-1.545 -1.285,-3.212 -1,-5 2.604,-0.098 4.604,-1.265 6,-3.5 -1.787,-2.134 -4.12,-2.967 -7,-2.5 -3.529,-1.109 -3.862,-2.942 -1,-5.5 4.566,-1.021 8.9,-2.521 13,-4.5 0.417,0.624 1.084,0.957 2,1 6.041,-1.873 10.375,-5.707 13,-11.5 3.015,-0.201 6.015,0.132 9,1 -0.752,0.671 -1.086,1.504 -1,2.5 z"
       id="path699" />
  </g>
  <g
     id="g702"
     transform="translate(-41.5,-274.5)">
    <path
       style="opacity:1"
       fill="#3e3d39"
       d="m 426.5,356.5 c -0.667,0 -1,0.333 -1,1 -5.709,-6.844 -13.042,-11.01 -22,-12.5 -10.047,-2.337 -18.88,-0.17 -26.5,6.5 -7.094,10.373 -9.761,21.706 -8,34 6.322,7.077 14.155,11.411 23.5,13 3.462,0.982 7.129,1.315 11,1 -2,0.667 -4,1.333 -6,2 -2.613,-0.935 -5.279,-1.102 -8,-0.5 0.752,0.671 1.086,1.504 1,2.5 -2,0 -4,0 -6,0 0,-1 0,-2 0,-3 -3.889,0.306 -7.555,0.306 -11,0 3.494,-1.431 7.161,-2.264 11,-2.5 -17.81,-5.788 -22.977,-17.288 -15.5,-34.5 2.64,-7.964 7.474,-14.13 14.5,-18.5 16.779,-5.014 31.113,-1.181 43,11.5 z"
       id="path702" />
  </g>
  <g
     id="g703"
     transform="translate(-41.5,-274.5)">
    <path
       style="opacity:1"
       fill="#181513"
       d="m 381.5,378.5 c -0.412,2.473 0.588,3.806 3,4 5.837,3.384 11.837,3.717 18,1 -2.194,8.761 -7.527,11.761 -16,9 -6.875,-3.044 -8.542,-7.711 -5,-14 z"
       id="path703" />
  </g>
  <g
     id="g712"
     transform="translate(-41.5,-274.5)">
    <path
       style="opacity:1"
       fill="#d3544f"
       d="m 386.5,392.5 c -1.452,-2.274 -0.785,-3.774 2,-4.5 3.183,-1.031 5.849,-0.365 8,2 -0.405,0.945 -1.072,1.612 -2,2 -2.646,0.497 -5.313,0.664 -8,0.5 z"
       id="path712" />
  </g>
  <g
     id="g718"
     transform="translate(-41.5,-274.5)">
    <path
       style="opacity:1"
       fill="#292320"
       d="m 426.5,356.5 c 6.881,12.54 5.881,24.54 -3,36 13.85,9.691 21.517,23.025 23,40 0.321,5.195 -0.013,10.195 -1,15 0.888,-11.199 -0.779,-21.866 -5,-32 -3.094,-9.262 -8.927,-16.262 -17.5,-21 -7.16,4.554 -14.994,7.22 -23.5,8 1.791,0.67 3.458,1.337 5,2 -2.121,-0.175 -4.121,0.159 -6,1 -2.119,0.955 -3.785,0.288 -5,-2 1.88,0.271 3.213,-0.396 4,-2 2,-0.667 4,-1.333 6,-2 6.351,0.272 12.018,-1.562 17,-5.5 8.845,-10.161 10.845,-21.328 6,-33.5 -0.057,-1.109 -0.39,-2.109 -1,-3 0,-0.667 0.333,-1 1,-1 z"
       id="path718" />
  </g>
  <g
     id="g727"
     transform="translate(-41.5,-274.5)">
    <path
       style="opacity:1"
       fill="#ddddda"
       d="m 351.5,391.5 c 1.478,-0.262 2.811,0.071 4,1 2.721,4.767 3.387,9.767 2,15 -0.667,-3.142 -1.334,-6.142 -2,-9 0.117,-1.984 -0.55,-3.65 -2,-5 -0.333,1.167 -0.667,2.333 -1,3.5 0.568,3.2 1.235,6.367 2,9.5 0.149,1.052 -0.017,2.052 -0.5,3 -0.852,-1.071 -1.685,-2.071 -2.5,-3 -1.144,-5.054 -1.144,-10.054 0,-15 z"
       id="path727" />
  </g>
  <g
     id="g730"
     transform="translate(-41.5,-274.5)">
    <path
       style="opacity:1"
       fill="#201f1d"
       d="m 349.5,391.5 c 0.667,0 1.333,0 2,0 -1.144,4.946 -1.144,9.946 0,15 -0.768,-0.763 -1.268,-1.763 -1.5,-3 -0.499,-3.986 -0.666,-7.986 -0.5,-12 z"
       id="path730" />
  </g>
  <g
     id="g735"
     transform="translate(-41.5,-274.5)">
    <path
       style="opacity:1"
       fill="#1c1c1b"
       d="m 355.5,398.5 c 0.306,2.885 -0.027,5.552 -1,8 -0.765,-3.133 -1.432,-6.3 -2,-9.5 0.333,-1.167 0.667,-2.333 1,-3.5 1.45,1.35 2.117,3.016 2,5 z"
       id="path735" />
  </g>
  <g
     id="g736"
     transform="translate(-41.5,-274.5)">
    <path
       style="opacity:1"
       fill="#c2c0be"
       d="m 397.5,401.5 c -0.787,1.604 -2.12,2.271 -4,2 -1,0 -2,0 -3,0 0.086,-0.996 -0.248,-1.829 -1,-2.5 2.721,-0.602 5.387,-0.435 8,0.5 z"
       id="path736" />
  </g>
  <g
     id="g739"
     transform="translate(-41.5,-274.5)">
    <path
       style="opacity:1"
       fill="#221d25"
       d="m 386.5,409.5 c -1.446,1.113 -3.113,1.28 -5,0.5 -1.425,-1.714 -1.092,-3.047 1,-4 -1.693,-0.484 -3.027,0.016 -4,1.5 -2.486,-0.962 -2.486,-1.795 0,-2.5 -1.771,-0.535 -2.104,-1.369 -1,-2.5 1.944,0.689 3.944,1.189 6,1.5 1.309,1.751 0.975,3.251 -1,4.5 1.189,0.929 2.522,1.262 4,1 z"
       id="path739" />
  </g>
  <g
     id="g742"
     transform="translate(-41.5,-274.5)">
    <path
       style="opacity:1"
       fill="#cccecc"
       d="m 404.5,404.5 c 2.904,1.555 5.57,3.555 8,6 -0.06,0.543 -0.393,0.876 -1,1 -2.225,-1.61 -4.559,-2.943 -7,-4 -2.126,-0.548 -4.126,-1.215 -6,-2 1.879,-0.841 3.879,-1.175 6,-1 z"
       id="path742" />
  </g>
  <g
     id="g743"
     transform="translate(-41.5,-274.5)">
    <path
       style="opacity:1"
       fill="#2a2822"
       d="m 404.5,404.5 c 4.089,0.088 6.756,2.088 8,6 -2.43,-2.445 -5.096,-4.445 -8,-6 z"
       id="path743" />
  </g>
  <g
     id="g760"
     transform="translate(-41.5,-274.5)">
    <path
       style="opacity:1"
       fill="#8a8885"
       d="m 373.5,400.5 c 3.445,0.306 7.111,0.306 11,0 0,1 0,2 0,3 2,0 4,0 6,0 1,0 2,0 3,0 1.215,2.288 2.881,2.955 5,2 1.874,0.785 3.874,1.452 6,2 0,0.333 0,0.667 0,1 -0.992,-0.172 -1.658,0.162 -2,1 -4.065,-0.631 -8.065,-1.631 -12,-3 -0.667,0.333 -1.333,0.667 -2,1 0.825,0.886 1.825,1.219 3,1 -1.419,0.951 -3.085,1.284 -5,1 -1.478,0.262 -2.811,-0.071 -4,-1 1.975,-1.249 2.309,-2.749 1,-4.5 -2.056,-0.311 -4.056,-0.811 -6,-1.5 -1.104,1.131 -0.771,1.965 1,2.5 -2.486,0.705 -2.486,1.538 0,2.5 0,1.333 0,2.667 0,4 -2.473,0.412 -3.806,-0.588 -4,-3 0.16,-1.699 -0.006,-3.366 -0.5,-5 -2.566,2.284 -3.066,1.617 -1.5,-2 0,-0.667 0.333,-1 1,-1 z"
       id="path760" />
  </g>
  <g
     id="g765"
     transform="translate(-41.5,-274.5)">
    <path
       style="opacity:1"
       fill="#5b5957"
       d="m 372.5,401.5 c -1.566,3.617 -1.066,4.284 1.5,2 0.494,1.634 0.66,3.301 0.5,5 -1,0 -2,0 -3,0 -0.291,-1.149 -1.124,-1.816 -2.5,-2 -3.125,0.756 -6.291,1.089 -9.5,1 0.028,2.082 -0.639,3.916 -2,5.5 0.594,0.464 1.261,0.631 2,0.5 0.418,0.722 1.084,1.222 2,1.5 -0.556,0.383 -0.889,0.883 -1,1.5 -1.28,1.431 -2.947,2.098 -5,2 1.1,-1.058 2.434,-1.892 4,-2.5 -1.502,-0.583 -2.835,-1.416 -4,-2.5 1.333,-1.12 1.833,-2.453 1.5,-4 -3.644,2.894 -5.477,1.894 -5.5,-3 0.815,0.929 1.648,1.929 2.5,3 0.483,-0.948 0.649,-1.948 0.5,-3 0.973,-2.448 1.306,-5.115 1,-8 0.666,2.858 1.333,5.858 2,9 1.387,-5.233 0.721,-10.233 -2,-15 -1.189,-0.929 -2.522,-1.262 -4,-1 1.16,-0.765 2.16,-1.765 3,-3 -2,-1.333 -4,-1.333 -6,0 0.627,0.917 0.961,1.917 1,3 -5.509,-7.577 -3.509,-11.244 6,-11 0.236,2.473 1.569,4.14 4,5 -1.437,1.521 -2.104,3.355 -2,5.5 1.243,5.141 2.41,10.307 3.5,15.5 2.8,-0.625 5.634,-1.292 8.5,-2 0.379,-1.713 1.379,-2.713 3,-3 z"
       id="path765" />
  </g>
  <g
     id="g766"
     transform="translate(-41.5,-274.5)">
    <path
       style="opacity:1"
       fill="#dbdad3"
       d="m 351.5,391.5 c -0.667,0 -1.333,0 -2,0 -0.039,-1.083 -0.373,-2.083 -1,-3 2,-1.333 4,-1.333 6,0 -0.84,1.235 -1.84,2.235 -3,3 z"
       id="path766" />
  </g>
  <g
     id="g767"
     transform="translate(-41.5,-274.5)">
    <path
       style="opacity:1"
       fill="#f0eff0"
       d="m 371.5,408.5 c -0.077,1.25 -0.744,2.083 -2,2.5 -3.434,0.558 -6.767,1.391 -10,2.5 -0.739,0.131 -1.406,-0.036 -2,-0.5 1.361,-1.584 2.028,-3.418 2,-5.5 3.209,0.089 6.375,-0.244 9.5,-1 1.376,0.184 2.209,0.851 2.5,2 z"
       id="path767" />
  </g>
  <g
     id="g774"
     transform="translate(-41.5,-274.5)">
    <path
       style="opacity:1"
       fill="#382e2a"
       d="m 404.5,408.5 c 0,-0.333 0,-0.667 0,-1 2.441,1.057 4.775,2.39 7,4 0.607,-0.124 0.94,-0.457 1,-1 2.924,2.556 3.59,5.556 2,9 0.605,-5.74 -1.728,-7.74 -7,-6 0.227,-2.433 -0.773,-4.099 -3,-5 z"
       id="path774" />
  </g>
  <g
     id="g777"
     transform="translate(-41.5,-274.5)">
    <path
       style="opacity:1"
       fill="#181616"
       d="m 402.5,409.5 c 2.446,0.892 3.112,2.392 2,4.5 -3.755,0.755 -7.422,0.589 -11,-0.5 1.265,-0.979 2.599,-1.979 4,-3 -1.033,-0.952 -2.2,-0.952 -3.5,0 -1.011,-0.556 -1.844,-1.222 -2.5,-2 -1.175,0.219 -2.175,-0.114 -3,-1 0.667,-0.333 1.333,-0.667 2,-1 3.935,1.369 7.935,2.369 12,3 z"
       id="path777" />
  </g>
  <g
     id="g779"
     transform="translate(-41.5,-274.5)">
    <path
       style="opacity:1"
       fill="#433a3a"
       d="m 386.5,409.5 c 1.915,0.284 3.581,-0.049 5,-1 0.656,0.778 1.489,1.444 2.5,2 1.3,-0.952 2.467,-0.952 3.5,0 -1.401,1.021 -2.735,2.021 -4,3 -1.109,0.057 -2.109,0.39 -3,1 0,-0.333 0,-0.667 0,-1 0.131,-0.876 -0.202,-1.543 -1,-2 -5.064,0.281 -9.73,1.281 -14,3 0,0.333 0,0.667 0,1 -1.784,-1.22 -3.45,-1.22 -5,0 -2.687,6.314 -0.687,9.314 6,9 -1.452,0.802 -3.118,1.302 -5,1.5 -0.837,1.011 -1.17,2.178 -1,3.5 -2.328,-3.783 -3.661,-3.116 -4,2 -0.624,-0.417 -0.957,-1.084 -1,-2 1.714,-5.236 3.047,-10.569 4,-16 -3.317,0.164 -6.317,1.164 -9,3 0.111,-0.617 0.444,-1.117 1,-1.5 -0.916,-0.278 -1.582,-0.778 -2,-1.5 3.233,-1.109 6.566,-1.942 10,-2.5 1.256,-0.417 1.923,-1.25 2,-2.5 1,0 2,0 3,0 0.194,2.412 1.527,3.412 4,3 0,-1.333 0,-2.667 0,-4 0.973,-1.484 2.307,-1.984 4,-1.5 -2.092,0.953 -2.425,2.286 -1,4 1.887,0.78 3.554,0.613 5,-0.5 z"
       id="path779" />
  </g>
  <g
     id="g780"
     transform="translate(-41.5,-274.5)">
    <path
       style="opacity:1"
       fill="#898279"
       d="m 390.5,413.5 c -4.963,0.754 -9.963,1.087 -15,1 4.27,-1.719 8.936,-2.719 14,-3 0.798,0.457 1.131,1.124 1,2 z"
       id="path780" />
  </g>
  <g
     id="g782"
     transform="translate(-41.5,-274.5)">
    <path
       style="opacity:1"
       fill="#2b2728"
       d="m 390.5,413.5 c 0,0.333 0,0.667 0,1 -0.538,1.617 -0.871,3.284 -1,5 5.322,0.48 10.655,0.813 16,1 -0.329,-2.728 0.337,-5.062 2,-7 0.922,13.689 -4.744,16.856 -17,9.5 -0.805,-1.972 -2.139,-3.472 -4,-4.5 0.477,-0.978 1.143,-1.811 2,-2.5 -2.582,-0.542 -4.582,0.292 -6,2.5 -2.891,0.903 -5.891,1.236 -9,1 -0.667,0 -1,-0.333 -1,-1 2.855,-1.75 6.189,-2.583 10,-2.5 -2.31,-0.497 -4.643,-0.663 -7,-0.5 0,-0.333 0,-0.667 0,-1 5.037,0.087 10.037,-0.246 15,-1 z"
       id="path782" />
  </g>
  <g
     id="g784"
     transform="translate(-41.5,-274.5)">
    <path
       style="opacity:1"
       fill="#96857f"
       d="m 370.5,415.5 c 1.55,-1.22 3.216,-1.22 5,0 2.357,-0.163 4.69,0.003 7,0.5 -3.811,-0.083 -7.145,0.75 -10,2.5 -0.667,-1 -1.333,-2 -2,-3 z"
       id="path784" />
  </g>
  <g
     id="g787"
     transform="translate(-41.5,-274.5)">
    <path
       style="opacity:1"
       fill="#dbdbd9"
       d="m 402.5,409.5 c 0.342,-0.838 1.008,-1.172 2,-1 2.227,0.901 3.227,2.567 3,5 -1.663,1.938 -2.329,4.272 -2,7 -5.345,-0.187 -10.678,-0.52 -16,-1 0.129,-1.716 0.462,-3.383 1,-5 0.891,-0.61 1.891,-0.943 3,-1 3.578,1.089 7.245,1.255 11,0.5 1.112,-2.108 0.446,-3.608 -2,-4.5 z"
       id="path787" />
  </g>
  <g
     id="g792"
     transform="translate(-41.5,-274.5)">
    <path
       style="opacity:1"
       fill="#f7f4f4"
       d="m 370.5,415.5 c 0.667,1 1.333,2 2,3 0,0.667 0.333,1 1,1 2.107,0.968 4.441,1.302 7,1 0.067,1.459 -0.266,2.792 -1,4 -1,0 -2,0 -3,0 -6.687,0.314 -8.687,-2.686 -6,-9 z"
       id="path792" />
  </g>
  <g
     id="g793"
     transform="translate(-41.5,-274.5)">
    <path
       style="opacity:1"
       fill="#36241b"
       d="m 414.5,419.5 c 0.073,1.527 -0.594,2.527 -2,3 -0.073,-1.527 0.594,-2.527 2,-3 z"
       id="path793" />
  </g>
  <g
     id="g797"
     transform="translate(-41.5,-274.5)">
    <path
       style="opacity:1"
       fill="#e3e3e3"
       d="m 414.5,419.5 c -1.406,0.473 -2.073,1.473 -2,3 -0.666,3.189 -1.333,6.523 -2,10 -2.457,-1.725 -5.123,-2.225 -8,-1.5 8.271,1.252 9.271,4.585 3,10 -4.037,0.607 -8.037,0.44 -12,-0.5 -3.661,-2.665 -6.661,-5.998 -9,-10 0.355,-1.022 1.022,-1.689 2,-2 3.897,5.093 8.897,8.26 15,9.5 1.922,-1.46 2.589,-3.127 2,-5 -5.021,-2.179 -10.021,-4.346 -15,-6.5 -2.607,-6.601 -3.774,-6.601 -3.5,0 -0.442,2.179 -1.442,2.845 -3,2 -0.172,-3.326 -0.005,-6.659 0.5,-10 1.418,-2.208 3.418,-3.042 6,-2.5 -0.857,0.689 -1.523,1.522 -2,2.5 1.861,1.028 3.195,2.528 4,4.5 12.256,7.356 17.922,4.189 17,-9.5 5.272,-1.74 7.605,0.26 7,6 z"
       id="path797" />
  </g>
  <g
     id="g801"
     transform="translate(-41.5,-274.5)">
    <path
       style="opacity:1"
       fill="#0c0d0b"
       d="m 376.5,424.5 c 1,0 2,0 3,0 0.904,0.709 1.237,1.709 1,3 -1.291,-0.237 -2.291,0.096 -3,1 -2.29,1.839 -4.623,2.172 -7,1 -0.17,-1.322 0.163,-2.489 1,-3.5 1.882,-0.198 3.548,-0.698 5,-1.5 z"
       id="path801" />
  </g>
  <g
     id="g802"
     transform="translate(-41.5,-274.5)">
    <path
       style="opacity:1"
       fill="#da615a"
       d="m 366.5,431.5 c 0.011,1.517 0.677,2.684 2,3.5 2.539,0.796 4.872,0.629 7,-0.5 0.342,-0.838 1.008,-1.172 2,-1 1,0 2,0 3,0 0.338,2.657 -0.329,4.99 -2,7 -6.289,-4.794 -10.289,-3.46 -12,4 -3.366,-0.288 -6.7,-0.454 -10,-0.5 -1.333,1.667 -2.667,3.333 -4,5 -2.401,0.795 -4.568,1.962 -6.5,3.5 -1.25,4.92 -1.75,9.92 -1.5,15 -2.562,2.153 -5.396,2.486 -8.5,1 -8.071,-17.144 -4.904,-31.978 9.5,-44.5 3.556,-1.608 6.889,-3.441 10,-5.5 2.053,0.098 3.72,-0.569 5,-2 2.683,-1.836 5.683,-2.836 9,-3 -0.953,5.431 -2.286,10.764 -4,16 0.043,0.916 0.376,1.583 1,2 z"
       id="path802" />
  </g>
  <g
     id="g813"
     transform="translate(-41.5,-274.5)">
    <path
       style="opacity:1"
       fill="#e7e4e2"
       d="m 370.5,429.5 c 2.377,1.172 4.71,0.839 7,-1 1.175,-0.219 2.175,0.114 3,1 -1.024,1.352 -2.024,2.685 -3,4 -0.992,-0.172 -1.658,0.162 -2,1 -3.612,0.576 -6.612,-0.424 -9,-3 0.339,-5.116 1.672,-5.783 4,-2 z"
       id="path813" />
  </g>
  <g
     id="g822"
     transform="translate(-41.5,-274.5)">
    <path
       style="opacity:1"
       fill="#291918"
       d="m 366.5,431.5 c 2.388,2.576 5.388,3.576 9,3 -2.128,1.129 -4.461,1.296 -7,0.5 -1.323,-0.816 -1.989,-1.983 -2,-3.5 z"
       id="path822" />
  </g>
  <g
     id="g832"
     transform="translate(-41.5,-274.5)">
    <path
       style="opacity:1"
       fill="#39352d"
       d="m 446.5,432.5 c 0.99,5.81 1.323,11.81 1,18 15.333,0 30.667,0 46,0 0,0.667 0,1.333 0,2 -15.842,-0.33 -31.509,0.004 -47,1 -0.904,-0.709 -1.237,-1.709 -1,-3 0,-1 0,-2 0,-3 0.987,-4.805 1.321,-9.805 1,-15 z"
       id="path832" />
  </g>
  <g
     id="g836"
     transform="translate(-41.5,-274.5)">
    <path
       style="opacity:1"
       fill="#db605a"
       d="m 440.5,415.5 c 3.558,34.784 -11.442,56.284 -45,64.5 -6.959,1.331 -13.959,1.664 -21,1 -1.619,-0.236 -2.619,-1.069 -3,-2.5 2.198,-4.705 5.364,-8.705 9.5,-12 2.536,-7.521 7.702,-10.354 15.5,-8.5 -2.991,2.141 -4.158,4.975 -3.5,8.5 0.816,-3.635 2.65,-6.635 5.5,-9 5.184,-5.018 10.517,-9.851 16,-14.5 -0.522,-0.561 -0.855,-1.228 -1,-2 1.262,-4.886 2.596,-9.719 4,-14.5 -2.914,5.276 -5.081,10.943 -6.5,17 -2.667,2.667 -5.333,5.333 -8,8 -0.096,-2.951 -0.929,-5.618 -2.5,-8 3.362,-0.35 6.195,-1.684 8.5,-4 1.299,-2.647 2.632,-5.314 4,-8 0.495,-3.031 0.329,-6.031 -0.5,-9 1.406,-0.473 2.073,-1.473 2,-3 1.59,-3.444 0.924,-6.444 -2,-9 -1.244,-3.912 -3.911,-5.912 -8,-6 -1.542,-0.663 -3.209,-1.33 -5,-2 8.506,-0.78 16.34,-3.446 23.5,-8 8.573,4.738 14.406,11.738 17.5,21 z"
       id="path836" />
  </g>
  <g
     id="g837"
     transform="translate(-41.5,-274.5)">
    <path
       style="opacity:1"
       fill="#4b2724"
       d="m 417.5,426.5 c 0.873,-2.386 2.373,-4.386 4.5,-6 -0.427,2.621 -1.927,4.621 -4.5,6 z"
       id="path837" />
  </g>
  <g
     id="g838"
     transform="translate(-41.5,-274.5)">
    <path
       style="opacity:1"
       fill="#c4524e"
       d="m 440.5,415.5 c 4.221,10.134 5.888,20.801 5,32 0,1 0,2 0,3 -2.741,14.598 -11.074,24.765 -25,30.5 -17.041,5.729 -34.374,6.895 -52,3.5 1.008,-2.044 2.008,-4.044 3,-6 0.381,1.431 1.381,2.264 3,2.5 7.041,0.664 14.041,0.331 21,-1 33.558,-8.216 48.558,-29.716 45,-64.5 z"
       id="path838" />
  </g>
  <g
     id="g839"
     transform="translate(-41.5,-274.5)">
    <path
       style="opacity:1"
       fill="#b28061"
       d="m 41.5,452.5 c 13.6667,0 27.3333,0 41,0 1.1737,8.345 4.507,15.679 10,22 -2.5205,1.519 -5.0205,3.186 -7.5,5 -0.9201,2.808 -0.0867,4.975 2.5,6.5 11.8228,4.832 24.156,7.499 37,8 18.127,1.204 36.127,0.204 54,-3 4.479,-1.271 8.812,-2.938 13,-5 0.797,-2.749 0.797,-5.249 0,-7.5 3.387,-0.216 5.387,-2.05 6,-5.5 -0.847,-1.771 -2.18,-2.937 -4,-3.5 2.431,-5.393 3.765,-11.06 4,-17 5,0 10,0 15,0 -0.015,4.06 0.485,8.06 1.5,12 1.604,3.548 3.437,6.882 5.5,10 -4.966,0.429 -5.966,2.596 -3,6.5 9.4,3.528 19.067,6.194 29,8 14.667,0.667 29.333,0.667 44,0 -2.563,-0.763 -2.563,-1.263 0,-1.5 11.092,0.873 21.759,-0.96 32,-5.5 1.304,-0.804 1.971,-1.971 2,-3.5 -1.437,-2.077 -2.104,-4.41 -2,-7 2.753,-6.016 4.087,-12.35 4,-19 1.667,0 3.333,0 5,0 -0.318,6.048 1.015,11.715 4,17 -3.25,1.414 -3.584,3.081 -1,5 0.333,0.667 0.667,1.333 1,2 -0.973,1.568 -1.14,3.235 -0.5,5 5.89,3.984 12.39,6.484 19.5,7.5 11.705,1.073 23.371,2.24 35,3.5 11.362,-0.457 22.695,-1.291 34,-2.5 6.265,-0.733 12.265,-2.399 18,-5 1.966,-1.46 3.632,-3.127 5,-5 -0.403,-1.473 -1.07,-2.806 -2,-4 -2.213,-1.616 -4.547,-2.783 -7,-3.5 4.637,-5.606 7.971,-11.939 10,-19 15.491,-0.996 31.158,-1.33 47,-1 0,16.333 0,32.667 0,49 -150.667,0 -301.333,0 -452,0 0,-16.333 0,-32.667 0,-49 z"
       id="path839" />
  </g>
  <g
     id="g847"
     transform="translate(-41.5,-274.5)">
    <path
       style="opacity:1"
       fill="#3b2f2d"
       d="m 382.5,418.5 c -0.505,3.341 -0.672,6.674 -0.5,10 1.558,0.845 2.558,0.179 3,-2 -0.274,-6.601 0.893,-6.601 3.5,0 -1.333,0 -2,0.667 -2,2 -0.978,0.311 -1.645,0.978 -2,2 2.339,4.002 5.339,7.335 9,10 3.963,0.94 7.963,1.107 12,0.5 6.271,-5.415 5.271,-8.748 -3,-10 2.877,-0.725 5.543,-0.225 8,1.5 0.667,-3.477 1.334,-6.811 2,-10 0.829,2.969 0.995,5.969 0.5,9 -1.368,2.686 -2.701,5.353 -4,8 -2.305,2.316 -5.138,3.65 -8.5,4 1.571,2.382 2.404,5.049 2.5,8 2.667,-2.667 5.333,-5.333 8,-8 1.419,-6.057 3.586,-11.724 6.5,-17 -1.404,4.781 -2.738,9.614 -4,14.5 0.145,0.772 0.478,1.439 1,2 -5.483,4.649 -10.816,9.482 -16,14.5 -2.85,2.365 -4.684,5.365 -5.5,9 -0.658,-3.525 0.509,-6.359 3.5,-8.5 -7.798,-1.854 -12.964,0.979 -15.5,8.5 -4.136,3.295 -7.302,7.295 -9.5,12 -0.992,1.956 -1.992,3.956 -3,6 -0.667,-0.333 -1.333,-0.667 -2,-1 -0.235,0.597 -0.735,0.93 -1.5,1 -1.643,-0.815 -3.143,-1.815 -4.5,-3 -2.996,-2.997 -4.663,-6.664 -5,-11 3.599,1.14 7.266,1.64 11,1.5 3.097,-5.138 6.097,-10.305 9,-15.5 -5.866,-1.9 -11.866,-2.4 -18,-1.5 -1.408,3.339 -3.408,6.173 -6,8.5 0.251,-1.67 0.918,-3.17 2,-4.5 -2.069,-1.523 -4.403,-2.357 -7,-2.5 0.384,3.989 -0.283,7.655 -2,11 -0.25,-5.08 0.25,-10.08 1.5,-15 1.932,-1.538 4.099,-2.705 6.5,-3.5 1.333,-1.667 2.667,-3.333 4,-5 3.3,0.046 6.634,0.212 10,0.5 1.711,-7.46 5.711,-8.794 12,-4 1.671,-2.01 2.338,-4.343 2,-7 -1,0 -2,0 -3,0 0.976,-1.315 1.976,-2.648 3,-4 -0.825,-0.886 -1.825,-1.219 -3,-1 0.709,-0.904 1.709,-1.237 3,-1 0.237,-1.291 -0.096,-2.291 -1,-3 0.734,-1.208 1.067,-2.541 1,-4 -2.559,0.302 -4.893,-0.032 -7,-1 3.109,0.236 6.109,-0.097 9,-1 z"
       id="path847" />
  </g>
  <g
     id="g848"
     transform="translate(-41.5,-274.5)">
    <path
       style="opacity:1"
       fill="#e6e7e7"
       d="m 355.5,447.5 c 1.621,0.287 2.621,1.287 3,3 -1.959,2.054 -3.459,4.387 -4.5,7 -2.25,-1.208 -4.417,-2.541 -6.5,-4 3.019,-1.512 5.686,-3.512 8,-6 z"
       id="path848" />
  </g>
  <g
     id="g849"
     transform="translate(-41.5,-274.5)">
    <path
       style="opacity:1"
       fill="#e3e3e2"
       d="m 377.5,464.5 c -0.848,-1.593 -2.181,-2.76 -4,-3.5 2.817,-2.638 5.15,-5.638 7,-9 1.678,0.112 3.345,0.612 5,1.5 1.555,-0.222 2.889,-0.889 4,-2 4.287,1.893 6.621,0.559 7,-4 -2.357,-0.163 -4.69,0.003 -7,0.5 -2.121,4.069 -4.954,4.569 -8.5,1.5 -1.791,1.911 -3.791,3.577 -6,5 -4.759,-1.951 -9.593,-2.284 -14.5,-1 -1.409,-2.664 -1.743,-5.331 -1,-8 2.584,0.893 5.251,1.226 8,1 0.144,-5.313 2.81,-7.479 8,-6.5 2.043,1.708 3.71,3.708 5,6 2.254,1.15 4.587,1.484 7,1 4.431,-4.354 8.931,-4.52 13.5,-0.5 0.173,8.683 -3.994,11.683 -12.5,9 -4.085,1.353 -6.751,4.019 -8,8 -0.825,0.886 -1.825,1.219 -3,1 z"
       id="path849" />
  </g>
  <g
     id="g850"
     transform="translate(-41.5,-274.5)">
    <path
       style="opacity:1"
       fill="#141511"
       d="m 371.5,443.5 c 5.499,0.577 6.499,3.244 3,8 -3.757,-1.72 -4.757,-4.387 -3,-8 z"
       id="path850" />
  </g>
  <g
     id="g851"
     transform="translate(-41.5,-274.5)">
    <path
       style="opacity:1"
       fill="#838182"
       d="m 393.5,440.5 c 0.418,0.722 1.084,1.222 2,1.5 -2.668,0.567 -5.334,1.067 -8,1.5 -0.285,-1.788 0.048,-3.455 1,-5 1.35,1.45 3.016,2.117 5,2 z"
       id="path851" />
  </g>
  <g
     id="g852"
     transform="translate(-41.5,-274.5)">
    <path
       style="opacity:1"
       fill="#b3b5b2"
       d="m 381.5,432.5 c 0.06,-0.543 0.393,-0.876 1,-1 0.98,1.481 2.147,2.815 3.5,4 0.18,1.988 0.014,3.988 -0.5,6 -1.373,-0.157 -2.707,0.01 -4,0.5 1.559,0.98 3.226,1.813 5,2.5 -1.853,1.26 -3.686,1.26 -5.5,0 -0.538,-3.312 -0.038,-6.479 1.5,-9.5 -0.028,-1.07 -0.361,-1.903 -1,-2.5 z"
       id="path852" />
  </g>
  <g
     id="g853"
     transform="translate(-41.5,-274.5)">
    <path
       style="opacity:1"
       fill="#46423e"
       d="m 388.5,426.5 c 4.979,2.154 9.979,4.321 15,6.5 0.589,1.873 -0.078,3.54 -2,5 -6.103,-1.24 -11.103,-4.407 -15,-9.5 3.55,1.788 7.217,2.955 11,3.5 -3.398,-1.357 -6.398,-3.19 -9,-5.5 z"
       id="path853" />
  </g>
  <g
     id="g854"
     transform="translate(-41.5,-274.5)">
    <path
       style="opacity:1"
       fill="#ae9b92"
       d="m 388.5,426.5 c 2.602,2.31 5.602,4.143 9,5.5 -3.783,-0.545 -7.45,-1.712 -11,-3.5 0,-1.333 0.667,-2 2,-2 z"
       id="path854" />
  </g>
  <g
     id="g866"
     transform="translate(-41.5,-274.5)">
    <path
       style="opacity:1"
       fill="#272523"
       d="m 149.5,400.5 c -2.424,0.53 -4.757,1.364 -7,2.5 2.639,0.588 4.973,0.088 7,-1.5 2.398,-0.241 4.398,0.426 6,2 -4.463,-0.077 -8.796,0.59 -13,2 0,1 0,2 0,3 3.385,-0.346 6.718,-1.012 10,-2 1.8,0.402 3.467,1.069 5,2 0.528,1.221 1.195,2.387 2,3.5 4.622,1.156 9.289,1.99 14,2.5 0.891,-0.61 1.891,-0.943 3,-1 -0.111,0.617 -0.444,1.117 -1,1.5 -1.333,0.167 -2.667,0.333 -4,0.5 -2.37,-0.424 -4.704,-0.591 -7,-0.5 5.416,3.369 11.083,6.369 17,9 9.696,6.197 15.029,15.03 16,26.5 4.667,0 9.333,0 14,0 2.029,-24.246 13.696,-42.079 35,-53.5 -4.396,-2.527 -8.729,-5.027 -13,-7.5 8.218,1.711 14.718,6.044 19.5,13 1.039,-1.21 2.206,-2.21 3.5,-3 -0.335,1.164 -0.335,2.497 0,4 -1.468,2.111 -1.135,3.944 1,5.5 2.893,1.149 5.893,1.649 9,1.5 0,-1.667 0,-3.333 0,-5 -3.331,0.482 -5.997,-0.518 -8,-3 1.034,-3.815 3.367,-4.815 7,-3 1.453,1.349 2.453,3.015 3,5 -2.08,11.733 2.42,15.066 13.5,10 0.167,-0.833 0.333,-1.667 0.5,-2.5 -1.369,-3.714 -2.036,-7.547 -2,-11.5 0.992,0.172 1.658,-0.162 2,-1 2.88,-0.467 5.213,0.366 7,2.5 -1.396,2.235 -3.396,3.402 -6,3.5 -0.285,1.788 0.048,3.455 1,5 6.856,0.647 9.689,-2.353 8.5,-9 -2.369,-1.427 -2.869,-3.261 -1.5,-5.5 -3.047,-0.092 -6.047,0.408 -9,1.5 -0.333,-0.333 -0.667,-0.667 -1,-1 3.931,-0.6 7.598,-1.933 11,-4 0.814,2.266 1.314,4.6 1.5,7 0.414,0.457 0.914,0.791 1.5,1 3.337,-3.837 7.004,-7.337 11,-10.5 2.333,-1.167 4.667,-2.333 7,-3.5 1.334,-2.318 0.668,-3.985 -2,-5 1.829,-0.782 3.329,-0.116 4.5,2 0.383,-0.556 0.883,-0.889 1.5,-1 -0.251,1.67 -0.918,3.17 -2,4.5 -7.037,2.88 -12.703,7.38 -17,13.5 16.35,12.699 25.35,29.366 27,50 1.667,0 3.333,0 5,0 0.865,-16.528 9.198,-27.195 25,-32 -3.111,2.059 -6.444,3.892 -10,5.5 -14.404,12.522 -17.571,27.356 -9.5,44.5 3.104,1.486 5.938,1.153 8.5,-1 -0.184,2.821 1.149,4.488 4,5 0.818,-2.607 1.318,-5.274 1.5,-8 0.383,-0.556 0.883,-0.889 1.5,-1 -1.241,4.677 -1.241,9.343 0,14 -1.373,-0.157 -2.707,0.01 -4,0.5 4.018,2.226 8.185,4.059 12.5,5.5 0.464,-0.594 0.631,-1.261 0.5,-2 1.357,1.185 2.857,2.185 4.5,3 0.765,-0.07 1.265,-0.403 1.5,-1 0.667,0.333 1.333,0.667 2,1 17.626,3.395 34.959,2.229 52,-3.5 13.926,-5.735 22.259,-15.902 25,-30.5 -0.237,1.291 0.096,2.291 1,3 -2.029,7.061 -5.363,13.394 -10,19 -11.522,9.568 -24.855,14.734 -40,15.5 -19.045,1.639 -37.045,-1.861 -54,-10.5 0,-0.667 0.333,-1 1,-1 2.104,0.299 4.104,-0.034 6,-1 -3.416,-3.737 -7.416,-5.07 -12,-4 -1.333,0 -2.667,0 -4,0 0,1 0,2 0,3 -2.584,-1.919 -2.25,-3.586 1,-5 -2.985,-5.285 -4.318,-10.952 -4,-17 -1.667,0 -3.333,0 -5,0 0.087,6.65 -1.247,12.984 -4,19 -7.772,9.289 -17.772,14.123 -30,14.5 0.857,-0.689 1.523,-1.522 2,-2.5 -0.956,-1.575 -1.623,-3.242 -2,-5 1.441,1.87 3.107,3.537 5,5 14.731,-1.739 23.731,-9.739 27,-24 1.9,-22.378 -5.767,-40.878 -23,-55.5 -1.717,-1.559 -3.717,-2.392 -6,-2.5 -0.699,4.065 -0.699,8.065 0,12 -2.869,-3.012 -4.202,-2.345 -4,2 -3.662,-0.466 -6.995,0.201 -10,2 -0.667,0.333 -1.333,0.667 -2,1 -1.628,-1.353 -2.962,-1.019 -4,1 -0.901,0.79 -1.568,1.79 -2,3 -4.689,3.729 -9.856,4.729 -15.5,3 -0.494,-1.634 -0.66,-3.301 -0.5,-5 -1.459,-0.067 -2.792,0.266 -4,1 0,-0.333 0,-0.667 0,-1 -3.034,-4.872 -2.368,-9.205 2,-13 -0.5,-1 -1,-2 -1.5,-3 -1.748,-2.084 -3.582,-4.084 -5.5,-6 -18.256,9.161 -29.256,23.827 -33,44 -3.137,25.852 8.197,39.518 34,41 4.265,4.207 7.598,3.54 10,-2 1.56,-2.454 2.56,-5.12 3,-8 -5.682,-0.17 -9.015,2.497 -10,8 -0.667,0.333 -1.333,0.667 -2,1 0.393,-1.784 1.059,-3.45 2,-5 2.118,-5.8 0.951,-10.8 -3.5,-15 -0.822,-2.617 -1.322,-5.284 -1.5,-8 2.007,-6.055 4.174,-12.055 6.5,-18 1.488,-1.66 3.321,-2.66 5.5,-3 1.915,-0.284 3.581,0.049 5,1 -3.102,-0.346 -5.935,0.321 -8.5,2 -0.167,0.833 -0.333,1.667 -0.5,2.5 2.055,4.103 4.388,8.103 7,12 3.203,-0.609 6.536,-1.109 10,-1.5 1.667,0.167 3.333,0.333 5,0.5 1.762,2.078 3.762,2.578 6,1.5 0.333,0 0.667,0 1,0 0.149,1.052 -0.017,2.052 -0.5,3 -7.209,-3.27 -14.709,-3.937 -22.5,-2 -1.897,-2.733 -3.23,-2.4 -4,1 0.247,1.213 0.914,1.88 2,2 -0.992,3.279 -1.159,6.612 -0.5,10 1.5,3 3,6 4.5,9 -0.228,1.707 -0.562,3.374 -1,5 -1.225,1.437 -2.225,3.104 -3,5 9,1.333 18,1.333 27,0 -0.627,-0.917 -0.961,-1.917 -1,-3 1,0.333 1.667,1 2,2 0.558,1.29 1.558,2.123 3,2.5 -19.642,3.001 -38.975,1.668 -58,-4 -4.417,-1.933 -8.417,-4.433 -12,-7.5 -2.063,-3.118 -3.896,-6.452 -5.5,-10 -1.015,-3.94 -1.515,-7.94 -1.5,-12 -5,0 -10,0 -15,0 -0.235,5.94 -1.569,11.607 -4,17 -2.193,1.395 -4.526,2.395 -7,3 -1.382,1.301 -3.048,2.134 -5,2.5 -0.752,0.671 -1.086,1.504 -1,2.5 -0.667,0 -1,-0.333 -1,-1 -0.295,-2.235 0.039,-4.235 1,-6 0,1 0,2 0,3 5.018,-0.702 6.351,-3.369 4,-8 0.839,1.141 1.506,2.474 2,4 1.223,1.114 2.556,1.281 4,0.5 2.152,-2.469 3.652,-5.302 4.5,-8.5 2.916,-13.25 -0.584,-24.416 -10.5,-33.5 -7.631,-3.816 -14.964,-8.149 -22,-13 -3.221,-0.477 -4.888,1.023 -5,4.5 3.998,2.262 4.998,5.595 3,10 -1.175,-0.219 -2.175,0.114 -3,1 0.746,1.236 1.079,2.57 1,4 -3.838,0.478 -7.171,-0.522 -10,-3 -1.643,-3.795 -2.309,-7.795 -2,-12 -1.051,-2.844 -1.051,-5.844 0,-9 -1.792,-0.134 -3.458,0.199 -5,1 -0.667,0.333 -1.333,0.667 -2,1 0,-0.667 0,-1.333 0,-2 1.548,-0.321 2.215,-1.321 2,-3 -2,0 -4,0 -6,0 -1,0 -2,0 -3,0 -1.452,-0.802 -3.118,-1.302 -5,-1.5 0.916,-0.278 1.582,-0.778 2,-1.5 1.459,-0.067 2.792,0.266 4,1 0.774,0.647 1.774,0.98 3,1 1.819,0.158 3.152,-0.509 4,-2 -2.243,-0.974 -4.576,-1.308 -7,-1 -10.205,1.1 -19.205,-1.567 -27,-8 0,-1.333 -0.667,-2 -2,-2 -1.485,-3.641 -2.985,-7.308 -4.5,-11 -1.7067,-0.638 -3.54,-0.638 -5.5,0 0.1547,6.451 1.8214,12.451 5,18 -0.3333,0.667 -0.6667,1.333 -1,2 -4.5472,4.553 -7.8805,9.886 -10,16 -2.1682,4.341 -3.6682,9.008 -4.5,14 -3.8675,31.137 9.6325,49.637 40.5,55.5 11.333,0.667 22.667,0.667 34,0 7.837,-1.223 15.17,-3.723 22,-7.5 1.817,-2.01 3.817,-2.343 6,-1 -18.448,9.742 -38.114,13.242 -59,10.5 -13.268,-1.802 -24.935,-6.968 -35,-15.5 -5.493,-6.321 -8.8263,-13.655 -10,-22 -13.6667,0 -27.3333,0 -41,0 0,-0.667 0,-1.333 0,-2 13.3333,0 26.6667,0 40,0 -1.2538,-18.901 4.0796,-35.568 16,-50 -2.2972,-5.859 -3.9638,-11.859 -5,-18 0,-0.333 0,-0.667 0,-1 3.4496,0.744 5.1162,-0.59 5,-4 1.623,-2.715 2.2896,-5.715 2,-9 0.2986,-3.605 1.465,-6.939 3.5,-10 7.692,-9.095 17.525,-13.762 29.5,-14 14.2,-0.278 24.034,6.056 29.5,19 2.392,8.995 2.725,17.995 1,27 -3.728,4.44 -8.228,7.774 -13.5,10 z"
       id="path866" />
  </g>
  <g
     id="g867"
     transform="translate(-41.5,-274.5)">
    <path
       style="opacity:1"
       fill="#ececed"
       d="m 184.5,465.5 c 2.351,4.631 1.018,7.298 -4,8 0,-1 0,-2 0,-3 -1.221,-3.744 -2.387,-7.41 -3.5,-11 1.441,-0.76 2.941,-1.426 4.5,-2 0.757,2.87 1.757,5.536 3,8 z"
       id="path867" />
  </g>
  <g
     id="g868"
     transform="translate(-41.5,-274.5)">
    <path
       style="opacity:1"
       fill="#efeded"
       d="m 377.5,464.5 c 0.157,1.373 -0.01,2.707 -0.5,4 -1.512,0.757 -2.846,1.757 -4,3 -1.08,2.496 -2.414,4.83 -4,7 -1.548,-1.414 -2.215,-3.08 -2,-5 2.416,-3.163 4.582,-6.496 6.5,-10 1.236,0.746 2.57,1.079 4,1 z"
       id="path868" />
  </g>
  <g
     id="g869"
     transform="translate(-41.5,-274.5)">
    <path
       style="opacity:1"
       fill="#ebebec"
       d="m 248.5,458.5 c 2.361,0.174 4.694,0.507 7,1 0.107,4.435 1.44,8.435 4,12 -1.804,1.268 -3.804,1.935 -6,2 0.163,-2.357 -0.003,-4.69 -0.5,-7 -1.777,-2.559 -3.277,-5.226 -4.5,-8 z"
       id="path869" />
  </g>
  <g
     id="g870"
     transform="translate(-41.5,-274.5)">
    <path
       style="opacity:1"
       fill="#272c2e"
       d="m 140.5,440.5 c -0.086,0.996 0.248,1.829 1,2.5 -2.333,0.333 -4.667,0.667 -7,1 1.667,0.333 3.333,0.667 5,1 -2.547,0.66 -5.047,0.493 -7.5,-0.5 -1.31,0.63 -2.144,1.63 -2.5,3 -3.582,8.589 -0.582,12.089 9,10.5 3.179,-1.452 3.345,-3.619 0.5,-6.5 -1.259,3.723 -3.592,4.723 -7,3 -0.563,-4.002 1.27,-5.669 5.5,-5 3.465,2.127 7.132,2.627 11,1.5 1.082,1.33 1.749,2.83 2,4.5 -2.268,-3.466 -4.935,-3.799 -8,-1 1.691,3.347 3.358,6.681 5,10 0,0.667 -0.333,1 -1,1 -0.34,-2.179 -1.34,-4.012 -3,-5.5 -3.382,-0.824 -6.716,-0.657 -10,0.5 0.826,0.951 0.992,1.951 0.5,3 -6.833,-6.167 -13.667,-12.333 -20.5,-18.5 1,-0.667 2,-0.667 3,0 2.833,2.833 5.667,5.667 8.5,8.5 0.375,-2.5 1.208,-4.833 2.5,-7 -1.86,-0.825 -3.526,-1.825 -5,-3 3.35,0.165 6.683,-0.002 10,-0.5 2.352,-0.24 4.352,-1.073 6,-2.5 0.651,-0.591 1.318,-1.257 2,-2 0.963,0.47 0.963,1.137 0,2 z"
       id="path870" />
  </g>
  <g
     id="g871"
     transform="translate(-41.5,-274.5)">
    <path
       style="opacity:1"
       fill="#d4615c"
       d="m 360.5,481.5 c 0.131,0.739 -0.036,1.406 -0.5,2 -4.315,-1.441 -8.482,-3.274 -12.5,-5.5 1.293,-0.49 2.627,-0.657 4,-0.5 -1.241,-4.657 -1.241,-9.323 0,-14 2.592,-2.327 4.592,-5.161 6,-8.5 6.134,-0.9 12.134,-0.4 18,1.5 -2.903,5.195 -5.903,10.362 -9,15.5 -3.734,0.14 -7.401,-0.36 -11,-1.5 0.337,4.336 2.004,8.003 5,11 z"
       id="path871" />
  </g>
  <g
     id="g872"
     transform="translate(-41.5,-274.5)">
    <path
       style="opacity:1"
       fill="#ebe8e5"
       d="m 351.5,463.5 c -0.617,0.111 -1.117,0.444 -1.5,1 -0.182,2.726 -0.682,5.393 -1.5,8 -2.851,-0.512 -4.184,-2.179 -4,-5 1.717,-3.345 2.384,-7.011 2,-11 2.597,0.143 4.931,0.977 7,2.5 -1.082,1.33 -1.749,2.83 -2,4.5 z"
       id="path872" />
  </g>
  <g
     id="g873"
     transform="translate(-41.5,-274.5)">
    <path
       style="opacity:1"
       fill="#384043"
       d="m 161.5,431.5 c 1.025,0.874 1.692,2.041 2,3.5 -1.276,2.281 -2.943,4.281 -5,6 3.473,4.423 8.14,6.59 14,6.5 1.71,1.387 3.377,2.721 5,4 1.984,-0.117 3.65,0.55 5,2 1.645,3.825 2.312,7.825 2,12 -1.243,-2.464 -2.243,-5.13 -3,-8 -1.559,0.574 -3.059,1.24 -4.5,2 1.113,3.59 2.279,7.256 3.5,11 -0.961,1.765 -1.295,3.765 -1,6 -0.333,0 -0.667,0 -1,0 0.165,-3.018 -0.002,-6.018 -0.5,-9 -2.393,-3.452 -4.226,-7.119 -5.5,-11 -4.346,-0.166 -8.679,10e-4 -13,0.5 -2.073,0.118 -3.407,1.118 -4,3 0.816,4.633 3.15,8.299 7,11 2.732,0.154 5.398,-0.346 8,-1.5 1.645,4.38 0.645,8.047 -3,11 -1.854,3.263 -4.52,4.263 -8,3 -2.347,-3.361 -4.181,-7.028 -5.5,-11 -2.86,-2.002 -5.36,-4.335 -7.5,-7 0.667,0 1,-0.333 1,-1 1.981,-1.644 3.981,-3.31 6,-5 -1.788,-0.783 -2.788,-2.116 -3,-4 1.467,0.394 2.967,0.727 4.5,1 3.925,-1.717 8.092,-2.384 12.5,-2 2.666,-1.672 3.333,-4.006 2,-7 -3.429,0.407 -6.595,1.407 -9.5,3 0.305,-1.943 0.305,-3.943 0,-6 -0.739,-1.074 -1.739,-1.741 -3,-2 -3.048,0.501 -5.548,1.834 -7.5,4 -3.044,2.109 -6.377,2.443 -10,1 0.167,-0.333 0.333,-0.667 0.5,-1 2.274,1.311 4.44,1.311 6.5,0 2.52,-2.177 5.186,-4.177 8,-6 -1.684,-0.65 -3.017,-1.65 -4,-3 2.945,0.968 5.945,1.134 9,0.5 1.729,-1.789 2.396,-3.956 2,-6.5 z"
       id="path873" />
  </g>
  <g
     id="g874"
     transform="translate(-41.5,-274.5)">
    <path
       style="opacity:1"
       fill="#5da4c9"
       d="m 178.5,476.5 c -0.904,0.709 -1.237,1.709 -1,3 -3.336,-0.033 -6.503,0.634 -9.5,2 -0.399,-0.228 -0.565,-0.562 -0.5,-1 3.645,-2.953 4.645,-6.62 3,-11 -2.602,1.154 -5.268,1.654 -8,1.5 -3.85,-2.701 -6.184,-6.367 -7,-11 0.593,-1.882 1.927,-2.882 4,-3 4.321,-0.499 8.654,-0.666 13,-0.5 1.274,3.881 3.107,7.548 5.5,11 0.498,2.982 0.665,5.982 0.5,9 z"
       id="path874" />
  </g>
  <g
     id="g875"
     transform="translate(-41.5,-274.5)">
    <path
       style="opacity:1"
       fill="#ecb250"
       d="m 323.5,459.5 c -3.757,4.587 -8.09,8.754 -13,12.5 -5.917,3.294 -12.25,4.794 -19,4.5 -1.226,-5.153 0.274,-9.486 4.5,-13 0.579,-2.149 1.079,-4.315 1.5,-6.5 -1.653,-2.601 -2.153,-5.435 -1.5,-8.5 1.332,-2.16 2.832,-4.16 4.5,-6 9.288,-3.504 8.621,-4.837 -2,-4 -0.166,-5.011 10e-4,-10.011 0.5,-15 0.717,-0.544 1.217,-1.211 1.5,-2 -2.073,0.8 -3.74,2.133 -5,4 0.172,-0.992 -0.162,-1.658 -1,-2 0.944,-3.499 0.944,-6.832 0,-10 -0.699,-3.935 -0.699,-7.935 0,-12 2.283,0.108 4.283,0.941 6,2.5 17.233,14.622 24.9,33.122 23,55.5 z"
       id="path875" />
  </g>
  <g
     id="g876"
     transform="translate(-41.5,-274.5)">
    <path
       style="opacity:1"
       fill="#e7e8e5"
       d="m 150.5,455.5 c 0.212,1.884 1.212,3.217 3,4 -2.019,1.69 -4.019,3.356 -6,5 -1.642,-3.319 -3.309,-6.653 -5,-10 3.065,-2.799 5.732,-2.466 8,1 z"
       id="path876" />
  </g>
  <g
     id="g877"
     transform="translate(-41.5,-274.5)">
    <path
       style="opacity:1"
       fill="#89692f"
       d="m 283.5,451.5 c 1.333,0 2.667,0 4,0 0,1 0,2 0,3 -1.291,-0.237 -2.291,0.096 -3,1 -8.683,-2.576 -17.349,-2.576 -26,0 0.667,-1 1.333,-2 2,-3 7.791,-1.937 15.291,-1.27 22.5,2 0.483,-0.948 0.649,-1.948 0.5,-3 z"
       id="path877" />
  </g>
  <g
     id="g878"
     transform="translate(-41.5,-274.5)">
    <path
       style="opacity:1"
       fill="#e7e7e4"
       d="m 177.5,451.5 c 1.265,0.979 2.599,1.979 4,3 -2.588,1.084 -4.755,2.751 -6.5,5 -0.912,-2.819 -2.078,-5.486 -3.5,-8 0.333,-0.667 0.667,-1.333 1,-2 1.35,1.45 3.016,2.117 5,2 z"
       id="path878" />
  </g>
  <g
     id="g879"
     transform="translate(-41.5,-274.5)">
    <path
       style="opacity:1"
       fill="#dddedf"
       d="m 137.5,449.5 c -4.23,-0.669 -6.063,0.998 -5.5,5 3.408,1.723 5.741,0.723 7,-3 2.845,2.881 2.679,5.048 -0.5,6.5 -9.582,1.589 -12.582,-1.911 -9,-10.5 3.002,-1.143 6.002,-1.143 9,0 -0.363,0.683 -0.696,1.35 -1,2 z"
       id="path879" />
  </g>
  <g
     id="g880"
     transform="translate(-41.5,-274.5)">
    <path
       style="opacity:1"
       fill="#dfb864"
       d="m 260.5,452.5 c -0.667,1 -1.333,2 -2,3 -1.086,-0.12 -1.753,-0.787 -2,-2 0.77,-3.4 2.103,-3.733 4,-1 z"
       id="path880" />
  </g>
  <g
     id="g881"
     transform="translate(-41.5,-274.5)">
    <path
       style="opacity:1"
       fill="#20221f"
       d="m 157.5,451.5 c -3.537,4.377 -5.537,3.71 -6,-2 3.595,-4.357 5.595,-3.691 6,2 z"
       id="path881" />
  </g>
  <g
     id="g882"
     transform="translate(-41.5,-274.5)">
    <path
       style="opacity:1"
       fill="#e4e4e6"
       d="m 250.5,443.5 c 2.299,0.638 4.466,1.638 6.5,3 -1.085,3.436 -1.585,7.102 -1.5,11 -2.333,0 -4.667,0 -7,0 1.612,-4.494 2.278,-9.161 2,-14 z"
       id="path882" />
  </g>
  <g
     id="g883"
     transform="translate(-41.5,-274.5)">
    <path
       style="opacity:1"
       fill="#b6bfc1"
       d="m 146.5,444.5 c 0,0.667 0,1.333 0,2 -2.06,1.311 -4.226,1.311 -6.5,0 -0.167,0.333 -0.333,0.667 -0.5,1 3.623,1.443 6.956,1.109 10,-1 -0.073,1.527 0.594,2.527 2,3 0.463,5.71 2.463,6.377 6,2 0.111,0.617 0.444,1.117 1,1.5 3.195,0.181 6.195,0.681 9,1.5 -4.408,-0.384 -8.575,0.283 -12.5,2 -1.533,-0.273 -3.033,-0.606 -4.5,-1 -0.251,-1.67 -0.918,-3.17 -2,-4.5 -3.868,1.127 -7.535,0.627 -11,-1.5 0.304,-0.65 0.637,-1.317 1,-2 -2.998,-1.143 -5.998,-1.143 -9,0 0.356,-1.37 1.19,-2.37 2.5,-3 2.453,0.993 4.953,1.16 7.5,0.5 -1.667,-0.333 -3.333,-0.667 -5,-1 2.333,-0.333 4.667,-0.667 7,-1 -0.752,-0.671 -1.086,-1.504 -1,-2.5 1.083,0.039 2.083,0.373 3,1 1.104,-1.131 0.771,-1.965 -1,-2.5 0.525,-0.692 1.192,-1.192 2,-1.5 1.497,3.176 0.83,5.842 -2,8 0.333,0.333 0.667,0.667 1,1 0.765,-1.112 1.765,-1.779 3,-2 z"
       id="path883" />
  </g>
  <g
     id="g884"
     transform="translate(-41.5,-274.5)">
    <path
       style="opacity:1"
       fill="#eae9e9"
       d="m 263.5,434.5 c 2.656,1.465 4.656,3.632 6,6.5 0.833,0.167 1.667,0.333 2.5,0.5 3.148,-1.804 6.315,-3.637 9.5,-5.5 5.743,-1.242 8.577,0.925 8.5,6.5 -3.462,2.293 -5.962,5.293 -7.5,9 -2.238,1.078 -4.238,0.578 -6,-1.5 -1.667,-0.167 -3.333,-0.333 -5,-0.5 -3.464,0.391 -6.797,0.891 -10,1.5 -2.612,-3.897 -4.945,-7.897 -7,-12 0.167,-0.833 0.333,-1.667 0.5,-2.5 2.565,-1.679 5.398,-2.346 8.5,-2 z"
       id="path884" />
  </g>
  <g
     id="g885"
     transform="translate(-41.5,-274.5)">
    <path
       style="opacity:1"
       fill="#5ca5c9"
       d="m 98.5,402.5 c 0.7485,1.031 1.4152,2.198 2,3.5 7.087,2.257 12.087,6.757 15,13.5 0,2 0,4 0,6 -0.728,2.579 -1.228,5.246 -1.5,8 -0.278,-0.916 -0.778,-1.582 -1.5,-2 1.258,3.194 1.924,6.527 2,10 2.827,0.084 5.494,0.75 8,2 1.474,1.175 3.14,2.175 5,3 -1.292,2.167 -2.125,4.5 -2.5,7 -2.833,-2.833 -5.667,-5.667 -8.5,-8.5 -1,-0.667 -2,-0.667 -3,0 6.833,6.167 13.667,12.333 20.5,18.5 0.492,-1.049 0.326,-2.049 -0.5,-3 3.284,-1.157 6.618,-1.324 10,-0.5 1.66,1.488 2.66,3.321 3,5.5 2.14,2.665 4.64,4.998 7.5,7 1.319,3.972 3.153,7.639 5.5,11 -20.482,2.798 -38.815,-2.035 -55,-14.5 -7.0152,-6.862 -11.8485,-15.029 -14.5,-24.5 -1.4043,-8.701 -1.9043,-17.367 -1.5,-26 2.1195,-6.114 5.4528,-11.447 10,-16 z"
       id="path885" />
  </g>
  <g
     id="g886"
     transform="translate(-41.5,-274.5)">
    <path
       style="opacity:1"
       fill="#e9e9e6"
       d="m 167.5,454.5 c -2.805,-0.819 -5.805,-1.319 -9,-1.5 -0.556,-0.383 -0.889,-0.883 -1,-1.5 -0.405,-5.691 -2.405,-6.357 -6,-2 -1.406,-0.473 -2.073,-1.473 -2,-3 1.952,-2.166 4.452,-3.499 7.5,-4 1.261,0.259 2.261,0.926 3,2 0.305,2.057 0.305,4.057 0,6 2.905,-1.593 6.071,-2.593 9.5,-3 1.333,2.994 0.666,5.328 -2,7 z"
       id="path886" />
  </g>
  <g
     id="g887"
     transform="translate(-41.5,-274.5)">
    <path
       style="opacity:1"
       fill="#191817"
       d="m 260.5,438.5 c 5.028,0.013 7.028,2.346 6,7 -5.547,0.783 -7.547,-1.55 -6,-7 z"
       id="path887" />
  </g>
  <g
     id="g888"
     transform="translate(-41.5,-274.5)">
    <path
       style="opacity:1"
       fill="#0e0d0c"
       d="m 278.5,440.5 c 2,0 4,0 6,0 0.173,4.823 -2.161,6.823 -7,6 -0.175,-2.121 0.159,-4.121 1,-6 z"
       id="path888" />
  </g>
  <g
     id="g889"
     transform="translate(-41.5,-274.5)">
    <path
       style="opacity:1"
       fill="#483e37"
       d="m 280.5,417.5 c 0.333,0.667 0.667,1.333 1,2 -2.296,0.304 -2.629,1.304 -1,3 -0.876,-0.131 -1.543,0.202 -2,1 1.304,2.63 2.97,4.963 5,7 -2.044,-0.531 -3.711,-1.698 -5,-3.5 -2.787,-0.789 -3.287,-0.289 -1.5,1.5 0.495,1.973 0.662,3.973 0.5,6 4.137,-0.354 8.137,0.146 12,1.5 2.093,3.446 4.093,6.946 6,10.5 1.105,-2.111 2.771,-3.445 5,-4 -1.668,1.84 -3.168,3.84 -4.5,6 -0.653,3.065 -0.153,5.899 1.5,8.5 -0.421,2.185 -0.921,4.351 -1.5,6.5 -4.226,3.514 -5.726,7.847 -4.5,13 0,0.667 0,1.333 0,2 -0.333,0 -0.667,0 -1,0 0.086,-0.996 -0.248,-1.829 -1,-2.5 -2.388,-0.303 -4.555,-1.137 -6.5,-2.5 -0.428,2.822 0.072,5.488 1.5,8 -0.333,0 -0.667,0 -1,0 -1.123,-2.081 -2.123,-4.247 -3,-6.5 5.054,-5.165 6.887,-11.332 5.5,-18.5 -0.383,-0.556 -0.883,-0.889 -1.5,-1 0.709,-0.904 1.709,-1.237 3,-1 0,-1 0,-2 0,-3 -1.333,0 -2.667,0 -4,0 -0.333,0 -0.667,0 -1,0 1.538,-3.707 4.038,-6.707 7.5,-9 0.077,-5.575 -2.757,-7.742 -8.5,-6.5 -3.185,1.863 -6.352,3.696 -9.5,5.5 -0.833,-0.167 -1.667,-0.333 -2.5,-0.5 -1.344,-2.868 -3.344,-5.035 -6,-6.5 -1.419,-0.951 -3.085,-1.284 -5,-1 -2.262,-1.396 -4.429,-3.063 -6.5,-5 -0.796,-2.539 -0.629,-4.872 0.5,-7 -0.673,6.66 2.327,9.66 9,9 5.362,-0.014 9.695,-2.181 13,-6.5 -0.336,-1.03 -1.003,-1.53 -2,-1.5 0.432,-1.21 1.099,-2.21 2,-3 0.683,1.676 2.017,2.343 4,2 0,-1 0,-2 0,-3 0.667,-0.333 1.333,-0.667 2,-1 z"
       id="path889" />
  </g>
  <g
     id="g890"
     transform="translate(-41.5,-274.5)">
    <path
       style="opacity:1"
       fill="#efedee"
       d="m 288.5,460.5 c 2.424,-0.308 4.757,0.026 7,1 -3.413,3.957 -6.08,8.29 -8,13 -1.172,-0.419 -2.172,-1.085 -3,-2 2.339,-3.684 3.672,-7.684 4,-12 z"
       id="path890" />
  </g>
  <g
     id="g891"
     transform="translate(-41.5,-274.5)">
    <path
       style="opacity:1"
       fill="#ebeae9"
       d="m 291.5,444.5 c 1.149,0.291 1.816,1.124 2,2.5 0.568,4.029 1.568,7.862 3,11.5 -2.667,0 -5.333,0 -8,0 0.592,-4.261 0.592,-8.594 0,-13 1.291,0.237 2.291,-0.096 3,-1 z"
       id="path891" />
  </g>
  <g
     id="g892"
     transform="translate(-41.5,-274.5)">
    <path
       style="opacity:1"
       fill="#517388"
       d="m 150.5,437.5 c 0.983,1.35 2.316,2.35 4,3 -2.814,1.823 -5.48,3.823 -8,6 0,-0.667 0,-1.333 0,-2 1.007,-2.881 1.174,-5.881 0.5,-9 0.816,1.323 1.983,1.989 3.5,2 z"
       id="path892" />
  </g>
  <g
     id="g893"
     transform="translate(-41.5,-274.5)">
    <path
       style="opacity:1"
       fill="#dbdcda"
       d="m 275.5,435.5 c 0.423,2.743 -0.744,4.076 -3.5,4 -1.376,-0.184 -2.209,-0.851 -2.5,-2 2.218,-0.114 4.218,-0.78 6,-2 z"
       id="path893" />
  </g>
  <g
     id="g894"
     transform="translate(-41.5,-274.5)">
    <path
       style="opacity:1"
       fill="#eaeaea"
       d="m 160.5,429.5 c -0.172,0.992 0.162,1.658 1,2 0.396,2.544 -0.271,4.711 -2,6.5 -3.055,0.634 -6.055,0.468 -9,-0.5 -1,-1.333 -2,-2.667 -3,-4 -0.172,-0.992 0.162,-1.658 1,-2 2.829,2.478 6.162,3.478 10,3 0.079,-1.43 -0.254,-2.764 -1,-4 0.825,-0.886 1.825,-1.219 3,-1 z"
       id="path894" />
  </g>
  <g
     id="g895"
     transform="translate(-41.5,-274.5)">
    <path
       style="opacity:1"
       fill="#cd8d40"
       d="m 300.5,421.5 c -0.283,0.789 -0.783,1.456 -1.5,2 -0.499,4.989 -0.666,9.989 -0.5,15 10.621,-0.837 11.288,0.496 2,4 -2.229,0.555 -3.895,1.889 -5,4 -1.907,-3.554 -3.907,-7.054 -6,-10.5 -3.863,-1.354 -7.863,-1.854 -12,-1.5 0.162,-2.027 -0.005,-4.027 -0.5,-6 -1.787,-1.789 -1.287,-2.289 1.5,-1.5 1.289,1.802 2.956,2.969 5,3.5 0.342,0.838 1.008,1.172 2,1 6.041,2.638 9.374,0.638 10,-6 1.26,-1.867 2.927,-3.2 5,-4 z"
       id="path895" />
  </g>
  <g
     id="g896"
     transform="translate(-41.5,-274.5)">
    <path
       style="opacity:1"
       fill="#878790"
       d="m 275.5,435.5 c -1.782,1.22 -3.782,1.886 -6,2 1.102,-1.592 0.435,-2.425 -2,-2.5 0.667,-0.333 1.333,-0.667 2,-1 -0.951,-0.718 -1.117,-1.551 -0.5,-2.5 1.897,-2.165 4.064,-2.832 6.5,-2 -2.242,2.295 -2.242,4.295 0,6 z"
       id="path896" />
  </g>
  <g
     id="g897"
     transform="translate(-41.5,-274.5)">
    <path
       style="opacity:1"
       fill="#da9c45"
       d="m 252.5,420.5 c 0,0.333 0,0.667 0,1 -1.129,2.128 -1.296,4.461 -0.5,7 2.071,1.937 4.238,3.604 6.5,5 -2.179,0.34 -4.012,1.34 -5.5,3 -2.326,5.945 -4.493,11.945 -6.5,18 0,-1 0,-2 0,-3 0.543,-0.06 0.876,-0.393 1,-1 -2.285,-4.235 -4.285,-8.569 -6,-13 1.449,-4.964 3.615,-9.631 6.5,-14 0.908,-1.939 2.408,-2.939 4.5,-3 z"
       id="path897" />
  </g>
  <g
     id="g898"
     transform="translate(-41.5,-274.5)">
    <path
       style="opacity:1"
       fill="#7c8288"
       d="m 115.5,419.5 c 0.802,1.452 1.302,3.118 1.5,5 0.494,-1.634 0.66,-3.301 0.5,-5 1,0 2,0 3,0 -0.165,3.35 0.002,6.683 0.5,10 0.122,1.937 0.955,3.27 2.5,4 0,2 0,4 0,6 -2.306,0.493 -4.639,0.826 -7,1 -0.458,-2.894 0.209,-5.394 2,-7.5 -1.52,-2.334 -2.52,-4.834 -3,-7.5 0,-2 0,-4 0,-6 z"
       id="path898" />
  </g>
  <g
     id="g899"
     transform="translate(-41.5,-274.5)">
    <path
       style="opacity:1"
       fill="#473a28"
       d="m 241.5,437.5 c 1.715,4.431 3.715,8.765 6,13 -0.124,0.607 -0.457,0.94 -1,1 -2.233,-4.799 -4.733,-9.465 -7.5,-14 -2.469,-2.152 -5.302,-3.652 -8.5,-4.5 4.313,-0.18 7.98,1.32 11,4.5 z"
       id="path899" />
  </g>
  <g
     id="g900"
     transform="translate(-41.5,-274.5)">
    <path
       style="opacity:1"
       fill="#7797ae"
       d="m 146.5,419.5 c -0.309,4.205 0.357,8.205 2,12 -0.838,0.342 -1.172,1.008 -1,2 -2.044,0.531 -3.711,1.698 -5,3.5 -1.333,0.667 -2.667,0.667 -4,0 4.536,-1.724 6.869,-5.057 7,-10 -1.411,-5.142 -2.744,-10.309 -4,-15.5 1.542,-0.801 3.208,-1.134 5,-1 -1.051,3.156 -1.051,6.156 0,9 z"
       id="path900" />
  </g>
  <g
     id="g901"
     transform="translate(-41.5,-274.5)">
    <path
       style="opacity:1"
       fill="#2e2418"
       d="m 294.5,423.5 c 0.838,0.342 1.172,1.008 1,2 -0.626,6.638 -3.959,8.638 -10,6 6.127,0.873 9.127,-1.793 9,-8 z"
       id="path901" />
  </g>
  <g
     id="g902"
     transform="translate(-41.5,-274.5)">
    <path
       style="opacity:1"
       fill="#e9e8e7"
       d="m 256.5,420.5 c -0.16,1.699 0.006,3.366 0.5,5 5.644,1.729 10.811,0.729 15.5,-3 0.997,-0.03 1.664,0.47 2,1.5 -3.305,4.319 -7.638,6.486 -13,6.5 -6.673,0.66 -9.673,-2.34 -9,-9 1.208,-0.734 2.541,-1.067 4,-1 z"
       id="path902" />
  </g>
  <g
     id="g903"
     transform="translate(-41.5,-274.5)">
    <path
       style="opacity:1"
       fill="#2e4554"
       d="m 112.5,431.5 c -2.171,-2 -4.504,-3.834 -7,-5.5 3.604,0.094 5.937,1.927 7,5.5 z"
       id="path903" />
  </g>
  <g
     id="g904"
     transform="translate(-41.5,-274.5)">
    <path
       style="opacity:1"
       fill="#e7e8e7"
       d="m 157.5,419.5 c 4.04,8.47 1.373,11.303 -8,8.5 -0.857,-0.689 -1.523,-1.522 -2,-2.5 3,-0.667 6,-1.333 9,-2 -2.913,-2.401 -2.579,-3.734 1,-4 z"
       id="path904" />
  </g>
  <g
     id="g905"
     transform="translate(-41.5,-274.5)">
    <path
       style="opacity:1"
       fill="#a49fa1"
       d="m 269.5,420.5 c 1.879,-0.107 2.212,0.393 1,1.5 -3.102,2.036 -6.435,3.036 -10,3 3.061,-1.53 6.061,-3.03 9,-4.5 z"
       id="path905" />
  </g>
  <g
     id="g906"
     transform="translate(-41.5,-274.5)">
    <path
       style="opacity:1"
       fill="#5ca3c5"
       d="m 184.5,465.5 c 0.312,-4.175 -0.355,-8.175 -2,-12 -1.35,-1.45 -3.016,-2.117 -5,-2 -1.623,-1.279 -3.29,-2.613 -5,-4 -5.86,0.09 -10.527,-2.077 -14,-6.5 2.057,-1.719 3.724,-3.719 5,-6 -0.308,-1.459 -0.975,-2.626 -2,-3.5 -0.838,-0.342 -1.172,-1.008 -1,-2 1.998,-4.405 0.998,-7.738 -3,-10 0.112,-3.477 1.779,-4.977 5,-4.5 7.036,4.851 14.369,9.184 22,13 9.916,9.084 13.416,20.25 10.5,33.5 -0.848,3.198 -2.348,6.031 -4.5,8.5 -1.444,0.781 -2.777,0.614 -4,-0.5 -0.494,-1.526 -1.161,-2.859 -2,-4 z"
       id="path906" />
  </g>
  <g
     id="g907"
     transform="translate(-41.5,-274.5)">
    <path
       style="opacity:1"
       fill="#1e1b1b"
       d="m 281.5,419.5 c 2.808,1.429 5.808,2.095 9,2 0.253,2.327 -0.414,4.327 -2,6 -3.031,-1.177 -5.698,-2.844 -8,-5 -1.629,-1.696 -1.296,-2.696 1,-3 z"
       id="path907" />
  </g>
  <g
     id="g908"
     transform="translate(-41.5,-274.5)">
    <path
       style="opacity:1"
       fill="#eeb452"
       d="m 252.5,420.5 c -2.092,0.061 -3.592,1.061 -4.5,3 -2.885,4.369 -5.051,9.036 -6.5,14 -3.02,-3.18 -6.687,-4.68 -11,-4.5 3.198,0.848 6.031,2.348 8.5,4.5 2.767,4.535 5.267,9.201 7.5,14 0,1 0,2 0,3 0.178,2.716 0.678,5.383 1.5,8 4.451,4.2 5.618,9.2 3.5,15 -15.484,-0.322 -27.317,-6.989 -35.5,-20 -1.325,-4.901 -1.825,-9.901 -1.5,-15 3.744,-20.173 14.744,-34.839 33,-44 1.918,1.916 3.752,3.916 5.5,6 0.5,1 1,2 1.5,3 -4.368,3.795 -5.034,8.128 -2,13 z"
       id="path908" />
  </g>
  <g
     id="g909"
     transform="translate(-41.5,-274.5)">
    <path
       style="opacity:1"
       fill="#e2e1da"
       d="m 278.5,418.5 c 0,1 0,2 0,3 -1.983,0.343 -3.317,-0.324 -4,-2 1.038,-2.019 2.372,-2.353 4,-1 z"
       id="path909" />
  </g>
  <g
     id="g910"
     transform="translate(-41.5,-274.5)">
    <path
       style="opacity:1"
       fill="#654d2c"
       d="m 300.5,421.5 c 1.165,-1.916 2.832,-2.749 5,-2.5 -1.41,1.372 -3.077,2.205 -5,2.5 z"
       id="path910" />
  </g>
  <g
     id="g911"
     transform="translate(-41.5,-274.5)">
    <path
       style="opacity:1"
       fill="#3b3222"
       d="m 294.5,413.5 c 0.944,3.168 0.944,6.501 0,10 -3.595,-1.405 -3.762,-3.072 -0.5,-5 0.494,-1.634 0.66,-3.301 0.5,-5 z"
       id="path911" />
  </g>
  <g
     id="g912"
     transform="translate(-41.5,-274.5)">
    <path
       style="opacity:1"
       fill="#e7e6e6"
       d="m 256.5,420.5 c -4.617,-3.039 -5.117,-6.706 -1.5,-11 1.319,1.75 1.819,3.75 1.5,6 4.014,-0.166 8.014,10e-4 12,0.5 1,0.833 2,1.667 3,2.5 -4.854,1.653 -9.854,2.319 -15,2 z"
       id="path912" />
  </g>
  <g
     id="g913"
     transform="translate(-41.5,-274.5)">
    <path
       style="opacity:1"
       fill="#e3e1e0"
       d="m 294.5,413.5 c 0.16,1.699 -0.006,3.366 -0.5,5 -3.262,1.928 -3.095,3.595 0.5,5 0.127,6.207 -2.873,8.873 -9,8 -0.992,0.172 -1.658,-0.162 -2,-1 -2.03,-2.037 -3.696,-4.37 -5,-7 0.457,-0.798 1.124,-1.131 2,-1 2.302,2.156 4.969,3.823 8,5 1.586,-1.673 2.253,-3.673 2,-6 -3.192,0.095 -6.192,-0.571 -9,-2 -0.333,-0.667 -0.667,-1.333 -1,-2 3.005,-1.799 6.338,-2.466 10,-2 -0.202,-4.345 1.131,-5.012 4,-2 z"
       id="path913" />
  </g>
  <g
     id="g914"
     transform="translate(-41.5,-274.5)">
    <path
       style="opacity:1"
       fill="#e2dfde"
       d="m 146.5,419.5 c -0.203,-1.89 0.463,-3.39 2,-4.5 2.508,-0.115 4.508,-1.115 6,-3 -0.598,-1.301 -1.598,-2.135 -3,-2.5 -1.109,1.09 -2.109,1.09 -3,0 7.377,-2.454 9.877,-0.121 7.5,7 -2.642,2.529 -5.808,3.529 -9.5,3 z"
       id="path914" />
  </g>
  <g
     id="g915"
     transform="translate(-41.5,-274.5)">
    <path
       style="opacity:1"
       fill="#92775d"
       d="m 276.5,397.5 c 1.295,0.988 2.628,1.988 4,3 -0.036,3.953 0.631,7.786 2,11.5 -0.167,0.833 -0.333,1.667 -0.5,2.5 -11.08,5.066 -15.58,1.733 -13.5,-10 0.333,0 0.667,0 1,0 2.552,4.076 4.552,3.742 6,-1 -0.333,-1 -0.667,-2 -1,-3 -0.667,1.333 -1.333,2.667 -2,4 -0.765,-1.112 -1.765,-1.779 -3,-2 0.315,-4.3 2.649,-5.967 7,-5 z"
       id="path915" />
  </g>
  <g
     id="g916"
     transform="translate(-41.5,-274.5)">
    <path
       style="opacity:1"
       fill="#e7e6de"
       d="m 157.5,406.5 c 4.474,2.307 9.141,2.64 14,1 0,1 0,2 0,3 1.306,0.967 1.973,2.301 2,4 -4.711,-0.51 -9.378,-1.344 -14,-2.5 -0.805,-1.113 -1.472,-2.279 -2,-3.5 0,-0.667 0,-1.333 0,-2 z"
       id="path916" />
  </g>
  <g
     id="g917"
     transform="translate(-41.5,-274.5)">
    <path
       style="opacity:1"
       fill="#3c3f44"
       d="m 104.5,393.5 c 1.333,0 2,0.667 2,2 0.057,1.109 0.39,2.109 1,3 -2.519,1.318 -4.852,2.985 -7,5 7.177,3.171 12.844,8.171 17,15 0.667,-0.333 1.333,-0.667 2,-1 0.98,-2.586 1.313,-5.253 1,-8 -5.706,-0.703 -9.706,-3.703 -12,-9 3.066,3.232 6.566,5.899 10.5,8 1.474,-2.416 3.64,-3.416 6.5,-3 1.273,0.577 1.273,1.243 0,2 -1.363,-1.379 -2.363,-1.213 -3,0.5 0.51,1.826 1.344,1.993 2.5,0.5 1.418,1.863 3.251,2.363 5.5,1.5 1.256,-0.417 1.923,-1.25 2,-2.5 1,0 2,0 3,0 0,1 0,2 0,3 1.333,0 2.667,0 4,0 0,0.667 0,1.333 0,2 0.667,-0.333 1.333,-0.667 2,-1 1.256,5.191 2.589,10.358 4,15.5 -0.131,4.943 -2.464,8.276 -7,10 1.333,0.667 2.667,0.667 4,0 1.289,-1.802 2.956,-2.969 5,-3.5 1,1.333 2,2.667 3,4 -1.517,-0.011 -2.684,-0.677 -3.5,-2 0.674,3.119 0.507,6.119 -0.5,9 -1.235,0.221 -2.235,0.888 -3,2 -0.333,-0.333 -0.667,-0.667 -1,-1 2.83,-2.158 3.497,-4.824 2,-8 -0.808,0.308 -1.475,0.808 -2,1.5 1.771,0.535 2.104,1.369 1,2.5 -0.917,-0.627 -1.917,-0.961 -3,-1 0.963,-0.863 0.963,-1.53 0,-2 -0.682,0.743 -1.349,1.409 -2,2 -0.291,-1.149 -1.124,-1.816 -2.5,-2 -4.733,1.359 -9.566,2.359 -14.5,3 0.363,0.683 0.696,1.35 1,2 -2.506,-1.25 -5.173,-1.916 -8,-2 -0.076,-3.473 -0.742,-6.806 -2,-10 0.722,0.418 1.222,1.084 1.5,2 0.272,-2.754 0.772,-5.421 1.5,-8 0.48,2.666 1.48,5.166 3,7.5 -1.791,2.106 -2.458,4.606 -2,7.5 2.361,-0.174 4.694,-0.507 7,-1 0,-2 0,-4 0,-6 -1.545,-0.73 -2.378,-2.063 -2.5,-4 -0.498,-3.317 -0.665,-6.65 -0.5,-10 -1,0 -2,0 -3,0 0.16,1.699 -0.006,3.366 -0.5,5 -0.198,-1.882 -0.698,-3.548 -1.5,-5 -2.913,-6.743 -7.913,-11.243 -15,-13.5 -0.5848,-1.302 -1.2515,-2.469 -2,-3.5 0.3333,-0.667 0.6667,-1.333 1,-2 0.739,0.131 1.406,-0.036 2,-0.5 -0.752,-0.671 -1.086,-1.504 -1,-2.5 0.667,0 1,-0.333 1,-1 0.768,0.763 1.268,1.763 1.5,3 1.319,-1.75 1.819,-3.75 1.5,-6 z"
       id="path917" />
  </g>
  <g
     id="g918"
     transform="translate(-41.5,-274.5)">
    <path
       style="opacity:1"
       fill="#acaeaf"
       d="m 138.5,440.5 c -1.648,1.427 -3.648,2.26 -6,2.5 -3.317,0.498 -6.65,0.665 -10,0.5 -0.304,-0.65 -0.637,-1.317 -1,-2 4.934,-0.641 9.767,-1.641 14.5,-3 1.376,0.184 2.209,0.851 2.5,2 z"
       id="path918" />
  </g>
  <g
     id="g919"
     transform="translate(-41.5,-274.5)">
    <path
       style="opacity:1"
       fill="#90979d"
       d="m 136.5,433.5 c 1.373,-0.157 2.707,0.01 4,0.5 -3.219,2.076 -6.719,3.576 -10.5,4.5 -1.011,-0.392 -1.511,-1.059 -1.5,-2 -2.647,2.68 -3.98,2.013 -4,-2 4.202,0.317 8.202,-0.017 12,-1 z"
       id="path919" />
  </g>
  <g
     id="g920"
     transform="translate(-41.5,-274.5)">
    <path
       style="opacity:1"
       fill="#979b9e"
       d="m 123.5,433.5 c -1.215,-4.088 0.285,-5.088 4.5,-3 5.131,-0.995 10.298,-1.662 15.5,-2 0,1 0,2 0,3 -6.592,1.322 -13.258,1.989 -20,2 z"
       id="path920" />
  </g>
  <g
     id="g921"
     transform="translate(-41.5,-274.5)">
    <path
       style="opacity:1"
       fill="#959b9f"
       d="m 122.5,410.5 c 1.195,0.366 1.861,1.199 2,2.5 -1.194,2.847 -1.194,5.68 0,8.5 6.236,2.206 12.57,2.54 19,1 0,1.333 0,2.667 0,4 -5.32,0.76 -10.653,1.427 -16,2 0.117,-1.984 -0.55,-3.65 -2,-5 -0.552,1.503 -0.552,3.169 0,5 -1,0 -2,0 -3,0 0,-6 0,-12 0,-18 z"
       id="path921" />
  </g>
  <g
     id="g922"
     transform="translate(-41.5,-274.5)">
    <path
       style="opacity:1"
       fill="#aaaeb0"
       d="m 140.5,418.5 c 2.049,0.206 2.383,1.039 1,2.5 -3.333,0.667 -6.667,0.667 -10,0 3.178,-0.66 6.178,-1.493 9,-2.5 z"
       id="path922" />
  </g>
  <g
     id="g923"
     transform="translate(-41.5,-274.5)">
    <path
       style="opacity:1"
       fill="#9b9ea0"
       d="m 138.5,414.5 c 3.833,1.167 3.833,2.333 0,3.5 -2,0.5 -4,1 -6,1.5 -1.172,-0.419 -2.172,-1.085 -3,-2 -1,0.5 -2,1 -3,1.5 1.196,0.654 1.196,1.154 0,1.5 -1.59,-4.574 -0.09,-5.907 4.5,-4 2.669,-0.516 5.169,-1.183 7.5,-2 z"
       id="path923" />
  </g>
  <g
     id="g924"
     transform="translate(-41.5,-274.5)">
    <path
       style="opacity:1"
       fill="#868f98"
       d="m 139.5,412.5 c -0.763,0.768 -1.763,1.268 -3,1.5 -3.667,0.667 -7.333,0.667 -11,0 4.472,-1.437 9.139,-1.937 14,-1.5 z"
       id="path924" />
  </g>
  <g
     id="g925"
     transform="translate(-41.5,-274.5)">
    <path
       style="opacity:1"
       fill="#b4b6b6"
       d="m 135.5,407.5 c 2,0 4,0 6,0 0.215,1.679 -0.452,2.679 -2,3 -1.333,0 -2.667,0 -4,0 0,-1 0,-2 0,-3 z"
       id="path925" />
  </g>
  <g
     id="g926"
     transform="translate(-41.5,-274.5)">
    <path
       style="opacity:1"
       fill="#7e8589"
       d="m 125.5,405.5 c 1.068,-0.934 2.401,-1.268 4,-1 -0.418,0.722 -1.084,1.222 -2,1.5 1.882,0.198 3.548,0.698 5,1.5 -0.077,1.25 -0.744,2.083 -2,2.5 -2.249,0.863 -4.082,0.363 -5.5,-1.5 -1.156,1.493 -1.99,1.326 -2.5,-0.5 0.637,-1.713 1.637,-1.879 3,-0.5 1.273,-0.757 1.273,-1.423 0,-2 z"
       id="path926" />
  </g>
  <g
     id="g927"
     transform="translate(-41.5,-274.5)">
    <path
       style="opacity:1"
       fill="#2a2825"
       d="m 155.5,403.5 c 3.019,1.368 6.019,2.702 9,4 2.58,-0.224 4.914,-0.891 7,-2 1.333,1.667 1.333,3.333 0,5 0,-1 0,-2 0,-3 -4.859,1.64 -9.526,1.307 -14,-1 -0.667,-1 -1.333,-2 -2,-3 z"
       id="path927" />
  </g>
  <g
     id="g928"
     transform="translate(-41.5,-274.5)">
    <path
       style="opacity:1"
       fill="#dedcd8"
       d="m 181.5,392.5 c 0.263,6.112 -1.07,11.779 -4,17 -0.333,-0.5 -0.667,-1 -1,-1.5 1.187,-2.724 1.853,-5.557 2,-8.5 0.417,-2.659 1.417,-4.992 3,-7 z"
       id="path928" />
  </g>
  <g
     id="g929"
     transform="translate(-41.5,-274.5)">
    <path
       style="opacity:1"
       fill="#899aad"
       d="m 155.5,403.5 c 0.667,1 1.333,2 2,3 0,0.667 0,1.333 0,2 -1.533,-0.931 -3.2,-1.598 -5,-2 -3.282,0.988 -6.615,1.654 -10,2 0,-1 0,-2 0,-3 4.204,-1.41 8.537,-2.077 13,-2 z"
       id="path929" />
  </g>
  <g
     id="g930"
     transform="translate(-41.5,-274.5)">
    <path
       style="opacity:1"
       fill="#333333"
       d="m 182.5,391.5 c 1.479,8.436 -0.521,15.769 -6,22 0.067,-1.459 -0.266,-2.792 -1,-4 -0.349,-5.508 0.317,-10.841 2,-16 0.961,1.765 1.295,3.765 1,6 -0.147,2.943 -0.813,5.776 -2,8.5 0.333,0.5 0.667,1 1,1.5 2.93,-5.221 4.263,-10.888 4,-17 0,-0.667 0.333,-1 1,-1 z"
       id="path930" />
  </g>
  <g
     id="g931"
     transform="translate(-41.5,-274.5)">
    <path
       style="opacity:1"
       fill="#f2f1f1"
       d="m 258.5,402.5 c 2.003,2.482 4.669,3.482 8,3 0,1.667 0,3.333 0,5 -3.107,0.149 -6.107,-0.351 -9,-1.5 -2.135,-1.556 -2.468,-3.389 -1,-5.5 0.667,-0.333 1.333,-0.667 2,-1 z"
       id="path931" />
  </g>
  <g
     id="g932"
     transform="translate(-41.5,-274.5)">
    <path
       style="opacity:1"
       fill="#d7d8db"
       d="m 133.5,403.5 c 2.424,-0.308 4.757,0.026 7,1 -0.848,1.491 -2.181,2.158 -4,2 -1.226,-0.02 -2.226,-0.353 -3,-1 0,-0.667 0,-1.333 0,-2 z"
       id="path932" />
  </g>
  <g
     id="g933"
     transform="translate(-41.5,-274.5)">
    <path
       style="opacity:1"
       fill="#8393a5"
       d="m 149.5,400.5 c 0,0.333 0,0.667 0,1 -2.027,1.588 -4.361,2.088 -7,1.5 2.243,-1.136 4.576,-1.97 7,-2.5 z"
       id="path933" />
  </g>
  <g
     id="g934"
     transform="translate(-41.5,-274.5)">
    <path
       style="opacity:1"
       fill="#5c8ebb"
       d="m 106.5,395.5 c 7.795,6.433 16.795,9.1 27,8 0,0.667 0,1.333 0,2 -1.208,-0.734 -2.541,-1.067 -4,-1 -1.599,-0.268 -2.932,0.066 -4,1 -2.86,-0.416 -5.026,0.584 -6.5,3 -3.934,-2.101 -7.434,-4.768 -10.5,-8 -0.838,-0.342 -1.172,-1.008 -1,-2 -0.61,-0.891 -0.943,-1.891 -1,-3 z"
       id="path934" />
  </g>
  <g
     id="g935"
     transform="translate(-41.5,-274.5)">
    <path
       style="opacity:1"
       fill="#d8b583"
       d="m 269.5,404.5 c 0,-0.667 0,-1.333 0,-2 1.235,0.221 2.235,0.888 3,2 0.667,-1.333 1.333,-2.667 2,-4 0.333,1 0.667,2 1,3 -1.448,4.742 -3.448,5.076 -6,1 z"
       id="path935" />
  </g>
  <g
     id="g936"
     transform="translate(-41.5,-274.5)">
    <path
       style="opacity:1"
       fill="#e5e3db"
       d="m 177.5,393.5 c -1.683,5.159 -2.349,10.492 -2,16 -0.617,-0.111 -1.117,-0.444 -1.5,-1 -0.949,-5.627 -0.116,-10.96 2.5,-16 0.607,0.124 0.94,0.457 1,1 z"
       id="path936" />
  </g>
  <g
     id="g937"
     transform="translate(-41.5,-274.5)">
    <path
       style="opacity:1"
       fill="#e5e7e9"
       d="m 107.5,398.5 c -0.172,0.992 0.162,1.658 1,2 2.294,5.297 6.294,8.297 12,9 0.313,2.747 -0.02,5.414 -1,8 -0.667,0.333 -1.333,0.667 -2,1 -4.156,-6.829 -9.823,-11.829 -17,-15 2.148,-2.015 4.481,-3.682 7,-5 z"
       id="path937" />
  </g>
  <g
     id="g938"
     transform="translate(-41.5,-274.5)">
    <path
       style="opacity:1"
       fill="#acaeaa"
       d="m 265.5,399.5 c -3.633,-1.815 -5.966,-0.815 -7,3 -0.667,0.333 -1.333,0.667 -2,1 -0.335,-1.503 -0.335,-2.836 0,-4 0,-0.667 0,-1.333 0,-2 3.9,-0.93 7.9,-1.263 12,-1 0,1 0,2 0,3 -1,0 -2,0 -3,0 z"
       id="path938" />
  </g>
  <g
     id="g939"
     transform="translate(-41.5,-274.5)">
    <path
       style="opacity:1"
       fill="#aa5850"
       d="m 276.5,397.5 c -2.198,-0.665 -4.531,-1.332 -7,-2 2.928,-0.984 5.928,-1.317 9,-1 0.215,1.679 -0.452,2.679 -2,3 z"
       id="path939" />
  </g>
  <g
     id="g940"
     transform="translate(-41.5,-274.5)">
    <path
       style="opacity:1"
       fill="#d1d3d6"
       d="m 106.5,357.5 c -5.561,22.219 2.439,36.886 24,44 -18.574,1.248 -27.908,-7.252 -28,-25.5 -2.449,-6.918 -1.116,-13.085 4,-18.5 z"
       id="path940" />
  </g>
  <g
     id="g941"
     transform="translate(-41.5,-274.5)">
    <path
       style="opacity:1"
       fill="#dad9d7"
       d="m 104.5,393.5 c 0.319,2.25 -0.181,4.25 -1.5,6 -0.232,-1.237 -0.732,-2.237 -1.5,-3 0.441,-4.677 -0.892,-8.677 -4,-12 -0.3333,0.5 -0.6667,1 -1,1.5 0.9223,4.004 2.2556,7.837 4,11.5 -0.086,0.996 0.248,1.829 1,2.5 -0.594,0.464 -1.261,0.631 -2,0.5 -3.1786,-5.549 -4.8453,-11.549 -5,-18 1.96,-0.638 3.7933,-0.638 5.5,0 1.515,3.692 3.015,7.359 4.5,11 z"
       id="path941" />
  </g>
  <g
     id="g942"
     transform="translate(-41.5,-274.5)">
    <path
       style="opacity:1"
       fill="#8b8a84"
       d="m 264.5,392.5 c 5,0 10,0 15,0 -5.542,0.869 -11.208,1.869 -17,3 -1.667,-0.333 -3.333,-0.667 -5,-1 2.469,-0.668 4.802,-1.335 7,-2 z"
       id="path942" />
  </g>
  <g
     id="g943"
     transform="translate(-41.5,-274.5)">
    <path
       style="opacity:1"
       fill="#eaeae3"
       d="m 240.5,383.5 c 3.03,5.333 7.697,8.333 14,9 -0.38,2.198 0.287,3.865 2,5 0,0.667 0,1.333 0,2 -1.294,0.79 -2.461,1.79 -3.5,3 -4.782,-6.956 -11.282,-11.289 -19.5,-13 -1.098,-2.142 -0.264,-3.475 2.5,-4 0.461,-4.032 1.961,-4.699 4.5,-2 z"
       id="path943" />
  </g>
  <g
     id="g944"
     transform="translate(-41.5,-274.5)">
    <path
       style="opacity:1"
       fill="#21201f"
       d="m 101.5,396.5 c 0,0.667 -0.333,1 -1,1 -1.7444,-3.663 -3.0777,-7.496 -4,-11.5 0.3333,-0.5 0.6667,-1 1,-1.5 3.108,3.323 4.441,7.323 4,12 z"
       id="path944" />
  </g>
  <g
     id="g945"
     transform="translate(-41.5,-274.5)">
    <path
       style="opacity:1"
       fill="#dcbcbc"
       d="m 279.5,386.5 c -4.203,0.424 -8.203,-0.076 -12,-1.5 5.073,-0.442 10.073,-0.776 15,-1 -1.071,0.852 -2.071,1.685 -3,2.5 z"
       id="path945" />
  </g>
  <g
     id="g946"
     transform="translate(-41.5,-274.5)">
    <path
       style="opacity:1"
       fill="#b7b6b0"
       d="m 267.5,380.5 c 2.442,-0.146 3.109,0.687 2,2.5 -1.759,0.798 -3.426,0.631 -5,-0.5 1.102,-0.676 2.102,-1.342 3,-2 z"
       id="path946" />
  </g>
  <g
     id="g947"
     transform="translate(-41.5,-274.5)">
    <path
       style="opacity:1"
       fill="#5d5c5b"
       d="m 182.5,391.5 c -0.667,0 -1,0.333 -1,1 -1.583,2.008 -2.583,4.341 -3,7 0.295,-2.235 -0.039,-4.235 -1,-6 -0.06,-0.543 -0.393,-0.876 -1,-1 -2.616,5.04 -3.449,10.373 -2.5,16 0.383,0.556 0.883,0.889 1.5,1 0.734,1.208 1.067,2.541 1,4 -1.109,0.057 -2.109,0.39 -3,1 -0.027,-1.699 -0.694,-3.033 -2,-4 1.333,-1.667 1.333,-3.333 0,-5 0.68,-4.721 1.68,-9.387 3,-14 -0.387,-1.774 -1.053,-3.441 -2,-5 1.68,-1.269 2.847,-2.936 3.5,-5 2.712,-0.834 5.379,-0.5 8,1 0.927,3.363 0.427,6.363 -1.5,9 z"
       id="path947" />
  </g>
  <g
     id="g948"
     transform="translate(-41.5,-274.5)">
    <path
       style="opacity:1"
       fill="#a5a49c"
       d="m 176.5,382.5 c 1.333,0 2.667,0 4,0 0.151,3.218 0.984,3.551 2.5,1 0.334,2.347 0.167,4.681 -0.5,7 -5.492,0.835 -6.826,-0.832 -4,-5 -0.346,-1.196 -0.846,-1.196 -1.5,0 -0.483,-0.948 -0.649,-1.948 -0.5,-3 z"
       id="path948" />
  </g>
  <g
     id="g949"
     transform="translate(-41.5,-274.5)">
    <path
       style="opacity:1"
       fill="#f6f6f6"
       d="m 130.5,401.5 c -21.561,-7.114 -29.561,-21.781 -24,-44 7.219,-7.747 16.219,-11.413 27,-11 13.693,-0.13 22.86,6.203 27.5,19 0.397,5.581 1.231,11.081 2.5,16.5 -0.223,5.445 -2.557,9.779 -7,13 -7.88,5.303 -16.546,7.47 -26,6.5 z"
       id="path949" />
  </g>
  <g
     id="g950"
     transform="translate(-41.5,-274.5)">
    <path
       style="opacity:1"
       fill="#1b1917"
       d="m 141.5,396.5 c -8.001,1.646 -12.668,-1.687 -14,-10 7.74,0.497 15.24,-0.503 22.5,-3 2.027,7.191 -0.806,11.524 -8.5,13 z"
       id="path950" />
  </g>
  <g
     id="g951"
     transform="translate(-41.5,-274.5)">
    <path
       style="opacity:1"
       fill="#dd5652"
       d="m 141.5,396.5 c -3.724,0.727 -6.391,-0.606 -8,-4 3.607,-0.989 7.274,-1.323 11,-1 0.19,2.459 -0.81,4.126 -3,5 z"
       id="path951" />
  </g>
  <g
     id="g952"
     transform="translate(-41.5,-274.5)">
    <path
       style="opacity:1"
       fill="#b0aeb0"
       d="m 146.5,385.5 c 0.543,0.06 0.876,0.393 1,1 -1.99,0.998 -3.99,1.998 -6,3 -1.617,-0.169 -3.284,-0.503 -5,-1 3.453,-1.013 6.787,-2.013 10,-3 z"
       id="path952" />
  </g>
  <g
     id="g953"
     transform="translate(-41.5,-274.5)">
    <path
       style="opacity:1"
       fill="#babbb8"
       d="m 132.5,387.5 c 1.175,-0.219 2.175,0.114 3,1 -1.552,1.298 -2.552,0.965 -3,-1 z"
       id="path953" />
  </g>
  <g
     id="g954"
     transform="translate(-41.5,-274.5)">
    <path
       style="opacity:1"
       fill="#1b1a19"
       d="m 138.5,376.5 c 3.05,-0.577 5.05,0.59 6,3.5 -2.056,0.311 -4.056,0.811 -6,1.5 -0.934,-1.595 -0.934,-3.261 0,-5 z"
       id="path954" />
  </g>
  <g
     id="g955"
     transform="translate(-41.5,-274.5)">
    <path
       style="opacity:1"
       fill="#100f0f"
       d="m 119.5,365.5 c 9.492,-0.056 12.992,4.611 10.5,14 -5.187,5.699 -9.521,5.032 -13,-2 -1.227,-4.562 -0.393,-8.562 2.5,-12 z"
       id="path955" />
  </g>
  <g
     id="g956"
     transform="translate(-41.5,-274.5)">
    <path
       style="opacity:1"
       fill="#0f0f0e"
       d="m 146.5,362.5 c 9.093,-0.394 12.593,3.939 10.5,13 -1.334,3.604 -3.834,4.771 -7.5,3.5 -5.358,-4.698 -6.358,-10.198 -3,-16.5 z"
       id="path956" />
  </g>
  <g
     id="g961"
     transform="translate(-41.5,-274.5)">
    <path
       style="opacity:1"
       fill="#508fb0"
       d="m 88.5,418.5 c -0.4043,8.633 0.0957,17.299 1.5,26 2.6515,9.471 7.4848,17.638 14.5,24.5 16.185,12.465 34.518,17.298 55,14.5 3.48,1.263 6.146,0.263 8,-3 -0.065,0.438 0.101,0.772 0.5,1 2.997,-1.366 6.164,-2.033 9.5,-2 -0.237,-1.291 0.096,-2.291 1,-3 0.333,0 0.667,0 1,0 0,0.667 0.333,1 1,1 0,1 0,2 0,3 -6.83,3.777 -14.163,6.277 -22,7.5 -11.333,0.667 -22.667,0.667 -34,0 -30.8675,-5.863 -44.3675,-24.363 -40.5,-55.5 0.8318,-4.992 2.3318,-9.659 4.5,-14 z"
       id="path961" />
  </g>
  <g
     id="g962"
     transform="translate(-41.5,-274.5)">
    <path
       style="opacity:1"
       fill="#55504c"
       d="m 193.5,469.5 c 1.82,0.563 3.153,1.729 4,3.5 -0.613,3.45 -2.613,5.284 -6,5.5 -1.792,-0.134 -3.458,0.199 -5,1 -2.183,-1.343 -4.183,-1.01 -6,1 0,-1 0,-2 0,-3 3.072,0.317 6.072,-0.016 9,-1 2.618,-3.192 1.618,-4.525 -3,-4 2.474,-0.605 4.807,-1.605 7,-3 z"
       id="path962" />
  </g>
  <g
     id="g963"
     transform="translate(-41.5,-274.5)">
    <path
       style="opacity:1"
       fill="#e3e4e3"
       d="m 161.5,474.5 c -1.35,0.983 -2.35,2.316 -3,4 -1.677,-5.508 -5.01,-9.675 -10,-12.5 2.109,-1.141 3.942,-2.641 5.5,-4.5 1.337,3.998 3.67,7.332 7,10 0.483,0.948 0.649,1.948 0.5,3 z"
       id="path963" />
  </g>
  <g
     id="g964"
     transform="translate(-41.5,-274.5)">
    <path
       style="opacity:1"
       fill="#eaeae8"
       d="m 343.5,476.5 c -2.735,-0.712 -4.735,-2.378 -6,-5 4.584,-1.07 8.584,0.263 12,4 -1.896,0.966 -3.896,1.299 -6,1 z"
       id="path964" />
  </g>
  <g
     id="g965"
     transform="translate(-41.5,-274.5)">
    <path
       style="opacity:1"
       fill="#d59444"
       d="m 323.5,459.5 c -3.269,14.261 -12.269,22.261 -27,24 -1.893,-1.463 -3.559,-3.13 -5,-5 0,-0.667 0,-1.333 0,-2 6.75,0.294 13.083,-1.206 19,-4.5 4.91,-3.746 9.243,-7.913 13,-12.5 z"
       id="path965" />
  </g>
  <g
     id="g966"
     transform="translate(-41.5,-274.5)">
    <path
       style="opacity:1"
       fill="#f1f1f1"
       d="m 161.5,474.5 c 1.66,-1.748 3.66,-2.248 6,-1.5 -2.212,2.921 -4.045,6.088 -5.5,9.5 -1.745,-2.51 -1.911,-5.176 -0.5,-8 z"
       id="path966" />
  </g>
  <g
     id="g967"
     transform="translate(-41.5,-274.5)">
    <path
       style="opacity:1"
       fill="#ecebea"
       d="m 186.5,472.5 c 4.618,-0.525 5.618,0.808 3,4 -2.928,0.984 -5.928,1.317 -9,1 -0.086,-0.996 0.248,-1.829 1,-2.5 1.952,-0.366 3.618,-1.199 5,-2.5 z"
       id="path967" />
  </g>
  <g
     id="g968"
     transform="translate(-41.5,-274.5)">
    <path
       style="opacity:1"
       fill="#f1f1f2"
       d="m 258.5,481.5 c -2.333,0 -4.667,0 -7,0 0.985,-5.503 4.318,-8.17 10,-8 -0.44,2.88 -1.44,5.546 -3,8 z"
       id="path968" />
  </g>
  <g
     id="g970"
     transform="translate(-41.5,-274.5)">
    <path
       style="opacity:1"
       fill="#9a6e54"
       d="m 321.5,471.5 c -0.104,2.59 0.563,4.923 2,7 -0.029,1.529 -0.696,2.696 -2,3.5 -10.241,4.54 -20.908,6.373 -32,5.5 -2.563,0.237 -2.563,0.737 0,1.5 -14.667,0.667 -29.333,0.667 -44,0 -9.933,-1.806 -19.6,-4.472 -29,-8 -2.966,-3.904 -1.966,-6.071 3,-6.5 3.583,3.067 7.583,5.567 12,7.5 19.025,5.668 38.358,7.001 58,4 -1.442,-0.377 -2.442,-1.21 -3,-2.5 0.967,-1.306 2.301,-1.973 4,-2 0,-1 0,-2 0,-3 0.333,0 0.667,0 1,0 0.377,1.758 1.044,3.425 2,5 -0.477,0.978 -1.143,1.811 -2,2.5 12.228,-0.377 22.228,-5.211 30,-14.5 z"
       id="path970" />
  </g>
  <g
     id="g971"
     transform="translate(-41.5,-274.5)">
    <path
       style="opacity:1"
       fill="#f2f0ef"
       d="m 290.5,478.5 c 0,1 0,2 0,3 -1.699,0.027 -3.033,0.694 -4,2 -0.333,-1 -1,-1.667 -2,-2 -1.428,-2.512 -1.928,-5.178 -1.5,-8 1.945,1.363 4.112,2.197 6.5,2.5 0.752,0.671 1.086,1.504 1,2.5 z"
       id="path971" />
  </g>
  <g
     id="g973"
     transform="translate(-41.5,-274.5)">
    <path
       style="opacity:1"
       fill="#584e49"
       d="m 337.5,471.5 c 1.265,2.622 3.265,4.288 6,5 -0.667,0 -1,0.333 -1,1 -2.706,-0.075 -5.373,-0.408 -8,-1 -0.333,-0.667 -0.667,-1.333 -1,-2 0,-1 0,-2 0,-3 1.333,0 2.667,0 4,0 z"
       id="path973" />
  </g>
  <g
     id="g977"
     transform="translate(-41.5,-274.5)">
    <path
       style="opacity:1"
       fill="#ecb150"
       d="m 284.5,455.5 c 0.617,0.111 1.117,0.444 1.5,1 1.387,7.168 -0.446,13.335 -5.5,18.5 0.877,2.253 1.877,4.419 3,6.5 -0.578,1.047 -1.244,0.88 -2,-0.5 -6.846,-0.172 -13.513,-0.672 -20,-1.5 0.438,-1.626 0.772,-3.293 1,-5 -1.5,-3 -3,-6 -4.5,-9 -0.659,-3.388 -0.492,-6.721 0.5,-10 8.651,-2.576 17.317,-2.576 26,0 z"
       id="path977" />
  </g>
  <g
     id="g978"
     transform="translate(-41.5,-274.5)">
    <path
       style="opacity:1"
       fill="#e9e7e5"
       d="m 366.5,483.5 c -2.92,-2.162 -4.587,-5.162 -5,-9 5.02,1.034 6.686,4.034 5,9 z"
       id="path978" />
  </g>
  <g
     id="g981"
     transform="translate(-41.5,-274.5)">
    <path
       style="opacity:1"
       fill="#d59747"
       d="m 214.5,442.5 c -0.325,5.099 0.175,10.099 1.5,15 8.183,13.011 20.016,19.678 35.5,20 -0.941,1.55 -1.607,3.216 -2,5 -0.667,0 -1,0.333 -1,1 -25.803,-1.482 -37.137,-15.148 -34,-41 z"
       id="path981" />
  </g>
  <g
     id="g985"
     transform="translate(-41.5,-274.5)">
    <path
       style="opacity:1"
       fill="#cd9249"
       d="m 261.5,479.5 c 6.487,0.828 13.154,1.328 20,1.5 0.756,1.38 1.422,1.547 2,0.5 0.333,0 0.667,0 1,0 0.039,1.083 0.373,2.083 1,3 -9,1.333 -18,1.333 -27,0 0.775,-1.896 1.775,-3.563 3,-5 z"
       id="path985" />
  </g>
  <g
     id="g988"
     transform="translate(-41.5,-274.5)">
    <path
       style="opacity:1"
       fill="#6a6664"
       d="m 251.5,481.5 c 2.333,0 4.667,0 7,0 -2.402,5.54 -5.735,6.207 -10,2 0,-0.667 0.333,-1 1,-1 0.667,-0.333 1.333,-0.667 2,-1 z"
       id="path988" />
  </g>
  <g
     id="g995"
     transform="translate(-41.5,-274.5)">
    <path
       style="opacity:1"
       fill="#9d6f55"
       d="m 436.5,472.5 c 2.453,0.717 4.787,1.884 7,3.5 0.93,1.194 1.597,2.527 2,4 -1.368,1.873 -3.034,3.54 -5,5 -5.735,2.601 -11.735,4.267 -18,5 -11.305,1.209 -22.638,2.043 -34,2.5 -11.629,-1.26 -23.295,-2.427 -35,-3.5 -7.11,-1.016 -13.61,-3.516 -19.5,-7.5 -0.64,-1.765 -0.473,-3.432 0.5,-5 2.627,0.592 5.294,0.925 8,1 16.955,8.639 34.955,12.139 54,10.5 15.145,-0.766 28.478,-5.932 40,-15.5 z"
       id="path995" />
  </g>
  <g
     id="g996"
     transform="translate(-41.5,-274.5)">
    <path
       style="opacity:1"
       fill="#9b7057"
       d="m 92.5,474.5 c 10.065,8.532 21.732,13.698 35,15.5 20.886,2.742 40.552,-0.758 59,-10.5 1.542,-0.801 3.208,-1.134 5,-1 0.797,2.251 0.797,4.751 0,7.5 -4.188,2.062 -8.521,3.729 -13,5 -17.873,3.204 -35.873,4.204 -54,3 -12.844,-0.501 -25.1772,-3.168 -37,-8 -2.5867,-1.525 -3.4201,-3.692 -2.5,-6.5 2.4795,-1.814 4.9795,-3.481 7.5,-5 z"
       id="path996" />
  </g>
</svg>
