<?xml version="1.0" encoding="UTF-8" standalone="no"?>
<svg
   version="1.1"
   width="487.02655"
   height="484.03647"
   style="clip-rule:evenodd;fill-rule:evenodd;image-rendering:optimizeQuality;shape-rendering:geometricPrecision;text-rendering:geometricPrecision"
   id="svg129"
   xmlns="http://www.w3.org/2000/svg"
   xmlns:svg="http://www.w3.org/2000/svg">
  <defs
     id="defs129" />
  <path
     fill="#0d0d0d"
     d="m 476.77028,169.98582 c 19.15,68.17 11.483,133.17 -23,195 -12.148,20.004 -26.814,38.17 -44,54.5 -68.755,59.587 -147.422,77.92 -236,55 -74.899002,-24.232 -127.399002,-72.732 -157.500002,-145.5 -29.818,-84.398 -18.6510005,-162.731 33.5,-234.999995 9.403,-10.907 19.403,-21.407 30,-31.5 72.112002,-61.0100004 153.446002,-77.343 244.000002,-49 75.805,27.971 126.805,80.138 153,156.499995 z"
     id="path5" />
  <path
     fill="#f9f9f9"
     d="m 221.77028,6.9858246 c 90.878,-4.302 163.378,29.6980004 217.5,101.9999954 51.312,80.401 54.979,163.068 11,248 -13.919,24.623 -31.752,46.123 -53.5,64.5 -2.403,0.63 -4.237,-0.203 -5.5,-2.5 -8.408,-10.148 -14.742,-21.481 -19,-34 1.479,-7.35 0.479,-14.35 -3,-21 -4.543,-5.864 -10.376,-8.197 -17.5,-7 -3.471,-9.299 -10.138,-14.799 -20,-16.5 -10.95,-1.546 -21.95,-1.879 -33,-1 -10.389,1.5 -20.722,3 -31,4.5 -0.493,-2.306 -0.826,-4.639 -1,-7 30.55,-2.238 58.55,-11.738 84,-28.5 27.077,-21.979 42.244,-50.479 45.5,-85.5 7.391,-98.026 -37.776,-152.858995 -135.5,-164.499995 -41.604,-5.146 -80.604,2.521 -117,23 -35.217,23.557995 -54.717002,56.724995 -58.500002,99.499995 -0.333001,13 -0.667,26 -1,39 -8.914,33.182 -0.414,61.015 25.500002,83.5 11.896,8.948 24.896,15.781 39,20.5 -3.464,13.268 -3.797,26.602 -1,40 -16.241,17.15 -26.074,37.483 -29.5,61 -4.174,2.668 -7.174,6.335 -9,11 -71.459002,-52.261 -105.4590025,-122.928 -102.0000025,-212 C 18.313278,131.01282 66.147278,64.845825 150.77028,25.485825 c 22.946,-9.485 46.612,-15.6520004 71,-18.5000004 z"
     id="path6" />
  <path
     fill="#d1d1d1"
     d="m 355.77028,104.98582 c 17.075,16.807 27.908,37.14 32.5,61 14.301,102.696 -30.199,158.196 -133.5,166.5 -28.767,2.454 -57.1,0.121 -85,-7 -0.556,-0.383 -0.889,-0.883 -1,-1.5 43.339,5.074 85.339,-0.426 126,-16.5 36.758,-16.633 60.591,-44.466 71.5,-83.5 12.919,-41.178 9.419,-80.845 -10.5,-119 z"
     id="path7" />
  <path
     fill="#fbfbfb"
     d="m 355.77028,104.98582 c 19.919,38.155 23.419,77.822 10.5,119 -10.909,39.034 -34.742,66.867 -71.5,83.5 -40.661,16.074 -82.661,21.574 -126,16.5 1.127,-6.234 -0.873,-11.068 -6,-14.5 -2,-0.667 -4,-0.667 -6,0 -2.642,2.839 -5.142,5.673 -7.5,8.5 -20.533,-7.091 -37.533,-19.091 -51.000002,-36 -11.905,-19.772 -14.571001,-40.772 -8,-63 -2.087,-28.395 2.245999,-55.729 13.000002,-82 16.698,-33.019 42.865,-54.852995 78.5,-65.499995 42.379,-10.952 84.379,-9.619 126,4 18.173,6.573 34.173,16.406 48,29.499995 z"
     id="path8" />
  <path
     fill="#060505"
     d="m 171.77028,254.98582 c 10.711,-0.312 21.378,0.188 32,1.5 13.176,3.855 17.676,12.355 13.5,25.5 -7.09,13.127 -17.924,17.96 -32.5,14.5 -12.789,-4.779 -20.456,-13.779 -23,-27 0.413,-6.903 3.746,-11.736 10,-14.5 z"
     id="path9" />
  <path
     fill="#e96959"
     d="m 198.77028,274.98582 c 4.667,0 9.333,0 14,0 -1.848,11.175 -8.515,17.175 -20,18 -4.736,-0.412 -9.07,-1.912 -13,-4.5 4.953,-6.474 11.287,-10.974 19,-13.5 z"
     id="path10" />
  <path
     fill="#090909"
     d="m 180.77028,209.98582 c 3.428,0.047 6.428,1.213 9,3.5 4.509,5.187 7.842,11.02 10,17.5 -2.039,7.516 -6.205,8.849 -12.5,4 -1.5,-2.333 -3,-4.667 -4.5,-7 -3.011,4.839 -7.345,7.006 -13,6.5 -1.978,-2.497 -2.478,-5.331 -1.5,-8.5 2.535,-6.691 6.702,-12.024 12.5,-16 z"
     id="path11" />
  <path
     fill="#020202"
     d="m 283.77028,149.98582 c 14.039,7.365 22.205,19.031 24.5,35 1.694,17.238 -2.806,32.572 -13.5,46 0.645,1.146 1.478,2.146 2.5,3 0.749,1.135 0.583,2.135 -0.5,3 -20.898,-13.89 -43.565,-17.89 -68,-12 0.236,-2.473 1.569,-4.14 4,-5 -5.135,-15.272 -5.301,-30.606 -0.5,-46 10.146,-23.325 27.312,-31.325 51.5,-24 z"
     id="path12" />
  <path
     fill="#030303"
     d="m 143.77028,146.98582 c 10.283,5.162 16.783,13.495 19.5,25 3.501,16.488 1.001,31.988 -7.5,46.5 2.059,1.185 2.226,2.352 0.5,3.5 -10.567,-3.615 -21.4,-4.782 -32.5,-3.5 -6.395,2.076 -12.728,4.242 -19,6.5 1.027,-2.026 2.361,-3.859 4,-5.5 -8.989002,-25.023 -4.656,-47.357 13,-67 6.449,-4.985 13.782,-6.818 22,-5.5 z"
     id="path13" />
  <path
     fill="#cdcdcd"
     d="m 283.77028,149.98582 c -24.188,-7.325 -41.354,0.675 -51.5,24 -4.801,15.394 -4.635,30.728 0.5,46 -2.431,0.86 -3.764,2.527 -4,5 -6.688,-8.914 -9.688,-19.081 -9,-30.5 -0.515,-24.675 10.485,-41.675 33,-51 10.462,-1.649 20.462,-0.315 30,4 0.752,0.671 1.086,1.504 1,2.5 z"
     id="path14" />
  <path
     fill="#cecece"
     d="m 143.77028,146.98582 c -8.218,-1.318 -15.551,0.515 -22,5.5 -17.656,19.643 -21.989002,41.977 -13,67 -1.639,1.641 -2.973,3.474 -4,5.5 -9.356002,-18.27 -10.523003,-37.27 -3.5,-57 4.043,-11.375 11.543,-19.542 22.5,-24.5 6.483,-0.979 12.816,-0.479 19,1.5 0.798,0.457 1.131,1.124 1,2 z"
     id="path15" />
  <path
     fill="#f2f3f3"
     d="m 162.77028,315.98582 c -2.337,5.843 -4.17,11.843 -5.5,18 -1.356,0.88 -2.856,1.214 -4.5,1 0,-1.333 0,-2.667 0,-4 0.253,-5.678 1.753,-11.011 4.5,-16 2.235,-1.48 4.068,-1.147 5.5,1 z"
     id="path16" />
  <path
     fill="#d4d4d4"
     d="m 162.77028,315.98582 c 1.484,6.788 0.651,13.455 -2.5,20 -2.685,0.327 -5.518,0.327 -8.5,0 -0.284,-1.915 0.049,-3.581 1,-5 0,1.333 0,2.667 0,4 1.644,0.214 3.144,-0.12 4.5,-1 1.33,-6.157 3.163,-12.157 5.5,-18 z"
     id="path17" />
  <path
     fill="#e4e3e4"
     d="m 167.77028,333.98582 c 2.027,-0.162 4.027,0.005 6,0.5 1.074,0.739 1.741,1.739 2,3 -2.162,2.328 -4.495,4.494 -7,6.5 -2.179,-1.257 -4.179,-2.757 -6,-4.5 1.873,-1.704 3.54,-3.537 5,-5.5 z"
     id="path18" />
  <path
     fill="#f2f2f2"
     d="m 180.77028,334.98582 c 14.836,3.03 29.836,4.697 45,5 -0.259,3.74 0.074,7.406 1,11 -5.293,0.534 -10.46,1.534 -15.5,3 -6.054,-3.612 -12.554,-4.778 -19.5,-3.5 -1.431,0.465 -2.597,1.299 -3.5,2.5 0.456,-2.928 0.456,-5.928 0,-9 -2.417,-3.234 -4.917,-6.234 -7.5,-9 z"
     id="path19" />
  <path
     fill="#f8f8f9"
     d="m 153.77028,339.98582 c 3.974,1.121 7.64,2.954 11,5.5 3.203,3.371 6.536,6.538 10,9.5 1.489,8.71 -1.844,14.376 -10,17 -4.194,-1.683 -8.027,-4.016 -11.5,-7 -1.337,-3.526 -1.837,-7.192 -1.5,-11 -0.603,-5.119 0.064,-9.785 2,-14 z"
     id="path20" />
  <path
     fill="#d1d1d2"
     d="m 260.77028,347.98582 c -0.111,-0.617 -0.444,-1.117 -1,-1.5 -5.332,-0.316 -10.666,-0.15 -16,0.5 -3.83,0.133 -7.496,-0.534 -11,-2 -0.798,0.457 -1.131,1.124 -1,2 -0.968,-2.107 -1.302,-4.441 -1,-7 10.343,-0.088 20.676,-0.422 31,-1 0.011,2.047 0.344,4.047 1,6 0.047,1.538 -0.62,2.538 -2,3 z"
     id="path21" />
  <path
     fill="#f6f6f6"
     d="m 343.77028,353.98582 c -1.124,3.46 -3.457,5.46 -7,6 -14.547,-5.35 -29.38,-6.35 -44.5,-3 -0.21,-1.558 -0.71,-2.891 -1.5,-4 0.028,-2.082 -0.639,-3.916 -2,-5.5 0.333,-0.333 0.667,-0.667 1,-1 14.677,-3.279 29.343,-3.279 44,0 2.877,0.956 5.544,2.289 8,4 1.323,0.816 1.989,1.983 2,3.5 z"
     id="path22" />
  <path
     fill="#f7f7f7"
     d="m 260.77028,347.98582 c -7.693,5.635 -16.359,7.468 -26,5.5 -2.419,-1.509 -3.419,-3.675 -3,-6.5 -0.131,-0.876 0.202,-1.543 1,-2 3.504,1.466 7.17,2.133 11,2 5.334,-0.65 10.668,-0.816 16,-0.5 0.556,0.383 0.889,0.883 1,1.5 z"
     id="path23" />
  <path
     fill="#e0dfe0"
     d="m 177.77028,341.98582 c 3.723,-0.277 6.056,1.39 7,5 -3.584,7.763 -7.584,7.93 -12,0.5 1.179,-2.343 2.846,-4.176 5,-5.5 z"
     id="path24" />
  <path
     fill="#9e9d9e"
     d="m 153.77028,339.98582 c -1.936,4.215 -2.603,8.881 -2,14 -0.987,-4.805 -1.321,-9.805 -1,-15 1.291,-0.237 2.291,0.096 3,1 z"
     id="path25" />
  <path
     fill="#add5da"
     d="m 284.77028,368.98582 c -3.487,-1.712 -5.487,-0.545 -6,3.5 0.707,2.54 2.373,3.707 5,3.5 0,3.667 0,7.333 0,11 -4.568,-0.417 -6.068,1.583 -4.5,6 0.717,0.544 1.217,1.211 1.5,2 -5.567,-0.559 -10.9,-2.059 -16,-4.5 -1.798,-3.678 -4.798,-5.512 -9,-5.5 -1.018,0.693 -2.018,1.359 -3,2 0,-1.333 0,-2.667 0,-4 2.667,0 5.333,0 8,0 1,0 2,0 3,0 0.23,2.965 1.897,4.298 5,4 4.423,-0.842 5.09,-3.008 2,-6.5 -2.671,-0.833 -5.004,-0.333 -7,1.5 -3.731,-1.349 -7.398,-2.849 -11,-4.5 13.626,-6.585 12.96,-8.085 -2,-4.5 -0.16,-1.699 0.006,-3.366 0.5,-5 6.656,-13.029 17.156,-19.862 31.5,-20.5 0.833,0.833 1.667,1.667 2.5,2.5 0.594,6.356 0.427,12.689 -0.5,19 z"
     id="path26" />
  <path
     fill="#f5fafb"
     d="m 276.77028,349.98582 c 6.055,-0.558 7.388,1.609 4,6.5 -4.709,0.082 -6.042,-2.085 -4,-6.5 z"
     id="path27" />
  <path
     fill="#aad5da"
     d="m 213.77028,377.98582 c 0.131,0.876 -0.202,1.543 -1,2 -0.896,-1.006 -1.562,-1.006 -2,0 1.185,1.353 2.519,2.52 4,3.5 -0.333,0.333 -0.667,0.667 -1,1 0.865,1.359 1.865,2.526 3,3.5 -3.484,1.597 -3.817,3.597 -1,6 -2.994,2.5 -6.327,4.5 -10,6 0.821,-5.658 -1.346,-7.325 -6.5,-5 -0.494,1.634 -0.66,3.301 -0.5,5 -0.768,0.763 -1.268,1.763 -1.5,3 -0.671,-0.752 -1.504,-1.086 -2.5,-1 -0.508,-8.622 -0.675,-17.289 -0.5,-26 -3.208,-5.566 -4.208,-11.566 -3,-18 2.909,-2.894 6.409,-3.727 10.5,-2.5 8.467,3.398 16.134,8.065 23,14 -0.749,1.734 -1.249,3.567 -1.5,5.5 -3.099,1.078 -6.266,1.078 -9.5,0 -3.768,0.821 -3.768,1.821 0,3 z"
     id="path28" />
  <path
     fill="#d7d8dd"
     d="m 184.77028,355.98582 c 1.213,0.997 1.046,1.997 -0.5,3 -0.47,-1.077 -0.303,-2.077 0.5,-3 z"
     id="path29" />
  <path
     fill="#dadbdd"
     d="m 217.77028,357.98582 c 3.125,-0.979 6.458,-1.313 10,-1 -0.023,2.427 -0.523,4.76 -1.5,7 -2.599,-2.379 -5.433,-4.379 -8.5,-6 z"
     id="path30" />
  <path
     fill="#f3f9f8"
     d="m 263.77028,358.98582 c 5.988,0.164 7.321,2.664 4,7.5 -6.097,0.147 -7.43,-2.353 -4,-7.5 z"
     id="path31" />
  <path
     fill="#e2e2e2"
     d="m 232.77028,358.98582 c 5.9,0.92 11.566,1.254 17,1 -0.462,1.791 -1.629,2.791 -3.5,3 -4.854,-1.12 -9.687,-1.286 -14.5,-0.5 0.837,-1.011 1.17,-2.178 1,-3.5 z"
     id="path32" />
  <path
     fill="#cccccb"
     d="m 290.77028,352.98582 c 0.79,1.109 1.29,2.442 1.5,4 15.12,-3.35 29.953,-2.35 44.5,3 3.543,-0.54 5.876,-2.54 7,-6 2.644,3.389 2.644,6.889 0,10.5 -1.534,0.923 -3.201,1.423 -5,1.5 -15.497,-6.445 -31.497,-7.779 -48,-4 0,-3 0,-6 0,-9 z"
     id="path33" />
  <path
     fill="#f7f8f8"
     d="m 193.77028,357.98582 c 5.613,-1.421 7.78,0.579 6.5,6 -5.916,1.916 -8.082,-0.084 -6.5,-6 z"
     id="path34" />
  <path
     fill="#f8f8f7"
     d="m 351.77028,362.98582 c 3.058,0.212 5.558,1.545 7.5,4 2.359,21.422 10.359,40.422 24,57 1.171,1.393 2.671,2.227 4.5,2.5 -0.752,0.671 -1.086,1.504 -1,2.5 -2.478,2.303 -5.145,4.469 -8,6.5 -3.317,0.498 -6.65,0.665 -10,0.5 -5.714,-13.569 -14.048,-25.402 -25,-35.5 -5.376,-1.575 -10.709,-3.242 -16,-5 -4.65,-4.574 -6.15,-10.074 -4.5,-16.5 0.785,-1.786 1.951,-3.286 3.5,-4.5 5.662,0.073 11.329,0.073 17,0 3.317,-3.498 5.984,-7.331 8,-11.5 z"
     id="path35" />
  <path
     fill="#f8fbfa"
     d="m 210.77028,364.98582 c 4.179,-0.358 6.679,1.309 7.5,5 -6.229,3.59 -8.729,1.923 -7.5,-5 z"
     id="path36" />
  <path
     fill="#d9d9d9"
     d="m 174.77028,354.98582 c 0.958,0.453 1.792,1.119 2.5,2 1.711,6.194 0.211,11.36 -4.5,15.5 -2.867,0.801 -5.534,0.634 -8,-0.5 8.156,-2.624 11.489,-8.29 10,-17 z"
     id="path37" />
  <path
     fill="#999a9a"
     d="m 325.77028,366.98582 c 3.297,-0.171 3.631,0.495 1,2 -0.798,-0.457 -1.131,-1.124 -1,-2 z"
     id="path38" />
  <path
     fill="#b0d6dc"
     d="m 246.77028,374.98582 c 0.313,2.747 -0.02,5.414 -1,8 -5.005,1.489 -10.005,2.489 -15,3 -2.512,-1.737 -3.512,-4.237 -3,-7.5 0.693,-10.033 6.027,-13.7 16,-11 2.539,1.805 3.539,4.305 3,7.5 z"
     id="path39" />
  <path
     fill="#f5f9f9"
     d="m 284.77028,368.98582 c 0,1.667 0,3.333 0,5 -0.838,0.342 -1.172,1.008 -1,2 -2.627,0.207 -4.293,-0.96 -5,-3.5 0.513,-4.045 2.513,-5.212 6,-3.5 z"
     id="path40" />
  <path
     fill="#fafdfd"
     d="m 230.77028,370.98582 c 5.968,0.105 7.302,2.605 4,7.5 -1.612,0.72 -3.112,0.554 -4.5,-0.5 -0.556,-2.385 -0.39,-4.718 0.5,-7 z"
     id="path41" />
  <path
     fill="#d8d8da"
     d="m 184.77028,365.98582 c 1.442,2.04 2.442,4.373 3,7 -2.574,2.718 -3.907,2.051 -4,-2 0.228,-1.707 0.562,-3.374 1,-5 z"
     id="path42" />
  <path
     fill="#f2f2f2"
     d="m 148.77028,369.98582 c 2.778,-0.478 4.778,0.522 6,3 -5.292,8.153 -10.458,16.486 -15.5,25 -4.398,9.863 -6.732,20.196 -7,31 -2.939,1.896 -5.439,4.23 -7.5,7 -0.92,-25.241 7.08,-47.241 24,-66 z"
     id="path43" />
  <path
     fill="#f5f6f6"
     d="m 162.77028,375.98582 c 0.731,23.979 -6.103,45.645 -20.5,65 -2.673,2.502 -5.673,4.502 -9,6 -1.406,-0.914 -2.906,-1.58 -4.5,-2 -0.162,-2.027 0.005,-4.027 0.5,-6 13.782,-11.89 22.115,-26.89 25,-45 0.159,-5.416 0.826,-10.75 2,-16 1.897,-1.516 4.064,-2.183 6.5,-2 z"
     id="path44" />
  <path
     fill="#f9fcfc"
     d="m 197.77028,376.98582 c 5.988,0.164 7.321,2.664 4,7.5 -3.401,1.135 -5.401,-0.032 -6,-3.5 0.303,-1.614 0.97,-2.948 2,-4 z"
     id="path45" />
  <path
     fill="#f3f4f4"
     d="m 230.77028,414.98582 c -10.455,4.491 -21.455,6.158 -33,5 -17.214,-5.803 -22.381,-17.136 -15.5,-34 2.349,-2.517 4.849,-4.85 7.5,-7 0.333,1 0.667,2 1,3 -2.789,8.43 -2.623,16.763 0.5,25 3.099,4.466 7.265,5.966 12.5,4.5 5.714,-1.392 10.714,-4.059 15,-8 9.833,-1.999 13.833,1.835 12,11.5 z"
     id="path46" />
  <path
     fill="#f6fafb"
     d="m 263.77028,382.98582 c 0,-0.333 0,-0.667 0,-1 1.996,-1.833 4.329,-2.333 7,-1.5 3.09,3.492 2.423,5.658 -2,6.5 -3.103,0.298 -4.77,-1.035 -5,-4 z"
     id="path47" />
  <path
     fill="#46595d"
     d="m 260.77028,382.98582 c -2.667,0 -5.333,0 -8,0 0,1.333 0,2.667 0,4 -0.951,-1.419 -1.284,-3.085 -1,-5 3.213,-0.31 6.213,0.023 9,1 z"
     id="path48" />
  <path
     fill="#82a9ae"
     d="m 246.77028,374.98582 c 3.76,9.051 0.76,13.718 -9,14 -3.001,0.328 -5.334,-0.672 -7,-3 4.995,-0.511 9.995,-1.511 15,-3 0.98,-2.586 1.313,-5.253 1,-8 z"
     id="path49" />
  <path
     fill="#f6f9f9"
     d="m 216.77028,387.98582 c 2.135,-0.353 3.468,0.48 4,2.5 -1.27,1.775 -2.936,2.942 -5,3.5 -2.817,-2.403 -2.484,-4.403 1,-6 z"
     id="path50" />
  <path
     fill="#f7f7f7"
     d="m 322.77028,398.98582 c -0.453,0.958 -1.119,1.792 -2,2.5 -19.733,10.356 -40.733,15.356 -63,15 -2.47,-0.989 -4.803,-2.155 -7,-3.5 -2.31,-6.554 -0.31,-11.387 6,-14.5 5.771,1.37 11.438,3.37 17,6 12.086,3.471 19.086,-0.862 21,-13 7.268,-2.635 14.268,-5.802 21,-9.5 0.591,6.453 2.924,12.12 7,17 z"
     id="path51" />
  <path
     fill="#f4f4f4"
     d="m 247.77028,390.98582 c 2.044,0.531 3.711,1.698 5,3.5 -6.999,4.649 -9.499,11.149 -7.5,19.5 4.156,8.913 11.156,12.579 21,11 5.759,0.066 11.426,-0.601 17,-2 1.167,0.333 2.333,0.667 3.5,1 1.195,2.251 2.195,4.585 3,7 -9.033,1.132 -18.033,0.798 -27,-1 -6.201,0.183 -10.368,3.183 -12.5,9 -2.509,13.5 2.991,21.667 16.5,24.5 1.333,1.333 1.333,2.667 0,4 -6.567,0.098 -10.567,3.264 -12,9.5 -3.245,0.207 -5.245,-1.293 -6,-4.5 -1.775,-1.439 -3.775,-2.439 -6,-3 -1.103,-3.039 -2.603,-5.873 -4.5,-8.5 -0.257,-2.517 0.41,-4.85 2,-7 2.345,-8.967 -0.488,-15.634 -8.5,-20 -3.053,-5.357 -2.22,-9.69 2.5,-13 4.7,-9.759 2.533,-17.592 -6.5,-23.5 0.757,-1.512 1.757,-2.846 3,-4 5.93,-0.049 11.597,-0.882 17,-2.5 z"
     id="path52" />
  <path
     fill="#ecf6f6"
     d="m 205.77028,399.98582 c -0.634,1.447 -1.801,2.113 -3.5,2 -1.699,0.113 -2.866,-0.553 -3.5,-2 -0.16,-1.699 0.006,-3.366 0.5,-5 5.154,-2.325 7.321,-0.658 6.5,5 z"
     id="path53" />
  <path
     fill="#94bcc2"
     d="m 284.77028,373.98582 c 3.578,6.817 4.744,14.15 3.5,22 -0.465,1.431 -1.299,2.597 -2.5,3.5 -4.757,0.81 -9.424,0.476 -14,-1 -5.333,-2.667 -10.667,-5.333 -16,-8 -1.21,-1.039 -2.21,-2.206 -3,-3.5 0.982,-0.641 1.982,-1.307 3,-2 4.202,-0.012 7.202,1.822 9,5.5 5.1,2.441 10.433,3.941 16,4.5 5.267,-1.07 6.267,-3.737 3,-8 0,-3.667 0,-7.333 0,-11 -0.172,-0.992 0.162,-1.658 1,-2 z"
     id="path54" />
  <path
     fill="#f0f5f5"
     d="m 283.77028,386.98582 c 3.267,4.263 2.267,6.93 -3,8 -0.283,-0.789 -0.783,-1.456 -1.5,-2 -1.568,-4.417 -0.068,-6.417 4.5,-6 z"
     id="path55" />
  <path
     fill="#efeeef"
     d="m 175.77028,409.98582 c -0.591,3.114 -2.258,5.614 -5,7.5 -1.786,0.785 -3.286,1.951 -4.5,3.5 -0.483,-0.948 -0.649,-1.948 -0.5,-3 2.319,-8.944 4.486,-17.944 6.5,-27 0.35,-4.033 0.517,-7.867 0.5,-11.5 2.707,-2.581 5.374,-2.748 8,-0.5 -7.34,9.338 -9.007,19.672 -5,31 z"
     id="path56" />
  <path
     fill="#ddddde"
     d="m 148.77028,389.98582 c 1.664,6.472 -0.502,11.472 -6.5,15 1.567,-5.147 3.734,-10.147 6.5,-15 z"
     id="path57" />
  <path
     fill="#92bfc5"
     d="m 213.77028,377.98582 c 3.191,0.474 6.191,1.474 9,3 -2.333,1.5 -4.667,3 -7,4.5 2.667,0 5.333,0 8,0 1.825,1.466 2.325,3.299 1.5,5.5 -7.075,8.445 -15.908,13.612 -26.5,15.5 -2.144,-0.792 -3.477,-2.292 -4,-4.5 0.996,-0.086 1.829,0.248 2.5,1 0.232,-1.237 0.732,-2.237 1.5,-3 0.634,1.447 1.801,2.113 3.5,2 1.699,0.113 2.866,-0.553 3.5,-2 3.673,-1.5 7.006,-3.5 10,-6 2.064,-0.558 3.73,-1.725 5,-3.5 -0.532,-2.02 -1.865,-2.853 -4,-2.5 -1.135,-0.974 -2.135,-2.141 -3,-3.5 0.333,-0.333 0.667,-0.667 1,-1 -1.481,-0.98 -2.815,-2.147 -4,-3.5 0.438,-1.006 1.104,-1.006 2,0 0.798,-0.457 1.131,-1.124 1,-2 z"
     id="path58" />
  <path
     fill="#d3d2d2"
     d="m 322.77028,398.98582 c 1.473,0.572 2.807,1.405 4,2.5 -12.889,8.077 -26.889,13.41 -42,16 -9.621,1.491 -19.288,1.824 -29,1 -2.579,-1.076 -4.246,-2.909 -5,-5.5 2.197,1.345 4.53,2.511 7,3.5 22.267,0.356 43.267,-4.644 63,-15 0.881,-0.708 1.547,-1.542 2,-2.5 z"
     id="path59" />
  <path
     fill="#d7d7d7"
     d="m 351.77028,362.98582 c 6.844,-1.488 11.677,1.179 14.5,8 0.499,4.014 0.333,8.014 -0.5,12 4.221,16.046 12.054,30.046 23.5,42 0.279,1.912 -0.554,3.246 -2.5,4 -0.086,-0.996 0.248,-1.829 1,-2.5 -1.829,-0.273 -3.329,-1.107 -4.5,-2.5 -13.641,-16.578 -21.641,-35.578 -24,-57 -1.942,-2.455 -4.442,-3.788 -7.5,-4 z"
     id="path60" />
  <path
     fill="#cececd"
     d="m 230.77028,414.98582 c -0.34,2.179 -1.34,4.012 -3,5.5 -7.859,2.257 -15.859,2.924 -24,2 -2.352,-0.24 -4.352,-1.073 -6,-2.5 11.545,1.158 22.545,-0.509 33,-5 z"
     id="path61" />
  <path
     fill="#cfcecf"
     d="m 175.77028,409.98582 c 1.823,2.613 3.323,5.28 4.5,8 -5.15,4.573 -10.483,8.906 -16,13 -4.394,6.201 -8.228,12.701 -11.5,19.5 -1.51,0.85 -3.01,1.683 -4.5,2.5 -0.5,-0.333 -1,-0.667 -1.5,-1 8.953,-9.909 15.286,-21.242 19,-34 -0.149,1.052 0.017,2.052 0.5,3 1.214,-1.549 2.714,-2.715 4.5,-3.5 2.742,-1.886 4.409,-4.386 5,-7.5 z"
     id="path62" />
  <path
     fill="#f5f5f4"
     d="m 352.77028,419.98582 c 0.328,6.321 -1.339,11.988 -5,17 -6.194,-0.366 -12.194,-0.366 -18,0 -2.611,1.434 -5.111,3.101 -7.5,5 -3.721,-1.443 -7.221,-3.277 -10.5,-5.5 9.062,-1.575 17.395,-4.908 25,-10 6.643,-9.42 4.309,-15.753 -7,-19 3.105,-4.719 6.772,-5.385 11,-2 4.967,4.124 8.967,8.958 12,14.5 z"
     id="path63" />
  <path
     fill="#d5d5d5"
     d="m 352.77028,419.98582 c 2.157,2.304 3.824,4.971 5,8 -0.889,2.779 -2.056,5.445 -3.5,8 -0.671,0.752 -1.504,1.086 -2.5,1 -1.333,0 -2.667,0 -4,0 3.661,-5.012 5.328,-10.679 5,-17 z"
     id="path64" />
  <path
     fill="#e5e5e6"
     d="m 117.77028,432.98582 c 0.552,3.772 2.219,7.105 5,10 -3.13,-0.076 -5.796,-1.576 -8,-4.5 0.624,-2.085 1.624,-3.918 3,-5.5 z"
     id="path65" />
  <path
     fill="#d5d5d5"
     d="m 162.77028,375.98582 c 2.208,0.523 3.708,1.856 4.5,4 -1.277,22.167 -7.61,42.834 -19,62 -2.167,2.167 -4.333,4.333 -6.5,6.5 -2.866,1.457 -5.866,1.79 -9,1 -2.251,-0.748 -3.584,-2.248 -4,-4.5 1.594,0.42 3.094,1.086 4.5,2 3.327,-1.498 6.327,-3.498 9,-6 14.397,-19.355 21.231,-41.021 20.5,-65 z"
     id="path66" />
  <path
     fill="#f8f9f8"
     d="m 284.77028,457.98582 c -8.533,-0.218 -16.866,-1.552 -25,-4 -3.804,-1.425 -5.471,-4.258 -5,-8.5 -0.204,-4.259 1.463,-7.592 5,-10 11.284,1.062 22.617,1.895 34,2.5 0.086,2.177 0.753,4.177 2,6 -5.179,3.508 -8.845,8.175 -11,14 z"
     id="path67" />
  <path
     fill="#f1efef"
     d="m 298.77028,435.98582 c 4.433,0.259 8.1,2.093 11,5.5 -2.872,0.315 -5.705,0.815 -8.5,1.5 -2.134,-1.787 -2.967,-4.12 -2.5,-7 z"
     id="path68" />
  <path
     fill="#7c7e81"
     d="m 360.77028,433.98582 c 1.965,0.448 2.298,1.448 1,3 -0.886,-0.825 -1.219,-1.825 -1,-3 z"
     id="path69" />
  <path
     fill="#303130"
     d="m 329.77028,436.98582 c 5.806,-0.366 11.806,-0.366 18,0 1.333,0 2.667,0 4,0 -3.967,0.419 -7.8,1.419 -11.5,3 -3.275,-1.771 -6.775,-2.771 -10.5,-3 z"
     id="path70" />
  <path
     fill="#f4f4f4"
     d="m 184.77028,421.98582 c 3.221,0.611 6.221,1.778 9,3.5 -10.654,10.64 -12.821,22.806 -6.5,36.5 3.245,2.886 5.912,5.886 8,9 -1.062,0.597 -2.228,0.93 -3.5,1 -14.34,-3.391 -28.34,-7.891 -42,-13.5 3.74,-1.29 6.907,-3.457 9.5,-6.5 2.15,-4.277 4.15,-8.611 6,-13 6.397,-5.905 12.897,-11.571 19.5,-17 z"
     id="path71" />
  <path
     fill="#f5f5f5"
     d="m 330.77028,440.98582 c 4.717,1.349 9.55,2.016 14.5,2 7.16,-0.809 14.327,-0.976 21.5,-0.5 -9.73,6.533 -20.064,12.033 -31,16.5 -0.808,-1.923 -1.308,-3.923 -1.5,-6 -1.715,-2.935 -3.548,-5.768 -5.5,-8.5 0.478,-1.303 1.145,-2.469 2,-3.5 z"
     id="path72" />
  <path
     fill="#f6f7f7"
     d="m 234.77028,444.98582 c -0.819,4.353 -3.152,7.853 -7,10.5 -10.012,7.056 -21.012,9.223 -33,6.5 -1.951,-1.216 -3.451,-2.882 -4.5,-5 -1.418,-4.928 -1.751,-9.928 -1,-15 2.545,-5.261 5.712,-10.094 9.5,-14.5 2.803,-0.755 5.47,-0.422 8,1 -5.116,4.06 -7.616,9.227 -7.5,15.5 0.5,0.5 1,1 1.5,1.5 3.333,0.667 6.667,0.667 10,0 5.912,-2.458 11.912,-4.625 18,-6.5 3.639,0.306 5.639,2.306 6,6 z"
     id="path73" />
  <path
     fill="#e2e1e1"
     d="m 297.77028,448.98582 c 0.996,-0.086 1.829,0.248 2.5,1 0.808,2.079 0.641,4.079 -0.5,6 -3.286,1.951 -6.286,4.285 -9,7 -1.141,-1.921 -1.308,-3.921 -0.5,-6 2.028,-3.192 4.528,-5.859 7.5,-8 z"
     id="path74" />
  <path
     fill="#cfcdcd"
     d="m 259.77028,453.98582 c 8.134,2.448 16.467,3.782 25,4 -1.548,1.294 -3.548,1.961 -6,2 -7.091,-0.032 -13.425,-2.032 -19,-6 z"
     id="path75" />
  <path
     fill="#f5f5f4"
     d="m 311.77028,444.98582 c 9.908,-0.743 16.241,3.591 19,13 -0.07,1.272 -0.403,2.438 -1,3.5 -6.927,2.476 -13.927,4.643 -21,6.5 -0.11,-3.462 -1.276,-6.462 -3.5,-9 -0.392,-4.028 -0.892,-8.028 -1.5,-12 2.357,0.163 4.69,-0.003 7,-0.5 0.556,-0.383 0.889,-0.883 1,-1.5 z"
     id="path76" />
  <path
     fill="#d3d3d2"
     d="m 234.77028,444.98582 c 1.632,4.352 0.799,8.352 -2.5,12 -11.642,9.714 -24.142,11.381 -37.5,5 11.988,2.723 22.988,0.556 33,-6.5 3.848,-2.647 6.181,-6.147 7,-10.5 z"
     id="path77" />
  <path
     fill="#eeeeee"
     d="m 297.77028,470.98582 c -1.175,0.219 -2.175,-0.114 -3,-1 1.307,-1.365 1.307,-2.698 0,-4 1.172,-3.015 3.339,-5.015 6.5,-6 2.893,1.549 3.893,3.883 3,7 -2.069,1.585 -4.236,2.919 -6.5,4 z"
     id="path78" />
  <path
     fill="#9d9b9d"
     d="m 287.77028,467.98582 c -4.863,-0.319 -9.53,0.014 -14,1 -1.879,0.107 -2.212,-0.393 -1,-1.5 5.184,-0.816 10.184,-0.65 15,0.5 z"
     id="path79" />
  <path
     fill="#ebebea"
     d="m 287.77028,467.98582 c 0.951,1.419 1.284,3.085 1,5 -5.526,0.263 -10.526,-1.07 -15,-4 4.47,-0.986 9.137,-1.319 14,-1 z"
     id="path80" />
  <path
     fill="#9e9d9d"
     d="m 294.77028,465.98582 c 1.307,1.302 1.307,2.635 0,4 0.825,0.886 1.825,1.219 3,1 -1.419,0.951 -3.085,1.284 -5,1 -0.241,-2.398 0.426,-4.398 2,-6 z"
     id="path81" />
  <path
     fill="#5b5b5b"
     d="m 203.77028,470.98582 c 3.072,-0.317 6.072,0.016 9,1 -0.124,0.607 -0.457,0.94 -1,1 -2.667,-0.667 -5.333,-1.333 -8,-2 z"
     id="path82" />
  <path
     fill="#ebeaeb"
     d="m 203.77028,470.98582 c 2.667,0.667 5.333,1.333 8,2 -3.536,2.511 -7.202,2.511 -11,0 0.505,-1.419 1.505,-2.085 3,-2 z"
     id="path83" />
  <path
     fill="#e7e6e6"
     d="m 262.77028,472.98582 c 3.91,-0.237 7.577,0.596 11,2.5 -4.253,0.2 -8.42,0.7 -12.5,1.5 -0.3,-1.566 0.2,-2.899 1.5,-4 z"
     id="path84" />
  <path
     fill="#dcdddd"
     d="m 237.77028,473.98582 c 2.726,-0.236 5.059,0.597 7,2.5 -3.333,0.667 -6.667,0.667 -10,0 1.071,-0.852 2.071,-1.685 3,-2.5 z"
     id="path85" />
</svg>
