<?xml version="1.0" encoding="UTF-8" standalone="no"?>
<svg
   version="1.1"
   width="357.43375"
   height="466.68689"
   style="clip-rule:evenodd;fill-rule:evenodd;image-rendering:optimizeQuality;shape-rendering:geometricPrecision;text-rendering:geometricPrecision"
   id="svg111"
   xmlns="http://www.w3.org/2000/svg"
   xmlns:svg="http://www.w3.org/2000/svg">
  <defs
     id="defs111" />
  <g
     id="g2"
     transform="translate(-361.82425,-561.8252)">
    <path
       style="opacity:1"
       fill="#151515"
       d="m 560.5,875.5 c -10.315,0.767 -20.648,1.101 -31,1 -53.499,-5.38 -94.999,-30.38 -124.5,-75 -30.829,-54.525 -31.162,-109.192 -1,-164 41.427,-60.783 98.594,-84.95 171.5,-72.5 68.572,18.57 109.405,62.737 122.5,132.5 5.433,56.384 -12.734,103.551 -54.5,141.5 -24.084,20.199 -51.751,32.366 -83,36.5 z"
       id="path2" />
  </g>
  <g
     id="g3"
     transform="translate(-361.82425,-561.8252)">
    <path
       style="opacity:1"
       fill="#f5f5f5"
       d="m 611.5,797.5 c 1,0 2,0 3,0 0.572,1.755 1.406,3.422 2.5,5 0.103,8.642 2.436,16.642 7,24 0.671,0.752 1.504,1.086 2.5,1 2.742,3.78 5.742,7.447 9,11 -3.238,5.219 -7.905,7.219 -14,6 -2.112,-6.108 -5.445,-11.442 -10,-16 -3.67,-5.847 -9.003,-9.013 -16,-9.5 -4.843,-4.38 -5.177,-9.046 -1,-14 3.657,0.108 7.323,0.108 11,0 2.139,-2.478 4.139,-4.978 6,-7.5 z"
       id="path3" />
  </g>
  <g
     id="g4"
     transform="translate(-361.82425,-561.8252)">
    <path
       style="opacity:1"
       fill="#f8f8f8"
       d="m 616.5,794.5 c -1.869,-0.665 -3.869,-1.331 -6,-2 -0.535,-1.761 -1.535,-3.094 -3,-4 -3.716,-3.949 -8.382,-6.116 -14,-6.5 -11.786,-0.337 -23.453,0.496 -35,2.5 -1.548,-0.321 -2.215,-1.321 -2,-3 1.291,0.237 2.291,-0.096 3,-1 18.439,-2.312 35.439,-8.479 51,-18.5 17.012,-14.517 26.846,-33.017 29.5,-55.5 4.608,-29.821 -2.725,-56.154 -22,-79 -20.048,-17.635 -43.548,-26.968 -70.5,-28 -4.655,-0.666 -9.488,-0.999 -14.5,-1 -6.746,-0.22 -13.246,0.446 -19.5,2 -39.743,5.927 -64.577,28.26 -74.5,67 -1.772,17.318 -3.272,34.652 -4.5,52 0.088,16.77 6.754,30.27 20,40.5 7.733,5.197 15.733,9.864 24,14 -0.791,8.465 -1.291,16.965 -1.5,25.5 -10.214,10.628 -16.214,23.295 -18,38 -2.378,2.209 -4.545,4.542 -6.5,7 -48.493,-35.565 -70.326,-83.565 -65.5,-144 11.57,-67.289 50.07,-110.789 115.5,-130.5 65.222,-12.93 119.055,5.904 161.5,56.5 33.802,47.94 39.802,99.273 18,154 -9.873,20.236 -23.039,38.07 -39.5,53.5 -1.109,0.638 -2.275,1.138 -3.5,1.5 -10.724,-9.472 -16.058,-21.472 -16,-36 -1.558,-2.521 -3.725,-4.188 -6.5,-5 z"
       id="path4" />
  </g>
  <g
     id="g5"
     transform="translate(-361.82425,-561.8252)">
    <path
       style="opacity:1"
       fill="#b5b5b6"
       d="m 501.5,799.5 c 1.193,0.47 1.86,1.47 2,3 -0.167,1 -0.333,2 -0.5,3 -1.319,-1.75 -1.819,-3.75 -1.5,-6 z"
       id="path5" />
  </g>
  <g
     id="g6"
     transform="translate(-361.82425,-561.8252)">
    <path
       style="opacity:1"
       fill="#c8c8c8"
       d="m 495.5,792.5 c 2.478,3.03 2.645,6.363 0.5,10 -2.95,2.645 -5.783,2.645 -8.5,0 6.405,-0.086 9.072,-3.419 8,-10 z"
       id="path6" />
  </g>
  <g
     id="g7"
     transform="translate(-361.82425,-561.8252)">
    <path
       style="opacity:1"
       fill="#b2d4d9"
       d="m 542.5,805.5 c 0.805,5.025 -1.361,7.358 -6.5,7 -1.878,-0.196 -3.712,-0.529 -5.5,-1 -2.211,-9.267 1.456,-12.767 11,-10.5 0.88,1.356 1.214,2.856 1,4.5 z"
       id="path7" />
  </g>
  <g
     id="g8"
     transform="translate(-361.82425,-561.8252)">
    <path
       style="opacity:1"
       fill="#bcbcbb"
       d="m 533.5,795.5 c 3.682,-0.165 7.348,10e-4 11,0.5 -1.788,1.088 -3.788,1.588 -6,1.5 -2.14,-0.056 -3.806,-0.723 -5,-2 z"
       id="path8" />
  </g>
  <g
     id="g9"
     transform="translate(-361.82425,-561.8252)">
    <path
       style="opacity:1"
       fill="#aad0d5"
       d="m 507.5,792.5 c 6.981,0.823 13.315,3.323 19,7.5 0.923,2.041 1.256,4.208 1,6.5 -9.911,-1.296 -10.244,-0.296 -1,3 -1.165,1.084 -2.498,1.917 -4,2.5 1.973,0.495 3.973,0.662 6,0.5 0.157,1.373 -0.01,2.707 -0.5,4 -16.826,15.156 -23.493,11.489 -20,-11 -2.989,-4.346 -3.155,-8.679 -0.5,-13 z"
       id="path9" />
  </g>
  <g
     id="g10"
     transform="translate(-361.82425,-561.8252)">
    <path
       style="opacity:1"
       fill="#e7e7e7"
       d="m 525.5,795.5 c 0.417,-0.624 1.084,-0.957 2,-1 1.213,0.247 1.88,0.914 2,2 -0.06,0.543 -0.393,0.876 -1,1 -1.018,-0.693 -2.018,-1.359 -3,-2 z"
       id="path10" />
  </g>
  <g
     id="g11"
     transform="translate(-361.82425,-561.8252)">
    <path
       style="opacity:1"
       fill="#bcdbdf"
       d="m 565.5,787.5 c 0.958,0.453 1.792,1.119 2.5,2 0.315,5.338 0.148,10.672 -0.5,16 -0.527,3.941 -0.694,7.941 -0.5,12 -5.826,1.843 -10.66,0.343 -14.5,-4.5 -1.667,-0.333 -3.333,-0.667 -5,-1 4.154,-1.076 8.154,-2.409 12,-4 -1.367,-2.301 -2.034,-4.801 -2,-7.5 -3.7,-0.036 -6.367,-1.703 -8,-5 3.964,-5.315 9.297,-7.982 16,-8 z"
       id="path11" />
  </g>
  <g
     id="g12"
     transform="translate(-361.82425,-561.8252)">
    <path
       style="opacity:1"
       fill="#7e7f81"
       d="m 529.5,796.5 c -0.12,-1.086 -0.787,-1.753 -2,-2 -0.916,0.043 -1.583,0.376 -2,1 -0.543,-0.06 -0.876,-0.393 -1,-1 1.896,-0.966 3.896,-1.299 6,-1 0.237,1.291 -0.096,2.291 -1,3 z"
       id="path12" />
  </g>
  <g
     id="g13"
     transform="translate(-361.82425,-561.8252)">
    <path
       style="opacity:1"
       fill="#5f5f60"
       d="m 528.5,785.5 c 0.961,1.765 1.295,3.765 1,6 -2.333,0 -4.667,0 -7,0 1.765,-0.961 3.765,-1.295 6,-1 0,-1.667 0,-3.333 0,-5 z"
       id="path13" />
  </g>
  <g
     id="g14"
     transform="translate(-361.82425,-561.8252)">
    <path
       style="opacity:1"
       fill="#f2f2f2"
       d="m 551.5,787.5 c -1.249,1.636 -2.916,2.803 -5,3.5 -4,0.667 -8,0.667 -12,0 -0.556,-0.383 -0.889,-0.883 -1,-1.5 0,-1 0,-2 0,-3 6.19,-0.323 12.19,0.01 18,1 z"
       id="path14" />
  </g>
  <g
     id="g15"
     transform="translate(-361.82425,-561.8252)">
    <path
       style="opacity:1"
       fill="#f6f6f6"
       d="m 605.5,790.5 c 0,0.333 0,0.667 0,1 -0.456,2.786 -2.123,4.119 -5,4 -9.478,-3.113 -19.144,-3.78 -29,-2 0.134,-1.792 -0.199,-3.458 -1,-5 1.449,-1.664 3.449,-2.498 6,-2.5 6,-0.667 12,-0.667 18,0 4.081,0.634 7.748,2.134 11,4.5 z"
       id="path15" />
  </g>
  <g
     id="g16"
     transform="translate(-361.82425,-561.8252)">
    <path
       style="opacity:1"
       fill="#808081"
       d="m 559.5,780.5 c -0.709,0.904 -1.709,1.237 -3,1 -0.215,1.679 0.452,2.679 2,3 -0.709,0.904 -1.709,1.237 -3,1 0,-1.667 0,-3.333 0,-5 1.333,0 2.667,0 4,0 z"
       id="path16" />
  </g>
  <g
     id="g17"
     transform="translate(-361.82425,-561.8252)">
    <path
       style="opacity:1"
       fill="#e4e3e3"
       d="m 496.5,784.5 c 4.659,-0.485 5.992,1.348 4,5.5 -5.523,0.752 -6.857,-1.081 -4,-5.5 z"
       id="path17" />
  </g>
  <g
     id="g18"
     transform="translate(-361.82425,-561.8252)">
    <path
       style="opacity:1"
       fill="#d0d0d0"
       d="m 551.5,787.5 c -5.81,-0.99 -11.81,-1.323 -18,-1 0,1 0,2 0,3 -0.968,-2.107 -1.302,-4.441 -1,-7 6.667,0 13.333,0 20,0 0.284,1.915 -0.049,3.581 -1,5 z"
       id="path18" />
  </g>
  <g
     id="g19"
     transform="translate(-361.82425,-561.8252)">
    <path
       style="opacity:1"
       fill="#f3f3f4"
       d="m 495.5,792.5 c 1.072,6.581 -1.595,9.914 -8,10 -2.361,-0.935 -4.528,-2.268 -6.5,-4 -0.499,-5.323 -0.666,-10.656 -0.5,-16 6.079,1.752 11.079,5.085 15,10 z"
       id="path19" />
  </g>
  <g
     id="g20"
     transform="translate(-361.82425,-561.8252)">
    <path
       style="opacity:1"
       fill="#ebebeb"
       d="m 528.5,785.5 c 0,1.667 0,3.333 0,5 -2.235,-0.295 -4.235,0.039 -6,1 -4.417,0.041 -8.584,-0.959 -12.5,-3 -1.812,-0.007 -3.312,0.66 -4.5,2 0.022,-4.566 -1.978,-7.899 -6,-10 0.5,-0.333 1,-0.667 1.5,-1 9.036,2.087 18.202,3.087 27.5,3 0,1 0,2 0,3 z"
       id="path20" />
  </g>
  <g
     id="g21"
     transform="translate(-361.82425,-561.8252)">
    <path
       style="opacity:1"
       fill="#d5d4d4"
       d="m 490.5,778.5 c 5.673,0.087 6.673,1.921 3,5.5 -5.211,0.546 -6.211,-1.287 -3,-5.5 z"
       id="path21" />
  </g>
  <g
     id="g22"
     transform="translate(-361.82425,-561.8252)">
    <path
       style="opacity:1"
       fill="#d7d7d7"
       d="m 484.5,765.5 c 1.322,-0.17 2.489,0.163 3.5,1 0.651,4.793 0.151,9.46 -1.5,14 -1.699,0.16 -3.366,-0.006 -5,-0.5 -0.38,-5 0.62,-9.834 3,-14.5 z"
       id="path22" />
  </g>
  <g
     id="g23"
     transform="translate(-361.82425,-561.8252)">
    <path
       style="opacity:1"
       fill="#8a8b8c"
       d="m 442.5,673.5 c -0.417,9.835 -1.084,19.501 -2,29 -0.166,-7.341 0,-14.674 0.5,-22 0.186,-2.536 0.686,-4.869 1.5,-7 z"
       id="path23" />
  </g>
  <g
     id="g24"
     transform="translate(-361.82425,-561.8252)">
    <path
       style="opacity:1"
       fill="#d0d0d0"
       d="m 613.5,629.5 c 16,16.813 23.667,36.98 23,60.5 -0.444,50.11 -25.444,78.776 -75,86 -15.261,2.273 -30.595,2.94 -46,2 -8.331,-0.957 -16.331,-2.79 -24,-5.5 31.851,3.529 62.184,-1.638 91,-15.5 17.127,-9.761 28.961,-23.928 35.5,-42.5 11.343,-29.15 9.843,-57.483 -4.5,-85 z"
       id="path24" />
  </g>
  <g
     id="g25"
     transform="translate(-361.82425,-561.8252)">
    <path
       style="opacity:1"
       fill="#fafafa"
       d="m 547.5,603.5 c 25.189,1.054 47.189,9.72 66,26 14.343,27.517 15.843,55.85 4.5,85 -6.539,18.572 -18.373,32.739 -35.5,42.5 -28.816,13.862 -59.149,19.029 -91,15.5 1.326,-6.827 -1.34,-9.994 -8,-9.5 -2.107,1.264 -3.107,3.097 -3,5.5 -14.703,-4.194 -26.536,-12.527 -35.5,-25 -6.801,-13.063 -8.301,-26.729 -4.5,-41 0.916,-9.499 1.583,-19.165 2,-29 5.152,-33.323 23.819,-55.157 56,-65.5 5.279,-1.487 10.612,-2.653 16,-3.5 10.982,-0.786 21.982,-1.119 33,-1 z"
       id="path25" />
  </g>
  <g
     id="g26"
     transform="translate(-361.82425,-561.8252)">
    <path
       style="opacity:1"
       fill="#0c0909"
       d="m 492.5,727.5 c 6.675,-0.166 13.342,0 20,0.5 11.264,2.59 14.431,9.09 9.5,19.5 -10.556,10.752 -20.889,10.419 -31,-1 -5.158,-7.018 -4.658,-13.351 1.5,-19 z"
       id="path26" />
  </g>
  <g
     id="g27"
     transform="translate(-361.82425,-561.8252)">
    <path
       style="opacity:1"
       fill="#e46858"
       d="m 509.5,740.5 c 3.667,0 7.333,0 11,0 -1.111,7.916 -5.778,11.583 -14,11 -7.656,-0.133 -8.656,-2.633 -3,-7.5 2.227,-0.941 4.227,-2.108 6,-3.5 z"
       id="path27" />
  </g>
  <g
     id="g28"
     transform="translate(-361.82425,-561.8252)">
    <path
       style="opacity:1"
       fill="#0f0f0f"
       d="m 498.5,698.5 c 5.995,0.808 10.162,4.141 12.5,10 1.833,6.167 -0.333,8.333 -6.5,6.5 -0.805,-1.972 -2.139,-3.472 -4,-4.5 -1.78,1.944 -3.947,3.277 -6.5,4 -3.779,-1.779 -4.445,-4.446 -2,-8 2.031,-2.855 4.197,-5.522 6.5,-8 z"
       id="path28" />
  </g>
  <g
     id="g29"
     transform="translate(-361.82425,-561.8252)">
    <path
       style="opacity:1"
       fill="#3b3a3b"
       d="m 580.5,674.5 c 0.768,0.763 1.268,1.763 1.5,3 0.82,6.514 0.653,12.847 -0.5,19 0.183,-7.368 -0.15,-14.701 -1,-22 z"
       id="path29" />
  </g>
  <g
     id="g30"
     transform="translate(-361.82425,-561.8252)">
    <path
       style="opacity:1"
       fill="#d0d0cf"
       d="m 474.5,656.5 c -8.035,-0.231 -14.202,3.102 -18.5,10 -7.174,11.93 -8.341,24.43 -3.5,37.5 -0.522,0.95 -1.189,1.784 -2,2.5 0.457,0.798 1.124,1.131 2,1 -0.709,0.904 -1.709,1.237 -3,1 -7.108,-15.762 -6.275,-31.096 2.5,-46 6.059,-8.06 13.559,-10.06 22.5,-6 z"
       id="path30" />
  </g>
  <g
     id="g31"
     transform="translate(-361.82425,-561.8252)">
    <path
       style="opacity:1"
       fill="#040504"
       d="m 567.5,659.5 c 6.163,3.491 10.497,8.491 13,15 0.85,7.299 1.183,14.632 1,22 -1.512,5.359 -3.846,10.359 -7,15 1.145,1.391 1.145,2.724 0,4 -8.942,-6.782 -19.109,-9.782 -30.5,-9 -4.526,0.141 -9.026,0.475 -13.5,1 0.73,-1.212 1.73,-2.212 3,-3 -6.713,-16.887 -3.38,-31.387 10,-43.5 7.738,-5.342 15.738,-5.842 24,-1.5 z"
       id="path31" />
  </g>
  <g
     id="g32"
     transform="translate(-361.82425,-561.8252)">
    <path
       style="opacity:1"
       fill="#060606"
       d="m 474.5,656.5 c 5.954,2.457 10.121,6.79 12.5,13 2.867,11.797 1.7,23.13 -3.5,34 0.209,0.586 0.543,1.086 1,1.5 -8.22,-1.4 -16.554,-1.733 -25,-1 -2.453,0.959 -4.786,2.126 -7,3.5 -0.876,0.131 -1.543,-0.202 -2,-1 0.811,-0.716 1.478,-1.55 2,-2.5 -4.841,-13.07 -3.674,-25.57 3.5,-37.5 4.298,-6.898 10.465,-10.231 18.5,-10 z"
       id="path32" />
  </g>
  <g
     id="g33"
     transform="translate(-361.82425,-561.8252)">
    <path
       style="opacity:1"
       fill="#cdcdcc"
       d="m 567.5,659.5 c -8.262,-4.342 -16.262,-3.842 -24,1.5 -13.38,12.113 -16.713,26.613 -10,43.5 -1.27,0.788 -2.27,1.788 -3,3 -8.065,-13.974 -7.899,-27.974 0.5,-42 7.829,-10.055 17.996,-13.555 30.5,-10.5 2.677,0.814 4.677,2.314 6,4.5 z"
       id="path33" />
  </g>
  <g
     id="g34"
     transform="translate(-361.82425,-561.8252)">
    <path
       style="opacity:1"
       fill="#888788"
       d="m 547.5,603.5 c -11.018,-0.119 -22.018,0.214 -33,1 6.436,-1.487 13.102,-2.154 20,-2 4.513,10e-4 8.847,0.334 13,1 z"
       id="path34" />
  </g>
  <g
     id="g35"
     transform="translate(-361.82425,-561.8252)">
    <path
       style="opacity:1"
       fill="#464546"
       d="m 547.5,599.5 c -11.352,-0.127 -22.685,0.206 -34,1 6.254,-1.554 12.754,-2.22 19.5,-2 5.012,10e-4 9.845,0.334 14.5,1 z"
       id="path35" />
  </g>
  <g
     id="g36"
     transform="translate(-361.82425,-561.8252)">
    <path
       style="opacity:1"
       fill="#cfcfce"
       d="m 614.5,797.5 c 2.216,0.703 4.049,2.036 5.5,4 0.333,4.333 0.667,8.667 1,13 1.846,4.355 3.679,8.688 5.5,13 -0.996,0.086 -1.829,-0.248 -2.5,-1 -4.564,-7.358 -6.897,-15.358 -7,-24 -1.094,-1.578 -1.928,-3.245 -2.5,-5 z"
       id="path36" />
  </g>
  <g
     id="g37"
     transform="translate(-361.82425,-561.8252)">
    <path
       style="opacity:1"
       fill="#e2e2e2"
       d="m 495.5,815.5 c -0.968,-2.107 -1.302,-4.441 -1,-7 1.749,-2.395 3.416,-2.395 5,0 -2.116,1.9 -3.449,4.233 -4,7 z"
       id="path37" />
  </g>
  <g
     id="g38"
     transform="translate(-361.82425,-561.8252)">
    <path
       style="opacity:1"
       fill="#ebecec"
       d="m 503.5,808.5 c 1.149,0.291 1.816,1.124 2,2.5 -3.139,18.836 3.194,23.17 19,13 7.739,-0.229 9.906,3.271 6.5,10.5 -8.703,3.033 -17.203,2.533 -25.5,-1.5 -8.523,-7.582 -9.19,-15.749 -2,-24.5 z"
       id="path38" />
  </g>
  <g
     id="g39"
     transform="translate(-361.82425,-561.8252)">
    <path
       style="opacity:1"
       fill="#cae5e8"
       d="m 510.5,806.5 c 1.175,-0.219 2.175,0.114 3,1 2.147,5.02 5.814,7.187 11,6.5 0.951,0.718 1.117,1.551 0.5,2.5 -13.65,10.207 -18.483,6.874 -14.5,-10 z"
       id="path39" />
  </g>
  <g
     id="g40"
     transform="translate(-361.82425,-561.8252)">
    <path
       style="opacity:1"
       fill="#7b9fa4"
       d="m 542.5,805.5 c 2.692,5.953 0.692,8.953 -6,9 -2.602,0.033 -4.602,-0.967 -6,-3 1.788,0.471 3.622,0.804 5.5,1 5.139,0.358 7.305,-1.975 6.5,-7 z"
       id="path40" />
  </g>
  <g
     id="g41"
     transform="translate(-361.82425,-561.8252)">
    <path
       style="opacity:1"
       fill="#99c1c6"
       d="m 549.5,795.5 c 1.633,3.297 4.3,4.964 8,5 -0.034,2.699 0.633,5.199 2,7.5 -3.846,1.591 -7.846,2.924 -12,4 1.667,0.333 3.333,0.667 5,1 3.84,4.843 8.674,6.343 14.5,4.5 -0.194,-4.059 -0.027,-8.059 0.5,-12 1.491,2.686 2.157,5.686 2,9 -0.167,2 -0.333,4 -0.5,6 -0.383,0.556 -0.883,0.889 -1.5,1 -6.98,0.516 -13.313,-1.317 -19,-5.5 -1.655,-1.444 -2.322,-3.278 -2,-5.5 7.712,0.011 7.712,-0.989 0,-3 1.628,-1.819 3.628,-3.153 6,-4 -2.271,-0.863 -4.605,-0.863 -7,0 0.03,-3.352 1.363,-6.018 4,-8 z"
       id="path41" />
  </g>
  <g
     id="g42"
     transform="translate(-361.82425,-561.8252)">
    <path
       style="opacity:1"
       fill="#eaeaea"
       d="m 477.5,802.5 c 1.929,-0.269 3.595,0.231 5,1.5 -4.18,6.177 -8.013,12.677 -11.5,19.5 -1.851,5.508 -2.851,11.175 -3,17 -1.667,1.667 -3.333,3.333 -5,5 -0.464,-16.109 4.37,-30.443 14.5,-43 z"
       id="path42" />
  </g>
  <g
     id="g43"
     transform="translate(-361.82425,-561.8252)">
    <path
       style="opacity:1"
       fill="#757576"
       d="m 494.5,808.5 c -0.302,2.559 0.032,4.893 1,7 0,2.667 0,5.333 0,8 -0.667,-2 -1.333,-4 -2,-6 -0.31,-3.213 0.023,-6.213 1,-9 z"
       id="path43" />
  </g>
  <g
     id="g44"
     transform="translate(-361.82425,-561.8252)">
    <path
       style="opacity:1"
       fill="#0e0f0f"
       d="m 570.5,788.5 c 0.801,1.542 1.134,3.208 1,5 0,1 0,2 0,3 10.673,-2.045 21.006,-1.045 31,3 1.272,-0.07 2.438,-0.403 3.5,-1 0.796,-2.539 0.629,-4.872 -0.5,-7 0,-0.333 0,-0.667 0,-1 0.333,-1 1,-1.667 2,-2 1.465,0.906 2.465,2.239 3,4 2.131,0.669 4.131,1.335 6,2 -1.302,1.528 -2.969,2.528 -5,3 -1.861,2.522 -3.861,5.022 -6,7.5 -3.677,0.108 -7.343,0.108 -11,0 -4.177,4.954 -3.843,9.62 1,14 6.997,0.487 12.33,3.653 16,9.5 0.994,1.834 0.994,3.501 0,5 -2.996,-3.993 -6.663,-7.326 -11,-10 -1.333,1 -2.667,2 -4,3 8.024,2.98 9.024,7.48 3,13.5 -4.667,2 -9.333,4 -14,6 2.97,2.874 5.97,3.374 9,1.5 0.838,0.342 1.172,1.008 1,2 0.057,1.109 0.39,2.109 1,3 -0.992,-0.172 -1.658,0.162 -2,1 -4.799,-2.187 -9.799,-2.52 -15,-1 -0.667,0.333 -1.333,0.667 -2,1 -0.667,0 -1.333,0 -2,0 -0.333,-0.667 -0.667,-1.333 -1,-2 -0.538,-1.617 -0.871,-3.284 -1,-5 -6.769,0.3 -13.436,-0.367 -20,-2 -1.425,0.123 -2.758,0.457 -4,1 0,-1 0,-2 0,-3 5.149,-0.56 10.482,-0.56 16,0 1.419,0.951 3.085,1.284 5,1 0.237,-1.291 -0.096,-2.291 -1,-3 0.353,-2.135 -0.48,-3.468 -2.5,-4 -6.795,1.112 -13.629,1.278 -20.5,0.5 -4.653,-3.788 -6.153,-8.622 -4.5,-14.5 1.039,-1.21 2.206,-2.21 3.5,-3 0.838,0.342 1.172,1.008 1,2 -1.788,2.728 -2.288,5.728 -1.5,9 0.708,0.881 1.542,1.547 2.5,2 0.111,0.617 0.444,1.117 1,1.5 16.353,0.745 31.687,-2.921 46,-11 -1.205,-1.376 -2.538,-2.542 -4,-3.5 -0.941,-1.55 -1.607,-3.216 -2,-5 0.285,-1.788 -0.048,-3.455 -1,-5 -1.022,0.355 -1.689,1.022 -2,2 -4.015,1.395 -8.015,2.895 -12,4.5 -0.707,2.52 -1.54,5.02 -2.5,7.5 -0.671,0.752 -1.504,1.086 -2.5,1 -8.976,0.374 -9.309,-0.626 -1,-3 0.617,-0.111 1.117,-0.444 1.5,-1 0.167,-2 0.333,-4 0.5,-6 0.157,-3.314 -0.509,-6.314 -2,-9 0.648,-5.328 0.815,-10.662 0.5,-16 -0.708,-0.881 -1.542,-1.547 -2.5,-2 -0.131,-0.876 0.202,-1.543 1,-2 1.352,1.024 2.685,2.024 4,3 z"
       id="path44" />
  </g>
  <g
     id="g45"
     transform="translate(-361.82425,-561.8252)">
    <path
       style="opacity:1"
       fill="#90908f"
       d="m 588.5,814.5 c -0.6,-1.4 -1.6,-2.4 -3,-3 0.311,-0.978 0.978,-1.645 2,-2 0.952,1.545 1.285,3.212 1,5 z"
       id="path45" />
  </g>
  <g
     id="g46"
     transform="translate(-361.82425,-561.8252)">
    <path
       style="opacity:1"
       fill="#727372"
       d="m 593.5,799.5 c 1.837,0.139 2.17,0.806 1,2 -0.798,-0.457 -1.131,-1.124 -1,-2 z"
       id="path46" />
  </g>
  <g
     id="g47"
     transform="translate(-361.82425,-561.8252)">
    <path
       style="opacity:1"
       fill="#cdcdcc"
       d="m 605.5,791.5 c 1.129,2.128 1.296,4.461 0.5,7 -1.062,0.597 -2.228,0.93 -3.5,1 -9.994,-4.045 -20.327,-5.045 -31,-3 0,-1 0,-2 0,-3 9.856,-1.78 19.522,-1.113 29,2 2.877,0.119 4.544,-1.214 5,-4 z"
       id="path47" />
  </g>
  <g
     id="g48"
     transform="translate(-361.82425,-561.8252)">
    <path
       style="opacity:1"
       fill="#d0d0d1"
       d="m 478.5,814.5 c 1.19,3.927 0.023,7.26 -3.5,10 0.829,-3.352 1.996,-6.685 3.5,-10 z"
       id="path48" />
  </g>
  <g
     id="g49"
     transform="translate(-361.82425,-561.8252)">
    <path
       style="opacity:1"
       fill="#f5f5f5"
       d="m 585.5,811.5 c 1.4,0.6 2.4,1.6 3,3 0.393,1.784 1.059,3.45 2,5 -0.086,0.996 0.248,1.829 1,2.5 -13.692,7.506 -28.359,11.006 -44,10.5 -0.958,-0.453 -1.792,-1.119 -2.5,-2 -0.788,-3.272 -0.288,-6.272 1.5,-9 1.195,-0.178 2.362,-0.511 3.5,-1 3.442,1.638 6.942,3.138 10.5,4.5 2.867,0.801 5.534,0.634 8,-0.5 0.996,0.086 1.829,-0.248 2.5,-1 0.96,-2.48 1.793,-4.98 2.5,-7.5 3.985,-1.605 7.985,-3.105 12,-4.5 z"
       id="path49" />
  </g>
  <g
     id="g50"
     transform="translate(-361.82425,-561.8252)">
    <path
       style="opacity:1"
       fill="#ececec"
       d="m 545.5,819.5 c -1.294,0.79 -2.461,1.79 -3.5,3 -1.653,5.878 -0.153,10.712 4.5,14.5 6.871,0.778 13.705,0.612 20.5,-0.5 2.02,0.532 2.853,1.865 2.5,4 -0.683,1.676 -2.017,2.343 -4,2 -5.518,-0.56 -10.851,-0.56 -16,0 -2.252,0.416 -3.752,1.749 -4.5,4 -2.204,8.6 0.963,13.933 9.5,16 0.61,0.891 0.943,1.891 1,3 -4.403,0.391 -7.403,2.724 -9,7 -1.365,-2.36 -3.365,-4.027 -6,-5 -1.076,-2.487 -2.41,-4.82 -4,-7 3.899,-7.275 2.399,-12.942 -4.5,-17 -0.167,-1 -0.333,-2 -0.5,-3 2.221,-3.494 3.554,-7.328 4,-11.5 -0.765,-4.008 -2.265,-7.508 -4.5,-10.5 4.225,-0.635 8.391,-1.635 12.5,-3 2.296,0.868 2.963,2.202 2,4 z"
       id="path50" />
  </g>
  <g
     id="g51"
     transform="translate(-361.82425,-561.8252)">
    <path
       style="opacity:1"
       fill="#cbcaca"
       d="m 590.5,819.5 c 1.462,0.958 2.795,2.124 4,3.5 -14.313,8.079 -29.647,11.745 -46,11 -0.556,-0.383 -0.889,-0.883 -1,-1.5 15.641,0.506 30.308,-2.994 44,-10.5 -0.752,-0.671 -1.086,-1.504 -1,-2.5 z"
       id="path51" />
  </g>
  <g
     id="g52"
     transform="translate(-361.82425,-561.8252)">
    <path
       style="opacity:1"
       fill="#cfcfcf"
       d="m 493.5,817.5 c 0.667,2 1.333,4 2,6 0.265,3.63 1.598,6.797 4,9.5 -7.346,5.006 -12.846,11.506 -16.5,19.5 -1.167,1.167 -2.333,2.333 -3.5,3.5 -0.832,0.688 -1.498,0.521 -2,-0.5 3.423,-3.928 6.257,-8.261 8.5,-13 2.967,-8.203 5.467,-16.536 7.5,-25 z"
       id="path52" />
  </g>
  <g
     id="g53"
     transform="translate(-361.82425,-561.8252)">
    <path
       style="opacity:1"
       fill="#eff0f0"
       d="m 488.5,823.5 c -0.897,-1.098 -1.73,-1.098 -2.5,0 -2.349,10.533 -7.182,19.699 -14.5,27.5 -1.525,1.009 -3.192,1.509 -5,1.5 -1.113,-1.446 -1.28,-3.113 -0.5,-5 3.313,-2.983 6.313,-6.317 9,-10 5.297,-8.931 7.964,-18.598 8,-29 2.075,-2.148 4.408,-2.482 7,-1 0.621,5.563 0.121,10.896 -1.5,16 z"
       id="path53" />
  </g>
  <g
     id="g54"
     transform="translate(-361.82425,-561.8252)">
    <path
       style="opacity:1"
       fill="#babbba"
       d="m 611.5,834.5 c 3.572,3.24 3.905,6.907 1,11 -3.48,1.306 -6.813,1.306 -10,0 3.018,0.165 6.018,-0.002 9,-0.5 -0.808,-0.308 -1.475,-0.808 -2,-1.5 1.63,-2.776 2.297,-5.776 2,-9 z"
       id="path54" />
  </g>
  <g
     id="g55"
     transform="translate(-361.82425,-561.8252)">
    <path
       style="opacity:1"
       fill="#ececeb"
       d="m 611.5,833.5 c 0,0.333 0,0.667 0,1 0.297,3.224 -0.37,6.224 -2,9 0.525,0.692 1.192,1.192 2,1.5 -2.982,0.498 -5.982,0.665 -9,0.5 -2.357,-0.163 -4.69,0.003 -7,0.5 -0.556,0.383 -0.889,0.883 -1,1.5 -3.03,1.874 -6.03,1.374 -9,-1.5 4.667,-2 9.333,-4 14,-6 6.024,-6.02 5.024,-10.52 -3,-13.5 1.333,-1 2.667,-2 4,-3 4.337,2.674 8.004,6.007 11,10 z"
       id="path55" />
  </g>
  <g
     id="g56"
     transform="translate(-361.82425,-561.8252)">
    <path
       style="opacity:1"
       fill="#6e6e6e"
       d="m 569.5,840.5 c 0.904,0.709 1.237,1.709 1,3 -1.915,0.284 -3.581,-0.049 -5,-1 1.983,0.343 3.317,-0.324 4,-2 z"
       id="path56" />
  </g>
  <g
     id="g57"
     transform="translate(-361.82425,-561.8252)">
    <path
       style="opacity:1"
       fill="#d5d4d4"
       d="m 488.5,823.5 c -2.116,9.231 -5.616,17.897 -10.5,26 -2.548,3.86 -6.048,5.36 -10.5,4.5 -0.556,-0.383 -0.889,-0.883 -1,-1.5 1.808,0.009 3.475,-0.491 5,-1.5 7.318,-7.801 12.151,-16.967 14.5,-27.5 0.77,-1.098 1.603,-1.098 2.5,0 z"
       id="path57" />
  </g>
  <g
     id="g58"
     transform="translate(-361.82425,-561.8252)">
    <path
       style="opacity:1"
       fill="#f4f4f4"
       d="m 574.5,851.5 c -4.233,1.562 -6.567,4.562 -7,9 -2.333,0 -4.667,0 -7,0 -2.015,-1.424 -4.348,-2.09 -7,-2 -6.291,-2.684 -7.624,-7.018 -4,-13 1.242,-0.543 2.575,-0.877 4,-1 6.564,1.633 13.231,2.3 20,2 0.129,1.716 0.462,3.383 1,5 z"
       id="path58" />
  </g>
  <g
     id="g59"
     transform="translate(-361.82425,-561.8252)">
    <path
       style="opacity:1"
       fill="#dad9d9"
       d="m 576.5,845.5 c 2.679,0.173 5.013,1.173 7,3 -1.921,1.141 -3.921,1.308 -6,0.5 -0.837,-1.011 -1.17,-2.178 -1,-3.5 z"
       id="path59" />
  </g>
  <g
     id="g60"
     transform="translate(-361.82425,-561.8252)">
    <path
       style="opacity:1"
       fill="#cecece"
       d="m 457.5,843.5 c 1.907,1.947 3.073,4.28 3.5,7 -3.782,-1.229 -4.949,-3.562 -3.5,-7 z"
       id="path60" />
  </g>
  <g
     id="g61"
     transform="translate(-361.82425,-561.8252)">
    <path
       style="opacity:1"
       fill="#e3e4e3"
       d="m 519.5,851.5 c -3.675,1.083 -7.175,1.083 -10.5,0 -0.198,3.952 -0.032,7.619 0.5,11 -4.548,-3.544 -6.048,-8.21 -4.5,-14 1.586,-2.841 3.42,-5.507 5.5,-8 2,-1.333 4,-1.333 6,0 -1.315,1.816 -2.815,3.483 -4.5,5 -0.667,1.667 -0.667,3.333 0,5 2.381,0.935 4.881,1.268 7.5,1 z"
       id="path61" />
  </g>
  <g
     id="g62"
     transform="translate(-361.82425,-561.8252)">
    <path
       style="opacity:1"
       fill="#868686"
       d="m 614.5,849.5 c 2.128,-1.129 4.461,-1.296 7,-0.5 -0.544,0.717 -1.211,1.217 -2,1.5 -1.419,-0.951 -3.085,-1.284 -5,-1 z"
       id="path62" />
  </g>
  <g
     id="g63"
     transform="translate(-361.82425,-561.8252)">
    <path
       style="opacity:1"
       fill="#f0f0f0"
       d="m 614.5,849.5 c 1.915,-0.284 3.581,0.049 5,1 -5.946,3.806 -12.279,6.806 -19,9 -0.498,-2.826 -1.831,-5.16 -4,-7 -0.61,-0.891 -0.943,-1.891 -1,-3 6.238,-0.252 12.572,-0.252 19,0 z"
       id="path63" />
  </g>
  <g
     id="g64"
     transform="translate(-361.82425,-561.8252)">
    <path
       style="opacity:1"
       fill="#f8f9f9"
       d="m 534.5,850.5 c 0.009,1.808 -0.491,3.475 -1.5,5 -6.728,5.81 -14.562,8.143 -23.5,7 -0.532,-3.381 -0.698,-7.048 -0.5,-11 3.325,1.083 6.825,1.083 10.5,0 3.483,-1.496 6.983,-2.829 10.5,-4 2.626,-0.45 4.126,0.55 4.5,3 z"
       id="path64" />
  </g>
  <g
     id="g65"
     transform="translate(-361.82425,-561.8252)">
    <path
       style="opacity:1"
       fill="#f0f0f0"
       d="m 501.5,836.5 c 2.327,-0.253 4.327,0.414 6,2 -6.488,7.2 -7.654,15.2 -3.5,24 1.684,1.851 3.517,3.518 5.5,5 -1.167,0.333 -2.333,0.667 -3.5,1 -9.136,-1.829 -17.969,-4.663 -26.5,-8.5 5.051,-2.72 8.218,-6.887 9.5,-12.5 3.767,-4.276 7.934,-7.943 12.5,-11 z"
       id="path65" />
  </g>
  <g
     id="g66"
     transform="translate(-361.82425,-561.8252)">
    <path
       style="opacity:1"
       fill="#dad9d8"
       d="m 575.5,853.5 c 0.667,0 1.333,0 2,0 0.285,1.788 -0.048,3.455 -1,5 -1.849,1.093 -3.516,2.426 -5,4 -1.114,-1.223 -1.281,-2.556 -0.5,-4 1.193,-1.997 2.693,-3.664 4.5,-5 z"
       id="path66" />
  </g>
  <g
     id="g67"
     transform="translate(-361.82425,-561.8252)">
    <path
       style="opacity:1"
       fill="#f3f4f2"
       d="m 594.5,853.5 c 1.712,2.396 2.212,5.062 1.5,8 -4.289,2.041 -8.789,3.374 -13.5,4 -1.314,-4.191 -2.314,-8.525 -3,-13 5.201,-1.52 10.201,-1.187 15,1 z"
       id="path67" />
  </g>
  <g
     id="g68"
     transform="translate(-361.82425,-561.8252)">
    <path
       style="opacity:1"
       fill="#969595"
       d="m 553.5,858.5 c 2.652,-0.09 4.985,0.576 7,2 -2.652,0.09 -4.985,-0.576 -7,-2 z"
       id="path68" />
  </g>
  <g
     id="g69"
     transform="translate(-361.82425,-561.8252)">
    <path
       style="opacity:1"
       fill="#d6d6d5"
       d="m 576.5,860.5 c 2.095,0.26 3.428,1.426 4,3.5 -1.847,3.024 -4.513,4.524 -8,4.5 0.276,-3.219 1.609,-5.885 4,-8 z"
       id="path69" />
  </g>
  <g
     id="g70"
     transform="translate(-361.82425,-561.8252)">
    <path
       style="opacity:1"
       fill="#d2d2d1"
       d="m 534.5,850.5 c 1.109,6.144 -1.558,10.311 -8,12.5 -5.899,2.148 -11.566,1.981 -17,-0.5 8.938,1.143 16.772,-1.19 23.5,-7 1.009,-1.525 1.509,-3.192 1.5,-5 z"
       id="path70" />
  </g>
  <g
     id="g71"
     transform="translate(-361.82425,-561.8252)">
    <path
       style="opacity:1"
       fill="#818180"
       d="m 554.5,862.5 c 2.052,0.553 2.385,1.553 1,3 -0.057,-1.109 -0.39,-2.109 -1,-3 z"
       id="path71" />
  </g>
  <g
     id="g72"
     transform="translate(-361.82425,-561.8252)">
    <path
       style="opacity:1"
       fill="#dbdad9"
       d="m 559.5,866.5 c 3.125,-0.979 6.458,-1.313 10,-1 0,1.333 0,2.667 0,4 -3.695,0.15 -7.028,-0.85 -10,-3 z"
       id="path72" />
  </g>
  <g
     id="g73"
     transform="translate(-361.82425,-561.8252)">
    <path
       style="opacity:1"
       fill="#c5c5c5"
       d="m 512.5,868.5 c 2.424,-0.308 4.757,0.026 7,1 -1.167,0.333 -2.333,0.667 -3.5,1 -1.681,-0.108 -2.848,-0.775 -3.5,-2 z"
       id="path73" />
  </g>
  <g
     id="g74"
     transform="translate(-361.82425,-561.8252)">
    <path
       style="opacity:1"
       fill="#cdcdcd"
       d="m 552.5,869.5 c 2.573,-0.352 4.906,0.148 7,1.5 -2.667,0.667 -5.333,0.667 -8,0 0.556,-0.383 0.889,-0.883 1,-1.5 z"
       id="path74" />
  </g>
  <g
     id="g75"
     transform="translate(-361.82425,-561.8252)">
    <path
       style="opacity:1"
       fill="#aeafaf"
       d="m 535.5,870.5 c 2.25,-0.319 4.25,0.181 6,1.5 -2.333,0.667 -4.667,0.667 -7,0 0.556,-0.383 0.889,-0.883 1,-1.5 z"
       id="path75" />
  </g>
  <g
     id="g76"
     transform="translate(-361.82425,-561.8252)">
    <path
       style="opacity:1"
       fill="#c8c7c7"
       d="m 560.5,875.5 c -5.927,1.507 -12.094,2.174 -18.5,2 -4.347,-10e-4 -8.514,-0.334 -12.5,-1 10.352,0.101 20.685,-0.233 31,-1 z"
       id="path76" />
  </g>
  <g
     id="g77"
     transform="translate(-361.82425,-561.8252)">
    <path
       style="opacity:1"
       fill="#243f64"
       d="m 401.5,881.5 c 3,0 6,0 9,0 -0.424,10.392 -1.424,20.725 -3,31 2.357,0.163 4.69,-0.003 7,-0.5 3.485,-3.469 5.485,-7.636 6,-12.5 1.667,0 3.333,0 5,0 -0.789,6.406 -3.789,11.573 -9,15.5 2.033,3.898 4.2,7.732 6.5,11.5 1.356,0.88 2.856,1.214 4.5,1 0.17,1.322 -0.163,2.489 -1,3.5 -2,0.667 -4,0.667 -6,0 -2.88,-4.258 -5.38,-8.758 -7.5,-13.5 -2.041,-0.923 -4.208,-1.256 -6.5,-1 -0.113,5.018 -0.447,10.018 -1,15 -1.667,0 -3.333,0 -5,0 1.427,-15.363 3.094,-30.696 5,-46 -1.667,0 -3.333,0 -5,0 -0.067,-1.459 0.266,-2.792 1,-4 z"
       id="path77" />
  </g>
  <g
     id="g78"
     transform="translate(-361.82425,-561.8252)">
    <path
       style="opacity:1"
       fill="#1e3b60"
       d="m 472.5,881.5 c 3,0 6,0 9,0 -1.447,15.363 -3.113,30.696 -5,46 1.667,0 3.333,0 5,0 0.17,1.322 -0.163,2.489 -1,3.5 -2.982,0.498 -5.982,0.665 -9,0.5 1.503,-15.357 3.17,-30.691 5,-46 -1.667,0 -3.333,0 -5,0 -0.067,-1.459 0.266,-2.792 1,-4 z"
       id="path78" />
  </g>
  <g
     id="g79"
     transform="translate(-361.82425,-561.8252)">
    <path
       style="opacity:1"
       fill="#213d62"
       d="m 489.5,881.5 c 3,0 6,0 9,0 -1.009,15.408 -2.676,30.741 -5,46 1.667,0 3.333,0 5,0 0.17,1.322 -0.163,2.489 -1,3.5 -2.982,0.498 -5.982,0.665 -9,0.5 1.427,-15.36 3.093,-30.693 5,-46 -1.667,0 -3.333,0 -5,0 -0.067,-1.459 0.266,-2.792 1,-4 z"
       id="path79" />
  </g>
  <g
     id="g80"
     transform="translate(-361.82425,-561.8252)">
    <path
       style="opacity:1"
       fill="#243f63"
       d="m 393.5,887.5 c 0,3 0,6 0,9 -1.333,0 -2.667,0 -4,0 0.458,-2.894 -0.209,-5.394 -2,-7.5 -4,-0.667 -8,-0.667 -12,0 -2.579,1.076 -4.246,2.909 -5,5.5 -0.445,2.865 0.222,5.365 2,7.5 5,1.667 10,3.333 15,5 5.525,2.919 7.358,7.419 5.5,13.5 -2.699,8.666 -8.699,12.666 -18,12 -4.339,-0.251 -8.506,-1.251 -12.5,-3 -0.901,-3.295 -0.901,-6.628 0,-10 1.333,0 2.667,0 4,0 -0.256,2.292 0.077,4.459 1,6.5 4.547,1.545 9.213,1.879 14,1 6.173,-3.748 7.507,-8.748 4,-15 -6.493,-1.719 -12.66,-4.219 -18.5,-7.5 -5.055,-10.061 -2.221,-16.895 8.5,-20.5 3.333,-0.667 6.667,-0.667 10,0 3.166,0.322 5.833,1.489 8,3.5 z"
       id="path80" />
  </g>
  <g
     id="g81"
     transform="translate(-361.82425,-561.8252)">
    <path
       style="opacity:1"
       fill="#1f3c61"
       d="m 559.5,884.5 c 1.667,0 3.333,0 5,0 0,2 0,4 0,6 -1.667,0 -3.333,0 -5,0 0,-2 0,-4 0,-6 z"
       id="path81" />
  </g>
  <g
     id="g82"
     transform="translate(-361.82425,-561.8252)">
    <path
       style="opacity:1"
       fill="#d7dade"
       d="m 393.5,887.5 c 1.322,4.066 1.322,8.233 0,12.5 -1.333,0.667 -2.667,0.667 -4,0 -0.774,-2.405 -1.274,-4.905 -1.5,-7.5 -6.242,-2.942 -12.075,-2.275 -17.5,2 0.754,-2.591 2.421,-4.424 5,-5.5 4,-0.667 8,-0.667 12,0 1.791,2.106 2.458,4.606 2,7.5 1.333,0 2.667,0 4,0 0,-3 0,-6 0,-9 z"
       id="path82" />
  </g>
  <g
     id="g83"
     transform="translate(-361.82425,-561.8252)">
    <path
       style="opacity:1"
       fill="#264165"
       d="m 538.5,894.5 c -0.951,1.419 -1.284,3.085 -1,5 4.149,-0.58 7.816,0.086 11,2 -0.111,0.617 -0.444,1.117 -1,1.5 -3.652,0.499 -7.318,0.665 -11,0.5 -0.446,7.673 -0.612,15.34 -0.5,23 1.133,1.711 2.633,2.211 4.5,1.5 1.803,-1.262 3.136,-2.929 4,-5 0.948,-0.483 1.948,-0.649 3,-0.5 -1.097,8.715 -5.763,11.548 -14,8.5 -2.461,-2.827 -3.461,-6.16 -3,-10 0.267,-5.568 0.933,-11.068 2,-16.5 -1.545,-0.952 -3.212,-1.285 -5,-1 0,-1.333 0,-2.667 0,-4 2,0 4,0 6,0 -0.165,-3.018 0.002,-6.018 0.5,-9 1.11,-1.537 2.61,-2.203 4.5,-2 0,2 0,4 0,6 z"
       id="path83" />
  </g>
  <g
     id="g84"
     transform="translate(-361.82425,-561.8252)">
    <path
       style="opacity:1"
       fill="#274266"
       d="m 676.5,892.5 c -0.968,2.107 -1.302,4.441 -1,7 3.667,0 7.333,0 11,0 -0.039,1.083 -0.373,2.083 -1,3 -3.607,0.989 -7.274,1.323 -11,1 -0.514,7.365 -1.014,14.698 -1.5,22 4.514,4.328 7.347,3.328 8.5,-3 1.333,0 2.667,0 4,0 -0.631,7.467 -4.631,10.634 -12,9.5 -4.151,-1.8 -6.151,-4.967 -6,-9.5 1.507,-6.241 2.174,-12.575 2,-19 -1.667,0 -3.333,0 -5,0 -0.17,-1.322 0.163,-2.489 1,-3.5 1.933,-0.251 3.766,-0.751 5.5,-1.5 0.333,-2.667 0.667,-5.333 1,-8 1.11,-1.537 2.61,-2.203 4.5,-2 0,1.333 0,2.667 0,4 z"
       id="path84" />
  </g>
  <g
     id="g85"
     transform="translate(-361.82425,-561.8252)">
    <path
       style="opacity:1"
       fill="#98a5b5"
       d="m 538.5,894.5 c 0,1.333 0,2.667 0,4 3.667,0 7.333,0 11,0 0.237,1.291 -0.096,2.291 -1,3 -3.184,-1.914 -6.851,-2.58 -11,-2 -0.284,-1.915 0.049,-3.581 1,-5 z"
       id="path85" />
  </g>
  <g
     id="g86"
     transform="translate(-361.82425,-561.8252)">
    <path
       style="opacity:1"
       fill="#9ba8b7"
       d="m 572.5,899.5 c 2.787,-0.977 5.787,-1.31 9,-1 0,1.667 0,3.333 0,5 -1.131,0.702 -1.464,-0.632 -1,-4 -2.667,0 -5.333,0 -8,0 z"
       id="path86" />
  </g>
  <g
     id="g87"
     transform="translate(-361.82425,-561.8252)">
    <path
       style="opacity:1"
       fill="#243f64"
       d="m 615.5,909.5 c -0.484,-6.295 -3.817,-8.461 -10,-6.5 -1.167,1.167 -2.333,2.333 -3.5,3.5 -2.065,8.181 -3.231,16.515 -3.5,25 -1.667,0 -3.333,0 -5,0 0,-1 0,-2 0,-3 0.729,-4.63 1.063,-9.297 1,-14 3.334,-8.153 0.667,-11.986 -8,-11.5 -4.021,1.868 -6.187,5.035 -6.5,9.5 -0.651,6.327 -1.151,12.66 -1.5,19 -1.667,0 -3.333,0 -5,0 0,-1 0,-2 0,-3 1.001,-8.013 2.001,-16.013 3,-24 -1.896,-0.966 -3.896,-1.299 -6,-1 -0.271,-1.88 0.396,-3.213 2,-4 2.667,0 5.333,0 8,0 -0.464,3.368 -0.131,4.702 1,4 6.945,-6.885 13.445,-6.551 19.5,1 6.147,-7.486 12.481,-7.819 19,-1 0.482,8.067 -0.018,16.067 -1.5,24 1.667,0 3.333,0 5,0 0.17,1.322 -0.163,2.489 -1,3.5 -2.982,0.498 -5.982,0.665 -9,0.5 0.667,-7.333 1.333,-14.667 2,-22 z"
       id="path87" />
  </g>
  <g
     id="g88"
     transform="translate(-361.82425,-561.8252)">
    <path
       style="opacity:1"
       fill="#264165"
       d="m 638.5,898.5 c 5.828,-1.003 10.661,0.664 14.5,5 0.307,-3.376 2.14,-4.71 5.5,-4 -1.821,9.239 -2.821,18.572 -3,28 1.333,0 2.667,0 4,0 0.17,1.322 -0.163,2.489 -1,3.5 -2.646,0.497 -5.313,0.664 -8,0.5 0.162,-2.027 -0.005,-4.027 -0.5,-6 -4.37,7.2 -10.203,8.7 -17.5,4.5 -6.726,-12.244 -4.726,-22.744 6,-31.5 z"
       id="path88" />
  </g>
  <g
     id="g89"
     transform="translate(-361.82425,-561.8252)">
    <path
       style="opacity:1"
       fill="#99a6b6"
       d="m 676.5,892.5 c 0,2 0,4 0,6 3.542,-0.313 6.875,0.021 10,1 -3.667,0 -7.333,0 -11,0 -0.302,-2.559 0.032,-4.893 1,-7 z"
       id="path89" />
  </g>
  <g
     id="g90"
     transform="translate(-361.82425,-561.8252)">
    <path
       style="opacity:1"
       fill="#254064"
       d="m 701.5,898.5 c 5.451,-0.721 10.285,0.612 14.5,4 1.922,5.883 0.089,10.049 -5.5,12.5 -4.912,1.416 -9.912,2.249 -15,2.5 -0.289,8.542 3.711,11.708 12,9.5 2.5,-1.167 4.333,-3 5.5,-5.5 3.006,2.443 2.839,4.943 -0.5,7.5 -12.833,6.917 -20.166,3.251 -22,-11 -0.27,-8.859 3.397,-15.359 11,-19.5 z"
       id="path90" />
  </g>
  <g
     id="g91"
     transform="translate(-361.82425,-561.8252)">
    <path
       style="opacity:1"
       fill="#254064"
       d="m 431.5,899.5 c 3.333,0 6.667,0 10,0 -1.074,8.313 -1.574,16.646 -1.5,25 0.943,2.454 2.776,3.454 5.5,3 3.014,0.242 5.514,-0.758 7.5,-3 2.301,-7.475 3.635,-15.141 4,-23 1.049,-1.607 2.549,-2.273 4.5,-2 -0.337,9.359 -1.003,18.692 -2,28 1.667,0 3.333,0 5,0 0.17,1.322 -0.163,2.489 -1,3.5 -2.982,0.498 -5.982,0.665 -9,0.5 0.162,-2.027 -0.005,-4.027 -0.5,-6 -4.986,7.831 -10.986,8.831 -18,3 -1.057,-2.707 -1.557,-5.54 -1.5,-8.5 0.396,-5.542 1.063,-11.042 2,-16.5 -1.667,0 -3.333,0 -5,0 0,-1.333 0,-2.667 0,-4 z"
       id="path91" />
  </g>
  <g
     id="g92"
     transform="translate(-361.82425,-561.8252)">
    <path
       style="opacity:1"
       fill="#233f63"
       d="m 553.5,899.5 c 3.333,0 6.667,0 10,0 -1.263,9.31 -2.263,18.644 -3,28 1.667,0 3.333,0 5,0 0.17,1.322 -0.163,2.489 -1,3.5 -3.382,0.824 -6.716,0.657 -10,-0.5 1.738,-8.905 2.738,-17.905 3,-27 -1.667,0 -3.333,0 -5,0 -0.067,-1.459 0.266,-2.792 1,-4 z"
       id="path92" />
  </g>
  <g
     id="g93"
     transform="translate(-361.82425,-561.8252)">
    <path
       style="opacity:1"
       fill="#e1e3e5"
       d="m 594.5,914.5 c -0.053,-7.22 -3.386,-9.386 -10,-6.5 -1.854,2.543 -3.021,5.376 -3.5,8.5 -0.59,5.721 -1.423,11.388 -2.5,17 -3.338,2.837 -5.338,2.004 -6,-2.5 0.028,-1.07 0.361,-1.903 1,-2.5 0,1 0,2 0,3 1.667,0 3.333,0 5,0 0.349,-6.34 0.849,-12.673 1.5,-19 0.313,-4.465 2.479,-7.632 6.5,-9.5 8.667,-0.486 11.334,3.347 8,11.5 z"
       id="path93" />
  </g>
  <g
     id="g94"
     transform="translate(-361.82425,-561.8252)">
    <path
       style="opacity:1"
       fill="#e2e4e6"
       d="m 615.5,909.5 c -1.989,-0.981 -3.989,-1.981 -6,-3 -4.13,-0.016 -6.63,1.984 -7.5,6 -1.086,7.029 -2.253,14.029 -3.5,21 -3.338,2.837 -5.338,2.004 -6,-2.5 0.028,-1.07 0.361,-1.903 1,-2.5 0,1 0,2 0,3 1.667,0 3.333,0 5,0 0.269,-8.485 1.435,-16.819 3.5,-25 1.167,-1.167 2.333,-2.333 3.5,-3.5 6.183,-1.961 9.516,0.205 10,6.5 z"
       id="path94" />
  </g>
  <g
     id="g95"
     transform="translate(-361.82425,-561.8252)">
    <path
       style="opacity:1"
       fill="#f2f3f3"
       d="m 640.5,902.5 c 10.605,0.289 14.105,5.623 10.5,16 -2.743,9.406 -8.076,11.406 -16,6 -0.667,-5 -0.667,-10 0,-15 1.371,-2.766 3.204,-5.099 5.5,-7 z"
       id="path95" />
  </g>
  <g
     id="g96"
     transform="translate(-361.82425,-561.8252)">
    <path
       style="opacity:1"
       fill="#edeeef"
       d="m 702.5,902.5 c 6.486,-1.665 9.319,0.668 8.5,7 -4.615,3.228 -9.781,4.895 -15.5,5 0.821,-4.987 3.154,-8.987 7,-12 z"
       id="path96" />
  </g>
  <g
     id="g97"
     transform="translate(-361.82425,-561.8252)">
    <path
       style="opacity:1"
       fill="#18375d"
       d="m 505.5,912.5 c 5.333,0 10.667,0 16,0 0,1.333 0,2.667 0,4 -5.333,0 -10.667,0 -16,0 0,-1.333 0,-2.667 0,-4 z"
       id="path97" />
  </g>
  <g
     id="g98"
     transform="translate(-361.82425,-561.8252)">
    <path
       style="opacity:1"
       fill="#909dae"
       d="m 505.5,912.5 c 0,1.333 0,2.667 0,4 5.333,0 10.667,0 16,0 -5.475,0.989 -11.142,1.322 -17,1 -0.284,-1.915 0.049,-3.581 1,-5 z"
       id="path98" />
  </g>
  <g
     id="g99"
     transform="translate(-361.82425,-561.8252)">
    <path
       style="opacity:1"
       fill="#8c63c2"
       d="m 420.5,994.5 c 2.685,15.18 -3.648,24.35 -19,27.5 -13.835,2.29 -26.835,0.12 -39,-6.5 1.826,-4.98 4.159,-9.65 7,-14 8.596,5.54 17.929,7.37 28,5.5 4.729,-1 6.062,-3.66 4,-8 -7.751,-3.181 -15.751,-5.514 -24,-7 -11.815,-4.79 -15.982,-13.29 -12.5,-25.5 4.249,-8.383 11.082,-13.217 20.5,-14.5 11.179,-1.537 21.846,0.129 32,5 0.457,0.414 0.791,0.914 1,1.5 -1.669,4.671 -3.836,9.004 -6.5,13 -5.868,-2.789 -12.034,-4.456 -18.5,-5 -5.291,-0.362 -8.958,1.805 -11,6.5 0.601,1.605 1.601,2.938 3,4 9.912,2.248 19.579,5.248 29,9 3.023,2.177 5.023,5.011 6,8.5 z"
       id="path99" />
  </g>
  <g
     id="g100"
     transform="translate(-361.82425,-561.8252)">
    <path
       style="opacity:1"
       fill="#8c62c2"
       d="m 496.5,981.5 c 0,3.667 0,7.333 0,11 -2.62,16.12 -11.953,25.95 -28,29.5 -17.822,3.49 -31.988,-2.01 -42.5,-16.5 -1.822,-3.66 -3.322,-7.324 -4.5,-11 -1.916,-22.583 8.084,-36.75 30,-42.5 19.976,-2.698 34.476,4.802 43.5,22.5 0.977,2.24 1.477,4.573 1.5,7 z"
       id="path100" />
  </g>
  <g
     id="g101"
     transform="translate(-361.82425,-561.8252)">
    <path
       style="opacity:1"
       fill="#8c62c2"
       d="m 564.5,963.5 c 0.131,0.739 -0.036,1.406 -0.5,2 -3.981,3.147 -7.814,6.48 -11.5,10 -9.661,-9.649 -19.828,-10.315 -30.5,-2 -4.343,6.223 -5.51,12.889 -3.5,20 3.86,10.93 11.527,15.1 23,12.5 4.294,-1.15 7.961,-3.31 11,-6.5 4.311,2.98 8.311,6.31 12,10 -4.545,6.62 -10.878,10.79 -19,12.5 -19.625,3.92 -34.458,-2.58 -44.5,-19.5 -1.15,-3.268 -1.984,-6.601 -2.5,-10 0,-3.667 0,-7.333 0,-11 4.293,-18.785 16.126,-28.785 35.5,-30 11.931,-0.195 22.098,3.805 30.5,12 z"
       id="path101" />
  </g>
  <g
     id="g102"
     transform="translate(-361.82425,-561.8252)">
    <path
       style="opacity:1"
       fill="#8b62c2"
       d="m 586.5,953.5 c -0.167,22.336 0,44.669 0.5,67 0.513,-1.03 1.013,-2.03 1.5,-3 9.154,-20.979 18.321,-41.979 27.5,-63 6.777,-1.311 13.61,-1.311 20.5,0 9.895,21.121 19.229,42.454 28,64 0.283,0.79 0.783,1.46 1.5,2 0.5,-22.331 0.667,-44.664 0.5,-67 6,0 12,0 18,0 0,17.667 0,35.333 0,53 11,0 22,0 33,0 0,5 0,10 0,15 -24,0 -48,0 -72,0 -1.333,-4.33 -2.667,-8.67 -4,-13 -10.006,-0.17 -20.006,0 -30,0.5 -1.76,3.77 -3.427,7.61 -5,11.5 -12.983,1 -25.983,1.33 -39,1 0,-21 0,-42 0,-63 0,-1.667 0,-3.333 0,-5 6.333,0 12.667,0 19,0 z"
       id="path102" />
  </g>
  <g
     id="g103"
     transform="translate(-361.82425,-561.8252)">
    <path
       style="opacity:1"
       fill="#ebeaec"
       d="m 567.5,958.5 c 0,21 0,42 0,63 13.017,0.33 26.017,0 39,-1 1.573,-3.89 3.24,-7.73 5,-11.5 9.994,-0.5 19.994,-0.67 30,-0.5 1.333,4.33 2.667,8.67 4,13 24,0 48,0 72,0 0,-5 0,-10 0,-15 1.621,5.1 2.121,10.44 1.5,16 -0.465,1.43 -1.299,2.6 -2.5,3.5 -15.907,0.17 -31.741,0.67 -47.5,1.5 -7.421,-0.82 -14.921,-1.32 -22.5,-1.5 -2.845,-3.36 -5.179,-7.03 -7,-11 -4.388,-1.11 -8.888,-1.61 -13.5,-1.5 -4.612,-0.11 -9.112,0.39 -13.5,1.5 -1.496,3.15 -2.996,6.32 -4.5,9.5 -0.75,0.63 -1.584,1.13 -2.5,1.5 -12.333,0.67 -24.667,0.67 -37,0 -1.395,-2.78 -2.728,-5.62 -4,-8.5 -19.8,14.92 -39.3,14.58 -58.5,-1 -2.671,-4.16 -5.505,-8.16 -8.5,-12 -15.073,23.69 -35.406,29.52 -61,17.5 -4.531,-3.53 -8.697,-7.37 -12.5,-11.5 -2.458,2.21 -4.458,4.88 -6,8 -7.419,6.9 -16.252,10.24 -26.5,10 -9.778,-0.07 -18.944,-2.4 -27.5,-7 -1.128,-1.85 -1.628,-3.85 -1.5,-6 12.165,6.62 25.165,8.79 39,6.5 15.352,-3.15 21.685,-12.32 19,-27.5 0.333,0 0.667,0 1,0 1.178,3.676 2.678,7.34 4.5,11 10.512,14.49 24.678,19.99 42.5,16.5 16.047,-3.55 25.38,-13.38 28,-29.5 0.667,0 1.333,0 2,0 0.516,3.399 1.35,6.732 2.5,10 10.042,16.92 24.875,23.42 44.5,19.5 8.122,-1.71 14.455,-5.88 19,-12.5 0.617,-0.11 1.117,-0.44 1.5,-1 0.667,-11.667 0.667,-23.333 0,-35 -0.308,-0.808 -0.808,-1.475 -1.5,-2 -3.752,3.094 -7.752,5.761 -12,8 -3.541,-2.03 -7.208,-3.863 -11,-5.5 -14.508,-1.664 -22.174,4.836 -23,19.5 -2.01,-7.111 -0.843,-13.777 3.5,-20 10.672,-8.315 20.839,-7.649 30.5,2 3.686,-3.52 7.519,-6.853 11.5,-10 0.464,-0.594 0.631,-1.261 0.5,-2 1.435,-1.413 2.435,-3.08 3,-5 z"
       id="path103" />
  </g>
  <g
     id="g104"
     transform="translate(-361.82425,-561.8252)">
    <path
       style="opacity:1"
       fill="#beaad9"
       d="m 586.5,953.5 c 0.667,21.333 1.333,42.667 2,64 -0.487,0.97 -0.987,1.97 -1.5,3 -0.5,-22.331 -0.667,-44.664 -0.5,-67 z"
       id="path104" />
  </g>
  <g
     id="g105"
     transform="translate(-361.82425,-561.8252)">
    <path
       style="opacity:1"
       fill="#b298d4"
       d="m 717.5,1006.5 c -11,0 -22,0 -33,0 0,-17.667 0,-35.333 0,-53 -6,0 -12,0 -18,0 0.167,22.336 0,44.669 -0.5,67 -0.717,-0.54 -1.217,-1.21 -1.5,-2 0.997,-21.827 1.331,-43.827 1,-66 6.667,0 13.333,0 20,0 0,17.667 0,35.333 0,53 10.846,-0.33 21.513,0.01 32,1 z"
       id="path105" />
  </g>
  <g
     id="g106"
     transform="translate(-361.82425,-561.8252)">
    <path
       style="opacity:1"
       fill="#e9e7ec"
       d="m 476.5,993.5 c -1.185,-16.033 -9.518,-22.2 -25,-18.5 -7.314,4.418 -10.314,10.918 -9,19.5 -4.075,-9.758 -1.742,-17.924 7,-24.5 8.596,-3.946 16.43,-2.78 23.5,3.5 4.343,6.223 5.51,12.889 3.5,20 z"
       id="path106" />
  </g>
  <g
     id="g107"
     transform="translate(-361.82425,-561.8252)">
    <path
       style="opacity:1"
       fill="#f7f7f7"
       d="m 564.5,1009.5 c -3.689,-3.69 -7.689,-7.02 -12,-10 -3.039,3.19 -6.706,5.35 -11,6.5 -11.473,2.6 -19.14,-1.57 -23,-12.5 0.826,-14.664 8.492,-21.164 23,-19.5 3.792,1.637 7.459,3.47 11,5.5 4.248,-2.239 8.248,-4.906 12,-8 0.692,0.525 1.192,1.192 1.5,2 0.667,11.667 0.667,23.333 0,35 -0.383,0.56 -0.883,0.89 -1.5,1 z"
       id="path107" />
  </g>
  <g
     id="g108"
     transform="translate(-361.82425,-561.8252)">
    <path
       style="opacity:1"
       fill="#f7f7f8"
       d="m 476.5,993.5 c -3.836,10.92 -11.502,15.09 -23,12.5 -5.926,-1.76 -9.592,-5.59 -11,-11.5 -1.314,-8.582 1.686,-15.082 9,-19.5 15.482,-3.7 23.815,2.467 25,18.5 z"
       id="path108" />
  </g>
  <g
     id="g109"
     transform="translate(-361.82425,-561.8252)">
    <path
       style="opacity:1"
       fill="#edecef"
       d="m 634.5,993.5 c -5.526,0.321 -10.86,-0.012 -16,-1 2.195,-6.747 4.695,-13.414 7.5,-20 3.381,6.765 6.215,13.765 8.5,21 z"
       id="path109" />
  </g>
  <g
     id="g110"
     transform="translate(-361.82425,-561.8252)">
    <path
       style="opacity:1"
       fill="#b299d2"
       d="m 496.5,981.5 c 0.667,0 1.333,0 2,0 0,3.667 0,7.333 0,11 -0.667,0 -1.333,0 -2,0 0,-3.667 0,-7.333 0,-11 z"
       id="path110" />
  </g>
  <g
     id="g111"
     transform="translate(-361.82425,-561.8252)">
    <path
       style="opacity:1"
       fill="#b59cd6"
       d="m 618.5,992.5 c 5.14,0.988 10.474,1.321 16,1 -5.513,1.316 -11.18,1.316 -17,0 0.124,-0.607 0.457,-0.94 1,-1 z"
       id="path111" />
  </g>
</svg>
