<?xml version="1.0" encoding="UTF-8" standalone="no"?>
<svg
   version="1.1"
   width="475.89996"
   height="806.06061"
   style="clip-rule:evenodd;fill-rule:evenodd;image-rendering:optimizeQuality;shape-rendering:geometricPrecision;text-rendering:geometricPrecision"
   id="svg202"
   xmlns="http://www.w3.org/2000/svg"
   xmlns:svg="http://www.w3.org/2000/svg">
  <defs
     id="defs202" />
  <g
     id="g2"
     transform="translate(-273.49976,-75.439392)">
    <path
       style="opacity:1"
       fill="#f6969c"
       d="m 717.5,129.5 c 1.718,11.815 0.385,23.315 -4,34.5 -4.6,11.375 -10.6,21.875 -18,31.5 -21.504,28.007 -47.504,50.841 -78,68.5 -1.333,0.667 -2.667,0.667 -4,0 -35.982,-21.314 -65.482,-49.48 -88.5,-84.5 -8.852,-14.075 -12.685,-29.408 -11.5,-46 1.77,1.356 3.103,3.189 4,5.5 -1.363,2.129 -1.029,2.629 1,1.5 1.333,1 2.667,2 4,3 0.586,-0.209 1.086,-0.543 1.5,-1 1.318,3.129 3.151,5.796 5.5,8 -0.086,0.996 0.248,1.829 1,2.5 4.344,1.476 6.678,-0.024 7,-4.5 2.049,2.093 4.382,2.759 7,2 0.762,1.128 1.429,2.295 2,3.5 0.667,0.667 1.333,0.667 2,0 -0.008,-1.975 -1.008,-3.809 -3,-5.5 1.022,-0.854 1.855,-1.854 2.5,-3 0.333,0.333 0.667,0.667 1,1 0.711,-1.867 0.211,-3.367 -1.5,-4.5 0.845,-1.558 0.179,-2.558 -2,-3 -0.096,-1.373 0.07,-2.873 0.5,-4.5 -2.159,-0.655 -3.659,-1.988 -4.5,-4 2.277,-5.277 5.944,-9.277 11,-12 0.997,-0.03 1.664,0.47 2,1.5 -1.073,1.416 -1.073,2.75 0,4 1.435,-0.311 2.768,-0.145 4,0.5 0.667,-0.667 1.333,-1.333 2,-2 0.194,1.57 0.194,3.07 0,4.5 1,0.5 2,1 3,1.5 0.498,-1.103 0.831,-2.103 1,-3 1,0.667 2,1.333 3,2 1.6,-2.068 3.266,-4.234 5,-6.5 -2.094,-2.419 -2.094,-4.586 0,-6.5 -0.318,-1.147 -0.984,-1.981 -2,-2.5 1,-1 2,-2 3,-3 -1.77,-3.427 -3.437,-6.427 -5,-9 -3.242,-0.9855 -5.908,-0.1522 -8,2.5 -1.295,-0.598 -2.628,-1.098 -4,-1.5 -2.912,-3.0643 -5.912,-5.8976 -9,-8.5 29.926,-7.4663 52.592,2.2004 68,29 19.201,-31.2339 45.534,-39.4006 79,-24.5 12.145,7.648 19.811,18.481 23,32.5 z"
       id="path2" />
  </g>
  <g
     id="g3"
     transform="translate(-273.49976,-75.439392)">
    <path
       style="opacity:1"
       fill="#f69a9e"
       d="m 547.5,92.5 c 3.088,2.6024 6.088,5.4357 9,8.5 1.372,0.402 2.705,0.902 4,1.5 2.092,-2.6522 4.758,-3.4855 8,-2.5 1.563,2.573 3.23,5.573 5,9 -1,1 -2,2 -3,3 1.016,0.519 1.682,1.353 2,2.5 -2.094,1.914 -2.094,4.081 0,6.5 -1.734,2.266 -3.4,4.432 -5,6.5 -1,-0.667 -2,-1.333 -3,-2 -0.169,0.897 -0.502,1.897 -1,3 -1,-0.5 -2,-1 -3,-1.5 0.194,-1.43 0.194,-2.93 0,-4.5 -0.667,0.667 -1.333,1.333 -2,2 -1.232,-0.645 -2.565,-0.811 -4,-0.5 -1.073,-1.25 -1.073,-2.584 0,-4 -0.336,-1.03 -1.003,-1.53 -2,-1.5 3.187,-1.85 6.353,-3.85 9.5,-6 1.175,-5.328 -0.992,-7.661 -6.5,-7 -3.295,-0.205 -6.295,0.628 -9,2.5 -7.744,5.073 -13.244,11.906 -16.5,20.5 -0.79,3.134 -0.457,6.134 1,9 1.726,1.076 3.559,1.243 5.5,0.5 1.814,-2.479 3.481,-4.979 5,-7.5 0.841,2.012 2.341,3.345 4.5,4 -0.43,1.627 -0.596,3.127 -0.5,4.5 2.179,0.442 2.845,1.442 2,3 1.711,1.133 2.211,2.633 1.5,4.5 -0.333,-0.333 -0.667,-0.667 -1,-1 -0.645,1.146 -1.478,2.146 -2.5,3 1.992,1.691 2.992,3.525 3,5.5 -0.667,0.667 -1.333,0.667 -2,0 -0.571,-1.205 -1.238,-2.372 -2,-3.5 -2.618,0.759 -4.951,0.093 -7,-2 -1.513,-3.664 -4.013,-4.664 -7.5,-3 -0.494,1.634 -0.66,3.301 -0.5,5 -2.349,-2.204 -4.182,-4.871 -5.5,-8 -0.414,0.457 -0.914,0.791 -1.5,1 -1.333,-1 -2.667,-2 -4,-3 -2.029,1.129 -2.363,0.629 -1,-1.5 -0.897,-2.311 -2.23,-4.144 -4,-5.5 3.345,-20.34 14.678,-34.0072 34,-41 z"
       id="path3" />
  </g>
  <g
     id="g5"
     transform="translate(-273.49976,-75.439392)">
    <path
       style="opacity:1"
       fill="#f39a9c"
       d="m 714.5,98.5 c 1.052,-0.1495 2.052,0.0172 3,0.5 2.407,2.738 4.407,5.738 6,9 -0.559,2.188 -1.893,2.854 -4,2 -2.407,-2.738 -4.407,-5.738 -6,-9 0.243,-0.902 0.577,-1.7354 1,-2.5 z"
       id="path5" />
  </g>
  <g
     id="g6"
     transform="translate(-273.49976,-75.439392)">
    <path
       style="opacity:1"
       fill="#f19495"
       d="m 516.5,95.5 c 3.18,-0.3238 4.347,1.0096 3.5,4 -1.833,2.5 -3.667,5 -5.5,7.5 -3.588,0.611 -4.754,-0.889 -3.5,-4.5 2.325,-2.001 4.158,-4.3342 5.5,-7 z"
       id="path6" />
  </g>
  <g
     id="g7"
     transform="translate(-273.49976,-75.439392)">
    <path
       style="opacity:1"
       fill="#f6999e"
       d="m 619.5,93.5 c 3.18,-0.3238 4.347,1.0096 3.5,4 -1.458,2.46 -3.291,4.627 -5.5,6.5 -2.78,0.269 -4.946,-0.898 -6.5,-3.5 -0.531,-3.7826 0.969,-4.7826 4.5,-3 1.688,-1.0213 3.021,-2.3546 4,-4 z"
       id="path7" />
  </g>
  <g
     id="g8"
     transform="translate(-273.49976,-75.439392)">
    <path
       style="opacity:1"
       fill="#f5979d"
       d="m 696.5,84.5 c 5.865,0.1509 9.698,2.8176 11.5,8 -0.561,0.5219 -1.228,0.8552 -2,1 -3.055,-1.1105 -5.888,-2.6105 -8.5,-4.5 -0.88,-1.3561 -1.214,-2.8561 -1,-4.5 z"
       id="path8" />
  </g>
  <g
     id="g9"
     transform="translate(-273.49976,-75.439392)">
    <path
       style="opacity:1"
       fill="#f29fa2"
       d="m 534.5,82.5 c 1.333,0 2.667,0 4,0 0.157,1.3734 -0.01,2.7068 -0.5,4 -2.586,2.0448 -5.42,3.7115 -8.5,5 -2.224,-0.5807 -3.057,-1.9141 -2.5,-4 2.479,-1.8141 4.979,-3.4808 7.5,-5 z"
       id="path9" />
  </g>
  <g
     id="g10"
     transform="translate(-273.49976,-75.439392)">
    <path
       style="opacity:1"
       fill="#f59da2"
       d="m 593.5,82.5 c 4.015,1.0911 7.515,3.0911 10.5,6 0.833,3.1667 -0.333,4.3333 -3.5,3.5 -2.199,-1.6971 -4.532,-3.1971 -7,-4.5 -1.166,-1.6673 -1.166,-3.334 0,-5 z"
       id="path10" />
  </g>
  <g
     id="g11"
     transform="translate(-273.49976,-75.439392)">
    <path
       style="opacity:1"
       fill="#f29a9d"
       d="m 638.5,81.5 c 3.18,-0.3238 4.347,1.0096 3.5,4 -3.338,2.2622 -6.838,3.7622 -10.5,4.5 -1.017,-1.0495 -1.184,-2.2161 -0.5,-3.5 2.479,-1.8141 4.979,-3.4808 7.5,-5 z"
       id="path11" />
  </g>
  <g
     id="g12"
     transform="translate(-273.49976,-75.439392)">
    <path
       style="opacity:1"
       fill="#f59d9f"
       d="m 675.5,76.5 c 3.806,-0.088 7.472,0.5787 11,2 1.594,2.645 0.927,4.3117 -2,5 -2.971,-0.9348 -5.971,-1.7681 -9,-2.5 -1.228,-1.4902 -1.228,-2.9902 0,-4.5 z"
       id="path12" />
  </g>
  <g
     id="g13"
     transform="translate(-273.49976,-75.439392)">
    <path
       style="opacity:1"
       fill="#f59396"
       d="m 550.5,76.5 c 3.333,0 6.667,0 10,0 0.214,1.6439 -0.12,3.1439 -1,4.5 -3.025,0.3607 -6.025,0.8607 -9,1.5 -3.859,-1.822 -3.859,-3.822 0,-6 z"
       id="path13" />
  </g>
  <g
     id="g14"
     transform="translate(-273.49976,-75.439392)">
    <path
       style="opacity:1"
       fill="#f49b9c"
       d="m 656.5,75.5 c 2.357,-0.1633 4.69,0.0034 7,0.5 1.054,1.3876 1.22,2.8876 0.5,4.5 -4.066,0.9637 -8.233,1.297 -12.5,1 -0.262,-1.4778 0.071,-2.8112 1,-4 1.526,-0.4943 2.859,-1.161 4,-2 z"
       id="path14" />
  </g>
  <g
     id="g15"
     transform="translate(-273.49976,-75.439392)">
    <path
       style="opacity:1"
       fill="#f59fa3"
       d="m 570.5,76.5 c 3.018,-0.1646 6.018,0.002 9,0.5 3.63,0.271 4.63,1.9377 3,5 -3.682,0.2224 -7.348,-0.111 -11,-1 -0.88,-1.3561 -1.214,-2.8561 -1,-4.5 z"
       id="path15" />
  </g>
  <g
     id="g16"
     transform="translate(-273.49976,-75.439392)">
    <path
       style="opacity:1"
       fill="#f1999a"
       d="m 504.5,115.5 c 2.135,-0.353 3.468,0.48 4,2.5 -1.311,3.431 -2.311,6.931 -3,10.5 -1.333,0 -2.667,0 -4,0 -0.381,-4.686 0.619,-9.019 3,-13 z"
       id="path16" />
  </g>
  <g
     id="g17"
     transform="translate(-273.49976,-75.439392)">
    <path
       style="opacity:1"
       fill="#faf9f9"
       d="m 552.5,118.5 c -5.056,2.723 -8.723,6.723 -11,12 -1.519,2.521 -3.186,5.021 -5,7.5 -1.941,0.743 -3.774,0.576 -5.5,-0.5 -1.457,-2.866 -1.79,-5.866 -1,-9 3.256,-8.594 8.756,-15.427 16.5,-20.5 2.705,-1.872 5.705,-2.705 9,-2.5 5.508,-0.661 7.675,1.672 6.5,7 -3.147,2.15 -6.313,4.15 -9.5,6 z"
       id="path17" />
  </g>
  <g
     id="g18"
     transform="translate(-273.49976,-75.439392)">
    <path
       style="opacity:1"
       fill="#f19497"
       d="m 500.5,137.5 c 1.322,-0.17 2.489,0.163 3.5,1 0.499,3.986 0.666,7.986 0.5,12 -1.951,0.273 -3.451,-0.393 -4.5,-2 -0.755,-3.755 -0.589,-7.422 0.5,-11 z"
       id="path18" />
  </g>
  <g
     id="g19"
     transform="translate(-273.49976,-75.439392)">
    <path
       style="opacity:1"
       fill="#f6f5f5"
       d="m 537.5,148.5 c -0.322,4.476 -2.656,5.976 -7,4.5 -0.752,-0.671 -1.086,-1.504 -1,-2.5 -0.16,-1.699 0.006,-3.366 0.5,-5 3.487,-1.664 5.987,-0.664 7.5,3 z"
       id="path19" />
  </g>
  <g
     id="g20"
     transform="translate(-273.49976,-75.439392)">
    <path
       style="opacity:1"
       fill="#f2a3a7"
       d="m 504.5,159.5 c 1.911,0.074 3.078,1.074 3.5,3 0.833,2.5 1.667,5 2.5,7.5 -1.976,3.357 -3.81,3.191 -5.5,-0.5 -1.616,-3.324 -1.783,-6.657 -0.5,-10 z"
       id="path20" />
  </g>
  <g
     id="g21"
     transform="translate(-273.49976,-75.439392)">
    <path
       style="opacity:1"
       fill="#f09395"
       d="m 512.5,180.5 c 1.322,-0.17 2.489,0.163 3.5,1 1.753,2.505 3.253,5.171 4.5,8 -0.848,1.783 -2.181,2.283 -4,1.5 -3.529,-2.856 -4.862,-6.356 -4,-10.5 z"
       id="path21" />
  </g>
  <g
     id="g22"
     transform="translate(-273.49976,-75.439392)">
    <path
       style="opacity:1"
       fill="#f6a7a8"
       d="m 524.5,197.5 c 3.794,1.871 6.461,4.871 8,9 -2.375,2.623 -4.541,2.289 -6.5,-1 -2.429,-2.37 -2.929,-5.037 -1.5,-8 z"
       id="path22" />
  </g>
  <g
     id="g23"
     transform="translate(-273.49976,-75.439392)">
    <path
       style="opacity:1"
       fill="#f39b9e"
       d="m 702.5,202.5 c 0.641,0.982 1.307,1.982 2,3 -0.693,1.018 -1.359,2.018 -2,3 -1.646,2.312 -3.646,4.312 -6,6 -1.381,-0.5 -2.047,-1.5 -2,-3 1.528,-4.085 4.194,-7.085 8,-9 z"
       id="path23" />
  </g>
  <g
     id="g25"
     transform="translate(-273.49976,-75.439392)">
    <path
       style="opacity:1"
       fill="#f29a9d"
       d="m 711.5,196.5 c -3,0.333 -4.333,-1 -4,-4 1.89,-2.09 3.557,-4.423 5,-7 1.151,-1.231 2.317,-1.231 3.5,0 -0.361,4.066 -1.861,7.732 -4.5,11 z"
       id="path25" />
  </g>
  <g
     id="g26"
     transform="translate(-273.49976,-75.439392)">
    <path
       style="opacity:1"
       fill="#f3969a"
       d="m 722.5,164.5 c 1.333,0 2.667,0 4,0 -0.412,4.154 -1.412,8.154 -3,12 -1.333,0 -2.667,0 -4,0 0.184,-4.216 1.184,-8.216 3,-12 z"
       id="path26" />
  </g>
  <g
     id="g27"
     transform="translate(-273.49976,-75.439392)">
    <path
       style="opacity:1"
       fill="#f0979a"
       d="m 727.5,142.5 c 1.333,0 2.667,0 4,0 -0.172,4.034 -0.672,8.034 -1.5,12 -1.011,0.837 -2.178,1.17 -3.5,1 -0.206,-4.398 0.127,-8.732 1,-13 z"
       id="path27" />
  </g>
  <g
     id="g28"
     transform="translate(-273.49976,-75.439392)">
    <path
       style="opacity:1"
       fill="#f29499"
       d="m 725.5,119.5 c 1.322,-0.17 2.489,0.163 3.5,1 1.156,3.918 1.656,7.918 1.5,12 -1.322,0.17 -2.489,-0.163 -3.5,-1 -1.642,-3.993 -2.142,-7.993 -1.5,-12 z"
       id="path28" />
  </g>
  <g
     id="g29"
     transform="translate(-273.49976,-75.439392)">
    <path
       style="opacity:1"
       fill="#f2a3a6"
       d="m 536.5,213.5 c 3.802,1.279 6.969,3.612 9.5,7 0.833,3.167 -0.333,4.333 -3.5,3.5 -2.167,-2.167 -4.333,-4.333 -6.5,-6.5 -0.579,-1.428 -0.412,-2.762 0.5,-4 z"
       id="path29" />
  </g>
  <g
     id="g30"
     transform="translate(-273.49976,-75.439392)">
    <path
       style="opacity:1"
       fill="#f49a9c"
       d="m 685.5,220.5 c 1.333,0 2.667,0 4,0 -1.056,4.906 -3.889,8.573 -8.5,11 -2.188,-0.559 -2.854,-1.893 -2,-4 2.372,-2.203 4.539,-4.537 6.5,-7 z"
       id="path30" />
  </g>
  <g
     id="g31"
     transform="translate(-273.49976,-75.439392)">
    <path
       style="opacity:1"
       fill="#f3989a"
       d="m 552.5,229.5 c 3.802,1.279 6.969,3.612 9.5,7 0.483,0.948 0.649,1.948 0.5,3 -4.529,0.004 -8.029,-1.996 -10.5,-6 -0.579,-1.428 -0.412,-2.762 0.5,-4 z"
       id="path31" />
  </g>
  <g
     id="g32"
     transform="translate(-273.49976,-75.439392)">
    <path
       style="opacity:1"
       fill="#f5a0a1"
       d="m 668.5,236.5 c 1.373,-0.157 2.707,0.01 4,0.5 0.951,0.718 1.117,1.551 0.5,2.5 -2.167,2.167 -4.333,4.333 -6.5,6.5 -3.167,0.833 -4.333,-0.333 -3.5,-3.5 2.04,-1.87 3.873,-3.87 5.5,-6 z"
       id="path32" />
  </g>
  <g
     id="g33"
     transform="translate(-273.49976,-75.439392)">
    <path
       style="opacity:1"
       fill="#f5a3aa"
       d="m 568.5,244.5 c 5.922,0.436 9.422,3.436 10.5,9 -0.561,0.522 -1.228,0.855 -2,1 -2.828,-1.751 -5.495,-3.751 -8,-6 -0.49,-1.293 -0.657,-2.627 -0.5,-4 z"
       id="path33" />
  </g>
  <g
     id="g34"
     transform="translate(-273.49976,-75.439392)">
    <path
       style="opacity:1"
       fill="#f49fa1"
       d="m 651.5,250.5 c 3.18,-0.324 4.347,1.01 3.5,4 -2.487,3.318 -5.654,5.151 -9.5,5.5 -1.017,-1.049 -1.184,-2.216 -0.5,-3.5 2.335,-1.9 4.502,-3.9 6.5,-6 z"
       id="path34" />
  </g>
  <g
     id="g35"
     transform="translate(-273.49976,-75.439392)">
    <path
       style="opacity:1"
       fill="#f68f93"
       d="m 587.5,257.5 c 2.774,1.223 5.441,2.723 8,4.5 1.655,1.444 2.322,3.278 2,5.5 -5.006,-0.358 -8.673,-2.691 -11,-7 0.185,-1.084 0.518,-2.084 1,-3 z"
       id="path35" />
  </g>
  <g
     id="g36"
     transform="translate(-273.49976,-75.439392)">
    <path
       style="opacity:1"
       fill="#f49698"
       d="m 634.5,263.5 c 2.923,0.663 3.59,2.33 2,5 -2.904,2.581 -6.237,4.248 -10,5 -0.16,-1.699 0.006,-3.366 0.5,-5 2.824,-1.318 5.324,-2.985 7.5,-5 z"
       id="path36" />
  </g>
  <g
     id="g37"
     transform="translate(-273.49976,-75.439392)">
    <path
       style="opacity:1"
       fill="#f2a3a7"
       d="m 605.5,270.5 c 3.892,0.946 7.559,2.446 11,4.5 1.017,1.049 1.184,2.216 0.5,3.5 -5.479,1.347 -9.646,-0.486 -12.5,-5.5 0.243,-0.902 0.577,-1.735 1,-2.5 z"
       id="path37" />
  </g>
  <g
     id="g38"
     transform="translate(-273.49976,-75.439392)">
    <path
       style="opacity:1"
       fill="#151514"
       d="m 597.5,573.5 c 0,6.333 0,12.667 0,19 -0.678,3.469 -1.678,6.969 -3,10.5 3.727,5.261 4.893,11.095 3.5,17.5 -1.306,9.138 -6.473,14.472 -15.5,16 -5.776,0.585 -9.11,-1.915 -10,-7.5 1.003,-2.468 1.503,-4.968 1.5,-7.5 -5.982,3.704 -8.482,2.038 -7.5,-5 3.196,-4.539 6.529,-9.039 10,-13.5 -2.601,-11.312 -3.935,-22.812 -4,-34.5 1.418,2.52 2.418,5.187 3,8 1.1,7.488 1.933,15.154 2.5,23 2.481,1.814 5.315,2.48 8.5,2 -0.433,-5.473 -1.6,-10.806 -3.5,-16 -0.596,-10.738 -0.262,-21.405 1,-32 -1.388,-1.054 -2.888,-1.22 -4.5,-0.5 -1.477,1.812 -2.81,3.645 -4,5.5 -0.333,-1 -1,-1.667 -2,-2 2.048,-6.358 6.381,-8.525 13,-6.5 1.853,1.669 3.853,1.835 6,0.5 2.575,-6.09 0.575,-9.423 -6,-10 -6.348,-7.505 -10.515,-16.172 -12.5,-26 -0.198,-5.679 -0.198,-11.345 0,-17 -1.039,-1.21 -2.206,-2.21 -3.5,-3 -1.208,-1.282 -2.542,-1.282 -4,0 -3.552,6.761 -8.385,7.761 -14.5,3 -2.285,0.796 -4.119,2.129 -5.5,4 -0.114,-2.218 -0.78,-4.218 -2,-6 2.238,1.078 4.238,0.578 6,-1.5 -2.504,-0.698 -4.837,-1.531 -7,-2.5 1.679,0.215 2.679,-0.452 3,-2 4.738,1.203 9.071,3.203 13,6 3.294,-0.636 4.627,-2.636 4,-6 -1.192,-4.62 -4.192,-7.453 -9,-8.5 -15.521,-3.745 -30.854,-3.078 -46,2 -2.148,2.075 -2.482,4.408 -1,7 4.024,0.497 8.024,0.331 12,-0.5 -0.591,0.651 -1.257,1.318 -2,2 0.848,1.909 1.182,3.909 1,6 -0.934,-1.068 -1.268,-2.401 -1,-4 -4.088,1.421 -8.088,1.255 -12,-0.5 -2.247,-1.995 -3.247,-4.495 -3,-7.5 -2.844,-0.558 -5.678,-1.225 -8.5,-2 -0.833,0.333 -1.667,0.667 -2.5,1 -0.969,2.802 -2.802,4.802 -5.5,6 -0.186,2.536 -0.686,4.869 -1.5,7 0.11,-4.11 -0.89,-7.777 -3,-11 1.699,0.16 3.366,-0.006 5,-0.5 4.694,-4.654 3.694,-6.988 -3,-7 -6.667,-0.667 -13.333,-0.667 -20,0 -1.803,0.637 -3.136,1.803 -4,3.5 5.153,0.794 10.32,1.46 15.5,2 1.876,0.025 3.376,0.691 4.5,2 -1.599,-0.268 -2.932,0.066 -4,1 -6.076,-1.458 -12.076,-1.291 -18,0.5 -4.344,3.876 -6.011,8.709 -5,14.5 -0.814,-2.131 -1.314,-4.464 -1.5,-7 -0.383,-0.556 -0.883,-0.889 -1.5,-1 0.34,-2.179 1.34,-4.012 3,-5.5 -1.663,-0.265 -3.163,0.235 -4.5,1.5 -2.218,14.762 -10.052,25.429 -23.5,32 2.894,3.215 4.894,6.881 6,11 0.243,4.274 -1.091,7.941 -4,11 3.473,1.195 6.306,0.195 8.5,-3 0.154,-3.598 1.154,-6.931 3,-10 4.003,-5.169 8.503,-9.836 13.5,-14 -0.149,1.052 0.017,2.052 0.5,3 3.207,-2.65 3.707,-2.484 1.5,0.5 0.556,0.383 0.889,0.883 1,1.5 -4.298,6.627 -3.965,12.961 1,19 -1.333,0 -2.667,0 -4,0 -1.91,-1.475 -3.076,-3.475 -3.5,-6 -0.482,-3.407 -0.482,-6.74 0,-10 -6.274,5.213 -9.941,11.88 -11,20 -1.8,1.817 -3.966,2.984 -6.5,3.5 -18.907,-2.043 -32.907,-11.543 -42,-28.5 -6.005,0.379 -10.505,-1.954 -13.5,-7 -2.365,-7.502 -3.032,-15.169 -2,-23 2.029,-3.096 4.862,-4.762 8.5,-5 -0.628,-6.262 0.205,-12.262 2.5,-18 4.614,-3.055 8.614,-2.388 12,2 -1.081,8.771 1.252,16.438 7,23 0.333,4 0.667,8 1,12 6.258,4.88 12.425,9.88 18.5,15 8.639,-4.139 15.139,-10.472 19.5,-19 -1.18,-10.314 3.32,-15.314 13.5,-15 0.269,-5.773 3.269,-9.273 9,-10.5 8.096,-0.827 16.096,-0.327 24,1.5 0,-1.667 0,-3.333 0,-5 -18.518,0.463 -36.518,-2.37 -54,-8.5 -35.309,-11.976 -49.643,-36.31 -43,-73 -0.95,-8.822 -1.116,-17.656 -0.5,-26.5 3.415,-30.702 18.248,-53.869 44.5,-69.5 29.187,-14.711 59.854,-18.711 92,-12 37.952,6.292 62.452,27.792 73.5,64.5 14.339,69.37 -13.161,110.37 -82.5,123 -0.974,2.243 -1.308,4.576 -1,7 5.968,-0.883 11.968,-1.55 18,-2 10.109,-0.239 19.442,2.261 28,7.5 2.282,2.397 3.616,5.231 4,8.5 6.44,0.607 10.106,4.107 11,10.5 -2.111,10.061 -0.611,19.561 4.5,28.5 1.927,4.928 5.427,8.094 10.5,9.5 5.442,5.847 5.109,11.347 -1,16.5 3.153,5.584 4.82,11.584 5,18 z"
       id="path38" />
  </g>
  <g
     id="g39"
     transform="translate(-273.49976,-75.439392)">
    <path
       style="opacity:1"
       fill="#fbfbfa"
       d="m 573.5,308.5 c 18.358,35.111 18.525,70.444 0.5,106 -13.655,21.772 -33.155,35.605 -58.5,41.5 -24.002,6.778 -48.335,8.278 -73,4.5 -17.797,-3.972 -31.963,-13.305 -42.5,-28 -4.255,-7.604 -6.088,-15.77 -5.5,-24.5 0.585,-14.489 0.751,-28.989 0.5,-43.5 6.352,-41.355 29.852,-67.189 70.5,-77.5 31.313,-6.573 61.646,-3.573 91,9 6.13,3.644 11.797,7.811 17,12.5 z"
       id="path39" />
  </g>
  <g
     id="g40"
     transform="translate(-273.49976,-75.439392)">
    <path
       style="opacity:1"
       fill="#050505"
       d="m 526.5,341.5 c 8.348,4.665 13.848,11.665 16.5,21 2.234,11.925 0.067,22.925 -6.5,33 0.477,0.978 1.143,1.811 2,2.5 -6.833,-2.161 -13.833,-4.161 -21,-6 -9.272,-1.256 -18.272,-0.423 -27,2.5 0.646,-1.656 1.313,-3.323 2,-5 -7.538,-17.333 -4.538,-32.5 9,-45.5 7.872,-4.962 16.206,-5.796 25,-2.5 z"
       id="path40" />
  </g>
  <g
     id="g41"
     transform="translate(-273.49976,-75.439392)">
    <path
       style="opacity:1"
       fill="#040505"
       d="m 429.5,343.5 c 8.735,4.605 13.901,11.938 15.5,22 1.24,9.287 -0.26,18.12 -4.5,26.5 0.145,0.772 0.478,1.439 1,2 -12.263,-3.193 -23.93,-1.693 -35,4.5 -0.798,-0.457 -1.131,-1.124 -1,-2 1.086,-0.12 1.753,-0.787 2,-2 -5.144,-15.104 -3.644,-29.437 4.5,-43 4.286,-6.04 10.12,-8.707 17.5,-8 z"
       id="path41" />
  </g>
  <g
     id="g42"
     transform="translate(-273.49976,-75.439392)">
    <path
       style="opacity:1"
       fill="#d1d0d0"
       d="m 526.5,341.5 c -8.794,-3.296 -17.128,-2.462 -25,2.5 -13.538,13 -16.538,28.167 -9,45.5 -0.687,1.677 -1.354,3.344 -2,5 -10.474,-15.456 -10.641,-31.123 -0.5,-47 10.669,-12.171 22.835,-14.171 36.5,-6 z"
       id="path42" />
  </g>
  <g
     id="g43"
     transform="translate(-273.49976,-75.439392)">
    <path
       style="opacity:1"
       fill="#cdcccd"
       d="m 429.5,343.5 c -7.38,-0.707 -13.214,1.96 -17.5,8 -8.144,13.563 -9.644,27.896 -4.5,43 -0.247,1.213 -0.914,1.88 -2,2 -2.581,-2.82 -4.414,-6.154 -5.5,-10 -4.075,-16.759 0.091,-30.925 12.5,-42.5 5.723,-3.059 11.389,-3.225 17,-0.5 z"
       id="path43" />
  </g>
  <g
     id="g44"
     transform="translate(-273.49976,-75.439392)">
    <path
       style="opacity:1"
       fill="#0e0d0e"
       d="m 456.5,385.5 c 4.048,-0.059 7.215,1.608 9.5,5 1.333,2 2.667,4 4,6 0.899,6.432 -1.601,8.265 -7.5,5.5 -1.287,-1.41 -2.454,-2.91 -3.5,-4.5 -1.994,4.25 -5.161,5.583 -9.5,4 -0.985,-1.598 -1.151,-3.265 -0.5,-5 2.016,-4.042 4.516,-7.709 7.5,-11 z"
       id="path44" />
  </g>
  <g
     id="g45"
     transform="translate(-273.49976,-75.439392)">
    <path
       style="opacity:1"
       fill="#d1d1d1"
       d="m 573.5,308.5 c 10.766,9.847 18.266,21.847 22.5,36 7.838,27.579 5.504,54.246 -7,80 -9.488,14.479 -22.322,24.979 -38.5,31.5 -25.861,9.233 -52.528,12.9 -80,11 -9.687,-1.217 -19.02,-3.384 -28,-6.5 24.665,3.778 48.998,2.278 73,-4.5 25.345,-5.895 44.845,-19.728 58.5,-41.5 18.025,-35.556 17.858,-70.889 -0.5,-106 z"
       id="path45" />
  </g>
  <g
     id="g46"
     transform="translate(-273.49976,-75.439392)">
    <path
       style="opacity:1"
       fill="#090808"
       d="m 495.5,408.5 c 2.772,-0.28 5.272,0.387 7.5,2 3.607,19.265 -4.227,31.098 -23.5,35.5 -8.311,0.678 -15.978,-1.322 -23,-6 -5.623,-3.916 -8.957,-9.249 -10,-16 0.203,-2.406 1.203,-4.406 3,-6 16.465,1.608 31.798,-1.559 46,-9.5 z"
       id="path46" />
  </g>
  <g
     id="g47"
     transform="translate(-273.49976,-75.439392)">
    <path
       style="opacity:1"
       fill="#f36e5a"
       d="m 488.5,424.5 c 4.222,-0.422 8.222,0.245 12,2 -7.301,13.65 -18.301,18.316 -33,14 5.287,-7.625 12.287,-12.959 21,-16 z"
       id="path47" />
  </g>
  <g
     id="g48"
     transform="translate(-273.49976,-75.439392)">
    <path
       style="opacity:1"
       fill="#ececed"
       d="m 387.5,469.5 c 1.942,4.556 2.608,9.556 2,15 -1.951,0.273 -3.451,-0.393 -4.5,-2 -0.667,-3.333 -0.667,-6.667 0,-10 0.377,-1.442 1.21,-2.442 2.5,-3 z"
       id="path48" />
  </g>
  <g
     id="g49"
     transform="translate(-273.49976,-75.439392)">
    <path
       style="opacity:1"
       fill="#d6d5d5"
       d="m 387.5,469.5 c 1.384,-1.301 2.884,-1.301 4.5,0 0.039,5.35 0.872,10.517 2.5,15.5 -1.697,0.384 -3.363,0.218 -5,-0.5 0.608,-5.444 -0.058,-10.444 -2,-15 z"
       id="path49" />
  </g>
  <g
     id="g50"
     transform="translate(-273.49976,-75.439392)">
    <path
       style="opacity:1"
       fill="#e9e8e6"
       d="m 506.5,470.5 c 2.333,0 4.667,0 7,0 0.308,2.424 -0.026,4.757 -1,7 -6.257,3.246 -12.59,3.579 -19,1 -0.974,-2.243 -1.308,-4.576 -1,-7 4.863,0.319 9.53,-0.014 14,-1 z"
       id="path50" />
  </g>
  <g
     id="g51"
     transform="translate(-273.49976,-75.439392)">
    <path
       style="opacity:1"
       fill="#f5f4f4"
       d="m 563.5,489.5 c -0.722,0.418 -1.222,1.084 -1.5,2 -5.839,-1.661 -11.673,-3.495 -17.5,-5.5 -5.667,-0.667 -11.333,-0.667 -17,0 -1.937,0.122 -3.27,0.955 -4,2.5 -1.459,-0.067 -2.792,0.266 -4,1 -3.976,0.831 -7.976,0.997 -12,0.5 -1.482,-2.592 -1.148,-4.925 1,-7 15.146,-5.078 30.479,-5.745 46,-2 4.808,1.047 7.808,3.88 9,8.5 z"
       id="path51" />
  </g>
  <g
     id="g52"
     transform="translate(-273.49976,-75.439392)">
    <path
       style="opacity:1"
       fill="#edeceb"
       d="m 481.5,486.5 c -0.667,0 -1.333,0 -2,0 -1.124,-1.309 -2.624,-1.975 -4.5,-2 -5.18,-0.54 -10.347,-1.206 -15.5,-2 0.864,-1.697 2.197,-2.863 4,-3.5 6.667,-0.667 13.333,-0.667 20,0 6.694,0.012 7.694,2.346 3,7 -1.634,0.494 -3.301,0.66 -5,0.5 z"
       id="path52" />
  </g>
  <g
     id="g53"
     transform="translate(-273.49976,-75.439392)">
    <path
       style="opacity:1"
       fill="#e9e9e9"
       d="m 382.5,487.5 c 5.265,-0.929 9.765,0.404 13.5,4 0.667,1 0.667,2 0,3 -6.9,0.538 -13.734,1.538 -20.5,3 -0.757,-5.567 1.576,-8.9 7,-10 z"
       id="path53" />
  </g>
  <g
     id="g54"
     transform="translate(-273.49976,-75.439392)">
    <path
       style="opacity:1"
       fill="#f3f2f2"
       d="m 475.5,487.5 c 0.333,0 0.667,0 1,0 -1.667,0.667 -3.333,1.333 -5,2 -3.63,0.265 -6.797,1.598 -9.5,4 -1.58,5.096 0.254,8.263 5.5,9.5 5.012,0.871 10.012,1.704 15,2.5 2.757,3.735 2.424,7.235 -1,10.5 -10.842,2.385 -20.008,-0.448 -27.5,-8.5 -1.009,-1.525 -1.509,-3.192 -1.5,-5 -1.011,-5.791 0.656,-10.624 5,-14.5 5.924,-1.791 11.924,-1.958 18,-0.5 z"
       id="path54" />
  </g>
  <g
     id="g55"
     transform="translate(-273.49976,-75.439392)">
    <path
       style="opacity:1"
       fill="#747370"
       d="m 476.5,487.5 c 0.789,0.283 1.456,0.783 2,1.5 -2.31,0.497 -4.643,0.663 -7,0.5 1.667,-0.667 3.333,-1.333 5,-2 z"
       id="path55" />
  </g>
  <g
     id="g56"
     transform="translate(-273.49976,-75.439392)">
    <path
       style="opacity:1"
       fill="#817d80"
       d="m 540.5,491.5 c -0.992,-0.172 -1.658,0.162 -2,1 -1.586,-0.648 -3.253,-1.148 -5,-1.5 2.539,-0.796 4.872,-0.629 7,0.5 z"
       id="path56" />
  </g>
  <g
     id="g57"
     transform="translate(-273.49976,-75.439392)">
    <path
       style="opacity:1"
       fill="#d6d5d4"
       d="m 563.5,489.5 c 0.627,3.364 -0.706,5.364 -4,6 -3.929,-2.797 -8.262,-4.797 -13,-6 -7.56,-2.237 -15.227,-2.57 -23,-1 0.73,-1.545 2.063,-2.378 4,-2.5 5.667,-0.667 11.333,-0.667 17,0 5.827,2.005 11.661,3.839 17.5,5.5 0.278,-0.916 0.778,-1.582 1.5,-2 z"
       id="path57" />
  </g>
  <g
     id="g58"
     transform="translate(-273.49976,-75.439392)">
    <path
       style="opacity:1"
       fill="#ebeaeb"
       d="m 538.5,492.5 c 0.342,-0.838 1.008,-1.172 2,-1 1,0 2,0 3,0 2.163,0.969 4.496,1.802 7,2.5 -1.762,2.078 -3.762,2.578 -6,1.5 -1.681,-1.508 -3.681,-2.508 -6,-3 z"
       id="path58" />
  </g>
  <g
     id="g59"
     transform="translate(-273.49976,-75.439392)">
    <path
       style="opacity:1"
       fill="#f3f3f1"
       d="m 449.5,494.5 c -1.467,5.451 -0.8,10.785 2,16 -5.692,6.2 -10.859,12.867 -15.5,20 -1.264,2.107 -3.097,3.107 -5.5,3 -1.106,-4.119 -3.106,-7.785 -6,-11 13.448,-6.571 21.282,-17.238 23.5,-32 1.337,-1.265 2.837,-1.765 4.5,-1.5 -1.66,1.488 -2.66,3.321 -3,5.5 z"
       id="path59" />
  </g>
  <g
     id="g60"
     transform="translate(-273.49976,-75.439392)">
    <path
       style="opacity:1"
       fill="#e0dfde"
       d="m 379.5,498.5 c 5.375,-0.328 10.708,0.005 16,1 0.985,1.598 1.151,3.265 0.5,5 -6.43,1.11 -12.93,1.61 -19.5,1.5 -1.888,-3.814 -0.888,-6.314 3,-7.5 z"
       id="path60" />
  </g>
  <g
     id="g61"
     transform="translate(-273.49976,-75.439392)">
    <path
       style="opacity:1"
       fill="#f4f3f2"
       d="m 518.5,497.5 c 0,2 0,4 0,6 -6.342,-0.435 -12.675,-0.602 -19,-0.5 -7.292,3.915 -8.792,9.415 -4.5,16.5 7.023,3.639 14.523,5.305 22.5,5 0.295,2.235 -0.039,4.235 -1,6 -5.275,-1.535 -10.608,-2.869 -16,-4 -4.003,-0.251 -6.836,1.416 -8.5,5 -1.519,8.295 1.647,13.962 9.5,17 -0.209,0.586 -0.543,1.086 -1,1.5 -5.835,0 -9.502,2.833 -11,8.5 -0.134,-3.929 -1.801,-6.929 -5,-9 -0.826,-2.459 -1.493,-4.959 -2,-7.5 1.79,-2.704 2.79,-5.704 3,-9 -0.689,-3.818 -2.023,-7.318 -4,-10.5 0.167,-1 0.333,-2 0.5,-3 3.871,-1.912 5.704,-5.079 5.5,-9.5 -1.796,-3.968 -2.796,-8.135 -3,-12.5 0.814,-2.131 1.314,-4.464 1.5,-7 2.698,-1.198 4.531,-3.198 5.5,-6 0.833,-0.333 1.667,-0.667 2.5,-1 2.822,0.775 5.656,1.442 8.5,2 -0.247,3.005 0.753,5.505 3,7.5 3.912,1.755 7.912,1.921 12,0.5 -0.268,1.599 0.066,2.932 1,4 z"
       id="path61" />
  </g>
  <g
     id="g62"
     transform="translate(-273.49976,-75.439392)">
    <path
       style="opacity:1"
       fill="#ebeaea"
       d="m 401.5,507.5 c 7.901,5.724 15.401,12.057 22.5,19 3.745,4.604 4.245,9.438 1.5,14.5 -1.887,0.163 -3.387,-0.671 -4.5,-2.5 -4.583,-9.512 -11.249,-17.178 -20,-23 -0.175,-2.657 -0.008,-5.324 0.5,-8 z"
       id="path62" />
  </g>
  <g
     id="g63"
     transform="translate(-273.49976,-75.439392)">
    <path
       style="opacity:1"
       fill="#d4d4d3"
       d="m 570.5,494.5 c 1.294,0.79 2.461,1.79 3.5,3 -0.198,5.655 -0.198,11.321 0,17 1.985,9.828 6.152,18.495 12.5,26 -0.617,0.111 -1.117,0.444 -1.5,1 -6.59,-7.062 -10.924,-15.396 -13,-25 -0.235,-7.381 -0.735,-14.714 -1.5,-22 z"
       id="path63" />
  </g>
  <g
     id="g64"
     transform="translate(-273.49976,-75.439392)">
    <path
       style="opacity:1"
       fill="#f1eeea"
       d="m 395.5,509.5 c 0.086,0.996 -0.248,1.829 -1,2.5 -4.655,0.499 -9.321,0.666 -14,0.5 0,-1 0,-2 0,-3 5,-1.333 10,-1.333 15,0 z"
       id="path64" />
  </g>
  <g
     id="g65"
     transform="translate(-273.49976,-75.439392)">
    <path
       style="opacity:1"
       fill="#cecccc"
       d="m 380.5,509.5 c 0,1 0,2 0,3 4.679,0.166 9.345,-10e-4 14,-0.5 0.752,-0.671 1.086,-1.504 1,-2.5 1.299,1.653 0.966,3.153 -1,4.5 -4.547,1.545 -9.213,1.879 -14,1 -2.517,-2.09 -2.517,-3.923 0,-5.5 z"
       id="path65" />
  </g>
  <g
     id="g66"
     transform="translate(-273.49976,-75.439392)">
    <path
       style="opacity:1"
       fill="#f6f6f4"
       d="m 570.5,494.5 c 0.765,7.286 1.265,14.619 1.5,22 2.076,9.604 6.41,17.938 13,25 0.383,-0.556 0.883,-0.889 1.5,-1 6.575,0.577 8.575,3.91 6,10 -2.147,1.335 -4.147,1.169 -6,-0.5 -6.619,-2.025 -10.952,0.142 -13,6.5 -5.541,-3.169 -6.541,-7.502 -3,-13 -2.465,-9.265 -6.299,-17.931 -11.5,-26 -3.667,-2.333 -7.333,-4.667 -11,-7 -1.289,-2.851 -1.789,-5.851 -1.5,-9 1.381,-1.871 3.215,-3.204 5.5,-4 6.115,4.761 10.948,3.761 14.5,-3 1.458,-1.282 2.792,-1.282 4,0 z"
       id="path66" />
  </g>
  <g
     id="g67"
     transform="translate(-273.49976,-75.439392)">
    <path
       style="opacity:1"
       fill="#a9a7a9"
       d="m 399.5,519.5 c 0.397,-1.025 1.063,-1.192 2,-0.5 1.519,1.351 2.852,2.851 4,4.5 -0.502,1.021 -1.168,1.188 -2,0.5 -1.233,-1.667 -2.567,-3.167 -4,-4.5 z"
       id="path67" />
  </g>
  <g
     id="g68"
     transform="translate(-273.49976,-75.439392)">
    <path
       style="opacity:1"
       fill="#f5f4f4"
       d="m 481.5,530.5 c 0.16,1.699 -0.006,3.366 -0.5,5 -7.247,5.446 -15.413,7.446 -24.5,6 -0.333,0 -0.667,0 -1,0 -4.965,-6.039 -5.298,-12.373 -1,-19 2.23,-2.035 4.73,-3.701 7.5,-5 1.225,0.362 2.391,0.862 3.5,1.5 -2.306,2.061 -4.473,4.228 -6.5,6.5 -0.711,1.867 -0.211,3.367 1.5,4.5 5.562,0.423 11.062,-0.077 16.5,-1.5 2.008,-0.193 3.508,0.474 4.5,2 z"
       id="path68" />
  </g>
  <g
     id="g69"
     transform="translate(-273.49976,-75.439392)">
    <path
       style="opacity:1"
       fill="#e6e7e8"
       d="m 391.5,518.5 c 1.699,-0.16 3.366,0.006 5,0.5 5.104,8.438 12.104,14.771 21,19 0.953,1.955 2.287,3.622 4,5 -5.712,-0.016 -10.712,-2.016 -15,-6 -6.374,-5.191 -11.374,-11.358 -15,-18.5 z"
       id="path69" />
  </g>
  <g
     id="g70"
     transform="translate(-273.49976,-75.439392)">
    <path
       style="opacity:1"
       fill="#dadad8"
       d="m 451.5,510.5 c 1.462,0.958 2.795,2.124 4,3.5 -1.205,1.376 -2.538,2.542 -4,3.5 -4.997,4.164 -9.497,8.831 -13.5,14 -1.846,3.069 -2.846,6.402 -3,10 -2.194,3.195 -5.027,4.195 -8.5,3 2.909,-3.059 4.243,-6.726 4,-11 2.403,0.107 4.236,-0.893 5.5,-3 4.641,-7.133 9.808,-13.8 15.5,-20 z"
       id="path70" />
  </g>
  <g
     id="g71"
     transform="translate(-273.49976,-75.439392)">
    <path
       style="opacity:1"
       fill="#cecccc"
       d="m 481.5,530.5 c 1.93,5.637 -0.07,9.47 -6,11.5 -5.597,1.456 -11.263,1.789 -17,1 -0.916,-0.278 -1.582,-0.778 -2,-1.5 9.087,1.446 17.253,-0.554 24.5,-6 0.494,-1.634 0.66,-3.301 0.5,-5 z"
       id="path71" />
  </g>
  <g
     id="g72"
     transform="translate(-273.49976,-75.439392)">
    <path
       style="opacity:1"
       fill="#101010"
       d="m 475.5,487.5 c 1.068,-0.934 2.401,-1.268 4,-1 0.667,0 1.333,0 2,0 2.11,3.223 3.11,6.89 3,11 0.204,4.365 1.204,8.532 3,12.5 0.204,4.421 -1.629,7.588 -5.5,9.5 -0.167,1 -0.333,2 -0.5,3 1.977,3.182 3.311,6.682 4,10.5 -0.21,3.296 -1.21,6.296 -3,9 0.507,2.541 1.174,5.041 2,7.5 3.199,2.071 4.866,5.071 5,9 1.498,-5.667 5.165,-8.5 11,-8.5 0.457,-0.414 0.791,-0.914 1,-1.5 -7.853,-3.038 -11.019,-8.705 -9.5,-17 1.664,-3.584 4.497,-5.251 8.5,-5 5.392,1.131 10.725,2.465 16,4 0.06,0.543 0.393,0.876 1,1 1.297,-2.473 1.297,-4.807 0,-7 -7.977,0.305 -15.477,-1.361 -22.5,-5 -4.292,-7.085 -2.792,-12.585 4.5,-16.5 6.325,-0.102 12.658,0.065 19,0.5 0,-2 0,-4 0,-6 0.182,-2.091 -0.152,-4.091 -1,-6 0.743,-0.682 1.409,-1.349 2,-2 1.208,-0.734 2.541,-1.067 4,-1 7.773,-1.57 15.44,-1.237 23,1 -0.321,1.548 -1.321,2.215 -3,2 -1,0 -2,0 -3,0 -2.128,-1.129 -4.461,-1.296 -7,-0.5 1.747,0.352 3.414,0.852 5,1.5 2.319,0.492 4.319,1.492 6,3 1.22,1.782 1.886,3.782 2,6 -0.289,3.149 0.211,6.149 1.5,9 3.667,2.333 7.333,4.667 11,7 5.201,8.069 9.035,16.735 11.5,26 -3.541,5.498 -2.541,9.831 3,13 1,0.333 1.667,1 2,2 0,6 0,12 0,18 -0.582,-2.813 -1.582,-5.48 -3,-8 0.317,-3.072 -0.016,-6.072 -1,-9 -1,-0.667 -2,-1.333 -3,-2 -2.275,14.104 -10.608,21.938 -25,23.5 -4.989,0.499 -9.989,0.666 -15,0.5 -1.042,-1.291 -2.208,-1.291 -3.5,0 -1.812,-1.804 -1.646,-2.804 0.5,-3 11.414,1.351 22.081,-0.816 32,-6.5 2.54,-2.205 4.707,-4.705 6.5,-7.5 0.801,-2.867 0.634,-5.534 -0.5,-8 -0.362,-3.703 -2.029,-6.703 -5,-9 -2.333,1.5 -4.667,3 -7,4.5 4.195,5.019 3.195,9.019 -3,12 -8.542,2.947 -17.208,3.28 -26,1 -8.204,-3.604 -16.204,-7.437 -24,-11.5 -4.841,0.797 -6.174,3.463 -4,8 2.5,3.332 5.5,6.166 9,8.5 5.56,3.01 11.227,5.51 17,7.5 1.531,1.425 1.198,2.091 -1,2 -4.942,-0.313 -9.609,-1.647 -14,-4 -3.346,4.818 -2.013,7.818 4,9 -1.051,0.722 -1.718,1.722 -2,3 -1.461,-1.186 -2.795,-1.186 -4,0 -1.548,-0.321 -2.215,-1.321 -2,-3 -1.067,-3.993 -1.234,-7.993 -0.5,-12 -4.035,-3.375 -8.035,-6.708 -12,-10 -0.833,0.167 -1.667,0.333 -2.5,0.5 -8.614,10.493 -19.281,13.659 -32,9.5 -7.572,-8.994 -7.905,-18.328 -1,-28 -0.693,-1.018 -1.359,-2.018 -2,-3 1.333,0 2.667,0 4,0 0.333,0 0.667,0 1,0 0.418,0.722 1.084,1.222 2,1.5 5.737,0.789 11.403,0.456 17,-1 5.93,-2.03 7.93,-5.863 6,-11.5 -0.992,-1.526 -2.492,-2.193 -4.5,-2 -5.438,1.423 -10.938,1.923 -16.5,1.5 -1.711,-1.133 -2.211,-2.633 -1.5,-4.5 2.027,-2.272 4.194,-4.439 6.5,-6.5 -1.109,-0.638 -2.275,-1.138 -3.5,-1.5 -2.77,1.299 -5.27,2.965 -7.5,5 -0.111,-0.617 -0.444,-1.117 -1,-1.5 2.207,-2.984 1.707,-3.15 -1.5,-0.5 -0.483,-0.948 -0.649,-1.948 -0.5,-3 1.462,-0.958 2.795,-2.124 4,-3.5 -1.205,-1.376 -2.538,-2.542 -4,-3.5 -2.8,-5.215 -3.467,-10.549 -2,-16 0.617,0.111 1.117,0.444 1.5,1 0.186,2.536 0.686,4.869 1.5,7 -0.009,1.808 0.491,3.475 1.5,5 7.492,8.052 16.658,10.885 27.5,8.5 3.424,-3.265 3.757,-6.765 1,-10.5 -4.988,-0.796 -9.988,-1.629 -15,-2.5 -5.246,-1.237 -7.08,-4.404 -5.5,-9.5 2.703,-2.402 5.87,-3.735 9.5,-4 2.357,0.163 4.69,-0.003 7,-0.5 -0.544,-0.717 -1.211,-1.217 -2,-1.5 -0.333,0 -0.667,0 -1,0 z"
       id="path72" />
  </g>
  <g
     id="g73"
     transform="translate(-273.49976,-75.439392)">
    <path
       style="opacity:1"
       fill="#f7f7f7"
       d="m 484.5,554.5 c -6.252,11.621 -15.919,15.955 -29,13 -5.458,-6.924 -5.125,-13.757 1,-20.5 2.345,-0.17 4.679,0.163 7,1 -4.172,3.18 -4.838,6.847 -2,11 2.213,0.626 4.38,0.459 6.5,-0.5 4.376,-2.023 8.71,-4.023 13,-6 1.699,-0.113 2.866,0.553 3.5,2 z"
       id="path73" />
  </g>
  <g
     id="g74"
     transform="translate(-273.49976,-75.439392)">
    <path
       style="opacity:1"
       fill="#e4e2e0"
       d="m 564.5,540.5 c 1.193,0.47 1.86,1.47 2,3 -0.055,7.994 -1.722,8.66 -5,2 1.263,-1.529 2.263,-3.195 3,-5 z"
       id="path74" />
  </g>
  <g
     id="g75"
     transform="translate(-273.49976,-75.439392)">
    <path
       style="opacity:1"
       fill="#cecdcd"
       d="m 559.5,526.5 c 4.084,4.371 4.584,9.038 1.5,14 -4.74,5.121 -10.573,8.288 -17.5,9.5 -15.969,2.703 -30.969,0.203 -45,-7.5 7.582,2.137 15.248,3.971 23,5.5 9.122,0.934 18.122,0.267 27,-2 9.495,-3.153 13.162,-9.653 11,-19.5 z"
       id="path75" />
  </g>
  <g
     id="g76"
     transform="translate(-273.49976,-75.439392)">
    <path
       style="opacity:1"
       fill="#f9f9f9"
       d="m 559.5,526.5 c 2.162,9.847 -1.505,16.347 -11,19.5 -8.878,2.267 -17.878,2.934 -27,2 -7.752,-1.529 -15.418,-3.363 -23,-5.5 -4.845,-3.747 -5.179,-7.914 -1,-12.5 2.333,-0.667 4.667,-0.667 7,0 14.989,7.312 30.322,8.312 46,3 4.659,-5.367 3.659,-9.367 -3,-12 6.202,-3.713 10.202,-1.88 12,5.5 z"
       id="path76" />
  </g>
  <g
     id="g77"
     transform="translate(-273.49976,-75.439392)">
    <path
       style="opacity:1"
       fill="#696a68"
       d="m 517.5,524.5 c 1.297,2.193 1.297,4.527 0,7 -0.607,-0.124 -0.94,-0.457 -1,-1 0.961,-1.765 1.295,-3.765 1,-6 z"
       id="path77" />
  </g>
  <g
     id="g78"
     transform="translate(-273.49976,-75.439392)">
    <path
       style="opacity:1"
       fill="#c7c8c7"
       d="m 544.5,512.5 c 1.462,0.958 2.795,2.124 4,3.5 -12.541,5.013 -25.541,6.679 -39,5 -3.297,-0.204 -6.297,-1.037 -9,-2.5 14.828,0.747 29.495,-0.253 44,-3 0,-1 0,-2 0,-3 z"
       id="path78" />
  </g>
  <g
     id="g79"
     transform="translate(-273.49976,-75.439392)">
    <path
       style="opacity:1"
       fill="#f8f8f8"
       d="m 544.5,512.5 c 0,1 0,2 0,3 -14.505,2.747 -29.172,3.747 -44,3 -3.832,-1.734 -4.998,-4.734 -3.5,-9 1.393,-2.866 3.726,-4.199 7,-4 12.758,1.917 25.258,0.917 37.5,-3 0.79,3.425 1.79,6.758 3,10 z"
       id="path79" />
  </g>
  <g
     id="g80"
     transform="translate(-273.49976,-75.439392)">
    <path
       style="opacity:1"
       fill="#f7f7f6"
       d="m 563.5,556.5 c -1.647,8.483 -6.647,13.983 -15,16.5 -18.924,5.015 -35.924,1.348 -51,-11 -0.948,-0.483 -1.948,-0.649 -3,-0.5 -2.174,-4.537 -0.841,-7.203 4,-8 7.796,4.063 15.796,7.896 24,11.5 8.792,2.28 17.458,1.947 26,-1 6.195,-2.981 7.195,-6.981 3,-12 2.333,-1.5 4.667,-3 7,-4.5 2.971,2.297 4.638,5.297 5,9 z"
       id="path80" />
  </g>
  <g
     id="g81"
     transform="translate(-273.49976,-75.439392)">
    <path
       style="opacity:1"
       fill="#dad7d6"
       d="m 504.5,550.5 c 6.515,1.97 13.182,3.303 20,4 0.308,2.424 -0.026,4.757 -1,7 -6.236,-2.117 -12.236,-4.784 -18,-8 -0.886,-0.825 -1.219,-1.825 -1,-3 z"
       id="path81" />
  </g>
  <g
     id="g82"
     transform="translate(-273.49976,-75.439392)">
    <path
       style="opacity:1"
       fill="#e1e0e0"
       d="m 528.5,557.5 c 18.319,3.614 18.319,5.614 0,6 0,-2 0,-4 0,-6 z"
       id="path82" />
  </g>
  <g
     id="g83"
     transform="translate(-273.49976,-75.439392)">
    <path
       style="opacity:1"
       fill="#cac9ca"
       d="m 484.5,554.5 c 1.209,1.935 1.042,3.935 -0.5,6 -6.938,8.755 -15.772,11.922 -26.5,9.5 -0.881,-0.708 -1.547,-1.542 -2,-2.5 13.081,2.955 22.748,-1.379 29,-13 z"
       id="path83" />
  </g>
  <g
     id="g84"
     transform="translate(-273.49976,-75.439392)">
    <path
       style="opacity:1"
       fill="#eeeeee"
       d="m 575.5,576.5 c 0,-6 0,-12 0,-18 1.19,-1.855 2.523,-3.688 4,-5.5 1.612,-0.72 3.112,-0.554 4.5,0.5 -1.262,10.595 -1.596,21.262 -1,32 1.9,5.194 3.067,10.527 3.5,16 -3.185,0.48 -6.019,-0.186 -8.5,-2 -0.567,-7.846 -1.4,-15.512 -2.5,-23 z"
       id="path84" />
  </g>
  <g
     id="g85"
     transform="translate(-273.49976,-75.439392)">
    <path
       style="opacity:1"
       fill="#eeeeee"
       d="m 587.5,555.5 c 1.673,0.843 2.84,2.176 3.5,4 3.234,10.095 4.234,20.428 3,31 -0.085,3.971 -1.085,7.638 -3,11 -1.522,-2.582 -2.356,-5.415 -2.5,-8.5 1.406,-4.888 2.073,-9.888 2,-15 -0.909,-7.542 -1.909,-15.042 -3,-22.5 z"
       id="path85" />
  </g>
  <g
     id="g86"
     transform="translate(-273.49976,-75.439392)">
    <path
       style="opacity:1"
       fill="#cdcccb"
       d="m 563.5,556.5 c 1.134,2.466 1.301,5.133 0.5,8 -1.793,2.795 -3.96,5.295 -6.5,7.5 -9.919,5.684 -20.586,7.851 -32,6.5 -1.419,-0.951 -3.085,-1.284 -5,-1 -5.773,-1.99 -11.44,-4.49 -17,-7.5 -3.5,-2.334 -6.5,-5.168 -9,-8.5 1.052,-0.149 2.052,0.017 3,0.5 15.076,12.348 32.076,16.015 51,11 8.353,-2.517 13.353,-8.017 15,-16.5 z"
       id="path86" />
  </g>
  <g
     id="g87"
     transform="translate(-273.49976,-75.439392)">
    <path
       style="opacity:1"
       fill="#f3f3f2"
       d="m 572.5,568.5 c 0.065,11.688 1.399,23.188 4,34.5 -3.471,4.461 -6.804,8.961 -10,13.5 5.438,-23.402 -3.895,-33.902 -28,-31.5 -3.868,1.011 -7.534,2.511 -11,4.5 -2.253,-1.95 -2.586,-4.284 -1,-7 0.457,-0.798 1.124,-1.131 2,-1 5.011,0.166 10.011,-10e-4 15,-0.5 14.392,-1.562 22.725,-9.396 25,-23.5 1,0.667 2,1.333 3,2 0.984,2.928 1.317,5.928 1,9 z"
       id="path87" />
  </g>
  <g
     id="g88"
     transform="translate(-273.49976,-75.439392)">
    <path
       style="opacity:1"
       fill="#e9e7e6"
       d="m 519.5,579.5 c 1.218,0.661 2.551,1.328 4,2 -4.264,2.591 -8.931,3.591 -14,3 -6.013,-1.182 -7.346,-4.182 -4,-9 4.391,2.353 9.058,3.687 14,4 z"
       id="path88" />
  </g>
  <g
     id="g89"
     transform="translate(-273.49976,-75.439392)">
    <path
       style="opacity:1"
       fill="#eeeeee"
       d="m 580.5,604.5 c 11.39,-2.279 16.39,2.388 15,14 -5.419,1.38 -10.753,1.213 -16,-0.5 -0.763,-4.522 -0.429,-9.022 1,-13.5 z"
       id="path89" />
  </g>
  <g
     id="g90"
     transform="translate(-273.49976,-75.439392)">
    <path
       style="opacity:1"
       fill="#dddcdd"
       d="m 575.5,608.5 c 1.548,0.321 2.215,1.321 2,3 -2.748,0.098 -3.414,-0.902 -2,-3 z"
       id="path90" />
  </g>
  <g
     id="g91"
     transform="translate(-273.49976,-75.439392)">
    <path
       style="opacity:1"
       fill="#dad9d9"
       d="m 572.5,613.5 c 1,0 2,0 3,0 0.314,3.693 -1.352,6.027 -5,7 -0.333,-0.5 -0.667,-1 -1,-1.5 1.132,-1.765 2.132,-3.598 3,-5.5 z"
       id="path91" />
  </g>
  <g
     id="g92"
     transform="translate(-273.49976,-75.439392)">
    <path
       style="opacity:1"
       fill="#e2e1e1"
       d="m 577.5,620.5 c 1.333,0 2.667,0 4,0 0.34,3.631 -0.494,6.964 -2.5,10 -1.011,0.837 -2.178,1.17 -3.5,1 0.251,-3.749 0.917,-7.415 2,-11 z"
       id="path92" />
  </g>
  <g
     id="g93"
     transform="translate(-273.49976,-75.439392)">
    <path
       style="opacity:1"
       fill="#d0cfd1"
       d="m 590.5,621.5 c 1.478,-0.262 2.811,0.071 4,1 -3.357,9.597 -4.69,9.263 -4,-1 z"
       id="path93" />
  </g>
  <g
     id="g94"
     transform="translate(-273.49976,-75.439392)">
    <path
       style="opacity:1"
       fill="#dadadb"
       d="m 584.5,621.5 c 2.135,-0.353 3.468,0.48 4,2.5 -0.193,4.231 -2.026,7.398 -5.5,9.5 -0.5,-0.333 -1,-0.667 -1.5,-1 1.47,-3.548 2.47,-7.215 3,-11 z"
       id="path94" />
  </g>
  <g
     id="g95"
     transform="translate(-273.49976,-75.439392)">
    <path
       style="opacity:1"
       fill="#161615"
       d="m 520.5,577.5 c 1.915,-0.284 3.581,0.049 5,1 -2.146,0.196 -2.312,1.196 -0.5,3 1.292,-1.291 2.458,-1.291 3.5,0 -0.876,-0.131 -1.543,0.202 -2,1 -1.586,2.716 -1.253,5.05 1,7 3.466,-1.989 7.132,-3.489 11,-4.5 24.105,-2.402 33.438,8.098 28,31.5 -2.205,3.556 -4.872,6.889 -8,10 0.587,1.773 0.92,3.606 1,5.5 -2.915,7.685 -2.582,15.185 1,22.5 5.862,4.121 7.528,9.621 5,16.5 6.094,9.951 9.594,20.784 10.5,32.5 2.093,2.544 3.093,5.544 3,9 0.383,0.556 0.883,0.889 1.5,1 0.393,1.784 1.059,3.45 2,5 0.719,2.264 1.052,4.597 1,7 0.166,4.679 -10e-4,9.345 -0.5,14 -1.072,4.937 -3.906,6.604 -8.5,5 -1.111,1.111 -2.445,1.778 -4,2 -6.254,0.22 -12.254,-0.28 -18,-1.5 -2.023,-3.183 -2.523,-6.683 -1.5,-10.5 2.638,-5.775 5.138,-11.609 7.5,-17.5 -0.535,-2.996 -1.202,-5.829 -2,-8.5 0.172,-0.992 -0.162,-1.658 -1,-2 -3.892,-6.732 -8.392,-13.065 -13.5,-19 -1.795,-3.552 -3.295,-7.218 -4.5,-11 -2.027,-1.193 -3.527,-2.86 -4.5,-5 -0.67,-5.298 -0.17,-10.464 1.5,-15.5 -0.296,-4.889 -1.796,-9.389 -4.5,-13.5 -7.655,-1.655 -12.821,-6.155 -15.5,-13.5 -5.341,0.137 -10.341,-1.03 -15,-3.5 -3.509,5.094 -8.176,8.761 -14,11 -4.93,7.865 -5.263,15.865 -1,24 -0.195,3.39 -1.695,6.057 -4.5,8 -2.512,13.238 -1.012,25.905 4.5,38 -0.478,3.838 0.522,7.171 3,10 1.502,3.659 1.168,7.159 -1,10.5 -10.813,3.489 -21.813,6.823 -33,10 -2.333,0.667 -4.667,0.667 -7,0 -3.757,-2.083 -7.257,-4.583 -10.5,-7.5 -1.009,-1.525 -1.509,-3.192 -1.5,-5 2.078,-2.551 4.744,-4.384 8,-5.5 6.355,-2.181 12.688,-4.348 19,-6.5 0,-1.667 0,-3.333 0,-5 0.971,-6.487 0.138,-12.82 -2.5,-19 -2.864,-5.518 -5.697,-11.018 -8.5,-16.5 0.241,-1.984 0.908,-3.817 2,-5.5 -3.686,-7.854 -2.186,-14.521 4.5,-20 0.822,-2.288 1.489,-4.622 2,-7 0.452,-6.115 0.119,-12.115 -1,-18 1.122,-2.124 2.622,-3.957 4.5,-5.5 -2.731,-2.626 -4.564,-5.793 -5.5,-9.5 -1.657,-8.357 0.343,-15.691 6,-22 13.288,-7.978 25.288,-6.311 36,5 0.757,-1.815 1.59,-3.481 2.5,-5 -0.215,1.679 0.452,2.679 2,3 -2.148,6.561 0.352,9.561 7.5,9 3.677,-0.128 7.177,-0.961 10.5,-2.5 2.664,-2.355 2.497,-4.522 -0.5,-6.5 -4.543,1.311 -9.043,1.311 -13.5,0 0.282,-1.278 0.949,-2.278 2,-3 5.069,0.591 9.736,-0.409 14,-3 -1.449,-0.672 -2.782,-1.339 -4,-2 2.198,0.091 2.531,-0.575 1,-2 z"
       id="path95" />
  </g>
  <g
     id="g96"
     transform="translate(-273.49976,-75.439392)">
    <path
       style="opacity:1"
       fill="#d7d7d7"
       d="m 467.5,627.5 c 2.357,6.359 7.023,9.526 14,9.5 -2.636,3.742 -3.97,7.909 -4,12.5 1.435,4.209 2.269,8.542 2.5,13 -0.758,2.41 -2.425,3.41 -5,3 -3.341,-0.595 -6.507,-1.595 -9.5,-3 -2.416,0.375 -4.75,1.041 -7,2 -0.916,-0.043 -1.583,-0.376 -2,-1 5.596,-3.982 11.262,-3.982 17,0 0.978,-0.477 1.811,-1.143 2.5,-2 -0.875,-4.197 -1.375,-8.53 -1.5,-13 0.074,-2.874 0.407,-5.708 1,-8.5 -2.478,-2.478 -4.978,-4.978 -7.5,-7.5 -0.494,-1.634 -0.66,-3.301 -0.5,-5 z"
       id="path96" />
  </g>
  <g
     id="g97"
     transform="translate(-273.49976,-75.439392)">
    <path
       style="opacity:1"
       fill="#d7d7d6"
       d="m 544.5,672.5 c 0.416,-2.252 1.749,-3.752 4,-4.5 2.982,-0.498 5.982,-0.665 9,-0.5 0.162,-2.027 -0.005,-4.027 -0.5,-6 -4.966,-7.17 -7.799,-15.17 -8.5,-24 -2.15,1.649 -4.15,3.482 -6,5.5 -1.525,1.009 -3.192,1.509 -5,1.5 0,1.333 0,2.667 0,4 -1.675,-1.679 -2.508,-3.679 -2.5,-6 6.57,-2.238 10.737,-6.738 12.5,-13.5 2.668,-0.567 5.334,-1.067 8,-1.5 -0.838,6.997 -1.338,13.997 -1.5,21 0.737,5.149 3.237,9.149 7.5,12 2.975,3.577 2.642,6.744 -1,9.5 -3.194,0.592 -6.361,0.426 -9.5,-0.5 -2.265,0.759 -4.432,1.759 -6.5,3 z"
       id="path97" />
  </g>
  <g
     id="g98"
     transform="translate(-273.49976,-75.439392)">
    <path
       style="opacity:1"
       fill="#fafafa"
       d="m 544.5,672.5 c -2.974,1.567 -5.474,0.9 -7.5,-2 -0.368,-4.907 0.132,-9.74 1.5,-14.5 -0.225,-2.528 -0.558,-5.028 -1,-7.5 0,-1.333 0,-2.667 0,-4 1.808,0.009 3.475,-0.491 5,-1.5 1.85,-2.018 3.85,-3.851 6,-5.5 0.701,8.83 3.534,16.83 8.5,24 0.495,1.973 0.662,3.973 0.5,6 -3.018,-0.165 -6.018,0.002 -9,0.5 -2.251,0.748 -3.584,2.248 -4,4.5 z"
       id="path98" />
  </g>
  <g
     id="g99"
     transform="translate(-273.49976,-75.439392)">
    <path
       style="opacity:1"
       fill="#cbcac9"
       d="m 560.5,594.5 c 1.636,1.249 2.803,2.916 3.5,5 2.37,14.943 -3.797,23.776 -18.5,26.5 -1.682,2.69 -3.182,5.523 -4.5,8.5 -9.28,6.295 -16.78,4.628 -22.5,-5 2.432,1.25 4.766,2.75 7,4.5 3.667,0.667 7.333,0.667 11,0 3.388,-2.786 6.054,-6.119 8,-10 9.901,-3.239 15.401,-10.073 16.5,-20.5 0.495,-3.031 0.329,-6.031 -0.5,-9 z"
       id="path99" />
  </g>
  <g
     id="g100"
     transform="translate(-273.49976,-75.439392)">
    <path
       style="opacity:1"
       fill="#d0d0d0"
       d="m 516.5,624.5 c -5.993,0.425 -11.826,-0.242 -17.5,-2 -0.833,0.167 -1.667,0.333 -2.5,0.5 -2.703,3.038 -5.703,5.705 -9,8 -4.092,1.632 -8.092,1.798 -12,0.5 8.367,-0.188 15.034,-3.688 20,-10.5 0.833,-0.167 1.667,-0.333 2.5,-0.5 6.516,0.967 12.682,2.3 18.5,4 z"
       id="path100" />
  </g>
  <g
     id="g101"
     transform="translate(-273.49976,-75.439392)">
    <path
       style="opacity:1"
       fill="#f7f8f7"
       d="m 467.5,627.5 c -0.16,1.699 0.006,3.366 0.5,5 2.522,2.522 5.022,5.022 7.5,7.5 -0.593,2.792 -0.926,5.626 -1,8.5 0.125,4.47 0.625,8.803 1.5,13 -0.689,0.857 -1.522,1.523 -2.5,2 -5.738,-3.982 -11.404,-3.982 -17,0 -3.168,-4.928 -2.335,-9.261 2.5,-13 4.626,-9 5.626,-18.334 3,-28 0.928,-2.535 2.762,-3.535 5.5,-3 0,2.667 0,5.333 0,8 z"
       id="path101" />
  </g>
  <g
     id="g102"
     transform="translate(-273.49976,-75.439392)">
    <path
       style="opacity:1"
       fill="#f9f9f8"
       d="m 555.5,706.5 c -0.578,1.88 -1.912,2.88 -4,3 -5.679,-0.972 -11.512,-0.972 -17.5,0 -2.667,-0.667 -5.333,-1.333 -8,-2 -10.904,1.27 -21.571,1.27 -32,0 -2.667,0.667 -5.333,1.333 -8,2 -0.232,-1.237 -0.732,-2.237 -1.5,-3 -5.512,-12.095 -7.012,-24.762 -4.5,-38 2.805,-1.943 4.305,-4.61 4.5,-8 -4.263,-8.135 -3.93,-16.135 1,-24 5.824,-2.239 10.491,-5.906 14,-11 4.659,2.47 9.659,3.637 15,3.5 2.679,7.345 7.845,11.845 15.5,13.5 2.704,4.111 4.204,8.611 4.5,13.5 -1.67,5.036 -2.17,10.202 -1.5,15.5 0.973,2.14 2.473,3.807 4.5,5 1.205,3.782 2.705,7.448 4.5,11 5.108,5.935 9.608,12.268 13.5,19 z"
       id="path102" />
  </g>
  <g
     id="g103"
     transform="translate(-273.49976,-75.439392)">
    <path
       style="opacity:1"
       fill="#f0f0ef"
       d="m 507.5,587.5 c 4.457,1.311 8.957,1.311 13.5,0 2.997,1.978 3.164,4.145 0.5,6.5 -3.323,1.539 -6.823,2.372 -10.5,2.5 -7.148,0.561 -9.648,-2.439 -7.5,-9 1.205,-1.186 2.539,-1.186 4,0 z"
       id="path103" />
  </g>
  <g
     id="g104"
     transform="translate(-273.49976,-75.439392)">
    <path
       style="opacity:1"
       fill="#f7f7f7"
       d="m 560.5,594.5 c 0.829,2.969 0.995,5.969 0.5,9 -1.099,10.427 -6.599,17.261 -16.5,20.5 -1.946,3.881 -4.612,7.214 -8,10 -3.667,0.667 -7.333,0.667 -11,0 -2.234,-1.75 -4.568,-3.25 -7,-4.5 -0.296,-1.903 -0.963,-3.57 -2,-5 -5.818,-1.7 -11.984,-3.033 -18.5,-4 -0.833,0.167 -1.667,0.333 -2.5,0.5 -4.966,6.812 -11.633,10.312 -20,10.5 -1.574,-0.437 -2.741,-1.437 -3.5,-3 -0.333,-3.333 -0.667,-6.667 -1,-10 -10.96,-7.509 -13.294,-17.176 -7,-29 8.909,-8.81 18.409,-9.31 28.5,-1.5 3.234,3.145 6.234,6.478 9,10 4.766,2.31 9.766,2.977 15,2 7,-3.667 14,-7.333 21,-11 6.867,-1.034 13.533,-0.367 20,2 1.21,1.039 2.21,2.206 3,3.5 z"
       id="path104" />
  </g>
  <g
     id="g105"
     transform="translate(-273.49976,-75.439392)">
    <path
       style="opacity:1"
       fill="#070809"
       d="m 536.5,598.5 c 13.476,-1.388 17.142,3.779 11,15.5 -6.04,4.176 -12.706,5.509 -20,4 -4.498,-6.147 -3.498,-11.48 3,-16 2.227,-0.941 4.227,-2.108 6,-3.5 z"
       id="path105" />
  </g>
  <g
     id="g106"
     transform="translate(-273.49976,-75.439392)">
    <path
       style="opacity:1"
       fill="#09090a"
       d="m 473.5,592.5 c 8.037,-0.402 13.87,2.932 17.5,10 2.674,9.656 -0.826,13.489 -10.5,11.5 -8.458,-4.079 -11.625,-10.579 -9.5,-19.5 0.995,-0.566 1.828,-1.233 2.5,-2 z"
       id="path106" />
  </g>
  <g
     id="g107"
     transform="translate(-273.49976,-75.439392)">
    <path
       style="opacity:1"
       fill="#f6f6f6"
       d="m 464.5,670.5 c 3.333,-0.473 5.5,0.86 6.5,4 1.384,11.161 3.884,21.995 7.5,32.5 -1.269,2.084 -2.269,4.251 -3,6.5 -9.847,1.812 -12.847,-1.688 -9,-10.5 -1.778,-7.61 -3.944,-15.11 -6.5,-22.5 -1.667,-2 -3.333,-4 -5,-6 -0.756,-2.309 -0.256,-4.309 1.5,-6 2.351,1.729 5.018,2.396 8,2 z"
       id="path107" />
  </g>
  <g
     id="g108"
     transform="translate(-273.49976,-75.439392)">
    <path
       style="opacity:1"
       fill="#cbcbcb"
       d="m 557.5,676.5 c -3.962,0.487 -7.796,1.487 -11.5,3 -1.107,-0.085 -2.107,-0.419 -3,-1 -0.464,0.594 -0.631,1.261 -0.5,2 -0.904,-0.709 -1.237,-1.709 -1,-3 3.659,-0.587 7.159,-1.587 10.5,-3 2.221,-0.107 4.054,0.56 5.5,2 z"
       id="path108" />
  </g>
  <g
     id="g109"
     transform="translate(-273.49976,-75.439392)">
    <path
       style="opacity:1"
       fill="#efefef"
       d="m 542.5,680.5 c -0.131,-0.739 0.036,-1.406 0.5,-2 0.893,0.581 1.893,0.915 3,1 3.704,-1.513 7.538,-2.513 11.5,-3 1.422,10.182 5.088,19.516 11,28 1,1.333 2,1.333 3,0 -1.896,-10.356 -5.562,-20.023 -11,-29 0.676,-1.854 1.676,-2.187 3,-1 5.636,9.21 8.803,19.21 9.5,30 3.768,4.482 2.935,7.982 -2.5,10.5 -3.26,0.784 -6.427,0.617 -9.5,-0.5 0.035,-4.758 -1.298,-9.091 -4,-13 -5.84,-6.362 -10.674,-13.362 -14.5,-21 z"
       id="path109" />
  </g>
  <g
     id="g110"
     transform="translate(-273.49976,-75.439392)">
    <path
       style="opacity:1"
       fill="#d2d2d2"
       d="m 475.5,713.5 c 0.731,-2.249 1.731,-4.416 3,-6.5 -3.616,-10.505 -6.116,-21.339 -7.5,-32.5 -1,-3.14 -3.167,-4.473 -6.5,-4 0.634,-1.447 1.801,-2.113 3.5,-2 2.462,0.659 4.962,0.993 7.5,1 -1.785,13.618 0.215,26.618 6,39 -0.801,3.137 -2.801,4.804 -6,5 z"
       id="path110" />
  </g>
  <g
     id="g111"
     transform="translate(-273.49976,-75.439392)">
    <path
       style="opacity:1"
       fill="#dfdfe0"
       d="m 484.5,706.5 c 0.768,0.763 1.268,1.763 1.5,3 2.667,-0.667 5.333,-1.333 8,-2 10.429,1.27 21.096,1.27 32,0 2.667,0.667 5.333,1.333 8,2 5.988,-0.972 11.821,-0.972 17.5,0 2.088,-0.12 3.422,-1.12 4,-3 0.838,0.342 1.172,1.008 1,2 0.162,2.027 -0.005,4.027 -0.5,6 -0.561,-0.522 -1.228,-0.855 -2,-1 -2.464,0.661 -4.964,1.161 -7.5,1.5 1.123,1.044 2.456,1.71 4,2 -0.525,0.692 -1.192,1.192 -2,1.5 -1.048,-0.883 -2.215,-1.55 -3.5,-2 -2.74,0.261 -5.406,0.261 -8,0 -3.744,1.265 -7.578,2.265 -11.5,3 -3.011,0.275 -6.178,-0.058 -9.5,-1 -2.003,2.301 -3.837,2.301 -5.5,0 -1.342,1.402 -2.176,1.069 -2.5,-1 -1.667,0.333 -3.333,0.667 -5,1 -0.875,-2.013 -2.209,-2.013 -4,0 -2.691,-1.122 -5.358,-2.122 -8,-3 -1.256,0.148 -2.423,0.482 -3.5,1 -2.478,-2.829 -3.478,-6.162 -3,-10 z"
       id="path111" />
  </g>
  <g
     id="g112"
     transform="translate(-273.49976,-75.439392)">
    <path
       style="opacity:1"
       fill="#d2d3d4"
       d="m 556.5,708.5 c 0.798,2.671 1.465,5.504 2,8.5 -2.362,5.891 -4.862,11.725 -7.5,17.5 -1.023,3.817 -0.523,7.317 1.5,10.5 5.746,1.22 11.746,1.72 18,1.5 1.555,-0.222 2.889,-0.889 4,-2 4.594,1.604 7.428,-0.063 8.5,-5 0.499,-4.655 0.666,-9.321 0.5,-14 0.802,1.452 1.302,3.118 1.5,5 0.494,-1.634 0.66,-3.301 0.5,-5 3.536,1.258 7.203,2.091 11,2.5 1.333,1.333 2.667,2.667 4,4 -0.333,0.333 -0.667,0.667 -1,1 1.333,0.667 2.667,1.333 4,2 -0.771,1.998 -0.105,3.665 2,5 -2.862,0.24 -5.195,1.407 -7,3.5 -1.698,-1.181 -3.365,-1.181 -5,0 -1.823,1.658 -3.49,3.491 -5,5.5 -3.432,0.116 -6.432,1.283 -9,3.5 -0.586,-0.209 -1.086,-0.543 -1.5,-1 -1.46,1.922 -3.127,2.589 -5,2 -0.333,0.667 -0.667,1.333 -1,2 -7.308,-0.994 -14.974,-1.327 -23,-1 -3.893,2.236 -7.726,1.903 -11.5,-1 -3.576,1.767 -7.409,2.767 -11.5,3 -2.948,-0.101 -5.948,-0.434 -9,-1 -0.519,1.016 -1.353,1.682 -2.5,2 -1.605,-0.93 -3.105,-0.93 -4.5,0 -0.64,-1.898 -1.973,-2.232 -4,-1 -1.326,-0.255 -2.326,-0.922 -3,-2 -0.626,2.491 -1.459,2.491 -2.5,0 -2.626,1.08 -5.126,0.746 -7.5,-1 -0.388,0.928 -1.055,1.595 -2,2 -1.908,-0.954 -3.908,-1.621 -6,-2 -5.397,0.89 -11.063,0.557 -17,-1 -8.451,1.995 -16.284,0.995 -23.5,-3 -1.216,0.502 -2.383,0.835 -3.5,1 -1.018,-2.064 -2.351,-2.398 -4,-1 -4.181,-0.74 -8.348,-1.574 -12.5,-2.5 -0.825,-1.688 -1.825,-1.855 -3,-0.5 -6.263,-3.01 -9.93,-7.177 -11,-12.5 3.98,-2.746 8.313,-4.746 13,-6 -0.333,-0.333 -0.667,-0.667 -1,-1 1.807,-2.276 3.307,-2.443 4.5,-0.5 2.491,-0.72 4.991,-1.387 7.5,-2 -0.009,1.808 0.491,3.475 1.5,5 3.243,2.917 6.743,5.417 10.5,7.5 2.333,0.667 4.667,0.667 7,0 11.187,-3.177 22.187,-6.511 33,-10 2.168,-3.341 2.502,-6.841 1,-10.5 1.077,-0.518 2.244,-0.852 3.5,-1 2.642,0.878 5.309,1.878 8,3 1.791,-2.013 3.125,-2.013 4,0 1.667,-0.333 3.333,-0.667 5,-1 0.324,2.069 1.158,2.402 2.5,1 1.663,2.301 3.497,2.301 5.5,0 3.322,0.942 6.489,1.275 9.5,1 3.922,-0.735 7.756,-1.735 11.5,-3 2.594,0.261 5.26,0.261 8,0 1.285,0.45 2.452,1.117 3.5,2 0.808,-0.308 1.475,-0.808 2,-1.5 -1.544,-0.29 -2.877,-0.956 -4,-2 2.536,-0.339 5.036,-0.839 7.5,-1.5 0.772,0.145 1.439,0.478 2,1 0.495,-1.973 0.662,-3.973 0.5,-6 z"
       id="path112" />
  </g>
  <g
     id="g113"
     transform="translate(-273.49976,-75.439392)">
    <path
       style="opacity:1"
       fill="#dddedf"
       d="m 461.5,707.5 c 0,1.667 0,3.333 0,5 -6.312,2.152 -12.645,4.319 -19,6.5 -3.256,1.116 -5.922,2.949 -8,5.5 -2.509,0.613 -5.009,1.28 -7.5,2 -1.193,-1.943 -2.693,-1.776 -4.5,0.5 0.333,0.333 0.667,0.667 1,1 -4.687,1.254 -9.02,3.254 -13,6 1.07,5.323 4.737,9.49 11,12.5 1.175,-1.355 2.175,-1.188 3,0.5 4.152,0.926 8.319,1.76 12.5,2.5 1.649,-1.398 2.982,-1.064 4,1 1.117,-0.165 2.284,-0.498 3.5,-1 7.216,3.995 15.049,4.995 23.5,3 5.937,1.557 11.603,1.89 17,1 2.092,0.379 4.092,1.046 6,2 0.945,-0.405 1.612,-1.072 2,-2 2.374,1.746 4.874,2.08 7.5,1 1.041,2.491 1.874,2.491 2.5,0 0.674,1.078 1.674,1.745 3,2 2.027,-1.232 3.36,-0.898 4,1 1.395,-0.93 2.895,-0.93 4.5,0 1.147,-0.318 1.981,-0.984 2.5,-2 3.052,0.566 6.052,0.899 9,1 4.091,-0.233 7.924,-1.233 11.5,-3 3.774,2.903 7.607,3.236 11.5,1 8.026,-0.327 15.692,0.006 23,1 0.333,-0.667 0.667,-1.333 1,-2 1.873,0.589 3.54,-0.078 5,-2 0.414,0.457 0.914,0.791 1.5,1 2.568,-2.217 5.568,-3.384 9,-3.5 1.51,-2.009 3.177,-3.842 5,-5.5 1.635,-1.181 3.302,-1.181 5,0 1.805,-2.093 4.138,-3.26 7,-3.5 -2.105,-1.335 -2.771,-3.002 -2,-5 -1.333,-0.667 -2.667,-1.333 -4,-2 0.333,-0.333 0.667,-0.667 1,-1 -1.333,-1.333 -2.667,-2.667 -4,-4 -3.797,-0.409 -7.464,-1.242 -11,-2.5 0.16,1.699 -0.006,3.366 -0.5,5 -0.198,-1.882 -0.698,-3.548 -1.5,-5 0.052,-2.403 -0.281,-4.736 -1,-7 9.019,-1.746 17.519,-0.413 25.5,4 0.333,-0.333 0.667,-0.667 1,-1 2.667,1.333 5.333,2.667 8,4 0.333,-0.333 0.667,-0.667 1,-1 2.023,3.02 4.69,5.354 8,7 0.201,3.001 0.701,5.835 1.5,8.5 -4.466,3.574 -9.133,6.907 -14,10 -3.907,0.677 -7.741,1.51 -11.5,2.5 -0.333,-0.333 -0.667,-0.667 -1,-1 -1.996,0.496 -3.663,1.496 -5,3 -1,-0.333 -2,-0.667 -3,-1 -4.591,2.186 -9.424,3.686 -14.5,4.5 -9.29,0.682 -18.456,1.849 -27.5,3.5 -2.022,-1.491 -3.688,-1.158 -5,1 -3.12,-2.214 -6.12,-2.214 -9,0 -11.215,-0.215 -22.548,-0.215 -34,0 -27.52,-0.456 -54.686,-3.623 -81.5,-9.5 -0.825,-1.688 -1.825,-1.855 -3,-0.5 -1.669,-1.39 -3.336,-1.723 -5,-1 -5.816,-2.741 -11.483,-5.741 -17,-9 -2.138,-1.533 -2.805,-3.366 -2,-5.5 -1.894,-1.101 -2.561,-2.434 -2,-4 3.448,-3.046 7.615,-5.879 12.5,-8.5 0.333,0.333 0.667,0.667 1,1 1.701,-2.212 3.701,-2.879 6,-2 14.838,-5.154 29.671,-9.154 44.5,-12 -0.363,-0.683 -0.696,-1.35 -1,-2 1.43,-0.079 2.764,0.254 4,1 0.676,-1.102 1.342,-2.102 2,-3 z"
       id="path113" />
  </g>
  <g
     id="g114"
     transform="translate(-273.49976,-75.439392)">
    <path
       style="opacity:1"
       fill="#ececec"
       d="m 455.5,709.5 c 0.304,0.65 0.637,1.317 1,2 -14.829,2.846 -29.662,6.846 -44.5,12 -2.299,-0.879 -4.299,-0.212 -6,2 -0.333,-0.333 -0.667,-0.667 -1,-1 -4.885,2.621 -9.052,5.454 -12.5,8.5 -0.561,1.566 0.106,2.899 2,4 -0.805,2.134 -0.138,3.967 2,5.5 5.517,3.259 11.184,6.259 17,9 1.664,-0.723 3.331,-0.39 5,1 1.175,-1.355 2.175,-1.188 3,0.5 26.814,5.877 53.98,9.044 81.5,9.5 11.452,-0.215 22.785,-0.215 34,0 2.88,-2.214 5.88,-2.214 9,0 1.312,-2.158 2.978,-2.491 5,-1 9.044,-1.651 18.21,-2.818 27.5,-3.5 5.076,-0.814 9.909,-2.314 14.5,-4.5 1,0.333 2,0.667 3,1 1.337,-1.504 3.004,-2.504 5,-3 0.333,0.333 0.667,0.667 1,1 3.759,-0.99 7.593,-1.823 11.5,-2.5 4.867,-3.093 9.534,-6.426 14,-10 -0.799,-2.665 -1.299,-5.499 -1.5,-8.5 -3.31,-1.646 -5.977,-3.98 -8,-7 -0.333,0.333 -0.667,0.667 -1,1 -2.667,-1.333 -5.333,-2.667 -8,-4 -0.333,0.333 -0.667,0.667 -1,1 -7.981,-4.413 -16.481,-5.746 -25.5,-4 -0.941,-1.55 -1.607,-3.216 -2,-5 4.011,0.215 8.011,0.215 12,0 12.99,2.268 25.657,6.435 38,12.5 2.932,2.423 5.265,5.257 7,8.5 -0.375,1.959 -1.041,3.793 -2,5.5 0.333,0.333 0.667,0.667 1,1 -2.147,2.237 -4.48,4.237 -7,6 -20.009,8.843 -41.009,14.176 -63,16 -42.076,3.811 -84.076,3.145 -126,-2 -16.842,-1.876 -32.842,-6.543 -48,-14 -6.361,-2.89 -8.861,-7.723 -7.5,-14.5 7.342,-7.663 16.009,-12.33 26,-14 14.481,-4.583 29.315,-7.583 44.5,-9 z"
       id="path114" />
  </g>
  <g
     id="g115"
     transform="translate(-273.49976,-75.439392)">
    <path
       style="opacity:1"
       fill="#d4d5d7"
       d="m 568.5,735.5 c 5.131,0.106 6.297,2.439 3.5,7 -1.011,0.837 -2.178,1.17 -3.5,1 0,-2.667 0,-5.333 0,-8 z"
       id="path115" />
  </g>
  <g
     id="g116"
     transform="translate(-273.49976,-75.439392)">
    <path
       style="opacity:1"
       fill="#d0d1d3"
       d="m 561.5,735.5 c 1.667,0 3.333,0 5,0 -0.338,2.354 -0.838,4.687 -1.5,7 -1.333,1.333 -2.667,1.333 -4,0 -0.703,-2.429 -0.537,-4.762 0.5,-7 z"
       id="path116" />
  </g>
  <g
     id="g117"
     transform="translate(-273.49976,-75.439392)">
    <path
       style="opacity:1"
       fill="#dbdbdd"
       d="m 554.5,733.5 c 2.743,-0.423 4.076,0.744 4,3.5 0.016,3.515 -1.65,5.349 -5,5.5 -0.132,-3.07 0.201,-6.07 1,-9 z"
       id="path117" />
  </g>
  <g
     id="g118"
     transform="translate(-273.49976,-75.439392)">
    <path
       style="opacity:1"
       fill="#e5e5e6"
       d="m 577.5,734.5 c 2.744,0.572 3.577,2.238 2.5,5 -1.11,1.537 -2.61,2.203 -4.5,2 -0.334,-2.688 0.332,-5.021 2,-7 z"
       id="path118" />
  </g>
  <g
     id="g119"
     transform="translate(-273.49976,-75.439392)">
    <path
       style="opacity:1"
       fill="#e1e2e1"
       d="m 451.5,728.5 c 2.027,-0.162 4.027,0.005 6,0.5 1.425,1.714 1.092,3.047 -1,4 -2.942,1.124 -5.942,1.458 -9,1 -0.951,-0.718 -1.117,-1.551 -0.5,-2.5 1.652,-0.899 3.152,-1.899 4.5,-3 z"
       id="path119" />
  </g>
  <g
     id="g120"
     transform="translate(-273.49976,-75.439392)">
    <path
       style="opacity:1"
       fill="#e0dfe2"
       d="m 447.5,725.5 c 1.699,-0.16 3.366,0.006 5,0.5 -3.254,1.027 -6.254,2.527 -9,4.5 -1.021,-0.502 -1.188,-1.168 -0.5,-2 1.652,-0.899 3.152,-1.899 4.5,-3 z"
       id="path120" />
  </g>
  <g
     id="g121"
     transform="translate(-273.49976,-75.439392)">
    <path
       style="opacity:1"
       fill="#d5d4d8"
       d="m 444.5,722.5 c 1.175,-0.219 2.175,0.114 3,1 -2.57,1.202 -5.07,2.535 -7.5,4 -0.667,-0.667 -0.667,-1.333 0,-2 1.652,-0.899 3.152,-1.899 4.5,-3 z"
       id="path121" />
  </g>
  <g
     id="g122"
     transform="translate(-273.49976,-75.439392)">
    <path
       style="opacity:1"
       fill="#cacaca"
       d="m 479.5,716.5 c 2.494,-1.577 4.327,-0.91 5.5,2 0.687,2.42 0.187,4.587 -1.5,6.5 -3.546,1.174 -7.213,1.84 -11,2 -3.351,1.928 -6.851,3.428 -10.5,4.5 -1.095,-1.193 -1.928,-2.527 -2.5,-4 2.357,0.163 4.69,-0.003 7,-0.5 4.77,-2.404 9.77,-4.07 15,-5 1.68,-2.811 1.013,-4.644 -2,-5.5 z"
       id="path122" />
  </g>
  <g
     id="g123"
     transform="translate(-273.49976,-75.439392)">
    <path
       style="opacity:1"
       fill="#f2f2f2"
       d="m 575.5,715.5 c 1.911,0.074 3.078,1.074 3.5,3 0.828,4.702 0.662,9.369 -0.5,14 -1.333,0.667 -2.667,1.333 -4,2 -2.333,-1.333 -4.667,-1.333 -7,0 -3.493,-1.224 -6.993,-2.224 -10.5,-3 0.489,-4.158 1.989,-7.991 4.5,-11.5 2.667,-0.333 5.333,-0.667 8,-1 2.525,-0.424 4.525,-1.59 6,-3.5 z"
       id="path123" />
  </g>
  <g
     id="g124"
     transform="translate(-273.49976,-75.439392)">
    <path
       style="opacity:1"
       fill="#f8f7f7"
       d="m 479.5,716.5 c 3.013,0.856 3.68,2.689 2,5.5 -5.23,0.93 -10.23,2.596 -15,5 -2.31,0.497 -4.643,0.663 -7,0.5 -3.443,-1.604 -6.777,-3.438 -10,-5.5 -1.333,-0.667 -1.333,-1.333 0,-2 4.58,-1.638 9.08,-3.471 13.5,-5.5 5.203,3.088 10.703,3.755 16.5,2 z"
       id="path124" />
  </g>
  <g
     id="g125"
     transform="translate(-273.49976,-75.439392)">
    <path
       style="opacity:1"
       fill="#3061a3"
       d="m 738.5,878.5 c -0.111,0.617 -0.444,1.117 -1,1.5 -1.333,0.167 -2.667,0.333 -4,0.5 -2.808,0.422 -4.808,-0.578 -6,-3 0,-12.667 0,-25.333 0,-38 -3.398,0.32 -6.732,-0.013 -10,-1 -1.743,-3.721 -1.076,-6.888 2,-9.5 9.911,-0.818 19.744,-0.651 29.5,0.5 1.658,8.507 -1.842,11.84 -10.5,10 0,13 0,26 0,39 z"
       id="path125" />
  </g>
  <g
     id="g126"
     transform="translate(-273.49976,-75.439392)">
    <path
       style="opacity:1"
       fill="#2f61a4"
       d="m 668.5,878.5 c -2.623,1.765 -5.623,2.432 -9,2 -0.283,-0.789 -0.783,-1.456 -1.5,-2 -0.333,-6.333 -0.667,-12.667 -1,-19 -4.03,-8.894 -8.197,-17.727 -12.5,-26.5 2.556,-4.307 6.223,-5.474 11,-3.5 2.776,5.885 5.276,11.885 7.5,18 2.264,-6.472 5.097,-12.639 8.5,-18.5 9.183,-1.158 11.683,2.342 7.5,10.5 -3.588,6.175 -6.922,12.509 -10,19 -0.5,6.658 -0.666,13.325 -0.5,20 z"
       id="path126" />
  </g>
  <g
     id="g127"
     transform="translate(-273.49976,-75.439392)">
    <path
       style="opacity:1"
       fill="#2b5fa1"
       d="m 338.5,879.5 c -5.777,2.767 -11.444,2.6 -17,-0.5 -6.205,-5.771 -9.205,-12.938 -9,-21.5 -0.166,-4.014 10e-4,-8.014 0.5,-12 3.655,-15.908 12.822,-20.741 27.5,-14.5 5.735,6.206 8.068,13.54 7,22 1.053,10.321 -1.947,19.155 -9,26.5 z"
       id="path127" />
  </g>
  <g
     id="g128"
     transform="translate(-273.49976,-75.439392)">
    <path
       style="opacity:1"
       fill="#f4f5f7"
       d="m 328.5,839.5 c 4.101,-0.07 6.601,1.93 7.5,6 1.194,7.932 0.36,15.599 -2.5,23 -5.183,2.316 -8.017,0.649 -8.5,-5 -0.667,-6.333 -0.667,-12.667 0,-19 0.997,-1.823 2.164,-3.49 3.5,-5 z"
       id="path128" />
  </g>
  <g
     id="g129"
     transform="translate(-273.49976,-75.439392)">
    <path
       style="opacity:1"
       fill="#2c5fa2"
       d="m 307.5,860.5 c 0.31,6.258 -0.024,12.424 -1,18.5 -7.555,3.055 -12.221,0.555 -14,-7.5 -2.607,-5.548 -4.94,-11.215 -7,-17 -0.06,-0.543 -0.393,-0.876 -1,-1 -0.998,8.641 -1.331,17.308 -1,26 -3.296,1.527 -6.462,1.193 -9.5,-1 -0.667,-16 -0.667,-32 0,-48 3.073,-1.117 6.24,-1.284 9.5,-0.5 4.59,7.015 8.257,14.515 11,22.5 0.59,1.266 1.09,2.599 1.5,4 0.5,-8.994 0.666,-17.994 0.5,-27 1.293,-0.658 2.793,-0.992 4.5,-1 2.352,-0.195 4.352,0.472 6,2 0.5,9.994 0.666,19.994 0.5,30 z"
       id="path129" />
  </g>
  <g
     id="g130"
     transform="translate(-273.49976,-75.439392)">
    <path
       style="opacity:1"
       fill="#cad8e7"
       d="m 296.5,829.5 c 0.166,9.006 0,18.006 -0.5,27 -0.41,-1.401 -0.91,-2.734 -1.5,-4 0.667,-7.667 1.333,-15.333 2,-23 z"
       id="path130" />
  </g>
  <g
     id="g131"
     transform="translate(-273.49976,-75.439392)">
    <path
       style="opacity:1"
       fill="#2e61a4"
       d="m 713.5,877.5 c -0.558,1.29 -1.558,2.123 -3,2.5 -7.333,0.667 -14.667,0.667 -22,0 -1.66,-1.488 -2.66,-3.321 -3,-5.5 -0.317,-14.715 0.017,-29.382 1,-44 0.525,-0.692 1.192,-1.192 2,-1.5 8.327,-0.5 16.66,-0.666 25,-0.5 0.32,3.398 -0.013,6.732 -1,10 -5.27,0.951 -10.603,1.285 -16,1 0,3.333 0,6.667 0,10 4.014,-0.166 8.014,10e-4 12,0.5 2.591,3.297 2.591,6.631 0,10 -3.986,0.499 -7.986,0.666 -12,0.5 0,3 0,6 0,9 5.344,-0.166 10.677,10e-4 16,0.5 0.935,2.381 1.268,4.881 1,7.5 z"
       id="path131" />
  </g>
  <g
     id="g132"
     transform="translate(-273.49976,-75.439392)">
    <path
       style="opacity:1"
       fill="#2a5fa2"
       d="m 403.5,880.5 c -1.527,0.073 -2.527,-0.594 -3,-2 0.166,-9.006 0,-18.006 -0.5,-27 -0.791,1.245 -1.291,2.578 -1.5,4 -1.742,4.893 -3.076,9.893 -4,15 -1.809,3.798 -4.642,4.798 -8.5,3 -2.299,-5.531 -4.132,-11.198 -5.5,-17 -0.392,-1.679 -0.892,-3.346 -1.5,-5 -0.5,9.327 -0.666,18.661 -0.5,28 -2.969,1.325 -5.969,1.325 -9,0 -1.166,-16.323 -1.333,-32.656 -0.5,-49 3.742,-2.548 7.575,-2.548 11.5,0 3.012,8.018 6.012,16.018 9,24 2.733,-8.032 5.566,-16.032 8.5,-24 3.933,-2.599 7.933,-2.599 12,0 0.833,16.344 0.666,32.677 -0.5,49 -1.909,0.848 -3.909,1.182 -6,1 z"
       id="path132" />
  </g>
  <g
     id="g133"
     transform="translate(-273.49976,-75.439392)">
    <path
       style="opacity:1"
       fill="#2c60a2"
       d="m 448.5,880.5 c -2.779,0.221 -5.446,-0.112 -8,-1 -1.626,-2.746 -2.293,-5.746 -2,-9 -3.682,-0.165 -7.348,10e-4 -11,0.5 -0.579,3.139 -1.579,6.139 -3,9 -5.255,1.808 -8.589,0.141 -10,-5 3.132,-15.028 6.965,-29.861 11.5,-44.5 1.822,-1.545 3.989,-2.212 6.5,-2 2.753,-0.147 5.253,0.52 7.5,2 4.151,15.228 7.984,30.561 11.5,46 -0.287,1.943 -1.287,3.277 -3,4 z"
       id="path133" />
  </g>
  <g
     id="g134"
     transform="translate(-273.49976,-75.439392)">
    <path
       style="opacity:1"
       fill="#e9eef4"
       d="m 432.5,842.5 c 2.061,5.696 3.061,11.696 3,18 -2,0 -4,0 -6,0 0.569,-6.082 1.569,-12.082 3,-18 z"
       id="path134" />
  </g>
  <g
     id="g135"
     transform="translate(-273.49976,-75.439392)">
    <path
       style="opacity:1"
       fill="#3162a1"
       d="m 471.5,865.5 c 0.274,4.763 -0.059,9.43 -1,14 -3.731,1.595 -7.231,1.262 -10.5,-1 -0.5,-12.996 -0.667,-25.996 -0.5,-39 -3.018,0.165 -6.018,-0.002 -9,-0.5 -1.553,-3.565 -1.22,-6.899 1,-10 9.911,-0.818 19.744,-0.651 29.5,0.5 2.157,8.196 -1.01,11.529 -9.5,10 0,8.667 0,17.333 0,26 z"
       id="path135" />
  </g>
  <g
     id="g136"
     transform="translate(-273.49976,-75.439392)">
    <path
       style="opacity:1"
       fill="#2d60a2"
       d="m 516.5,839.5 c 0.164,2.687 -0.003,5.354 -0.5,8 -0.5,1.167 -1.333,2 -2.5,2.5 -6.517,1.813 -9.351,-0.687 -8.5,-7.5 -2.367,-3.432 -5.034,-3.765 -8,-1 -2.431,6.449 -3.098,13.115 -2,20 0.598,2.808 1.765,5.308 3.5,7.5 1.667,0.667 3.333,0.667 5,0 1.711,-2.456 3.044,-5.123 4,-8 3.088,-0.847 5.921,-0.347 8.5,1.5 1.145,6.232 -0.688,11.399 -5.5,15.5 -15.961,6.341 -24.961,0.841 -27,-16.5 -0.274,-6.73 0.226,-13.397 1.5,-20 1.119,-4.739 3.619,-8.572 7.5,-11.5 11.188,-4.907 19.188,-1.74 24,9.5 z"
       id="path136" />
  </g>
  <g
     id="g137"
     transform="translate(-273.49976,-75.439392)">
    <path
       style="opacity:1"
       fill="#a2b9d3"
       d="m 380.5,856.5 c -0.667,7.667 -1.333,15.333 -2,23 -0.166,-9.339 0,-18.673 0.5,-28 0.608,1.654 1.108,3.321 1.5,5 z"
       id="path137" />
  </g>
  <g
     id="g138"
     transform="translate(-273.49976,-75.439392)">
    <path
       style="opacity:1"
       fill="#3565a5"
       d="m 553.5,880.5 c -3.507,0.506 -6.674,-0.16 -9.5,-2 -0.499,-5.657 -0.666,-11.324 -0.5,-17 -3.333,0 -6.667,0 -10,0 0.329,6.037 -0.004,12.037 -1,18 -3.563,1.537 -6.897,1.204 -10,-1 -0.982,-13.284 -1.315,-26.617 -1,-40 -0.991,-10.357 2.842,-12.69 11.5,-7 0.5,6.325 0.666,12.658 0.5,19 3.333,0 6.667,0 10,0 -0.166,-7.008 0,-14.008 0.5,-21 2.737,-1.11 5.571,-1.277 8.5,-0.5 1.167,0.5 2,1.333 2.5,2.5 0.667,15.667 0.667,31.333 0,47 -0.717,0.544 -1.217,1.211 -1.5,2 z"
       id="path138" />
  </g>
  <g
     id="g139"
     transform="translate(-273.49976,-75.439392)">
    <path
       style="opacity:1"
       fill="#6d92bc"
       d="m 400.5,878.5 c -0.667,-7.667 -1.333,-15.333 -2,-23 0.209,-1.422 0.709,-2.755 1.5,-4 0.5,8.994 0.666,17.994 0.5,27 z"
       id="path139" />
  </g>
  <g
     id="g140"
     transform="translate(-273.49976,-75.439392)">
    <path
       style="opacity:1"
       fill="#2d61a4"
       d="m 588.5,869.5 c 0.722,0.418 1.222,1.084 1.5,2 1.684,5.316 -0.15,8.316 -5.5,9 -6.342,0.166 -12.675,0 -19,-0.5 -1.167,-0.5 -2,-1.333 -2.5,-2.5 -0.833,-15.677 -0.666,-31.344 0.5,-47 0.808,-0.308 1.475,-0.808 2,-1.5 8,-0.667 16,-0.667 24,0 1.11,2.737 1.277,5.571 0.5,8.5 -0.75,0.626 -1.584,1.126 -2.5,1.5 -4.655,0.499 -9.321,0.666 -14,0.5 0,3.333 0,6.667 0,10 4.014,-0.166 8.014,10e-4 12,0.5 1.11,2.737 1.277,5.571 0.5,8.5 -3.922,1.812 -8.089,2.479 -12.5,2 0,3 0,6 0,9 5,0 10,0 15,0 z"
       id="path140" />
  </g>
  <g
     id="g141"
     transform="translate(-273.49976,-75.439392)">
    <path
       style="opacity:1"
       fill="#2e60a3"
       d="m 625.5,862.5 c 0.383,11.45 -5.117,17.783 -16.5,19 -10.735,-1.543 -15.568,-7.543 -14.5,-18 2.336,-1.891 5.002,-2.391 8,-1.5 1.333,2.333 2.667,4.667 4,7 5.594,1.913 7.761,0.08 6.5,-5.5 -5.512,-3.757 -10.846,-7.757 -16,-12 -5.596,-13.479 -1.262,-21.479 13,-24 11.234,1.463 15.901,7.796 14,19 -3.135,1.299 -6.301,1.299 -9.5,0 -0.808,-1.923 -1.308,-3.923 -1.5,-6 -5,-3.333 -7.333,-2 -7,4 4.315,4.088 9.148,7.588 14.5,10.5 1.952,2.426 3.619,4.926 5,7.5 z"
       id="path141" />
  </g>
  <g
     id="g142"
     transform="translate(-273.49976,-75.439392)">
    <path
       style="opacity:1"
       fill="#517eb5"
       d="m 285.5,854.5 c -0.667,8.333 -1.333,16.667 -2,25 -0.331,-8.692 0.002,-17.359 1,-26 0.607,0.124 0.94,0.457 1,1 z"
       id="path142" />
  </g>
</svg>
