<?xml version="1.0" encoding="UTF-8" standalone="no"?>
<svg
   version="1.1"
   width="1024"
   height="1024"
   style="clip-rule:evenodd;fill-rule:evenodd;image-rendering:optimizeQuality;shape-rendering:geometricPrecision;text-rendering:geometricPrecision"
   id="svg117"
   xmlns="http://www.w3.org/2000/svg"
   xmlns:svg="http://www.w3.org/2000/svg">
  <defs
     id="defs117" />
  <g
     id="g2">
    <path
       style="opacity:1"
       fill="#95c2c8"
       d="m 527.5,484.5 c -1.82,8.817 -1.32,17.484 1.5,26 0.667,3.667 0.667,7.333 0,11 -2.602,3.712 -6.102,4.878 -10.5,3.5 -6.596,-2.299 -12.929,-5.132 -19,-8.5 -2.591,-1.491 -3.591,-3.825 -3,-7 3.213,0.31 6.213,-0.023 9,-1 0.543,0.06 0.876,0.393 1,1 -5.956,1.787 -5.956,4.287 0,7.5 3.333,1 6.667,2 10,3 3.196,0.805 6.196,0.638 9,-0.5 1.333,-2 1.333,-4 0,-6 -2.288,-4.58 -2.288,-9.08 0,-13.5 -0.269,-1.607 -1.103,-2.774 -2.5,-3.5 -0.498,-3.317 -0.665,-6.65 -0.5,-10 1.311,-2.06 1.311,-4.226 0,-6.5 -3.992,-1.177 -5.658,0.323 -5,4.5 -0.672,0.767 -1.505,1.434 -2.5,2 -3.138,-1.35 -5.305,-0.35 -6.5,3 -1.984,-0.016 -2.984,0.984 -3,3 -0.047,1.538 0.62,2.538 2,3 1.109,0.79 2.442,1.29 4,1.5 -1.293,0.49 -2.627,0.657 -4,0.5 0.34,2.048 0.007,3.048 -1,3 -0.12,-1.086 -0.787,-1.753 -2,-2 -2.816,0.605 -5.483,1.605 -8,3 -0.333,-1 -0.667,-2 -1,-3 2.964,-6.809 7.63,-12.309 14,-16.5 3.338,-1.92 6.838,-3.42 10.5,-4.5 4.285,0.452 6.785,2.785 7.5,7 z"
       id="path2" />
  </g>
  <g
     id="g3">
    <path
       style="opacity:1"
       fill="#b2d9df"
       d="m 517.5,484.5 c 1.55,0.941 3.216,1.607 5,2 -0.165,3.35 0.002,6.683 0.5,10 1.397,0.726 2.231,1.893 2.5,3.5 -2.288,4.42 -2.288,8.92 0,13.5 -3.985,0.129 -5.318,1.963 -4,5.5 1.293,0.49 2.627,0.657 4,0.5 -2.804,1.138 -5.804,1.305 -9,0.5 -3.333,-1 -6.667,-2 -10,-3 -5.956,-3.213 -5.956,-5.713 0,-7.5 -0.124,-0.607 -0.457,-0.94 -1,-1 -2.796,-0.876 -5.463,-2.043 -8,-3.5 2.743,-2.038 5.743,-3.538 9,-4.5 1.007,0.048 1.34,-0.952 1,-3 1.373,0.157 2.707,-0.01 4,-0.5 -1.558,-0.21 -2.891,-0.71 -4,-1.5 4.659,0.485 5.992,-1.348 4,-5.5 -0.948,-0.483 -1.948,-0.649 -3,-0.5 1.195,-3.35 3.362,-4.35 6.5,-3 0.995,-0.566 1.828,-1.233 2.5,-2 z"
       id="path3" />
  </g>
  <g
     id="g4">
    <path
       style="opacity:1"
       fill="#f6f9fa"
       d="m 508.5,489.5 c 1.052,-0.149 2.052,0.017 3,0.5 1.992,4.152 0.659,5.985 -4,5.5 -1.38,-0.462 -2.047,-1.462 -2,-3 0.016,-2.016 1.016,-3.016 3,-3 z"
       id="path4" />
  </g>
  <g
     id="g5">
    <path
       style="opacity:1"
       fill="#cfcfcf"
       d="m 577.5,482.5 c 1.765,2.623 2.432,5.623 2,9 -1.012,2.376 -2.845,3.376 -5.5,3 -4.523,-1.34 -9.023,-2.84 -13.5,-4.5 -8,-0.667 -16,-0.667 -24,0 -1.601,0.273 -3.101,0.773 -4.5,1.5 -0.495,-1.973 -0.662,-3.973 -0.5,-6 14.041,-2.332 27.708,-0.998 41,4 3.61,-0.944 5.277,-3.277 5,-7 z"
       id="path5" />
  </g>
  <g
     id="g6">
    <path
       style="opacity:1"
       fill="#f7f7f6"
       d="m 585.5,492.5 c 3.497,0.56 5.997,2.56 7.5,6 2.004,17.696 8.837,33.196 20.5,46.5 1.293,0.49 2.627,0.657 4,0.5 1.796,1.293 3.463,2.793 5,4.5 7.694,0.325 12.361,4.158 14,11.5 -0.219,1.438 -0.719,2.771 -1.5,4 -2.91,-4.543 -7.076,-7.21 -12.5,-8 -6.921,-0.797 -13.921,-1.297 -21,-1.5 -5.788,-11.123 -13.122,-21.123 -22,-30 -4.083,-2.105 -8.417,-3.438 -13,-4 -6.839,-4.185 -8.672,-10.018 -5.5,-17.5 0.833,-0.833 1.667,-1.667 2.5,-2.5 4.995,0.082 9.995,0.082 15,0 2.976,-2.825 5.309,-5.992 7,-9.5 z"
       id="path6" />
  </g>
  <g
     id="g7">
    <path
       style="opacity:1"
       fill="#0a0a0a"
       d="m 531.5,485.5 c -0.162,2.027 0.005,4.027 0.5,6 1.399,-0.727 2.899,-1.227 4.5,-1.5 8,-0.667 16,-0.667 24,0 4.477,1.66 8.977,3.16 13.5,4.5 2.655,0.376 4.488,-0.624 5.5,-3 0.764,-2.24 1.598,-4.573 2.5,-7 0.483,0.948 0.649,1.948 0.5,3 1.599,0.268 2.932,-0.066 4,-1 7.938,-0.617 13.438,2.716 16.5,10 0.499,3.652 0.665,7.318 0.5,11 -0.969,2.163 -1.802,4.496 -2.5,7 -0.417,-1.256 -1.25,-1.923 -2.5,-2 0.397,-5.459 -0.103,-10.792 -1.5,-16 -2.984,-4.434 -6.818,-5.767 -11.5,-4 -1.691,3.508 -4.024,6.675 -7,9.5 -5.005,0.082 -10.005,0.082 -15,0 -0.833,0.833 -1.667,1.667 -2.5,2.5 -3.172,7.482 -1.339,13.315 5.5,17.5 4.583,0.562 8.917,1.895 13,4 8.878,8.877 16.212,18.877 22,30 7.079,0.203 14.079,0.703 21,1.5 0,1 0,2 0,3 -1,0 -2,0 -3,0 -13.879,-0.267 -27.713,0.399 -41.5,2 -3.719,0.019 -7.219,-0.648 -10.5,-2 -1.89,-0.203 -3.39,0.463 -4.5,2 -0.617,-0.949 -0.451,-1.782 0.5,-2.5 2.409,-1.707 5.075,-2.54 8,-2.5 3.333,0 6.667,0 10,0 5.517,0.381 8.517,-2.285 9,-8 -1.005,-4.023 -3.005,-7.357 -6,-10 -3.076,-5.575 -7.576,-9.575 -13.5,-12 -7.42,2.6 -7.253,4.766 0.5,6.5 5.259,5.141 4.925,10.141 -1,15 -6.689,3.671 -13.689,6.338 -21,8 2.192,0.926 4.192,2.093 6,3.5 0.437,1.574 1.437,2.741 3,3.5 -0.228,0.399 -0.562,0.565 -1,0.5 -2.667,0 -5.333,0 -8,0 -2.582,0.475 -4.582,-0.192 -6,-2 1.808,0.009 3.475,-0.491 5,-1.5 -3.116,-2.807 -6.449,-3.973 -10,-3.5 -1.254,1.857 -1.254,3.857 0,6 -0.925,1.062 -1.925,1.062 -3,0 -0.589,-1.852 -1.256,-3.685 -2,-5.5 -10.079,-0.389 -20.079,-1.056 -30,-2 -5.538,4.393 -6.371,9.559 -2.5,15.5 6.179,4.088 13.013,6.088 20.5,6 1.419,0.951 3.085,1.284 5,1 0,-1.333 0,-2.667 0,-4 0.51,-3.174 2.177,-5.508 5,-7 -0.416,2.906 -1.082,5.739 -2,8.5 0.014,1.385 0.348,2.551 1,3.5 2.316,-1.306 4.65,-2.639 7,-4 1.983,-0.343 3.317,0.324 4,2 -3.907,0.907 -6.574,3.24 -8,7 -1.333,0.333 -2.667,0.667 -4,1 0,-0.667 -0.333,-1 -1,-1 -4.733,-0.69 -9.566,-1.356 -14.5,-2 -0.915,0.828 -1.581,1.828 -2,3 -0.743,-1.941 -0.576,-3.774 0.5,-5.5 -1.318,-1.63 -2.651,-1.797 -4,-0.5 -11.186,-2.015 -15.686,-8.682 -13.5,-20 2.189,-5.425 6.189,-8.092 12,-8 6.171,0.626 12.338,1.292 18.5,2 1.667,-0.333 3.333,-0.667 5,-1 -0.714,-2.311 -1.714,-4.478 -3,-6.5 -5.982,-0.047 -11.982,0.12 -18,0.5 -15.539,0.967 -21.373,-6.033 -17.5,-21 1.833,-1.833 3.667,-3.667 5.5,-5.5 -0.544,-0.717 -1.211,-1.217 -2,-1.5 0.787,-1.604 2.12,-2.271 4,-2 6.071,3.368 12.404,6.201 19,8.5 4.398,1.378 7.898,0.212 10.5,-3.5 0.667,-3.667 0.667,-7.333 0,-11 -2.82,-8.516 -3.32,-17.183 -1.5,-26 0.996,0.086 1.829,-0.248 2.5,-1 0.278,0.916 0.778,1.582 1.5,2 z"
       id="path7" />
  </g>
  <g
     id="g8">
    <path
       style="opacity:1"
       fill="#6f6f6d"
       d="m 562.5,495.5 c 3.297,-0.171 3.631,0.495 1,2 -0.798,-0.457 -1.131,-1.124 -1,-2 z"
       id="path8" />
  </g>
  <g
     id="g9">
    <path
       style="opacity:1"
       fill="#d6d6d5"
       d="m 585.5,492.5 c 4.682,-1.767 8.516,-0.434 11.5,4 1.397,5.208 1.897,10.541 1.5,16 4.034,12.411 10.367,23.411 19,33 -1.373,0.157 -2.707,-0.01 -4,-0.5 -11.663,-13.304 -18.496,-28.804 -20.5,-46.5 -1.503,-3.44 -4.003,-5.44 -7.5,-6 z"
       id="path9" />
  </g>
  <g
     id="g10">
    <path
       style="opacity:1"
       fill="#101010"
       d="m 586.5,486.5 c -1.068,0.934 -2.401,1.268 -4,1 0.149,-1.052 -0.017,-2.052 -0.5,-3 -0.902,2.427 -1.736,4.76 -2.5,7 0.432,-3.377 -0.235,-6.377 -2,-9 -3.057,-2.862 -6.724,-4.695 -11,-5.5 -12.469,-2.326 -24.803,-1.826 -37,1.5 1.446,2.118 2.113,4.451 2,7 -0.722,-0.418 -1.222,-1.084 -1.5,-2 -0.671,0.752 -1.504,1.086 -2.5,1 -0.715,-4.215 -3.215,-6.548 -7.5,-7 -3.662,1.08 -7.162,2.58 -10.5,4.5 -6.37,4.191 -11.036,9.691 -14,16.5 0.333,1 0.667,2 1,3 2.517,-1.395 5.184,-2.395 8,-3 1.213,0.247 1.88,0.914 2,2 -3.257,0.962 -6.257,2.462 -9,4.5 2.537,1.457 5.204,2.624 8,3.5 -2.787,0.977 -5.787,1.31 -9,1 -0.591,3.175 0.409,5.509 3,7 -1.88,-0.271 -3.213,0.396 -4,2 -5.425,0.69 -10.925,0.69 -16.5,0 -1.353,1.185 -2.52,2.519 -3.5,4 2.356,2.522 4.523,5.188 6.5,8 1.53,6.119 0.197,11.452 -4,16 -0.667,2.667 -0.667,5.333 0,8 8.973,5.745 10.806,13.245 5.5,22.5 2.402,2.703 3.735,5.87 4,9.5 5.823,1.262 9.157,4.929 10,11 0.783,-8.117 5.116,-12.45 13,-13 0.135,-2.054 -0.532,-3.721 -2,-5 1.349,-1.297 2.682,-1.13 4,0.5 -1.076,1.726 -1.243,3.559 -0.5,5.5 0.419,-1.172 1.085,-2.172 2,-3 4.934,0.644 9.767,1.31 14.5,2 -4.679,-0.166 -9.345,10e-4 -14,0.5 5.591,2.589 11.257,5.089 17,7.5 0.333,-0.167 0.667,-0.333 1,-0.5 -1.951,-1.734 -2.951,-3.901 -3,-6.5 1.333,-0.333 2.667,-0.667 4,-1 -0.763,3.638 0.57,5.138 4,4.5 2.416,-2.074 4.416,-4.408 6,-7 -0.019,-1.833 -0.685,-3.333 -2,-4.5 -0.683,-1.676 -2.017,-2.343 -4,-2 2.977,-1.564 3.644,-3.897 2,-7 -6.022,0.721 -9.022,4.388 -9,11 -0.652,-0.949 -0.986,-2.115 -1,-3.5 0.918,-2.761 1.584,-5.594 2,-8.5 1.333,-1.333 2.667,-2.667 4,-4 1.075,1.062 2.075,1.062 3,0 -1.254,-2.143 -1.254,-4.143 0,-6 -0.667,4 1,5.667 5,5 1.418,1.808 3.418,2.475 6,2 -2.292,0.84 -4.625,1.84 -7,3 1.288,2.534 1.288,5.034 0,7.5 3.188,1.934 4.688,4.768 4.5,8.5 2.739,2.256 5.573,4.256 8.5,6 3.574,-0.469 6.908,-1.636 10,-3.5 1.304,-0.804 1.971,-1.971 2,-3.5 -0.663,-3.306 -1.163,-6.639 -1.5,-10 -2.208,-3.506 -5.041,-6.173 -8.5,-8 0.438,0.065 0.772,-0.101 1,-0.5 -1.563,-0.759 -2.563,-1.926 -3,-3.5 1.195,0.178 2.362,0.511 3.5,1 2.156,-1.485 4.323,-2.985 6.5,-4.5 2.212,-0.789 4.212,-0.622 6,0.5 -2.925,-0.04 -5.591,0.793 -8,2.5 -0.951,0.718 -1.117,1.551 -0.5,2.5 1.11,-1.537 2.61,-2.203 4.5,-2 -1.429,0.734 -2.429,1.901 -3,3.5 1.108,2.112 2.608,3.946 4.5,5.5 -0.123,11.174 3.377,12.674 10.5,4.5 2.746,-1.75 5.746,-2.75 9,-3 10.586,-1.173 20.919,-0.173 31,3 4.409,1.262 8.243,0.428 11.5,-2.5 1.041,-3.136 0.207,-5.636 -2.5,-7.5 -3.071,-1.296 -6.071,-2.462 -9,-3.5 1,0 2,0 3,0 0,-1 0,-2 0,-3 5.424,0.79 9.59,3.457 12.5,8 0.781,-1.229 1.281,-2.562 1.5,-4 -1.639,-7.342 -6.306,-11.175 -14,-11.5 -1.537,-1.707 -3.204,-3.207 -5,-4.5 -8.633,-9.589 -14.966,-20.589 -19,-33 1.25,0.077 2.083,0.744 2.5,2 0.698,-2.504 1.531,-4.837 2.5,-7 3.299,15.094 10.633,27.927 22,38.5 12.309,1.432 17.143,8.266 14.5,20.5 -2.011,4.067 -3.011,8.4 -3,13 -1.433,5.098 -4.6,8.598 -9.5,10.5 -8.454,2.665 -17.121,4.165 -26,4.5 -7.55,14.037 -19.217,22.537 -35,25.5 -6.303,0.942 -12.637,1.609 -19,2 -1.054,2.382 -1.721,4.882 -2,7.5 5.59,-2.118 11.256,-4.285 17,-6.5 31.328,-4.672 44.495,8.494 39.5,39.5 -2.263,7.592 -6.763,13.425 -13.5,17.5 4.32,6.289 5.153,13.123 2.5,20.5 -3.807,4.287 -5.307,9.287 -4.5,15 0.167,2.667 0.333,5.333 0.5,8 6.645,7.495 7.145,15.329 1.5,23.5 2.428,4.95 4.261,10.117 5.5,15.5 1.046,9.972 1.713,19.972 2,30 1.372,1.41 2.205,3.077 2.5,5 -1.606,3.025 -1.272,5.692 1,8 2.104,4.079 3.437,8.412 4,13 1.461,7.699 1.295,15.365 -0.5,23 -2.969,3.454 -6.802,4.954 -11.5,4.5 -3.16,3.12 -6.493,3.286 -10,0.5 -2.118,1.446 -4.451,2.113 -7,2 -0.667,0 -1.333,0 -2,0 -1.114,-2.907 -2.781,-3.407 -5,-1.5 -4.884,1.141 -8.05,-0.692 -9.5,-5.5 0.753,-9.101 3.253,-17.768 7.5,-26 3.01,-5.384 3.676,-11.051 2,-17 0.579,-6.269 -1.088,-11.936 -5,-17 -3.216,-7.433 -6.716,-14.766 -10.5,-22 -1.126,-4.249 -1.792,-8.582 -2,-13 -4.675,-4.361 -6.342,-9.694 -5,-16 2.333,-3.667 4.667,-7.333 7,-11 0.966,-6.151 0.466,-12.151 -1.5,-18 -8.759,-3.261 -15.092,-9.095 -19,-17.5 -6.961,-0.027 -13.794,-0.86 -20.5,-2.5 -5.501,7.177 -12.668,12.01 -21.5,14.5 -3.465,4.467 -7.298,8.633 -11.5,12.5 -1.368,2.686 -2.701,5.353 -4,8 0.363,4.301 0.363,8.634 0,13 -0.901,2.571 -2.234,4.904 -4,7 -0.088,6.399 -1.254,12.566 -3.5,18.5 1.123,8.238 2.623,16.404 4.5,24.5 4.036,3.404 5.869,7.737 5.5,13 2.248,2.828 4.248,5.828 6,9 0,2.333 0,4.667 0,7 -1.008,2.528 -2.674,4.695 -5,6.5 -4.249,1.126 -8.582,1.792 -13,2 -10.024,6.707 -21.024,10.874 -33,12.5 -1.667,-0.167 -3.333,-0.333 -5,-0.5 -4.261,-2.48 -8.594,-4.814 -13,-7 -2.591,-2.357 -4.258,-5.191 -5,-8.5 0.703,-2.216 2.036,-4.049 4,-5.5 2.227,-0.941 4.227,-2.108 6,-3.5 7.638,-1.656 14.638,-4.656 21,-9 1.67,-0.251 3.17,-0.918 4.5,-2 0.999,-5.982 1.332,-11.982 1,-18 -1.667,-5.333 -3.333,-10.667 -5,-16 -2.941,-5.272 -6.274,-10.272 -10,-15 -1.671,-6.658 0.495,-11.658 6.5,-15 -6.162,-3.968 -8.329,-9.635 -6.5,-17 3.041,-5.374 7.541,-8.874 13.5,-10.5 7.776,-6.722 11.276,-15.222 10.5,-25.5 1.643,-2.477 3.476,-4.81 5.5,-7 -11.495,-15.712 -10.495,-30.546 3,-44.5 -10.698,-1.697 -17.198,-7.863 -19.5,-18.5 -1.278,-6.946 -0.112,-13.446 3.5,-19.5 -13.938,-12.277 -14.604,-25.444 -2,-39.5 -3.569,-3.651 -7.235,-3.817 -11,-0.5 -5.468,4.467 -10.635,9.3 -15.5,14.5 -0.898,4.295 -2.731,8.128 -5.5,11.5 -6.473,2.112 -12.473,5.112 -18,9 -17.97,1.029 -26.136,-7.471 -24.5,-25.5 1.907,-3.91 4.573,-7.244 8,-10 2.454,-20.239 10.787,-37.573 25,-52 -1.02,-12.044 -0.52,-24.044 1.5,-36 -20.875,-6.382 -37.709,-18.382 -50.5,-36 -10.534,-18.339 -12.867,-37.672 -7,-58 -2.967,-34.612 5.033,-66.279 24,-95 23.912,-28.041 54.412,-43.541 91.5,-46.5 32.316,-2.448 63.649,1.886 94,13 39.88,17.57 62.714,48.07 68.5,91.5 7.562,84.878 -30.938,132.544 -115.5,143 0.809,1.571 1.143,3.238 1,5 10.288,-1.435 20.621,-2.935 31,-4.5 12.977,-1.671 25.311,0.329 37,6 2.822,3.216 5.489,6.383 8,9.5 z"
       id="path10" />
  </g>
  <g
     id="g11">
    <path
       style="opacity:1"
       fill="#f8f8f8"
       d="m 589.5,631.5 c 3.818,9.508 3.985,19.175 0.5,29 -3.689,7.35 -9.522,12.184 -17.5,14.5 -2.546,3.59 -4.713,7.423 -6.5,11.5 -0.903,1.201 -2.069,2.035 -3.5,2.5 -4.911,1.492 -9.911,1.826 -15,1 -3.548,-1.604 -6.882,-3.437 -10,-5.5 -0.667,-1.667 -1.333,-3.333 -2,-5 0.17,-1.322 -0.163,-2.489 -1,-3.5 -9.673,-0.685 -19.339,-1.018 -29,-1 -4.333,3.667 -8.667,7.333 -13,11 -4.814,2.933 -9.648,3.1 -14.5,0.5 -0.383,0.556 -0.883,0.889 -1.5,1 -1.466,-0.847 -2.3,-2.18 -2.5,-4 -0.993,-3.942 -1.66,-7.942 -2,-12 -15.446,-9.743 -18.78,-22.743 -10,-39 11.63,-11.176 24.13,-12.009 37.5,-2.5 4.699,5.034 9.699,9.7 15,14 8.104,2.193 16.104,1.86 24,-1 5.491,-4.246 11.158,-8.246 17,-12 11.514,-6.147 22.847,-5.98 34,0.5 z"
       id="path11" />
  </g>
  <g
     id="g12">
    <path
       style="opacity:1"
       fill="#d4d4d5"
       d="m 489.5,639.5 c -3.598,-1.198 -7.264,-2.198 -11,-3 -5.567,0.734 -8.567,3.9 -9,9.5 0.306,3.415 1.306,6.582 3,9.5 -0.996,-0.086 -1.829,0.248 -2.5,1 -1.273,-3.653 -2.44,-7.319 -3.5,-11 1.462,-9.238 6.795,-12.738 16,-10.5 2.739,1.026 5.072,2.526 7,4.5 z"
       id="path12" />
  </g>
  <g
     id="g13">
    <path
       style="opacity:1"
       fill="#070708"
       d="m 562.5,641.5 c 7.657,-1.809 13.49,0.524 17.5,7 -0.874,12.547 -7.707,19.714 -20.5,21.5 -11.104,1.891 -15.938,-2.609 -14.5,-13.5 3.889,-7.397 9.722,-12.397 17.5,-15 z"
       id="path13" />
  </g>
  <g
     id="g14">
    <path
       style="opacity:1"
       fill="#070708"
       d="m 489.5,639.5 c 4.743,3.251 8.243,7.585 10.5,13 1.939,11.727 -2.894,16.227 -14.5,13.5 -5.39,-2.227 -9.724,-5.727 -13,-10.5 -1.694,-2.918 -2.694,-6.085 -3,-9.5 0.433,-5.6 3.433,-8.766 9,-9.5 3.736,0.802 7.402,1.802 11,3 z"
       id="path14" />
  </g>
  <g
     id="g15">
    <path
       style="opacity:1"
       fill="#eae8e7"
       d="m 515.5,630.5 c 8.292,3.941 16.625,3.941 25,0 2.623,2.375 2.289,4.541 -1,6.5 -6.661,3.232 -13.661,4.232 -21,3 -4.061,-2.099 -5.061,-5.265 -3,-9.5 z"
       id="path15" />
  </g>
  <g
     id="g16">
    <path
       style="opacity:1"
       fill="#e6e4e3"
       d="m 516.5,615.5 c 8.476,2.953 17.142,5.286 26,7 -1.241,2.441 -3.241,3.941 -6,4.5 -5.333,0.667 -10.667,0.667 -16,0 -4.916,-2.479 -6.249,-6.312 -4,-11.5 z"
       id="path16" />
  </g>
  <g
     id="g17">
    <path
       style="opacity:1"
       fill="#d2d2d1"
       d="m 490.5,593.5 c 1.55,4.596 0.717,8.929 -2.5,13 -7.205,9.521 -16.705,14.021 -28.5,13.5 -2.227,-0.941 -4.227,-2.108 -6,-3.5 17.911,1.855 30.245,-5.811 37,-23 z"
       id="path17" />
  </g>
  <g
     id="g18">
    <path
       style="opacity:1"
       fill="#d2d2d1"
       d="m 590.5,593.5 c 2.104,-0.299 4.104,0.034 6,1 -8.655,13.333 -20.988,20.499 -37,21.5 -17.538,2.532 -33.871,-0.801 -49,-10 -3.217,-1.715 -5.55,-4.215 -7,-7.5 13.825,8.274 28.825,12.941 45,14 15.721,0.641 29.221,-4.359 40.5,-15 0.791,-1.245 1.291,-2.578 1.5,-4 z"
       id="path18" />
  </g>
  <g
     id="g19">
    <path
       style="opacity:1"
       fill="#f4f4f3"
       d="m 495.5,602.5 c 1.699,-0.16 3.366,0.006 5,0.5 3.201,3.536 6.701,6.703 10.5,9.5 -1.109,4.965 -0.609,9.799 1.5,14.5 -1.091,1.762 -2.091,3.596 -3,5.5 -7.197,-7.936 -16.197,-12.769 -27,-14.5 5.99,-3.82 10.324,-8.987 13,-15.5 z"
       id="path19" />
  </g>
  <g
     id="g20">
    <path
       style="opacity:1"
       fill="#f7f7f7"
       d="m 451.5,588.5 c 3.213,-0.31 6.213,0.023 9,1 -2.779,3.519 -3.612,7.519 -2.5,12 1.182,1.857 2.849,2.857 5,3 2.54,-0.685 5.04,-1.519 7.5,-2.5 4.333,-3.667 8.667,-7.333 13,-11 3.114,-1.087 5.447,-0.254 7,2.5 -6.755,17.189 -19.089,24.855 -37,23 -4.431,-4.112 -6.431,-9.278 -6,-15.5 -0.485,-4.837 0.848,-9.004 4,-12.5 z"
       id="path20" />
  </g>
  <g
     id="g21">
    <path
       style="opacity:1"
       fill="#cdcccd"
       d="m 565.5,590.5 c 1.929,-0.269 3.595,0.231 5,1.5 -5.751,2.606 -11.751,3.606 -18,3 3.377,-0.452 6.711,-1.118 10,-2 1.442,-0.377 2.442,-1.21 3,-2.5 z"
       id="path21" />
  </g>
  <g
     id="g22">
    <path
       style="opacity:1"
       fill="#e2e0dd"
       d="m 543.5,587.5 c 7.739,1.647 7.906,4.314 0.5,8 -1.882,-0.188 -3.048,-1.188 -3.5,-3 0.592,-1.923 1.592,-3.589 3,-5 z"
       id="path22" />
  </g>
  <g
     id="g23">
    <path
       style="opacity:1"
       fill="#f7f7f6"
       d="m 590.5,593.5 c -0.209,1.422 -0.709,2.755 -1.5,4 -11.279,10.641 -24.779,15.641 -40.5,15 -16.175,-1.059 -31.175,-5.726 -45,-14 -1.431,-5.528 0.569,-8.862 6,-10 9.7,4.349 19.7,7.849 30,10.5 10.485,1.133 20.818,0.467 31,-2 3.132,-1.635 6.132,-3.468 9,-5.5 3.491,1.594 7.158,2.261 11,2 z"
       id="path23" />
  </g>
  <g
     id="g24">
    <path
       style="opacity:1"
       fill="#767779"
       d="m 451.5,588.5 c 3.187,-1.306 6.52,-1.306 10,0 -0.124,0.607 -0.457,0.94 -1,1 -2.787,-0.977 -5.787,-1.31 -9,-1 z"
       id="path24" />
  </g>
  <g
     id="g25">
    <path
       style="opacity:1"
       fill="#d6d4d3"
       d="m 541.5,577.5 c 1.315,1.167 1.981,2.667 2,4.5 -1.584,2.592 -3.584,4.926 -6,7 -3.43,0.638 -4.763,-0.862 -4,-4.5 1.426,-3.76 4.093,-6.093 8,-7 z"
       id="path25" />
  </g>
  <g
     id="g26">
    <path
       style="opacity:1"
       fill="#eae9e7"
       d="m 528.5,584.5 c 0.667,0 1,0.333 1,1 0.049,2.599 1.049,4.766 3,6.5 -0.333,0.167 -0.667,0.333 -1,0.5 -5.743,-2.411 -11.409,-4.911 -17,-7.5 4.655,-0.499 9.321,-0.666 14,-0.5 z"
       id="path26" />
  </g>
  <g
     id="g27">
    <path
       style="opacity:1"
       fill="#efefee"
       d="m 630.5,576.5 c 0.997,-0.03 1.664,0.47 2,1.5 -0.583,2.499 -1.916,4.499 -4,6 -16.325,6 -32.991,7 -50,3 -2.279,-0.473 -4.279,-1.473 -6,-3 3.315,-0.991 6.315,-2.491 9,-4.5 12.595,3.194 24.928,2.528 37,-2 3.631,1.015 7.298,1.181 11,0.5 0.556,-0.383 0.889,-0.883 1,-1.5 z"
       id="path27" />
  </g>
  <g
     id="g28">
    <path
       style="opacity:1"
       fill="#cdcdcd"
       d="m 481.5,568.5 c 0.253,2.327 -0.414,4.327 -2,6 -8.861,8.195 -18.861,10.528 -30,7 12.448,-0.036 23.115,-4.37 32,-13 z"
       id="path28" />
  </g>
  <g
     id="g29">
    <path
       style="opacity:1"
       fill="#777777"
       d="m 526.5,574.5 c 0,1.333 0,2.667 0,4 -1.915,0.284 -3.581,-0.049 -5,-1 1.333,0 2.667,0 4,0 -0.237,-1.291 0.096,-2.291 1,-3 z"
       id="path29" />
  </g>
  <g
     id="g30">
    <path
       style="opacity:1"
       fill="#f4f2f1"
       d="m 549.5,564.5 c 2.667,0 5.333,0 8,0 3.459,1.827 6.292,4.494 8.5,8 0.337,3.361 0.837,6.694 1.5,10 -0.029,1.529 -0.696,2.696 -2,3.5 -3.092,1.864 -6.426,3.031 -10,3.5 -2.927,-1.744 -5.761,-3.744 -8.5,-6 0.188,-3.732 -1.312,-6.566 -4.5,-8.5 1.288,-2.466 1.288,-4.966 0,-7.5 2.375,-1.16 4.708,-2.16 7,-3 z"
       id="path30" />
  </g>
  <g
     id="g31">
    <path
       style="opacity:1"
       fill="#e1e0de"
       d="m 537.5,575.5 c -2.35,1.361 -4.684,2.694 -7,4 -0.022,-6.612 2.978,-10.279 9,-11 1.644,3.103 0.977,5.436 -2,7 z"
       id="path31" />
  </g>
  <g
     id="g32">
    <path
       style="opacity:1"
       fill="#e5e5e6"
       d="m 376.5,554.5 c 2.969,4.604 5.469,9.604 7.5,15 3.456,4.257 7.956,6.09 13.5,5.5 -12.785,5.274 -20.451,1.107 -23,-12.5 0.09,-2.836 0.757,-5.503 2,-8 z"
       id="path32" />
  </g>
  <g
     id="g33">
    <path
       style="opacity:1"
       fill="#f5f4f3"
       d="m 567.5,560.5 c 3.281,1.352 6.781,2.019 10.5,2 13.787,-1.601 27.621,-2.267 41.5,-2 2.929,1.038 5.929,2.204 9,3.5 2.707,1.864 3.541,4.364 2.5,7.5 -3.257,2.928 -7.091,3.762 -11.5,2.5 -10.081,-3.173 -20.414,-4.173 -31,-3 -3.254,0.25 -6.254,1.25 -9,3 -7.123,8.174 -10.623,6.674 -10.5,-4.5 -1.892,-1.554 -3.392,-3.388 -4.5,-5.5 0.571,-1.599 1.571,-2.766 3,-3.5 z"
       id="path33" />
  </g>
  <g
     id="g34">
    <path
       style="opacity:1"
       fill="#e3e1e0"
       d="m 543.5,562.5 c -4,0.667 -5.667,-1 -5,-5 3.551,-0.473 6.884,0.693 10,3.5 -1.525,1.009 -3.192,1.509 -5,1.5 z"
       id="path34" />
  </g>
  <g
     id="g35">
    <path
       style="opacity:1"
       fill="#f3f2f2"
       d="m 535.5,563.5 c -1.333,1.333 -2.667,2.667 -4,4 -2.823,1.492 -4.49,3.826 -5,7 -0.904,0.709 -1.237,1.709 -1,3 -1.333,0 -2.667,0 -4,0 -7.487,0.088 -14.321,-1.912 -20.5,-6 -3.871,-5.941 -3.038,-11.107 2.5,-15.5 9.921,0.944 19.921,1.611 30,2 0.744,1.815 1.411,3.648 2,5.5 z"
       id="path35" />
  </g>
  <g
     id="g36">
    <path
       style="opacity:1"
       fill="#c3c3cb"
       d="m 593.5,554.5 c 1.837,0.139 2.17,0.806 1,2 -0.798,-0.457 -1.131,-1.124 -1,-2 z"
       id="path36" />
  </g>
  <g
     id="g37">
    <path
       style="opacity:1"
       fill="#d8d6d4"
       d="m 584.5,539.5 c 2.995,2.643 4.995,5.977 6,10 -0.483,5.715 -3.483,8.381 -9,8 3.838,-5.524 4.838,-11.524 3,-18 z"
       id="path37" />
  </g>
  <g
     id="g38">
    <path
       style="opacity:1"
       fill="#f6f6f7"
       d="m 481.5,568.5 c -8.885,8.63 -19.552,12.964 -32,13 -6.378,-2.578 -9.378,-7.412 -9,-14.5 0.581,-7.663 3.914,-13.829 10,-18.5 1.944,0.689 3.944,1.189 6,1.5 -4.529,3.484 -6.696,7.984 -6.5,13.5 2.841,2.004 6.007,2.504 9.5,1.5 5.382,-1.738 10.716,-3.572 16,-5.5 4.693,1.021 6.693,4.021 6,9 z"
       id="path38" />
  </g>
  <g
     id="g39">
    <path
       style="opacity:1"
       fill="#cfcdcc"
       d="m 428.5,533.5 c 1.823,2.613 3.323,5.28 4.5,8 -10.536,5.535 -17.869,13.868 -22,25 -1.858,2.912 -4.358,4.412 -7.5,4.5 7.392,-9.621 13.059,-20.121 17,-31.5 -0.228,1.855 0.439,2.688 2,2.5 3.064,-2.207 5.064,-5.041 6,-8.5 z"
       id="path39" />
  </g>
  <g
     id="g40">
    <path
       style="opacity:1"
       fill="#d7d6d4"
       d="m 388.5,566.5 c 4.934,-0.416 8.767,-2.75 11.5,-7 11.284,-16.183 17.117,-34.017 17.5,-53.5 -1.988,-0.18 -3.988,-0.014 -6,0.5 2.954,-3.835 6.121,-3.835 9.5,0 -0.654,22.297 -7.488,42.464 -20.5,60.5 -3.046,2.174 -6.38,2.841 -10,2 -0.881,-0.708 -1.547,-1.542 -2,-2.5 z"
       id="path40" />
  </g>
  <g
     id="g41">
    <path
       style="opacity:1"
       fill="#c3c3c3"
       d="m 477.5,539.5 c -2.491,3.912 -6.157,5.746 -11,5.5 -6.716,1.085 -13.05,0.252 -19,-2.5 5.896,-0.109 11.896,-0.275 18,-0.5 3.709,-0.633 7.209,-1.8 10.5,-3.5 0.383,0.556 0.883,0.889 1.5,1 z"
       id="path41" />
  </g>
  <g
     id="g42">
    <path
       style="opacity:1"
       fill="#d2d2d2"
       d="m 559.5,523.5 c 1.183,1.004 2.516,1.838 4,2.5 -19.777,11.611 -41.11,16.611 -64,15 -2.251,-0.748 -3.584,-2.248 -4,-4.5 1.755,0.572 3.422,1.406 5,2.5 20.256,1.186 39.256,-3.147 57,-13 0.881,-0.708 1.547,-1.542 2,-2.5 z"
       id="path42" />
  </g>
  <g
     id="g43">
    <path
       style="opacity:1"
       fill="#f3f3f2"
       d="m 584.5,539.5 c 1.838,6.476 0.838,12.476 -3,18 -3.333,0 -6.667,0 -10,0 -1.788,-1.122 -3.788,-1.289 -6,-0.5 -2.177,1.515 -4.344,3.015 -6.5,4.5 -1.138,-0.489 -2.305,-0.822 -3.5,-1 -1.808,-1.407 -3.808,-2.574 -6,-3.5 7.311,-1.662 14.311,-4.329 21,-8 5.925,-4.859 6.259,-9.859 1,-15 -7.753,-1.734 -7.92,-3.9 -0.5,-6.5 5.924,2.425 10.424,6.425 13.5,12 z"
       id="path43" />
  </g>
  <g
     id="g44">
    <path
       style="opacity:1"
       fill="#f3f3f4"
       d="m 477.5,539.5 c -0.617,-0.111 -1.117,-0.444 -1.5,-1 -3.291,1.7 -6.791,2.867 -10.5,3.5 -6.104,0.225 -12.104,0.391 -18,0.5 -13.21,-4.443 -18.043,-13.443 -14.5,-27 1.982,-3.646 4.649,-6.646 8,-9 -0.331,6.982 -0.331,13.982 0,21 1.962,6.312 6.128,8.812 12.5,7.5 5.225,-1.279 9.891,-3.612 14,-7 8.89,-0.946 12.223,2.888 10,11.5 z"
       id="path44" />
  </g>
  <g
     id="g45">
    <path
       style="opacity:1"
       fill="#f1f0f1"
       d="m 404.5,498.5 c 6.211,0.31 7.045,2.31 2.5,6 -1.13,3.81 -3.13,7.143 -6,10 -7.102,10.972 -10.769,22.972 -11,36 -2.35,2.183 -4.517,4.516 -6.5,7 -1.149,-22.552 5.851,-42.219 21,-59 z"
       id="path45" />
  </g>
  <g
     id="g46">
    <path
       style="opacity:1"
       fill="#ebebec"
       d="m 428.5,533.5 c -0.936,3.459 -2.936,6.293 -6,8.5 -1.561,0.188 -2.228,-0.645 -2,-2.5 3.047,-10.68 5.047,-21.513 6,-32.5 2.449,-3.089 4.782,-3.089 7,0 -7.143,7.775 -8.81,16.608 -5,26.5 z"
       id="path46" />
  </g>
  <g
     id="g47">
    <path
       style="opacity:1"
       fill="#8bb3b8"
       d="m 452.5,530.5 c 0.333,-1.333 0.667,-2.667 1,-4 1,-0.333 1.667,-1 2,-2 3.542,-2.601 7.542,-4.434 12,-5.5 1.307,-1.943 1.307,-3.777 0,-5.5 2.803,-3.09 4.803,-2.59 6,1.5 -5.194,7.599 -12.194,12.765 -21,15.5 z"
       id="path47" />
  </g>
  <g
     id="g48">
    <path
       style="opacity:1"
       fill="#dfdee0"
       d="m 404.5,516.5 c 2.109,5.803 0.276,10.136 -5.5,13 1.232,-4.478 3.065,-8.812 5.5,-13 z"
       id="path48" />
  </g>
  <g
     id="g49">
    <path
       style="opacity:1"
       fill="#f3f3f2"
       d="m 495.5,518.5 c 0.789,0.283 1.456,0.783 2,1.5 -1.833,1.833 -3.667,3.667 -5.5,5.5 -3.873,14.967 1.961,21.967 17.5,21 6.018,-0.38 12.018,-0.547 18,-0.5 1.286,2.022 2.286,4.189 3,6.5 -1.667,0.333 -3.333,0.667 -5,1 -6.162,-0.708 -12.329,-1.374 -18.5,-2 -5.811,-0.092 -9.811,2.575 -12,8 -2.186,11.318 2.314,17.985 13.5,20 1.468,1.279 2.135,2.946 2,5 -7.884,0.55 -12.217,4.883 -13,13 -0.843,-6.071 -4.177,-9.738 -10,-11 -0.265,-3.63 -1.598,-6.797 -4,-9.5 5.306,-9.255 3.473,-16.755 -5.5,-22.5 -0.667,-2.667 -0.667,-5.333 0,-8 4.197,-4.548 5.53,-9.881 4,-16 -1.977,-2.812 -4.144,-5.478 -6.5,-8 0.98,-1.481 2.147,-2.815 3.5,-4 5.575,0.69 11.075,0.69 16.5,0 z"
       id="path49" />
  </g>
  <g
     id="g50">
    <path
       style="opacity:1"
       fill="#f7f7f7"
       d="m 559.5,523.5 c -0.453,0.958 -1.119,1.792 -2,2.5 -17.744,9.853 -36.744,14.186 -57,13 -1.578,-1.094 -3.245,-1.928 -5,-2.5 -2.181,-7.977 0.819,-12.144 9,-12.5 6.752,4.365 14.085,6.031 22,5 1.581,-0.707 3.081,-1.54 4.5,-2.5 1.372,-3.118 2.538,-6.284 3.5,-9.5 6.744,-1.968 13.077,-4.801 19,-8.5 0.45,5.698 2.45,10.698 6,15 z"
       id="path50" />
  </g>
  <g
     id="g51">
    <path
       style="opacity:1"
       fill="#f7fafa"
       d="m 455.5,524.5 c -0.333,1 -1,1.667 -2,2 -3.725,-0.28 -4.892,-2.28 -3.5,-6 4.152,-1.992 5.985,-0.659 5.5,4 z"
       id="path51" />
  </g>
  <g
     id="g52">
    <path
       style="opacity:1"
       fill="#f8fbfa"
       d="m 525.5,513.5 c 1.333,2 1.333,4 0,6 -1.373,0.157 -2.707,-0.01 -4,-0.5 -1.318,-3.537 0.015,-5.371 4,-5.5 z"
       id="path52" />
  </g>
  <g
     id="g53">
    <path
       style="opacity:1"
       fill="#79a1a8"
       d="m 492.5,509.5 c -0.374,3.388 -2.374,5.222 -6,5.5 -3.642,1.07 -6.642,0.236 -9,-2.5 3.682,0.165 7.348,-10e-4 11,-0.5 0.971,-1.481 2.304,-2.315 4,-2.5 z"
       id="path53" />
  </g>
  <g
     id="g54">
    <path
       style="opacity:1"
       fill="#fbfcfd"
       d="m 509.5,507.5 c 4.659,-0.485 5.992,1.348 4,5.5 -4.772,0.81 -6.105,-1.023 -4,-5.5 z"
       id="path54" />
  </g>
  <g
     id="g55">
    <path
       style="opacity:1"
       fill="#f7f6f7"
       d="m 388.5,566.5 c -1.941,-1.511 -2.441,-3.511 -1.5,-6 7.902,-6.912 13.902,-15.245 18,-25 3.371,-9.561 5.537,-19.228 6.5,-29 2.012,-0.514 4.012,-0.68 6,-0.5 -0.383,19.483 -6.216,37.317 -17.5,53.5 -2.733,4.25 -6.566,6.584 -11.5,7 z"
       id="path55" />
  </g>
  <g
     id="g56">
    <path
       style="opacity:1"
       fill="#aed7dc"
       d="m 492.5,509.5 c -1.696,0.185 -3.029,1.019 -4,2.5 -3.652,0.499 -7.318,0.665 -11,0.5 -5.291,-12.863 -0.958,-18.03 13,-15.5 1.812,3.922 2.479,8.089 2,12.5 z"
       id="path56" />
  </g>
  <g
     id="g57">
    <path
       style="opacity:1"
       fill="#f6fcfc"
       d="m 478.5,499.5 c 4.828,-0.115 6.161,2.052 4,6.5 -4.709,0.082 -6.042,-2.085 -4,-6.5 z"
       id="path57" />
  </g>
  <g
     id="g58">
    <path
       style="opacity:1"
       fill="#acd4da"
       d="m 467.5,513.5 c 1.307,1.723 1.307,3.557 0,5.5 -4.458,1.066 -8.458,2.899 -12,5.5 0.485,-4.659 -1.348,-5.992 -5.5,-4 -1.392,3.72 -0.225,5.72 3.5,6 -0.333,1.333 -0.667,2.667 -1,4 -2.544,0.396 -4.711,-0.271 -6.5,-2 -0.333,-8.333 -0.667,-16.667 -1,-25 -3.476,-4.998 -4.143,-10.332 -2,-16 1.182,-1.857 2.849,-2.857 5,-3 9.308,2.568 17.475,7.068 24.5,13.5 -0.733,1.766 -1.067,3.599 -1,5.5 -14.285,-0.957 -14.619,0.709 -1,5 -2.333,1.5 -4.667,3 -7,4.5 1.293,0.49 2.627,0.657 4,0.5 z"
       id="path58" />
  </g>
  <g
     id="g59">
    <path
       style="opacity:1"
       fill="#fbfdfd"
       d="m 448.5,504.5 c 4.828,-0.115 6.161,2.052 4,6.5 -6.14,0.808 -7.473,-1.359 -4,-6.5 z"
       id="path59" />
  </g>
  <g
     id="g60">
    <path
       style="opacity:1"
       fill="#dbdadb"
       d="m 436.5,496.5 c 0.667,0.333 1.333,0.667 2,1 0.285,1.788 -0.048,3.455 -1,5 -2.239,-1.633 -2.572,-3.633 -1,-6 z"
       id="path60" />
  </g>
  <g
     id="g61">
    <path
       style="opacity:1"
       fill="#747377"
       d="m 438.5,497.5 c -0.667,-0.333 -1.333,-0.667 -2,-1 -0.131,-0.876 0.202,-1.543 1,-2 0.886,0.825 1.219,1.825 1,3 z"
       id="path61" />
  </g>
  <g
     id="g62">
    <path
       style="opacity:1"
       fill="#d5d4d4"
       d="m 428.5,486.5 c 2.718,4.505 2.385,9.005 -1,13.5 -4.409,2.207 -8.409,1.707 -12,-1.5 2.64,-0.027 5.307,-0.027 8,0 3.224,-3.337 4.891,-7.337 5,-12 z"
       id="path62" />
  </g>
  <g
     id="g63">
    <path
       style="opacity:1"
       fill="#f4f9f8"
       d="m 458.5,493.5 c 2.489,-0.202 4.823,0.298 7,1.5 1.77,5.061 0.103,6.561 -5,4.5 -1.586,-1.673 -2.253,-3.673 -2,-6 z"
       id="path63" />
  </g>
  <g
     id="g64">
    <path
       style="opacity:1"
       fill="#d4d6d7"
       d="m 479.5,488.5 c 5.285,0.735 10.618,1.235 16,1.5 -0.899,1.236 -2.066,2.07 -3.5,2.5 -3.847,-1.299 -7.68,-1.299 -11.5,0 -0.929,-1.189 -1.262,-2.522 -1,-4 z"
       id="path64" />
  </g>
  <g
     id="g65">
    <path
       style="opacity:1"
       fill="#d8dcdd"
       d="m 466.5,488.5 c 2.787,-0.977 5.787,-1.31 9,-1 0.269,1.929 -0.231,3.595 -1.5,5 -2.475,-1.486 -4.975,-2.819 -7.5,-4 z"
       id="path65" />
  </g>
  <g
     id="g66">
    <path
       style="opacity:1"
       fill="#f7fbfa"
       d="m 445.5,487.5 c 5.655,-0.175 6.988,1.991 4,6.5 -4.93,0.427 -6.263,-1.74 -4,-6.5 z"
       id="path66" />
  </g>
  <g
     id="g67">
    <path
       style="opacity:1"
       fill="#a5a4a8"
       d="m 439.5,483.5 c -0.891,2.109 -2.058,4.109 -3.5,6 -0.149,-2.696 1.018,-4.696 3.5,-6 z"
       id="path67" />
  </g>
  <g
     id="g68">
    <path
       style="opacity:1"
       fill="#eff7f9"
       d="m 522.5,486.5 c -1.784,-0.393 -3.45,-1.059 -5,-2 -0.658,-4.177 1.008,-5.677 5,-4.5 1.311,2.274 1.311,4.44 0,6.5 z"
       id="path68" />
  </g>
  <g
     id="g69">
    <path
       style="opacity:1"
       fill="#7e807f"
       d="m 473.5,480.5 c 0.904,0.709 1.237,1.709 1,3 -3.333,0 -6.667,0 -10,0 3.297,-0.39 6.297,-1.39 9,-3 z"
       id="path69" />
  </g>
  <g
     id="g70">
    <path
       style="opacity:1"
       fill="#aaa9aa"
       d="m 435.5,476.5 c 1.469,2.602 0.802,4.769 -2,6.5 -1.566,0.765 -2.899,0.598 -4,-0.5 1.553,-1.885 3.553,-2.885 6,-3 0,-1 0,-2 0,-3 z"
       id="path70" />
  </g>
  <g
     id="g71">
    <path
       style="opacity:1"
       fill="#f0f0f0"
       d="m 504.5,479.5 c -6.986,4.497 -14.652,5.997 -23,4.5 -1.641,-1.129 -2.641,-2.629 -3,-4.5 -0.149,-1.052 0.017,-2.052 0.5,-3 7.754,0.817 15.588,1.317 23.5,1.5 0.916,0.278 1.582,0.778 2,1.5 z"
       id="path71" />
  </g>
  <g
     id="g72">
    <path
       style="opacity:1"
       fill="#efeeee"
       d="m 435.5,476.5 c 0,1 0,2 0,3 -2.447,0.115 -4.447,1.115 -6,3 -5.412,-4.366 -4.412,-7.033 3,-8 1.53,0.14 2.53,0.807 3,2 z"
       id="path72" />
  </g>
  <g
     id="g73">
    <path
       style="opacity:1"
       fill="#f7f7f7"
       d="m 577.5,482.5 c 0.277,3.723 -1.39,6.056 -5,7 -13.292,-4.998 -26.959,-6.332 -41,-4 0.113,-2.549 -0.554,-4.882 -2,-7 12.197,-3.326 24.531,-3.826 37,-1.5 4.276,0.805 7.943,2.638 11,5.5 z"
       id="path73" />
  </g>
  <g
     id="g74">
    <path
       style="opacity:1"
       fill="#f4f4f4"
       d="m 428.5,486.5 c -0.109,4.663 -1.776,8.663 -5,12 -2.693,-0.027 -5.36,-0.027 -8,0 -2.618,-1.445 -5.118,-3.111 -7.5,-5 -1.186,-7.286 -1.686,-14.619 -1.5,-22 8.922,2.575 16.255,7.575 22,15 z"
       id="path74" />
  </g>
  <g
     id="g75">
    <path
       style="opacity:1"
       fill="#d2d2d1"
       d="m 504.5,479.5 c -0.418,-0.722 -1.084,-1.222 -2,-1.5 -7.912,-0.183 -15.746,-0.683 -23.5,-1.5 -0.483,0.948 -0.649,1.948 -0.5,3 -0.968,-2.107 -1.302,-4.441 -1,-7 9.315,-0.732 18.648,-1.066 28,-1 0.12,1.699 0.454,3.365 1,5 0.047,1.538 -0.62,2.538 -2,3 z"
       id="path75" />
  </g>
  <g
     id="g76">
    <path
       style="opacity:1"
       fill="#f5f4f4"
       d="m 473.5,480.5 c -2.703,1.61 -5.703,2.61 -9,3 -5.993,-0.053 -11.826,-1.053 -17.5,-3 -2.787,0.289 -5.287,1.289 -7.5,3 2.403,-5.969 0.737,-10.303 -5,-13 -1.083,-0.865 -1.249,-1.865 -0.5,-3 12.585,3.26 25.418,4.593 38.5,4 0.008,3.045 0.341,6.045 1,9 z"
       id="path76" />
  </g>
  <g
     id="g77">
    <path
       style="opacity:1"
       fill="#e6e4e1"
       d="m 421.5,466.5 c 3.385,-0.71 5.719,0.456 7,3.5 -1.829,1.995 -3.829,3.828 -6,5.5 -2.254,-0.624 -3.921,-1.957 -5,-4 1.357,-1.686 2.69,-3.352 4,-5 z"
       id="path77" />
  </g>
  <g
     id="g78">
    <path
       style="opacity:1"
       fill="#e7e5e5"
       d="m 413.5,448.5 c 1.517,0.011 2.684,0.677 3.5,2 0.692,5.391 0.359,10.725 -1,16 -0.833,1 -1.667,2 -2.5,3 -1.909,-0.848 -3.909,-1.182 -6,-1 0.152,-7.288 2.152,-13.955 6,-20 z"
       id="path78" />
  </g>
  <g
     id="g79">
    <path
       style="opacity:1"
       fill="#cfcece"
       d="m 403.5,303.5 c -7.848,-3.316 -15.182,-2.482 -22,2.5 -13.566,13.368 -18.733,29.535 -15.5,48.5 0.526,3.411 1.359,6.745 2.5,10 -1.019,2.011 -2.019,4.011 -3,6 -5.282,-9.534 -8.115,-19.867 -8.5,-31 -0.915,-0.828 -1.581,-1.828 -2,-3 -1.111,9.076 -1.944,18.076 -2.5,27 -0.166,-9.339 0,-18.673 0.5,-28 0.186,-2.536 0.686,-4.869 1.5,-7 -0.163,2.357 0.003,4.69 0.5,7 1.074,-1.118 2.24,-2.118 3.5,-3 2.424,-15.905 10.757,-27.405 25,-34.5 7.628,-1.262 14.295,0.571 20,5.5 z"
       id="path79" />
  </g>
  <g
     id="g80">
    <path
       style="opacity:1"
       fill="#d1d1d0"
       d="m 589.5,265.5 c 14.066,13.784 23.232,30.451 27.5,50 14.679,90.52 -23.487,140.354 -114.5,149.5 -16.667,0.667 -33.333,0.667 -50,0 -10.415,-0.848 -20.415,-3.014 -30,-6.5 31.41,2.209 62.41,-0.624 93,-8.5 47.528,-13.196 76.028,-44.029 85.5,-92.5 7.268,-32.134 3.434,-62.801 -11.5,-92 z"
       id="path80" />
  </g>
  <g
     id="g81">
    <path
       style="opacity:1"
       fill="#030303"
       d="m 403.5,303.5 c 14.075,12.263 18.575,27.597 13.5,46 -2.131,6.481 -4.298,12.481 -6.5,18 -9.803,-2.873 -19.803,-3.706 -30,-2.5 -5.032,1.854 -10.032,3.687 -15,5.5 0.981,-1.989 1.981,-3.989 3,-6 -1.141,-3.255 -1.974,-6.589 -2.5,-10 -3.233,-18.965 1.934,-35.132 15.5,-48.5 6.818,-4.982 14.152,-5.816 22,-2.5 z"
       id="path81" />
  </g>
  <g
     id="g82">
    <path
       style="opacity:1"
       fill="#fcfcfb"
       d="m 589.5,265.5 c 14.934,29.199 18.768,59.866 11.5,92 -9.472,48.471 -37.972,79.304 -85.5,92.5 -30.59,7.876 -61.59,10.709 -93,8.5 1.475,-9.006 -2.192,-13.506 -11,-13.5 -2.117,1.731 -3.617,3.898 -4.5,6.5 -0.725,0.559 -1.558,0.892 -2.5,1 -19.056,-6.568 -34.556,-17.901 -46.5,-34 -9.052,-17.582 -10.885,-35.915 -5.5,-55 0.556,-8.924 1.389,-17.924 2.5,-27 0.419,1.172 1.085,2.172 2,3 0.385,11.133 3.218,21.466 8.5,31 4.968,-1.813 9.968,-3.646 15,-5.5 10.197,-1.206 20.197,-0.373 30,2.5 2.202,-5.519 4.369,-11.519 6.5,-18 5.075,-18.403 0.575,-33.737 -13.5,-46 -5.705,-4.929 -12.372,-6.762 -20,-5.5 -14.243,7.095 -22.576,18.595 -25,34.5 -1.26,0.882 -2.426,1.882 -3.5,3 -0.497,-2.31 -0.663,-4.643 -0.5,-7 6.564,-47.396 32.564,-78.563 78,-93.5 40.918,-10.212 81.251,-8.212 121,6 13.822,5.684 25.822,13.851 36,24.5 z"
       id="path82" />
  </g>
  <g
     id="g83">
    <path
       style="opacity:1"
       fill="#080707"
       d="m 426.5,396.5 c 7.008,-0.166 14.008,0 21,0.5 17.879,2.592 23.046,12.092 15.5,28.5 -6.759,7.82 -15.259,10.653 -25.5,8.5 -11.924,-4.081 -18.924,-12.248 -21,-24.5 0.343,-6.672 3.676,-11.005 10,-13 z"
       id="path83" />
  </g>
  <g
     id="g84">
    <path
       style="opacity:1"
       fill="#e55f52"
       d="m 449.5,414.5 c 4,0 8,0 12,0 -1.698,9.891 -7.698,15.225 -18,16 -4.188,-0.171 -7.855,-1.505 -11,-4 4.538,-5.755 10.205,-9.755 17,-12 z"
       id="path84" />
  </g>
  <g
     id="g85">
    <path
       style="opacity:1"
       fill="#080909"
       d="m 432.5,357.5 c 2.489,-0.202 4.823,0.298 7,1.5 4.751,4.673 8.084,10.173 10,16.5 -0.406,5.04 -3.072,6.874 -8,5.5 -2.545,-2.376 -4.878,-4.876 -7,-7.5 -2.19,2.024 -4.523,3.857 -7,5.5 -5.492,0.486 -7.325,-2.014 -5.5,-7.5 2.317,-5.669 5.817,-10.336 10.5,-14 z"
       id="path85" />
  </g>
  <g
     id="g86">
    <path
       style="opacity:1"
       fill="#cececd"
       d="m 527.5,305.5 c -27.462,-8.338 -44.628,1.662 -51.5,30 -1.354,10.511 -0.188,20.677 3.5,30.5 -2.251,0.748 -3.584,2.248 -4,4.5 -6.107,-8.388 -8.774,-17.888 -8,-28.5 0.247,-21.843 10.58,-36.509 31,-44 9.841,-1.138 19.175,0.529 28,5 0.752,0.671 1.086,1.504 1,2.5 z"
       id="path86" />
  </g>
  <g
     id="g87">
    <path
       style="opacity:1"
       fill="#020202"
       d="m 527.5,305.5 c 16.786,12.179 22.62,28.512 17.5,49 -1.386,8.106 -4.886,15.106 -10.5,21 2.668,1.015 3.334,2.682 2,5 -18.962,-12.105 -39.296,-15.438 -61,-10 0.416,-2.252 1.749,-3.752 4,-4.5 -3.688,-9.823 -4.854,-19.989 -3.5,-30.5 6.872,-28.338 24.038,-38.338 51.5,-30 z"
       id="path87" />
  </g>
  <g
     id="g88">
    <path
       style="opacity:1"
       fill="#d2d2d2"
       d="m 589.5,631.5 c 8.08,6.404 10.914,14.738 8.5,25 -2.694,12.691 -10.528,19.858 -23.5,21.5 -2.938,2.898 -4.771,6.398 -5.5,10.5 -7.488,7.926 -15.988,9.093 -25.5,3.5 -2.594,-2.086 -4.594,-4.586 -6,-7.5 3.118,2.063 6.452,3.896 10,5.5 5.089,0.826 10.089,0.492 15,-1 1.431,-0.465 2.597,-1.299 3.5,-2.5 1.787,-4.077 3.954,-7.91 6.5,-11.5 7.978,-2.316 13.811,-7.15 17.5,-14.5 3.485,-9.825 3.318,-19.492 -0.5,-29 z"
       id="path88" />
  </g>
  <g
     id="g89">
    <path
       style="opacity:1"
       fill="#d1d1d0"
       d="m 535.5,679.5 c -8.358,-0.522 -16.691,-1.522 -25,-3 -1,0.167 -2,0.333 -3,0.5 -6.569,10.285 -15.903,14.618 -28,13 -1.442,-0.377 -2.442,-1.21 -3,-2.5 0.617,-0.111 1.117,-0.444 1.5,-1 4.852,2.6 9.686,2.433 14.5,-0.5 4.333,-3.667 8.667,-7.333 13,-11 9.661,-0.018 19.327,0.315 29,1 0.837,1.011 1.17,2.178 1,3.5 z"
       id="path89" />
  </g>
  <g
     id="g90">
    <path
       style="opacity:1"
       fill="#f9f9f9"
       d="m 461.5,674.5 c 1,0 2,0 3,0 -0.271,8.517 2.063,16.184 7,23 -2.754,5.177 -5.254,10.51 -7.5,16 -0.333,5 -0.667,10 -1,15 -1.388,1.054 -2.888,1.22 -4.5,0.5 -1.727,-3.393 -4.394,-5.726 -8,-7 -5.111,-0.233 -10.111,-0.4 -15,-0.5 -1.314,-8.892 2.686,-14.058 12,-15.5 7.845,-7.86 11.679,-17.36 11.5,-28.5 1.045,-0.873 1.878,-1.873 2.5,-3 z"
       id="path90" />
  </g>
  <g
     id="g91">
    <path
       style="opacity:1"
       fill="#fafafa"
       d="m 562.5,781.5 c -0.461,2.05 -1.128,4.05 -2,6 0.333,0.667 0.667,1.333 1,2 -5.013,0.479 -9.846,1.479 -14.5,3 -3.879,-0.455 -7.712,-0.455 -11.5,0 -3.534,-0.631 -7.034,-1.298 -10.5,-2 -14.367,1.158 -28.867,1.158 -43.5,0 -2.014,-0.063 -3.681,0.603 -5,2 0.369,-5.263 -1.464,-9.596 -5.5,-13 -1.877,-8.096 -3.377,-16.262 -4.5,-24.5 2.246,-5.934 3.412,-12.101 3.5,-18.5 1.766,-2.096 3.099,-4.429 4,-7 0.363,-4.366 0.363,-8.699 0,-13 1.299,-2.647 2.632,-5.314 4,-8 4.202,-3.867 8.035,-8.033 11.5,-12.5 8.832,-2.49 15.999,-7.323 21.5,-14.5 6.706,1.64 13.539,2.473 20.5,2.5 3.908,8.405 10.241,14.239 19,17.5 1.966,5.849 2.466,11.849 1.5,18 -2.333,3.667 -4.667,7.333 -7,11 -1.342,6.306 0.325,11.639 5,16 0.208,4.418 0.874,8.751 2,13 3.784,7.234 7.284,14.567 10.5,22 z"
       id="path91" />
  </g>
  <g
     id="g92">
    <path
       style="opacity:1"
       fill="#f8f8f8"
       d="m 554.5,742.5 c -3.029,-1.55 -4.696,-4.05 -5,-7.5 2.503,-5.169 5.003,-10.335 7.5,-15.5 0.499,-4.655 0.666,-9.321 0.5,-14 8.154,-1.415 14.821,-5.415 20,-12 1.059,3.345 0.892,6.678 -0.5,10 -0.667,7.667 -0.667,15.333 0,23 1.314,3.124 2.48,6.291 3.5,9.5 0.061,1.711 -0.606,3.044 -2,4 -5.195,-1.25 -10.528,-1.583 -16,-1 -2.532,1.456 -5.199,2.623 -8,3.5 z"
       id="path92" />
  </g>
  <g
     id="g93">
    <path
       style="opacity:1"
       fill="#d2d2d2"
       d="m 435.5,721.5 c 4.889,0.1 9.889,0.267 15,0.5 3.606,1.274 6.273,3.607 8,7 1.612,0.72 3.112,0.554 4.5,-0.5 0.333,-5 0.667,-10 1,-15 2.246,-5.49 4.746,-10.823 7.5,-16 -4.937,-6.816 -7.271,-14.483 -7,-23 -1,0 -2,0 -3,0 1.921,-2.606 3.921,-2.606 6,0 -0.701,7.939 1.965,14.439 8,19.5 2.544,1.092 5.211,1.759 8,2 -5.635,4.629 -10.135,10.129 -13.5,16.5 -0.659,6.021 -1.325,12.021 -2,18 -2.317,2.597 -5.15,3.43 -8.5,2.5 -3.309,-2.636 -6.642,-5.303 -10,-8 -4,-0.333 -8,-0.667 -12,-1 -0.881,-0.708 -1.547,-1.542 -2,-2.5 z"
       id="path93" />
  </g>
  <g
     id="g94">
    <path
       style="opacity:1"
       fill="#d2d2d1"
       d="m 554.5,742.5 c 2.801,-0.877 5.468,-2.044 8,-3.5 5.472,-0.583 10.805,-0.25 16,1 1.394,-0.956 2.061,-2.289 2,-4 -1.02,-3.209 -2.186,-6.376 -3.5,-9.5 -0.667,-7.667 -0.667,-15.333 0,-23 1.392,-3.322 1.559,-6.655 0.5,-10 -5.179,6.585 -11.846,10.585 -20,12 -0.839,-1.141 -1.506,-2.474 -2,-4 11.513,-1.012 18.513,-7.178 21,-18.5 9.473,-0.648 12.973,3.852 10.5,13.5 -4.31,5.445 -6.477,11.612 -6.5,18.5 -0.556,6.333 1.278,11.833 5.5,16.5 0.837,3.795 0.504,7.461 -1,11 -1.47,1.652 -3.303,2.652 -5.5,3 -3.635,-2.066 -7.468,-3.733 -11.5,-5 -2.321,0.409 -4.487,1.243 -6.5,2.5 -2.539,0.796 -4.872,0.629 -7,-0.5 z"
       id="path94" />
  </g>
  <g
     id="g95">
    <path
       style="opacity:1"
       fill="#f7f7f7"
       d="m 458.5,738.5 c 0.802,7.922 1.302,15.922 1.5,24 2.005,9.678 3.839,19.344 5.5,29 -3.542,-0.313 -6.875,0.021 -10,1 -2.436,1.517 -4.602,1.184 -6.5,-1 0.445,-3.605 0.945,-7.272 1.5,-11 -1.243,-8.232 -3.409,-16.232 -6.5,-24 -1.933,-4.198 -4.599,-7.865 -8,-11 -1.422,-2.53 -1.755,-5.197 -1,-8 0.804,-1.304 1.971,-1.971 3.5,-2 4.69,2.578 9.357,2.578 14,0 2.034,1.059 4.034,2.059 6,3 z"
       id="path95" />
  </g>
  <g
     id="g96">
    <path
       style="opacity:1"
       fill="#cccbcb"
       d="m 585.5,793.5 c -1.758,-1.641 -3.258,-3.641 -4.5,-6 -4.944,-11.507 -6.777,-23.507 -5.5,-36 -6.349,0.321 -12.682,0.487 -19,0.5 0.752,-0.671 1.086,-1.504 1,-2.5 1.599,0.268 2.932,-0.066 4,-1 5.352,-3.121 10.185,-2.454 14.5,2 -0.031,15.064 3.135,29.398 9.5,43 z"
       id="path96" />
  </g>
  <g
     id="g97">
    <path
       style="opacity:1"
       fill="#7d7b7c"
       d="m 561.5,748.5 c -1.068,0.934 -2.401,1.268 -4,1 -1.676,0.683 -2.343,2.017 -2,4 -0.951,-1.419 -1.284,-3.085 -1,-5 2.333,0 4.667,0 7,0 z"
       id="path97" />
  </g>
  <g
     id="g98">
    <path
       style="opacity:1"
       fill="#f7f7f6"
       d="m 557.5,749.5 c 0.086,0.996 -0.248,1.829 -1,2.5 6.318,-0.013 12.651,-0.179 19,-0.5 -1.277,12.493 0.556,24.493 5.5,36 1.242,2.359 2.742,4.359 4.5,6 3.592,1.243 4.425,0.243 2.5,-3 0.626,-13.323 -1.54,-26.156 -6.5,-38.5 0.509,-1.169 1.342,-2.002 2.5,-2.5 3.373,5.145 5.373,10.811 6,17 0.333,8.667 0.667,17.333 1,26 0.717,0.544 1.217,1.211 1.5,2 0.16,1.699 -0.006,3.366 -0.5,5 -5.993,4.958 -12.493,5.958 -19.5,3 0.325,-5.099 -0.175,-10.099 -1.5,-15 -4.139,-9.612 -8.806,-18.946 -14,-28 -0.813,-1.936 -1.313,-3.936 -1.5,-6 -0.343,-1.983 0.324,-3.317 2,-4 z"
       id="path98" />
  </g>
  <g
     id="g99">
    <path
       style="opacity:1"
       fill="#cac9c9"
       d="m 458.5,738.5 c 2,0 4,0 6,0 0.411,3.963 -0.422,7.63 -2.5,11 0.024,10.135 1.358,20.135 4,30 0.93,2.862 2.597,5.195 5,7 1.167,6.833 -1.667,9.667 -8.5,8.5 -1.941,-1.903 -4.274,-2.736 -7,-2.5 3.125,-0.979 6.458,-1.313 10,-1 -1.661,-9.656 -3.495,-19.322 -5.5,-29 -0.198,-8.078 -0.698,-16.078 -1.5,-24 z"
       id="path99" />
  </g>
  <g
     id="g100">
    <path
       style="opacity:1"
       fill="#ebeceb"
       d="m 562.5,781.5 c 3.912,5.064 5.579,10.731 5,17 -0.79,1.109 -1.29,2.442 -1.5,4 -0.333,-2 -0.667,-4 -1,-6 -6.486,0.483 -13.153,1.15 -20,2 -11.496,-1.045 -22.496,-2.045 -33,-3 -8.471,0.651 -16.971,1.484 -25.5,2.5 -1.85,0.69 -3.184,1.856 -4,3.5 -1.752,-3.172 -3.752,-6.172 -6,-9 1.319,-1.397 2.986,-2.063 5,-2 14.633,1.158 29.133,1.158 43.5,0 3.466,0.702 6.966,1.369 10.5,2 3.788,-0.455 7.621,-0.455 11.5,0 4.654,-1.521 9.487,-2.521 14.5,-3 -0.333,-0.667 -0.667,-1.333 -1,-2 0.872,-1.95 1.539,-3.95 2,-6 z"
       id="path100" />
  </g>
  <g
     id="g101">
    <path
       style="opacity:1"
       fill="#f9f8f5"
       d="m 471.5,798.5 c 2.39,0.185 3.39,1.518 3,4 0.014,2.093 -0.652,3.926 -2,5.5 -3.614,0.945 -7.281,1.612 -11,2 -5.235,2.785 -10.568,5.285 -16,7.5 -0.453,-0.958 -1.119,-1.792 -2,-2.5 -4.884,-2.371 -9.884,-4.537 -15,-6.5 -1.211,-0.774 -1.211,-1.607 0,-2.5 6.527,-2.513 12.693,-5.68 18.5,-9.5 2.944,2.22 6.111,2.554 9.5,1 4.863,3.38 9.863,3.713 15,1 z"
       id="path101" />
  </g>
  <g
     id="g102">
    <path
       style="opacity:1"
       fill="#d8d9d9"
       d="m 567.5,798.5 c 1.676,5.949 1.01,11.616 -2,17 -0.749,-1.031 -1.415,-2.198 -2,-3.5 1.017,-1.049 1.184,-2.216 0.5,-3.5 -0.419,1.172 -1.085,2.172 -2,3 -1.667,-1.333 -3.333,-1.333 -5,0 -2.705,-3.401 -5.372,-3.067 -8,1 -1.154,-1.243 -2.488,-2.243 -4,-3 -0.626,2.491 -1.459,2.491 -2.5,0 -0.751,0.876 -1.251,1.876 -1.5,3 -2.064,-3.538 -4.564,-4.205 -7.5,-2 -1.342,-1.402 -2.176,-1.069 -2.5,1 -0.308,-0.808 -0.808,-1.475 -1.5,-2 -1.22,1.211 -2.387,1.211 -3.5,0 -0.333,1 -0.667,2 -1,3 -1.008,-0.482 -2.175,-0.648 -3.5,-0.5 1.104,-1.131 0.771,-1.965 -1,-2.5 -2.103,3.878 -4.27,3.878 -6.5,0 -2.124,0.727 -4.291,1.394 -6.5,2 -0.978,-0.477 -1.811,-1.143 -2.5,-2 -1.38,2.558 -2.88,2.558 -4.5,0 -1.598,2.473 -3.098,2.473 -4.5,0 -0.308,0.808 -0.808,1.475 -1.5,2 -1.406,-0.927 -2.906,-1.927 -4.5,-3 -2.096,1.766 -4.429,3.099 -7,4 -0.49,-1.293 -0.657,-2.627 -0.5,-4 0,-2.333 0,-4.667 0,-7 0.816,-1.644 2.15,-2.81 4,-3.5 8.529,-1.016 17.029,-1.849 25.5,-2.5 10.504,0.955 21.504,1.955 33,3 6.847,-0.85 13.514,-1.517 20,-2 0.333,2 0.667,4 1,6 0.21,-1.558 0.71,-2.891 1.5,-4 z"
       id="path102" />
  </g>
  <g
     id="g103">
    <path
       style="opacity:1"
       fill="#c3c1c1"
       d="m 592.5,794.5 c 2.145,4.712 0.811,8.212 -4,10.5 -3.906,1.434 -7.906,1.767 -12,1 -1.824,-0.66 -3.157,-1.827 -4,-3.5 7.007,2.958 13.507,1.958 19.5,-3 0.494,-1.634 0.66,-3.301 0.5,-5 z"
       id="path103" />
  </g>
  <g
     id="g104">
    <path
       style="opacity:1"
       fill="#ebecec"
       d="m 439.5,795.5 c -6.362,4.344 -13.362,7.344 -21,9 -3.248,-0.401 -6.415,-1.068 -9.5,-2 -2.287,0.974 -4.287,2.307 -6,4 -1.085,-2.157 -2.251,-2.324 -3.5,-0.5 -15.221,2.56 -29.554,7.727 -43,15.5 -1.005,3.056 -3.005,5.889 -6,8.5 3.207,4.094 7.04,7.594 11.5,10.5 0.333,-0.333 0.667,-0.667 1,-1 1.093,1.849 2.426,3.516 4,5 0.333,-0.333 0.667,-0.667 1,-1 4.924,1.84 9.591,4.173 14,7 0.725,-0.559 1.558,-0.892 2.5,-1 7.611,1.975 15.277,3.642 23,5 1.272,-0.07 2.438,-0.403 3.5,-1 2.56,1.791 5.393,2.957 8.5,3.5 14.53,0.836 29.03,2.336 43.5,4.5 3.693,-0.779 7.36,-0.446 11,1 6.973,-0.279 13.973,-0.612 21,-1 1.473,0.403 2.806,1.07 4,2 1.333,-1.333 2.667,-1.333 4,0 1.851,-2.281 3.518,-2.281 5,0 4.912,-0.797 10.246,-0.797 16,0 2.607,-0.77 5.273,-1.437 8,-2 4.075,0.775 8.241,1.108 12.5,1 3.364,-2.03 6.531,-2.03 9.5,0 1.396,-2.027 3.062,-2.36 5,-1 6.419,-0.813 12.919,-1.313 19.5,-1.5 2.406,-0.306 4.573,-1.139 6.5,-2.5 2.651,1.584 4.984,1.251 7,-1 4.836,1.471 9.503,0.471 14,-3 3.696,0.203 7.363,0.203 11,0 9.556,-2.483 18.723,-5.317 27.5,-8.5 5.306,-3.97 10.306,-8.97 15,-15 -1.134,-1.016 -0.801,-1.683 1,-2 -1.6,-1.608 -2.933,-3.441 -4,-5.5 -2.302,-1.302 -4.302,-2.968 -6,-5 -1.22,-1.211 -2.387,-1.211 -3.5,0 -5.796,-2.954 -11.63,-5.788 -17.5,-8.5 -9.983,-1.499 -19.983,-2.665 -30,-3.5 -2.272,-2.308 -2.606,-4.975 -1,-8 0.722,0.418 1.222,1.084 1.5,2 2.632,0.207 4.965,-0.126 7,-1 3.561,1.805 7.394,3.139 11.5,4 0.793,-0.431 1.627,-0.765 2.5,-1 10.568,3.055 21.068,6.389 31.5,10 5.865,3.302 11.532,6.802 17,10.5 -0.667,0.333 -1.333,0.667 -2,1 1.481,0.98 2.815,2.147 4,3.5 0.39,3.267 -0.11,6.601 -1.5,10 -4.474,2.849 -8.641,6.016 -12.5,9.5 -4.828,1.158 -9.328,2.992 -13.5,5.5 -0.333,-0.333 -0.667,-0.667 -1,-1 -3.659,1.887 -7.492,3.387 -11.5,4.5 -29.313,6.635 -58.48,10.801 -87.5,12.5 -3,-0.333 -6,-0.667 -9,-1 -13.142,0.978 -26.142,1.644 -39,2 -13.198,-1.436 -26.365,-2.436 -39.5,-3 -3.97,1.137 -8.136,0.803 -12.5,-1 -26.195,-1.493 -52.028,-6.16 -77.5,-14 -7.882,-2.955 -15.549,-7.122 -23,-12.5 -1.243,-1.154 -2.243,-2.488 -3,-4 1.333,-2 1.333,-4 0,-6 0.789,-2.365 1.956,-4.532 3.5,-6.5 1.011,-0.837 2.178,-1.17 3.5,-1 0,-1 0,-2 0,-3 7.913,-4.089 16.246,-7.422 25,-10 0.586,0.209 1.086,0.543 1.5,1 1.154,-1.243 2.488,-2.243 4,-3 2,0 4,0 6,0 1.314,-0.813 2.481,-1.813 3.5,-3 0.586,0.209 1.086,0.543 1.5,1 2.961,-0.69 5.794,-1.69 8.5,-3 0.942,0.108 1.775,0.441 2.5,1 1.833,-1.167 3.667,-2.333 5.5,-3.5 11.308,-2.426 22.641,-3.26 34,-2.5 z"
       id="path104" />
  </g>
  <g
     id="g105">
    <path
       style="opacity:1"
       fill="#e0e1e2"
       d="m 418.5,804.5 c -1.773,1.392 -3.773,2.559 -6,3.5 -1.964,1.451 -3.297,3.284 -4,5.5 -0.722,0.418 -1.222,1.084 -1.5,2 -1.797,-1.656 -3.964,-2.656 -6.5,-3 -4.311,1.302 -8.477,2.969 -12.5,5 -1.765,0.739 -3.765,0.739 -6,0 -0.928,2.535 -2.762,3.535 -5.5,3 0.214,1.644 -0.12,3.144 -1,4.5 -0.949,0.617 -1.782,0.451 -2.5,-0.5 -0.626,2.491 -1.459,2.491 -2.5,0 -0.808,0.308 -1.475,0.808 -2,1.5 2.926,1.012 3.76,2.845 2.5,5.5 0.333,-0.333 0.667,-0.667 1,-1 3.22,3.217 6.054,6.717 8.5,10.5 4.4,1.349 8.733,2.849 13,4.5 2.144,-1.453 3.977,-1.12 5.5,1 0.893,-0.581 1.893,-0.915 3,-1 5.153,1.413 10.32,2.747 15.5,4 3.293,-1.469 6.127,-0.802 8.5,2 1.667,-1.333 3.333,-1.333 5,0 0.333,-0.667 0.667,-1.333 1,-2 2.46,2.928 5.46,3.595 9,2 8.858,1.748 17.691,2.748 26.5,3 1.288,-1.975 2.955,-1.975 5,0 1.882,-0.593 3.715,-1.26 5.5,-2 2.856,2.328 6.023,2.661 9.5,1 3.288,2.471 6.621,2.471 10,0 2.589,1.657 5.256,1.991 8,1 0.692,0.525 1.192,1.192 1.5,2 2,-1.333 4,-1.333 6,0 0.333,-0.667 0.667,-1.333 1,-2 1.566,-0.561 2.899,0.106 4,2 3.118,-0.897 6.118,-0.897 9,0 2.112,-0.723 4.112,-1.723 6,-3 7.611,0.722 15.111,1.055 22.5,1 1,-0.667 2,-1.333 3,-2 4.563,-0.562 8.896,-0.562 13,0 2.201,-1.556 2.201,-2.723 0,-3.5 0.228,-0.399 0.562,-0.565 1,-0.5 0.667,0 1.333,0 2,0 0.763,0.768 1.763,1.268 3,1.5 -0.457,0.414 -0.791,0.914 -1,1.5 1.5,0.333 3,0.667 4.5,1 1.981,-0.129 3.647,-0.796 5,-2 2.333,0.333 4.667,0.667 7,1 1.734,-0.749 3.567,-1.249 5.5,-1.5 -1.17,-1.755 -2.837,-2.755 -5,-3 3.213,-0.703 6.379,-0.536 9.5,0.5 2.182,-2.256 4.515,-2.256 7,0 2.528,-3.085 4.362,-3.419 5.5,-1 1.913,-0.873 3.747,-1.873 5.5,-3 0.414,0.457 0.914,0.791 1.5,1 4.013,-1.903 8.013,-3.737 12,-5.5 -0.333,-0.333 -0.667,-0.667 -1,-1 3.832,-1.79 7.499,-3.123 11,-4 -2.667,-0.667 -2.667,-1.333 0,-2 -0.714,-1.343 -0.38,-2.676 1,-4 -1.555,-1.646 -3.221,-1.979 -5,-1 0.951,-0.718 1.117,-1.551 0.5,-2.5 -2.279,-1.789 -4.279,-3.789 -6,-6 -0.561,0.522 -1.228,0.855 -2,1 -5.23,-3.087 -10.73,-5.42 -16.5,-7 -2.304,2.651 -4.637,2.651 -7,0 -3.351,0.74 -5.351,2.74 -6,6 -0.563,-4.588 -1.896,-8.921 -4,-13 10.017,0.835 20.017,2.001 30,3.5 5.87,2.712 11.704,5.546 17.5,8.5 1.113,-1.211 2.28,-1.211 3.5,0 1.698,2.032 3.698,3.698 6,5 1.067,2.059 2.4,3.892 4,5.5 -1.801,0.317 -2.134,0.984 -1,2 -4.694,6.03 -9.694,11.03 -15,15 -8.777,3.183 -17.944,6.017 -27.5,8.5 -3.637,0.203 -7.304,0.203 -11,0 -4.497,3.471 -9.164,4.471 -14,3 -2.016,2.251 -4.349,2.584 -7,1 -1.927,1.361 -4.094,2.194 -6.5,2.5 -6.581,0.187 -13.081,0.687 -19.5,1.5 -1.938,-1.36 -3.604,-1.027 -5,1 -2.969,-2.03 -6.136,-2.03 -9.5,0 -4.259,0.108 -8.425,-0.225 -12.5,-1 -2.727,0.563 -5.393,1.23 -8,2 -5.754,-0.797 -11.088,-0.797 -16,0 -1.482,-2.281 -3.149,-2.281 -5,0 -1.333,-1.333 -2.667,-1.333 -4,0 -1.194,-0.93 -2.527,-1.597 -4,-2 -7.027,0.388 -14.027,0.721 -21,1 -3.64,-1.446 -7.307,-1.779 -11,-1 -14.47,-2.164 -28.97,-3.664 -43.5,-4.5 -3.107,-0.543 -5.94,-1.709 -8.5,-3.5 -1.062,0.597 -2.228,0.93 -3.5,1 -7.723,-1.358 -15.389,-3.025 -23,-5 -0.942,0.108 -1.775,0.441 -2.5,1 -4.409,-2.827 -9.076,-5.16 -14,-7 -0.333,0.333 -0.667,0.667 -1,1 -1.574,-1.484 -2.907,-3.151 -4,-5 -0.333,0.333 -0.667,0.667 -1,1 -4.46,-2.906 -8.293,-6.406 -11.5,-10.5 2.995,-2.611 4.995,-5.444 6,-8.5 13.446,-7.773 27.779,-12.94 43,-15.5 1.249,-1.824 2.415,-1.657 3.5,0.5 1.713,-1.693 3.713,-3.026 6,-4 3.085,0.932 6.252,1.599 9.5,2 z"
       id="path105" />
  </g>
  <g
     id="g106">
    <path
       style="opacity:1"
       fill="#d1d1d2"
       d="m 482.5,808.5 c -0.157,1.373 0.01,2.707 0.5,4 2.571,-0.901 4.904,-2.234 7,-4 1.594,1.073 3.094,2.073 4.5,3 0.692,-0.525 1.192,-1.192 1.5,-2 1.402,2.473 2.902,2.473 4.5,0 1.62,2.558 3.12,2.558 4.5,0 0.689,0.857 1.522,1.523 2.5,2 2.209,-0.606 4.376,-1.273 6.5,-2 2.23,3.878 4.397,3.878 6.5,0 1.771,0.535 2.104,1.369 1,2.5 1.325,-0.148 2.492,0.018 3.5,0.5 0.333,-1 0.667,-2 1,-3 1.113,1.211 2.28,1.211 3.5,0 0.692,0.525 1.192,1.192 1.5,2 0.324,-2.069 1.158,-2.402 2.5,-1 2.936,-2.205 5.436,-1.538 7.5,2 0.249,-1.124 0.749,-2.124 1.5,-3 1.041,2.491 1.874,2.491 2.5,0 1.512,0.757 2.846,1.757 4,3 2.628,-4.067 5.295,-4.401 8,-1 1.667,-1.333 3.333,-1.333 5,0 0.915,-0.828 1.581,-1.828 2,-3 0.684,1.284 0.517,2.451 -0.5,3.5 0.585,1.302 1.251,2.469 2,3.5 -4.247,8.232 -6.747,16.899 -7.5,26 1.45,4.808 4.616,6.641 9.5,5.5 2.219,-1.907 3.886,-1.407 5,1.5 -0.438,-0.065 -0.772,0.101 -1,0.5 2.201,0.777 2.201,1.944 0,3.5 -4.104,-0.562 -8.437,-0.562 -13,0 -1,0.667 -2,1.333 -3,2 -7.389,0.055 -14.889,-0.278 -22.5,-1 -1.888,1.277 -3.888,2.277 -6,3 -2.882,-0.897 -5.882,-0.897 -9,0 -1.101,-1.894 -2.434,-2.561 -4,-2 -0.333,0.667 -0.667,1.333 -1,2 -2,-1.333 -4,-1.333 -6,0 -0.308,-0.808 -0.808,-1.475 -1.5,-2 -2.744,0.991 -5.411,0.657 -8,-1 -3.379,2.471 -6.712,2.471 -10,0 -3.477,1.661 -6.644,1.328 -9.5,-1 -1.785,0.74 -3.618,1.407 -5.5,2 -2.045,-1.975 -3.712,-1.975 -5,0 -8.809,-0.252 -17.642,-1.252 -26.5,-3 -3.54,1.595 -6.54,0.928 -9,-2 -0.333,0.667 -0.667,1.333 -1,2 -1.667,-1.333 -3.333,-1.333 -5,0 -2.373,-2.802 -5.207,-3.469 -8.5,-2 -5.18,-1.253 -10.347,-2.587 -15.5,-4 -1.107,0.085 -2.107,0.419 -3,1 -1.523,-2.12 -3.356,-2.453 -5.5,-1 -4.267,-1.651 -8.6,-3.151 -13,-4.5 -2.446,-3.783 -5.28,-7.283 -8.5,-10.5 -0.333,0.333 -0.667,0.667 -1,1 1.26,-2.655 0.426,-4.488 -2.5,-5.5 0.525,-0.692 1.192,-1.192 2,-1.5 1.041,2.491 1.874,2.491 2.5,0 0.718,0.951 1.551,1.117 2.5,0.5 0.88,-1.356 1.214,-2.856 1,-4.5 2.738,0.535 4.572,-0.465 5.5,-3 2.235,0.739 4.235,0.739 6,0 4.023,-2.031 8.189,-3.698 12.5,-5 2.536,0.344 4.703,1.344 6.5,3 0.278,-0.916 0.778,-1.582 1.5,-2 0.742,3.309 2.409,6.143 5,8.5 4.406,2.186 8.739,4.52 13,7 1.667,0.167 3.333,0.333 5,0.5 11.976,-1.626 22.976,-5.793 33,-12.5 4.418,-0.208 8.751,-0.874 13,-2 2.326,-1.805 3.992,-3.972 5,-6.5 z"
       id="path106" />
  </g>
  <g
     id="g107">
    <path
       style="opacity:1"
       fill="#ccc8c6"
       d="m 423.5,809.5 c 1.175,-0.219 2.175,0.114 3,1 -3.77,2.303 -7.27,4.969 -10.5,8 -1.23,-0.775 -1.563,-1.775 -1,-3 2.736,-2.252 5.569,-4.252 8.5,-6 z"
       id="path107" />
  </g>
  <g
     id="g108">
    <path
       style="opacity:1"
       fill="#e2dfde"
       d="m 429.5,812.5 c 1.052,-0.149 2.052,0.017 3,0.5 1.333,0.667 1.333,1.333 0,2 -4.037,1.537 -7.704,3.704 -11,6.5 -0.808,-0.308 -1.475,-0.808 -2,-1.5 2.865,-3.251 6.199,-5.751 10,-7.5 z"
       id="path108" />
  </g>
  <g
     id="g109">
    <path
       style="opacity:1"
       fill="#cdcbc9"
       d="m 471.5,798.5 c 1.208,-1.282 2.542,-1.282 4,0 4.312,4.588 3.979,8.755 -1,12.5 -3.881,1.19 -7.881,1.857 -12,2 -4.331,3.416 -9.164,5.916 -14.5,7.5 -1.31,-0.63 -2.144,-1.63 -2.5,-3 5.432,-2.215 10.765,-4.715 16,-7.5 3.719,-0.388 7.386,-1.055 11,-2 1.348,-1.574 2.014,-3.407 2,-5.5 0.39,-2.482 -0.61,-3.815 -3,-4 z"
       id="path109" />
  </g>
  <g
     id="g110">
    <path
       style="opacity:1"
       fill="#f7f7f5"
       d="m 587.5,810.5 c 2.594,0.182 4.761,1.182 6.5,3 1.25,4.92 1.75,9.92 1.5,15 -1.265,0.979 -2.599,1.979 -4,3 -3.203,-2.622 -6.37,-2.622 -9.5,0 -3.464,-2.613 -6.964,-2.613 -10.5,0 -1.571,-1.915 -3.571,-2.915 -6,-3 2,-6.496 4.5,-12.829 7.5,-19 4.688,2.205 9.521,2.539 14.5,1 z"
       id="path110" />
  </g>
  <g
     id="g111">
    <path
       style="opacity:1"
       fill="#d3d4d6"
       d="m 574.5,848.5 c 2.549,0.113 4.882,-0.554 7,-2 3.507,2.786 6.84,2.62 10,-0.5 4.698,0.454 8.531,-1.046 11.5,-4.5 1.795,-7.635 1.961,-15.301 0.5,-23 0.649,-3.26 2.649,-5.26 6,-6 2.363,2.651 4.696,2.651 7,0 5.77,1.58 11.27,3.913 16.5,7 0.772,-0.145 1.439,-0.478 2,-1 1.721,2.211 3.721,4.211 6,6 0.617,0.949 0.451,1.782 -0.5,2.5 1.779,-0.979 3.445,-0.646 5,1 -1.38,1.324 -1.714,2.657 -1,4 -2.667,0.667 -2.667,1.333 0,2 -3.501,0.877 -7.168,2.21 -11,4 0.333,0.333 0.667,0.667 1,1 -3.987,1.763 -7.987,3.597 -12,5.5 -0.586,-0.209 -1.086,-0.543 -1.5,-1 -1.753,1.127 -3.587,2.127 -5.5,3 -1.138,-2.419 -2.972,-2.085 -5.5,1 -2.485,-2.256 -4.818,-2.256 -7,0 -3.121,-1.036 -6.287,-1.203 -9.5,-0.5 2.163,0.245 3.83,1.245 5,3 -1.933,0.251 -3.766,0.751 -5.5,1.5 -2.333,-0.333 -4.667,-0.667 -7,-1 -1.353,1.204 -3.019,1.871 -5,2 -1.5,-0.333 -3,-0.667 -4.5,-1 0.209,-0.586 0.543,-1.086 1,-1.5 -1.237,-0.232 -2.237,-0.732 -3,-1.5 z"
       id="path111" />
  </g>
  <g
     id="g112">
    <path
       style="opacity:1"
       fill="#dfddda"
       d="m 435.5,816.5 c 5.214,-0.789 7.214,1.211 6,6 -4.351,2.627 -9.018,3.46 -14,2.5 -0.951,-0.718 -1.117,-1.551 -0.5,-2.5 2.637,-2.391 5.47,-4.391 8.5,-6 z"
       id="path112" />
  </g>
  <g
     id="g113">
    <path
       style="opacity:1"
       fill="#cbcac9"
       d="m 595.5,828.5 c 0.25,-5.08 -0.25,-10.08 -1.5,-15 -1.739,-1.818 -3.906,-2.818 -6.5,-3 2.642,-0.602 4.975,-1.936 7,-4 3.699,6.823 5.366,14.156 5,22 -1.333,0 -2.667,0 -4,0 z"
       id="path113" />
  </g>
  <g
     id="g114">
    <path
       style="opacity:1"
       fill="#e1deda"
       d="m 574.5,832.5 c 1.667,0 3.333,0 5,0 0.165,3.35 -0.002,6.683 -0.5,10 -4.528,3.322 -6.694,2.156 -6.5,-3.5 -0.162,-2.502 0.505,-4.669 2,-6.5 z"
       id="path114" />
  </g>
  <g
     id="g115">
    <path
       style="opacity:1"
       fill="#e0dddd"
       d="m 595.5,831.5 c 1.333,0 2.667,0 4,0 0.164,2.687 -0.003,5.354 -0.5,8 -1.444,1.655 -3.278,2.322 -5.5,2 -0.466,-3.662 0.201,-6.995 2,-10 z"
       id="path115" />
  </g>
  <g
     id="g116">
    <path
       style="opacity:1"
       fill="#e6e4e3"
       d="m 564.5,831.5 c 1.644,-0.214 3.144,0.12 4.5,1 0.893,3.416 0.393,6.583 -1.5,9.5 -1.634,0.494 -3.301,0.66 -5,0.5 -0.49,-3.987 0.176,-7.654 2,-11 z"
       id="path116" />
  </g>
  <g
     id="g117">
    <path
       style="opacity:1"
       fill="#e0dbd7"
       d="m 584.5,832.5 c 1.699,-0.16 3.366,0.006 5,0.5 1.049,3.146 0.883,6.312 -0.5,9.5 -1.699,0.906 -3.533,1.239 -5.5,1 -0.256,-3.769 0.077,-7.436 1,-11 z"
       id="path117" />
  </g>
</svg>
