<?xml version="1.0" encoding="UTF-8" standalone="no"?>
<svg
   version="1.1"
   width="1024"
   height="1024"
   style="clip-rule:evenodd;fill-rule:evenodd;image-rendering:optimizeQuality;shape-rendering:geometricPrecision;text-rendering:geometricPrecision"
   id="svg139"
   xmlns="http://www.w3.org/2000/svg"
   xmlns:svg="http://www.w3.org/2000/svg">
  <defs
     id="defs139" />
  <g
     id="g2">
    <path
       style="opacity:1"
       fill="#414241"
       d="m 525.5,167.5 c -4.769,1.389 -9.769,2.056 -15,2 4.769,-1.389 9.769,-2.056 15,-2 z"
       id="path2" />
  </g>
  <g
     id="g3">
    <path
       style="opacity:1"
       fill="#0d0d0d"
       d="m 525.5,167.5 c 35.695,-1.976 69.695,4.524 102,19.5 34.979,20.373 54.813,50.873 59.5,91.5 2.945,27.505 -0.389,54.172 -10,80 -11.819,24.185 -29.985,42.019 -54.5,53.5 -9.727,4.131 -19.727,7.464 -30,10 -13.358,2.027 -26.692,4.194 -40,6.5 0.713,2.276 1.213,4.609 1.5,7 5.998,-3.712 12.498,-4.879 19.5,-3.5 1.955,0.953 3.622,2.287 5,4 12.083,-0.322 23.75,1.678 35,6 5.277,2.44 8.943,6.273 11,11.5 10.492,-1.253 18.492,2.58 24,11.5 13.055,4.54 26.389,5.54 40,3 8.883,-7.474 17.549,-7.308 26,0.5 13.307,-6.38 26.974,-11.88 41,-16.5 3.38,-5.047 7.714,-9.047 13,-12 2.646,-0.497 5.313,-0.664 8,-0.5 -0.021,-5.438 1.479,-10.438 4.5,-15 4.385,-4.256 8.385,-3.923 12,1 0.995,3.27 1.828,6.603 2.5,10 5.204,-4.602 11.204,-7.602 18,-9 2.193,-0.174 4.027,0.493 5.5,2 0.497,2.31 0.663,4.643 0.5,7 -0.543,0.06 -0.876,0.393 -1,1 1.189,0.929 2.522,1.262 4,1 5.2,3.957 5.2,8.124 0,12.5 1.978,2.497 2.478,5.331 1.5,8.5 -5.253,5.534 -11.753,8.368 -19.5,8.5 -1.809,2.238 -4.142,3.405 -7,3.5 -2.888,-0.51 -5.221,0.156 -7,2 -5.863,8.108 -13.197,14.608 -22,19.5 -10.972,6.434 -22.639,11.101 -35,14 -6.365,0.753 -12.698,0.586 -19,-0.5 -2.213,1.838 -4.546,3.671 -7,5.5 -4.241,1.457 -8.574,1.791 -13,1 -7.708,-5.683 -16.374,-9.016 -26,-10 -6.667,-0.667 -13.333,-0.667 -20,0 -6.33,7.838 -14.33,10.505 -24,8 13.217,14.435 13.217,28.769 0,43 13.364,13.816 14.531,28.649 3.5,44.5 -6.662,7.319 -14.829,12.153 -24.5,14.5 18.135,10.395 23.635,25.561 16.5,45.5 -2.203,5.371 -5.703,9.704 -10.5,13 10.456,8.137 12.789,18.303 7,30.5 0.932,4.562 2.099,9.062 3.5,13.5 3.987,4.331 7.653,8.998 11,14 0.883,4.833 0.383,9.5 -1.5,14 3.106,7.15 2.273,13.817 -2.5,20 -0.281,10.045 0.386,20.045 2,30 1.914,3.589 4.248,6.922 7,10 0.497,2.31 0.663,4.643 0.5,7 4.158,2.914 8.491,5.581 13,8 0.333,1 1,1.667 2,2 7.545,4.703 14.712,10.037 21.5,16 1.373,2.195 1.706,4.529 1,7 -2.543,1.842 -4.71,4.009 -6.5,6.5 -3.936,0.574 -7.269,2.241 -10,5 -5.117,-0.048 -9.783,1.286 -14,4 -3.368,0.543 -6.701,0.376 -10,-0.5 -9.173,-4.1 -17.173,-9.933 -24,-17.5 -6.544,-2.713 -11.211,-7.213 -14,-13.5 -0.164,-2.687 0.003,-5.354 0.5,-8 1.559,-1.717 2.392,-3.717 2.5,-6 -0.348,-3.585 0.319,-6.918 2,-10 0.038,-10.98 -1.796,-21.646 -5.5,-32 -1.23,-3.232 -3.23,-5.899 -6,-8 -1.669,-3.846 -2.836,-7.846 -3.5,-12 -5.314,-4.443 -7.147,-10.11 -5.5,-17 3.277,-7.306 3.277,-14.64 0,-22 -2.102,-4.429 -4.602,-8.595 -7.5,-12.5 -6.526,-0.397 -12.526,-2.397 -18,-6 -3.566,-3.566 -7.066,-7.066 -10.5,-10.5 -8.826,2.645 -17.66,2.645 -26.5,0 -4.159,3.99 -8.493,7.824 -13,11.5 -2.217,1.275 -4.551,2.275 -7,3 -7.155,10.619 -6.655,20.786 1.5,30.5 0.667,3 0.667,6 0,9 -1.129,2.765 -2.629,5.265 -4.5,7.5 0.551,1.958 0.885,3.958 1,6 -0.697,4.584 -1.697,9.084 -3,13.5 0.99,10.276 3.156,20.276 6.5,30 1.039,1.21 2.206,2.21 3.5,3 2.104,1.872 3.437,4.205 4,7 -0.877,4.41 0.623,7.743 4.5,10 1.122,1.907 1.955,3.907 2.5,6 0.767,8.966 -3.233,14.466 -12,16.5 -3.667,0.333 -7.333,0.667 -11,1 -2.728,2.392 -5.728,4.392 -9,6 -11.97,4.439 -24.304,6.773 -37,7 -1.41,-0.368 -2.41,-1.201 -3,-2.5 -7.747,-2.348 -14.08,-6.681 -19,-13 -0.059,-4.048 1.608,-7.215 5,-9.5 6.31,-3.148 12.643,-5.981 19,-8.5 4.287,-1.148 8.287,-2.815 12,-5 2.657,-0.435 4.991,-1.435 7,-3 1.663,-3.151 2.997,-6.651 4,-10.5 -1.824,-9.796 -4.658,-19.296 -8.5,-28.5 -3.495,-3.251 -6.495,-6.918 -9,-11 -2.149,-4.442 -1.983,-8.776 0.5,-13 -4.617,-5.523 -6.117,-11.856 -4.5,-19 3.095,-4.089 5.761,-8.423 8,-13 0.25,-10.45 -0.417,-20.784 -2,-31 1.776,-3.441 3.943,-6.608 6.5,-9.5 -14.354,-8.89 -19.854,-21.723 -16.5,-38.5 2.36,-10.183 8.193,-17.517 17.5,-22 0.789,-0.283 1.456,-0.783 2,-1.5 -2.982,-0.498 -5.982,-0.665 -9,-0.5 -13.12,-2.284 -21.287,-9.951 -24.5,-23 -0.667,-4.333 -0.667,-8.667 0,-13 2.139,-6.281 5.305,-11.948 9.5,-17 -13.63,-12.611 -14.463,-25.944 -2.5,-40 0.667,-0.667 0.667,-1.333 0,-2 -7.455,6.448 -13.788,13.782 -19,22 0.489,11.875 -4.677,20.041 -15.5,24.5 -3.686,0.807 -7.186,0.307 -10.5,-1.5 -3.025,3.846 -7.025,5.846 -12,6 -4.763,-0.699 -9.263,-2.199 -13.5,-4.5 -15.374,-9.704 -28.541,-21.871 -39.5,-36.5 -3.317,-4.967 -5.817,-10.301 -7.5,-16 -1.068,-0.934 -2.401,-1.268 -4,-1 -0.284,1.915 0.049,3.581 1,5 1.496,6.653 2.996,13.319 4.5,20 0.663,5.037 0.496,10.037 -0.5,15 -1,0 -2,0 -3,0 0.166,-5.011 -10e-4,-10.011 -0.5,-15 -2.245,-9.075 -4.411,-18.075 -6.5,-27 -6.307,-1.569 -11.807,-4.569 -16.5,-9 -2.051,-4.124 -1.884,-8.124 0.5,-12 -2.151,-5.466 -0.817,-9.8 4,-13 0.576,-10.885 6.243,-14.885 17,-12 0.166,-8.673 0,-17.34 -0.5,-26 -2.99,-14.94 -5.657,-29.94 -8,-45 -0.699,-10.022 -0.532,-20.022 0.5,-30 -2.384,-0.057 -4.718,0.277 -7,1 -3.475,-0.643 -4.641,-2.643 -3.5,-6 1.597,-3.291 3.097,-6.625 4.5,-10 -19.164,-10.329 -34.664,-24.663 -46.5,-43 -7.667,-14.393 -9.334,-29.393 -5,-45 8.567,-16.03 21.733,-21.864 39.5,-17.5 7.706,2.271 14.206,6.437 19.5,12.5 14.843,-15.717 31.676,-18.217 50.5,-7.5 12.598,13.207 15.431,28.373 8.5,45.5 -4.953,13.74 -12.787,25.573 -23.5,35.5 -8.058,6.779 -16.558,12.945 -25.5,18.5 -0.667,1 -0.667,2 0,3 8.092,11.076 5.592,15.076 -7.5,12 -1.099,10.966 -1.265,21.966 -0.5,33 3.702,16.876 6.535,33.876 8.5,51 -0.166,6.342 0,12.675 0.5,19 0.41,-1.401 0.91,-2.734 1.5,-4 4.974,-4.248 9.474,-3.581 13.5,2 4.215,7.591 6.048,15.591 5.5,24 5.497,-1.346 9.997,0.32 13.5,5 1.941,3.548 3.607,7.214 5,11 5.732,5.568 11.899,10.568 18.5,15 4.782,-2.223 9.782,-3.723 15,-4.5 9.633,-7.296 17.467,-16.13 23.5,-26.5 -1.827,-10.829 1.673,-19.329 10.5,-25.5 1.525,-1.009 3.192,-1.509 5,-1.5 2.333,0 4.667,0 7,0 0,-1.667 0,-3.333 0,-5 3.37,-7.849 9.37,-12.682 18,-14.5 5,-0.833 10,-1.667 15,-2.5 3.143,-7.071 8.477,-9.571 16,-7.5 7.068,3.257 13.735,7.09 20,11.5 1.208,1.282 2.542,1.282 4,0 -0.124,-0.607 -0.457,-0.94 -1,-1 -0.824,-3.264 -1.158,-6.598 -1,-10 -31.991,-1.94 -60.991,-12.106 -87,-30.5 -25.066,-22.876 -33.399,-50.876 -25,-84 -5.209,-43.041 7.125,-80.041 37,-111 21.896,-18.693 47.229,-29.527 76,-32.5 5.231,0.056 10.231,-0.611 15,-2 z"
       id="path3" />
  </g>
  <g
     id="g4">
    <path
       style="opacity:1"
       fill="#ba5d52"
       d="m 312.5,348.5 c 1.052,-0.149 2.052,0.017 3,0.5 1.127,1.753 2.127,3.587 3,5.5 -6.012,1.955 -8.012,-0.045 -6,-6 z"
       id="path4" />
  </g>
  <g
     id="g5">
    <path
       style="opacity:1"
       fill="#d06c62"
       d="m 305.5,347.5 c 3.487,0.983 4.82,3.317 4,7 -2.424,0.308 -4.757,-0.026 -7,-1 1.013,-2.027 2.013,-4.027 3,-6 z"
       id="path5" />
  </g>
  <g
     id="g6">
    <path
       style="opacity:1"
       fill="#b9585c"
       d="m 308.5,342.5 c 1.846,-0.278 3.18,0.389 4,2 -2,1.333 -4,1.333 -6,0 0.743,-0.682 1.409,-1.349 2,-2 z"
       id="path6" />
  </g>
  <g
     id="g7">
    <path
       style="opacity:1"
       fill="#c95047"
       d="m 345.5,243.5 c 9.92,2.752 16.42,9.086 19.5,19 1.855,18.434 -3.145,34.768 -15,49 -10.335,11.01 -21.835,20.51 -34.5,28.5 -3.319,-0.725 -6.652,-0.558 -10,0.5 -3.583,-1.28 -6.583,-3.28 -9,-6 28.097,-7.928 46.597,-25.928 55.5,-54 2.304,-9.478 1.97,-18.811 -1,-28 -1.689,-3.167 -3.522,-6.167 -5.5,-9 z"
       id="path7" />
  </g>
  <g
     id="g8">
    <path
       style="opacity:1"
       fill="#e66158"
       d="m 345.5,243.5 c 1.978,2.833 3.811,5.833 5.5,9 2.97,9.189 3.304,18.522 1,28 -8.903,28.072 -27.403,46.072 -55.5,54 -20.825,-10.993 -34.992,-27.66 -42.5,-50 -2.751,-10.418 -1.751,-20.418 3,-30 8.033,-10.678 18.533,-14.178 31.5,-10.5 3.786,1.393 7.452,3.059 11,5 3.182,3.349 6.515,6.516 10,9.5 9.059,-12.2 21.059,-17.2 36,-15 z"
       id="path8" />
  </g>
  <g
     id="g9">
    <path
       style="opacity:1"
       fill="#f4f5f6"
       d="m 267.5,250.5 c 8.984,0.122 10.15,3.122 3.5,9 -1.941,3.548 -3.607,7.214 -5,11 -2,2.667 -4,2.667 -6,0 -0.667,-3.333 -0.667,-6.667 0,-10 1.947,-3.776 4.447,-7.11 7.5,-10 z"
       id="path9" />
  </g>
  <g
     id="g10">
    <path
       style="opacity:1"
       fill="#d4d4cf"
       d="m 646.5,208.5 c 19.994,19.326 31.494,42.993 34.5,71 7.418,83.568 -30.416,130.401 -113.5,140.5 -27.45,3.792 -54.783,3.125 -82,-2 -9.389,-1.965 -18.389,-4.798 -27,-8.5 51.086,12.23 100.419,7.396 148,-14.5 22.97,-12.739 38.804,-31.573 47.5,-56.5 16.185,-44.588 13.685,-87.921 -7.5,-130 z"
       id="path10" />
  </g>
  <g
     id="g11">
    <path
       style="opacity:1"
       fill="#fcfcfc"
       d="m 646.5,208.5 c 21.185,42.079 23.685,85.412 7.5,130 -8.696,24.927 -24.53,43.761 -47.5,56.5 -47.581,21.896 -96.914,26.73 -148,14.5 -23.71,-7.27 -41.21,-21.936 -52.5,-44 -6.428,-17.213 -7.262,-34.713 -2.5,-52.5 -4.202,-82.558 34.798,-128.891 117,-139 26.735,-1.215 53.068,1.452 79,8 17.871,5.26 33.538,14.093 47,26.5 z"
       id="path11" />
  </g>
  <g
     id="g12">
    <path
       style="opacity:1"
       fill="#060505"
       d="m 556.5,345.5 c 16.375,0.906 21.875,9.239 16.5,25 -6.239,15.9 -17.739,25.734 -34.5,29.5 -24.957,5.792 -46.123,-0.708 -63.5,-19.5 -6.899,-8.763 -8.065,-18.096 -3.5,-28 3.959,-3.725 8.626,-4.892 14,-3.5 24.287,9.596 47.954,8.429 71,-3.5 z"
       id="path12" />
  </g>
  <g
     id="g13">
    <path
       style="opacity:1"
       fill="#d84f49"
       d="m 558.5,375.5 c 2.842,0.028 4.009,1.362 3.5,4 -15.764,15.398 -34.264,20.398 -55.5,15 16.424,-0.189 32.091,-4.022 47,-11.5 2.742,-1.886 4.409,-4.386 5,-7.5 z"
       id="path13" />
  </g>
  <g
     id="g14">
    <path
       style="opacity:1"
       fill="#e8655e"
       d="m 558.5,375.5 c -0.591,3.114 -2.258,5.614 -5,7.5 -14.909,7.478 -30.576,11.311 -47,11.5 -1.175,0.219 -2.175,-0.114 -3,-1 8.51,-14.26 21.177,-21.26 38,-21 5.882,0.035 11.549,1.035 17,3 z"
       id="path14" />
  </g>
  <g
     id="g15">
    <path
       style="opacity:1"
       fill="#f1eceb"
       d="m 523.5,377.5 c 1,0 2,0 3,0 0.203,1.89 -0.463,3.39 -2,4.5 -3.229,2.616 -6.896,4.116 -11,4.5 -0.17,-1.322 0.163,-2.489 1,-3.5 3.064,-1.859 6.064,-3.692 9,-5.5 z"
       id="path15" />
  </g>
  <g
     id="g16">
    <path
       style="opacity:1"
       fill="#060606"
       d="m 510.5,310.5 c 5.902,-0.465 10.402,1.868 13.5,7 1.667,2.667 3.333,5.333 5,8 2.003,7.659 -0.83,10.826 -8.5,9.5 -2.545,-2.376 -4.878,-4.876 -7,-7.5 -2.522,2.356 -5.188,4.523 -8,6.5 -6.501,0.812 -8.668,-2.021 -6.5,-8.5 2.896,-5.829 6.729,-10.829 11.5,-15 z"
       id="path16" />
  </g>
  <g
     id="g17">
    <path
       style="opacity:1"
       fill="#d3d3cf"
       d="m 607.5,255.5 c -26.715,-8.864 -43.882,0.469 -51.5,28 -2.479,15.277 0.521,29.277 9,42 7.474,8.821 16.974,12.821 28.5,12 -23.874,3.68 -39.041,-6.32 -45.5,-30 -3.889,-16.215 -1.223,-31.215 8,-45 14.257,-16.337 31.091,-19.504 50.5,-9.5 0.752,0.671 1.086,1.504 1,2.5 z"
       id="path17" />
  </g>
  <g
     id="g18">
    <path
       style="opacity:1"
       fill="#020202"
       d="m 477.5,256.5 c 10.391,8.795 15.391,20.129 15,34 0.67,17.199 -5.663,31.033 -19,41.5 -3.521,1.674 -7.187,2.84 -11,3.5 -18.978,-1.131 -30.478,-11.131 -34.5,-30 -3.745,-21.318 3.088,-38.151 20.5,-50.5 9.927,-4.718 19.593,-4.218 29,1.5 z"
       id="path18" />
  </g>
  <g
     id="g19">
    <path
       style="opacity:1"
       fill="#020202"
       d="m 607.5,255.5 c 14.306,10.631 20.472,24.965 18.5,43 -1.334,15.186 -8.167,27.02 -20.5,35.5 -3.807,1.881 -7.807,3.047 -12,3.5 -11.526,0.821 -21.026,-3.179 -28.5,-12 -8.479,-12.723 -11.479,-26.723 -9,-42 7.618,-27.531 24.785,-36.864 51.5,-28 z"
       id="path19" />
  </g>
  <g
     id="g20">
    <path
       style="opacity:1"
       fill="#d4d3d0"
       d="m 477.5,256.5 c -9.407,-5.718 -19.073,-6.218 -29,-1.5 -17.412,12.349 -24.245,29.182 -20.5,50.5 4.022,18.869 15.522,28.869 34.5,30 -19.993,3.905 -33.826,-3.762 -41.5,-23 -5.714,-16.77 -4.047,-32.77 5,-48 10.4,-15.78 24.567,-20.613 42.5,-14.5 3.44,1.614 6.44,3.78 9,6.5 z"
       id="path20" />
  </g>
  <g
     id="g21">
    <path
       style="opacity:1"
       fill="#e6e6e9"
       d="m 785.5,426.5 c 4.651,0.674 6.151,3.341 4.5,8 -0.628,5.135 -3.461,7.468 -8.5,7 -0.059,-5.434 1.274,-10.434 4,-15 z"
       id="path21" />
  </g>
  <g
     id="g22">
    <path
       style="opacity:1"
       fill="#efeeec"
       d="m 811.5,430.5 c 4.036,0.072 4.87,1.739 2.5,5 -3.461,4.797 -7.961,7.631 -13.5,8.5 -1.265,-1.337 -1.765,-2.837 -1.5,-4.5 3.969,-3.389 8.136,-6.389 12.5,-9 z"
       id="path22" />
  </g>
  <g
     id="g23">
    <path
       style="opacity:1"
       fill="#d4d4cf"
       d="m 515.5,428.5 c 9.477,1.321 18.977,1.321 28.5,0 5.753,2.943 5.92,6.443 0.5,10.5 -7.587,1.563 -15.254,1.896 -23,1 -5.498,-1.819 -7.498,-5.652 -6,-11.5 z"
       id="path23" />
  </g>
  <g
     id="g24">
    <path
       style="opacity:1"
       fill="#797a7d"
       d="m 819.5,435.5 c 1,0.667 2,1.333 3,2 -1.478,0.262 -2.811,-0.071 -4,-1 0.124,-0.607 0.457,-0.94 1,-1 z"
       id="path24" />
  </g>
  <g
     id="g25">
    <path
       style="opacity:1"
       fill="#757778"
       d="m 510.5,437.5 c 0.543,0.06 0.876,0.393 1,1 -1.458,1.282 -2.792,1.282 -4,0 1.291,0.237 2.291,-0.096 3,-1 z"
       id="path25" />
  </g>
  <g
     id="g26">
    <path
       style="opacity:1"
       fill="#f7fcfd"
       d="m 572.5,444.5 c -0.667,1 -1.333,2 -2,3 -4.476,-0.322 -5.976,-2.656 -4.5,-7 4.14,-1.847 6.307,-0.514 6.5,4 z"
       id="path26" />
  </g>
  <g
     id="g27">
    <path
       style="opacity:1"
       fill="#f7f8f8"
       d="m 470.5,447.5 c -5.997,1.768 -12.33,3.268 -19,4.5 -2.668,1.289 -5.335,2.456 -8,3.5 -0.059,-4.048 1.608,-7.215 5,-9.5 6.786,-4.03 14.12,-5.863 22,-5.5 0,2.333 0,4.667 0,7 z"
       id="path27" />
  </g>
  <g
     id="g28">
    <path
       style="opacity:1"
       fill="#f9fafa"
       d="m 618.5,452.5 c -1.141,1.743 -2.808,2.743 -5,3 -10.831,-3.685 -21.831,-5.685 -33,-6 0,-2.667 0,-5.333 0,-8 12.372,-0.716 24.039,1.784 35,7.5 1.21,1.039 2.21,2.206 3,3.5 z"
       id="path28" />
  </g>
  <g
     id="g29">
    <path
       style="opacity:1"
       fill="#a2dde3"
       d="m 501.5,455.5 c -2.193,-1.297 -4.527,-1.297 -7,0 0.124,0.607 0.457,0.94 1,1 3.514,1.284 6.847,2.95 10,5 -3.058,1.188 -5.725,2.854 -8,5 0.709,0.904 1.709,1.237 3,1 0.174,2.361 0.507,4.694 1,7 -2.175,-0.182 -4.175,-0.849 -6,-2 -3.354,1.346 -6.687,2.679 -10,4 0.027,-5.516 -2.14,-6.849 -6.5,-4 -1.392,3.72 -0.225,5.72 3.5,6 -2.594,1.39 -5.261,1.723 -8,1 -1.08,-3.243 -1.247,-6.576 -0.5,-10 1.583,-4.745 2.749,-9.578 3.5,-14.5 -1.703,-6.065 -2.203,-12.232 -1.5,-18.5 2.072,-4.643 5.572,-6.143 10.5,-4.5 8.601,3.926 16.101,9.426 22.5,16.5 0.888,6.313 -1.612,8.647 -7.5,7 z"
       id="path29" />
  </g>
  <g
     id="g30">
    <path
       style="opacity:1"
       fill="#f9fcfd"
       d="m 480.5,434.5 c 6.204,-0.186 7.537,2.314 4,7.5 -6.097,0.147 -7.43,-2.353 -4,-7.5 z"
       id="path30" />
  </g>
  <g
     id="g31">
    <path
       style="opacity:1"
       fill="#f4fcfd"
       d="m 494.5,443.5 c 5.859,-1.426 7.859,0.574 6,6 -6.023,1.94 -8.023,-0.06 -6,-6 z"
       id="path31" />
  </g>
  <g
     id="g32">
    <path
       style="opacity:1"
       fill="#c9c5c4"
       d="m 514.5,444.5 c 4.088,-0.282 4.588,0.385 1.5,2 -1.03,-0.336 -1.53,-1.003 -1.5,-2 z"
       id="path32" />
  </g>
  <g
     id="g33">
    <path
       style="opacity:1"
       fill="#f8f7f5"
       d="m 799.5,450.5 c 2.587,6.122 0.754,10.122 -5.5,12 -1.406,-0.914 -2.906,-1.58 -4.5,-2 -1.575,-3.082 -3.742,-5.749 -6.5,-8 -0.497,-2.31 -0.663,-4.643 -0.5,-7 4.401,0.63 8.068,-0.703 11,-4 2.269,2.885 4.269,5.885 6,9 z"
       id="path33" />
  </g>
  <g
     id="g34">
    <path
       style="opacity:1"
       fill="#8a8b8d"
       d="m 531.5,446.5 c 4.088,-0.282 4.588,0.385 1.5,2 -1.03,-0.336 -1.53,-1.003 -1.5,-2 z"
       id="path34" />
  </g>
  <g
     id="g35">
    <path
       style="opacity:1"
       fill="#f7f7f7"
       d="m 776.5,447.5 c -0.165,3.018 0.002,6.018 0.5,9 2.728,2.226 4.895,4.893 6.5,8 -0.453,0.958 -1.119,1.792 -2,2.5 -14.62,-1.261 -28.286,1.739 -41,9 -7.667,5.667 -15.333,11.333 -23,17 -3.456,1.123 -6.29,0.29 -8.5,-2.5 -2.28,-7.935 0.22,-13.769 7.5,-17.5 13.92,-5.862 27.92,-11.529 42,-17 3.667,-3.667 7.333,-7.333 11,-11 3.114,-1.087 5.447,-0.254 7,2.5 z"
       id="path35" />
  </g>
  <g
     id="g36">
    <path
       style="opacity:1"
       fill="#f2eee8"
       d="m 816.5,441.5 c 1.667,0 3.333,0 5,0 -0.281,2.463 -1.281,4.63 -3,6.5 -3.498,2.499 -7.332,4.332 -11.5,5.5 -1.714,-0.576 -2.881,-1.743 -3.5,-3.5 4.398,-2.857 8.732,-5.691 13,-8.5 z"
       id="path36" />
  </g>
  <g
     id="g37">
    <path
       style="opacity:1"
       fill="#a1a2a2"
       d="m 319.5,442.5 c 0.667,5 1.333,10 2,15 -0.59,1.266 -1.09,2.599 -1.5,4 -0.5,-6.325 -0.666,-12.658 -0.5,-19 z"
       id="path37" />
  </g>
  <g
     id="g38">
    <path
       style="opacity:1"
       fill="#d0d0cf"
       d="m 470.5,447.5 c 0.951,1.419 1.284,3.085 1,5 -8.893,-1.011 -17.227,0.656 -25,5 -1.538,0.047 -2.538,-0.62 -3,-2 2.665,-1.044 5.332,-2.211 8,-3.5 6.67,-1.232 13.003,-2.732 19,-4.5 z"
       id="path38" />
  </g>
  <g
     id="g39">
    <path
       style="opacity:1"
       fill="#a7e3e8"
       d="m 529.5,452.5 c 0.071,5.1 -0.596,10.1 -2,15 -5.397,1.161 -10.73,0.827 -16,-1 -0.31,-3.213 0.023,-6.213 1,-9 1.242,3.892 3.742,4.892 7.5,3 1.139,-5.759 -1.028,-7.426 -6.5,-5 0.359,-1.871 1.359,-3.371 3,-4.5 4.501,-0.729 8.835,-0.229 13,1.5 z"
       id="path39" />
  </g>
  <g
     id="g40">
    <path
       style="opacity:1"
       fill="#fafdfd"
       d="m 481.5,453.5 c 7.178,2.015 7.678,5.015 1.5,9 -4.033,-2.336 -4.533,-5.336 -1.5,-9 z"
       id="path40" />
  </g>
  <g
     id="g41">
    <path
       style="opacity:1"
       fill="#3c5557"
       d="m 501.5,455.5 c -2.235,-0.295 -4.235,0.039 -6,1 -0.543,-0.06 -0.876,-0.393 -1,-1 2.473,-1.297 4.807,-1.297 7,0 z"
       id="path41" />
  </g>
  <g
     id="g42">
    <path
       style="opacity:1"
       fill="#eff9fa"
       d="m 512.5,457.5 c -0.172,-0.992 0.162,-1.658 1,-2 5.472,-2.426 7.639,-0.759 6.5,5 -3.758,1.892 -6.258,0.892 -7.5,-3 z"
       id="path42" />
  </g>
  <g
     id="g43">
    <path
       style="opacity:1"
       fill="#787879"
       d="m 438.5,451.5 c 0,1.667 0,3.333 0,5 -2.333,0 -4.667,0 -7,0 1.765,-0.961 3.765,-1.295 6,-1 -0.268,-1.599 0.066,-2.932 1,-4 z"
       id="path43" />
  </g>
  <g
     id="g44">
    <path
       style="opacity:1"
       fill="#dcd7d1"
       d="m 817.5,453.5 c 1,0 2,0 3,0 0.048,2.792 -1.285,4.625 -4,5.5 -3.036,2.006 -6.369,2.84 -10,2.5 0,-1.333 0,-2.667 0,-4 4.173,-0.167 7.84,-1.5 11,-4 z"
       id="path44" />
  </g>
  <g
     id="g45">
    <path
       style="opacity:1"
       fill="#8d8c8a"
       d="m 459.5,458.5 c 4.183,-1.311 8.516,-1.311 13,0 -0.124,0.607 -0.457,0.94 -1,1 -3.798,-0.983 -7.798,-1.317 -12,-1 z"
       id="path45" />
  </g>
  <g
     id="g46">
    <path
       style="opacity:1"
       fill="#cecdcb"
       d="m 580.5,449.5 c 11.169,0.315 22.169,2.315 33,6 2.192,-0.257 3.859,-1.257 5,-3 1.025,0.874 1.692,2.041 2,3.5 -1.534,1.868 -3.367,3.368 -5.5,4.5 -11.229,-5.393 -23.062,-7.393 -35.5,-6 -0.284,-1.915 0.049,-3.581 1,-5 z"
       id="path46" />
  </g>
  <g
     id="g47">
    <path
       style="opacity:1"
       fill="#c2c2c3"
       d="m 776.5,447.5 c 0.814,2.131 1.314,4.464 1.5,7 2,2 4,4 6,6 0.765,1.566 0.598,2.899 -0.5,4 -1.605,-3.107 -3.772,-5.774 -6.5,-8 -0.498,-2.982 -0.665,-5.982 -0.5,-9 z"
       id="path47" />
  </g>
  <g
     id="g48">
    <path
       style="opacity:1"
       fill="#d6d6d5"
       d="m 459.5,458.5 c 4.202,-0.317 8.202,0.017 12,1 -0.014,4.681 -2.347,7.014 -7,7 0,-1 0,-2 0,-3 -4.391,-0.523 -8.724,-1.19 -13,-2 2.184,-2.085 4.851,-3.085 8,-3 z"
       id="path48" />
  </g>
  <g
     id="g49">
    <path
       style="opacity:1"
       fill="#9fdce2"
       d="m 574.5,440.5 c -0.16,1.653 -0.826,2.986 -2,4 -0.193,-4.514 -2.36,-5.847 -6.5,-4 -1.476,4.344 0.024,6.678 4.5,7 -3.513,3.497 -5.513,7.831 -6,13 -0.134,1.792 0.199,3.458 1,5 -0.597,0.235 -0.93,0.735 -1,1.5 1.546,3.351 2.546,6.851 3,10.5 -3.333,0 -5,1.667 -5,5 -6.967,-0.824 -13.3,-3.324 -19,-7.5 -1.963,-0.844 -3.296,-0.344 -4,1.5 -3.664,-1.513 -4.664,-4.013 -3,-7.5 3.593,0.745 7.26,1.078 11,1 -3.468,-1.97 -6.801,-4.136 -10,-6.5 3.855,-1.967 7.855,-3.633 12,-5 -4.306,-0.923 -8.639,-0.923 -13,0 -0.004,-4.529 1.996,-8.029 6,-10.5 5.173,-4.09 10.84,-7.423 17,-10 3.906,-1.434 7.906,-1.767 12,-1 1.556,0.72 2.556,1.887 3,3.5 z"
       id="path49" />
  </g>
  <g
     id="g50">
    <path
       style="opacity:1"
       fill="#f6fafb"
       d="m 551.5,446.5 c 4.476,0.322 5.976,2.656 4.5,7 -3.531,2.933 -5.697,2.1 -6.5,-2.5 0.259,-1.787 0.925,-3.287 2,-4.5 z"
       id="path50" />
  </g>
  <g
     id="g51">
    <path
       style="opacity:1"
       fill="#fbfbfb"
       d="m 705.5,468.5 c -0.086,0.996 0.248,1.829 1,2.5 -3.71,1.223 -6.21,3.723 -7.5,7.5 -0.878,5.796 -0.378,11.463 1.5,17 -0.108,0.942 -0.441,1.775 -1,2.5 -1.667,0.667 -3.333,0.667 -5,0 -10.204,-5.8 -21.204,-8.3 -33,-7.5 -9.329,-1.194 -17.996,0.639 -26,5.5 -3.333,0.667 -6.667,0.667 -10,0 -2.107,-1.264 -3.107,-3.097 -3,-5.5 0.572,-1.755 1.406,-3.422 2.5,-5 0.199,-4.937 -1.801,-8.937 -6,-12 -1.422,-2.53 -1.755,-5.197 -1,-8 2.593,-2.049 5.093,-4.215 7.5,-6.5 4.282,-0.965 8.282,-0.298 12,2 3.017,3.086 6.017,6.086 9,9 14.405,4.587 29.071,5.587 44,3 2.401,-2.062 5.067,-3.729 8,-5 2.429,-0.703 4.762,-0.537 7,0.5 z"
       id="path51" />
  </g>
  <g
     id="g52">
    <path
       style="opacity:1"
       fill="#f2f1ee"
       d="m 565.5,465.5 c -0.801,-1.542 -1.134,-3.208 -1,-5 1.879,-0.841 3.879,-1.175 6,-1 0.299,2.104 -0.034,4.104 -1,6 -1.495,1.205 -2.828,1.205 -4,0 z"
       id="path52" />
  </g>
  <g
     id="g53">
    <path
       style="opacity:1"
       fill="#d4d4d3"
       d="m 611.5,466.5 c -4.068,-0.017 -8.068,0.317 -12,1 -7.003,-3.253 -14.337,-5.586 -22,-7 11.353,-1.926 22.353,-0.759 33,3.5 0.752,0.671 1.086,1.504 1,2.5 z"
       id="path53" />
  </g>
  <g
     id="g54">
    <path
       style="opacity:1"
       fill="#eeeded"
       d="m 325.5,459.5 c 4.606,1.137 7.44,4.137 8.5,9 1.456,3.515 1.622,7.015 0.5,10.5 -2.067,0.536 -3.901,0.036 -5.5,-1.5 -2.492,-5.927 -3.658,-11.927 -3.5,-18 z"
       id="path54" />
  </g>
  <g
     id="g55">
    <path
       style="opacity:1"
       fill="#f8f8f8"
       d="m 433.5,471.5 c -0.996,-0.086 -1.829,0.248 -2.5,1 -1.87,3.422 -2.703,7.089 -2.5,11 0.608,6.861 1.775,13.528 3.5,20 -10.131,7.793 -18.464,17.127 -25,28 0.385,6.73 -2.448,11.397 -8.5,14 0.507,-4.621 -0.326,-8.954 -2.5,-13 -3.833,-5.167 -8.333,-9.667 -13.5,-13.5 3.138,-1.244 6.472,-1.911 10,-2 12.132,-8.08 21.632,-18.58 28.5,-31.5 0.333,-4.667 0.667,-9.333 1,-14 3.418,-8.128 9.252,-10.961 17.5,-8.5 -2.252,2.736 -4.252,5.569 -6,8.5 z"
       id="path55" />
  </g>
  <g
     id="g56">
    <path
       style="opacity:1"
       fill="#fafafa"
       d="m 451.5,461.5 c 4.276,0.81 8.609,1.477 13,2 0,1 0,2 0,3 -10.526,3.179 -12.526,9.012 -6,17.5 4.031,2.455 8.364,4.121 13,5 9.333,1 18.667,2 28,3 4.375,1.701 6.042,4.867 5,9.5 -8.718,4.431 -18.051,6.431 -28,6 -9.207,-0.22 -18.207,-1.553 -27,-4 -13.76,-8.539 -16.593,-19.873 -8.5,-34 2.901,-3.525 6.401,-6.192 10.5,-8 z"
       id="path56" />
  </g>
  <g
     id="g57">
    <path
       style="opacity:1"
       fill="#d7d4d1"
       d="m 799.5,450.5 c 6.536,11 3.536,16.167 -9,15.5 -0.906,-1.699 -1.239,-3.533 -1,-5.5 1.594,0.42 3.094,1.086 4.5,2 6.254,-1.878 8.087,-5.878 5.5,-12 z"
       id="path57" />
  </g>
  <g
     id="g58">
    <path
       style="opacity:1"
       fill="#e7e4e4"
       d="m 306.5,464.5 c 6.196,0.014 11.363,2.347 15.5,7 0.667,1.667 0.667,3.333 0,5 -1.049,1.017 -2.216,1.184 -3.5,0.5 -4.276,-2.971 -8.942,-5.137 -14,-6.5 -0.333,-0.5 -0.667,-1 -1,-1.5 0.815,-1.643 1.815,-3.143 3,-4.5 z"
       id="path58" />
  </g>
  <g
     id="g59">
    <path
       style="opacity:1"
       fill="#fbfbfa"
       d="m 599.5,467.5 c 3.932,-0.683 7.932,-1.017 12,-1 -0.362,4.599 0.971,8.599 4,12 -1.068,6.247 -4.068,11.413 -9,15.5 -14.117,8.367 -29.45,13.034 -46,14 -9.667,0.667 -19.333,0.667 -29,0 -1.245,-0.791 -2.578,-1.291 -4,-1.5 -0.617,-0.111 -1.117,-0.444 -1.5,-1 -1.942,-6.39 -0.109,-11.223 5.5,-14.5 9.902,-1.717 19.235,-0.383 28,4 7.53,1.94 13.196,-0.393 17,-7 8.323,-0.747 16.323,-2.747 24,-6 5.629,-5.357 5.296,-10.19 -1,-14.5 z"
       id="path59" />
  </g>
  <g
     id="g60">
    <path
       style="opacity:1"
       fill="#f2f9fb"
       d="m 549.5,468.5 c 5.172,-0.935 7.339,1.065 6.5,6 -7.069,2.44 -9.236,0.44 -6.5,-6 z"
       id="path60" />
  </g>
  <g
     id="g61">
    <path
       style="opacity:1"
       fill="#80bdc3"
       d="m 529.5,452.5 c 0.617,0.111 1.117,0.444 1.5,1 0.167,2.5 0.333,5 0.5,7.5 0.17,3.864 -0.497,7.531 -2,11 -5.089,0.826 -10.089,0.492 -15,-1 -1.641,-1.129 -2.641,-2.629 -3,-4.5 5.27,1.827 10.603,2.161 16,1 1.404,-4.9 2.071,-9.9 2,-15 z"
       id="path61" />
  </g>
  <g
     id="g62">
    <path
       style="opacity:1"
       fill="#535254"
       d="m 797.5,470.5 c -2.215,0.768 -4.548,1.435 -7,2 1.779,-1.844 4.112,-2.51 7,-2 z"
       id="path62" />
  </g>
  <g
     id="g63">
    <path
       style="opacity:1"
       fill="#f5fbfc"
       d="m 485.5,476.5 c -0.473,1.406 -1.473,2.073 -3,2 -3.725,-0.28 -4.892,-2.28 -3.5,-6 4.36,-2.849 6.527,-1.516 6.5,4 z"
       id="path63" />
  </g>
  <g
     id="g64">
    <path
       style="opacity:1"
       fill="#f6f6f6"
       d="m 530.5,515.5 c 0,2 0,4 0,6 -11.625,2.904 -15.792,10.237 -12.5,22 1.994,4.493 5.16,7.826 9.5,10 0.182,2.594 1.182,4.761 3,6.5 -0.228,0.399 -0.562,0.565 -1,0.5 -11.403,0.418 -16.403,6.418 -15,18 -1,0 -2,0 -3,0 0.302,-2.559 -0.032,-4.893 -1,-7 -0.802,-4.603 -3.302,-7.936 -7.5,-10 -0.361,-3.025 -0.861,-6.025 -1.5,-9 1.995,-2.844 3.828,-5.844 5.5,-9 2.226,-5.186 1.893,-10.186 -1,-15 -1.554,-2.496 -3.387,-4.663 -5.5,-6.5 0.528,-2.862 1.195,-5.696 2,-8.5 6.554,-4.737 8.721,-11.071 6.5,-19 -0.782,-2.576 -2.282,-4.576 -4.5,-6 -1.333,-2.667 -1.333,-5.333 0,-8 2.259,-2.045 4.759,-3.711 7.5,-5 5.899,2.158 11.899,2.492 18,1 3.156,2.486 6.322,4.986 9.5,7.5 -13.27,-0.064 -19.77,6.436 -19.5,19.5 1.221,6.051 4.721,10.051 10.5,12 z"
       id="path64" />
  </g>
  <g
     id="g65">
    <path
       style="opacity:1"
       fill="#c8c7c8"
       d="m 778.5,478.5 c -1.159,-1.877 -2.826,-2.377 -5,-1.5 -16.757,11.633 -35.091,18.8 -55,21.5 3.439,-1.894 6.772,-4.06 10,-6.5 16.303,-2.093 30.637,-8.426 43,-19 5.146,-0.345 10.146,-1.011 15,-2 -2.536,2.705 -5.203,5.205 -8,7.5 z"
       id="path65" />
  </g>
  <g
     id="g66">
    <path
       style="opacity:1"
       fill="#81b7bd"
       d="m 574.5,440.5 c 1.134,2.466 1.301,5.133 0.5,8 -3.746,9.036 -4.579,18.369 -2.5,28 0.83,13.258 -4.836,17.091 -17,11.5 -5.93,-3.12 -11.263,-6.953 -16,-11.5 0.704,-1.844 2.037,-2.344 4,-1.5 5.7,4.176 12.033,6.676 19,7.5 2.899,4.15 5.233,3.816 7,-1 -0.168,-1.671 -0.835,-3.004 -2,-4 -0.454,-3.649 -1.454,-7.149 -3,-10.5 0.07,-0.765 0.403,-1.265 1,-1.5 1.172,1.205 2.505,1.205 4,0 0.966,-1.896 1.299,-3.896 1,-6 -2.121,-0.175 -4.121,0.159 -6,1 0.487,-5.169 2.487,-9.503 6,-13 0.667,-1 1.333,-2 2,-3 1.174,-1.014 1.84,-2.347 2,-4 z"
       id="path66" />
  </g>
  <g
     id="g67">
    <path
       style="opacity:1"
       fill="#f5f6f5"
       d="m 567.5,477.5 c 1.165,0.996 1.832,2.329 2,4 -1.767,4.816 -4.101,5.15 -7,1 0,-3.333 1.667,-5 5,-5 z"
       id="path67" />
  </g>
  <g
     id="g68">
    <path
       style="opacity:1"
       fill="#85b9bc"
       d="m 497.5,466.5 c 3,0 6,0 9,0 0.731,2.099 0.731,4.099 0,6 -8.419,7.218 -18.086,11.051 -29,11.5 -1.641,-1.129 -2.641,-2.629 -3,-4.5 2.739,0.723 5.406,0.39 8,-1 1.527,0.073 2.527,-0.594 3,-2 3.313,-1.321 6.646,-2.654 10,-4 1.825,1.151 3.825,1.818 6,2 -0.493,-2.306 -0.826,-4.639 -1,-7 -1.291,0.237 -2.291,-0.096 -3,-1 z"
       id="path68" />
  </g>
  <g
     id="g69">
    <path
       style="opacity:1"
       fill="#f9f8f6"
       d="m 334.5,485.5 c 0.149,1.052 -0.017,2.052 -0.5,3 -4.105,2.783 -7.605,6.117 -10.5,10 -1.165,1.084 -2.498,1.917 -4,2.5 0.84,1.666 0.34,1.833 -1.5,0.5 -0.497,-2.31 -0.663,-4.643 -0.5,-7 4.374,-2.646 6.208,-6.646 5.5,-12 0.667,-0.667 1.333,-1.333 2,-2 2.659,2.87 5.826,4.537 9.5,5 z"
       id="path69" />
  </g>
  <g
     id="g70">
    <path
       style="opacity:1"
       fill="#ebe7e4"
       d="m 300.5,476.5 c 7.471,-0.678 13.304,1.988 17.5,8 0.723,2.625 -0.277,4.292 -3,5 -4.568,-2.534 -9.401,-4.367 -14.5,-5.5 -2.586,-2.494 -2.586,-4.994 0,-7.5 z"
       id="path70" />
  </g>
  <g
     id="g71">
    <path
       style="opacity:1"
       fill="#f2f1f2"
       d="m 778.5,478.5 c -16.052,12.912 -34.386,20.579 -55,23 -2.391,-0.059 -4.725,-0.393 -7,-1 -0.333,-0.333 -0.667,-0.667 -1,-1 0.825,-0.886 1.825,-1.219 3,-1 19.909,-2.7 38.243,-9.867 55,-21.5 2.174,-0.877 3.841,-0.377 5,1.5 z"
       id="path71" />
  </g>
  <g
     id="g72">
    <path
       style="opacity:1"
       fill="#f7f7f6"
       d="m 389.5,532.5 c 1.435,8.882 -2.232,13.549 -11,14 -8.798,-19.967 -23.798,-32.467 -45,-37.5 -2.79,-2.21 -3.623,-5.044 -2.5,-8.5 2.333,-1.667 4.667,-3.333 7,-5 0.885,-2.5 2.052,-4.833 3.5,-7 2.075,-1.262 4.075,-1.095 6,0.5 3.402,3.968 5.902,8.468 7.5,13.5 11.397,10.238 22.897,20.238 34.5,30 z"
       id="path72" />
  </g>
  <g
     id="g73">
    <path
       style="opacity:1"
       fill="#f4f2f0"
       d="m 311.5,494.5 c 0.219,1.175 -0.114,2.175 -1,3 -3.605,-0.99 -7.272,-1.656 -11,-2 -4.157,-2.562 -3.991,-4.562 0.5,-6 4.561,0.249 8.394,1.916 11.5,5 z"
       id="path73" />
  </g>
  <g
     id="g74">
    <path
       style="opacity:1"
       fill="#d2d2d0"
       d="m 705.5,468.5 c 1.312,0.645 2.312,1.645 3,3 -8.108,9.693 -7.774,19.193 1,28.5 -2.452,5.727 -6.785,8.06 -13,7 -11.354,-7.843 -24.02,-11.676 -38,-11.5 -3.333,0.167 -6.667,0.333 -10,0.5 -3.61,1.944 -6.943,4.277 -10,7 -7.147,3.058 -12.981,1.558 -17.5,-4.5 -0.885,-3.038 -0.385,-5.705 1.5,-8 -0.107,2.403 0.893,4.236 3,5.5 3.333,0.667 6.667,0.667 10,0 8.004,-4.861 16.671,-6.694 26,-5.5 11.796,-0.8 22.796,1.7 33,7.5 1.667,0.667 3.333,0.667 5,0 0.559,-0.725 0.892,-1.558 1,-2.5 -1.878,-5.537 -2.378,-11.204 -1.5,-17 1.29,-3.777 3.79,-6.277 7.5,-7.5 -0.752,-0.671 -1.086,-1.504 -1,-2.5 z"
       id="path74" />
  </g>
  <g
     id="g75">
    <path
       style="opacity:1"
       fill="#d3cecc"
       d="m 334.5,485.5 c 1.113,1.446 1.28,3.113 0.5,5 -2.488,2.243 -5.154,4.243 -8,6 -1.411,2.15 -2.245,4.484 -2.5,7 -2.627,0.592 -5.294,0.925 -8,1 -0.313,-3.542 0.021,-6.875 1,-10 -0.163,2.357 0.003,4.69 0.5,7 1.84,1.333 2.34,1.166 1.5,-0.5 1.502,-0.583 2.835,-1.416 4,-2.5 2.895,-3.883 6.395,-7.217 10.5,-10 0.483,-0.948 0.649,-1.948 0.5,-3 z"
       id="path75" />
  </g>
  <g
     id="g76">
    <path
       style="opacity:1"
       fill="#bfbbba"
       d="m 311.5,494.5 c 1.611,2.832 0.778,4.832 -2.5,6 -3.735,-0.782 -6.902,-2.449 -9.5,-5 3.728,0.344 7.395,1.01 11,2 0.886,-0.825 1.219,-1.825 1,-3 z"
       id="path76" />
  </g>
  <g
     id="g77">
    <path
       style="opacity:1"
       fill="#d3d2ce"
       d="m 615.5,478.5 c 2.034,1.048 3.367,2.714 4,5 -3.428,5.082 -4.928,10.749 -4.5,17 -9.081,5.472 -18.914,8.972 -29.5,10.5 -16.303,2.737 -32.636,3.071 -49,1 -4.059,-0.351 -7.059,-2.185 -9,-5.5 1.422,0.209 2.755,0.709 4,1.5 9.667,0.667 19.333,0.667 29,0 16.55,-0.966 31.883,-5.633 46,-14 4.932,-4.087 7.932,-9.253 9,-15.5 z"
       id="path77" />
  </g>
  <g
     id="g78">
    <path
       style="opacity:1"
       fill="#cececa"
       d="m 504.5,501.5 c -0.224,4.062 -2.224,6.895 -6,8.5 -17.222,3.612 -33.555,1.446 -49,-6.5 8.793,2.447 17.793,3.78 27,4 9.949,0.431 19.282,-1.569 28,-6 z"
       id="path78" />
  </g>
  <g
     id="g79">
    <path
       style="opacity:1"
       fill="#7c787d"
       d="m 319.5,509.5 c -1,0 -2,0 -3,0 0,1.333 0,2.667 0,4 -0.951,-1.419 -1.284,-3.085 -1,-5 1.599,-0.268 2.932,0.066 4,1 z"
       id="path79" />
  </g>
  <g
     id="g80">
    <path
       style="opacity:1"
       fill="#d3d2ce"
       d="m 433.5,471.5 c -4.622,12.957 -1.955,24.123 8,33.5 -12.637,8.968 -22.804,20.135 -30.5,33.5 1.456,10.027 -2.711,16.027 -12.5,18 -1.981,0.063 -3.648,-0.604 -5,-2 1.932,-2.866 3.599,-5.866 5,-9 6.052,-2.603 8.885,-7.27 8.5,-14 6.536,-10.873 14.869,-20.207 25,-28 -1.725,-6.472 -2.892,-13.139 -3.5,-20 -0.203,-3.911 0.63,-7.578 2.5,-11 0.671,-0.752 1.504,-1.086 2.5,-1 z"
       id="path80" />
  </g>
  <g
     id="g81">
    <path
       style="opacity:1"
       fill="#f9f9f8"
       d="m 501.5,531.5 c -0.089,3.439 -1.422,6.272 -4,8.5 -16.598,11.488 -34.598,15.655 -54,12.5 -3.264,-1.427 -5.764,-3.761 -7.5,-7 -1.506,-5.246 -1.839,-10.579 -1,-16 4.097,-7.094 9.264,-13.261 15.5,-18.5 4.251,1.08 8.585,2.413 13,4 -5.407,2.416 -9.907,5.916 -13.5,10.5 -0.821,7.181 2.513,10.514 10,10 11.952,-1.405 23.619,-4.071 35,-8 2.924,0.207 5.09,1.54 6.5,4 z"
       id="path81" />
  </g>
  <g
     id="g82">
    <path
       style="opacity:1"
       fill="#f4f4f3"
       d="m 378.5,553.5 c -0.12,1.086 -0.787,1.753 -2,2 -7.157,-2.418 -14.157,-5.085 -21,-8 -8.274,-6.439 -15.774,-13.772 -22.5,-22 -3.904,-5.142 -6.738,-10.809 -8.5,-17 2.405,1.187 4.739,2.687 7,4.5 1.667,0.333 3.333,0.667 5,1 8.91,15.579 21.577,26.912 38,34 1.165,1.992 2.498,3.825 4,5.5 z"
       id="path82" />
  </g>
  <g
     id="g83">
    <path
       style="opacity:1"
       fill="#dad8d4"
       d="m 530.5,515.5 c 5.78,2.074 11.78,3.074 18,3 0,2.333 0,4.667 0,7 -5.948,-1.537 -11.948,-2.871 -18,-4 0,-2 0,-4 0,-6 z"
       id="path83" />
  </g>
  <g
     id="g84">
    <path
       style="opacity:1"
       fill="#fbfbfb"
       d="m 523.5,542.5 c -1.973,-5.383 -0.973,-10.216 3,-14.5 1.534,-0.923 3.201,-1.423 5,-1.5 11.769,3.775 23.769,6.609 36,8.5 10.726,0.903 21.393,0.569 32,-1 4.919,-0.933 8.752,-3.433 11.5,-7.5 0.131,-3.738 -1.369,-6.738 -4.5,-9 0.111,-0.617 0.444,-1.117 1,-1.5 7.116,-0.585 11.949,2.582 14.5,9.5 1.245,7.929 -1.255,14.429 -7.5,19.5 -16.468,9.246 -34.135,12.58 -53,10 -13.647,-1.494 -26.314,-5.66 -38,-12.5 z"
       id="path84" />
  </g>
  <g
     id="g85">
    <path
       style="opacity:1"
       fill="#d7d6d2"
       d="m 501.5,531.5 c 2.494,6.939 0.827,12.772 -5,17.5 -13.72,7.762 -28.387,10.429 -44,8 -3.535,-0.663 -6.535,-2.163 -9,-4.5 19.402,3.155 37.402,-1.012 54,-12.5 2.578,-2.228 3.911,-5.061 4,-8.5 z"
       id="path85" />
  </g>
  <g
     id="g86">
    <path
       style="opacity:1"
       fill="#cfcdc9"
       d="m 389.5,532.5 c 5.314,5.718 5.314,11.551 0,17.5 -4.584,1.337 -8.251,0.171 -11,-3.5 8.768,-0.451 12.435,-5.118 11,-14 z"
       id="path86" />
  </g>
  <g
     id="g87">
    <path
       style="opacity:1"
       fill="#d1d0cd"
       d="m 523.5,542.5 c 11.686,6.84 24.353,11.006 38,12.5 18.865,2.58 36.532,-0.754 53,-10 6.245,-5.071 8.745,-11.571 7.5,-19.5 -2.551,-6.918 -7.384,-10.085 -14.5,-9.5 -0.556,0.383 -0.889,0.883 -1,1.5 -2.307,-1.153 -4.64,-2.32 -7,-3.5 4.885,-2.621 9.885,-4.621 15,-6 7.911,6.231 12.911,14.231 15,24 -1.629,12.632 -8.629,20.632 -21,24 -23.634,6.623 -46.967,5.623 -70,-3 -4.78,-1.556 -9.113,-3.889 -13,-7 -1.323,-0.816 -1.989,-1.983 -2,-3.5 z"
       id="path87" />
  </g>
  <g
     id="g88">
    <path
       style="opacity:1"
       fill="#d1cfce"
       d="m 355.5,547.5 c 6.843,2.915 13.843,5.582 21,8 1.213,-0.247 1.88,-0.914 2,-2 2.413,1.551 5.079,2.217 8,2 -0.577,5.305 -3.577,7.138 -9,5.5 -8.278,-3.142 -15.611,-7.642 -22,-13.5 z"
       id="path88" />
  </g>
  <g
     id="g89">
    <path
       style="opacity:1"
       fill="#d4d2d2"
       d="m 453.5,568.5 c -2.981,-2.988 -6.648,-4.654 -11,-5 0.691,-1.522 1.858,-2.522 3.5,-3 4.454,1.203 8.954,2.203 13.5,3 -2.019,1.69 -4.019,3.356 -6,5 z"
       id="path89" />
  </g>
  <g
     id="g90">
    <path
       style="opacity:1"
       fill="#f9f9f9"
       d="m 442.5,563.5 c 4.352,0.346 8.019,2.012 11,5 -6.002,9.52 -3.502,14.853 7.5,16 7.398,-0.355 14.231,-2.521 20.5,-6.5 4.667,-3.667 9.333,-7.333 14,-11 2,-0.667 4,-0.667 6,0 1.926,0.422 2.926,1.589 3,3.5 -8.787,15.587 -22.12,25.087 -40,28.5 -8.212,1.024 -16.212,0.524 -24,-1.5 -5.941,-7.422 -7.441,-15.755 -4.5,-25 1.643,-3.461 3.81,-6.461 6.5,-9 z"
       id="path90" />
  </g>
  <g
     id="g91">
    <path
       style="opacity:1"
       fill="#dcdad6"
       d="m 527.5,553.5 c 6.734,3.58 13.734,6.58 21,9 -0.551,2.556 -1.551,4.889 -3,7 -5.104,-3.548 -10.437,-6.548 -16,-9 0.438,0.065 0.772,-0.101 1,-0.5 -1.818,-1.739 -2.818,-3.906 -3,-6.5 z"
       id="path91" />
  </g>
  <g
     id="g92">
    <path
       style="opacity:1"
       fill="#fbfbfb"
       d="m 611.5,567.5 c 7.875,-3.833 11.541,-1.167 11,8 0.085,7.664 -2.915,13.831 -9,18.5 -16.261,9.76 -33.595,12.094 -52,7 -11.146,-2.935 -21.48,-7.601 -31,-14 -1.293,-0.49 -2.627,-0.657 -4,-0.5 -6.739,-4.482 -8.572,-10.482 -5.5,-18 2.317,-2.597 5.15,-3.43 8.5,-2.5 14.31,9.988 29.977,16.988 47,21 10.904,1.676 21.237,0.009 31,-5 4.86,-3.838 6.193,-8.672 4,-14.5 z"
       id="path92" />
  </g>
  <g
     id="g93">
    <path
       style="opacity:1"
       fill="#e9e8e8"
       d="m 551.5,571.5 c 12.979,1.152 25.312,4.652 37,10.5 -11.941,0.802 -23.275,-1.532 -34,-7 -1.926,-0.422 -2.926,-1.589 -3,-3.5 z"
       id="path93" />
  </g>
  <g
     id="g94">
    <path
       style="opacity:1"
       fill="#7c7b7c"
       d="m 510.5,571.5 c 0.968,2.107 1.302,4.441 1,7 1,0 2,0 3,0 -1.068,0.934 -2.401,1.268 -4,1 0,-2.667 0,-5.333 0,-8 z"
       id="path94" />
  </g>
  <g
     id="g95">
    <path
       style="opacity:1"
       fill="#d5d3cf"
       d="m 504.5,570.5 c 1.527,4.425 1.027,8.758 -1.5,13 -13.358,16.34 -30.525,23.507 -51.5,21.5 -4.394,-1.582 -8.061,-4.082 -11,-7.5 7.788,2.024 15.788,2.524 24,1.5 17.88,-3.413 31.213,-12.913 40,-28.5 z"
       id="path95" />
  </g>
  <g
     id="g96">
    <path
       style="opacity:1"
       fill="#f5f5f4"
       d="m 507.5,585.5 c 1,0 2,0 3,0 -0.639,5.87 0.361,11.37 3,16.5 -2.807,5.868 -2.474,11.534 1,17 -1.213,1.63 -2.046,3.464 -2.5,5.5 -10.685,-9.422 -23.185,-14.589 -37.5,-15.5 13.538,-4.421 24.538,-12.254 33,-23.5 z"
       id="path96" />
  </g>
  <g
     id="g97">
    <path
       style="opacity:1"
       fill="#dad9d4"
       d="m 516.5,587.5 c 1.052,-0.149 2.052,0.017 3,0.5 4.711,4.38 9.711,8.38 15,12 -5.926,1.11 -11.592,0.444 -17,-2 -2.168,-3.341 -2.502,-6.841 -1,-10.5 z"
       id="path97" />
  </g>
  <g
     id="g98">
    <path
       style="opacity:1"
       fill="#d4d4cf"
       d="m 526.5,586.5 c 1.373,-0.157 2.707,0.01 4,0.5 9.52,6.399 19.854,11.065 31,14 18.405,5.094 35.739,2.76 52,-7 6.085,-4.669 9.085,-10.836 9,-18.5 0.541,-9.167 -3.125,-11.833 -11,-8 -1.432,-1.827 -3.099,-3.494 -5,-5 4.444,-1.722 8.778,-3.722 13,-6 9.946,8.211 12.78,18.545 8.5,31 -5.667,10.65 -14.5,17.15 -26.5,19.5 -28.439,5.461 -53.439,-1.372 -75,-20.5 z"
       id="path98" />
  </g>
  <g
     id="g99">
    <path
       style="opacity:1"
       fill="#f9f8f7"
       d="m 521.5,605.5 c 0.381,1.431 1.381,2.264 3,2.5 6.325,0.5 12.658,0.666 19,0.5 0.203,1.89 -0.463,3.39 -2,4.5 -2,0.667 -4,1.333 -6,2 -5.633,0.406 -10.967,0.572 -16,0.5 -0.958,-0.453 -1.792,-1.119 -2.5,-2 -0.667,-2.333 -0.667,-4.667 0,-7 1.084,-2.282 2.584,-2.616 4.5,-1 z"
       id="path99" />
  </g>
  <g
     id="g100">
    <path
       style="opacity:1"
       fill="#7e7c7c"
       d="m 454.5,610.5 c 3.018,-0.165 6.018,0.002 9,0.5 -0.544,0.717 -1.211,1.217 -2,1.5 -2.333,-0.667 -4.667,-1.333 -7,-2 z"
       id="path100" />
  </g>
  <g
     id="g101">
    <path
       style="opacity:1"
       fill="#f2f0ef"
       d="m 554.5,609.5 c 5.41,1.417 10.743,2.917 16,4.5 -5.024,1.863 -9.691,4.363 -14,7.5 -3.329,-3.474 -3.996,-7.474 -2,-12 z"
       id="path101" />
  </g>
  <g
     id="g102">
    <path
       style="opacity:1"
       fill="#d5d3d0"
       d="m 519.5,615.5 c 5.033,0.072 10.367,-0.094 16,-0.5 2,-0.667 4,-1.333 6,-2 1.537,-1.11 2.203,-2.61 2,-4.5 -6.342,0.166 -12.675,0 -19,-0.5 -1.619,-0.236 -2.619,-1.069 -3,-2.5 2.413,0.611 4.913,0.945 7.5,1 5.488,-0.947 10.988,-1.447 16.5,-1.5 3.713,1.691 4.879,4.525 3.5,8.5 -2.469,2.152 -5.302,3.652 -8.5,4.5 -6,0.667 -12,0.667 -18,0 -1.442,-0.377 -2.442,-1.21 -3,-2.5 z"
       id="path102" />
  </g>
  <g
     id="g103">
    <path
       style="opacity:1"
       fill="#fafafa"
       d="m 600.5,617.5 c 12.743,20.931 8.577,37.598 -12.5,50 -2.132,16.818 -11.298,22.652 -27.5,17.5 -3.548,-1.604 -6.882,-3.437 -10,-5.5 -0.333,-0.667 -0.667,-1.333 -1,-2 -0.02,-1.643 0.647,-2.976 2,-4 -6.974,-0.838 -13.974,-0.838 -21,0 -5.755,0.032 -11.422,-0.634 -17,-2 -1.333,0.167 -2.667,0.333 -4,0.5 -5.721,4.721 -11.721,9.054 -18,13 -5.28,1.828 -10.614,1.995 -16,0.5 -1.938,-4.081 -3.104,-8.415 -3.5,-13 -7.961,-3.31 -14.628,-8.31 -20,-15 -0.862,-1.587 -1.529,-3.254 -2,-5 -4.075,-17.178 1.758,-29.345 17.5,-36.5 11.907,-1.94 22.907,0.393 33,7 5.623,3.955 10.957,8.288 16,13 11.306,5.953 22.64,5.953 34,0 13.039,-16.178 29.705,-22.344 50,-18.5 z"
       id="path103" />
  </g>
  <g
     id="g104">
    <path
       style="opacity:1"
       fill="#faf9f9"
       d="m 541.5,623.5 c 1.667,0 3.333,0 5,0 0.17,1.322 -0.163,2.489 -1,3.5 -8.715,3.608 -17.715,4.441 -27,2.5 -1.311,-2.06 -1.311,-4.226 0,-6.5 4.111,0.469 8.277,0.969 12.5,1.5 3.511,-0.304 7.011,-0.637 10.5,-1 z"
       id="path104" />
  </g>
  <g
     id="g105">
    <path
       style="opacity:1"
       fill="#d6d5d2"
       d="m 600.5,617.5 c 8.08,2.917 13.247,8.584 15.5,17 3.621,19.267 -3.879,31.767 -22.5,37.5 -1.898,5.061 -3.731,10.228 -5.5,15.5 -2.258,1.93 -4.758,3.43 -7.5,4.5 -13.2,3.11 -23.2,-1.057 -30,-12.5 3.118,2.063 6.452,3.896 10,5.5 16.202,5.152 25.368,-0.682 27.5,-17.5 21.077,-12.402 25.243,-29.069 12.5,-50 z"
       id="path105" />
  </g>
  <g
     id="g106">
    <path
       style="opacity:1"
       fill="#050505"
       d="m 485.5,632.5 c 10.477,4.127 17.144,11.627 20,22.5 0.36,5.295 -1.973,8.628 -7,10 -13.101,0.949 -23.101,-4.218 -30,-15.5 -4.226,-15.101 1.441,-20.768 17,-17 z"
       id="path106" />
  </g>
  <g
     id="g107">
    <path
       style="opacity:1"
       fill="#cfcdca"
       d="m 518.5,629.5 c 9.285,1.941 18.285,1.108 27,-2.5 0.837,-1.011 1.17,-2.178 1,-3.5 -1.667,0 -3.333,0 -5,0 7.701,-5.359 10.534,-3.359 8.5,6 -8.881,6.322 -18.381,7.489 -28.5,3.5 -1.21,-1.039 -2.21,-2.206 -3,-3.5 z"
       id="path107" />
  </g>
  <g
     id="g108">
    <path
       style="opacity:1"
       fill="#cacac9"
       d="m 485.5,632.5 c -15.559,-3.768 -21.226,1.899 -17,17 -2.668,-0.957 -4.168,-2.957 -4.5,-6 -1.893,-9.247 1.774,-14.247 11,-15 4.135,0.169 7.635,1.502 10.5,4 z"
       id="path108" />
  </g>
  <g
     id="g109">
    <path
       style="opacity:1"
       fill="#cecece"
       d="m 591.5,634.5 c -13.285,-3.371 -23.952,0.629 -32,12 -0.274,-3.453 1.06,-6.12 4,-8 7.717,-7.527 16.717,-9.693 27,-6.5 0.752,0.671 1.086,1.504 1,2.5 z"
       id="path109" />
  </g>
  <g
     id="g110">
    <path
       style="opacity:1"
       fill="#060607"
       d="m 591.5,634.5 c 4.35,4.575 5.183,9.908 2.5,16 -8.558,13.371 -20.392,17.871 -35.5,13.5 -4.031,-6.017 -3.697,-11.85 1,-17.5 8.048,-11.371 18.715,-15.371 32,-12 z"
       id="path110" />
  </g>
  <g
     id="g111">
    <path
       style="opacity:1"
       fill="#d2d1ce"
       d="m 549.5,677.5 c -1.077,-0.518 -2.244,-0.852 -3.5,-1 -4.544,1.445 -9.21,2.111 -14,2 -6.216,-0.437 -12.383,-0.937 -18.5,-1.5 -7.106,11.72 -17.439,16.72 -31,15 -3.253,-1.274 -5.586,-3.44 -7,-6.5 5.386,1.495 10.72,1.328 16,-0.5 6.279,-3.946 12.279,-8.279 18,-13 1.333,-0.167 2.667,-0.333 4,-0.5 5.578,1.366 11.245,2.032 17,2 7.026,-0.838 14.026,-0.838 21,0 -1.353,1.024 -2.02,2.357 -2,4 z"
       id="path111" />
  </g>
  <g
     id="g112">
    <path
       style="opacity:1"
       fill="#f9f9f9"
       d="m 463.5,678.5 c 1.481,8.105 5.481,14.938 12,20.5 1.667,0.833 3.333,1.667 5,2.5 0.084,6.258 0.251,12.591 0.5,19 1.689,3.822 3.522,7.489 5.5,11 -0.298,3.726 -2.298,4.893 -6,3.5 -6.701,-3.663 -13.034,-2.997 -19,2 -2.24,0.977 -4.573,1.477 -7,1.5 -3.598,-6.929 -2.098,-12.595 4.5,-17 4.577,-10.041 4.577,-20.041 0,-30 -1.302,-5.379 0.198,-9.712 4.5,-13 z"
       id="path112" />
  </g>
  <g
     id="g113">
    <path
       style="opacity:1"
       fill="#fcfcfc"
       d="m 600.5,802.5 c -30.978,-1.421 -61.978,-2.421 -93,-3 -1.353,-1.185 -2.52,-2.519 -3.5,-4 -0.383,0.556 -0.883,0.889 -1.5,1 -1.294,-0.79 -2.461,-1.79 -3.5,-3 -3.344,-9.724 -5.51,-19.724 -6.5,-30 1.303,-4.416 2.303,-8.916 3,-13.5 -0.115,-2.042 -0.449,-4.042 -1,-6 1.871,-2.235 3.371,-4.735 4.5,-7.5 0.667,-3 0.667,-6 0,-9 -8.155,-9.714 -8.655,-19.881 -1.5,-30.5 2.449,-0.725 4.783,-1.725 7,-3 4.507,-3.676 8.841,-7.51 13,-11.5 8.84,2.645 17.674,2.645 26.5,0 3.434,3.434 6.934,6.934 10.5,10.5 5.474,3.603 11.474,5.603 18,6 2.898,3.905 5.398,8.071 7.5,12.5 3.277,7.36 3.277,14.694 0,22 -1.647,6.89 0.186,12.557 5.5,17 0.664,4.154 1.831,8.154 3.5,12 2.77,2.101 4.77,4.768 6,8 3.704,10.354 5.538,21.02 5.5,32 z"
       id="path113" />
  </g>
  <g
     id="g114">
    <path
       style="opacity:1"
       fill="#fcfbfb"
       d="m 585.5,740.5 c 0.697,-5.724 1.697,-11.391 3,-17 -0.589,-7.099 -2.589,-13.766 -6,-20 7.706,-3.535 13.706,-9.035 18,-16.5 1.293,-0.49 2.627,-0.657 4,-0.5 -1.174,12.3 0.992,23.967 6.5,35 2.019,3.014 4.352,5.68 7,8 1.421,3.982 0.254,6.648 -3.5,8 -3.297,-0.996 -6.631,-1.163 -10,-0.5 -3.891,2.734 -7.891,5.234 -12,7.5 -2.624,-0.987 -4.958,-2.32 -7,-4 z"
       id="path114" />
  </g>
  <g
     id="g115">
    <path
       style="opacity:1"
       fill="#d3d2cf"
       d="m 585.5,740.5 c 2.042,1.68 4.376,3.013 7,4 4.109,-2.266 8.109,-4.766 12,-7.5 3.369,-0.663 6.703,-0.496 10,0.5 3.754,-1.352 4.921,-4.018 3.5,-8 -2.648,-2.32 -4.981,-4.986 -7,-8 -5.508,-11.033 -7.674,-22.7 -6.5,-35 -1.373,-0.157 -2.707,0.01 -4,0.5 -4.294,7.465 -10.294,12.965 -18,16.5 -1.279,-1.623 -2.613,-3.29 -4,-5 11.686,-2.184 17.853,-9.184 18.5,-21 7.481,-4.616 12.814,-2.616 16,6 0.588,6.282 0.088,12.448 -1.5,18.5 -0.21,10.746 3.957,19.246 12.5,25.5 2,4 2,8 0,12 -0.903,1.201 -2.069,2.035 -3.5,2.5 -4.863,-1.204 -9.863,-1.537 -15,-1 -2.667,1.333 -4.667,3.333 -6,6 -6.773,2.448 -11.439,0.281 -14,-6.5 z"
       id="path115" />
  </g>
  <g
     id="g116">
    <path
       style="opacity:1"
       fill="#d1d0cf"
       d="m 454.5,738.5 c 2.427,-0.023 4.76,-0.523 7,-1.5 5.966,-4.997 12.299,-5.663 19,-2 3.702,1.393 5.702,0.226 6,-3.5 -1.978,-3.511 -3.811,-7.178 -5.5,-11 -0.249,-6.409 -0.416,-12.742 -0.5,-19 -1.667,-0.833 -3.333,-1.667 -5,-2.5 -6.519,-5.562 -10.519,-12.395 -12,-20.5 0.787,-1.604 2.12,-2.271 4,-2 0.333,14.333 7.667,21.667 22,22 -2.647,6.755 -3.481,13.755 -2.5,21 1.608,3.272 3.608,6.272 6,9 1.667,7.342 -1.166,11.675 -8.5,13 -4.124,-1.479 -8.291,-2.813 -12.5,-4 -3.925,1.097 -7.758,2.431 -11.5,4 -2.602,0.033 -4.602,-0.967 -6,-3 z"
       id="path116" />
  </g>
  <g
     id="g117">
    <path
       style="opacity:1"
       fill="#fafafa"
       d="m 456.5,749.5 c 9,0 18,0 27,0 -0.785,7.323 -0.952,14.656 -0.5,22 1.59,12.458 6.09,23.624 13.5,33.5 -1.814,3.678 -4.814,5.511 -9,5.5 -4.741,-1.425 -9.575,-2.425 -14.5,-3 1.645,-15.117 -1.355,-29.45 -9,-43 -4.486,-3.134 -7.32,-7.301 -8.5,-12.5 0.028,-1.07 0.361,-1.903 1,-2.5 z"
       id="path117" />
  </g>
  <g
     id="g118">
    <path
       style="opacity:1"
       fill="#faf9f9"
       d="m 625.5,753.5 c -0.628,2.59 -1.795,4.923 -3.5,7 -0.543,12.116 0.457,24.116 3,36 2.08,2.565 3.913,5.232 5.5,8 -0.111,0.617 -0.444,1.117 -1,1.5 -3.333,0.333 -6.667,0.667 -10,1 -1.955,0.953 -3.622,2.287 -5,4 -1.845,1.128 -3.845,1.628 -6,1.5 3.909,-19.613 0.576,-37.78 -10,-54.5 4.329,-2.831 8.996,-5.165 14,-7 3.725,-0.76 7.392,-0.593 11,0.5 0.692,-0.525 1.192,-1.192 1.5,-2 0.49,1.293 0.657,2.627 0.5,4 z"
       id="path118" />
  </g>
  <g
     id="g119">
    <path
       style="opacity:1"
       fill="#6d6d6b"
       d="m 598.5,753.5 c -2.344,0.44 -4.344,1.44 -6,3 -0.904,-0.709 -1.237,-1.709 -1,-3 2.333,0 4.667,0 7,0 z"
       id="path119" />
  </g>
  <g
     id="g120">
    <path
       style="opacity:1"
       fill="#cfcecc"
       d="m 487.5,810.5 c 4.186,0.011 7.186,-1.822 9,-5.5 -7.41,-9.876 -11.91,-21.042 -13.5,-33.5 -0.452,-7.344 -0.285,-14.677 0.5,-22 -9,0 -18,0 -27,0 5.181,-1.736 10.515,-3.736 16,-6 2.995,1.164 5.995,2.33 9,3.5 2.968,0.17 5.801,0.336 8.5,0.5 -0.489,5.341 -1.322,10.675 -2.5,16 0.438,11.021 2.604,21.688 6.5,32 1.333,2.667 3.333,4.667 6,6 2.251,4.166 1.417,7.666 -2.5,10.5 -2.667,0.667 -5.333,0.667 -8,0 -0.916,-0.278 -1.582,-0.778 -2,-1.5 z"
       id="path120" />
  </g>
  <g
     id="g121">
    <path
       style="opacity:1"
       fill="#eceded"
       d="m 600.5,802.5 c -1.681,3.082 -2.348,6.415 -2,10 -2.402,-1.42 -4.902,-2.753 -7.5,-4 -8.893,-0.123 -17.893,-0.123 -27,0 -1.333,-0.667 -2.667,-1.333 -4,-2 -17.009,0.089 -34.342,0.422 -52,1 -0.21,-1.558 -0.71,-2.891 -1.5,-4 -0.563,-2.795 -1.896,-5.128 -4,-7 0.617,-0.111 1.117,-0.444 1.5,-1 0.98,1.481 2.147,2.815 3.5,4 31.022,0.579 62.022,1.579 93,3 z"
       id="path121" />
  </g>
  <g
     id="g122">
    <path
       style="opacity:1"
       fill="#d3d2d1"
       d="m 625.5,753.5 c 0.157,-1.373 -0.01,-2.707 -0.5,-4 -0.308,0.808 -0.808,1.475 -1.5,2 -3.608,-1.093 -7.275,-1.26 -11,-0.5 -5.004,1.835 -9.671,4.169 -14,7 10.576,16.72 13.909,34.887 10,54.5 2.155,0.128 4.155,-0.372 6,-1.5 1.378,-1.713 3.045,-3.047 5,-4 3.333,-0.333 6.667,-0.667 10,-1 0.556,-0.383 0.889,-0.883 1,-1.5 1.299,1.653 0.966,3.153 -1,4.5 -3.333,0.333 -6.667,0.667 -10,1 -2.039,2.374 -4.372,4.374 -7,6 -3.136,1.041 -5.636,0.207 -7.5,-2.5 2.74,-14.947 1.407,-29.613 -4,-44 -2.37,-4.769 -5.204,-9.102 -8.5,-13 1.656,-1.56 3.656,-2.56 6,-3 3.969,-2.141 7.802,-4.474 11.5,-7 4.895,2.408 9.728,2.408 14.5,0 1.491,0.848 2.158,2.181 2,4 -0.02,1.226 -0.353,2.226 -1,3 z"
       id="path122" />
  </g>
  <g
     id="g123">
    <path
       style="opacity:1"
       fill="#d8d9d9"
       d="m 506.5,803.5 c 0.79,1.109 1.29,2.442 1.5,4 17.658,-0.578 34.991,-0.911 52,-1 1.333,0.667 2.667,1.333 4,2 9.107,-0.123 18.107,-0.123 27,0 2.598,1.247 5.098,2.58 7.5,4 -0.108,2.283 -0.941,4.283 -2.5,6 -0.497,2.646 -0.664,5.313 -0.5,8 -1.14,-0.661 -2.64,-0.661 -4.5,0 -1.044,-1.123 -1.71,-2.456 -2,-4 -0.893,1.211 -1.726,1.211 -2.5,0 1.355,-1.175 1.188,-2.175 -0.5,-3 -1.649,2.15 -3.482,4.15 -5.5,6 -0.849,-2.01 -0.182,-3.677 2,-5 -0.333,-0.333 -0.667,-0.667 -1,-1 -2.035,1.872 -4.202,3.539 -6.5,5 -0.5,-0.167 -1,-0.333 -1.5,-0.5 1,-1 2,-2 3,-3 -2.388,-0.865 -3.888,-0.032 -4.5,2.5 -1.295,-1.341 -1.795,-2.674 -1.5,-4 -2.254,0.624 -3.921,1.957 -5,4 -0.742,-1.608 -0.909,-3.275 -0.5,-5 -1.333,0.667 -2.333,1.667 -3,3 -0.333,-1 -0.667,-2 -1,-3 -1.667,2 -3.333,4 -5,6 -0.219,-1.438 -0.719,-2.771 -1.5,-4 -3.621,2.703 -4.288,2.37 -2,-1 -0.333,-0.333 -0.667,-0.667 -1,-1 -1.667,1.333 -3.333,2.667 -5,4 -0.596,-1.216 -0.763,-2.549 -0.5,-4 -1.677,1.016 -3.343,2.016 -5,3 -0.95,-0.522 -1.784,-1.189 -2.5,-2 -2.202,1.768 -4.535,2.935 -7,3.5 4.999,-5.436 4.165,-5.936 -2.5,-1.5 -0.833,-1 -1.667,-2 -2.5,-3 -2.943,0.744 -5.943,1.244 -9,1.5 -1.504,1.491 -2.337,3.324 -2.5,5.5 -0.191,-2.208 -0.691,-4.208 -1.5,-6 -0.545,-2.093 -1.378,-4.093 -2.5,-6 -3.877,-2.257 -5.377,-5.59 -4.5,-10 z"
       id="path123" />
  </g>
  <g
     id="g124">
    <path
       style="opacity:1"
       fill="#f3f4f4"
       d="m 465.5,808.5 c -2.009,1.565 -4.343,2.565 -7,3 -2.009,-0.317 -4.009,-0.65 -6,-1 -4.026,1.469 -8.192,2.469 -12.5,3 -0.333,-0.333 -0.667,-0.667 -1,-1 -3.116,1.407 -6.283,2.74 -9.5,4 -0.586,-0.209 -1.086,-0.543 -1.5,-1 -5.111,1.235 -10.278,2.402 -15.5,3.5 -5.059,2.603 -10.393,4.603 -16,6 -4.055,2.601 -7.555,5.768 -10.5,9.5 -0.815,4.234 0.018,8.068 2.5,11.5 -0.333,0.333 -0.667,0.667 -1,1 1.349,0.772 2.182,1.939 2.5,3.5 0.333,-0.667 0.667,-1.333 1,-2 11.667,6.999 23.5,11.499 35.5,13.5 5.622,2.471 11.456,4.305 17.5,5.5 2.42,-0.988 4.753,-0.655 7,1 3.604,-1.086 7.437,-0.753 11.5,1 0.667,-0.333 1.333,-0.667 2,-1 2.539,0.615 5.039,1.282 7.5,2 4.636,0.768 9.469,0.768 14.5,0 1.237,0.056 2.237,0.556 3,1.5 42.367,3.703 84.7,2.87 127,-2.5 1.561,0.847 3.061,0.514 4.5,-1 18.14,-0.303 35.807,-3.637 53,-10 0.333,0.333 0.667,0.667 1,1 7.115,-3.47 13.615,-7.803 19.5,-13 2.163,-4.466 2.329,-8.799 0.5,-13 -1.617,-1.351 -2.784,-3.018 -3.5,-5 -5.43,-2.917 -11.096,-5.417 -17,-7.5 -7.695,-1.47 -15.195,-3.303 -22.5,-5.5 -0.708,0.881 -1.542,1.547 -2.5,2 -4.509,-2.419 -8.842,-5.086 -13,-8 3.214,-0.8 6.381,-1.133 9.5,-1 8.063,2.096 16.229,3.93 24.5,5.5 6.454,2.891 13.12,5.224 20,7 6.737,2.957 12.237,7.457 16.5,13.5 1.66,4.078 1.327,8.078 -1,12 -10.381,9.441 -22.548,15.608 -36.5,18.5 -58.279,12.903 -117.113,16.736 -176.5,11.5 -28.111,-1.266 -55.944,-5.433 -83.5,-12.5 -9.696,-3.229 -19.029,-7.229 -28,-12 -2.511,-2.678 -4.844,-5.511 -7,-8.5 -1.082,-4.348 -0.248,-8.348 2.5,-12 3.552,-3.219 7.385,-6.052 11.5,-8.5 23.465,-10.042 47.965,-15.542 73.5,-16.5 1.302,0.585 2.469,1.251 3.5,2 z"
       id="path124" />
  </g>
  <g
     id="g125">
    <path
       style="opacity:1"
       fill="#d8d6d3"
       d="m 465.5,837.5 c 7.649,-1.99 14.982,-4.824 22,-8.5 7.243,0.311 12.743,-2.522 16.5,-8.5 0.877,-2.174 0.377,-3.841 -1.5,-5 0.017,-1.528 0.684,-2.028 2,-1.5 5.256,5.076 5.256,10.076 0,15 -4.777,1.98 -9.777,2.98 -15,3 -6.75,5.375 -14.417,8.541 -23,9.5 0.067,-1.459 -0.266,-2.792 -1,-4 z"
       id="path125" />
  </g>
  <g
     id="g126">
    <path
       style="opacity:1"
       fill="#f8f7f5"
       d="m 626.5,842.5 c -2.64,-0.454 -4.973,-1.621 -7,-3.5 -5.237,-5.068 -10.237,-10.235 -15,-15.5 0.355,-1.022 1.022,-1.689 2,-2 6.426,1.12 11.426,-1.047 15,-6.5 3.695,-0.318 7.362,-0.818 11,-1.5 9.145,5.076 17.812,10.91 26,17.5 -2.8,1.232 -5.8,1.899 -9,2 -0.727,1.399 -1.227,2.899 -1.5,4.5 -4.154,-1.836 -7.654,-1.003 -10.5,2.5 -3.967,0.003 -7.634,0.836 -11,2.5 z"
       id="path126" />
  </g>
  <g
     id="g127">
    <path
       style="opacity:1"
       fill="#f9f8f7"
       d="m 502.5,815.5 c 1.877,1.159 2.377,2.826 1.5,5 -3.757,5.978 -9.257,8.811 -16.5,8.5 -7.018,3.676 -14.351,6.51 -22,8.5 -6.212,-4.324 -12.879,-8.158 -20,-11.5 -1.333,-1 -1.333,-2 0,-3 8.217,-3.794 16.55,-7.294 25,-10.5 3.971,0.697 7.971,1.197 12,1.5 6.352,5.362 13.018,5.862 20,1.5 z"
       id="path127" />
  </g>
  <g
     id="g128">
    <path
       style="opacity:1"
       fill="#e9e9ea"
       d="m 458.5,811.5 c -3.713,2.185 -7.713,3.852 -12,5 -0.899,-0.972 -2.066,-1.638 -3.5,-2 -4.713,1.96 -9.547,3.627 -14.5,5 -4.332,-0.51 -8.666,-0.01 -13,1.5 -9.648,3.484 -18.314,8.484 -26,15 1.363,1.945 2.197,4.112 2.5,6.5 2.475,2.138 4.975,4.304 7.5,6.5 8.391,4.575 17.557,8.075 27.5,10.5 1.871,-1.168 3.371,-0.668 4.5,1.5 4.526,0.453 8.859,1.62 13,3.5 0.667,-0.333 1.333,-0.667 2,-1 5.252,0.674 10.418,1.674 15.5,3 1.667,-0.333 3.333,-0.667 5,-1 0.519,1.016 1.353,1.682 2.5,2 2.13,-0.258 4.296,-0.591 6.5,-1 14.721,1.926 29.721,3.926 45,6 12.503,-0.723 24.836,-0.723 37,0 5.702,-1.408 11.369,-1.741 17,-1 21.344,-1.653 42.844,-4.32 64.5,-8 3.935,1.082 7.768,0.749 11.5,-1 4.501,-0.611 9.001,-2.111 13.5,-4.5 6.285,-0.716 12.285,-2.383 18,-5 2.821,-1.822 5.321,-3.989 7.5,-6.5 0.251,-1.933 0.751,-3.766 1.5,-5.5 -0.333,-0.333 -0.667,-0.667 -1,-1 0.793,-1.085 1.46,-2.252 2,-3.5 -3.472,-3.667 -7.305,-7.001 -11.5,-10 -0.414,0.457 -0.914,0.791 -1.5,1 -4.353,-2.925 -9.02,-3.925 -14,-3 -3.554,-2.698 -7.388,-5.032 -11.5,-7 -0.355,1.009 -1.188,1.676 -2.5,2 -1,-0.333 -1.667,-1 -2,-2 0.958,-0.453 1.792,-1.119 2.5,-2 7.305,2.197 14.805,4.03 22.5,5.5 5.904,2.083 11.57,4.583 17,7.5 0.716,1.982 1.883,3.649 3.5,5 1.829,4.201 1.663,8.534 -0.5,13 -5.885,5.197 -12.385,9.53 -19.5,13 -0.333,-0.333 -0.667,-0.667 -1,-1 -17.193,6.363 -34.86,9.697 -53,10 -1.439,1.514 -2.939,1.847 -4.5,1 -42.3,5.37 -84.633,6.203 -127,2.5 -0.763,-0.944 -1.763,-1.444 -3,-1.5 -5.031,0.768 -9.864,0.768 -14.5,0 -2.461,-0.718 -4.961,-1.385 -7.5,-2 -0.667,0.333 -1.333,0.667 -2,1 -4.063,-1.753 -7.896,-2.086 -11.5,-1 -2.247,-1.655 -4.58,-1.988 -7,-1 -6.044,-1.195 -11.878,-3.029 -17.5,-5.5 -12,-2.001 -23.833,-6.501 -35.5,-13.5 -0.333,0.667 -0.667,1.333 -1,2 -0.318,-1.561 -1.151,-2.728 -2.5,-3.5 0.333,-0.333 0.667,-0.667 1,-1 -2.482,-3.432 -3.315,-7.266 -2.5,-11.5 2.945,-3.732 6.445,-6.899 10.5,-9.5 5.607,-1.397 10.941,-3.397 16,-6 5.222,-1.098 10.389,-2.265 15.5,-3.5 0.414,0.457 0.914,0.791 1.5,1 3.217,-1.26 6.384,-2.593 9.5,-4 0.333,0.333 0.667,0.667 1,1 4.308,-0.531 8.474,-1.531 12.5,-3 1.991,0.35 3.991,0.683 6,1 z"
       id="path128" />
  </g>
  <g
     id="g129">
    <path
       style="opacity:1"
       fill="#dfe0e1"
       d="m 446.5,816.5 c -6.357,2.519 -12.69,5.352 -19,8.5 -3.392,2.285 -5.059,5.452 -5,9.5 -1.031,0.749 -2.198,1.415 -3.5,2 -0.667,-1.333 -1.333,-2.667 -2,-4 -0.667,1.333 -1.333,1.333 -2,0 -0.197,4.678 -1.197,5.012 -3,1 -0.167,0.833 -0.333,1.667 -0.5,2.5 0.878,1.779 0.878,3.445 0,5 0.259,1.261 0.926,2.261 2,3 -0.333,0.333 -0.667,0.667 -1,1 1.333,0.333 2.667,0.667 4,1 0.63,1.892 1.63,3.559 3,5 4.524,0.269 8.857,1.102 13,2.5 1.6,-0.051 3.1,-0.384 4.5,-1 2.645,3.152 5.478,3.818 8.5,2 0.787,0.742 1.453,1.575 2,2.5 2.264,0.236 4.431,0.736 6.5,1.5 0.414,-0.457 0.914,-0.791 1.5,-1 1.406,0.927 2.906,1.927 4.5,3 6.326,-0.331 12.659,-0.665 19,-1 1.333,2.667 2.667,2.667 4,0 0.667,0.667 1.333,1.333 2,2 5.158,-0.05 10.324,-0.05 15.5,0 5.008,2.305 10.175,2.972 15.5,2 2.524,2.569 5.024,2.569 7.5,0 4.818,1.641 9.818,2.641 15,3 4.721,-0.055 9.554,-0.722 14.5,-2 1.925,2.473 3.758,2.473 5.5,0 7.517,0.787 15.017,1.121 22.5,1 0.745,-1.49 1.912,-2.49 3.5,-3 6.886,0.552 13.72,0.885 20.5,1 0.354,-2.307 1.354,-2.641 3,-1 7.818,-1.943 15.652,-2.777 23.5,-2.5 0.881,-0.708 1.547,-1.542 2,-2.5 3.299,0.876 6.632,1.043 10,0.5 4.217,-2.714 8.883,-4.048 14,-4 2.731,-2.759 6.064,-4.426 10,-5 1.79,-2.491 3.957,-4.658 6.5,-6.5 0.706,-2.471 0.373,-4.805 -1,-7 -6.788,-5.963 -13.955,-11.297 -21.5,-16 1.312,-0.324 2.145,-0.991 2.5,-2 4.112,1.968 7.946,4.302 11.5,7 4.98,-0.925 9.647,0.075 14,3 0.586,-0.209 1.086,-0.543 1.5,-1 4.195,2.999 8.028,6.333 11.5,10 -0.54,1.248 -1.207,2.415 -2,3.5 0.333,0.333 0.667,0.667 1,1 -0.749,1.734 -1.249,3.567 -1.5,5.5 -2.179,2.511 -4.679,4.678 -7.5,6.5 -5.715,2.617 -11.715,4.284 -18,5 -4.499,2.389 -8.999,3.889 -13.5,4.5 -3.732,1.749 -7.565,2.082 -11.5,1 -21.656,3.68 -43.156,6.347 -64.5,8 -5.631,-0.741 -11.298,-0.408 -17,1 -12.164,-0.723 -24.497,-0.723 -37,0 -15.279,-2.074 -30.279,-4.074 -45,-6 -2.204,0.409 -4.37,0.742 -6.5,1 -1.147,-0.318 -1.981,-0.984 -2.5,-2 -1.667,0.333 -3.333,0.667 -5,1 -5.082,-1.326 -10.248,-2.326 -15.5,-3 -0.667,0.333 -1.333,0.667 -2,1 -4.141,-1.88 -8.474,-3.047 -13,-3.5 -1.129,-2.168 -2.629,-2.668 -4.5,-1.5 -9.943,-2.425 -19.109,-5.925 -27.5,-10.5 -2.525,-2.196 -5.025,-4.362 -7.5,-6.5 -0.303,-2.388 -1.137,-4.555 -2.5,-6.5 7.686,-6.516 16.352,-11.516 26,-15 4.334,-1.51 8.668,-2.01 13,-1.5 4.953,-1.373 9.787,-3.04 14.5,-5 1.434,0.362 2.601,1.028 3.5,2 z"
       id="path129" />
  </g>
  <g
     id="g130">
    <path
       style="opacity:1"
       fill="#d6d0cc"
       d="m 629.5,843.5 c 5.791,-1.011 10.624,0.656 14.5,5 0.781,1.444 0.614,2.777 -0.5,4 -6.406,1.297 -11.74,-0.536 -16,-5.5 0.478,-1.303 1.145,-2.469 2,-3.5 z"
       id="path130" />
  </g>
  <g
     id="g131">
    <path
       style="opacity:1"
       fill="#e3dfda"
       d="m 641.5,839.5 c 4.513,0.088 8.513,1.588 12,4.5 4.536,5.486 3.203,7.486 -4,6 -2.333,-3.667 -5.333,-6.667 -9,-9 0.556,-0.383 0.889,-0.883 1,-1.5 z"
       id="path131" />
  </g>
  <g
     id="g132">
    <path
       style="opacity:1"
       fill="#dcd8d5"
       d="m 651.5,835.5 c 4.968,0.78 9.135,3.113 12.5,7 0.611,3.588 -0.889,4.754 -4.5,3.5 -2.192,-3.692 -5.192,-6.526 -9,-8.5 0.363,-0.683 0.696,-1.35 1,-2 z"
       id="path132" />
  </g>
  <g
     id="g133">
    <path
       style="opacity:1"
       fill="#cecbc8"
       d="m 606.5,821.5 c -0.978,0.311 -1.645,0.978 -2,2 4.763,5.265 9.763,10.432 15,15.5 2.027,1.879 4.36,3.046 7,3.5 -1.343,3.173 -3.343,3.673 -6,1.5 -3.586,-2.166 -6.253,-5.166 -8,-9 -8.46,-1.787 -12.293,-6.954 -11.5,-15.5 2.18,-0.725 4.014,-0.059 5.5,2 z"
       id="path133" />
  </g>
  <g
     id="g134">
    <path
       style="opacity:1"
       fill="#d8d5d4"
       d="m 659.5,832.5 c 3.016,0.341 5.682,1.507 8,3.5 1.655,1.444 2.322,3.278 2,5.5 -3.127,-2.258 -6.461,-4.425 -10,-6.5 -1.098,-0.77 -1.098,-1.603 0,-2.5 z"
       id="path134" />
  </g>
  <g
     id="g135">
    <path
       style="opacity:1"
       fill="#dbd6d2"
       d="m 450.5,831.5 c 1.495,-0.085 2.495,0.581 3,2 -4.946,1.472 -9.279,3.972 -13,7.5 -3.174,0.829 -4.174,-0.171 -3,-3 4.147,-2.74 8.48,-4.907 13,-6.5 z"
       id="path135" />
  </g>
  <g
     id="g136">
    <path
       style="opacity:1"
       fill="#cfc9c7"
       d="m 440.5,828.5 c 2.424,-0.308 4.757,0.026 7,1 -6.149,1.911 -11.816,4.578 -17,8 -0.17,-1.322 0.163,-2.489 1,-3.5 3.064,-1.859 6.064,-3.692 9,-5.5 z"
       id="path136" />
  </g>
  <g
     id="g137">
    <path
       style="opacity:1"
       fill="#bbb8ba"
       d="m 437.5,824.5 c 1.603,-0.188 2.937,0.312 4,1.5 -4.963,1.232 -9.463,3.398 -13.5,6.5 -0.617,-0.949 -0.451,-1.782 0.5,-2.5 3.096,-1.872 6.096,-3.705 9,-5.5 z"
       id="path137" />
  </g>
  <g
     id="g138">
    <path
       style="opacity:1"
       fill="#d1d1d2"
       d="m 595.5,826.5 c 2.789,6.287 7.456,10.787 14,13.5 6.827,7.567 14.827,13.4 24,17.5 -0.453,0.958 -1.119,1.792 -2,2.5 -7.848,-0.277 -15.682,0.557 -23.5,2.5 -1.646,-1.641 -2.646,-1.307 -3,1 -6.78,-0.115 -13.614,-0.448 -20.5,-1 -1.588,0.51 -2.755,1.51 -3.5,3 -7.483,0.121 -14.983,-0.213 -22.5,-1 -1.742,2.473 -3.575,2.473 -5.5,0 -4.946,1.278 -9.779,1.945 -14.5,2 -5.182,-0.359 -10.182,-1.359 -15,-3 -2.476,2.569 -4.976,2.569 -7.5,0 -5.325,0.972 -10.492,0.305 -15.5,-2 -5.176,-0.05 -10.342,-0.05 -15.5,0 -0.667,-0.667 -1.333,-1.333 -2,-2 -1.333,2.667 -2.667,2.667 -4,0 -6.341,0.335 -12.674,0.669 -19,1 -1.594,-1.073 -3.094,-2.073 -4.5,-3 -0.586,0.209 -1.086,0.543 -1.5,1 -2.069,-0.764 -4.236,-1.264 -6.5,-1.5 -0.547,-0.925 -1.213,-1.758 -2,-2.5 -3.022,1.818 -5.855,1.152 -8.5,-2 -1.4,0.616 -2.9,0.949 -4.5,1 -4.143,-1.398 -8.476,-2.231 -13,-2.5 -1.37,-1.441 -2.37,-3.108 -3,-5 -1.333,-0.333 -2.667,-0.667 -4,-1 0.333,-0.333 0.667,-0.667 1,-1 -1.074,-0.739 -1.741,-1.739 -2,-3 0.878,-1.555 0.878,-3.221 0,-5 0.167,-0.833 0.333,-1.667 0.5,-2.5 1.803,4.012 2.803,3.678 3,-1 0.667,1.333 1.333,1.333 2,0 0.667,1.333 1.333,2.667 2,4 1.302,-0.585 2.469,-1.251 3.5,-2 4.92,6.319 11.253,10.652 19,13 0.59,1.299 1.59,2.132 3,2.5 12.696,-0.227 25.03,-2.561 37,-7 3.272,-1.608 6.272,-3.608 9,-6 3.667,-0.333 7.333,-0.667 11,-1 8.767,-2.034 12.767,-7.534 12,-16.5 0.809,1.792 1.309,3.792 1.5,6 0.163,-2.176 0.996,-4.009 2.5,-5.5 3.057,-0.256 6.057,-0.756 9,-1.5 0.833,1 1.667,2 2.5,3 6.665,-4.436 7.499,-3.936 2.5,1.5 2.465,-0.565 4.798,-1.732 7,-3.5 0.716,0.811 1.55,1.478 2.5,2 1.657,-0.984 3.323,-1.984 5,-3 -0.263,1.451 -0.096,2.784 0.5,4 1.667,-1.333 3.333,-2.667 5,-4 0.333,0.333 0.667,0.667 1,1 -2.288,3.37 -1.621,3.703 2,1 0.781,1.229 1.281,2.562 1.5,4 1.667,-2 3.333,-4 5,-6 0.333,1 0.667,2 1,3 0.667,-1.333 1.667,-2.333 3,-3 -0.409,1.725 -0.242,3.392 0.5,5 1.079,-2.043 2.746,-3.376 5,-4 -0.295,1.326 0.205,2.659 1.5,4 0.612,-2.532 2.112,-3.365 4.5,-2.5 -1,1 -2,2 -3,3 0.5,0.167 1,0.333 1.5,0.5 2.298,-1.461 4.465,-3.128 6.5,-5 0.333,0.333 0.667,0.667 1,1 -2.182,1.323 -2.849,2.99 -2,5 2.018,-1.85 3.851,-3.85 5.5,-6 1.688,0.825 1.855,1.825 0.5,3 0.774,1.211 1.607,1.211 2.5,0 0.29,1.544 0.956,2.877 2,4 1.86,-0.661 3.36,-0.661 4.5,0 z"
       id="path138" />
  </g>
  <g
     id="g139">
    <path
       style="opacity:1"
       fill="#e5e0dc"
       d="m 455.5,836.5 c 5.304,-0.524 7.638,1.643 7,6.5 -5.687,2.571 -11.521,3.071 -17.5,1.5 -0.507,-1.496 -0.007,-2.663 1.5,-3.5 3.092,-1.546 6.092,-3.046 9,-4.5 z"
       id="path139" />
  </g>
</svg>
